<?xml version="1.0" encoding="UTF-8" standalone="no"?>
<!-- Created with Inkscape (http://www.inkscape.org/) -->

<svg
   width="1000"
   height="1000"
   viewBox="0 0 1000 1000"
   version="1.1"
   id="svg1"
   xml:space="preserve"
   xmlns="http://www.w3.org/2000/svg"
   xmlns:svg="http://www.w3.org/2000/svg"><defs
     id="defs1" /><g
     id="layer2"
     style="display:inline"
     data-layer="301"
     transform="translate(-1.0004354)"><title
       id="title7">coat</title><path
       d="m 519.55857,635.03553 c 18.61058,-10.54615 32.57905,-29.75975 47.04299,-49.13319 10.65522,-14.27191 36.34926,-51.9615 52.25781,-57.26562 18.74781,-6.25077 31.45814,13.24846 32.77314,16.41326 2.45785,5.91528 5.68487,18.19688 -6.3894,21.1466 -22.9247,5.60045 -61.03761,14.64791 -82.39729,41.12679 -48.98195,60.72131 -4.2976,138.97542 6.8938,141.09232 -11.19585,-37.19736 12.0369,-56.59245 70.2459,-86.76612 26.24202,-13.60302 30.59274,-47.04015 31.62282,-48.41629 1.51893,1.61837 2.0178,20.13675 29.43951,35.76535 41.69653,23.76432 93.7218,12.98964 98.16362,76.71837 10.23851,-19.33656 26.14112,-82.6297 -7.54648,-127.05554 -20.72771,-27.33487 -55.66822,-31.63938 -97.64382,-37.9668 -8.13457,-1.22621 -11.86742,-11.98781 -12.91125,-19.75881 -3.0921,-23.01975 -33.85317,-74.76656 -94.57867,-72.39288 -26.61761,1.04045 -57.45054,39.86401 -85.71094,50.30075"
       style="display:inline;fill:#0aff0c;fill-opacity:1;stroke:none;stroke-width:5;stroke-dasharray:none;stroke-opacity:1"
       id="path2"
       color="coat" /><path
       d="m 519.55857,635.03553 c 18.61058,-10.54615 32.57905,-29.75975 47.04299,-49.13319 10.65522,-14.27191 36.34926,-51.9615 52.25781,-57.26562 18.74781,-6.25077 31.45814,13.24846 32.77314,16.41326 2.45785,5.91528 5.68487,18.19688 -6.3894,21.1466 -22.9247,5.60045 -61.03761,14.64791 -82.39729,41.12679 -48.98195,60.72131 -4.2976,138.97542 6.8938,141.09232 -11.19585,-37.19736 12.0369,-56.59245 70.2459,-86.76612 26.24202,-13.60302 30.59274,-47.04015 31.62282,-48.41629 1.51893,1.61837 2.0178,20.13675 29.43951,35.76535 41.69653,23.76432 93.7218,12.98964 98.16362,76.71837 10.23851,-19.33656 26.14112,-82.6297 -7.54648,-127.05554 -20.72771,-27.33487 -55.66822,-31.63938 -97.64382,-37.9668 -8.13457,-1.22621 -11.86742,-11.98781 -12.91125,-19.75881 -3.0921,-23.01975 -33.85317,-74.76656 -94.57867,-72.39288 -26.61761,1.04045 -57.45054,39.86401 -85.71094,50.30075"
       style="display:inline;fill:none;stroke:#000000;stroke-width:5;stroke-dasharray:none;stroke-opacity:1"
       id="path1"
       color="coat-contour" /></g></svg>
