<?xml version="1.0" encoding="UTF-8" standalone="no"?>
<!-- Created with Inkscape (http://www.inkscape.org/) -->

<svg
   width="1000"
   height="1000"
   viewBox="0 0 1000 1000"
   version="1.1"
   id="svg1"
   xml:space="preserve"
   xmlns="http://www.w3.org/2000/svg"
   xmlns:svg="http://www.w3.org/2000/svg"><defs
     id="defs1" /><g
     id="layer2"
     style="display:inline"
     data-layer="301"
     transform="translate(-1.0004354)"><title
       id="title7">coat</title><g
       id="layer3"
       transform="translate(1.0004354)"><path
         style="display:inline;fill:#fe8b2f;fill-opacity:1;fill-rule:evenodd;stroke:none;stroke-width:5;stroke-linecap:round;stroke-dasharray:none;stroke-opacity:1"
         d="m 644.59682,476.06727 c 0,0 10.70026,-15.64511 21.3454,-23.12419 10.64515,-7.47909 33.77039,-11.54036 40.1035,-4.85123 6.3331,6.68913 4.04269,11.48124 4.04269,11.48124 0,0 6.43963,2.76548 8.24709,6.3066 1.80747,3.54111 0.16171,8.73221 0.16171,8.73221 0,0 10.04074,5.55095 11.80466,10.51099 1.76392,4.96005 -1.13196,14.06857 -1.13196,14.06857 0,0 5.33882,3.97719 6.14489,6.95343 0.80608,2.97624 -1.29366,8.24709 -1.29366,8.24709 0,0 7.43872,8.11111 7.76197,12.93661 0.32324,4.8255 -5.01294,11.80466 -5.01294,11.80466 0,0 3.62265,7.99982 -0.80854,12.6132 -4.43119,4.61338 -24.09444,-1.13196 -24.09444,-1.13196 z"
         id="path8"
         transform="translate(-1.0004354)"
         color="tail-main" /><path
         d="m 736.0918,539.94727 c -3.72148,-1.29408 -8.26913,-2.39915 -12.44922,-2.10743 -6.88822,0.48072 -12.81752,2.77265 -19.8086,4.98047 l 7.03321,7.79492 c 0,0 19.66256,5.74424 24.09375,1.13086 3.57525,-3.72224 1.90853,-9.64805 1.13086,-11.79882 z"
         style="display:inline;fill:#58fe2f;fill-opacity:1;fill-rule:evenodd;stroke:none;stroke-width:5;stroke-linecap:round"
         id="path12"
         color="tail-hl-1" /><path
         d="m 728.39453,498.42969 c -7.38789,0.004 -16.91503,0.39163 -23.51172,2.05468 -7.45301,1.87895 -19.60114,7.99558 -27.97461,12.49805 l 8.18555,9.07031 c 7.70004,-2.43923 19.81198,-6.02237 27.39062,-7.01367 5.48732,-0.71774 13.55969,-0.73387 20.62891,-0.54492 -0.0605,-0.0673 -0.0918,-0.10156 -0.0918,-0.10156 0,0 2.09905,-5.27181 1.29297,-8.24805 -0.80607,-2.97624 -6.14453,-6.95312 -6.14453,-6.95312 0,0 0.0885,-0.27785 0.22461,-0.76172 z"
         style="display:inline;fill:#58fe2f;fill-opacity:1;fill-rule:evenodd;stroke:none;stroke-width:5;stroke-linecap:round"
         id="path11"
         color="tail-hl-2" /><path
         d="m 710.18164,460.08984 c -7.43581,0.99992 -20.64886,3.1013 -28.74609,6.27539 -8.60752,3.37413 -22.99361,13.25362 -30.07813,18.30079 l 6.29883,6.98242 c 8.36682,-3.14763 22.89135,-8.44415 32.99609,-11.21485 7.11021,-1.9496 18.08944,-3.87264 27.6543,-5.35351 -0.50816,-0.3017 -0.81055,-0.46875 -0.81055,-0.46875 0,0 1.64732,-5.19131 -0.16015,-8.73242 -1.34176,-2.62873 -5.23653,-4.82922 -7.1543,-5.78907 z"
         style="display:inline;fill:#58fe2f;fill-opacity:1;fill-rule:evenodd;stroke:none;stroke-width:3;stroke-linecap:round"
         id="path10"
         color="tail-hl-1" /><path
         d="m 736.0918,539.94727 c -3.72148,-1.29408 -8.26913,-2.39915 -12.44922,-2.10743 -6.88822,0.48072 -12.81752,2.77265 -19.8086,4.98047 l 7.03321,7.79492 c 0,0 19.66256,5.74424 24.09375,1.13086 3.57525,-3.72224 1.90853,-9.64805 1.13086,-11.79882 z"
         style="display:inline;fill:none;fill-rule:evenodd;stroke:#000000;stroke-width:5;stroke-linecap:round"
         id="path13"
         color="tail-contour" /><path
         d="m 728.39453,498.42969 c -7.38789,0.004 -16.91503,0.39163 -23.51172,2.05468 -7.45301,1.87895 -19.60114,7.99558 -27.97461,12.49805 l 8.18555,9.07031 c 7.70004,-2.43923 19.81198,-6.02237 27.39062,-7.01367 5.48732,-0.71774 13.55969,-0.73387 20.62891,-0.54492 -0.0605,-0.0673 -0.0918,-0.10156 -0.0918,-0.10156 0,0 2.09905,-5.27181 1.29297,-8.24805 -0.80607,-2.97624 -6.14453,-6.95312 -6.14453,-6.95312 0,0 0.0885,-0.27785 0.22461,-0.76172 z"
         style="display:inline;fill:none;fill-rule:evenodd;stroke:#000000;stroke-width:5;stroke-linecap:round"
         id="path14"
         color="tail-contour" /><path
         d="m 710.18164,460.08984 c -7.43581,0.99992 -20.64886,3.1013 -28.74609,6.27539 -8.60752,3.37413 -22.99361,13.25362 -30.07813,18.30079 l 6.29883,6.98242 c 8.36682,-3.14763 22.89135,-8.44415 32.99609,-11.21485 7.11021,-1.9496 18.08944,-3.87264 27.6543,-5.35351 -0.50816,-0.3017 -0.81055,-0.46875 -0.81055,-0.46875 0,0 1.64732,-5.19131 -0.16015,-8.73242 -1.34176,-2.62873 -5.23653,-4.82922 -7.1543,-5.78907 z"
         style="display:inline;fill:none;fill-rule:evenodd;stroke:#000000;stroke-width:3;stroke-linecap:round"
         id="path15"
         color="tail-contour" /><path
         style="display:inline;fill:none;fill-opacity:1;fill-rule:evenodd;stroke:#000000;stroke-width:5;stroke-linecap:round;stroke-dasharray:none;stroke-opacity:1"
         d="m 644.59682,476.06727 c 0,0 10.70026,-15.64511 21.3454,-23.12419 10.64515,-7.47909 33.77039,-11.54036 40.1035,-4.85123 6.3331,6.68913 4.04269,11.48124 4.04269,11.48124 0,0 6.43963,2.76548 8.24709,6.3066 1.80747,3.54111 0.16171,8.73221 0.16171,8.73221 0,0 10.04074,5.55095 11.80466,10.51099 1.76392,4.96005 -1.13196,14.06857 -1.13196,14.06857 0,0 5.33882,3.97719 6.14489,6.95343 0.80608,2.97624 -1.29366,8.24709 -1.29366,8.24709 0,0 7.43872,8.11111 7.76197,12.93661 0.32324,4.8255 -5.01294,11.80466 -5.01294,11.80466 0,0 3.62265,7.99982 -0.80854,12.6132 -4.43119,4.61338 -24.09444,-1.13196 -24.09444,-1.13196 z"
         id="path16"
         transform="translate(-1.0004354)"
         color="tail-contour" /></g><path
       d="m 519.55857,635.03553 c 18.61058,-10.54615 32.57905,-29.75975 47.04299,-49.13319 10.65522,-14.27191 32.46827,-48.72735 48.37682,-54.03147 47.10773,-15.70635 77.5073,59.58742 63.94733,83.53782 -14.25154,25.17191 -50.8938,16.38136 -43.41234,-6.25389 3.8421,-11.62433 13.82429,-10.33817 20.14045,-5.35124 5.87697,4.64017 8.87278,13.00381 12.84337,10.91818 6.26514,-3.29087 -0.48198,-35.46897 -27.41325,-36.59639 -14.96788,-0.6266 -41.85103,2.09925 -41.05999,45.0441 0.79104,42.94485 43.35524,49.31466 65.53507,43.92557 22.17983,-5.3891 33.73041,-10.3326 50.61673,-36.65808 16.88632,-26.32549 18.17946,-66.17679 8.91865,-94.67573 -9.26082,-28.49895 -56.81566,-88.99684 -138.56315,-67.21824 -25.74013,6.85751 -57.45054,39.86401 -85.71094,50.30075"
       style="display:inline;fill:#2ffefe;fill-opacity:1;stroke:none;stroke-width:5;stroke-dasharray:none;stroke-opacity:1"
       id="path3"
       color="coat" /><path
       d="m 519.55857,635.03553 c 18.61058,-10.54615 32.57905,-29.75975 47.04299,-49.13319 10.65522,-14.27191 32.46827,-48.72735 48.37682,-54.03147 47.10773,-15.70635 77.5073,59.58742 63.94733,83.53782 -14.25154,25.17191 -50.8938,16.38136 -43.41234,-6.25389 3.8421,-11.62433 13.82429,-10.33817 20.14045,-5.35124 5.87697,4.64017 8.87278,13.00381 12.84337,10.91818 6.26514,-3.29087 -0.48198,-35.46897 -27.41325,-36.59639 -14.96788,-0.6266 -41.85103,2.09925 -41.05999,45.0441 0.79104,42.94485 43.35524,49.31466 65.53507,43.92557 22.17983,-5.3891 33.73041,-10.3326 50.61673,-36.65808 16.88632,-26.32549 18.17946,-66.17679 8.91865,-94.67573 -9.26082,-28.49895 -56.81566,-88.99684 -138.56315,-67.21824 -25.74013,6.85751 -57.45054,39.86401 -85.71094,50.30075"
       style="display:inline;fill:none;stroke:#000000;stroke-width:5;stroke-dasharray:none;stroke-opacity:1"
       id="path17"
       color="coat-contour" /><g
       id="layer1"
       transform="translate(1.0004354)"><path
         style="fill:#2f4cfe;fill-opacity:1;fill-rule:evenodd;stroke:#000000;stroke-width:5;stroke-linecap:round;stroke-dasharray:none;stroke-opacity:1"
         d="m 518.09522,541.6502 c 0,0 18.7916,-25.81356 29.61524,-20.58203 3.8167,1.84478 2.17254,11.20577 2.17254,11.20577 0,0 4.51975,0.43716 6.06027,2.40124 1.39758,1.78184 0.91476,6.74633 0.91476,6.74633 0,0 8.63089,3.95032 9.71928,7.2037 1.08839,3.25339 0.11435,6.28896 0.11435,6.28896 0,0 4.14131,2.62952 4.57378,4.80247 0.43248,2.17295 -1.60082,5.60288 -1.60082,5.60288 0,0 23.45733,12.23069 9.71929,15.8939 -13.73805,3.66321 -51.79809,-13.03528 -51.79809,-13.03528 0,0 4.10511,-2.92256 3.54468,-5.60288 -0.56042,-2.68032 -7.20371,-7.77544 -7.20371,-7.77544 0,0 2.06537,-4.21815 1.0291,-7.08936 -1.03626,-2.87121 -6.86067,-6.06026 -6.86067,-6.06026 z"
         id="path2"
         color="tail-main" /><path
         d="m 567.29687,555.32422 -36.8125,5.86719 c 0.32852,0.50005 0.56016,0.97186 0.64649,1.38476 0.26945,1.28867 -0.54037,2.63271 -1.45313,3.68164 l 41.81055,0.0703 c -1.10692,-0.63473 -1.82422,-1.00781 -1.82422,-1.00781 0,0 2.03405,-3.43056 1.60156,-5.60351 -0.32885,-1.65234 -2.80243,-3.56917 -3.96875,-4.39258 z"
         style="fill:#fe832f;fill-opacity:1;fill-rule:evenodd;stroke:none;stroke-width:5;stroke-linecap:round"
         id="path6"
         color="tail-hl-1" /><path
         d="m 549.89844,532.18164 -24.73828,18.57031 c -0.29408,2.12945 -1.23243,4.04883 -1.23243,4.04883 0,0 0.73803,0.56668 1.74414,1.42188 l 31.46485,-14.66993 c -0.17927,-0.0855 -0.2793,-0.13086 -0.2793,-0.13086 0,0 0.48352,-4.96425 -0.91406,-6.74609 -1.54052,-1.96408 -6.06055,-2.40234 -6.06055,-2.40234 0,0 0.006,-0.0308 0.0156,-0.0918 z"
         style="fill:#fe832f;fill-opacity:1;fill-rule:evenodd;stroke:none;stroke-width:5;stroke-linecap:round"
         id="path5"
         color="tail-hl-2" /><path
         style="fill:none;fill-rule:evenodd;stroke:#000000;stroke-width:5;stroke-linecap:round;stroke-dasharray:none;stroke-opacity:1"
         d="m 518.09522,541.6502 c 0,0 18.7916,-25.81356 29.61524,-20.58203 3.8167,1.84478 2.17254,11.20577 2.17254,11.20577 0,0 4.51975,0.43716 6.06027,2.40124 1.39758,1.78184 0.91476,6.74633 0.91476,6.74633 0,0 8.63089,3.95032 9.71928,7.2037 1.08839,3.25339 0.11435,6.28896 0.11435,6.28896 0,0 4.14131,2.62952 4.57378,4.80247 0.43248,2.17295 -1.60082,5.60288 -1.60082,5.60288 0,0 23.45733,12.23069 9.71929,15.8939 -13.73805,3.66321 -51.79809,-13.03528 -51.79809,-13.03528 0,0 4.10511,-2.92256 3.54468,-5.60288 -0.56042,-2.68032 -7.20371,-7.77544 -7.20371,-7.77544 0,0 2.06537,-4.21815 1.0291,-7.08936 -1.03626,-2.87121 -6.86067,-6.06026 -6.86067,-6.06026 z"
         id="path7"
         color="tail-contour" /></g></g></svg>
