<?xml version="1.0" encoding="UTF-8" standalone="no"?>
<!-- Created with Inkscape (http://www.inkscape.org/) -->

<svg
   width="1000"
   height="1000"
   viewBox="0 0 1000 1000"
   version="1.1"
   id="svg1"
   xml:space="preserve"
   xmlns="http://www.w3.org/2000/svg"
   xmlns:svg="http://www.w3.org/2000/svg"><defs
     id="defs1" /><g
     id="layer2"
     style="display:inline"
     data-layer="301"
     transform="translate(-1.0004354)"><title
       id="title7">coat</title><g
       id="g8"
       style="display:inline"
       transform="rotate(-5.5030664,647.36615,635.66198)"><path
         d="m 707.42578,554.33984 c 5.22256,25.04044 12.65719,57.82612 19.61133,78.25977 16.47665,48.41405 47.01409,91.26879 63.39062,139.7168 18.60818,55.05006 24.91648,87.41524 29.10743,129.36523 0.93927,9.4018 0.4865,21.70623 -0.42579,33.29297 8.7645,-15.68995 16.74034,-34.53652 21.12305,-55.93164 26.3121,-128.4479 -47.02113,-200.53626 -70.5039,-245.79492 -15.58854,-30.04399 -25.60371,-58.92041 -49.80665,-73.09375 -4.03903,-2.36528 -8.21545,-4.2878 -12.49609,-5.81446 z"
         style="display:inline;fill:#00ff1d;fill-opacity:1;stroke:none;stroke-width:5;stroke-linecap:round"
         id="path8"
         color="gradient"
         data-grad="from:tail-main;to:tail-main;angle:90;range:5%-100%;" /><path
         d="m 729.82031,825.95898 c -9.23446,-23.78803 -25.13323,-66.33998 -31.24414,-92.45312 -9.0126,-38.51266 -13.48875,-78.19387 -14.87695,-117.72266 -0.61972,-17.64651 1.13312,-45.28554 2.76367,-65.8789 -4.29458,-0.35998 -8.63538,-0.42523 -12.99414,-0.23243 -6.30682,24.14895 -21.06503,78.34558 -33.75391,107.50782 -19.15274,44.01784 -52.59921,80.83962 -71.79687,124.83789 -1.77057,4.05789 -3.63046,9.14637 -5.44922,14.59375 17.10573,-12.14797 34.84244,-24.07936 50.08008,-39.17188 17.56048,-17.39325 46.57226,-53.04101 46.57226,-53.04101 0,0 13.15977,53.89232 35.57422,87.96875 7.83941,11.91816 21.02037,22.31746 35.125,33.59179 z"
         style="display:inline;fill:#00ff1d;fill-opacity:1;stroke:none;stroke-width:5;stroke-linecap:round"
         id="path6"
         color="gradient"
         data-grad="from:tail-hl-2;to:tail-hl-2;angle:90;range:5%-100%;" /><path
         d="m 450.38477,877.33984 c 7.69843,-26.6676 19.49293,-63.93825 30.85742,-85.61914 26.96672,-51.44645 70.50571,-92.357 104.13867,-139.71484 19.44017,-27.37328 51.7338,-75.77675 67.5957,-99.67774 -5.7837,1.20813 -11.52042,2.76898 -17.14258,4.59375 -26.94034,8.74399 -46.74795,35.20176 -65.33007,54.33204 -52.40186,53.94765 -127.01465,96.62295 -133.89258,175.29296 -2.84395,32.52916 4.09624,64.13396 13.77344,90.79297 z"
         style="display:inline;fill:#00ff1d;fill-opacity:1;stroke:none;stroke-width:5;stroke-linecap:round"
         id="path4"
         color="gradient"
         data-grad="from:tail-main;to:tail-main;angle:90;range:5%-100%;" /><path
         d="m 707.42578,554.33984 c -6.771,-2.41481 -13.80256,-3.83536 -20.96289,-4.43554 -1.63055,20.59336 -3.38339,48.23239 -2.76367,65.8789 1.3882,39.52879 5.86435,79.21 14.87695,117.72266 6.11091,26.11314 22.00968,68.66509 31.24414,92.45312 23.72657,18.9655 50.07078,40.40748 58.01953,75.72266 5.53189,24.57741 -8.4082,84.73438 -8.4082,84.73438 0,0 21.5285,-18.95118 39.67773,-51.44141 0.91229,-11.58674 1.36506,-23.89117 0.42579,-33.29297 -4.19095,-41.94999 -10.49925,-74.31517 -29.10743,-129.36523 -16.37653,-48.44801 -46.91397,-91.30275 -63.39062,-139.7168 -6.95414,-20.43365 -14.38877,-53.21933 -19.61133,-78.25977 z"
         style="display:inline;fill:#ff0000;fill-opacity:1;stroke:none;stroke-width:5;stroke-linecap:round"
         id="path7"
         color="gradient"
         data-grad="from:tail-hl-1;to:tail-hl-1;angle:90;range:5%-100%;" /><path
         d="m 562.46875,796.61133 c 1.81876,-5.44738 3.67865,-10.53586 5.44922,-14.59375 19.19766,-43.99827 52.64413,-80.82005 71.79687,-124.83789 12.68888,-29.16224 27.44709,-83.35887 33.75391,-107.50782 -6.82336,0.30184 -13.69036,1.23546 -20.49219,2.65625 -15.8619,23.90099 -48.15553,72.30446 -67.5957,99.67774 -33.63296,47.35784 -77.17195,88.26839 -104.13867,139.71484 -11.36449,21.68089 -23.15899,58.95154 -30.85742,85.61914 15.70539,43.26565 38.61914,73.50196 38.61914,73.50196 0,0 0.0132,-67.8822 16.81836,-98.31836 13.22469,-23.95145 34.40172,-40.11456 56.64648,-55.91211 z"
         style="display:inline;fill:#ff0000;fill-opacity:1;stroke:none;stroke-width:5;stroke-linecap:round"
         id="path5"
         color="gradient"
         data-grad="from:tail-hl-1;to:tail-hl-1;angle:90;range:5%-100%;" /><path
         d="m 707.42578,554.33984 c -6.771,-2.41481 -13.80256,-3.83536 -20.96289,-4.43554 -1.63055,20.59336 -3.38339,48.23239 -2.76367,65.8789 1.3882,39.52879 5.86435,79.21 14.87695,117.72266 6.11091,26.11314 22.00968,68.66509 31.24414,92.45312 23.72657,18.9655 50.07078,40.40748 58.01953,75.72266 5.53189,24.57741 -8.4082,84.73438 -8.4082,84.73438 0,0 21.5285,-18.95118 39.67773,-51.44141 0.91229,-11.58674 1.36506,-23.89117 0.42579,-33.29297 -4.19095,-41.94999 -10.49925,-74.31517 -29.10743,-129.36523 -16.37653,-48.44801 -46.91397,-91.30275 -63.39062,-139.7168 -6.95414,-20.43365 -14.38877,-53.21933 -19.61133,-78.25977 z"
         style="display:inline;fill:none;stroke:#000000;stroke-width:3;stroke-linecap:round;stroke-dasharray:none"
         id="path9"
         color="tail-contour" /><path
         d="m 562.46875,796.61133 c 1.81876,-5.44738 3.67865,-10.53586 5.44922,-14.59375 19.19766,-43.99827 52.64413,-80.82005 71.79687,-124.83789 12.68888,-29.16224 27.44709,-83.35887 33.75391,-107.50782 -6.82336,0.30184 -13.69036,1.23546 -20.49219,2.65625 -15.8619,23.90099 -48.15553,72.30446 -67.5957,99.67774 -33.63296,47.35784 -77.17195,88.26839 -104.13867,139.71484 -11.36449,21.68089 -23.15899,58.95154 -30.85742,85.61914 15.70539,43.26565 38.61914,73.50196 38.61914,73.50196 0,0 0.0132,-67.8822 16.81836,-98.31836 13.22469,-23.95145 34.40172,-40.11456 56.64648,-55.91211 z"
         style="display:inline;fill:none;stroke:#000000;stroke-width:3;stroke-linecap:round;stroke-dasharray:none"
         id="path10"
         color="tail-contour" /><path
         style="display:inline;fill:none;stroke:#000000;stroke-width:5;stroke-linecap:round;stroke-dasharray:none;stroke-opacity:1"
         d="m 719.92238,560.15525 c 24.20293,14.17334 34.21741,43.04784 49.80595,73.09183 23.48277,45.25866 96.81663,117.34771 70.50453,245.79561 -13.45829,65.69943 -60.80207,107.37387 -60.80207,107.37387 0,0 13.94069,-60.15739 8.4088,-84.7348 -12.67402,-56.30884 -72.11687,-77.34767 -93.1436,-109.31436 -22.41445,-34.07643 -35.57568,-87.96895 -35.57568,-87.96895 0,0 -29.01132,35.64685 -46.5718,53.0401 -35.05308,34.71925 -83.33283,52.7145 -106.72703,95.08409 -16.8052,30.43616 -16.8176,98.31824 -16.8176,98.31824 0,0 -59.85273,-78.97333 -52.39327,-164.29495 6.87793,-78.67001 81.49206,-121.34342 133.89392,-175.29107 18.58212,-19.13028 38.38954,-45.58978 65.32988,-54.33377 27.95169,-9.07225 58.72909,-11.61611 84.08797,3.23416 z"
         id="path2"
         color="tail-contour" /></g><path
       d="m 500.82031,518.43945 c 6.78143,12.23414 15.86098,31.04099 18.58399,48.1836 4.25009,26.75634 1.92594,52.97321 -0.25,68.16992 18.61058,-10.54615 32.98332,-29.51719 47.44726,-48.89063 10.65522,-14.27191 36.34926,-51.9615 52.25781,-57.26562 18.74781,-6.25077 34.78585,16.51904 32.77314,16.41326 -4.4487,-0.2338 -32.37043,2.71363 -33.80609,20.55282 -1.02344,12.71695 17.60811,6.9847 20.57447,4.70541 -1.17249,9.98378 0.0309,22.69174 11.2223,24.80864 13.6833,2.58825 22.14199,-12.48717 24.65333,-15.84217 3.23695,2.34286 20.40353,20.41523 30.49769,18.69329 14.76633,-2.51897 9.3581,-19.54742 3.79995,-24.64739 5.72057,2.98968 20.69698,8.73335 25.1995,-0.85576 8.58251,-18.27836 -52.69371,-28.15769 -52.66374,-31.52897 0.20649,-23.22558 -33.85317,-74.76656 -94.57867,-72.39288 -26.61761,1.04045 -57.45054,39.45974 -85.71094,49.89648 z"
       style="display:inline;fill:#ff0000;stroke-width:0.885764"
       id="path11"
       color="coat" /><path
       d="m 519.55857,635.03553 c 18.61058,-10.54615 32.57905,-29.75975 47.04299,-49.13319 10.65522,-14.27191 36.34926,-51.9615 52.25781,-57.26562 18.74781,-6.25077 34.78585,16.51904 32.77314,16.41326 -4.4487,-0.2338 -32.37043,2.71363 -33.80609,20.55282 -1.02344,12.71695 16.57901,6.41298 20.57447,4.70541 -1.17249,9.98378 0.0309,22.69174 11.2223,24.80864 13.6833,2.58825 22.14199,-12.48717 24.65333,-15.84217 3.80867,4.05803 20.40353,20.41523 30.49769,18.69329 14.76633,-2.51897 7.98597,-17.48922 3.79995,-24.64739 4.80581,1.84623 20.69698,8.73335 25.1995,-0.85576 8.58251,-18.27836 -52.69371,-28.15769 -52.66374,-31.52897 0.20649,-23.22558 -33.85317,-74.76656 -94.57867,-72.39288 -26.61761,1.04045 -57.45054,39.86401 -85.71094,50.30075"
       style="display:inline;fill:none;stroke:#000000;stroke-width:5;stroke-dasharray:none;stroke-opacity:1"
       id="path1"
       color="coat-contour" /></g></svg>
