<?xml version="1.0" encoding="UTF-8" standalone="no"?>
<!-- Created with Inkscape (http://www.inkscape.org/) -->

<svg
   width="1000"
   height="1000"
   viewBox="0 0 1000 1000"
   version="1.1"
   id="svg1"
   xml:space="preserve"
   xmlns="http://www.w3.org/2000/svg"
   xmlns:svg="http://www.w3.org/2000/svg"><defs
     id="defs1" /><g
     id="layer2"
     style="display:inline"
     data-layer="301"
     transform="translate(-1.0004354)"><title
       id="title7">coat</title><g
       id="g13"><path
         style="opacity:1;fill:#30a6b7;fill-opacity:1;fill-rule:evenodd;stroke:none;stroke-width:5;stroke-linecap:round;stroke-miterlimit:100;stroke-dasharray:none;stroke-opacity:1"
         d="m 624.83829,481.24192 c 0,0 -2.88035,-32.88518 9.05563,-49.48254 32.25402,-44.85023 91.84994,-44.95472 91.84994,-44.95472 0,0 8.97698,6.20704 13.90685,15.36222 2.71482,5.04164 6.79172,17.30272 6.79172,17.30272 0,0 -6.91194,-1.99001 -12.61319,-2.42561 -4.98762,-0.38107 -11.48125,1.45537 -11.48125,1.45537 0,0 9.50788,3.51635 15.03882,5.33634 5.87601,1.93354 13.58344,7.92368 13.58344,7.92368 0,0 5.93121,14.25188 2.58732,39.45666 -3.35375,25.27912 -14.8771,38.80983 -14.8771,38.80983 0,0 -16.20113,-15.25194 -46.08667,-14.8771 -19.54423,0.24513 -38.0013,17.14101 -38.0013,17.14101 z"
         id="path13"
         transform="translate(1.0004354)"
         color="tail-main" /><path
         style="display:inline;opacity:1;fill:none;fill-opacity:1;fill-rule:evenodd;stroke:#000000;stroke-width:3;stroke-linecap:round;stroke-miterlimit:100;stroke-dasharray:none;stroke-opacity:1"
         d="m 751.80898,478.97801 c 0,0 -23.34989,-14.3863 -49.32083,-10.34929 -41.30672,6.42085 -53.68693,34.12031 -53.68693,34.12031 l -6.14489,-7.76197 c 0,0 9.62347,-35.68722 43.98447,-47.05691 36.7184,-12.14974 68.07892,1.77878 68.07892,1.77878"
         id="path15"
         color="tail-contour" /><path
         style="display:inline;opacity:1;fill:none;fill-opacity:1;fill-rule:evenodd;stroke:#000000;stroke-width:3;stroke-linecap:round;stroke-miterlimit:100;stroke-dasharray:none;stroke-opacity:1"
         d="m 632.95387,489.65071 c 0,0 7.53795,-42.89454 28.78396,-60.96378 33.33574,-28.35127 79.72186,-22.80077 79.72186,-22.80077"
         id="path16"
         color="tail-contour" /><path
         style="opacity:1;fill:none;fill-opacity:1;fill-rule:evenodd;stroke:#000000;stroke-width:5;stroke-linecap:round;stroke-miterlimit:100;stroke-dasharray:none;stroke-opacity:1"
         d="m 624.83829,481.24192 c 0,0 -2.88035,-32.88518 9.05563,-49.48254 32.25402,-44.85023 91.84994,-44.95472 91.84994,-44.95472 0,0 8.97698,6.20704 13.90685,15.36222 2.71482,5.04164 6.79172,17.30272 6.79172,17.30272 0,0 -6.91194,-1.99001 -12.61319,-2.42561 -4.98762,-0.38107 -11.48125,1.45537 -11.48125,1.45537 0,0 9.50788,3.51635 15.03882,5.33634 5.87601,1.93354 13.58344,7.92368 13.58344,7.92368 0,0 5.93121,14.25188 2.58732,39.45666 -3.35375,25.27912 -14.8771,38.80983 -14.8771,38.80983 0,0 -16.20113,-15.25194 -46.08667,-14.8771 -19.54423,0.24513 -38.0013,17.14101 -38.0013,17.14101 z"
         id="path14"
         transform="translate(1.0004354)"
         color="tail-contour" /></g><g
       id="g8"
       style="display:inline"
       transform="rotate(-5.5030664,647.36615,635.66198)"><path
         style="display:inline;opacity:1;fill:#30a6b7;fill-opacity:1;fill-rule:evenodd;stroke:none;stroke-width:5;stroke-linecap:round;stroke-miterlimit:100;stroke-dasharray:none"
         d="m 625.89011,553.78755 c -25.04513,17.82877 -94.74252,114.55261 -138.81668,221.36871 -22.3565,54.18218 -65.73842,102.17439 -65.73842,102.17439 0,0 19.76498,21.52034 57.86037,33.23611 44.50118,13.6858 72.53676,11.8867 72.53676,11.8867 0,0 19.77441,-14.64983 38.53331,-51.04226 8.33923,-16.17817 26.4144,-73.58889 26.4144,-73.58889 0,0 5.81531,30.00901 0.31851,71.4578 -4.55669,34.35984 -18.76039,57.82004 -18.76039,57.82004 0,0 83.63734,10.15579 168.98206,-41.1834 89.66286,-53.93678 101.07268,-151.96217 101.07268,-151.96217 0,0 -4.22913,-24.63629 -46.5718,-81.59855 -45.8681,-61.70491 -95.0966,-92.10017 -95.0966,-92.10017 z"
         id="path3"
         transform="rotate(5.5030664,647.36615,635.66198)"
         color="tail-main" /><path
         d="m 673.57134,558.52472 c 4.12861,47.43331 10.87456,137.318 8.38941,194.06027 -3.6311,82.90701 -16.73461,141.97249 -24.00596,169.1925 21.6518,-3.10757 45.9118,-8.98953 71.08473,-19.44258 2.90031,-28.00519 7.18343,-86.40593 0.94266,-147.42108 -5.54703,-54.23263 -26.90262,-144.86454 -39.01033,-193.57856 z"
         style="display:inline;opacity:1;fill:#41b730;fill-opacity:1;fill-rule:evenodd;stroke:none;stroke-width:5;stroke-linecap:round;stroke-miterlimit:100"
         id="path7"
         color="tail-hl-2" /><path
         d="m 480.6467,902.98603 c 16.8642,-18.48567 42.2062,-49.01281 61.1978,-83.94778 29.51021,-54.28391 43.12957,-108.40677 67.49893,-161.67245 12.55878,-27.45055 33.66002,-72.22268 47.52899,-101.54087 l -12.95675,-2.09203 c -11.73431,22.14617 -33.72626,63.46921 -49.54129,92.08164 -28.38287,51.35008 -49.74252,119.96148 -100.06367,180.13069 -25.20957,30.14318 -46.68873,46.98133 -62.15158,56.33256 6.2388,3.79631 13.38254,7.53701 21.44864,10.89422 9.84854,4.09909 18.91377,7.30547 27.03893,9.81402 z"
         style="display:inline;opacity:1;fill:#b73030;fill-opacity:1;fill-rule:evenodd;stroke:none;stroke-width:5;stroke-linecap:round;stroke-miterlimit:100"
         id="path6"
         color="tail-hl-2" /><path
         d="m 690.97185,561.33527 c 12.10771,48.71402 33.4633,139.34593 39.01033,193.57856 6.24077,61.01515 1.95765,119.41589 -0.94266,147.42108 4.51667,-1.87554 9.06248,-3.89825 13.62815,-6.07851 17.05806,-8.14577 31.71298,-17.9685 44.2746,-28.59685 -0.36906,-28.82548 -3.86765,-75.68281 -18.71302,-132.95421 C 748.16616,657.3047 721.12494,598.07962 702.80988,563.24692 Z"
         style="display:inline;opacity:1;fill:#b73030;fill-opacity:1;fill-rule:evenodd;stroke:none;stroke-width:5;stroke-linecap:round;stroke-miterlimit:100"
         id="path8"
         color="tail-hl-1" /><path
         d="m 432.15913,882.27779 c 15.46285,-9.35123 36.94201,-26.18938 62.15158,-56.33256 50.32115,-60.16921 71.6808,-128.78061 100.06367,-180.13069 15.81503,-28.61243 37.80698,-69.93547 49.54129,-92.08164 l -3.3406,-0.53964 c -14.01953,18.52499 -38.34381,51.91672 -58.42199,85.93015 -16.81412,28.48395 -46.51077,105.18019 -106.49854,175.37448 -19.57455,22.90504 -45.62959,41.74601 -63.49329,53.23257 5.11652,4.43973 11.77041,9.54092 19.99788,14.54733 z"
         style="display:inline;opacity:1;fill:#41b730;fill-opacity:1;fill-rule:evenodd;stroke:none;stroke-width:5;stroke-linecap:round;stroke-miterlimit:100"
         id="path5"
         color="tail-hl-1" /><path
         style="display:inline;opacity:1;fill:none;fill-rule:evenodd;stroke:#000000;stroke-width:5;stroke-linecap:round;stroke-miterlimit:100;stroke-dasharray:none"
         d="m 625.89011,553.78755 c -25.04513,17.82877 -94.74252,114.55261 -138.81668,221.36871 -22.3565,54.18218 -65.73842,102.17439 -65.73842,102.17439 0,0 19.76498,21.52034 57.86037,33.23611 44.50118,13.6858 72.53676,11.8867 72.53676,11.8867 0,0 19.77441,-14.64983 38.53331,-51.04226 8.33923,-16.17817 26.4144,-73.58889 26.4144,-73.58889 0,0 5.81531,30.00901 0.31851,71.4578 -4.55669,34.35984 -18.76039,57.82004 -18.76039,57.82004 0,0 83.63734,10.15579 168.98206,-41.1834 89.66286,-53.93678 101.07268,-151.96217 101.07268,-151.96217 0,0 -4.22913,-24.63629 -46.5718,-81.59855 -45.8681,-61.70491 -95.0966,-92.10017 -95.0966,-92.10017 z"
         id="path9"
         transform="rotate(5.5030664,647.36615,635.66198)"
         color="tail-contour" /><path
         style="opacity:1;fill:none;fill-opacity:1;fill-rule:evenodd;stroke:#000000;stroke-width:3;stroke-linecap:round;stroke-miterlimit:100;stroke-dasharray:none;stroke-opacity:1"
         d="m 405.78716,862.44759 c 0,0 51.0069,-43.9259 71.56195,-70.30083 40.58901,-52.08124 63.73862,-115.82032 100.09699,-170.9383 26.22465,-39.75562 64.50288,-74.44542 74.94092,-67.21831 17.59414,12.18187 -25.77767,91.46907 -42.82227,139.23713 -17.15835,48.08685 -34.64027,105.94674 -61.07086,152.18289 -13.83486,24.20191 -46.05625,63.10872 -46.05625,63.10872"
         id="path10"
         color="tail-contour" /><path
         style="opacity:1;fill:none;fill-opacity:1;fill-rule:evenodd;stroke:#000000;stroke-width:3;stroke-linecap:round;stroke-miterlimit:100;stroke-dasharray:none;stroke-opacity:1"
         d="m 610.80861,923.55464 c 0,0 12.99271,-53.67523 21.3551,-97.65323 8.0372,-42.26779 13.49561,-112.87004 22.36422,-173.43397 7.79292,-53.21802 19.56383,-99.60267 19.56383,-99.60267 0,0 55.44424,29.36183 72.42288,54.30554 79.45064,116.72274 84.89703,206.22203 84.89703,206.22203"
         id="path12"
         color="tail-contour" /></g><path
       d="m 500.82031,518.43945 c 6.78143,12.23414 15.86098,31.04099 18.58399,48.1836 4.25009,26.75634 1.92594,52.97321 -0.25,68.16992 18.61058,-10.54615 32.98332,-29.51719 47.44726,-48.89063 10.65522,-14.27191 36.34926,-51.9615 52.25781,-57.26562 18.74781,-6.25077 34.78585,16.51904 32.77314,16.41326 -4.4487,-0.2338 -32.37043,2.71363 -33.80609,20.55282 -1.02344,12.71695 17.60811,6.9847 20.57447,4.70541 -1.17249,9.98378 0.0309,22.69174 11.2223,24.80864 13.6833,2.58825 22.14199,-12.48717 24.65333,-15.84217 3.23695,2.34286 20.40353,20.41523 30.49769,18.69329 14.76633,-2.51897 9.3581,-19.54742 3.79995,-24.64739 5.72057,2.98968 20.69698,8.73335 25.1995,-0.85576 8.58251,-18.27836 -52.69371,-28.15769 -52.66374,-31.52897 0.20649,-23.22558 -33.85317,-74.76656 -94.57867,-72.39288 -26.61761,1.04045 -57.45054,39.45974 -85.71094,49.89648 z"
       style="display:inline;fill:#ff0000;stroke-width:0.885764"
       id="path11"
       color="coat" /><path
       d="m 519.55857,635.03553 c 18.61058,-10.54615 32.57905,-29.75975 47.04299,-49.13319 10.65522,-14.27191 36.34926,-51.9615 52.25781,-57.26562 18.74781,-6.25077 34.78585,16.51904 32.77314,16.41326 -4.4487,-0.2338 -32.37043,2.71363 -33.80609,20.55282 -1.02344,12.71695 16.57901,6.41298 20.57447,4.70541 -1.17249,9.98378 0.0309,22.69174 11.2223,24.80864 13.6833,2.58825 22.14199,-12.48717 24.65333,-15.84217 3.80867,4.05803 20.40353,20.41523 30.49769,18.69329 14.76633,-2.51897 7.98597,-17.48922 3.79995,-24.64739 4.80581,1.84623 20.69698,8.73335 25.1995,-0.85576 8.58251,-18.27836 -52.69371,-28.15769 -52.66374,-31.52897 0.20649,-23.22558 -33.85317,-74.76656 -94.57867,-72.39288 -26.61761,1.04045 -57.45054,39.86401 -85.71094,50.30075"
       style="display:inline;fill:none;stroke:#000000;stroke-width:5;stroke-dasharray:none;stroke-opacity:1"
       id="path1"
       color="coat-contour" /></g></svg>
