<?xml version="1.0" encoding="UTF-8" standalone="no"?>
<!-- Created with Inkscape (http://www.inkscape.org/) -->

<svg
   width="1000"
   height="1000"
   viewBox="0 0 1000 1000"
   version="1.1"
   id="svg1"
   xml:space="preserve"
   sodipodi:docname="Changeling01.svg"
   inkscape:version="1.4.2 (f4327f4, 2025-05-13)"
   xmlns:inkscape="http://www.inkscape.org/namespaces/inkscape"
   xmlns:sodipodi="http://sodipodi.sourceforge.net/DTD/sodipodi-0.dtd"
   xmlns="http://www.w3.org/2000/svg"
   xmlns:svg="http://www.w3.org/2000/svg"><sodipodi:namedview
     id="namedview1"
     pagecolor="#ffffff"
     bordercolor="#000000"
     borderopacity="0.25"
     inkscape:showpageshadow="2"
     inkscape:pageopacity="0.0"
     inkscape:pagecheckerboard="0"
     inkscape:deskcolor="#d1d1d1"
     inkscape:zoom="0.773"
     inkscape:cx="459.89651"
     inkscape:cy="621.60414"
     inkscape:window-width="1920"
     inkscape:window-height="991"
     inkscape:window-x="-9"
     inkscape:window-y="-9"
     inkscape:window-maximized="1"
     inkscape:current-layer="g8" /><defs
     id="defs1" /><g
     id="layer2"
     style="display:inline"
     data-layer="301"
     transform="translate(-1.0004354)"><title
       id="title7">coat</title><g
       id="g8"
       style="display:inline"
       transform="rotate(-5.5030664,647.36615,635.66198)"><path
         style="display:inline;opacity:1;fill:#00ffff;fill-rule:evenodd;stroke:none;stroke-width:5;stroke-linecap:round;stroke-miterlimit:100"
         d="m 615.48944,558.86158 c -69.30989,44.4345 -143.48937,162.24103 -95.73091,227.68435 40.70457,55.77739 86.67529,-20.69858 86.67529,-20.69858 0,0 37.37888,119.39189 138.42173,112.54851 90.1838,-6.10793 62.09573,-119.01682 62.09573,-119.01682 0,0 105.67931,78.00114 103.49289,-2.58732 -2.1401,-78.88093 -94.85547,-152.91189 -175.93791,-194.04916 -35.39812,-17.95928 -85.60092,-25.30388 -119.01682,-3.88098 z"
         id="path2"
         transform="rotate(5.5030664,647.36615,635.66198)"
         sodipodi:nodetypes="sscscsss"
         color="gradient"
         data-grad="from:mane-main;to:mane-main;fromOpacity:0.6;toOpacity:0.4;range:50%-80%" /><path
         d="m 838.59155,805.28613 c 26.66608,14.08224 56.05131,19.23202 59.02358,-23.8245 5.43437,-78.72261 -79.75381,-161.30331 -156.51752,-210.02671 -1.97871,-1.25592 -4.01188,-2.47993 -6.09432,-3.66775 19.04863,26.95101 44.25467,66.23951 55.93807,100.09527 18.47522,53.53688 37.08505,107.07465 47.65019,137.42369 z"
         style="display:inline;opacity:1;fill:none;fill-rule:evenodd;stroke-width:4;stroke-linecap:round;stroke-miterlimit:100;stroke:#000000;fill-opacity:1;stroke-dasharray:none;stroke-opacity:1"
         id="path8"
         color="mane-contour" /><path
         d="m 706.1495,554.87626 c -16.01331,-5.36197 -33.04891,-8.25942 -49.26101,-7.38508 1.14438,35.52568 3.41969,129.5186 -2.43301,181.30151 -5.71292,50.54617 -14.24324,85.71769 -23.6378,110.13725 19.56405,24.92636 48.49994,46.50828 90.3109,47.69697 26.71787,0.75959 44.03707,-8.7686 55.18011,-22.56619 C 764.33935,839.24345 746.58054,793.37544 723.89812,709.49016 710.07134,658.35529 706.84978,590.36488 706.1495,554.87626 Z"
         style="display:inline;opacity:1;fill:none;fill-rule:evenodd;stroke-width:4;stroke-linecap:round;stroke-miterlimit:100;fill-opacity:1;stroke:#000000;stroke-opacity:1;stroke-dasharray:none"
         id="path7"
         color="mane-contour" /><path
         d="m 561.51823,790.71824 c -0.88776,-27.18435 0.27458,-57.19494 5.63761,-86.58106 8.37122,-45.86905 46.28988,-121.22639 61.75019,-150.67894 -2.00641,0.81238 -3.9772,1.71081 -5.90528,2.70004 -73.25168,37.58296 -158.38647,147.73402 -117.12408,217.4557 17.03162,28.77859 38.26838,26.79892 55.64156,17.10426 z"
         style="display:inline;opacity:1;fill:none;fill-rule:evenodd;stroke-width:4;stroke-linecap:round;stroke-miterlimit:100;fill-opacity:1;stroke:#000000;stroke-opacity:1;stroke-dasharray:none"
         id="path6"
         color="mane-contour" /><path
         style="display:inline;opacity:1;fill:none;fill-rule:evenodd;stroke:#000000;stroke-width:5;stroke-linecap:round;stroke-miterlimit:100"
         d="m 615.48944,558.86158 c -69.30989,44.4345 -143.48937,162.24103 -95.73091,227.68435 40.70457,55.77739 86.67529,-20.69858 86.67529,-20.69858 0,0 37.37888,119.39189 138.42173,112.54851 90.1838,-6.10793 62.09573,-119.01682 62.09573,-119.01682 0,0 105.67931,78.00114 103.49289,-2.58732 -2.1401,-78.88093 -94.85547,-152.91189 -175.93791,-194.04916 -35.39812,-17.95928 -85.60092,-25.30388 -119.01682,-3.88098 z"
         id="path3"
         transform="rotate(5.5030664,647.36615,635.66198)"
         sodipodi:nodetypes="sscscsss"
         color="mane-contour" /><ellipse
         style="display:inline;opacity:1;fill:#fff400;fill-opacity:1;fill-rule:evenodd;stroke:none;stroke-width:3.23029;stroke-linecap:round;stroke-miterlimit:100;stroke-dasharray:none;stroke-opacity:1"
         id="path9"
         cx="677.66956"
         cy="668.81775"
         rx="6.7917204"
         ry="4.8512287"
         transform="rotate(5.5030664)"
         color="gradient"
         data-grad="from:#ffffff;to:#ffffff;fromOpacity:0.3;toOpacity:0.4;range:50%-80%" /><ellipse
         style="display:inline;opacity:1;fill:#fff400;fill-opacity:1;fill-rule:evenodd;stroke:none;stroke-width:2.41415;stroke-linecap:round;stroke-miterlimit:100;stroke-dasharray:none;stroke-opacity:1"
         id="ellipse9"
         cx="956.79767"
         cy="109.72642"
         rx="5.0757737"
         ry="3.6255524"
         transform="rotate(34.058882)"
         color="gradient"
         data-grad="from:#ffffff;to:#ffffff;fromOpacity:0.3;toOpacity:0.4;range:50%-80%" /><ellipse
         style="display:inline;opacity:1;fill:#fff400;fill-opacity:1;fill-rule:evenodd;stroke:none;stroke-width:2.13721;stroke-linecap:round;stroke-miterlimit:100;stroke-dasharray:none;stroke-opacity:1"
         id="ellipse10"
         cx="-84.087723"
         cy="850.22412"
         rx="4.4935107"
         ry="3.2096505"
         transform="rotate(-44.455385)"
         color="gradient"
         data-grad="from:#ffffff;to:#ffffff;fromOpacity:0.3;toOpacity:0.4;range:50%-80%" /><ellipse
         style="display:inline;opacity:1;fill:#fff400;fill-opacity:1;fill-rule:evenodd;stroke:none;stroke-width:3.23029;stroke-linecap:round;stroke-miterlimit:100;stroke-dasharray:none;stroke-opacity:1"
         id="ellipse11"
         cx="950.84381"
         cy="-44.690094"
         rx="6.7917204"
         ry="4.8512287"
         transform="rotate(48.655458)"
         color="gradient"
         data-grad="from:#ffffff;to:#ffffff;fromOpacity:0.3;toOpacity:0.4;range:50%-80%" /><circle
         style="display:inline;opacity:1;fill:#fff400;fill-opacity:1;fill-rule:evenodd;stroke:none;stroke-width:3.82213;stroke-linecap:round;stroke-miterlimit:100;stroke-dasharray:none;stroke-opacity:1"
         id="ellipse12"
         cx="-561.42188"
         cy="707.81287"
         transform="rotate(-73.611408)"
         color="gradient"
         data-grad="from:#ffffff;to:#ffffff;fromOpacity:0.3;toOpacity:0.4;range:50%-80%"
         r="6.7917204" /><ellipse
         style="display:inline;opacity:1;fill:#fff400;fill-opacity:1;fill-rule:evenodd;stroke:none;stroke-width:2.92264;stroke-linecap:round;stroke-miterlimit:100;stroke-dasharray:none;stroke-opacity:1"
         id="ellipse13"
         cx="1062.8347"
         cy="-381.4166"
         rx="6.1448898"
         ry="4.3892069"
         transform="rotate(61.169629)"
         color="gradient"
         data-grad="from:#ffffff;to:#ffffff;fromOpacity:0.3;toOpacity:0.4;range:50%-80%" /><ellipse
         style="display:inline;opacity:1;fill:#fff400;fill-opacity:1;fill-rule:evenodd;stroke:none;stroke-width:1.93817;stroke-linecap:round;stroke-miterlimit:100;stroke-dasharray:none;stroke-opacity:1"
         id="ellipse14"
         cx="688.14819"
         cy="547.86041"
         rx="4.0750322"
         ry="2.910737"
         transform="rotate(5.5030664)"
         color="gradient"
         data-grad="from:#ffffff;to:#ffffff;fromOpacity:0.3;toOpacity:0.4;range:50%-80%" /><ellipse
         style="display:inline;opacity:1;fill:#fff400;fill-opacity:1;fill-rule:evenodd;stroke:none;stroke-width:3.23029;stroke-linecap:round;stroke-miterlimit:100;stroke-dasharray:none;stroke-opacity:1"
         id="ellipse15"
         cx="1034.4872"
         cy="-294.94778"
         rx="6.7917204"
         ry="4.8512287"
         transform="rotate(65.596073)"
         color="gradient"
         data-grad="from:#ffffff;to:#ffffff;fromOpacity:0.3;toOpacity:0.4;range:50%-80%" /><ellipse
         style="display:inline;opacity:1;fill:#fff400;fill-opacity:1;fill-rule:evenodd;stroke:none;stroke-width:2.34273;stroke-linecap:round;stroke-miterlimit:100;stroke-dasharray:none;stroke-opacity:1"
         id="ellipse16"
         cx="-997.01013"
         cy="156.56694"
         rx="4.9256206"
         ry="3.5183005"
         transform="rotate(-129.00724)"
         color="gradient"
         data-grad="from:#ffffff;to:#ffffff;fromOpacity:0.3;toOpacity:0.4;range:50%-80%" /><path
         style="opacity:1;fill:#03ff00;fill-opacity:1;fill-rule:evenodd;stroke:none;stroke-width:4;stroke-linecap:round;stroke-miterlimit:100;stroke-dasharray:none;stroke-opacity:1"
         d="m 604.51996,464.70212 c 61.93926,-38.04236 155.22002,-24.60035 134.45539,0.60716 -8.52696,10.35142 -50.41267,30.88349 -50.41267,30.88349 0,0 8.74514,1.84735 9.12301,13.22562 0.60952,18.35358 -35.27904,15.44605 -35.27904,15.44605 0,0 -70.56176,-27.38242 -57.88669,-60.16232 z"
         id="path16"
         sodipodi:nodetypes="cscscc"
         color="gradient"
         data-grad="from:mane-main;to:mane-main;fromOpacity:0.6;toOpacity:0.4;range:50%-80%" /><path
         style="opacity:1;fill:none;fill-opacity:1;fill-rule:evenodd;stroke:#000000;stroke-width:5;stroke-linecap:round;stroke-miterlimit:100;stroke-dasharray:none;stroke-opacity:1"
         d="m 604.51996,464.70212 c 61.93926,-38.04236 155.22002,-24.60035 134.45539,0.60716 -8.52696,10.35142 -50.41267,30.88349 -50.41267,30.88349 0,0 8.74514,1.84735 9.12301,13.22562 0.60952,18.35358 -35.27904,15.44605 -35.27904,15.44605 0,0 -70.56176,-27.38242 -57.88669,-60.16232 z"
         id="path17"
         sodipodi:nodetypes="cscscc"
         color="mane-contour" /><path
         style="opacity:1;fill:none;fill-opacity:1;fill-rule:evenodd;stroke:#000000;stroke-width:4;stroke-linecap:round;stroke-miterlimit:100;stroke-dasharray:none;stroke-opacity:1"
         d="m 687.38942,496.5671 c 0,0 -34.73831,4.40557 -41.23522,1.38834 -8.06278,-3.74443 -26.45121,-13.89129 -18.99039,-18.72506 50.11775,-32.47068 114.30136,-19.52966 114.30136,-19.52966"
         id="path18"
         sodipodi:nodetypes="cssc"
         color="mane-contour" /><ellipse
         style="display:inline;opacity:1;fill:#fff400;fill-opacity:1;fill-rule:evenodd;stroke:none;stroke-width:2.09308;stroke-linecap:round;stroke-miterlimit:100;stroke-dasharray:none;stroke-opacity:1"
         id="ellipse18"
         cx="-830.22614"
         cy="219.82507"
         rx="4.4007258"
         ry="3.1433756"
         transform="rotate(-129.00724)"
         color="gradient"
         data-grad="from:#ffffff;to:#ffffff;fromOpacity:0.3;toOpacity:0.4;range:50%-80%" /><ellipse
         style="display:inline;opacity:1;fill:#fff400;fill-opacity:1;fill-rule:evenodd;stroke:none;stroke-width:1.58306;stroke-linecap:round;stroke-miterlimit:100;stroke-dasharray:none;stroke-opacity:1"
         id="ellipse19"
         cx="278.24014"
         cy="779.47992"
         rx="3.3284047"
         ry="2.3774319"
         transform="rotate(-37.496699)"
         color="gradient"
         data-grad="from:#ffffff;to:#ffffff;fromOpacity:0.3;toOpacity:0.4;range:50%-80%" /><ellipse
         style="display:inline;opacity:1;fill:#fff400;fill-opacity:1;fill-rule:evenodd;stroke:none;stroke-width:2.34273;stroke-linecap:round;stroke-miterlimit:100;stroke-dasharray:none;stroke-opacity:1"
         id="ellipse20"
         cx="-610.45404"
         cy="-546.96289"
         rx="4.9256206"
         ry="3.5183005"
         transform="rotate(173.62416)"
         color="gradient"
         data-grad="from:#ffffff;to:#ffffff;fromOpacity:0.3;toOpacity:0.4;range:50%-80%" /><ellipse
         style="display:inline;opacity:1;fill:#fff400;fill-opacity:1;fill-rule:evenodd;stroke:none;stroke-width:2.34273;stroke-linecap:round;stroke-miterlimit:100;stroke-dasharray:none;stroke-opacity:1"
         id="ellipse21"
         cx="-219.8011"
         cy="-821.95209"
         rx="4.9256206"
         ry="3.5183005"
         transform="rotate(138.62068)"
         color="gradient"
         data-grad="from:#ffffff;to:#ffffff;fromOpacity:0.3;toOpacity:0.4;range:50%-80%" /></g><path
       d="m 500.82031,518.43945 c 6.78143,12.23414 15.86098,31.04099 18.58399,48.1836 4.25009,26.75634 1.92594,52.97321 -0.25,68.16992 18.61058,-10.54615 32.98332,-29.51719 47.44726,-48.89063 10.65522,-14.27191 36.34926,-51.9615 52.25781,-57.26562 18.74781,-6.25077 34.78585,16.51904 32.77314,16.41326 -4.4487,-0.2338 -32.37043,2.71363 -33.80609,20.55282 -1.02344,12.71695 17.60811,6.9847 20.57447,4.70541 -1.17249,9.98378 0.0309,22.69174 11.2223,24.80864 13.6833,2.58825 22.14199,-12.48717 24.65333,-15.84217 3.23695,2.34286 20.40353,20.41523 30.49769,18.69329 14.76633,-2.51897 9.3581,-19.54742 3.79995,-24.64739 5.72057,2.98968 20.69698,8.73335 25.1995,-0.85576 8.58251,-18.27836 -52.69371,-28.15769 -52.66374,-31.52897 0.20649,-23.22558 -33.85317,-74.76656 -94.57867,-72.39288 -26.61761,1.04045 -57.45054,39.45974 -85.71094,49.89648 z"
       style="display:inline;fill:#ff0000;stroke-width:0.885764"
       id="path11"
       color="coat" /><path
       d="m 519.55857,635.03553 c 18.61058,-10.54615 32.57905,-29.75975 47.04299,-49.13319 10.65522,-14.27191 36.34926,-51.9615 52.25781,-57.26562 18.74781,-6.25077 34.78585,16.51904 32.77314,16.41326 -4.4487,-0.2338 -32.37043,2.71363 -33.80609,20.55282 -1.02344,12.71695 16.57901,6.41298 20.57447,4.70541 -1.17249,9.98378 0.0309,22.69174 11.2223,24.80864 13.6833,2.58825 22.14199,-12.48717 24.65333,-15.84217 3.80867,4.05803 20.40353,20.41523 30.49769,18.69329 14.76633,-2.51897 7.98597,-17.48922 3.79995,-24.64739 4.80581,1.84623 20.69698,8.73335 25.1995,-0.85576 8.58251,-18.27836 -52.69371,-28.15769 -52.66374,-31.52897 0.20649,-23.22558 -33.85317,-74.76656 -94.57867,-72.39288 -26.61761,1.04045 -57.45054,39.86401 -85.71094,50.30075"
       style="display:inline;fill:none;stroke:#000000;stroke-width:5;stroke-dasharray:none;stroke-opacity:1"
       id="path1"
       color="coat-contour" /></g></svg>
