<?xml version="1.0" encoding="UTF-8" standalone="no"?>
<!-- Created with Inkscape (http://www.inkscape.org/) -->

<svg
   width="1000"
   height="1000"
   viewBox="0 0 1000 1000"
   version="1.1"
   id="svg1"
   xml:space="preserve"
   xmlns="http://www.w3.org/2000/svg"
   xmlns:svg="http://www.w3.org/2000/svg"><defs
     id="defs1" /><g
     id="layer6"><path
       style="fill:#be0bff;fill-opacity:1;stroke:none;stroke-width:4;stroke-linecap:square"
       d="m 441.78525,310.47865 c -0.80781,17.62471 19.37464,61.99309 16.17077,89.26262 -2.02525,17.23772 -4.99604,36.94663 -22.63907,49.80595 -8.95448,6.52658 -28.54609,5.35503 -35.92725,16.13391 -8.06573,11.77857 -13.57565,27.88169 -16.28552,45.03698 -0.25623,1.62208 12.00315,1.52089 25.17265,-4.94155 19.38212,-9.51105 23.86825,-14.30713 30.32494,-20.53602 -4.32031,14.2736 -13.63935,22.04125 -30.91252,33.56013 -12.25736,8.17402 -26.39086,10.07124 -26.43112,11.23878 -0.70335,20.39508 12.22804,50.9226 29.47925,63.75098 9.31588,6.92749 47.56891,-33.57519 55.62743,-62.09573 7.42841,-26.29044 18.43002,-134.71899 10.99612,-175.9379 -4.3365,-24.04463 -35.0925,-55.82008 -35.57568,-45.27815 z"
       id="path1"
       color="mane-main"
       data-layer="1100" /><path
       style="fill:#0bff27;fill-opacity:1;stroke:none;stroke-width:4;stroke-linecap:square"
       d="m 394.26006,574.00971 6.86067,10.5197 c 0,0 32.65248,-26.39709 45.26985,-42.92777 11.55915,-15.14425 26.99591,-50.37739 26.99591,-50.37739 l 1.37214,-12.34921 c 0,0 -15.52032,29.15687 -37.57283,56.47675 -12.09461,14.98346 -42.92574,38.65792 -42.92574,38.65792 z"
       id="path5"
       color="mane-hl-2"
       data-layer="1100" /><path
       style="fill:#0becff;fill-opacity:1;stroke:none;stroke-width:4;stroke-linecap:square"
       d="m 394.26006,574.00971 -6.4033,-10.5197 c 0,0 25.84627,-16.28581 39.78131,-31.722 18.41983,-20.4041 47.80662,-61.81185 47.80662,-61.81185 l -0.91475,10.06233 c 0,0 -13.92871,30.34136 -37.11545,56.70543 -19.41266,22.07283 -43.15443,37.28579 -43.15443,37.28579 z"
       id="path25"
       color="mane-hl-1"
       data-layer="1100" /><path
       style="fill:none;stroke:#000000;stroke-width:4;stroke-linecap:square"
       d="m 441.78525,310.47865 c -0.80781,17.62471 19.37464,61.99309 16.17077,89.26262 -2.02525,17.23772 -4.99604,36.94663 -22.63907,49.80595 -8.95448,6.52658 -28.54609,5.35503 -35.92725,16.13391 -8.06573,11.77857 -13.57565,27.88169 -16.28552,45.03698 -0.25623,1.62208 12.00315,1.52089 25.17265,-4.94155 19.38212,-9.51105 23.86825,-14.30713 30.32494,-20.53602 -4.32031,14.2736 -13.63935,22.04125 -30.91252,33.56013 -12.25736,8.17402 -26.39086,10.07124 -26.43112,11.23878 -0.70335,20.39508 12.22804,50.9226 29.47925,63.75098 9.31588,6.92749 47.56891,-33.57519 55.62743,-62.09573 7.42841,-26.29044 18.43002,-134.71899 10.99612,-175.9379 -4.3365,-24.04463 -35.0925,-55.82008 -35.57568,-45.27815 z"
       id="path4"
       color="mane-contour"
       data-layer="1100" /><path
       style="fill:none;fill-opacity:1;stroke:#000000;stroke-width:3;stroke-linecap:square;stroke-dasharray:none;stroke-opacity:1"
       d="m 384.8838,550.91211 c 0,0 19.69541,-8.70408 38.51547,-26.92381 22.22384,-21.51492 52.73149,-65.00922 52.73149,-65.00922"
       id="path26"
       color="mane-contour"
       data-layer="1100" /><path
       style="fill:none;fill-opacity:1;stroke:#000000;stroke-width:3;stroke-linecap:square;stroke-dasharray:none;stroke-opacity:1"
       d="m 391.00906,485.1229 c 0,0 20.91706,-4.26739 32.04365,-8.83366 29.34576,-12.04326 55.60188,-52.61524 55.60188,-52.61524"
       id="path27"
       color="mane-contour"
       data-layer="1100" /></g><g
     id="g15"
     style="display:inline"><path
       style="display:inline;fill:#800080;stroke:none;stroke-width:3;stroke-linecap:round"
       d="m 440.26841,304.85886 c 0,0 -77.62957,-55.09966 -169.30593,-51.3608 -41.202,1.68034 -64.68305,84.7348 -64.68305,84.7348 0,0 26.67171,-4.97155 89.80541,7.57353 78.74983,15.64811 107.15448,45.30486 107.15448,45.30486 0,0 -18.29324,-45.33249 -3.88098,-65.00646 6.73387,-9.1923 24.73049,-12.34322 36.55921,-14.69182 6.27799,-1.2465 4.35086,-6.55411 4.35086,-6.55411 z"
       id="path11"
       color="mane-main"
       data-layer="700" /><g
       id="g14"
       style="display:inline"><path
         style="fill:none;stroke:#000000;stroke-width:3;stroke-linecap:round;stroke-dasharray:none;stroke-opacity:1"
         d="m 257.79085,338.7468 c 7.31805,-46.19521 50.31161,-82.78546 50.31161,-82.78546"
         id="path12"
         color="mane_contour"
         data-layer="700" /><path
         style="fill:none;stroke:#000000;stroke-width:3;stroke-linecap:round;stroke-dasharray:none;stroke-opacity:1"
         d="m 254.5892,337.83204 c -5.48854,-44.82307 32.47386,-81.8707 32.47386,-81.8707"
         id="path13"
         color="mane_contour"
         data-layer="700" /><path
         style="fill:none;stroke:#000000;stroke-width:5;stroke-linecap:round;stroke-dasharray:none"
         d="m 440.26841,304.85886 c 0,0 -77.62957,-55.09966 -169.30593,-51.3608 -41.202,1.68034 -64.68305,84.7348 -64.68305,84.7348 0,0 26.67171,-4.97155 89.80541,7.57353 78.74983,15.64811 91.81764,32.43341 106.66936,43.84949 -2.48607,-12.04288 -17.80812,-43.87712 -3.39586,-63.55109 6.73387,-9.1923 24.73049,-12.34322 36.55921,-14.69182 6.27799,-1.2465 4.35086,-6.55411 4.35086,-6.55411 z"
         id="path14"
         color="mane_contour"
         data-layer="700" /></g></g><g
     id="g10"
     style="display:inline"><path
       style="display:inline;fill:#800080;stroke:none;stroke-width:3.05154;stroke-linecap:round"
       d="m 440.22958,304.87381 c 0,0 -26.61112,-18.22567 -67.29274,-32.99261 -0.34972,-0.12695 -0.67976,-0.42261 -1.0468,-0.37749 -63.13379,7.76156 -87.31951,34.79465 -97.34225,71.33353 -0.14041,0.5119 1.04662,0.20642 1.58065,0.2954 4.70067,0.7832 9.63223,1.66465 14.79969,2.65545 81.5451,15.63541 110.95799,45.26807 110.95799,45.26807 0,0 -18.94257,-45.29567 -4.01874,-64.95367 6.9729,-9.18483 25.60832,-12.3332 37.8569,-14.67989 6.50084,-1.24549 4.5053,-6.54879 4.5053,-6.54879 z"
       id="path6"
       color="mane-main"
       data-layer="900" /><path
       style="display:inline;fill:#0cff03;fill-opacity:1;stroke:none;stroke-width:3.05154;stroke-linecap:round;stroke-dasharray:none;stroke-opacity:1"
       d="m 302.42509,348.33138 19.89176,4.57007 c 0,0 2.36101,-19.07689 7.24222,-27.14694 12.00516,-19.84793 51.48581,-47.80219 51.48581,-47.80219 l -4.73613,-2.97053 c 0,0 -40.26348,12.06759 -61.24004,37.94008 -14.86051,18.32898 -12.64362,35.40951 -12.64362,35.40951 z"
       id="path7"
       color="mane-hl-2"
       data-layer="900" /><path
       style="display:inline;fill:#03ddff;fill-opacity:1;stroke:none;stroke-width:3.05154;stroke-linecap:round;stroke-dasharray:none;stroke-opacity:1"
       d="m 302.42509,348.33138 -27.94317,-6.6266 c 0,0 -0.47037,-20.50704 15.00534,-38.57211 21.49503,-25.09154 81.07786,-31.12144 81.07786,-31.12144 l 5.74363,2.97056 c 0,0 -38.64641,13.03783 -59.62297,38.91032 -14.86051,18.32898 -14.26069,34.43927 -14.26069,34.43927 z"
       id="path8"
       color="mane-hl-1"
       data-layer="900" /><path
       style="display:inline;fill:none;stroke:#000000;stroke-width:3.05154;stroke-linecap:round;stroke-dasharray:none;stroke-opacity:1"
       d="m 364.94203,363.86961 c 7.57781,-46.1577 41.67796,-79.06218 41.67796,-79.06218"
       id="path9"
       color="mane_contour"
       data-layer="900" /><path
       style="display:inline;fill:none;stroke:#000000;stroke-width:5.0859;stroke-linecap:square;stroke-dasharray:none"
       d="m 275.8808,342.1586 c 5.01431,0.82593 10.29482,1.76437 15.84774,2.82908 81.5451,15.63541 95.07676,32.40708 110.45565,43.81389 -2.57431,-12.0331 -18.44023,-43.84149 -3.5164,-63.49949 6.9729,-9.18483 25.60832,-12.3332 37.8569,-14.67989 6.50084,-1.24549 4.5053,-6.54879 4.5053,-6.54879 0,0 -28.04958,-19.21086 -70.57767,-34.1664"
       id="path10"
       color="mane_contour"
       data-layer="900" /></g></svg>
