<?xml version="1.0" encoding="UTF-8" standalone="no"?>
<!-- Created with Inkscape (http://www.inkscape.org/) -->

<svg
   width="1000"
   height="1000"
   viewBox="0 0 1000 1000"
   version="1.1"
   id="svg1"
   xml:space="preserve"
   xmlns="http://www.w3.org/2000/svg"
   xmlns:svg="http://www.w3.org/2000/svg"><defs
     id="defs1" /><g
     id="layer6"
     style="display:inline"
     data-layer="390"><path
       style="fill:#f73205;fill-opacity:1;stroke:none;stroke-width:5;stroke-linecap:round;stroke-dasharray:none;stroke-opacity:1"
       d="m 310.96004,212.90958 c -0.20198,-5.12028 39.56322,30.18696 39.56322,30.18696 l 10.86274,44.93742 -13.26397,0.91475 c 0,0 -36.06163,-48.14446 -37.16199,-76.03913 z"
       id="path37"
       color="gradient"
       data-grad="from:mane-contour;to:mane-contour;angle:90;range:5%-100%; fromOpacity:1; toOpacity:1" /><path
       style="fill:none;fill-opacity:1;stroke:#000000;stroke-width:5;stroke-linecap:round;stroke-dasharray:none;stroke-opacity:1"
       d="m 310.96004,212.90958 c -0.20198,-5.12028 39.56322,30.18696 39.56322,30.18696 l 10.86274,44.93742 -13.26397,0.91475 c 0,0 -36.06163,-48.14446 -37.16199,-76.03913 z"
       id="path38"
       color="mane-contour" /><path
       style="fill:#f7a005;fill-opacity:1;stroke:none;stroke-width:5;stroke-linecap:round;stroke-dasharray:none;stroke-opacity:1"
       d="m 362.24358,284.0319 c 0,0 -7.21912,-24.43288 -14.63611,-36.59027 -7.41699,-12.15738 -30.18696,-34.76074 -30.18696,-34.76074 0,0 48.32611,1.92721 70.43625,13.26397 38.89734,19.94422 72.25268,43.54969 84.1576,80.49857 7.65718,23.76534 -13.72135,73.6379 -13.72135,73.6379 z"
       id="path36"
       color="mane-main" /><path
       d="m 378.67187,222.18359 c 2.48696,6.91964 5.72178,18.41809 5.22266,30.4043 -1.15017,27.6208 -6.81859,36.65121 -10.10547,42.99023 l 7.28906,7.28711 c 4.0488,-7.27049 9.95943,-19.99249 13.8125,-37.66406 2.94176,-13.49193 4.18987,-24.97098 4.70508,-33.01562 -3.84349,-2.12569 -7.76196,-4.20142 -11.73828,-6.24024 -2.71293,-1.39103 -5.82093,-2.64019 -9.18555,-3.76172 z"
       style="fill:#4ff705;fill-opacity:1;stroke:none;stroke-width:3;stroke-linecap:round"
       id="path42"
       color="mane-hl-1" /><path
       style="fill:none;fill-opacity:1;stroke:#000000;stroke-width:5;stroke-linecap:round;stroke-dasharray:none;stroke-opacity:1"
       d="m 362.24358,284.0319 c 0,0 -7.21912,-24.43288 -14.63611,-36.59027 -7.41699,-12.15738 -30.18696,-34.76074 -30.18696,-34.76074 0,0 48.32611,1.92721 70.43625,13.26397 38.89734,19.94422 72.25268,43.54969 84.1576,80.49857 7.65718,23.76534 -13.72135,73.6379 -13.72135,73.6379 z"
       id="path39"
       color="mane-contour" /><path
       d="m 378.67187,222.18359 c 2.48696,6.91964 5.72178,18.41809 5.22266,30.4043 -1.15017,27.6208 -6.81859,36.65121 -10.10547,42.99023 l 7.28906,7.28711 c 4.0488,-7.27049 9.95943,-19.99249 13.8125,-37.66406 2.94176,-13.49193 4.18987,-24.97098 4.70508,-33.01562 -3.84349,-2.12569 -7.76196,-4.20142 -11.73828,-6.24024 -2.71293,-1.39103 -5.82093,-2.64019 -9.18555,-3.76172 z"
       style="fill:none;stroke:#000000;stroke-width:3;stroke-linecap:round"
       id="path43"
       color="mane-contour" /></g><g
     id="layer5"
     style="display:inline"
     data-layer="390"><g
       id="g5"
       style="display:inline"><path
         style="display:inline;fill:#00ff25;fill-opacity:1;stroke:none;stroke-width:5;stroke-linecap:round;stroke-dasharray:none;stroke-opacity:1"
         d="m 241.03834,415.07076 c -9.03506,7.0598 -31.11082,7.5262 -44.137,4.11641 -12.21232,-3.19675 -26.43258,-9.33408 -25.84187,-20.58202 0.65198,-12.41465 21.03901,-12.76358 28.81483,-21.49678 8.75085,-9.82829 17.83775,-33.84599 17.83775,-33.84599 0,0 33.49284,29.46701 35.44681,50.31161 0.76775,8.19019 -5.63855,16.43191 -12.12052,21.49677 z"
         id="path20"
         color="gradient"
         data-grad="from:mane-contour;to:mane-main;angle:180;range:1%-100%; fromOpacity:1; toOpacity:1" /><path
         style="fill:none;stroke:#000000;stroke-width:5;stroke-linecap:round;stroke-dasharray:none;stroke-opacity:1"
         d="m 241.03834,415.07076 c -9.03506,7.0598 -31.11082,7.5262 -44.137,4.11641 -12.21232,-3.19675 -26.43258,-9.33408 -25.84187,-20.58202 0.65198,-12.41465 21.03901,-12.76358 28.81483,-21.49678 8.75085,-9.82829 17.83775,-33.84599 17.83775,-33.84599 0,0 33.49284,29.46701 35.44681,50.31161 0.76775,8.19019 -5.63855,16.43191 -12.12052,21.49677 z"
         id="path23"
         color="mane-contour" /></g><g
       id="g4"><path
         style="display:inline;fill:#dbff00;fill-opacity:1;stroke:none;stroke-width:5;stroke-linecap:round;stroke-dasharray:none;stroke-opacity:1"
         d="m 219.03299,406.29042 c -2.20058,5.86425 -9.58313,4.96515 -16.81759,1.53623 -6.16118,-2.92022 -14.47284,-10.99612 -14.47284,-10.99612 0,0 8.99376,-1.81179 12.20893,-4.77037 3.29061,-3.02801 5.90233,-12.04722 5.90233,-12.04722 0,0 16.37376,17.76433 13.17917,26.27748 z"
         id="path22"
         color="gradient"
         data-grad="from:mane-contour;to:mane-contour;angle:90;range:1%-100%; fromOpacity:1; toOpacity:1" /><path
         style="fill:none;stroke:#000000;stroke-width:5;stroke-linecap:round;stroke-dasharray:none;stroke-opacity:1"
         d="m 219.03299,406.29042 c -2.20058,5.86425 -9.58313,4.96515 -16.81759,1.53623 -6.16118,-2.92022 -14.47284,-10.99612 -14.47284,-10.99612 0,0 8.99376,-1.81179 12.20893,-4.77037 3.29061,-3.02801 5.90233,-12.04722 5.90233,-12.04722 0,0 16.37376,17.76433 13.17917,26.27748 z"
         id="path24"
         color="mane-contour" /></g><g
       id="g3"><path
         style="display:inline;fill:#ffbd00;fill-opacity:1;stroke:none;stroke-width:5;stroke-linecap:round;stroke-dasharray:none;stroke-opacity:1"
         d="m 179.864,388.08545 c 0,0 20.33897,-0.78438 28.24311,3.65903 5.86339,3.29618 11.66314,12.92094 11.66314,12.92094 0,0 3.86275,-7.70076 8.34715,-12.23487 2.70292,-2.73288 9.94798,-7.20371 9.94798,-7.20371 0,0 -7.8904,-9.93213 -13.14963,-13.26398 -4.54176,-2.87732 -15.20782,-5.37419 -15.20782,-5.37419 0,0 -8.26018,9.70109 -12.34921,12.8066 -5.77072,4.3827 -17.49472,8.69018 -17.49472,8.69018 z"
         id="path21"
         color="mane-main" /><path
         style="fill:none;stroke:#000000;stroke-width:5;stroke-linecap:round;stroke-dasharray:none;stroke-opacity:1"
         d="m 179.864,388.08545 c 0,0 20.33897,-0.78438 28.24311,3.65903 5.86339,3.29618 11.66314,12.92094 11.66314,12.92094 0,0 3.86275,-7.70076 8.34715,-12.23487 2.70292,-2.73288 9.94798,-7.20371 9.94798,-7.20371 0,0 -7.8904,-9.93213 -13.14963,-13.26398 -4.54176,-2.87732 -15.20782,-5.37419 -15.20782,-5.37419 0,0 -8.26018,9.70109 -12.34921,12.8066 -5.77072,4.3827 -17.49472,8.69018 -17.49472,8.69018 z"
         id="path25"
         color="mane-contour" /></g><g
       id="g2"><path
         style="fill:#ff7200;fill-opacity:1;stroke:none;stroke-width:5;stroke-linecap:round;stroke-dasharray:none;stroke-opacity:1"
         d="m 162.33485,358.22641 c 19.77327,4.35541 66.49743,1.67093 80.87343,25.66751 6.22613,10.39273 -0.80854,29.91591 -0.80854,29.91591 0,0 67.25037,-44.01456 75.84088,-83.60284 4.45331,-20.52253 -19.72833,-59.83183 -19.72833,-59.83183 l -96.70116,13.58344 c 0,0 -48.98782,72.17272 -39.47628,74.26781 z"
         id="path19"
         color="gradient"
         data-grad="from:mane-contour;to:mane-main;angle:90;range:1%-100%; fromOpacity:1; toOpacity:1" /><path
         d="m 259.77344,401.22656 c 1.36975,-12.33525 1.56523,-36.97467 -12.6836,-62.93359 -9.30266,-16.94787 -35.84516,-33.02331 -53.31445,-42.21289 -4.62776,7.09447 -10.6171,16.46598 -16.20117,25.77539 11.70362,2.04718 43.17865,9.08515 60.7832,27.75586 15.41296,16.34638 15.38418,43.97126 14.37891,56.92773 2.11887,-1.5578 4.48862,-3.33828 7.03711,-5.3125 z"
         style="fill:#f705ec;fill-opacity:1;stroke:none;stroke-width:3;stroke-linecap:round"
         id="path34"
         color="gradient"
         data-grad="from:mane-contour;to:mane-hl-1;angle:90;range:1%-100%; fromOpacity:1; toOpacity:1" /><path
         style="fill:none;stroke:#000000;stroke-width:5;stroke-linecap:round;stroke-dasharray:none;stroke-opacity:1"
         d="m 162.33485,358.22641 c 19.77327,4.35541 66.49743,1.67093 80.87343,25.66751 6.22613,10.39273 -0.80854,29.91591 -0.80854,29.91591 0,0 67.25037,-44.01456 75.84088,-83.60284 4.45331,-20.52253 -19.72833,-59.83183 -19.72833,-59.83183 l -96.70116,13.58344 c 0,0 -48.98782,72.17272 -39.47628,74.26781 z"
         id="path26"
         color="mane-contour" /><path
         d="m 259.77344,401.22656 c 1.36975,-12.33525 1.56523,-36.97467 -12.6836,-62.93359 -9.30266,-16.94787 -35.84516,-33.02331 -53.31445,-42.21289 -4.62776,7.09447 -10.6171,16.46598 -16.20117,25.77539 11.70362,2.04718 43.17865,9.08515 60.7832,27.75586 15.41296,16.34638 15.38418,43.97126 14.37891,56.92773 2.11887,-1.5578 4.48862,-3.33828 7.03711,-5.3125 z"
         style="fill:none;stroke:#000000;stroke-width:3;stroke-linecap:round"
         id="path35"
         color="mane-contour" /></g><g
       id="g1"
       style="display:inline"><path
         style="display:inline;fill:#ff2f00;fill-opacity:1;stroke:none;stroke-width:5;stroke-linecap:round;stroke-dasharray:none;stroke-opacity:1"
         d="m 357.05045,283.9586 c 0,0 -7.80484,-22.29756 -33.63518,-45.60155 -25.83034,-23.30398 -39.45667,-24.25614 -39.45667,-24.25614 0,0 -47.99207,10.97649 -75.67917,36.22251 -42.92774,39.14292 -47.21863,106.0802 -47.21863,106.0802 0,0 11.39329,-53.93724 63.06598,-60.80207 36.76216,-4.88393 74.70893,21.34541 74.70893,21.34541 z"
         id="path18"
         color="mane-main" /><path
         d="m 283.95898,214.10156 c 0,0 -10.82878,2.47697 -25.16601,7.78321 12.27375,3.24694 30.60545,9.15388 47.48047,18.73632 18.64741,10.5889 38.83645,32.7838 48.75781,44.48243 l 2.01953,-1.14454 c 0,0 -7.80442,-22.29757 -33.63476,-45.60156 -25.83034,-23.30398 -39.45704,-24.25586 -39.45704,-24.25586 z"
         style="display:inline;fill:#f705ec;fill-opacity:1;stroke:none;stroke-width:5;stroke-linecap:round"
         id="path31"
         color="mane-hl-2" /><path
         d="m 335.19141,296.3457 c -14.17383,-8.20142 -38.94814,-20.78734 -68.37305,-28.23437 -30.45425,-7.70754 -58.0287,-4.54119 -73.26758,-1.49414 -4.99446,6.65835 -9.23096,13.6619 -12.82226,20.69922 15.27063,-5.64058 41.42888,-12.07468 71.21289,-5.6211 34.03567,7.37483 52.18324,18.65245 61.49414,26.97852 z"
         style="display:inline;fill:#05f6f7;fill-opacity:1;stroke:none;stroke-width:5;stroke-linecap:round"
         id="path32"
         color="mane-hl-1" /><path
         style="fill:none;stroke:#000000;stroke-width:5;stroke-linecap:round;stroke-dasharray:none;stroke-opacity:1"
         d="m 357.05045,283.9586 c 0,0 -7.80484,-22.29756 -33.63518,-45.60155 -25.83034,-23.30398 -39.45667,-24.25614 -39.45667,-24.25614 0,0 -47.99207,10.97649 -75.67917,36.22251 -42.92774,39.14292 -47.21863,106.0802 -47.21863,106.0802 0,0 11.39329,-53.93724 63.06598,-60.80207 36.76216,-4.88393 74.70893,21.34541 74.70893,21.34541 z"
         id="path27"
         color="mane-contour" /><path
         d="m 283.95898,214.10156 c 0,0 -10.82878,2.47697 -25.16601,7.78321 12.27375,3.24694 30.60545,9.15388 47.48047,18.73632 18.64741,10.5889 38.83645,32.7838 48.75781,44.48243 l 2.01953,-1.14454 c 0,0 -7.80442,-22.29757 -33.63476,-45.60156 -25.83034,-23.30398 -39.45704,-24.25586 -39.45704,-24.25586 z"
         style="display:inline;fill:none;stroke:#000000;stroke-width:3;stroke-linecap:round;stroke-dasharray:none"
         id="path28"
         color="mane-contour" /><path
         d="m 335.19141,296.3457 c -14.17383,-8.20142 -38.94814,-20.78734 -68.37305,-28.23437 -30.45425,-7.70754 -58.0287,-4.54119 -73.26758,-1.49414 -4.99446,6.65835 -9.23096,13.6619 -12.82226,20.69922 15.27063,-5.64058 41.42888,-12.07468 71.21289,-5.6211 34.03567,7.37483 52.18324,18.65245 61.49414,26.97852 z"
         style="display:inline;fill:none;stroke:#000000;stroke-width:3;stroke-linecap:round;stroke-dasharray:none"
         id="path29"
         color="mane-contour" /></g></g><g
     id="layer7"
     style="display:inline"
     data-layer="1100"><g
       id="g52"
       style="display:inline"><path
         style="fill:#f7c105;fill-opacity:1;stroke:none;stroke-width:5;stroke-linecap:round;stroke-dasharray:none;stroke-opacity:1"
         d="m 473.80336,311.77231 c 0,0 16.82287,18.61995 23.60932,45.92497 8.27586,33.29761 -5.49806,97.99483 -5.49806,97.99483 l -52.71669,43.66106 c 0,0 13.84751,-32.0255 17.88181,-70.05047 2.61478,-24.64537 2.16994,-49.10769 2.16994,-48.96635 0,0 7.38841,-23.15745 9.92229,-35.38409 2.21985,-10.71143 4.63139,-33.17995 4.63139,-33.17995 z"
         id="path44"
         color="mane-main" /><path
         d="m 499.20312,404.74023 c -3.10374,-7.09853 -6.99863,-14.98424 -11.86718,-23.51562 -7.38573,-12.94234 -15.10407,-22.14668 -20.25391,-27.57031 -1.5526,5.90672 -3.45127,12.38912 -4.99023,17.48632 4.27847,6.73447 9.60287,16.47939 12.89648,27.46485 7.2311,24.11852 10.97642,46.0715 12.85938,60.45312 l 4.0664,-3.36718 c 0,0 5.19724,-24.4044 7.28906,-50.95118 z"
         style="fill:#a505f7;fill-opacity:1;stroke:none;stroke-width:3;stroke-linecap:round"
         id="path63"
         color="mane-hl-2" /><path
         style="fill:none;fill-opacity:1;stroke:#000000;stroke-width:5;stroke-linecap:round;stroke-dasharray:none;stroke-opacity:1"
         d="m 473.80336,311.77231 c 0,0 16.82287,18.61995 23.60932,45.92497 8.27586,33.29761 -5.49806,97.99483 -5.49806,97.99483 l -52.71669,43.66106 c 0,0 13.84751,-32.0255 17.88181,-70.05047 2.61478,-24.64537 2.16994,-49.10769 2.16994,-48.96635 0,0 7.38841,-23.15745 9.92229,-35.38409 2.21985,-10.71143 4.63139,-33.17995 4.63139,-33.17995 z"
         id="path60"
         color="mane-contour" /><path
         d="m 499.20312,404.74023 c -3.10374,-7.09853 -6.99863,-14.98424 -11.86718,-23.51562 -7.38573,-12.94234 -15.10407,-22.14668 -20.25391,-27.57031 -1.5526,5.90672 -3.45127,12.38912 -4.99023,17.48632 4.27847,6.73447 9.60287,16.47939 12.89648,27.46485 7.2311,24.11852 10.97642,46.0715 12.85938,60.45312 l 4.0664,-3.36718 c 0,0 5.19724,-24.4044 7.28906,-50.95118 z"
         style="fill:none;stroke:#000000;stroke-width:3;stroke-linecap:round"
         id="path64"
         color="mane-contour" /></g><g
       id="g51"
       style="display:inline"><path
         style="fill:#36f705;fill-opacity:1;stroke:none;stroke-width:5;stroke-linecap:round;stroke-dasharray:none;stroke-opacity:1"
         d="m 500,368.04657 c 0,0 12.44119,58.21119 5.17465,86.99871 -11.07288,43.8669 -58.21475,116.75291 -58.21475,116.75291 l -69.53428,-47.21863 c 0,0 9.70668,-25.0828 21.3454,-36.86934 21.36687,-21.63826 69.6955,-37.52125 86.02846,-59.83182 C 501.13245,405.56783 500,368.04657 500,368.04657 Z"
         id="path45"
         color="gradient"
         data-grad="from:mane-contour;to:mane-main;angle:270;range:1%-100%; fromOpacity:1; toOpacity:1" /><path
         d="m 500,368.04687 c 0,0 1.1318,37.52147 -15.20117,59.83204 -16.33296,22.31057 -64.66048,38.19377 -86.02735,59.83203 -11.63872,11.78654 -21.3457,36.86914 -21.3457,36.86914 l 14.05469,9.54297 c 5.69734,-17.63838 21.56969,-46.08957 65.66992,-73.31446 15.05687,-9.29522 30.34821,-14.43544 41.32422,-19.54882 3.22519,-1.50252 6.28764,-3.35686 8.92773,-5.15625 C 508.17306,406.28401 500,368.04687 500,368.04687 Z"
         style="display:inline;fill:#f705d2;fill-opacity:1;stroke:none;stroke-width:5;stroke-linecap:round"
         id="path58"
         color="gradient"
         data-grad="from:mane-contour;to:mane-hl-1;angle:270;range:1%-100%; fromOpacity:1; toOpacity:1" /><path
         style="fill:none;fill-opacity:1;stroke:#000000;stroke-width:5;stroke-linecap:round;stroke-dasharray:none;stroke-opacity:1"
         d="m 500,368.04657 c 0,0 12.44119,58.21119 5.17465,86.99871 -11.07288,43.8669 -58.21475,116.75291 -58.21475,116.75291 l -69.53428,-47.21863 c 0,0 9.70668,-25.0828 21.3454,-36.86934 21.36687,-21.63826 69.6955,-37.52125 86.02846,-59.83182 C 501.13245,405.56783 500,368.04657 500,368.04657 Z"
         id="path55"
         color="mane-contour" /><path
         d="m 500,368.04687 c 0,0 1.1318,37.52147 -15.20117,59.83204 -16.33296,22.31057 -64.66048,38.19377 -86.02735,59.83203 -11.63872,11.78654 -21.3457,36.86914 -21.3457,36.86914 l 14.05469,9.54297 c 5.69734,-17.63838 21.56969,-46.08957 65.66992,-73.31446 15.05687,-9.29522 30.34821,-14.43544 41.32422,-19.54882 3.22519,-1.50252 6.28764,-3.35686 8.92773,-5.15625 C 508.17306,406.28401 500,368.04687 500,368.04687 Z"
         style="display:inline;fill:none;stroke:#000000;stroke-width:3;stroke-linecap:round;stroke-dasharray:none"
         id="path59"
         color="mane-contour" /></g><g
       id="g65"
       style="display:inline"><path
         style="display:inline;fill:#f7c105;fill-opacity:1;stroke:none;stroke-width:5;stroke-linecap:round;stroke-dasharray:none;stroke-opacity:1"
         d="m 472.5097,517.14101 0.56836,-21.99224 c 0.15838,0.009 -14.90556,-2.80747 -28.36581,1.79028 -18.00221,6.14917 -26.42062,24.48076 -18.14377,33.8381 10.18022,11.50915 10.13647,14.16988 17.78784,14.55369 11.8852,0.59618 28.15338,-28.18983 28.15338,-28.18983 z"
         id="path65"
         color="mane-main" /><path
         style="display:inline;fill:none;fill-opacity:1;stroke:#000000;stroke-width:5;stroke-linecap:round;stroke-dasharray:none;stroke-opacity:1"
         d="m 472.5097,517.14101 0.56836,-21.99224 c 0.15838,0.009 -14.90556,-2.80747 -28.36581,1.79028 -18.00221,6.14917 -26.42062,24.48076 -18.14377,33.8381 10.18022,11.50915 10.13647,14.16988 17.78784,14.55369 11.8852,0.59618 28.15338,-28.18983 28.15338,-28.18983 z"
         id="path68"
         color="mane-contour" /><path
         style="display:inline;fill:#f71505;fill-opacity:1;stroke:none;stroke-width:5;stroke-linecap:round;stroke-dasharray:none;stroke-opacity:1"
         d="m 454.94254,500.61774 c 0,0 -8.42642,1.99609 -11.69171,3.52049 -3.04136,1.41986 -7.96714,7.03914 -7.96714,7.03914 0,0 8.07767,1.00438 10.54576,3.94489 2.32373,2.76853 2.62993,10.5197 2.62993,10.5197 z"
         id="path67"
         color="gradient"
         data-grad="from:mane-contour;to:mane-contour;angle:270;range:1%-100%; fromOpacity:1; toOpacity:1" /><path
         style="display:inline;fill:#f75905;fill-opacity:1;stroke:none;stroke-width:5;stroke-linecap:round;stroke-dasharray:none;stroke-opacity:1"
         d="m 428.2204,529.0723 c 0,0 11.61681,-7.3319 17.38037,-12.5779 3.5575,-3.23804 9.37051,-15.77857 9.37051,-15.77857 l 9.26765,23.78268 -24.69843,12.69225 z"
         id="path66"
         color="gradient"
         data-grad="from:mane-contour;to:mane-main;angle:0;range:1%-100%; fromOpacity:1; toOpacity:1" /><path
         style="display:inline;fill:none;fill-opacity:1;stroke:#000000;stroke-width:3;stroke-linecap:round;stroke-dasharray:none;stroke-opacity:1"
         d="m 428.2204,529.0723 c 0,0 11.61681,-7.3319 17.38037,-12.5779 3.5575,-3.23804 9.14182,-12.46258 9.14182,-12.46258 l 9.49634,20.46669 -24.69843,12.69225 z"
         id="path70"
         color="mane-contour" /></g><g
       id="g50"
       style="display:inline"><path
         style="fill:#4ff705;fill-opacity:1;stroke:none;stroke-width:5;stroke-linecap:round;stroke-dasharray:none;stroke-opacity:1"
         d="m 377.12181,524.6939 c 7.21316,10.10087 22.66564,26.31292 25.85361,41.28282 3.53029,16.57734 3.88098,26.19663 3.88098,26.19663 0,0 14.16166,10.54933 44.30789,8.08538 27.44568,-2.24322 44.3079,-15.84735 44.3079,-15.84735 0,0 5.2888,-25.06346 0,-45.27813 -5.00534,-19.13127 -21.022,-41.72057 -21.022,-41.72057 0,0 -21.3027,27.45129 -43.33765,33.31177 -18.9277,5.03407 -45.30999,-1.38096 -53.99073,-6.03055 z"
         id="path46"
         color="mane-main" /><path
         d="m 497.10352,573.2832 c -12.36446,5.28794 -30.18808,11.35698 -49.78711,13.07617 -12.86044,1.1281 -30.87728,-2.35375 -41.56446,-4.83007 0.96741,6.87924 1.10352,10.64453 1.10352,10.64453 0,0 14.16236,10.54793 44.30859,8.08398 27.44568,-2.24322 44.3086,-15.8457 44.3086,-15.8457 0,0 0.93967,-4.45758 1.63086,-11.12891 z"
         style="fill:#0515f7;fill-opacity:1;stroke:none;stroke-width:5;stroke-linecap:round"
         id="path50"
         color="mane-hl-2" /><path
         d="m 487.29687,518.83008 c -7.17342,8.10636 -20.12472,19.09286 -41.125,25.44922 -17.50552,5.29856 -38.92824,3.79656 -52.76367,1.86914 4.39725,6.43363 8.16561,13.25031 9.56641,19.82812 1.05374,4.94811 1.82431,9.27657 2.38672,12.91406 10.48058,-0.96434 29.37008,-4.2416 49.95898,-15.17187 18.66215,-9.90739 31.11043,-24.43549 37.35742,-33.05859 -1.57177,-4.03303 -3.44411,-8.05195 -5.38086,-11.83008 z"
         style="fill:#f705d2;fill-opacity:1;stroke:none;stroke-width:5;stroke-linecap:round"
         id="path49"
         color="mane-hl-1" /><path
         style="fill:none;fill-opacity:1;stroke:#000000;stroke-width:5;stroke-linecap:round;stroke-dasharray:none;stroke-opacity:1"
         d="m 377.12181,524.6939 c 7.21316,10.10087 22.66564,26.31292 25.85361,41.28282 3.53029,16.57734 3.88098,26.19663 3.88098,26.19663 0,0 14.16166,10.54933 44.30789,8.08538 27.44568,-2.24322 44.3079,-15.84735 44.3079,-15.84735 0,0 5.2888,-25.06346 0,-45.27813 -5.00534,-19.13127 -21.022,-41.72057 -21.022,-41.72057 0,0 -21.3027,27.45129 -43.33765,33.31177 -18.9277,5.03407 -45.30999,-1.38096 -53.99073,-6.03055 z"
         id="path52"
         color="mane-contour" /><path
         d="m 497.10352,573.2832 c -12.36446,5.28794 -30.18808,11.35698 -49.78711,13.07617 -12.86044,1.1281 -30.87728,-2.35375 -41.56446,-4.83007 0.96741,6.87924 1.10352,10.64453 1.10352,10.64453 0,0 14.16236,10.54793 44.30859,8.08398 27.44568,-2.24322 44.3086,-15.8457 44.3086,-15.8457 0,0 0.93967,-4.45758 1.63086,-11.12891 z"
         style="fill:none;stroke:#000000;stroke-width:3;stroke-linecap:round;stroke-dasharray:none"
         id="path53"
         color="mane-contour" /><path
         d="m 487.29687,518.83008 c -7.17342,8.10636 -20.12472,19.09286 -41.125,25.44922 -17.50552,5.29856 -38.92824,3.79656 -52.76367,1.86914 4.39725,6.43363 8.16561,13.25031 9.56641,19.82812 1.05374,4.94811 1.82431,9.27657 2.38672,12.91406 10.48058,-0.96434 29.37008,-4.2416 49.95898,-15.17187 18.66215,-9.90739 31.11043,-24.43549 37.35742,-33.05859 -1.57177,-4.03303 -3.44411,-8.05195 -5.38086,-11.83008 z"
         style="fill:none;stroke:#000000;stroke-width:3;stroke-linecap:round;stroke-dasharray:none"
         id="path54"
         color="mane-contour" /></g></g></svg>
