<?xml version="1.0" encoding="UTF-8" standalone="no"?>
<!-- Created with Inkscape (http://www.inkscape.org/) -->

<svg
   width="1000"
   height="1000"
   viewBox="0 0 1000 1000"
   version="1.1"
   id="svg1"
   xml:space="preserve"
   xmlns="http://www.w3.org/2000/svg"
   xmlns:svg="http://www.w3.org/2000/svg"><defs
     id="defs1" /><g
     id="layer9"
     style="display:inline"
     data-layer="1100"><path
       style="fill:#fffe00;fill-opacity:1;stroke:none;stroke-width:3;stroke-linecap:round;stroke-opacity:1"
       d="m 417.52911,554.33377 c 0,0 -11.14306,-9.23021 -31.8564,-4.85124 -29.5311,6.24312 -31.04787,34.60544 -31.04787,34.60544 0,0 5.279,-6.44712 12.16147,-10.6992 5.55392,-3.43129 9.47044,-5.96889 13.38833,-6.44181 -4.81471,3.7307 -11.95648,9.50584 -15.157,28.58295 -2.39107,14.25228 7.23333,27.85301 7.23333,27.85301 0,0 2.16145,-6.5104 4.02505,-10.39547 1.92755,-4.01838 4.22204,-8.0392 4.22204,-8.0392 0,0 1.9626,23.32069 32.34152,24.09445 16.28653,0.41482 25.87323,-23.60932 25.87323,-23.60932 0,0 -8.59117,6.77743 -16.06356,7.3715 -6.31148,0.50178 -13.52894,-2.03515 -13.52894,-2.03515 0,0 17.25562,-4.31003 21.50712,-18.59638 6.69948,-22.51234 -13.09832,-37.83958 -13.09832,-37.83958 z"
       id="path40"
       color="mane-main" /><path
       d="m 422.42578,559.15625 c 0.0569,5.40399 -0.42053,22.05454 -7.96875,31.88477 -9.53531,12.41805 -26.51953,5.17578 -26.51953,5.17578 0,0 1.69743,10.99096 6.49219,20.125 2.63141,5.01288 6.47785,9.26699 8.75586,11.55078 2.84782,0.64962 6.05109,1.05861 9.65429,1.15039 16.28653,0.41482 25.87305,-23.60938 25.87305,-23.60938 0,0 -8.59206,6.77703 -16.06445,7.3711 -6.31148,0.50178 -13.52735,-2.03516 -13.52735,-2.03516 0,0 17.25436,-4.30935 21.50586,-18.5957 4.46278,-14.99632 -2.8326,-26.80463 -8.20117,-33.01758 z"
       style="fill:#22ff00;fill-opacity:1;stroke:none;stroke-width:3;stroke-linecap:round"
       id="path44"
       color="mane-hl-1" /><path
       style="fill:none;fill-opacity:1;stroke:#000000;stroke-width:3;stroke-linecap:round;stroke-opacity:1"
       d="m 402.65201,627.66817 c 0,0 -4.27003,-3.79543 -8.22305,-11.32598 -4.79476,-9.13404 -6.49235,-20.12615 -6.49235,-20.12615 0,0 16.98474,7.24341 26.52005,-5.17464 9.10402,-11.85638 7.51941,-32.34153 7.51941,-32.34153"
       id="path41"
       color="mane-contour" /><path
       style="fill:none;fill-opacity:1;stroke:#000000;stroke-width:3;stroke-linecap:round;stroke-opacity:1"
       d="m 417.52911,554.33377 c 0,0 -11.14306,-9.23021 -31.8564,-4.85124 -29.5311,6.24312 -31.04787,34.60544 -31.04787,34.60544 0,0 5.279,-6.44712 12.16147,-10.6992 5.55392,-3.43129 9.47044,-5.96889 13.38833,-6.44181 -4.81471,3.7307 -11.95648,9.50584 -15.157,28.58295 -2.39107,14.25228 7.23333,27.85301 7.23333,27.85301 0,0 2.16145,-6.5104 4.02505,-10.39547 1.92755,-4.01838 4.22204,-8.0392 4.22204,-8.0392 0,0 1.9626,23.32069 32.34152,24.09445 16.28653,0.41482 25.87323,-23.60932 25.87323,-23.60932 0,0 -8.59117,6.77743 -16.06356,7.3715 -6.31148,0.50178 -13.52894,-2.03515 -13.52894,-2.03515 0,0 17.25562,-4.31003 21.50712,-18.59638 6.69948,-22.51234 -13.09832,-37.83958 -13.09832,-37.83958 z"
       id="path45"
       color="mane-contour" /></g><g
     id="layer6"
     style="display:inline"
     data-layer="700"><path
       style="fill:#fffe00;fill-opacity:1;stroke:none;stroke-width:3;stroke-linecap:round"
       d="m 206.98577,379.04269 c 7.96709,7.49405 35.84987,20.35759 53.94889,15.58325 44.6484,-11.77781 63.9614,-44.70708 66.36159,-60.21456 5.6467,12.29925 -6.37634,29.89944 -13.24377,36.80712 35.1486,-8.6099 35.03092,-59.27319 39.38155,-64.09171 0.59739,2.73782 -11.97316,31.97088 3.55142,38.94995 7.07176,-39.52579 43.42643,-47.3649 67.6588,-39.80248 14.66332,4.57611 20.05174,24.57956 20.05174,24.57956 l 15.84735,57.56791 c 0,0 10.14934,-40.9303 7.76196,-52.71668 -8.35359,-41.24128 -42.55377,-75.02072 -82.7943,-87.32213 -30.2476,-9.24659 -72.40311,-4.07879 -98.64166,13.58345 -14.73417,9.91817 -35.23292,30.22189 -30.07762,47.21862 3.11758,10.2785 32.85806,-24.26277 37.51617,-25.87322 -1.33615,2.12486 -16.34669,18.66377 -30.17209,42.05427 -10.21149,17.27631 -15.81396,39.18896 -29.16899,47.41779 -7.62204,4.6964 -23.5091,6.39344 -27.98104,6.25886 z"
       id="path18"
       color="mane-main" /><path
       style="fill:none;stroke:#000000;stroke-width:3;stroke-linecap:round"
       d="m 206.98577,379.04269 c 7.96709,7.49405 35.84987,20.35759 53.94889,15.58325 44.6484,-11.77781 63.9614,-44.70708 66.36159,-60.21456 5.6467,12.29925 -6.37634,29.89944 -13.24377,36.80712 35.1486,-8.6099 35.03092,-59.27319 39.38155,-64.09171 0.59739,2.73782 -11.97316,31.97088 3.55142,38.94995 7.07176,-39.52579 43.42643,-47.3649 67.6588,-39.80248 14.66332,4.57611 20.05174,24.57956 20.05174,24.57956 l 15.84735,57.56791 c 0,0 10.14934,-40.9303 7.76196,-52.71668 -8.35359,-41.24128 -42.55377,-75.02072 -82.7943,-87.32213 -30.2476,-9.24659 -72.40311,-4.07879 -98.64166,13.58345 -14.73417,9.91817 -35.23292,30.22189 -30.07762,47.21862 3.11758,10.2785 32.85806,-24.26277 37.51617,-25.87322 -1.33615,2.12486 -16.34669,18.66377 -30.17209,42.05427 -10.21149,17.27631 -15.81396,39.18896 -29.16899,47.41779 -7.62204,4.6964 -23.5091,6.39344 -27.98104,6.25886 z"
       id="path28"
       color="mane-contour" /></g><g
     id="layer8"
     style="display:inline"
     data-layer="1100"><path
       style="display:inline;fill:#fffe00;fill-opacity:1;stroke:none;stroke-width:3;stroke-linecap:round;stroke-opacity:1"
       d="m 460.5799,378.70919 c 0,0 0.36598,27.04786 -5.94591,57.62967 -6.3119,30.5818 -66.35624,53.12589 -41.62143,121.20523 10.05288,27.66925 58.06077,39.70801 88.27401,2.74427 16.07354,-19.66483 14.44702,-50.85096 8.2328,-76.38217 -2.94568,-12.10237 -17.40238,-25.3776 -22.41153,-41.16404 -12.52463,-39.47169 -18.29513,-87.81662 -18.29513,-87.81662 z"
       id="path29"
       color="mane-main" /><path
       d="M 480.83984,420.26953 C 472.64432,387.02621 468.8125,354.92578 468.8125,354.92578 l -8.23242,23.7832 c 0,0 0.36658,27.0471 -5.94531,57.62891 -5.68425,27.54074 -54.94741,48.56427 -46.62305,102.19531 0.94413,-4.54126 5.5033,-24.71635 14.04492,-35.62304 10.14553,-12.95471 32.11669,-27.45758 42.69141,-42.68946 8.88209,-12.79381 15.84765,-38.16406 15.84765,-38.16406 z"
       style="fill:#0000ff;fill-opacity:1;stroke:none;stroke-width:3;stroke-linecap:round"
       id="path38"
       color="mane-hl-2" /><path
       d="m 503.89258,471.96484 c 0.30583,2.6857 6.13148,57.95792 -28.14844,93.36524 -8.09286,8.35902 -30.08074,15.07906 -34.24414,16.29687 18.63961,5.07872 42.22131,0.15262 59.78711,-21.33789 16.07354,-19.66483 14.44664,-50.8516 8.23242,-76.38281 -0.93651,-3.84766 -3.03695,-7.81364 -5.62695,-11.94141 z"
       style="display:inline;fill:#0000ff;fill-opacity:1;stroke:none;stroke-width:3;stroke-linecap:round"
       id="path37"
       color="mane-hl-1" /><path
       style="fill:none;fill-opacity:1;stroke:#000000;stroke-width:3;stroke-linecap:round;stroke-opacity:1"
       d="m 408.39837,538.77059 c 0,0 3.99387,-23.51914 13.65855,-35.85985 10.14553,-12.95471 32.1161,-27.45894 42.69082,-42.69082 8.88209,-12.79381 15.84734,-38.163 15.84734,-38.163"
       id="path30"
       color="mane-contour" /><path
       style="fill:none;fill-opacity:1;stroke:#000000;stroke-width:3;stroke-linecap:round;stroke-opacity:1"
       d="m 417.20569,565.00647 c 0,0 32.16234,-0.91464 41.07374,-6.79172 44.17088,-29.13078 35.57568,-100.58215 35.57568,-100.58215"
       id="path31"
       color="mane-contour" /><path
       style="fill:none;fill-opacity:1;stroke:#000000;stroke-width:3;stroke-linecap:round;stroke-opacity:1"
       d="m 441.61542,581.25234 c 0,0 25.17232,-6.67179 34.12844,-15.92246 35.14041,-36.29611 28.13712,-93.46701 28.13712,-93.46701"
       id="path32"
       color="mane-contour" /><path
       style="display:inline;fill:none;fill-opacity:1;stroke:#000000;stroke-width:3;stroke-linecap:round;stroke-opacity:1"
       d="m 460.5799,378.70919 c 0,0 0.36598,27.04786 -5.94591,57.62967 -6.3119,30.5818 -66.35624,53.12589 -41.62143,121.20523 10.05288,27.66925 58.06077,39.70801 88.27401,2.74427 16.07354,-19.66483 14.44702,-50.85096 8.2328,-76.38217 -2.94568,-12.10237 -17.40238,-25.3776 -22.41153,-41.16404 -12.52463,-39.47169 -18.29513,-87.81662 -18.29513,-87.81662 z"
       id="path39"
       color="mane-contour" /></g><g
     id="layer7"
     style="display:inline"
     data-layer="900"><path
       d="m 362.60937,244.23047 0.58594,0.5957 c 0,0 -35.35987,10.75087 -47.54229,22.63833 -30.77146,30.02644 -27.44217,85.31495 -60.15497,113.84214 -7.00074,6.10499 -25.01563,10.00586 -25.01563,10.00586 l -0.26562,0.14258 c 10.21474,3.54363 21.68593,5.55269 30.71875,3.16992 4.72752,-1.24707 9.1704,-2.73069 13.33984,-4.40625 l -0.0195,-0.17969 c 0,0 15.52632,-16.4621 20.69922,-25.22656 18.21699,-30.86512 16.38727,-76.02945 44.95508,-97.67188 24.54178,-18.59238 45.55078,-18.75781 45.55078,-18.75781 l 0.0176,-0.01 c -7.08935,-2.16425 -14.83126,-3.53634 -22.86915,-4.14258 z"
       style="fill:#00ff00;stroke-width:3;stroke-linecap:round"
       id="path24"
       color="mane-hl-1" /><path
       d="m 385.47852,248.37305 -0.0176,0.01 c 0,0 -21.009,0.16543 -45.55078,18.75781 -28.56781,21.64243 -26.73809,66.80676 -44.95508,97.67188 -5.1729,8.76446 -20.69922,25.22656 -20.69922,25.22656 l 0.0195,0.17969 c 35.20819,-14.14898 50.87544,-41.94115 53.02148,-55.80664 5.6467,12.29925 -6.37671,29.89896 -13.24414,36.80664 35.1486,-8.6099 35.03023,-59.27328 39.38086,-64.0918 0.59739,2.73782 -11.97184,31.97015 3.55274,38.94922 7.07176,-39.52579 43.42583,-47.36515 67.6582,-39.80273 14.66332,4.57611 20.05078,24.58008 20.05078,24.58008 l 15.84766,57.56835 c 0,0 10.1491,-40.93041 7.76172,-52.71679 -8.35359,-41.24128 -42.55244,-75.02086 -82.79297,-87.32227 -0.0105,-0.003 -0.0227,-0.007 -0.0332,-0.01 z"
       style="fill:#ff00ff;fill-opacity:1;stroke:none;stroke-width:3;stroke-linecap:round"
       id="path25"
       color="mane-hl-2" /><path
       d="m 362.60937,244.23047 0.58594,0.5957 c 0,0 -36.97694,12.04453 -49.15936,23.93199 -30.77146,30.02644 -25.8251,84.02129 -58.5379,112.54848 -7.00074,6.10499 -25.01563,10.00586 -25.01563,10.00586 l -0.26562,0.14258 c 10.21474,3.54363 21.68593,5.55269 30.71875,3.16992 4.72752,-1.24707 9.1704,-2.73069 13.33984,-4.40625 l -0.0195,-0.17969 c 0,0 15.52632,-16.4621 20.69922,-25.22656 18.21699,-30.86512 16.38727,-76.02945 44.95508,-97.67188 24.54178,-18.59238 45.55078,-18.75781 45.55078,-18.75781 l 0.0176,-0.01 c -7.08935,-2.16425 -14.83126,-3.53634 -22.86915,-4.14258 z"
       style="display:inline;fill:none;stroke:#000000;stroke-width:3;stroke-linecap:round;stroke-opacity:1"
       id="path26"
       color="mane-contour" /><path
       d="m 385.47852,248.37305 -0.0176,0.01 c 0,0 -21.009,0.16543 -45.55078,18.75781 -28.56781,21.64243 -26.73809,66.80676 -44.95508,97.67188 -5.1729,8.76446 -20.69922,25.22656 -20.69922,25.22656 l 0.0195,0.17969 c 35.20819,-14.14898 50.87544,-41.94115 53.02148,-55.80664 5.6467,12.29925 -6.37671,29.89896 -13.24414,36.80664 35.1486,-8.6099 35.03023,-59.27328 39.38086,-64.0918 0.59739,2.73782 -11.97184,31.97015 3.55274,38.94922 7.07176,-39.52579 43.42583,-47.36515 67.6582,-39.80273 14.66332,4.57611 20.05078,24.58008 20.05078,24.58008 l 15.84766,57.56835 c 0,0 10.1491,-40.93041 7.76172,-52.71679 -8.35359,-41.24128 -42.55244,-75.02086 -82.79297,-87.32227 -0.0105,-0.003 -0.0227,-0.007 -0.0332,-0.01 z"
       style="display:inline;fill:none;fill-opacity:1;stroke:#000000;stroke-width:3;stroke-linecap:round;stroke-opacity:1"
       id="path27"
       color="mane-contour" /></g></svg>
