<?xml version="1.0" encoding="UTF-8" standalone="no"?>
<!-- Created with Inkscape (http://www.inkscape.org/) -->

<svg
   width="1000"
   height="1000"
   viewBox="0 0 1000 1000"
   version="1.1"
   id="svg1"
   xml:space="preserve"
   xmlns="http://www.w3.org/2000/svg"
   xmlns:svg="http://www.w3.org/2000/svg"><defs
     id="defs1" /><g
     id="layer5"
     style="display:inline"
     data-layer="390"><path
       style="fill:#0013ff;fill-opacity:1;stroke:none;stroke-width:5;stroke-linecap:round;stroke-dasharray:none;stroke-opacity:1"
       d="m 306.44343,352.18126 c 0,0 -19.517,-29.07654 -42.60647,-40.59222 -14.37224,-7.16804 -32.10971,-6.14528 -41.3387,8.69624 -14.11217,22.6944 2.58433,38.83292 17.47434,49.79554 11.88656,8.75136 23.41557,14.62239 13.67336,27.69083 -19.18588,25.73643 -60.68783,-4.2694 -60.68783,-4.2694 0,0 18.96904,1.85881 26.50552,0.53756 6.43577,-1.12827 14.71402,-7.09781 14.71402,-7.09781 0,0 -93.84368,-17.69516 -73.50394,-80.12755 22.50048,-69.0647 78.07772,-42.44982 78.07772,-42.44982 0,0 2.74352,-19.98221 11.245,-22.49001 23.3256,-6.88068 31.32035,9.59141 36.51684,12.57623 -1.13199,-5.86083 -31.74949,-64.09309 14.4416,-75.15857 66.94469,-16.03718 88.3353,49.27561 91.3613,62.31779 3.51127,-10.1431 3.32094,-49.40117 50.88333,-43.56528 80.00682,9.8168 96.7565,99.58729 72.03415,152.32297 -15.75824,33.61417 -67.91774,40.23327 -67.91774,40.23327 z"
       id="path18"
       color="mane-main" /><path
       d="m 474.74609,207.33398 c 12.1722,13.00767 36.18037,41.81913 29.28516,60.23243 -3.80658,10.16529 -28.35742,16.00781 -28.35742,16.00781 0,0 21.54819,8.25849 18.64062,26.47265 -2.68584,16.82515 -26.87304,19.26563 -26.87304,19.26563 0,0 9.04938,22.3812 6.04101,34.00781 -2.63235,10.17338 -14.41785,20.478 -22.83789,26.7461 11.7412,-2.11368 51.23599,-11.2139 64.58984,-39.69922 21.04871,-44.89937 12.03343,-116.64377 -40.48828,-143.03321 z"
       style="fill:#d8ff00;fill-opacity:1;stroke:none;stroke-width:3;stroke-linecap:round;stroke-dasharray:none"
       id="path23"
       color="mane-hl-2" /><path
       d="m 277.33984,226.63867 c 6.28106,-7.92521 17.51344,-18.48733 29.56055,-12.58594 28.01521,13.72352 10.13773,51.01249 10.35938,56.20313 2.61873,-2.21912 13.15038,-11.60617 21.6582,-5.20508 17.35146,13.05484 7.3164,67.91992 7.3164,67.91992 0,0 37.60986,-51.61924 32.47461,-70.89258 -3.55315,-13.33549 -39.79101,-11.43554 -39.79101,-11.43554 0,0 20.26784,-32.44152 -2.28711,-58.54297 -8.6324,-9.98974 -29.59744,-10.31638 -46.58203,-8.61914 -16.02813,9.21157 -16.1762,27.42696 -12.70899,43.1582 z"
       style="fill:#d8ff00;fill-opacity:1;stroke:none;stroke-width:3;stroke-linecap:round"
       id="path22"
       color="mane-hl-1" /><path
       style="fill:none;stroke:#000000;stroke-width:5;stroke-linecap:round;stroke-dasharray:none;stroke-opacity:1"
       d="m 306.44343,352.18126 c 0,0 -19.517,-29.07654 -42.60647,-40.59222 -14.37224,-7.16804 -32.10971,-6.14528 -41.3387,8.69624 -14.11217,22.6944 2.58433,38.83292 17.47434,49.79554 11.88656,8.75136 23.41557,14.62239 13.67336,27.69083 -19.18588,25.73643 -60.68783,-4.2694 -60.68783,-4.2694 0,0 18.96904,1.85881 26.50552,0.53756 6.43577,-1.12827 14.71402,-7.09781 14.71402,-7.09781 0,0 -93.84368,-17.69516 -73.50394,-80.12755 22.50048,-69.0647 78.07772,-42.44982 78.07772,-42.44982 0,0 2.74352,-19.98221 11.245,-22.49001 23.3256,-6.88068 31.32035,9.59141 36.51684,12.57623 -1.13199,-5.86083 -31.74949,-64.09309 14.4416,-75.15857 66.94469,-16.03718 88.3353,49.27561 91.3613,62.31779 3.51127,-10.1431 3.32094,-49.40117 50.88333,-43.56528 80.00682,9.8168 96.7565,99.58729 72.03415,152.32297 -15.75824,33.61417 -67.91774,40.23327 -67.91774,40.23327 z"
       id="path24"
       color="mane-contour" /><path
       d="m 474.74609,207.33398 c 12.1722,13.00767 36.18037,41.81913 29.28516,60.23243 -3.80658,10.16529 -28.35742,16.00781 -28.35742,16.00781 0,0 21.54819,8.25849 18.64062,26.47265 -2.68584,16.82515 -26.87304,19.26563 -26.87304,19.26563 0,0 9.04938,22.3812 6.04101,34.00781 -2.63235,10.17338 -14.41785,20.478 -22.83789,26.7461 11.7412,-2.11368 51.23599,-11.2139 64.58984,-39.69922 21.04871,-44.89937 12.03343,-116.64377 -40.48828,-143.03321 z"
       style="fill:none;stroke:#000000;stroke-width:3;stroke-linecap:round;stroke-dasharray:none"
       id="path25"
       color="mane-contour" /><path
       d="m 277.33984,226.63867 c 6.28106,-7.92521 17.51344,-18.48733 29.56055,-12.58594 28.01521,13.72352 10.13773,51.01249 10.35938,56.20313 2.61873,-2.21912 13.15038,-11.60617 21.6582,-5.20508 17.35146,13.05484 7.3164,67.91992 7.3164,67.91992 0,0 37.60986,-51.61924 32.47461,-70.89258 -3.55315,-13.33549 -39.79101,-11.43554 -39.79101,-11.43554 0,0 20.26784,-32.44152 -2.28711,-58.54297 -8.6324,-9.98974 -29.59744,-10.31638 -46.58203,-8.61914 -16.02813,9.21157 -16.1762,27.42696 -12.70899,43.1582 z"
       style="fill:none;stroke:#000000;stroke-width:3;stroke-linecap:round"
       id="path26"
       color="mane-contour" /><path
       style="fill:none;stroke:#000000;stroke-width:3;stroke-linecap:round;stroke-dasharray:none;stroke-opacity:1"
       d="m 238.75145,265.27939 c 0,0 2.01785,15.01329 11.89183,20.58202 19.29439,10.88166 25.57491,-0.72897 22.46227,-8.04812 -4.97764,-11.70454 -34.3541,-12.5339 -34.3541,-12.5339 z"
       id="path27"
       color="mane-contour" /></g><g
     id="layer6"
     style="display:inline"
     data-layer="1300"><path
       style="display:inline;fill:#d8ff00;fill-opacity:1;stroke:none;stroke-width:5;stroke-linecap:round;stroke-dasharray:none;stroke-opacity:1"
       d="m 473.84387,355.84028 c 0,0 -39.5425,-6.01785 -49.9327,28.2005 -5.42036,17.85105 19.74574,40.86362 19.74574,40.86362 0,0 -42.17202,16.25804 -39.33453,59.45917 2.53568,38.60602 54.88539,44.82307 54.88539,44.82307 0,0 -26.13104,11.00249 -20.12465,24.69843 12.92487,29.47167 41.32345,21.53174 56.72042,9.76534 8.77882,-6.7088 10.05681,-19.86017 10.05681,-19.86017 0,0 -7.6492,5.57593 -18.34294,5.98104 -10.69374,0.40511 -21.90635,-5.03378 -21.90635,-5.03378 0,0 39.58619,-7.04305 49.72026,-27.28099 10.33056,-20.63031 -9.19352,-39.46373 -9.19352,-39.46373 0,0 43.39262,7.53978 56.64037,-21.29781 13.32414,-29.00384 13.7222,-75.33968 -14.80652,-94.6543 -15.79822,-10.69578 -46.95301,2.4898 -46.95301,2.4898 z"
       id="path28"
       color="mane-main" /><path
       d="m 539.73828,358.66016 c -16.4323,-3.56192 -38.71875,5.87109 -38.71875,5.87109 0,0 -7.4017,-4.96348 -13.28051,-6.57549 -5.87546,-1.6111 -13.89527,-2.11592 -13.89527,-2.11592 0,0 -39.54144,-6.01717 -49.93164,28.20118 -5.42036,17.85105 19.74414,40.86328 19.74414,40.86328 0,0 -42.17147,16.25785 -39.33398,59.45898 1.94314,29.58453 33.13948,40.14888 47.61328,43.4707 12.52154,-4.39284 37.83023,-14.92428 39.65625,-28.80468 1.82571,-13.87808 -25.55078,-28.78321 -25.55078,-28.78321 0,0 41.43307,-6.05192 50.45312,-23.60937 4.94573,-9.62682 -12.9375,-20.69922 -12.9375,-20.69922 0,0 33.00207,0.52847 43.01563,-20.69727 6.63785,-14.07025 -1.18131,-34.8037 -6.83399,-46.58007 z"
       style="display:inline;fill:#ff9c00;fill-opacity:1;stroke:none;stroke-width:3;stroke-linecap:round;stroke-dasharray:none"
       id="path32"
       color="mane-hl-2" /><path
       style="display:inline;fill:none;fill-opacity:1;stroke:#000000;stroke-width:5;stroke-linecap:round;stroke-dasharray:none;stroke-opacity:1"
       d="m 480.01848,357.89848 c 0,0 -45.37408,-11.84942 -56.10731,26.1423 -5.07203,17.95313 19.74574,40.86362 19.74574,40.86362 0,0 -42.17202,16.25804 -39.33453,59.45917 2.53568,38.60602 54.88539,44.82307 54.88539,44.82307 0,0 -26.13104,11.00249 -20.12465,24.69843 12.92487,29.47167 41.32345,21.53174 56.72042,9.76534 8.77882,-6.7088 10.05681,-19.86017 10.05681,-19.86017 0,0 -7.6492,5.57593 -18.34294,5.98104 -10.69374,0.40511 -21.90635,-5.03378 -21.90635,-5.03378 0,0 39.58619,-7.04305 49.72026,-27.28099 10.33056,-20.63031 -9.19352,-39.46373 -9.19352,-39.46373 0,0 43.39262,7.53978 56.64037,-21.29781 13.32414,-29.00384 13.7222,-75.33968 -14.80652,-94.6543 -15.79822,-10.69578 -46.95301,2.4898 -46.95301,2.4898"
       id="path29"
       color="mane-contour" /><path
       d="m 473.84375,355.83984 c 0,0 -39.54144,-6.01717 -49.93164,28.20118 -5.42036,17.85105 19.74414,40.86328 19.74414,40.86328 0,0 -42.17147,16.25785 -39.33398,59.45898 1.94314,29.58453 33.13948,40.14888 47.61328,43.4707 12.52154,-4.39284 37.83023,-14.92428 39.65625,-28.80468 1.82571,-13.87808 -25.55078,-28.78321 -25.55078,-28.78321 0,0 41.43307,-6.05192 50.45312,-23.60937 4.94573,-9.62682 -12.9375,-20.69922 -12.9375,-20.69922 0,0 33.00207,0.52847 43.01563,-20.69727 6.63785,-14.07025 -1.18131,-34.8037 -6.83399,-46.58007 -16.4323,-3.56192 -38.71875,5.87109 -38.71875,5.87109"
       style="display:inline;fill:none;stroke:#000000;stroke-width:3;stroke-linecap:round;stroke-dasharray:none"
       id="path33"
       color="mane-contour" /><path
       style="display:inline;fill:none;fill-opacity:1;stroke:#000000;stroke-width:3;stroke-linecap:round;stroke-dasharray:none;stroke-opacity:1"
       d="m 444.37257,426.26132 c 0,0 19.87654,13.05799 28.13713,10.02587 5.369,-1.97073 4.46549,-8.48334 1.13196,-11.96636 -7.14729,-7.46783 -29.26909,1.94049 -29.26909,1.94049 z"
       id="path34"
       color="mane-contour" /></g></svg>
