<?xml version="1.0" encoding="UTF-8" standalone="no"?>
<!-- Created with Inkscape (http://www.inkscape.org/) -->

<svg
   width="1000"
   height="1000"
   viewBox="0 0 1000 1000"
   version="1.1"
   id="svg1"
   xml:space="preserve"
   xmlns="http://www.w3.org/2000/svg"
   xmlns:svg="http://www.w3.org/2000/svg"><defs
     id="defs1" /><g
     id="layer12"
     style="display:inline"
     data-layer="390"><path
       style="fill:#b300ff;fill-opacity:1;stroke:none;stroke-width:4;stroke-linecap:round;stroke-dasharray:none;stroke-opacity:1"
       d="m 332.05661,380.53871 c 0,0 19.23402,181.16255 -42.99355,225.94486 -31.22138,22.46859 -103.25143,21.28056 -114.34457,-15.55087 -8.48268,-28.16417 15.19575,-46.93562 30.50304,-45.09067 12.1202,1.46082 15.92086,21.307 15.92086,21.307 0,0 -19.4193,-22.55704 -25.61319,-8.2328 -13.52712,31.28335 25.16476,57.68963 49.51457,-6.67123 30.40799,-80.3737 -106.92897,-118.45248 -50.20063,-253.11962 27.95249,-66.35629 136.33462,-74.57734 204.84044,-52.58504 31.93373,10.25163 61.51525,47.1775 68.89371,82.14422 5.48514,25.99422 -13.12048,68.7906 -13.12048,68.7906 z"
       id="path18"
       color="mane-main" /><path
       d="m 339.31641,235.95508 c -26.16323,-1.32076 -53.16953,1.26103 -76.99219,8.68359 13.18936,1.85512 43.97308,7.19006 57.21094,17.97461 33.44554,27.24724 61.73848,107.08618 67.94531,125.5332 l 1.36328,0.18555 c 0.37312,-16.28011 1.1628,-83.01766 -9.80078,-117.31055 -3.21173,-10.04596 -11.3055,-26.95997 -13.99414,-32.48046 -8.38439,-1.27323 -17.01135,-2.14569 -25.73242,-2.58594 z"
       style="fill:#00ff87;fill-opacity:1;stroke:none;stroke-width:4;stroke-linecap:round"
       id="path27"
       color="mane-hl-1" /><path
       d="m 360.67383,384.4668 c -8.57338,-20.90681 -31.73792,-73.14716 -56.01758,-91.45313 -20.32656,-15.32547 -48.06223,-17.25339 -71.15039,-16.16992 -23.67029,1.1108 -34.12996,13.40537 -34.25781,13.55664 -1.60989,2.80296 -3.12155,5.67949 -4.4043,8.72461 -51.61988,122.54019 57.44643,165.10468 54.59766,232.33398 3.19759,7.28844 12.51765,29.98997 12.21679,46.33985 -0.46803,25.43394 -15.25347,39.00736 -21.1914,43.44336 18.37863,-0.92676 36.53261,-6.07657 48.5957,-14.75782 2.80086,-2.01564 5.43799,-4.30837 7.91797,-6.84765 -0.0638,-8.47309 -1.20648,-28.24833 -9.14063,-53.71094 -17.56902,-56.38327 -93.41306,-137.14491 -80.20703,-196.63672 7.58167,-34.15466 37.27846,-52.58915 65.33008,-45.92578 25.60309,6.08175 54.69308,56.4862 66.14453,78.14258 z"
       style="fill:#00ff87;fill-opacity:1;stroke:none;stroke-width:4;stroke-linecap:round"
       id="path26"
       color="mane-hl-2" /><path
       style="fill:none;stroke:#000000;stroke-width:4;stroke-linecap:round;stroke-dasharray:none;stroke-opacity:1"
       d="m 241.23529,620.8396 c 0,0 19.83741,-11.19183 20.4235,-43.04115 0.36295,-19.7241 -12.02145,-46.37168 -12.02145,-46.37168"
       id="path19"
       color="mane-contour" /><path
       style="fill:none;stroke:#000000;stroke-width:4;stroke-linecap:round;stroke-dasharray:none;stroke-opacity:1"
       d="m 295.98045,600.48069 c 0,0 2.53223,-20.30316 -8.14086,-54.55572 -17.56902,-56.38327 -93.41302,-137.14468 -80.20699,-196.63649 7.58167,-34.15466 37.27827,-52.58833 65.32989,-45.92496 32.7273,7.77403 71.15135,87.96895 71.15135,87.96895 l 20.05175,1.94049 c 0,0 -28.86536,-77.15501 -59.50841,-100.25873 -20.32656,-15.32547 -48.0632,-17.25423 -71.15136,-16.17076 -23.81655,1.11766 -34.28201,13.58344 -34.28201,13.58344"
       id="path20"
       color="mane-contour" /><path
       style="fill:none;stroke:#000000;stroke-width:4;stroke-linecap:round;stroke-dasharray:none;stroke-opacity:1"
       d="m 263.00556,244.76987 c 0,0 39.44484,3.92552 56.52872,17.84333 37.91585,30.88909 69.21087,129.3661 69.21087,129.3661 0,0 2.84245,-81.71821 -9.70246,-120.95731 -3.8788,-12.13248 -14.41972,-31.99513 -14.41972,-31.99513"
       id="path21"
       color="mane-contour" /><path
       style="fill:none;stroke:#000000;stroke-width:4;stroke-linecap:round;stroke-dasharray:none;stroke-opacity:1"
       d="m 332.05661,380.53871 c 0,0 19.23402,181.16255 -42.99355,225.94486 -31.22138,22.46859 -103.25143,21.28056 -114.34457,-15.55087 -8.48268,-28.16417 15.19575,-46.93562 30.50304,-45.09067 12.1202,1.46082 15.92086,21.307 15.92086,21.307 0,0 -19.4193,-22.55704 -25.61319,-8.2328 -13.52712,31.28335 25.16476,57.68963 49.51457,-6.67123 30.40799,-80.3737 -106.92897,-118.45248 -50.20063,-253.11962 27.95249,-66.35629 136.33462,-74.57734 204.84044,-52.58504 31.93373,10.25163 61.51525,47.1775 68.89371,82.14422 5.48514,25.99422 -13.12048,68.7906 -13.12048,68.7906 z"
       id="path28"
       color="mane-contour" /></g><g
     id="layer13"
     style="display:inline"
     data-layer="1100"><path
       style="fill:#00ff35;fill-opacity:1;stroke:none;stroke-width:4;stroke-linecap:round;stroke-dasharray:none;stroke-opacity:1"
       d="m 466.06844,314.21886 c 0,0 -10.61393,0.11422 -10.9265,10.52122 -0.75452,25.12122 7.73842,77.1013 2.69369,92.38889 -19.64045,59.51863 -82.33497,96.43052 -100.16584,157.79549 -10.89051,37.47974 -22.00421,85.35663 0.45739,117.08884 19.02634,26.87913 63.09223,50.93896 93.30516,37.9624 15.09716,-6.48429 31.83233,-28.08498 24.61519,-42.99832 -3.60489,-7.44908 -23.24306,-5.48378 -23.24306,-5.48378 0,0 15.67006,7.3483 15.43989,14.04477 -0.33237,9.66977 -14.83892,16.95695 -23.6727,14.31268 -14.2418,-4.26308 -17.31052,-19.16466 -17.2464,-34.03069 0.19615,-45.4779 66.5776,-89.92987 70.75966,-236.27986 1.23156,-43.09797 -32.01648,-125.32164 -32.01648,-125.32164 z"
       id="path29"
       color="mane-main" /><path
       d="m 488.90234,382.44531 c -0.25189,17.41462 -1.7967,57.83585 -10.48437,78.5918 -19.18633,45.83857 -92.15427,100.0697 -114.3457,144.53125 -15.3815,30.81754 -9.62004,73.75481 -8.09766,83.19141 0.68046,1.10216 1.39729,2.18722 2.15234,3.2539 7.17362,10.1344 17.90713,19.86832 30.11524,27.36719 -3.56847,-8.80802 -15.33899,-40.32165 -10.44727,-61.67188 12.95671,-56.55044 53.24514,-112.20721 92.84766,-155.50781 14.81156,-16.19467 25.22918,-54.47121 27.45508,-63.16797 0.34853,-15.71516 -3.78769,-36.49877 -9.19532,-56.58789 z"
       style="fill:#b300ff;fill-opacity:1;stroke:none;stroke-width:4;stroke-linecap:round"
       id="path35"
       color="mane-hl-1" /><path
       style="fill:none;fill-opacity:1;stroke:#000000;stroke-width:4;stroke-linecap:round;stroke-dasharray:none;stroke-opacity:1"
       d="m 487.88625,378.74408 c 0,0 1.79747,55.37712 -9.4686,82.2932 -19.18633,45.83857 -92.15313,100.06998 -114.34456,144.53153 -17.37243,34.80648 -7.77543,83.21271 -7.77543,83.21271"
       id="path30"
       color="mane-contour" /><path
       style="fill:none;fill-opacity:1;stroke:#000000;stroke-width:4;stroke-linecap:round;stroke-dasharray:none;stroke-opacity:1"
       d="m 388.3395,718.91301 c 0,0 -17.16975,-39.00088 -11.43445,-64.03296 12.95671,-56.55044 54.13466,-109.37813 93.73718,-152.67873 16.7641,-18.32954 27.33409,-64.13916 27.33409,-64.13916"
       id="path31"
       color="mane-contour" /><path
       style="fill:none;fill-opacity:1;stroke:#000000;stroke-width:4;stroke-linecap:round;stroke-dasharray:none;stroke-opacity:1"
       d="m 466.06844,314.21886 c 0,0 -10.61393,0.11422 -10.9265,10.52122 -0.75452,25.12122 7.73842,77.1013 2.69369,92.38889 -19.64045,59.51863 -82.33497,96.43052 -100.16584,157.79549 -10.89051,37.47974 -22.00421,85.35663 0.45739,117.08884 19.02634,26.87913 63.09223,50.93896 93.30516,37.9624 15.09716,-6.48429 31.83233,-28.08498 24.61519,-42.99832 -3.60489,-7.44908 -23.24306,-5.48378 -23.24306,-5.48378 0,0 15.67006,7.3483 15.43989,14.04477 -0.33237,9.66977 -14.83892,16.95695 -23.6727,14.31268 -14.2418,-4.26308 -17.31052,-19.16466 -17.2464,-34.03069 0.19615,-45.4779 66.5776,-89.92987 70.75966,-236.27986 1.23156,-43.09797 -32.01648,-125.32164 -32.01648,-125.32164 z"
       id="path36"
       color="mane-contour" /></g></svg>
