<?xml version="1.0" encoding="UTF-8" standalone="no"?>
<!-- Created with Inkscape (http://www.inkscape.org/) -->

<svg
   width="1000"
   height="1000"
   viewBox="0 0 1000 1000"
   version="1.1"
   id="svg1"
   xml:space="preserve"
   xmlns="http://www.w3.org/2000/svg"
   xmlns:svg="http://www.w3.org/2000/svg"><defs
     id="defs1" /><g
     id="layer5"
     style="display:inline"><g
       id="g24"
       style="display:inline"><path
         d="m 457.56836,309.03516 c -27.67795,-14.47299 -79.32463,-44.67877 -114.07765,-47.41489 -27.09309,-2.13306 -71.46004,14.78244 -94.34423,23.19223 -10.83535,9.18392 -22.10937,23.72656 -22.10937,23.72656 0,0 9.38198,-3.67036 14.95312,-5.34375 3.89062,-1.16862 13.50782,-2.41992 13.50782,-2.41992 0,0 -14.93342,25.40163 -32.01758,30.07813 -28.61378,7.83252 -41.7207,7.43945 -41.7207,7.43945 0,0 32.58896,19.9401 50.45312,21.66797 3.62159,0.35029 7.62544,0.21516 11.83203,-0.27539 8.9052,-4.81083 25.4064,-10.06244 32.66948,-14.82319 25.57849,-16.76597 46.4644,-43.04459 76.3813,-49.39565 31.11549,-6.60551 80.26691,5.62486 105.51563,15.88681 -0.16597,-0.62853 -0.50028,-1.39278 -1.04297,-2.31836 z"
         style="display:inline;fill:#f68346;fill-opacity:1;stroke:none;stroke-width:5;stroke-linecap:round"
         id="path23"
         data-layer="900"
         color="gradient"
         data-grad="from:f68346ff;tof68346ff:;angle:90;range:5%-100%; fromOpacity:1; toOpacity:1" /><path
         d="m 328.58984,228.33203 c -53.71867,-2.17341 -93.79101,39.45508 -93.79101,39.45508 0,0 17.55473,-4.3674 28.78515,-3.55664 11.01407,0.79513 19.72852,3.55664 19.72852,3.55664 0,0 -21.19305,7.94064 -28.78516,12.9375 -1.74373,1.14767 -3.55629,2.54141 -5.38086,4.08789 22.88419,-8.40979 64.04949,-21.66626 91.14258,-19.5332 34.75302,2.73612 89.60135,29.28287 117.2793,43.75586 -0.0896,-0.15284 -0.18392,-0.31092 -0.28516,-0.47266 -14.64951,-23.40509 -63.92043,-77.60981 -128.69336,-80.23047 z"
         style="display:inline;fill:#f25d57;fill-opacity:1;stroke:none;stroke-width:5;stroke-linecap:round"
         id="path24"
         data-layer="700"
         color="gradient"
         data-grad="from:f25d57ff;to:f25d57ff;angle:90;range:5%-100%; fromOpacity:1; toOpacity:1" /><path
         d="m 458.61133,311.35352 c -25.24872,-10.26195 -74.40014,-27.52348 -105.51563,-20.91797 -29.9169,6.35106 -55.37659,36.28871 -80.95508,53.05468 -7.26308,4.76075 -19.1905,11.38449 -28.0957,16.19532 25.35637,-2.95693 58.02539,-18.80664 58.02539,-18.80664 0,0 -4.66497,7.65023 -8.97656,20.79687 -2.86403,8.73281 -4.10602,20.74536 -3.31445,29.65625 3.80092,-6.38824 19.45607,-55.24385 76.32617,-71.79687 30.02919,-8.74051 86.01562,-6.24805 86.01562,-6.24805 0,0 7.70261,2.65778 6.49024,-1.93359 z"
         style="display:inline;fill:#f9f5b5;fill-opacity:1;stroke:none;stroke-width:5;stroke-linecap:round;stroke-opacity:1"
         id="path22"
         data-layer="900"
         color="gradient"
         data-grad="from:f9f5b5ff;to:f9f5b5ff;angle:90;range:5%-100%; fromOpacity:1; toOpacity:1" /><path
         style="display:inline;fill:none;fill-opacity:1;stroke:#33a9e4;stroke-width:5;stroke-linecap:round;stroke-opacity:1"
         d="m 289.78008,391.33247 c -0.79157,-8.91089 0.44986,-20.92319 3.31389,-29.656 4.31159,-13.14664 8.97589,-20.79678 8.97589,-20.79678 0,0 -44.40598,21.54327 -69.8577,19.0815 -17.86416,-1.72787 -50.45278,-21.66882 -50.45278,-21.66882 0,0 13.10679,0.39397 41.72057,-7.43855 17.08416,-4.6765 32.01811,-30.07762 32.01811,-30.07762 0,0 -9.61641,1.24953 -13.50703,2.41815 -5.57114,1.67339 -14.95351,5.34381 -14.95351,5.34381 0,0 15.39125,-19.85053 27.49029,-27.81371 7.59211,-4.99686 28.78396,-12.93661 28.78396,-12.93661 0,0 -8.71426,-2.76243 -19.72833,-3.55756 -11.23042,-0.81076 -28.78396,3.55756 -28.78396,3.55756 0,0 40.07176,-41.63007 93.79043,-39.45666 64.77293,2.62066 114.04341,56.82676 128.69292,80.23185 5.193,8.29669 -5.16175,4.7249 -5.16175,4.7249 0,0 -55.98581,-2.49416 -86.015,6.24635 -56.8701,16.55302 -72.52508,65.40995 -76.326,71.79819 z"
         id="path18"
         data-layer="700"
         color="null"
         data-grad="from:33a9e4ff;to:33a9e4ff;angle:90;range:5%-100%; fromOpacity:1; toOpacity:1" /><path
         style="display:inline;fill:none;stroke:#2da9ea;stroke-width:5;stroke-linecap:round;stroke-opacity:1"
         d="m 457.28283,308.56303 c 5.193,8.29669 -5.16175,4.7249 -5.16175,4.7249 0,0 -55.98581,-2.49416 -86.015,6.24635 -56.8701,16.55302 -72.52508,65.40995 -76.326,71.79819 -0.79157,-8.91089 0.44986,-20.92319 3.31389,-29.656 4.31159,-13.14664 8.97589,-20.79678 8.97589,-20.79678 0,0 -44.40598,21.54327 -69.8577,19.0815 -17.86416,-1.72787 -50.45278,-21.66882 -50.45278,-21.66882 0,0 13.10679,0.39397 41.72057,-7.43855 17.08416,-4.6765 32.01811,-30.07762 32.01811,-30.07762 0,0 -9.61641,1.24953 -13.50703,2.41815 -5.57114,1.67339 -14.95351,5.34381 -14.95351,5.34381 0,0 11.52976,-14.87026 22.47558,-24.03304"
         id="path30"
         data-layer="900"
         color="null"
         data-grad="from:33a9e4ff;to:33a9e4ff;angle:90;range:5%-100%; fromOpacity:1; toOpacity:1" /></g><path
       d="m 481.30273,364.94141 c -2.08851,21.74411 -6.31263,45.44509 -13.83037,57.82973 -11.67855,19.23914 -39.89091,22.89625 -55.5645,36.83869 -9.34708,8.31469 -21.98859,27.78692 -30.17349,39.76322 -2.3948,9.639 -3.48242,17.92187 -3.48242,17.92187 0,0 5.03985,-8.14073 8.66992,-11.13086 2.77623,-2.28681 9.62501,-4.87695 9.625,-4.87695 0,0 4.43495,30.12556 12.79493,45.45312 0.70056,-12.55584 5.37635,-28.57577 9.78378,-38.56566 11.19673,-25.37846 35.90509,-38.41672 51.49667,-61.35873 4.42379,-6.50934 8.59499,-15.96504 12.85822,-23.32756 1.87486,-6.79324 3.16892,-13.49246 3.62695,-20.08008 0.75164,-10.81022 -1.74425,-24.62688 -5.80469,-38.46679 z"
       style="display:inline;fill:#2faae6;fill-opacity:1;stroke:none;stroke-width:5;stroke-linecap:round"
       id="path28"
       data-layer="1100"
       color="gradient"
       data-grad="from:33a9e4ff;to:33a9e4ff;angle:90;range:5%-100%; fromOpacity:1; toOpacity:1" /><path
       d="m 483.48047,423.48828 c -4.26323,7.36252 -8.75785,14.2309 -13.18164,20.74024 -15.59158,22.94201 -42.88726,38.08247 -54.08399,63.46093 -4.40743,9.98989 -6.17248,26.49494 -6.87304,39.05078 0.59423,1.0895 1.20807,2.10548 1.84179,3.0293 9.30573,13.56557 40.70704,20.12305 40.70703,20.12305 0,0 -10.74561,-29.31634 -6.40429,-47.56641 7.99938,-33.62786 29.27303,-67.23843 37.99414,-98.83789 z"
       style="display:inline;fill:#6d4798;fill-opacity:1;stroke:none;stroke-width:5;stroke-linecap:round"
       id="path29"
       data-layer="1100"
       color="gradient"
       data-grad="from:6d4798ff;to:6d4798ff;angle:90;range:5%-100%; fromOpacity:1; toOpacity:1" /><path
       d="m 449.95703,304.95703 c -0.48164,0.0128 -0.90745,0.19961 -1.26953,0.57227 -14.18718,14.60193 23.50802,65.55705 9.60547,92.39062 -13.37233,25.81018 -75.92383,39.79102 -75.92383,39.79102 0,0 11.026,5.34826 16.92188,6.86133 7.53794,1.93448 18.24023,-2.12305 18.24023,-2.12305 0,0 -18.4309,22.66685 -26.02734,32.69336 -4.41656,5.8294 -7.61943,15.57636 -9.76954,24.23047 8.1849,-11.9763 21.47324,-30.47828 30.82032,-38.79297 15.67359,-13.94244 44.69449,-17.92297 56.37304,-37.16211 7.51774,-12.38464 10.28649,-36.73245 12.375,-58.47656 -8.80737,-30.01975 -24.97738,-60.15393 -31.3457,-59.98438 z"
       style="display:inline;fill:#6dc960;fill-opacity:1;stroke:none;stroke-width:5;stroke-linecap:round"
       id="path27"
       data-layer="1100"
       color="gradient"
       data-grad="from:6dc960ff;to:6dc960ff;angle:90;range:5%-100%; fromOpacity:1; toOpacity:1" /><path
       style="fill:none;stroke:#2faae6;stroke-width:5;stroke-linecap:round;stroke-opacity:1"
       d="m 448.68807,305.52867 c -14.18718,14.60193 23.50749,65.55684 9.60494,92.39041 -13.37233,25.81018 -75.92479,39.79191 -75.92479,39.79191 0,0 11.02712,5.3476 16.923,6.86067 7.53794,1.93448 18.23963,-2.1228 18.23963,-2.1228 0,0 -18.42971,22.66692 -26.02615,32.69343 -9.33575,12.32223 -14.34665,35.36663 -13.25288,42.15252 1.82055,-1.98856 5.03988,-8.14076 8.66995,-11.13089 2.77623,-2.28681 9.62518,-4.87735 9.62518,-4.87735 0,0 5.08686,34.56153 14.6361,48.48209 9.30573,13.56557 40.70667,20.12464 40.70667,20.12464 0,0 -10.74462,-29.31726 -6.4033,-47.56733 9.71908,-40.85716 39.03278,-81.68774 41.62142,-118.91835 2.50529,-36.03173 -31.06311,-105.45067 -38.41977,-97.87895 z"
       id="path19"
       data-layer="1100"
       color="null" /></g></svg>
