<?xml version="1.0" encoding="UTF-8" standalone="no"?>
<!-- Created with Inkscape (http://www.inkscape.org/) -->

<svg
   width="1000"
   height="1000"
   viewBox="0 0 1000 1000"
   version="1.1"
   id="svg1"
   xml:space="preserve"
   xmlns="http://www.w3.org/2000/svg"
   xmlns:svg="http://www.w3.org/2000/svg"><defs
     id="defs1" /><g
     id="layer5"><g
       id="g41"><g
         id="g19"
         style="display:inline"
         data-layer="390"><path
           style="fill:#fd120f;fill-opacity:1;fill-rule:evenodd;stroke:none;stroke-width:5;stroke-linecap:round;stroke-dasharray:none;stroke-opacity:1"
           d="m 132.27684,308.53816 c 0,0 -1.90571,30.24327 12.6132,42.3674 18.77674,15.67966 49.62216,7.19349 53.68693,15.84735 12.69055,27.01806 -42.92486,40.74335 -44.30789,66.94696 -1.96254,37.18314 30.72445,54.65718 30.72445,54.65718 0,0 -5.23496,-19.91534 8.73222,-35.25226 19.06597,-20.93575 40.69556,-15.54827 63.56967,-21.76764 30.27478,-8.23157 58.03446,-17.04219 58.03446,-17.04219 l 24.25615,-89.26262 -65.00647,-74.38551 -94.11384,9.37904 z"
           id="path19"
           color="mane-main" /><path
           d="m 274.58008,250.64648 -65.37305,6.51368 c 0.0219,7.21383 0.72866,24.50268 6.68359,33.16601 13.31008,19.36372 32.43787,22.24065 44.16407,37.61719 9.23891,12.11496 8.72999,30.49823 19.37695,41.39648 9.18417,9.40094 30.14848,17.92678 42.06836,22.24805 l 18.08594,-66.55469 z"
           style="fill:#e3fd0f;fill-opacity:1;fill-rule:evenodd;stroke:none;stroke-width:5;stroke-linecap:round"
           id="path26"
           color="mane-hl-2" /><path
           d="m 263.27344,429.69531 c 0.0749,-11.2159 -0.58742,-25.83132 -3.82032,-36.33398 -5.63122,-18.29402 -30.16718,-45.67262 -44.00781,-58.89453 -8.7767,-8.38436 -19.16406,-24.88672 -19.16406,-24.88672 0,0 -4.39232,6.76339 -3.12305,12.46289 1.22291,5.49131 4.44922,10.75195 4.44922,10.75195 0,0 -23.92728,0.45952 -33.95898,-16.49414 -4.58692,-7.75193 -6.22446,-22.32594 -6.80469,-32.49414 l -24.56641,24.73242 c 0,0 -1.90563,30.24306 12.61328,42.36719 18.77674,15.67966 49.62078,7.19184 53.68555,15.8457 2.10685,4.48546 2.33208,8.60593 1.23438,12.47657 4.31674,4.07669 8.70927,11.21819 8.79297,23.42382 0.0773,11.27864 -17.78907,28.78321 -17.78907,28.78321 L 188.875,418.17578 c 0,0 -14.14683,22.41482 -12.96875,33.07422 1.02573,9.28097 4.40836,17.08774 8.37891,23.31836 0.70741,-6.56515 3.089,-14.48752 9.4414,-21.46289 19.06597,-20.93575 40.69425,-15.54821 63.56836,-21.76758 2.00602,-0.54543 4.00192,-1.0948 5.97852,-1.64258 z"
           style="fill:#e3fd0f;fill-opacity:1;fill-rule:evenodd;stroke:none;stroke-width:5;stroke-linecap:round"
           id="path25"
           color="mane-hl-1" /><path
           style="fill:none;fill-rule:evenodd;stroke:#000000;stroke-width:5;stroke-linecap:round;stroke-dasharray:none;stroke-opacity:1"
           d="m 132.27684,308.53816 c 0,0 -1.90571,30.24327 12.6132,42.3674 18.77674,15.67966 49.62216,7.19349 53.68693,15.84735 12.69055,27.01806 -42.92486,40.74335 -44.30789,66.94696 -1.96254,37.18314 30.72445,54.65718 30.72445,54.65718 0,0 -5.23496,-19.91534 8.73222,-35.25226 19.06597,-20.93575 40.69556,-15.54827 63.56967,-21.76764 30.27478,-8.23157 58.03446,-17.04219 58.03446,-17.04219 l 24.25615,-89.26262 -65.00647,-74.38551 -94.11384,9.37904 z"
           id="path27"
           color="mane-contour" /></g><g
         id="g20"
         style="display:inline"
         data-layer="390"><path
           style="fill:#fd250f;fill-opacity:1;fill-rule:evenodd;stroke:none;stroke-width:5;stroke-linecap:round;stroke-dasharray:none;stroke-opacity:1"
           d="m 451.88971,338.45991 c 0,0 28.49162,-24.84439 6.86068,-81.41333 -10.91147,-28.53553 -46.65258,-52.5985 -46.65258,-52.5985 0,0 7.85546,17.24229 8.69018,23.78367 0.83472,6.54138 -1.37213,14.17872 -1.37213,14.17872 0,0 -44.33976,-79.11158 -143.15939,-71.351 -154.06837,12.09941 -144.07415,141.78726 -144.07415,141.78726 0,0 58.81031,-41.93636 120.29047,-29.27221 64.27728,13.24032 80.0412,55.34277 80.0412,55.34277 z"
           id="path18"
           color="mane-main" /><path
           d="m 422.42773,338.57227 c -3.51324,-21.76871 -19.92949,-69.48341 -95.45507,-95.36329 -40.40548,-13.84548 -97.67188,-4.20507 -97.67188,-4.20507 0,0 9.64815,-9.01325 24.58008,-14.87696 16.70054,-6.55823 43.66211,-7.76172 43.66211,-7.76172 0,0 -37.84975,-10.87546 -79.56055,-8.08593 -26.11321,1.74639 -44.36736,8.22105 -56.42773,14.65429 -33.17047,40.63748 -29.37305,89.91407 -29.37305,89.91407 0,0 58.81086,-41.93759 120.29102,-29.27344 64.27728,13.24032 80.04101,55.34375 80.04101,55.34375 z"
           style="fill:#f3fd0f;fill-opacity:1;fill-rule:evenodd;stroke:none;stroke-width:5;stroke-linecap:round"
           id="path21"
           color="mane-hl-1" /><path
           style="fill:none;fill-rule:evenodd;stroke:#000000;stroke-width:5;stroke-linecap:round;stroke-dasharray:none;stroke-opacity:1"
           d="m 451.88971,338.45991 c 0,0 28.49162,-24.84439 6.86068,-81.41333 -10.91147,-28.53553 -46.65258,-52.5985 -46.65258,-52.5985 0,0 7.85546,17.24229 8.69018,23.78367 0.83472,6.54138 -1.37213,14.17872 -1.37213,14.17872 0,0 -44.33976,-79.11158 -143.15939,-71.351 -154.06837,12.09941 -144.07415,141.78726 -144.07415,141.78726 0,0 58.81031,-41.93636 120.29047,-29.27221 64.27728,13.24032 80.0412,55.34277 80.0412,55.34277 z"
           id="path22"
           color="mane-contour" /></g></g><g
       id="layer6"
       style="display:inline"
       data-layer="900"><path
         style="fill:#fd120f;fill-opacity:1;fill-rule:evenodd;stroke:none;stroke-width:5;stroke-linecap:round;stroke-dasharray:none;stroke-opacity:1"
         d="m 361.10014,274.65565 c -12.11597,-6.05541 -18.79408,-8.73148 -30.18697,-9.60495 -21.20597,-1.62584 -29.32411,0.19715 -39.56322,4.34509 11.4649,2.4288 15.98404,0.4161 24.69842,4.3451 3.74038,1.6864 8.6902,6.86067 8.6902,6.86067 0,0 -48.69819,-1.56391 -52.8272,38.64846 -1.93568,18.8516 35.51304,15.55874 41.39273,22.18285 5.19882,5.85703 -24.24104,25.61318 -24.24104,25.61318 0,0 40.34151,-2.99028 44.82306,-20.81071 3.21829,-12.7972 -23.56121,-25.23953 -18.29513,-36.59026 8.53066,-18.38735 27.77681,-21.17351 45.50915,-34.98943 z"
         id="path28"
         color="mane-main" /><path
         style="fill:none;fill-opacity:1;fill-rule:evenodd;stroke:#000000;stroke-width:5;stroke-linecap:round;stroke-dasharray:none;stroke-opacity:1"
         d="m 361.10014,274.65565 c -12.11597,-6.05541 -18.79408,-8.73148 -30.18697,-9.60495 -21.20597,-1.62584 -29.32411,0.19715 -39.56322,4.34509 11.4649,2.4288 15.98404,0.4161 24.69842,4.3451 3.74038,1.6864 8.6902,6.86067 8.6902,6.86067 0,0 -48.69819,-1.56391 -52.8272,38.64846 -1.93568,18.8516 35.51304,15.55874 41.39273,22.18285 5.19882,5.85703 -24.24104,25.61318 -24.24104,25.61318 0,0 40.34151,-2.99028 44.82306,-20.81071 3.21829,-12.7972 -23.56121,-25.23953 -18.29513,-36.59026 8.53066,-18.38735 27.77681,-21.17351 45.50915,-34.98943 z"
         id="path29"
         color="mane-contour" /></g><g
       id="layer7"
       data-layer="1100"><g
         id="g33"
         style="display:inline"><path
           style="fill:#0ffd11;fill-opacity:1;fill-rule:evenodd;stroke:none;stroke-width:5;stroke-linecap:round;stroke-dasharray:none;stroke-opacity:1"
           d="m 416.39716,579.23674 c 0,0 5.5254,18.23442 13.74515,24.09444 11.33433,8.08046 43.33764,13.58344 43.33764,13.58344 0,0 -17.46613,-14.44909 -17.14101,-26.84347 0.70374,-26.82762 9.37904,-48.35058 9.37904,-48.35058 l -12.7749,-1.45537 z"
           id="path32"
           color="mane-main" /><path
           style="fill:none;fill-opacity:1;fill-rule:evenodd;stroke:#333333;stroke-width:5;stroke-linecap:round;stroke-dasharray:none;stroke-opacity:1"
           d="m 416.39716,579.23674 c 0,0 5.5254,18.23442 13.74515,24.09444 11.33433,8.08046 43.33764,13.58344 43.33764,13.58344 0,0 -17.46613,-14.44909 -17.14101,-26.84347 0.70374,-26.82762 9.37904,-48.35058 9.37904,-48.35058 l -12.7749,-1.45537 z"
           id="path33"
           color="mane-contour" /></g><g
         id="g30"
         style="display:inline"><path
           style="fill:#0ffd27;fill-opacity:1;fill-rule:evenodd;stroke:none;stroke-width:5;stroke-linecap:round;stroke-dasharray:none;stroke-opacity:1"
           d="m 429.70687,304.38523 c 0,0 48.38572,-10.89732 78.89775,15.77955 31.77163,27.77814 51.88501,81.87163 36.59026,121.20524 -16.77241,43.1337 -103.1388,41.16404 -103.1388,41.16404 0,0 17.53946,-37.07236 18.52383,-71.57969 1.61798,-56.71896 -30.87304,-106.56914 -30.87304,-106.56914 z"
           id="path30"
           color="mane-main" /><path
           d="m 445.92578,302.38086 c -9.72729,0.54205 -16.21875,2.00391 -16.21875,2.00391 0,0 3.28604,5.04331 7.7168,13.74609 13.9123,11.70398 40.53005,39.41616 53.19726,88.07812 4.88107,18.75097 3.10656,52.90574 1.70313,70.81055 10.14991,-2.41418 20.43217,-5.87665 29.35156,-10.83789 2.72539,-12.29383 4.59289,-27.90247 3.22656,-45.74219 -1.23722,-16.15397 -13.90625,-46.57226 -13.90625,-46.57226 l -6.79101,20.05273 c 0,0 -9.30829,-35.81829 -16.49414,-48.83594 -11.37701,-20.6102 -31.37436,-35.77077 -41.78516,-42.70312 z"
           style="fill:#e3fd0f;fill-opacity:1;fill-rule:evenodd;stroke:none;stroke-width:5;stroke-linecap:round;stroke-opacity:1"
           id="path40"
           color="mane-hl-1" /><path
           d="m 476.57812,480.0332 c 2.38334,-13.88255 4.27514,-34.69835 2.07618,-61.85742 -2.61707,-32.3231 -18.72301,-60.06526 -30.98828,-76.88867 7.19887,18.99201 13.65754,43.60491 12.91406,69.66797 -0.98437,34.50733 -18.52344,71.57812 -18.52344,71.57812 0,0 15.43431,0.3525 34.52148,-2.5 z"
           style="fill:#e3fd0f;fill-opacity:1;fill-rule:evenodd;stroke:none;stroke-width:5;stroke-linecap:round"
           id="path39"
           color="mane-hl-2" /><path
           style="fill:none;fill-opacity:1;fill-rule:evenodd;stroke:#000000;stroke-width:5;stroke-linecap:round;stroke-dasharray:none;stroke-opacity:1"
           d="m 429.70687,304.38523 c 0,0 48.38572,-10.89732 78.89775,15.77955 31.77163,27.77814 51.88501,81.87163 36.59026,121.20524 -16.77241,43.1337 -103.1388,41.16404 -103.1388,41.16404 0,0 17.53946,-37.07236 18.52383,-71.57969 1.61798,-56.71896 -30.87304,-106.56914 -30.87304,-106.56914 z"
           id="path41"
           color="mane-contour" /></g><g
         id="g31"
         style="display:inline"><path
           style="fill:#e3fd0f;fill-opacity:1;fill-rule:evenodd;stroke:none;stroke-width:5;stroke-linecap:round;stroke-dasharray:none;stroke-opacity:1"
           d="m 550.15906,403.34301 c -34.25025,42.89508 -82.16527,33.39272 -119.99482,82.16401 -35.69151,46.01486 -11.66313,99.93714 -11.66313,99.93714 0,0 1.94741,-18.97131 46.42389,-38.19108 25.92075,-11.20122 58.25259,-7.62403 70.43625,-42.0788 20.74876,-58.67644 14.79781,-101.83127 14.79781,-101.83127 z"
           id="path31"
           color="mane-main" /><path
           d="m 413.9668,571.32617 c 2.15074,8.76779 4.53515,14.11719 4.53515,14.11719 0,0 1.94735,-18.96968 46.42383,-38.18945 25.92075,-11.20122 58.25189,-7.62531 70.43555,-42.08008 2.84966,-8.0587 5.19605,-15.82501 7.12304,-23.22656 -10.60478,7.97255 -25.28531,18.49092 -35.69335,23.875 -11.30889,5.85008 -37.51563,13.25976 -37.51563,13.25976 l 9.05664,2.26367 c 0,0 -27.87956,12.365 -39.45703,21.99219 -7.70339,6.40571 -17.33363,18.09253 -24.9082,27.98828 z"
           style="fill:#0ffdf4;fill-opacity:1;fill-rule:evenodd;stroke:none;stroke-width:5;stroke-linecap:round"
           id="path36"
           color="mane-hl-2" /><path
           d="m 550.87891,414.07031 c -0.19375,-6.90944 -0.72071,-10.72656 -0.72071,-10.72656 -34.25025,42.89508 -82.16459,33.39277 -119.99414,82.16406 -16.90513,21.79474 -20.41299,45.36201 -19.42187,64.13477 10.07542,-16.27824 24.25619,-37.59067 35.89453,-48.9961 23.34118,-22.87405 60.12334,-33.2315 81.82422,-54.00976 9.28887,-8.89395 17.24086,-22.43239 22.41797,-32.56641 z"
           style="fill:#0ffdf4;fill-opacity:1;fill-rule:evenodd;stroke:none;stroke-width:5;stroke-linecap:round"
           id="path35"
           color="mane-hl-1" /><path
           style="fill:none;fill-opacity:1;fill-rule:evenodd;stroke:#616161;stroke-width:5;stroke-linecap:round;stroke-dasharray:none;stroke-opacity:1"
           d="m 550.15906,403.34301 c -34.25025,42.89508 -82.16527,33.39272 -119.99482,82.16401 -35.69151,46.01486 -11.66313,99.93714 -11.66313,99.93714 0,0 1.94741,-18.97131 46.42389,-38.19108 25.92075,-11.20122 58.25259,-7.62403 70.43625,-42.0788 20.74876,-58.67644 14.79781,-101.83127 14.79781,-101.83127 z"
           id="path37"
           color="mane-contour" /></g></g></g></svg>
