<?xml version="1.0" encoding="UTF-8" standalone="no"?>
<!-- Created with Inkscape (http://www.inkscape.org/) -->

<svg
   width="1000"
   height="1000"
   viewBox="0 0 1000 1000"
   version="1.1"
   id="svg1"
   xml:space="preserve"
   xmlns="http://www.w3.org/2000/svg"
   xmlns:svg="http://www.w3.org/2000/svg"><defs
     id="defs1" /><g
     id="g18"
     style="display:inline"
     data-layer="200"><path
       style="display:inline;opacity:1;fill:#328f3e;fill-opacity:1;stroke:none;stroke-width:5;stroke-dasharray:none;stroke-opacity:1"
       d="m 295.46984,309.86177 c -10.36992,-12.7472 -22.65242,-22.24948 -29.921,-41.52361 -6.79793,-18.02608 -10.07331,-41.57998 7.76963,-68.03618 1.26535,-1.87617 34.80516,-15.5662 63.06834,-5.57719 15.40224,-9.99098 40.77277,-16.91405 57.31019,-21.06396 36.10921,2.67297 65.66094,15.40075 87.81713,39.46837 31.16234,39.99726 39.85654,76.08702 50.32217,112.48486 7.97588,46.60035 5.74268,80.30502 -3.94684,104.59118 -11.84051,28.28635 -23.68102,50.90244 -35.52153,67.09624 -22.93398,33.07979 -17.41206,31.23643 -21.70761,41.44178 5.0981,-4.11224 9.82965,-4.92548 15.78735,-16.77405 4.68993,5.83905 7.52903,12.46987 7.66453,16.54491 0.35287,10.61172 -3.508,13.90002 -6.67782,18.97662 3.5447,5.82283 4.07191,12.73359 2.96013,18.74748 -4.22022,22.82828 -10.33149,25.76701 -21.7076,30.58798 -13.27126,5.62409 -39.33218,0.20873 -52.2956,-14.80063 -14.17908,-16.41688 -19.67631,-39.24002 -16.77405,-64.13611 2.84818,-24.43225 12.16958,-46.2836 26.64115,-76.96332 l 24.66773,-52.29559 c 11.70359,-24.81161 10.86887,-67.18734 -28.03657,-97.38495 -41.00194,-31.82487 -88.32662,-18.40526 -127.41973,8.61617 z"
       id="path52"
       color="mane-main" /><path
       style="display:inline;opacity:1;fill:none;fill-opacity:1;stroke:#1d7fbf;stroke-width:5;stroke-dasharray:none;stroke-opacity:1"
       d="m 295.50447,308.97982 c -17.18348,-16.46977 -37.86102,-39.15304 -34.56137,-77.34049 2.72301,-21.22701 11.37616,-41.03597 46.95085,-42.27124 19.9075,-0.69125 38.90791,8.88506 59.83366,14.6023 13.33508,3.64336 28.15189,-2.43365 39.73434,2.55142 25.45098,10.95406 31.06284,36.59981 33.49002,60.00296 2.88798,27.8462 -5.68241,41.66104 -9.76792,60.00296 -0.28164,7.90737 0.72036,13.84131 4.2709,21.74868 9.8584,-4.09036 19.45152,-30.12055 18.05578,-32.91202 0,0 9.57857,9.26272 11.30886,14.06717 6.07404,16.86561 -1.54093,29.19077 -1.54093,29.19077 4.28289,8.12807 6.0557,16.24266 1.83822,23.24086 -9.02021,14.96752 -6.08934,13.66512 -22.76949,24.20334 -17.80012,5.25251 -40.30034,7.89338 -60.00296,-13.95417 -11.30867,-12.53979 -14.92446,-23.58707 -20.93126,-57.21213 -4.10564,-18.58078 -65.9087,-25.92041 -65.9087,-25.92041 z"
       id="path66"
       color="mane-contour" /></g><g
     id="layer5"
     style="display:inline"
     data-layer="1100"><path
       style="display:inline;opacity:1;fill:#328f3e;fill-opacity:1;stroke:none;stroke-width:5;stroke-dasharray:none;stroke-opacity:1"
       d="m 336.38681,194.72479 c 15.40224,-9.99098 40.77277,-16.91405 57.31019,-21.06396 36.10921,2.67297 65.66094,15.40075 87.81713,39.46837 31.16234,39.99726 39.85654,76.08702 50.32217,112.48486 7.97588,46.60035 5.74268,80.30502 -3.94684,104.59118 -11.84051,28.28635 -23.68102,50.90244 -35.52153,67.09624 -22.93398,33.07979 -17.41206,31.23643 -21.70761,41.44178 5.0981,-4.11224 9.82965,-4.92548 15.78735,-16.77405 4.68993,5.83905 7.52903,12.46987 7.66453,16.54491 0.35287,10.61172 -3.508,13.90002 -6.67782,18.97662 3.5447,5.82283 4.07191,12.73359 2.96013,18.74748 -4.22022,22.82828 -10.33149,25.76701 -21.7076,30.58798 -13.27126,5.62409 -39.33218,0.20873 -52.2956,-14.80063 -14.17908,-16.41688 -19.67631,-39.24002 -16.77405,-64.13611 2.84818,-24.43225 12.16958,-46.2836 26.64115,-76.96332 l 24.66773,-52.29559 c 11.70359,-24.81161 10.86887,-67.18734 -28.03657,-97.38495 -18.71292,-14.52458 -38.74281,-19.62507 -58.70611,-18.30951 -0.69882,0.0461 -1.39756,0.1 -2.09615,0.16162 -19.30469,-57.51225 -15.20399,-53.30738 -25.7005,-88.37292 z"
       id="path18"
       color="mane-main" /><path
       style="display:inline;fill:#8640b4;fill-opacity:1;stroke:none;stroke-width:5"
       d="m 423.2983,458.81983 -17.26742,36.50825 8.38703,57.22914 34.04148,27.62786 c 22.71049,-2.2181 29.05438,-7.06453 40.94843,-24.66773 l 5.4269,-19.73419 -8.88038,-12.33387 c -12.36446,13.19182 -23.20495,30.06657 -50.81553,6.41361 -13.14354,-12.64497 -11.25059,-43.33375 -11.84051,-71.04307 z"
       id="path55"
       color="mane-hl-1" /><path
       style="display:inline;fill:#8640b4;fill-opacity:1;stroke:none;stroke-width:5"
       d="m 524.92936,304.89318 c 0.19789,35.81326 -6.78855,54.20367 -15.294,73.01649 -22.09483,48.87057 -39.08084,63.96915 -60.18927,89.79055 -11.13825,13.62514 -21.47202,24.02548 -26.14779,35.02818 l 8.38703,25.16109 87.81713,-127.28551 13.81393,-70.54971 z"
       id="path60"
       color="mane-hl-1" /><path
       style="display:inline;fill:#2cd5b5;fill-opacity:1;stroke:none;stroke-width:5"
       d="m 529.8629,318.21376 c -2.15568,31.05463 -8.35098,56.19335 -18.25412,75.48326 -19.55189,38.08431 -38.9527,66.90201 -58.21585,96.20416 -9.0196,13.72017 -17.04039,27.44776 -20.72089,39.96172 l 20.72089,11.34716 c -4.42305,-3.30057 -3.77713,-20.68349 9.37374,-44.89527 15.21476,-28.01155 39.53815,-47.70533 53.77566,-79.4301 8.30106,-18.49687 15.92177,-39.59563 19.73418,-65.61617 z"
       id="path54"
       color="mane-hl-2" /><path
       style="display:inline;fill:#2cd5b5;fill-opacity:1;stroke:none;stroke-width:5"
       d="m 408.0043,492.36795 c 3.22195,29.75802 9.74515,58.81274 21.70761,70.54972 23.63704,23.19151 41.67156,6.9241 58.21585,-5.92025 l 1.97342,11.8405 c -9.28867,10.28673 -18.45917,20.6157 -28.61458,22.20096 -14.71049,2.29632 -43.00235,-1.03104 -54.76236,-36.50824 -3.14692,-9.49352 -4.46486,-22.64498 -6.41361,-34.53483 z"
       id="path53"
       color="mane-hl-2" /><path
       style="display:inline;fill:none;stroke:#1d7fbf;stroke-width:5;stroke-linecap:round;stroke-opacity:1"
       d="m 511.65511,264.53436 c 4.13218,25.68227 3.87937,49.61988 -5.11848,72.45902 -11.56724,29.361 -23.78474,48.69775 -38.37399,64.18921 -18.93046,20.10113 -23.34939,21.66349 -28.60606,27.90835 -14.44913,17.1654 -16.56824,32.11411 -16.74502,49.18848 -0.1975,19.07667 1.53158,31.68892 6.62823,43.25795 6.46131,14.66668 15.32533,18.22175 20.93127,19.53585 8.42527,1.97498 17.15624,-0.14324 21.97783,-3.13969"
       id="path57"
       color="mane-contour" /><path
       style="display:inline;opacity:1;fill:none;fill-opacity:1;stroke:#1d7fbf;stroke-width:5;stroke-dasharray:none;stroke-opacity:1"
       d="m 354.16848,282.96375 c -6.70167,-26.57851 -7.19713,-49.845 -34.06359,-73.56553 32.09276,-29.47602 50.66223,-32.77309 76.34114,-34.28202 36.14566,-2.12397 62.91191,13.94538 85.0681,38.013 31.16234,39.99726 39.85654,76.08702 50.32217,112.48486 7.97588,46.60035 5.74268,80.30502 -3.94684,104.59118 -11.84051,28.28635 -23.68102,50.90244 -35.52153,67.09624 -22.93398,33.07979 -17.41206,31.23643 -21.70761,41.44178 5.0981,-4.11224 9.82965,-4.92548 15.78735,-16.77405 4.68993,5.83905 7.52903,12.46987 7.66453,16.54491 0.35287,10.61172 -3.508,13.90002 -6.67782,18.97662 3.5447,5.82283 4.07191,12.73359 2.96013,18.74748 -4.22022,22.82828 -10.33149,25.76701 -21.7076,30.58798 -13.27126,5.62409 -39.33218,0.20873 -52.2956,-14.80063 -14.17908,-16.41688 -19.67631,-39.24002 -16.77405,-64.13611 2.84818,-24.43225 12.16958,-46.2836 26.64115,-76.96332 l 24.66773,-52.29559 c 11.70359,-24.81161 10.86887,-67.18734 -28.03657,-97.38495 -41.00194,-31.82487 -31.10804,-30.99599 -68.72109,-18.28185 z"
       id="path56"
       color="mane-contour" /><path
       style="display:inline;fill:none;stroke:#1d7fbf;stroke-width:3;stroke-dasharray:none;stroke-opacity:1"
       d="m 450.71992,397.69405 c 9.65349,-10.74949 25.87744,-23.6626 32.44346,-38.72285 8.18379,-18.77084 17.62982,-52.2545 3.8374,-88.95787 -15.53466,-38.96914 -52.6388,-41.38671 -76.05026,-38.72284 -18.37329,2.09061 -36.07439,12.36468 -46.74649,31.74575 -4.82076,8.75475 -6.02428,14.49431 -6.27939,19.53585"
       id="path58"
       color="mane-contour" /></g><g
     id="layer6"
     style="display:inline"
     data-layer="1300"><path
       style="display:inline;opacity:1;fill:#85d52c;fill-opacity:1;stroke:none;stroke-width:5;stroke-dasharray:none;stroke-opacity:1"
       d="m 307.89395,189.36809 c 19.9075,-0.69125 38.90791,8.88506 59.83366,14.6023 13.33508,3.64336 28.15189,-2.43365 39.73434,2.55142 25.45098,10.95406 31.06284,36.59981 33.49002,60.00296 2.88798,27.8462 -5.68241,41.66104 -9.76792,60.00296 -0.28164,7.90737 0.72036,13.84131 4.2709,21.74868 9.8584,-4.09036 19.45152,-30.12055 18.05578,-32.91202 0,0 9.57857,9.26272 11.30886,14.06717 6.07404,16.86561 -1.54093,29.19077 -1.54093,29.19077 4.28289,8.12807 6.0557,16.24266 1.83822,23.24086 -9.02021,14.96752 -6.08934,13.66512 -22.76949,24.20334 -17.80012,5.25251 -40.30034,7.89338 -60.00296,-13.95417 -11.30867,-12.53979 -14.92446,-23.58707 -20.93126,-57.21213 -4.10564,-18.58078 -10.17555,-40.59903 -19.53585,-68.37546 -7.66826,-12.57182 0.11339,4.1116 -9.48494,-16.40643 -8.19319,-17.51429 -25.31676,-57.35507 -48.62732,-56.29052 11.62229,-2.44773 -10.56064,-3.2552 24.12889,-4.45973 z"
       id="path61"
       color="mane-main" /><path
       style="display:inline;fill:#8640b4;fill-opacity:1;stroke:none;stroke-width:5"
       d="m 359.16219,323.64066 5.92025,31.5747 31.08135,23.68102 50.81553,-10.8538 19.73419,-31.5747 c -2.82773,-9.2936 -6.87523,-15.53779 -12.33387,-18.25412 -17.71405,42.47833 -31.32791,35.54678 -44.89527,39.46837 -11.89765,3.43897 -31.45377,-16.41126 -50.32218,-34.04147 z"
       id="path65"
       color="mane-hl-1" /><path
       style="display:inline;fill:#8640b4;fill-opacity:1;stroke:none;stroke-width:5"
       d="m 333.50775,193.39503 c 15.21384,18.4674 29.27881,37.3904 31.08134,49.33546 4.49662,29.79835 0.55899,42.05755 -0.49335,62.16269 -0.79335,15.1571 2.47054,20.38447 4.93355,28.12122 l 22.20095,19.73418 2.46678,-30.58799 13.32057,-77.95003 -24.17437,-39.46838 c -14.50598,3.00473 -32.37976,-5.77784 -49.33547,-11.34715 z"
       id="path64"
       color="mane-hl-1" /><path
       style="display:inline;fill:#d5932c;fill-opacity:1;stroke:none;stroke-width:5"
       d="m 362.12232,344.36155 c 14.20686,13.53597 27.02555,31.78433 56.24243,28.12122 30.00371,-3.76176 38.55497,-25.77085 47.36205,-40.45508 l 0.49335,14.80063 c -7.73634,18.13219 -20.872,41.77894 -49.82882,41.93515 -12.34202,0.0666 -26.88357,-2.78717 -48.34875,-20.22754 z"
       id="path62"
       color="mane-hl-2" /><path
       style="display:inline;fill:#d59b2c;fill-opacity:1;stroke:none;stroke-width:5"
       d="m 371.98941,203.75547 c 17.68489,17.27547 24.45903,33.02488 25.65445,49.33547 1.64749,22.47876 -11.28531,44.79041 -15.294,67.58959 -1.8246,10.37731 1.98537,21.0498 9.37374,31.5747 l 19.73419,6.41361 c -8.63032,-11.81197 -11.72326,-20.95465 -9.8671,-30.09464 5.04331,-24.83397 24.10235,-43.80999 19.73419,-75.97661 -2.29623,-16.90918 -9.91182,-31.62808 -24.66773,-48.84212 z"
       id="path63"
       color="mane-hl-2" /><path
       style="display:inline;fill:none;stroke:#1d7fbf;stroke-width:5;stroke-dasharray:none;stroke-opacity:1"
       d="m 443.03249,340.90807 c -6.25073,8.28327 -13.44294,16.38557 -30.09464,17.76077 -9.24931,0.76387 -19.40337,-3.75867 -34.53483,-15.78735 -8.00092,-6.3603 -18.1299,-19.03615 -22.69431,-31.08134"
       id="path59"
       color="mane-contour" /><path
       style="display:inline;opacity:1;fill:none;fill-opacity:1;stroke:#1d7fbf;stroke-width:5;stroke-linecap:round;stroke-dasharray:none;stroke-opacity:1"
       d="m 285.69299,193.31493 c 24.34769,-12.53176 61.10887,4.93822 82.03462,10.65546 13.33508,3.64336 28.15189,-2.43365 39.73434,2.55142 25.45098,10.95406 31.06284,36.59981 33.49002,60.00296 2.88798,27.8462 -6.68394,41.46633 -9.76792,60.00296 -1.29855,7.8051 2.20684,12.81221 5.75738,20.71958 8.48626,-5.4625 17.16463,-27.03325 18.39881,-30.85382 0,0 7.74906,8.23362 9.47935,13.03807 6.07404,16.86561 -1.54093,29.19077 -1.54093,29.19077 9.09533,17.26112 1.11315,36.21669 -20.93127,46.31225 -16.87361,7.72751 -40.30034,9.02533 -60.00296,-12.82222 -11.30867,-12.53979 -14.43561,-23.67808 -20.93126,-57.21213 -3.61871,-18.68172 -9.61536,-40.79414 -19.53585,-68.37546 -4.59845,-12.78477 -8.80665,-17.24976 -13.47483,-24.05241"
       id="path51"
       color="mane-contour" /></g></svg>
