<?xml version="1.0" encoding="UTF-8" standalone="no"?>
<!-- Created with Inkscape (http://www.inkscape.org/) -->

<svg
   width="1000"
   height="1000"
   viewBox="0 0 1000 1000"
   version="1.1"
   id="svg1"
   xml:space="preserve"
   xmlns="http://www.w3.org/2000/svg"
   xmlns:svg="http://www.w3.org/2000/svg"><defs
     id="defs1" /><g
     id="g38"
     style="display:inline"
     data-layer="1100"><path
       style="display:inline;opacity:1;fill:#5dd0fc;fill-opacity:1;stroke:none;stroke-width:5;stroke-dasharray:none;stroke-opacity:1"
       d="m 460.19882,394.54407 c -13.79588,43.53028 -18.92048,52.96357 -27.61935,77.8048 -10.08772,30.89415 -8.83298,64.0706 -0.45829,86.2269 11.42963,12.16958 17.85931,17.82314 34.64602,19.12713 19.49223,-6.99162 27.92983,-16.04014 30.69919,-28.60606 -16.77204,7.21119 -26.90052,11.562 -32.0946,-3.48854 -4.20546,-24.20645 7.29658,-40.60507 23.72209,-69.07318 18.80694,-38.11021 19.07731,-44.49752 19.53585,-71.1663 -0.71775,-22.2764 -17.79696,-60.46887 -33.83888,-83.3762 l -24.24538,20.40798 13.4309,24.59424 c 1.59948,6.3664 -1.51138,19.89427 -3.77755,27.54923 z"
       id="path38"
       color="mane-main" /><path
       style="display:inline;fill:#bfedff;fill-opacity:1;stroke:none;stroke-width:5;stroke-dasharray:none;stroke-opacity:1"
       d="m 486.201,340.41469 c 2.98109,26.5249 0.37601,69.15979 -7.15365,81.40353 -7.31498,14.47174 -27.77826,37.82385 -35.52153,56.73578 -9.97862,19.40528 -14.27113,39.30392 -15.294,61.66933 2.2096,17.84819 8.01566,25.12328 24.66774,35.02818 l 20.72089,0.98671 c -8.75338,-4.35282 -16.31669,-11.48245 -17.26741,-34.04147 -0.89202,-35.34987 17.43153,-61.94433 23.18767,-68.5763 10.22068,-13.23218 21.66871,-24.43078 29.60128,-44.89527 1.02664,-23.91155 0.73484,-41.63383 -8.88038,-59.20256 z"
       id="path39"
       color="mane-hl-1" /><path
       style="display:inline;fill:none;fill-opacity:1;stroke:#1d7fbf;stroke-width:5;stroke-dasharray:none;stroke-opacity:1"
       d="m 460.19882,394.54407 c -13.67215,43.5693 -19.21237,52.86327 -27.61935,77.8048 -10.38066,30.79696 -10.47512,72.78837 -0.45829,86.2269 9.02414,12.10673 22.19817,17.72312 34.29717,16.68515 20.63241,-1.77004 28.27868,-13.59816 31.04804,-26.16408 -16.77204,7.21119 -28.38719,11.9954 -32.0946,-3.48854 -5.72101,-23.89368 8.34917,-40.02316 23.72209,-69.07318 19.87778,-37.56279 19.26094,-44.495 19.53585,-71.1663 0.33051,-32.0654 -17.09014,-59.4531 -33.31559,-85.2949 l -25.6408,23.54767 c 4.76768,4.99394 10.74671,12.3312 14.30303,23.37325 2.51582,7.81138 -1.38728,19.93211 -3.77755,27.54923 z"
       id="path37"
       color="mane-contour" /></g><g
     id="g41"
     style="display:inline"
     data-layer="390"><path
       style="opacity:1;fill:#5dd0fc;fill-opacity:1;stroke:none;stroke-width:5;stroke-dasharray:none;stroke-opacity:1"
       d="m 297.22396,308.3873 c -14.59045,-11.67236 -37.18773,-8.32049 -55.81671,34.88543 -9.48877,22.00716 -7.72333,51.91401 -3.48854,101.16779 1.21541,14.13618 -3.79736,27.04427 -15.3496,27.21064 -27.12136,0.39058 -22.19715,-40.0172 -18.83813,-48.14191 2.59608,7.91756 4.55893,29.88318 16.74501,27.90836 4.97393,-0.80605 10.14834,-6.82093 5.58167,-30.69919 -4.56909,-23.8909 -12.26002,-50.598 -16.74501,-90.70215 -3.05205,-38.97057 4.12823,-74.70988 36.28085,-102.56319 37.79615,-31.17099 102.41797,-17.85453 127.68072,-4.18626 38.01815,20.56951 59.35969,39.1143 79.53881,61.74723 14.77231,16.56865 19.69607,29.75905 28.503,46.38829 l -29.97479,13.75893 -22.59917,-25.95949 c -46.02416,-22.14372 -82.76898,-32.91394 -124.54102,-5.23281 z"
       id="path40"
       color="mane-main" /><path
       style="display:inline;fill:#ccf1ff;fill-opacity:1;stroke:none;stroke-width:5;stroke-dasharray:none;stroke-opacity:1"
       d="m 396.29861,305.59646 c -13.68438,-21.00484 -28.26759,-49.37598 -64.88692,-56.51441 -48.87536,-9.52758 -77.05364,14.18469 -93.49298,34.18773 -18.77437,22.84425 -20.60528,34.28713 -28.60606,46.74649 1.2362,-25.03181 -3.08561,-48.54779 17.44272,-78.84109 19.37031,-34.41155 46.80745,-39.78252 75.35255,-41.16483 31.43043,1.99793 53.47815,11.65012 71.1663,25.81523 32.24391,25.82174 36.52325,50.00387 42.56024,73.25943 z"
       id="path42"
       color="mane-hl-2" /><path
       style="display:inline;fill:#ccf1ff;fill-opacity:1;stroke:none;stroke-width:5;stroke-dasharray:none;stroke-opacity:1"
       d="m 344.66816,298.61938 c -10.04722,-11.89801 -19.30265,-25.31528 -38.37399,-25.81523 -19.98921,-0.52401 -40.19728,1.97872 -60.70067,27.90836 -12.0427,15.22983 -18.25574,39.07111 -18.14043,62.09608 0.16706,33.35866 5.80196,61.96095 10.46564,86.51589 0.49357,-37.11364 -11.70072,-82.61408 5.58167,-112.33112 8.42488,-14.48656 21.31622,-32.50658 32.79231,-34.88544 8.05527,-1.66976 21.00505,4.28249 27.21065,11.86105 z"
       id="path43"
       color="mane-hl-1" /><path
       id="path41"
       style="display:inline;fill:none;fill-opacity:1;stroke:#1d7fbf;stroke-width:5;stroke-dasharray:none;stroke-opacity:1"
       d="m 314.13477,208.54492 c -24.03782,-1.14127 -49.88494,3.03383 -68.54102,18.9082 -32.3981,27.56739 -39.3333,63.59193 -36.28125,102.5625 4.48499,40.10415 12.177,66.81223 16.74609,90.70313 4.56667,23.87826 -0.6081,29.89317 -5.58203,30.69922 -12.18608,1.97482 -14.15001,-19.99064 -16.74609,-27.9082 -3.35902,8.12471 -8.28347,48.5312 18.83789,48.14062 11.55224,-0.16637 16.56502,-13.0728 15.34961,-27.20898 -4.23479,-49.25378 -5.99854,-79.16081 3.49023,-101.16797 18.62898,-43.20592 41.22596,-46.55908 55.81641,-34.88672 l 6.97656,5.58203 c 41.77204,-27.68113 96.92842,-14.13261 120.70313,3.14063 10.20109,7.41148 17.28477,17.57009 27.14062,28.46289 9.82472,-5.28328 17.84264,-11.64188 28.86914,-14.83204 -7.43103,-10.1905 -4.05678,-19.4646 -30.19336,-48.16796 -20.41525,-22.42016 -39.42911,-38.73518 -77.44726,-59.30469 -12.63138,-6.83414 -35.10086,-13.58138 -59.13867,-14.72266 z"
       color="mane-contour" /></g></svg>
