<?xml version="1.0" encoding="UTF-8" standalone="no"?>
<!-- Created with Inkscape (http://www.inkscape.org/) -->

<svg
   width="1000"
   height="1000"
   viewBox="0 0 1000 1000"
   version="1.1"
   id="svg1"
   xml:space="preserve"
   xmlns="http://www.w3.org/2000/svg"
   xmlns:svg="http://www.w3.org/2000/svg"><defs
     id="defs1" /><g
     id="g91"
     style="display:inline"
     data-layer="200"><path
       style="display:inline;fill:#4bc7e1;fill-opacity:1;stroke:none;stroke-width:5;stroke-dasharray:none;stroke-opacity:1"
       d="m 315.91801,304.24278 c 0.94531,-39.37529 -2.03508,-89.85593 19.91657,-118.12587 39.34243,-50.66627 113.12419,-47.6265 164.82678,-31.5918 -56.59842,13.71946 -80.3959,37.27921 -100.9564,61.81005 8.68501,-5.55224 30.32724,-24.80535 75.54561,-26.09758 30.36601,-0.86779 48.88503,10.23668 68.67783,19.22979 l -52.88193,28.84469 c 14.26495,-7.20799 29.32329,-14.23968 59.74971,-17.85623 28.88533,40.25147 28.18795,69.48983 24.72402,98.89607 -7.16949,60.86373 -28.83027,70.35242 -45.32737,94.08862 -26.07448,-0.6683 -47.63967,2.27083 -64.55716,8.92812 20.63367,-0.21168 35.88725,1.59417 41.89348,6.86778 -8.54657,20.04376 -21.84089,28.83974 -36.39925,35.0257 -13.36465,5.67875 -24.8288,5.59901 -37.08603,8.24134 l 4.12067,-115.37876 -61.12327,-70.05138 z"
       id="path85"
       color="mane-main" /><path
       d="m 436.16211,144.11523 c -37.69628,-0.35218 -75.73911,10.33554 -100.32813,42.00196 -21.95165,28.26994 -18.9707,78.74971 -19.91601,118.125 l 21.52344,-6.04492 c 0.20411,-30.23309 -7.9593,-67.40104 15.07812,-98.74805 32.07056,-43.63839 88.45549,-42.48805 130.69531,-39.9043 5.58919,-1.86683 11.40979,-3.55604 17.44727,-5.01953 -19.38847,-6.01301 -41.88223,-10.19884 -64.5,-10.41016 z"
       style="display:inline;fill:#44df3f;fill-opacity:1;stroke:none;stroke-width:5"
       id="path22"
       color="mane-hl-1" /><path
       d="m 573.39844,333.07227 c -20.75751,-4.84964 -43.1242,-10.26799 -72.73633,-6.16602 -29.10279,4.03142 -46.96833,15.59129 -67.25,24.77148 l 4.75195,5.44727 -1.00781,28.22656 c 22.78113,-13.41189 45.88795,-29.40125 68.3125,-33.7207 23.71045,-4.56714 43.0478,-3.47019 62.49609,2.06055 l 5.25196,-19.69532 c 0.0608,-0.30705 0.12206,-0.61488 0.18164,-0.92382 z"
       style="display:inline;fill:#44df3f;fill-opacity:1;stroke:none;stroke-width:5"
       id="path21"
       color="mane-hl-1" /><path
       d="m 495.83984,447.77539 c -10.0335,-2.9907 -17.5047,-5.81839 -34.32422,-6.86328 -10.18846,-0.63294 -18.2249,1.44106 -26.5039,4.45117 l -0.96875,27.14063 c 12.25723,-2.64233 23.72324,-2.56344 37.08789,-8.24219 8.99277,-3.8211 17.50191,-8.63764 24.70898,-16.48633 z"
       style="display:inline;fill:#44df3f;fill-opacity:1;stroke:none;stroke-width:5"
       id="path20"
       color="mane-hl-2" /><path
       style="fill:none;fill-opacity:1;stroke:#1d7fbf;stroke-width:4;stroke-dasharray:none;stroke-opacity:1"
       d="m 484.3813,159.61603 c -42.36298,-2.63063 -99.4946,-4.20838 -131.86143,39.83314 -23.60164,32.11474 -14.45581,70.3387 -15.10912,100.95641"
       id="path87"
       color="mane-contour" /><path
       style="fill:none;fill-opacity:1;stroke:#1d7fbf;stroke-width:4;stroke-dasharray:none;stroke-opacity:1"
       d="m 388.02973,301.49566 c 14.39252,-24.65268 26.86745,-48.41412 50.13481,-72.79849 13.9836,-14.65492 34.41139,-27.20597 57.68938,-37.77281 l 33.65213,11.67523 c -21.47835,10.59503 -37.65336,12.21114 -70.05138,43.95381 -28.74671,28.16522 -37.95486,49.43632 -54.25549,73.48528"
       id="path88"
       color="mane-contour" /><path
       style="fill:none;fill-opacity:1;stroke:#1d7fbf;stroke-width:4;stroke-dasharray:none;stroke-opacity:1"
       d="m 431.98354,352.31726 c 20.87949,-9.27551 38.89418,-21.28507 68.67782,-25.4108 29.64156,-4.10605 52.02356,1.32769 72.7985,6.181 l -5.49422,20.60335 c -19.44829,-5.53074 -38.78638,-6.62747 -62.49683,-2.06033 -22.76988,4.38597 -46.24307,20.80453 -69.3646,34.33891"
       id="path89"
       color="mane-contour" /><path
       style="fill:none;fill-opacity:1;stroke:#1d7fbf;stroke-width:4;stroke-dasharray:none;stroke-opacity:1"
       d="m 418.93475,335.1478 c 19.23809,-15.6804 33.00344,-32.24772 65.93071,-46.01415 37.76501,-15.78902 63.31037,-12.55214 90.65474,-12.362"
       id="path90"
       color="mane-contour" /><path
       style="fill:none;fill-opacity:1;stroke:#1d7fbf;stroke-width:4;stroke-dasharray:none;stroke-opacity:1"
       d="m 434.04387,445.7191 c 8.62452,-3.20005 16.88626,-5.46502 27.47113,-4.80745 16.82717,1.04537 24.29851,3.87558 34.33892,6.86779"
       id="path91"
       color="mane-contour" /><path
       style="display:inline;fill:none;fill-opacity:1;stroke:#1d7fbf;stroke-width:5;stroke-dasharray:none;stroke-opacity:1"
       d="m 315.91801,304.24278 c 0.94531,-39.37529 -2.03508,-89.85593 19.91657,-118.12587 39.34243,-50.66627 113.12419,-47.6265 164.82678,-31.5918 -56.59842,13.71946 -94.11725,47.22719 -100.9564,61.81005 8.68501,-5.55224 30.32724,-24.80535 75.54561,-26.09758 30.36601,-0.86779 48.88503,10.23668 68.67783,19.22979 0,0 -40.28997,16.26893 -52.88193,28.84469 3.41628,-0.57386 30.80977,-13.09623 59.74971,-17.85623 28.88533,40.25147 28.18795,69.48983 24.72402,98.89607 -7.16949,60.86373 -39.50297,90.24246 -45.32737,94.08862 -26.07448,-0.6683 -47.63967,2.27083 -64.55716,8.92812 9.63755,1.4054 35.88725,1.59417 41.89348,6.86778 -8.54657,20.04376 -21.84089,28.83974 -36.39925,35.0257 -13.36465,5.67875 -24.8288,5.59901 -37.08603,8.24134 l 4.12067,-115.37876 -61.12327,-70.05138 z"
       id="path86"
       color="mane-contour" /></g></svg>
