<?xml version="1.0" encoding="UTF-8" standalone="no"?>
<!-- Created with Inkscape (http://www.inkscape.org/) -->

<svg
   width="1000"
   height="1000"
   viewBox="0 0 1000 1000"
   version="1.1"
   id="svg1"
   xml:space="preserve"
   xmlns="http://www.w3.org/2000/svg"
   xmlns:svg="http://www.w3.org/2000/svg"><defs
     id="defs1" /><g
     id="g19"
     style="display:inline"
     data-layer="200"><path
       style="display:inline;fill:#4bc7e1;fill-opacity:1;stroke:none;stroke-width:5;stroke-dasharray:none;stroke-opacity:1"
       d="m 241.84154,332.16789 -65.07383,20.39628 c 7.92666,-26.31986 10.65524,-47.6815 44.1995,-77.68496 31.11192,-27.82787 77.78956,-47.34689 155.87824,-22.35391 l -45.64881,-30.10879 c 62.80665,-7.03286 125.26234,3.22345 139.86017,49.53381 l 28.16628,89.35511 -52.44756,58.27507 -34.96504,-97.12512 C 398.31508,303.7598 358.83165,290.43812 319.54163,300.11661 Z"
       id="path94"
       color="mane-main" /><path
       style="display:inline;fill:none;fill-opacity:1;stroke:#1d7fbf;stroke-width:5;stroke-dasharray:none;stroke-opacity:1"
       d="m 241.84154,332.16789 -65.07383,20.39628 c 7.92666,-26.31986 20.69741,-59.99925 56.37797,-87.42774 38.242,-29.39753 77.01348,-32.18435 143.69977,-12.61113 -6.89444,-7.52644 -45.64881,-30.10879 -45.64881,-30.10879 62.80665,-7.03286 125.26234,3.22345 139.86017,49.53381 l 28.16628,89.35511 -52.44756,58.27507 -34.96504,-97.12512 C 398.31508,303.7598 358.83165,290.43812 319.54163,300.11661 Z"
       id="path99"
       color="mane-contour" /></g><g
     id="g20"
     style="display:inline"
     data-layer="1100"><path
       style="display:inline;fill:#4bc7e1;fill-opacity:1;stroke:none;stroke-width:5;stroke-dasharray:none;stroke-opacity:1"
       d="m 458.43326,387.35972 c -1.52796,29.70327 -47.65777,55.72874 -74.78905,68.15707 10.80282,3.76663 24.34746,2.28079 37.87879,-5.82751 -21.31502,20.18753 -31.05578,45.76969 -33.02254,73.81509 -2.05667,29.32754 18.33198,52.16441 32.05129,76.72884 -2.31908,-14.59518 -6.59501,-30.16878 0.97125,-39.82129 29.10541,33.54156 48.01347,26.29369 67.01633,19.42502 -15.07748,-8.94938 -22.4155,-15.96389 -27.19503,-22.33878 26.1793,3.50194 41.75876,-7.12923 52.44756,-24.28128 -16.57532,-2.4712 -43.44168,4.52379 -56.33257,-44.67755 -5.33853,-20.37585 0.7683,-32.07489 27.19504,-73.81509 9.20998,-14.54687 18.55089,-27.81097 17.48252,-70.90133 -0.62846,-25.3474 -8.9248,-49.60392 -28.16629,-67.01633 l -13.59751,72.84384 z"
       id="path100"
       color="mane-main" /><path
       style="display:inline;fill:#4be160;fill-opacity:1;stroke:none;stroke-width:5;stroke-dasharray:none;stroke-opacity:1"
       d="m 478.82682,425.89363 c -19.27537,15.76302 -40.45225,19.81181 -60.7032,61.67445 -13.03753,26.95109 -9.98351,54.52975 3.39938,74.30071 8.97416,13.2578 21.36953,20.93776 33.02254,22.82441 14.07484,2.27875 24.53521,0.0529 34.47942,-5.34189 L 460.37305,558.95504 C 442.17893,545.1141 436.62459,520.9997 437.06302,505.0506 c 0.78473,-28.54652 15.30417,-37.67516 25.25253,-51.47631 z"
       id="path102"
       color="mane-hl-2" /><path
       style="display:inline;fill:none;fill-opacity:1;stroke:#1d7fbf;stroke-width:4;stroke-dasharray:none;stroke-opacity:1"
       d="m 477.376,426.86488 c -19.27537,15.76302 -39.00143,18.84056 -59.25238,60.7032 -13.03753,26.95109 -8.52663,53.5585 4.85626,73.32946 8.97416,13.2578 19.91265,21.90901 31.56566,23.79566 14.07484,2.27875 24.53521,0.0529 34.47942,-5.34189 -9.38876,-5.33308 -18.07156,-13.41406 -28.16629,-21.85314 -17.5389,-14.66235 -24.23408,-36.49847 -23.79565,-52.44757 0.78473,-28.54652 15.30417,-37.67516 25.25253,-51.47631 z"
       id="path101"
       color="mane-contour" /><path
       style="display:inline;fill:none;fill-opacity:1;stroke:#1d7fbf;stroke-width:5;stroke-dasharray:none;stroke-opacity:1"
       d="m 383.64421,455.51679 c 6.47564,2.6903 17.83084,3.90008 28.42033,0.83789 3.33645,-0.96481 5.45905,-2.62796 8.32651,-4.40149 -2.4505,5.35925 -10.63086,13.15946 -16.54422,23.71584 -7.92144,14.14115 -14.22026,31.77729 -15.34637,47.83534 -2.05667,29.32754 16.8751,58.47754 32.05129,76.72884 -2.31908,-14.59518 -6.59501,-30.16878 0.97125,-39.82129 29.10541,33.54156 48.01347,26.29369 67.01633,19.42502 -15.07748,-8.94938 -22.4155,-15.96389 -27.19503,-22.33878 26.1793,3.50194 41.75876,-7.12923 52.44756,-24.28128 -16.57532,-2.4712 -43.44168,4.52379 -56.33257,-44.67755 -5.33853,-20.37585 0.7683,-32.07489 27.19504,-73.81509 9.20998,-14.54687 18.55089,-27.81097 17.48252,-70.90133 -0.62846,-25.3474 -8.9248,-49.60392 -28.16629,-67.01633 0,0 -6.85664,46.16648 -7.2647,69.43387 -0.33959,19.36296 -0.9938,28.4502 -5.91299,39.37119 -26.12566,58.00105 -73.40212,69.19594 -77.14866,69.90515 z"
       id="path95"
       color="mane-contour" /></g><g
     id="g21"
     style="display:inline"
     data-layer="900"><path
       style="display:inline;fill:#4bc7e1;fill-opacity:1;stroke:none;stroke-width:5;stroke-dasharray:none;stroke-opacity:1"
       d="m 330.22539,274.86408 c -43.14275,8.71438 -76.05481,34.11939 -101.98137,59.24632 30.55944,-4.46689 57.82037,-7.83427 80.61385,-9.71251 -13.60156,7.44626 -27.17969,14.89251 -53.41882,22.33877 24.99676,7.70152 50.73437,9.21565 80.61385,-3.885 43.48078,-19.06413 81.68751,-35.52748 94.21136,-32.05129 l 0.97125,-17.48252 C 425.10093,289.54188 416.3585,257.4661 330.22539,274.86408 Z"
       id="path93"
       color="mane-main" /><path
       style="fill:#55e14b;fill-opacity:1;stroke:none;stroke-width:4;stroke-dasharray:none;stroke-opacity:1"
       d="m 431.11803,300.56477 c -15.22953,-4.98773 -33.10571,-7.73599 -56.7517,-5.6021 -19.32475,0.979 -44.40721,19.23111 -67.22518,30.68976 -17.63064,9.37417 -34.32468,15.93854 -50.66246,21.43412 14.47068,7.51536 37.34648,6.10028 62.11022,2.67926 22.25269,-8.94022 47.65687,-22.29254 66.73805,-26.79265 14.94793,-6.4774 29.95999,-12.24933 45.5475,-11.69133 z"
       id="path105"
       color="mane-hl-1" /><path
       style="display:inline;fill:none;fill-opacity:1;stroke:#1d7fbf;stroke-width:5;stroke-dasharray:none;stroke-opacity:1"
       d="m 330.22539,274.86408 c -43.14275,8.71438 -76.05481,34.11939 -101.98137,59.24632 30.55944,-4.46689 57.82037,-7.83427 80.61385,-9.71251 -13.60156,7.44626 -27.17969,14.89251 -53.41882,22.33877 24.99676,7.70152 50.73437,9.21565 80.61385,-3.885 43.48078,-19.06413 84.43654,-34.23382 96.96039,-30.75763 l -3.07144,-16.51227 C 426.5563,285.8226 416.3585,257.4661 330.22539,274.86408 Z"
       id="path103"
       color="mane-contour" /><path
       style="display:inline;fill:none;fill-opacity:1;stroke:#1d7fbf;stroke-width:4;stroke-dasharray:none;stroke-opacity:1"
       d="m 256.23512,346.84298 c 36.12564,-11.01832 40.0198,-15.94704 93.28712,-44.32965 24.25891,-12.92597 60.8822,-7.38953 82.08292,-2.92284"
       id="path104"
       color="mane-contour" /></g></svg>
