<?xml version="1.0" encoding="UTF-8" standalone="no"?>
<!-- Created with Inkscape (http://www.inkscape.org/) -->

<svg
   width="1000"
   height="1000"
   viewBox="0 0 1000 1000"
   version="1.1"
   id="svg1"
   xml:space="preserve"
   xmlns="http://www.w3.org/2000/svg"
   xmlns:svg="http://www.w3.org/2000/svg"><defs
     id="defs1" /><g
     id="g110"
     style="display:inline"
     data-layer="200"><path
       style="display:inline;fill:#dab824;fill-opacity:1;fill-rule:evenodd;stroke:none;stroke-width:5;stroke-linecap:round;stroke-miterlimit:100;stroke-dasharray:none;stroke-opacity:1"
       d="m 280.3181,343.93639 c 0,0 -46.90141,-18.29742 -34.79125,-61.1332 17.26375,-61.06492 83.2086,-62.74223 130.21869,-49.70179 63.07348,17.49636 90.90815,53.95715 98.40955,97.91253 4.20403,24.63407 -34.79126,56.66004 -34.79126,56.66004 z"
       id="path18"
       color="mane-main" /><path
       style="display:inline;fill:none;fill-rule:evenodd;stroke:#000000;stroke-width:5;stroke-linecap:round;stroke-miterlimit:100;stroke-dasharray:none;stroke-opacity:1"
       d="m 280.3181,343.93639 c 0,0 -46.90141,-18.29742 -34.79125,-61.1332 17.26375,-61.06492 83.2086,-62.74223 130.21869,-49.70179 63.07348,17.49636 90.90815,53.95715 98.40955,97.91253 4.20403,24.63407 -34.79126,56.66004 -34.79126,56.66004 z"
       id="path22"
       color="mane-contour" /></g><g
     id="g19"
     data-layer="1100"><path
       style="fill:#24da3f;fill-opacity:1;fill-rule:evenodd;stroke:none;stroke-width:5;stroke-linecap:round;stroke-miterlimit:100;stroke-dasharray:none;stroke-opacity:1"
       d="m 450.29823,325.54673 c 0,0 11.21368,51.03739 9.44333,70.07952 -3.42334,36.82185 -42.57808,80.93127 -28.33002,116.3022 6.6995,16.63155 29.01083,26.18071 45.72565,22.86282 21.31009,-4.23005 40.20191,-31.23417 39.26441,-51.68986 -1.3393,-29.22291 -26.34195,-23.35985 -26.34195,-23.35985 0,0 16.04628,-23.44013 3.97615,-101.88867 -5.5288,-35.93388 -38.27038,-73.55865 -38.27038,-73.55865 z"
       id="path19"
       color="mane-hl-2" /><path
       style="fill:none;fill-rule:evenodd;stroke:#797979;stroke-width:5;stroke-linecap:round;stroke-miterlimit:100;stroke-dasharray:none;stroke-opacity:1"
       d="m 450.29823,325.54673 c 0,0 11.21368,51.03739 9.44333,70.07952 -3.42334,36.82185 -42.57808,80.93127 -28.33002,116.3022 6.6995,16.63155 29.01083,26.18071 45.72565,22.86282 21.31009,-4.23005 40.20191,-31.23417 39.26441,-51.68986 -1.3393,-29.22291 -26.34195,-23.35985 -26.34195,-23.35985 0,0 16.04628,-23.44013 3.97615,-101.88867 -5.5288,-35.93388 -38.27038,-73.55865 -38.27038,-73.55865"
       id="path20"
       color="mane-contour" /><path
       style="fill:none;fill-opacity:1;fill-rule:evenodd;stroke:#797979;stroke-width:5;stroke-linecap:round;stroke-miterlimit:100;stroke-dasharray:none;stroke-opacity:1"
       d="m 489.56252,459.68971 c 0,0 -23.6976,4.70874 -33.56298,27.4127 -7.4385,17.11878 9.38065,38.87119 31.27858,25.12829 12.34164,-7.74548 12.27362,-24.70645 6.40332,-30.11437 -8.6838,-7.99982 -18.52816,10.96064 -18.52816,10.96064"
       id="path21"
       color="mane-contour" /></g><g
     id="g107"
     style="display:inline"
     data-layer="900"><path
       style="display:inline;fill:#328f53;fill-opacity:1;stroke:none;stroke-width:5;stroke-dasharray:none;stroke-opacity:1"
       d="m 323.32914,268.50377 c -43.36716,23.07958 -43.92331,49.67787 -18.97801,78.37217 22.72767,20.38944 41.27859,14.88304 59.39416,6.67745 8.91633,-7.57684 19.07215,-13.79023 18.97801,-31.27858 10.22858,2.19092 25.64116,-8.16931 43.288,-18.96035 l 2.92887,-3.47121 6.90974,5.41113 C 416.15231,242.22101 334.16096,262.97854 323.32914,268.50377 Z"
       id="path107"
       color="mane-hl-1" /><path
       style="display:inline;fill:none;fill-opacity:1;stroke:#1d7fbf;stroke-width:5.17172;stroke-linecap:round;stroke-dasharray:none;stroke-opacity:1"
       d="m 309.5948,305.01372 c -38.11434,16.07353 -50.23672,47.09982 -24.6896,77.09204 26.70609,31.35285 69.846,20.08568 81.12299,-10.58126 11.80894,-32.11353 -17.75386,-52.16585 -36.92283,-41.92924 -21.32844,11.38981 -19.79849,27.35398 -2.88286,30.84411 6.28562,1.29688 8.86252,-3.28767 10.79038,-4.46609 3.68068,-2.24985 4.85533,-12.19791 1.72355,-13.56722"
       id="path67"
       transform="matrix(0.96679599,0,0,0.96679599,25.60671,-26.47244)"
       color="mane-contour" /><path
       style="fill:none;fill-opacity:1;stroke:#1d7fbf;stroke-width:5;stroke-linecap:round;stroke-dasharray:none;stroke-opacity:1"
       d="m 383.42619,322.80198 c 15.8302,0.48108 32.36069,-12.68546 44.54562,-22.22888"
       id="path106"
       color="mane-contour" /></g></svg>
