<?xml version="1.0" encoding="UTF-8" standalone="no"?>
<!-- Created with Inkscape (http://www.inkscape.org/) -->

<svg
   width="1000"
   height="1000"
   viewBox="0 0 1000 1000"
   version="1.1"
   id="svg1"
   xml:space="preserve"
   xmlns="http://www.w3.org/2000/svg"
   xmlns:svg="http://www.w3.org/2000/svg"><defs
     id="defs1" /><g
     id="g32"
     style="display:inline"
     data-layer="200"><path
       style="fill:#cf2edd;fill-opacity:1;fill-rule:evenodd;stroke:none;stroke-width:5;stroke-linecap:round;stroke-opacity:1"
       d="m 194.84314,395.63219 c 0,0 34.64384,9.72184 49.39684,4.57378 50.28889,-17.54831 112.05768,-111.14291 112.05768,-111.14291 l 81.41333,16.46561 30.64434,98.33633 c 0,0 -80.51274,89.75149 -135.38396,107.02651 -46.10771,14.51602 -89.18876,-7.77543 -89.18876,-7.77543 0,0 11.69908,-2.3158 18.52382,-6.86067 3.69637,-2.46156 4.34509,-6.86068 4.34509,-6.86068 0,0 -5.32466,1.27338 -14.17872,1.82952 -11.43965,0.71854 -22.41154,-3.20165 -22.41154,-3.20165 0,0 23.50167,-15.19613 18.75251,-24.24105 -15.96639,-30.40848 -52.5985,7.31805 -52.5985,7.31805 0,0 6.86187,-27.58205 18.29513,-37.50501 9.44042,-8.19338 10.51971,-8.69019 10.51971,-8.69019 0,0 -8.84767,-4.68052 -18.29514,-12.34922 -5.45278,-4.42613 -11.89183,-16.92299 -11.89183,-16.92299 z"
       id="path32"
       color="mane-main" /><path
       d="m 356.29687,289.0625 c 0,0 -61.76775,93.59427 -112.05664,111.14258 -14.753,5.14806 -49.39648,-4.57227 -49.39648,-4.57227 0,0 6.43784,12.49575 11.89062,16.92188 9.44748,7.6687 18.29493,12.34961 18.29493,12.34961 0,0 -1.07911,0.49607 -10.51953,8.68945 -11.43326,9.92296 -18.29493,37.50586 -18.29493,37.50586 0,0 36.63322,-37.72684 52.59961,-7.31836 4.74916,9.04492 -18.7539,24.24219 -18.7539,24.24219 0,0 10.97246,3.91971 22.41211,3.20117 8.85406,-0.55614 14.17968,-1.83008 14.17968,-1.83008 0,0 -0.64933,4.39977 -4.3457,6.86133 -6.82474,4.54487 -18.52344,6.85937 -18.52344,6.85937 0,0 3.72248,1.9275 10.15235,4.2793 14.08128,-4.18643 38.61909,-12.04231 51.13672,-19.37109 48.53095,-28.41379 118.49392,-97.75114 149.20898,-129.31836 L 437.71094,305.5293 Z"
       style="fill:#2eddbc;fill-opacity:1;fill-rule:evenodd;stroke-width:5;stroke-linecap:round"
       id="path36"
       color="gradient"
       data-grad="from:mane-hl-2; to:mane-hl-2; angle:270; range:0.1%-100%; fromOpacity:0.3; toOpacity:0.3" /><path
       d="m 356.29687,289.0625 c 0,0 -61.76775,93.59427 -112.05664,111.14258 -14.753,5.14806 -49.39648,-4.57227 -49.39648,-4.57227 0,0 6.43784,12.49575 11.89062,16.92188 9.44748,7.6687 18.29493,12.34961 18.29493,12.34961 0,0 -1.07911,0.49607 -10.51953,8.68945 -11.43326,9.92296 -18.29493,37.50586 -18.29493,37.50586 0,0 25.86838,-26.6393 43.60352,-17.10352 14.35924,-4.38324 35.60208,-11.46717 46.95703,-18.11523 49.13247,-28.76596 120.23464,-99.47429 150.33594,-130.47266 z"
       style="fill:#382edd;fill-opacity:1;fill-rule:evenodd;stroke-width:5;stroke-linecap:round"
       id="path35"
       color="mane-hl-2" /><path
       style="fill:none;fill-opacity:1;fill-rule:evenodd;stroke:#1773b2;stroke-width:5;stroke-linecap:round;stroke-opacity:1"
       d="m 194.84314,395.63219 c 0,0 34.64384,9.72184 49.39684,4.57378 50.28889,-17.54831 112.05768,-111.14291 112.05768,-111.14291 l 81.41333,16.46561 30.64434,98.33633 c 0,0 -80.51274,89.75149 -135.38396,107.02651 -46.10771,14.51602 -89.18876,-7.77543 -89.18876,-7.77543 0,0 11.69908,-2.3158 18.52382,-6.86067 3.69637,-2.46156 4.34509,-6.86068 4.34509,-6.86068 0,0 -5.32466,1.27338 -14.17872,1.82952 -11.43965,0.71854 -22.41154,-3.20165 -22.41154,-3.20165 0,0 23.50167,-15.19613 18.75251,-24.24105 -15.96639,-30.40848 -52.5985,7.31805 -52.5985,7.31805 0,0 6.86187,-27.58205 18.29513,-37.50501 9.44042,-8.19338 10.51971,-8.69019 10.51971,-8.69019 0,0 -8.84767,-4.68052 -18.29514,-12.34922 -5.45278,-4.42613 -11.89183,-16.92299 -11.89183,-16.92299 z"
       id="path33"
       color="mane-contour" /></g><g
     id="g18"
     style="display:inline"
     data-layer="700"><path
       style="display:inline;fill:#bee2b0;fill-opacity:1;fill-rule:evenodd;stroke:none;stroke-width:5;stroke-linecap:round;stroke-opacity:1"
       d="m 442.74215,305.52867 c 1.70089,-4.85317 -18.6409,-24.48395 -41.62142,-41.16404 -21.93664,-15.92239 -54.62548,-13.42717 -77.29692,-26.52794 -14.38551,-8.31272 -34.30337,-30.64434 -34.30337,-30.64434 0,0 4.46522,23.59646 10.06232,33.38861 5.02992,8.79987 10.78986,10.33416 14.00749,16.21591 -8.7641,0.22426 -22.36836,-10.28319 -47.3961,-10.26999 -39.03303,0.0206 -69.06412,23.32629 -69.06412,23.32629 0,0 31.20765,-3.99394 46.1952,-0.45738 6.83535,1.61291 18.75251,9.60495 18.75251,9.60495 0,0 -26.74317,12.51678 -33.84599,22.86891 -16.502,24.05112 -5.48854,80.04119 -5.48854,80.04119 0,0 7.15954,-13.75369 11.40208,-20.22717 4.58492,-6.9959 11.9609,-16.90145 15.12586,-20.02211 0.47866,6.1925 -8.48101,20.62057 -9.60494,31.5591 -0.68849,6.7006 1.82951,20.12464 1.82951,20.12464 0,0 53.2612,-61.43784 112.97243,-79.58381 45.40153,-13.79733 85.63362,-0.69899 88.274,-8.23282 z"
       id="path18"
       color="mane-main" /><path
       style="display:inline;fill:none;fill-rule:evenodd;stroke:#051825;stroke-width:5;stroke-linecap:round;stroke-opacity:1"
       d="m 442.74215,305.52867 c 1.70089,-4.85317 -18.6409,-24.48395 -41.62142,-41.16404 -21.93664,-15.92239 -54.62548,-13.42717 -77.29692,-26.52794 -14.38551,-8.31272 -34.30337,-30.64434 -34.30337,-30.64434 0,0 4.46522,23.59646 10.06232,33.38861 5.02992,8.79987 10.78986,10.33416 14.00749,16.21591 -8.7641,0.22426 -22.36836,-10.28319 -47.3961,-10.26999 -39.03303,0.0206 -69.06412,23.32629 -69.06412,23.32629 0,0 31.20765,-3.99394 46.1952,-0.45738 6.83535,1.61291 18.75251,9.60495 18.75251,9.60495 0,0 -26.74317,12.51678 -33.84599,22.86891 -16.502,24.05112 -5.48854,80.04119 -5.48854,80.04119 0,0 7.15954,-13.75369 11.40208,-20.22717 4.58492,-6.9959 11.9609,-16.90145 15.12586,-20.02211 0.47866,6.1925 -8.48101,20.62057 -9.60494,31.5591 -0.68849,6.7006 1.82951,20.12464 1.82951,20.12464 0,0 53.2612,-61.43784 112.97243,-79.58381 45.40153,-13.79733 85.63362,-0.69899 88.274,-8.23282 z"
       id="path19"
       color="mane-contour" /></g><g
     id="g21"
     style="display:inline"
     data-layer="900"><path
       d="m 442.4082,303.10547 c -18.18526,-8.5663 -50.07754,-20.95112 -78.88867,-18.82422 -93.12363,6.87458 -130.17325,40.68635 -144.35742,61.6582 0.27422,19.15782 3.58203,35.97071 3.58203,35.97071 0,0 7.15785,-13.75309 11.40039,-20.22657 4.58492,-6.9959 11.96199,-16.90082 15.12695,-20.02148 0.47866,6.1925 -8.48153,20.62006 -9.60546,31.55859 -0.68849,6.7006 1.83007,20.125 1.83007,20.125 0,0 53.26143,-61.43801 112.97266,-79.58398 45.40153,-13.79733 85.63306,-0.69859 88.27344,-8.23242 0.20878,-0.59571 0.0856,-1.41561 -0.33399,-2.42383 z"
       style="fill:#d9dd2e;fill-opacity:1;fill-rule:evenodd;stroke:none;stroke-width:5;stroke-linecap:round"
       id="path21"
       color="mane-hl-2" /><path
       d="m 219.16211,341.97761 c 0.27422,19.15782 3.58203,39.93255 3.58203,39.93255 0,0 7.15785,-13.75309 11.40039,-20.22657 4.58492,-6.9959 11.96199,-16.90082 15.12695,-20.02148 0.47866,6.1925 -8.48153,20.62006 -9.60546,31.55859 -0.68849,6.7006 1.83007,20.125 1.83007,20.125 0,0 53.26143,-61.43801 112.97266,-79.58398 45.40153,-13.79733 85.63306,-0.69859 88.27344,-8.23242 0.20878,-0.59571 -1.40088,-3.47381 -1.82047,-4.48203"
       style="fill:none;fill-rule:evenodd;stroke:#051825;stroke-width:5;stroke-linecap:round"
       id="path22"
       color="mane-contour" /><path
       style="fill:#2e31dd;fill-opacity:1;fill-rule:evenodd;stroke:none;stroke-width:5;stroke-linecap:round;stroke-opacity:1"
       d="m 434.67011,307.2445 c 0,0 -21.09225,-25.13272 -33.31177,-30.40103 -15.36484,-6.62438 -23.6208,-4.56077 -40.1035,-7.43855 -16.469,-2.8754 -34.8369,-5.08271 -34.8369,-5.08271 0,0 4.52877,11.83995 15.7554,19.31297 8.23471,5.48145 13.30192,5.73534 21.022,7.76197 -5.74218,2.00446 -22.90858,8.36746 -33.31178,20.05175 -19.05349,21.39983 -22.31565,48.51229 -22.31565,48.51229 0,0 20.86926,-26.15772 57.2445,-38.48641 27.93842,-9.46919 69.8577,-14.23028 69.8577,-14.23028 z"
       id="path23"
       color="mane-hl-1" /><path
       style="fill:none;fill-opacity:1;fill-rule:evenodd;stroke:#051825;stroke-width:5;stroke-linecap:round;stroke-opacity:1"
       d="m 434.67011,307.2445 c 0,0 -21.09225,-25.13272 -33.31177,-30.40103 -15.36484,-6.62438 -23.6208,-4.56077 -40.1035,-7.43855 -16.469,-2.8754 -37.1238,-7.36961 -37.1238,-7.36961 0,0 6.81567,14.12685 18.0423,21.59987 8.23471,5.48145 13.30192,5.73534 21.022,7.76197 -5.74218,2.00446 -22.90858,8.36746 -33.31178,20.05175 -19.05349,21.39983 -22.31565,48.51229 -22.31565,48.51229 0,0 20.86926,-26.15772 57.2445,-38.48641 27.93842,-9.46919 69.8577,-14.23028 69.8577,-14.23028 z"
       id="path24"
       color="mane-contour" /></g><g
     id="g25"
     style="display:inline"
     data-layer="1100"><path
       style="display:inline;fill:#49dd2e;fill-opacity:1;fill-rule:evenodd;stroke:none;stroke-width:5;stroke-linecap:round;stroke-opacity:1"
       d="m 444.11428,301.41227 c 14.27157,9.09962 31.0286,31.82075 40.2493,62.20344 10.07237,33.18902 -7.32193,69.72105 -0.45738,103.82486 4.74354,23.56643 34.76074,25.15581 34.76074,25.15581 0,0 -13.78691,8.62222 -23.0976,9.37625 -8.89335,0.72023 -12.49301,-0.0249 -21.04138,-1.81088 2.51983,5.214 24.07486,20.08 18.06842,42.97493 -17.30236,65.95196 -83.24284,69.2928 -83.24284,69.2928 0,0 23.01031,-26.38129 21.95415,-37.04764 -17.86514,19.91179 -34.08313,26.21463 -54.42801,28.35746 -15.89127,1.67375 -20.13006,-1.12791 -36.08848,-12.88745 10.35253,-0.80141 27.58194,2.15378 39.29013,-9.06671 19.10491,-18.30912 -1.86651,-37.90397 21.49678,-81.41333 17.84483,-33.23235 52.21377,-62.35918 58.08703,-101.53797 4.59315,-30.63955 -41.22069,-113.7888 -15.55086,-97.42157 z"
       id="path25"
       color="mane-main" /><path
       d="m 439.00195,299.30078 c -13.05625,-0.35245 24.86249,71.52674 20.66407,99.5332 -3.63007,24.21512 -18.14625,44.59081 -32.91797,64.46875 -1.44497,14.94361 -1.92093,31.85421 0.80664,45.42969 4.39622,21.88056 17.0283,32.78089 24.25586,44.3086 7.72902,12.32753 9.63403,27.50664 9.76367,38.79101 13.01792,-10.28454 24.98231,-25.6756 31.02148,-48.69531 6.00644,-22.89493 -15.54853,-37.76061 -18.06836,-42.97461 8.54837,1.78598 12.14962,2.53078 21.04297,1.81055 9.31069,-0.75403 23.09571,-9.37696 23.09571,-9.37696 0,0 -30.01623,-1.58786 -34.75977,-25.15429 -6.86455,-34.10381 10.5294,-70.63716 0.45703,-103.82618 -9.2207,-30.38269 -25.97648,-53.1035 -40.24805,-62.20312 -2.206,-1.40656 -3.88577,-2.07819 -5.11328,-2.11133 z"
       style="display:inline;fill:#2eddc9;fill-opacity:1;fill-rule:evenodd;stroke-width:5;stroke-linecap:round"
       id="path29"
       color="gradient"
       data-grad="from:mane-hl-2; to:mane-hl-2; angle:270; range:0.1%-100%; fromOpacity:0.3; toOpacity:0.3" /><path
       d="m 439.00195,299.30078 c -13.05625,-0.35245 24.86249,71.52674 20.66407,99.5332 -1.87153,12.4844 -6.63812,23.94848 -12.83985,34.84961 -1.70336,15.73577 -2.48105,34.22836 0.45703,48.85157 4.39622,21.88056 17.0283,32.78088 24.25586,44.30859 8.73615,13.93387 10.03111,31.5128 9.73242,42.99023 4.68033,-7.50469 8.60358,-16.3269 11.32422,-26.69726 6.00644,-22.89493 -15.54853,-37.76061 -18.06836,-42.97461 8.54837,1.78598 12.14962,2.53078 21.04297,1.81055 9.31069,-0.75403 23.09571,-9.37696 23.09571,-9.37696 0,0 -30.01623,-1.58786 -34.75977,-25.15429 -6.86455,-34.10381 10.5294,-70.63716 0.45703,-103.82618 -9.2207,-30.38269 -25.97648,-53.1035 -40.24805,-62.20312 -2.206,-1.40656 -3.88577,-2.07819 -5.11328,-2.11133 z"
       style="display:inline;fill:#d9dd2e;fill-opacity:1;fill-rule:evenodd;stroke-width:5;stroke-linecap:round"
       id="path28"
       color="mane-hl-2" /><path
       style="display:inline;fill:none;fill-opacity:1;fill-rule:evenodd;stroke:#051825;stroke-width:5;stroke-linecap:round;stroke-opacity:1"
       d="m 444.11428,301.41227 c 14.27157,9.09962 31.0286,31.82075 40.2493,62.20344 10.07237,33.18902 -7.32193,69.72105 -0.45738,103.82486 4.74354,23.56643 34.76074,25.15581 34.76074,25.15581 0,0 -13.78691,8.62222 -23.0976,9.37625 -8.89335,0.72023 -12.49301,-0.0249 -21.04138,-1.81088 2.51983,5.214 24.07486,20.08 18.06842,42.97493 -17.30236,65.95196 -83.24284,69.2928 -83.24284,69.2928 0,0 23.01031,-26.38129 21.95415,-37.04764 -17.86514,19.91179 -34.08313,26.21463 -54.42801,28.35746 -15.89127,1.67375 -20.13006,-1.12791 -36.08848,-12.88745 10.35253,-0.80141 27.58194,2.15378 39.29013,-9.06671 19.10491,-18.30912 -1.86651,-37.90397 21.49678,-81.41333 17.84483,-33.23235 52.21377,-62.35918 58.08703,-101.53797 4.59315,-30.63955 -41.22069,-113.7888 -15.55086,-97.42157 z"
       id="path26"
       color="mane-contour" /><path
       style="fill:#cf2edd;fill-opacity:1;fill-rule:evenodd;stroke:none;stroke-width:5;stroke-linecap:round;stroke-opacity:1"
       d="m 434.67012,305.95084 c 0,0 43.20931,29.47635 50.12936,52.71669 12.10484,40.65298 3.82889,89.19603 -18.11125,123.86805 -12.69523,20.06228 -42.72782,21.58208 -59.83183,37.83958 -8.12981,7.72746 -14.71539,16.9793 -14.71539,16.9793 0,0 -0.80452,-11.44241 3.71928,-21.50711 3.98379,-8.86328 5.17464,-14.23028 5.17464,-14.23028 0,0 -3.6904,2.01258 -9.05563,9.70246 -5.68713,8.15126 -16.81759,26.03494 -16.81759,26.03494 0,0 0.44556,-42.19877 11.96636,-63.55111 9.80116,-18.16519 33.87775,-29.7542 33.87775,-29.7542 0,0 -13.12654,-2.44105 -21.91138,-6.79172 -7.44625,-3.68773 -17.78784,-17.46443 -17.78784,-17.46443 0,0 64.74708,0.29802 77.94308,-24.74126 14.48212,-27.47968 -24.57956,-89.10091 -24.57956,-89.10091 z"
       id="path30"
       color="mane-hl-1" /><path
       style="fill:none;fill-opacity:1;fill-rule:evenodd;stroke:#1773b2;stroke-width:5;stroke-linecap:round;stroke-opacity:1"
       d="m 434.67012,305.95084 c 0,0 43.20931,29.47635 50.12936,52.71669 12.10484,40.65298 3.82889,89.19603 -18.11125,123.86805 -12.69523,20.06228 -42.72782,21.58208 -59.83183,37.83958 -8.12981,7.72746 -15.9282,14.8771 -15.9282,14.8771 0,0 0.40829,-9.34021 4.93209,-19.40491 3.98379,-8.86328 5.17464,-14.23028 5.17464,-14.23028 0,0 -3.6904,2.01258 -9.05563,9.70246 -5.68713,8.15126 -16.81759,26.03494 -16.81759,26.03494 0,0 0.44556,-42.19877 11.96636,-63.55111 9.80116,-18.16519 33.87775,-29.7542 33.87775,-29.7542 0,0 -13.12654,-2.44105 -21.91138,-6.79172 -7.44625,-3.68773 -17.78784,-17.46443 -17.78784,-17.46443 0,0 64.74708,0.29802 77.94308,-24.74126 14.48212,-27.47968 -24.57956,-89.10091 -24.57956,-89.10091 z"
       id="path31"
       color="mane-contour" /><path
       style="fill:none;fill-rule:evenodd;stroke:#1773b2;stroke-width:5;stroke-linecap:round"
       d="m 401.23507,501.40091 c 0,0 3.55852,-6.89558 42.87921,-26.64228 26.49737,-13.30687 45.23448,-58.86865 45.23448,-58.86865"
       id="path1"
       color="mane-contour" /></g></svg>
