<?xml version="1.0" encoding="UTF-8" standalone="no"?>
<!-- Created with Inkscape (http://www.inkscape.org/) -->

<svg
   width="1000"
   height="1000"
   viewBox="0 0 1000 1000"
   version="1.1"
   id="svg1"
   xml:space="preserve"
   xmlns="http://www.w3.org/2000/svg"
   xmlns:svg="http://www.w3.org/2000/svg"><defs
     id="defs1" /><g
     id="g20"
     data-layer="200"><path
       style="fill:#82e265;fill-opacity:1;fill-rule:evenodd;stroke:none;stroke-width:5;stroke-linecap:round;stroke-dasharray:none;stroke-opacity:1"
       d="m 301.43525,503.97534 c 0,0 -40.0206,-5.22267 -50.35757,35.57405 -13.57249,53.56627 44.38867,67.84893 44.38867,67.84893 0,0 -8.14748,19.40353 -30.18696,18.29513 -20.69135,-1.0406 -26.96234,-25.33573 -26.96234,-25.33573 0,0 -33.68379,69.44826 32.07197,86.83685 47.08388,12.45097 64.41186,-36.80269 64.41186,-36.80269 0,0 19.9945,10.72475 35.33305,6.50475 36.2945,-9.98549 36.93272,-44.92453 36.93272,-44.92453 0,0 39.77335,0.34529 55.30074,-11.70795 28.29312,-21.96275 17.87978,-55.98403 17.87978,-55.98403 0,0 39.03614,-18.98202 47.07746,-57.04783 7.63498,-36.14232 -14.14623,-64.61478 -14.14623,-64.61478 0,0 28.22479,-5.29998 31.10172,-42.0788 5.4357,-69.4901 -77.7543,-85.98711 -77.7543,-85.98711 0,0 -45.92824,-134.05008 -171.05947,-110.68554 -49.29217,9.20385 -48.48209,78.66906 -48.48209,78.66906 0,0 -44.33403,-8.04961 -56.71491,15.34795 -33.2896,62.91114 9.14757,98.99661 9.14757,98.99661 0,0 -47.00729,26.26047 -28.23695,64.94771 18.77034,38.68724 59.33867,20.12465 59.33867,20.12465 0,0 -21.09674,-21.57796 -10.26523,-33.77147 10.85419,-12.21904 24.14063,-1.09982 40.4522,-0.0745 15.32507,0.9633 45.73782,-5.48854 45.73782,-5.48854 0,0 -12.20028,22.83398 -13.62814,46.29565 -1.29775,21.32378 8.61996,35.06218 8.61996,35.06218 z"
       id="path18"
       color="mane-main" /><path
       style="fill:#060822;fill-opacity:1;fill-rule:evenodd;stroke:none;stroke-width:2;stroke-linecap:round;stroke-dasharray:none;stroke-opacity:1"
       d="m 206.24717,465.02141 c 0,0 -20.60744,-16.18419 -15.43216,-40.05375 7.17997,-33.11566 40.93304,-38.8132 40.93304,-38.8132 0,0 -34.30853,-55.97618 6.28559,-82.14411 70.87239,-35.32636 141.07361,24.75857 199.2238,60.80207 0,0 47.77984,-23.08479 60.15524,7.43855 9.94202,24.52155 -20.05175,39.78008 -20.05175,39.78008 0,0 25.36149,32.27466 7.76197,63.06598 -37.59784,65.77942 -109.85778,-8.04905 -138.74515,8.40879 -15.89103,9.05351 -20.37516,48.83571 -20.37516,48.83571 0,0 -25.42849,9.22794 -28.46055,35.25226 -2.09149,17.95138 21.99224,33.9586 21.99224,33.9586 0,0 -5.44074,38.51335 -24.0538,50.11648 -20.25061,12.62396 -61.75718,5.33706 -61.75718,5.33706 l -1.72505,-7.64543 c 0,0 39.4991,10.87656 59.74971,-1.7474 18.61306,-11.60313 21.14306,-44.61842 21.14306,-44.61842 0,0 -23.76031,-17.94771 -21.66882,-35.89909 3.03206,-26.02432 30.40104,-37.51617 30.40104,-37.51617 0,0 -0.9841,-43.03362 27.16688,-54.01035 34.92145,-13.6167 95.32583,56.40038 129.36611,-3.88098 17.43903,-30.88249 -7.76197,-60.47865 -7.76197,-60.47865 0,0 28.37669,-15.90537 21.99224,-33.95861 -10.98144,-31.0521 -55.30401,-6.14489 -55.30401,-6.14489 -58.15019,-36.0435 -123.17677,-97.42209 -194.04916,-62.09573 -40.59412,26.16793 -1.59607,79.7185 -1.59607,79.7185 0,0 -36.17868,6.50607 -43.35865,39.62173 -5.17528,23.86956 16.4024,37.62814 16.4024,37.62814 z"
       id="path20"
       color="mane-hl-2" /><path
       style="fill:none;fill-rule:evenodd;stroke:#000000;stroke-width:5;stroke-linecap:round;stroke-dasharray:none;stroke-opacity:1"
       d="m 301.43525,503.97534 c 0,0 -40.0206,-5.22267 -50.35757,35.57405 -13.57249,53.56627 44.38867,67.84893 44.38867,67.84893 0,0 -8.14748,19.40353 -30.18696,18.29513 -20.69135,-1.0406 -26.96234,-25.33573 -26.96234,-25.33573 0,0 -33.68379,69.44826 32.07197,86.83685 47.08388,12.45097 64.41186,-36.80269 64.41186,-36.80269 0,0 19.9945,10.72475 35.33305,6.50475 36.2945,-9.98549 36.93272,-44.92453 36.93272,-44.92453 0,0 39.77335,0.34529 55.30074,-11.70795 28.29312,-21.96275 17.87978,-55.98403 17.87978,-55.98403 0,0 39.03614,-18.98202 47.07746,-57.04783 7.63498,-36.14232 -14.14623,-64.61478 -14.14623,-64.61478 0,0 28.22479,-5.29998 31.10172,-42.0788 5.4357,-69.4901 -77.7543,-85.98711 -77.7543,-85.98711 0,0 -45.92824,-134.05008 -171.05947,-110.68554 -49.29217,9.20385 -48.48209,78.66906 -48.48209,78.66906 0,0 -44.33403,-8.04961 -56.71491,15.34795 -33.2896,62.91114 9.14757,98.99661 9.14757,98.99661 0,0 -47.00729,26.26047 -28.23695,64.94771 18.77034,38.68724 59.33867,20.12465 59.33867,20.12465 0,0 -21.09674,-21.57796 -10.26523,-33.77147 10.85419,-12.21904 24.14063,-1.09982 40.4522,-0.0745 15.32507,0.9633 45.73782,-5.48854 45.73782,-5.48854 0,0 -12.20028,22.83398 -13.62814,46.29565 -1.29775,21.32378 8.61996,35.06218 8.61996,35.06218 z"
       id="path26"
       color="mane-contour" /></g><g
     id="g19"
     data-layer="1300"
     style="display:inline"><path
       style="fill:#060822;fill-opacity:1;fill-rule:evenodd;stroke:none;stroke-width:5;stroke-linecap:round;stroke-dasharray:none;stroke-opacity:1"
       d="m 341.52653,222.50971 c -26.83462,8.9393 -37.93455,44.09316 -30.40104,72.44501 11.49347,43.25492 61.4489,38.80983 61.4489,38.80983 0,0 12.86226,18.05455 16.17076,32.34153 7.68478,33.18498 -27.35242,84.7186 -2.26391,108.02069 36.04186,33.47551 69.53428,-2.58731 69.53428,-2.58731 0,0 -28.82373,-4.00774 -29.10737,-17.46443 -0.64113,-30.41792 34.77005,-23.71412 38.48642,-46.24838 7.6711,-46.51385 -27.4903,-72.1216 -27.4903,-72.1216 0,0 8.9011,-14.28851 10.34928,-36.22252 2.03836,-30.87278 -54.55751,-87.03036 -106.72702,-76.97282 z"
       id="path19"
       color="mane-hl-1" /><path
       style="fill:none;fill-rule:evenodd;stroke:#000000;stroke-width:5;stroke-linecap:round;stroke-dasharray:none;stroke-opacity:1"
       d="m 341.52653,222.50971 c -26.83462,8.9393 -37.93455,44.09316 -30.40104,72.44501 11.49347,43.25492 61.4489,38.80983 61.4489,38.80983 0,0 12.86226,18.05455 16.17076,32.34153 7.68478,33.18498 -27.35242,84.7186 -2.26391,108.02069 36.04186,33.47551 69.53428,-2.58731 69.53428,-2.58731 0,0 -28.82373,-4.00774 -29.10737,-17.46443 -0.64113,-30.41792 34.77005,-23.71412 38.48642,-46.24838 7.6711,-46.51385 -27.4903,-72.1216 -27.4903,-72.1216 0,0 8.9011,-14.28851 10.34928,-36.22252 2.03836,-30.87278 -54.55751,-87.03036 -106.72702,-76.97282 z"
       id="path27"
       color="mane-contour" /></g></svg>
