<?xml version="1.0" encoding="UTF-8" standalone="no"?>
<!-- Created with Inkscape (http://www.inkscape.org/) -->

<svg
   width="1000"
   height="1000"
   viewBox="0 0 1000 1000"
   version="1.1"
   id="svg1"
   xml:space="preserve"
   xmlns="http://www.w3.org/2000/svg"
   xmlns:svg="http://www.w3.org/2000/svg"><defs
     id="defs1" /><g
     id="g18"
     style="display:inline"
     data-layer="200"><path
       style="fill:#da9424;fill-opacity:1;fill-rule:evenodd;stroke:none;stroke-width:5;stroke-linecap:round;stroke-dasharray:none;stroke-opacity:1"
       d="m 280.72445,362.87193 c 0,0 -33.17216,-186.86928 115.13583,-140.36223 145.13748,45.51284 32.34153,224.4502 32.34153,224.4502 -63.47134,-19.81198 -109.94848,-36.09589 -147.47736,-84.08797 z"
       id="path18"
       color="mane-main" /><path
       d="m 399.98242,223.86133 c -1.35023,-0.46278 -2.7253,-0.91325 -4.12305,-1.35156 -7.50006,-2.35191 -14.53517,-4.10774 -21.13476,-5.32032 -19.92241,7.96291 -36.8947,13.80603 -53.1875,32.53907 -24.61801,28.30514 -29.62985,100.64134 -31.13867,124.61328 3.68818,4.04757 7.46379,7.83877 11.33008,11.40429 1.97981,-34.29084 9.01531,-101.6608 33.98632,-130.75781 12.2574,-14.2827 42.40917,-24.9432 64.26758,-31.12695 z"
       style="display:inline;fill:#2467da;fill-opacity:1;fill-rule:evenodd;stroke:none;stroke-width:5;stroke-linecap:round"
       id="path32"
       color="mane-hl-2" /><path
       d="m 399.98242,223.86133 c -21.85841,6.18375 -34.22234,3.90764 -62.97392,27.8928 -29.44307,24.56202 -33.30017,99.70112 -35.27998,133.99196 6.17887,5.69821 12.59287,10.81906 19.27148,15.48243 0.23136,-30.54556 3.57482,-109.91088 31.18164,-141.20899 12.94642,-14.67748 42.26458,-23.52097 66.00977,-28.50586 -5.52808,-2.81999 -11.58421,-5.38175 -18.20899,-7.65234 z"
       style="display:inline;fill:#26da24;fill-opacity:1;fill-rule:evenodd;stroke:none;stroke-width:5;stroke-linecap:round"
       id="path33"
       color="mane-hl-1" /><path
       style="fill:none;fill-rule:evenodd;stroke:#000000;stroke-width:5;stroke-linecap:round;stroke-dasharray:none;stroke-opacity:1"
       d="m 280.72445,362.87193 c 0,0 -33.17216,-186.86928 115.13583,-140.36223 145.13748,45.51284 32.34153,224.4502 32.34153,224.4502 -63.47134,-19.81198 -109.94848,-36.09589 -147.47736,-84.08797 z"
       id="path30"
       color="mane-contour" /></g><g
     id="g19"
     style="display:inline"
     data-layer="700"><path
       style="fill:#2433da;fill-opacity:1;fill-rule:evenodd;stroke:none;stroke-width:5;stroke-linecap:round;stroke-dasharray:none;stroke-opacity:1"
       d="m 411.38422,274.25615 c 0,0 -71.02932,-74.79647 -163.0013,-21.34541 -31.51254,18.31404 -47.60927,55.7553 -39.20607,93.86623 6.66263,30.2169 35.97192,20.62277 35.97192,20.62277 0,0 -15.47476,-8.3698 -10.34929,-21.99224 8.82037,-23.4427 59.88283,-4.6137 97.02458,-16.17076 56.06249,-17.44445 79.56016,-54.98059 79.56016,-54.98059 z"
       id="path19"
       color="mane-main" /><path
       d="m 389.36914,256.7168 c -27.23623,-3.98332 -73.69823,-8.22185 -107.51953,2.14843 -40.59664,12.44774 -61.69406,29.14047 -72.05274,45.44141 -3.46216,13.36674 -3.83863,27.86935 -0.61914,42.4707 0.36215,1.64242 0.78973,3.16692 1.27735,4.58203 -2.05403,-21.16677 7.76614,-55.80595 82.0664,-78.58789 37.84902,-11.60526 87.75269,-8.33151 110.68164,-5.91601 -3.55443,-2.93052 -8.20626,-6.47337 -13.83398,-10.13867 z"
       style="display:inline;fill:#7cda24;fill-opacity:1;fill-rule:evenodd;stroke:none;stroke-width:5;stroke-linecap:round"
       id="path27"
       color="mane-hl-2" /><path
       d="m 403.20312,266.85547 c -22.92895,-2.4155 -73.47945,-7.14462 -111.32847,4.46064 -74.30026,22.78194 -83.4736,58.87649 -81.41957,80.04326 2.60498,7.56 6.88287,11.9892 11.55859,14.49805 -5.22588,-16.74328 -3.43346,-50.81014 77.79297,-78.3418 41.73193,-14.14501 93.95636,-12.60712 110.50195,-11.67578 0.72222,-1.02104 1.07618,-1.58398 1.07618,-1.58398 0,0 -2.86222,-3.01468 -8.18165,-7.40039 z"
       style="display:inline;fill:#da9424;fill-opacity:1;fill-rule:evenodd;stroke:none;stroke-width:5;stroke-linecap:round"
       id="path26"
       color="mane-hl-1" /><path
       style="fill:none;fill-rule:evenodd;stroke:#000000;stroke-width:5;stroke-linecap:round;stroke-dasharray:none;stroke-opacity:1"
       d="m 411.38422,274.25615 c 0,0 -71.02932,-74.79647 -163.0013,-21.34541 -31.51254,18.31404 -47.60927,55.7553 -39.20607,93.86623 6.66263,30.2169 35.97192,20.62277 35.97192,20.62277 0,0 -15.47476,-8.3698 -10.34929,-21.99224 8.82037,-23.4427 59.88283,-4.6137 97.02458,-16.17076 56.06249,-17.44445 79.56016,-54.98059 79.56016,-54.98059 z"
       id="path29"
       color="mane-contour" /></g><g
     id="g27"
     style="display:inline"
     data-layer="900"><path
       d="m 410.30859,275.83984 c -16.54559,-0.93134 -68.77002,-2.46923 -110.50195,11.67578 -81.22643,27.53166 -83.01885,61.59852 -77.79297,78.3418 10.55128,5.6615 23.13477,1.54297 23.13477,1.54297 0,0 -15.47508,-8.36975 -10.34961,-21.99219 8.82037,-23.4427 59.88364,-4.61481 97.02539,-16.17187 49.19332,-15.30704 73.31227,-46.08431 78.48437,-53.39649 z"
       style="fill:#2433da;fill-opacity:1;fill-rule:evenodd;stroke:none;stroke-width:5;stroke-linecap:round;stroke-opacity:1"
       id="path25"
       color="mane-main" /><path
       d="m 222.01367,365.85742 c 10.55128,5.6615 23.13477,1.54297 23.13477,1.54297 0,0 -15.47508,-8.36975 -10.34961,-21.99219 8.82037,-23.4427 59.88364,-4.61481 97.02539,-16.17187 49.19332,-15.30704 73.31227,-46.08431 78.48437,-53.39649"
       style="fill:none;fill-rule:evenodd;stroke:#717171;stroke-width:5;stroke-linecap:round"
       id="path28"
       color="mane-contour" /></g><g
     id="g21"
     style="display:inline"
     data-layer="1100"><g
       id="g58"><path
         style="fill:#dad524;fill-opacity:1;fill-rule:evenodd;stroke:none;stroke-width:5;stroke-linecap:round;stroke-dasharray:none;stroke-opacity:1"
         d="m 454.07503,671.08668 c 0,0 -14.53907,15.64579 -13.26002,31.8564 1.68146,21.31077 27.652,23.93273 27.652,23.93273 0,0 -10.46324,-12.1418 -4.2044,-22.15394 7.90875,-12.65148 15.20052,-20.21346 15.20052,-20.21346 z"
         id="path58"
         color="mane-main" /><path
         d="m 464.78125,678.1582 c -6.53004,7.77834 -12.48937,16.19456 -14.42578,22.84375 -1.92188,6.5993 1.08594,15.55162 3.83203,21.71094 7.60838,3.05785 14.2793,4.16211 14.2793,4.16211 0,0 -10.46392,-12.1402 -4.20508,-22.15234 7.90875,-12.65148 15.20117,-20.21485 15.20117,-20.21485 z"
         style="display:inline;fill:#da3e24;fill-opacity:1;fill-rule:evenodd;stroke:none;stroke-width:5;stroke-linecap:round"
         id="path60"
         color="mane-hl-2" /><path
         style="fill:none;fill-opacity:1;fill-rule:evenodd;stroke:#232323;stroke-width:5;stroke-linecap:round;stroke-dasharray:none;stroke-opacity:1"
         d="m 454.07503,671.08668 c 0,0 -14.53907,15.64579 -13.26002,31.8564 1.68146,21.31077 27.652,23.93273 27.652,23.93273 0,0 -10.46324,-12.1418 -4.2044,-22.15394 7.90875,-12.65148 15.20052,-20.21346 15.20052,-20.21346 z"
         id="path61"
         color="mane-contour" /></g><g
       id="g43"><path
         style="fill:#63da24;fill-opacity:1;fill-rule:evenodd;stroke:none;stroke-width:5;stroke-linecap:round;stroke-dasharray:none;stroke-opacity:1"
         d="m 416.67159,466.9832 c 2.20485,-25.61448 38.62919,-49.90941 44.82307,-78.21168 9.92425,-45.34783 -10.51971,-131.72494 -10.51971,-131.72494 0,0 46.58098,40.32866 59.0018,116.17408 12.05994,73.64177 -40.76584,81.44334 -34.76075,123.03475 3.00221,20.79338 26.52795,43.45093 26.52795,43.45093 l -57.62966,-19.20989 c 0,0 -29.43274,-30.39434 -27.4427,-53.51325 z"
         id="path21"
         color="mane-main" /><path
         d="m 498.32422,330.03516 c -1.59998,21.35774 -4.7694,48.62076 -10.98828,66.51171 -9.30429,26.76732 -37.50993,50.34025 -43.90821,77.98243 -2.78881,12.0484 0.3596,32.31659 3.39844,46.87109 l 22.35938,7.45313 c -6.0056,-12.72416 -11.56723,-28.35279 -10.20703,-40.60157 2.76499,-24.89917 28.40708,-43.64227 37.50585,-66.09179 5.55444,-13.70451 8.93112,-41.9434 10.76758,-62.8086 -2.42624,-10.56245 -5.48882,-20.33882 -8.92773,-29.3164 z"
         style="display:inline;fill:#24d8da;fill-opacity:1;fill-rule:evenodd;stroke:none;stroke-width:5;stroke-linecap:round"
         id="path40"
         color="mane-hl-1" /><path
         d="m 486.5918,304.49414 c -0.94569,21.97161 -3.56725,60.14495 -10.68946,81.30469 -9.6895,28.78701 -36.91405,53.95643 -45.96679,82.32812 -2.46021,7.7104 -3.78598,17.90081 -4.48047,27.65235 8.04873,13.76013 18.66015,24.71679 18.66015,24.71679 l 2.71094,0.9043 c -3.03884,-14.5545 -6.18725,-34.82269 -3.39844,-46.87109 6.39828,-27.64218 34.60392,-51.21511 43.90821,-77.98243 6.21888,-17.89095 9.3883,-45.15397 10.98828,-66.51171 -3.59924,-9.39612 -7.61076,-17.91596 -11.73242,-25.54102 z"
         style="display:inline;fill:#c024da;fill-opacity:1;fill-rule:evenodd;stroke:none;stroke-width:5;stroke-linecap:round"
         id="path39"
         color="mane-hl-2" /><path
         style="fill:none;fill-rule:evenodd;stroke:#000000;stroke-width:5;stroke-linecap:round;stroke-dasharray:none;stroke-opacity:1"
         d="m 416.67159,466.9832 c 2.20485,-25.61448 38.62919,-49.90941 44.82307,-78.21168 9.92425,-45.34783 -10.51971,-131.72494 -10.51971,-131.72494 0,0 46.58098,40.32866 59.0018,116.17408 12.05994,73.64177 -40.76584,81.44334 -34.76075,123.03475 3.00221,20.79338 26.52795,43.45093 26.52795,43.45093 l -57.62966,-19.20989 c 0,0 -29.43274,-30.39434 -27.4427,-53.51325 z"
         id="path41"
         color="mane-contour" /></g><g
       id="g53"
       style="display:inline"><path
         style="fill:#da3e24;fill-opacity:1;fill-rule:evenodd;stroke:none;stroke-width:5;stroke-linecap:round;stroke-dasharray:none;stroke-opacity:1"
         d="m 409.81092,611.05735 c 0,0 6.33927,-18.13036 14.01939,-25.83277 25.56592,-25.64011 52.75783,-28.13787 52.75783,-28.13787 l 14.17873,40.93535 c 0,0 5.23187,10.06647 -18.97881,17.43131 -28.88146,8.78568 -27.49303,21.26928 -27.49303,21.26928 z"
         id="path53"
         color="mane-main" /><path
         d="m 424.56445,622.03711 10.50782,7.82031 c 5.56809,-8.04738 11.56353,-15.39075 17.38476,-20.05859 8.5702,-6.87215 22.92648,-12.83174 36.375,-17.36524 l -5.22266,-15.07617 c -12.54316,4.46935 -25.15515,10.03471 -33.57617,16.4336 -7.93116,6.02665 -17.20069,17.11136 -25.46875,28.24609 z"
         style="fill:#dab024;fill-opacity:1;fill-rule:evenodd;stroke:none;stroke-width:5;stroke-linecap:round"
         id="path56"
         color="mane-hl-1" /><path
         d="m 479.11914,564.39453 c -14.90533,6.37495 -30.30647,14.20409 -39.75977,22.44336 -7.53648,6.56862 -15.69341,17.83534 -22.86718,29.19141 l 8.07226,6.00781 c 8.26806,-11.13473 17.53759,-22.21944 25.46875,-28.24609 8.42102,-6.39889 21.03301,-11.96425 33.57617,-16.4336 z"
         style="display:inline;fill:#24da27;fill-opacity:1;fill-rule:evenodd;stroke:none;stroke-width:5;stroke-linecap:round"
         id="path55"
         color="mane-hl-2" /><path
         style="fill:none;fill-opacity:1;fill-rule:evenodd;stroke:#232323;stroke-width:5;stroke-linecap:round;stroke-dasharray:none;stroke-opacity:1"
         d="m 409.81092,611.05735 c 0,0 6.33927,-18.13036 14.01939,-25.83277 25.56592,-25.64011 52.75783,-28.13787 52.75783,-28.13787 l 14.17873,40.93535 c 0,0 5.23187,10.06647 -18.97881,17.43131 -28.88146,8.78568 -27.49303,21.26928 -27.49303,21.26928 z"
         id="path57"
         color="mane-contour" /></g><g
       id="g42"><path
         style="fill:#24dac9;fill-opacity:1;fill-rule:evenodd;stroke:none;stroke-width:5;stroke-linecap:round;stroke-dasharray:none;stroke-opacity:1"
         d="m 419.43204,459.56022 c 0,0 -24.62949,33.52774 -13.22247,72.7813 8.44725,29.06847 60.23365,27.07751 76.32601,52.71669 5.7656,9.18605 6.79171,21.022 6.79171,21.022 0,0 31.94599,-26.92786 19.72833,-55.95084 -12.57499,-29.87182 -53.44642,-38.79836 -70.50452,-58.53817 -8.90376,-10.30353 -19.11906,-32.03098 -19.11906,-32.03098 z"
         id="path42"
         color="mane-main" /><path
         d="m 511.29883,570.16992 c -4.0009,-8.61129 -8.99139,-17.99215 -13.90039,-23.60351 -17.12672,-19.57712 -45.74663,-23.11536 -64.49024,-43.45118 -7.71348,-8.36871 -15.90621,-24.66599 -20.51758,-34.61523 -1.53252,3.5371 -3.13408,7.69574 -4.56445,12.33203 3.78217,10.19267 11.05006,27.4207 19.82227,36.46289 15.96671,16.45811 47.74139,22.41615 63.11914,38.41992 6.61175,6.88091 12.12712,20.24806 15.32031,29.25586 2.37209,-4.48198 4.31181,-9.4807 5.21094,-14.80078 z"
         style="display:inline;fill:#da5f24;fill-opacity:1;fill-rule:evenodd;stroke:none;stroke-width:5;stroke-linecap:round"
         id="path45"
         color="mane-hl-2" /><path
         d="m 506.08789,584.9707 c -3.19319,-9.0078 -8.70856,-22.37495 -15.32031,-29.25586 -15.37775,-16.00377 -47.15243,-21.96181 -63.11914,-38.41992 -8.77221,-9.04219 -16.0401,-26.27022 -19.82227,-36.46289 -2.38546,7.73203 -4.29642,16.7937 -4.625,26.52734 5.25532,7.80698 12.12074,17.20064 17.81641,22.28516 18.98115,16.94449 50.06672,20.71145 66.08984,40.47656 5.06886,6.25262 8.78403,17.25863 11.20313,26.50782 2.62102,-3.24048 5.41418,-7.1931 7.77734,-11.65821 z"
         style="display:inline;fill:#dad424;fill-opacity:1;fill-rule:evenodd;stroke:none;stroke-width:5;stroke-linecap:round"
         id="path44"
         color="mane-hl-1" /><path
         style="fill:none;fill-opacity:1;fill-rule:evenodd;stroke:#6f6f6f;stroke-width:5;stroke-linecap:round;stroke-dasharray:none;stroke-opacity:1"
         d="m 419.66073,457.27332 c 0,0 -24.85818,35.81464 -13.45116,75.0682 8.44725,29.06847 60.23365,27.07751 76.32601,52.71669 5.7656,9.18605 6.79171,21.022 6.79171,21.022 0,0 31.94599,-26.92786 19.72833,-55.95084 -12.57499,-29.87182 -53.44642,-38.79836 -70.50452,-58.53817 -8.90376,-10.30353 -18.89037,-34.31788 -18.89037,-34.31788 z"
         id="path46"
         color="mane-contour" /></g><g
       id="g52"
       transform="matrix(0.80893186,0,0,0.67072956,76.74399,290.53307)"><path
         style="fill:#24dac9;fill-opacity:1;fill-rule:evenodd;stroke:none;stroke-width:5;stroke-linecap:round;stroke-dasharray:none;stroke-opacity:1"
         d="m 418.97466,455.6725 c 0,0 -24.17211,37.41546 -12.76509,76.66902 8.44725,29.06847 60.23365,27.07751 76.32601,52.71669 5.7656,9.18605 6.79171,21.022 6.79171,21.022 0,0 31.94599,-26.92786 19.72833,-55.95084 -12.57499,-29.87182 -53.44642,-38.79836 -70.50452,-58.53817 -8.90376,-10.30353 -19.57644,-35.9187 -19.57644,-35.9187 z"
         id="path49"
         color="mane-main" /><path
         d="m 511.29883,570.16992 c -4.0009,-8.61129 -7.57786,-16.62833 -12.48686,-22.23969 -17.12672,-19.57712 -42.35417,-19.36484 -61.09778,-39.70066 -7.71348,-8.36871 -20.7122,-29.78033 -25.32357,-39.72957 -1.53252,3.5371 -3.13408,7.69574 -4.56445,12.33203 3.78217,10.19267 9.07112,31.17121 17.84333,40.2134 15.96671,16.45811 49.15492,23.77998 64.53267,39.78375 6.61175,6.88091 12.69253,15.13372 15.88572,24.14152 2.37209,-4.48198 4.31181,-9.4807 5.21094,-14.80078 z"
         style="display:inline;fill:#da5f24;fill-opacity:1;fill-rule:evenodd;stroke:none;stroke-width:5;stroke-linecap:round"
         id="path50"
         color="mane-hl-1" /><path
         d="m 506.08789,584.9707 c -3.19319,-9.0078 -8.70856,-22.37495 -15.32031,-29.25586 -15.37775,-16.00377 -47.15243,-21.96181 -63.11914,-38.41992 -8.77221,-9.04219 -16.0401,-26.27022 -19.82227,-36.46289 -2.38546,7.73203 -4.29642,16.7937 -4.625,26.52734 5.25532,7.80698 12.12074,20.95115 17.81641,26.03567 18.98115,16.94449 49.2186,18.66572 65.24172,38.43083 5.06886,6.25262 9.63215,15.55385 12.05125,24.80304 2.62102,-3.24048 5.41418,-7.1931 7.77734,-11.65821 z"
         style="display:inline;fill:#dad424;fill-opacity:1;fill-rule:evenodd;stroke:none;stroke-width:5;stroke-linecap:round"
         id="path51"
         color="mane-hl-2" /><path
         style="fill:none;fill-opacity:1;fill-rule:evenodd;stroke:#6f6f6f;stroke-width:6.78798;stroke-linecap:round;stroke-dasharray:none;stroke-opacity:1"
         d="m 418.97466,455.6725 c 0,0 -24.17211,37.41546 -12.76509,76.66902 8.44725,29.06847 60.23365,27.07751 76.32601,52.71669 5.7656,9.18605 7.69127,17.28507 7.69127,17.28507 0,0 31.04643,-23.19093 18.82877,-52.21391 -12.57499,-29.87182 -53.44642,-38.79836 -70.50452,-58.53817 -8.90376,-10.30353 -19.57644,-35.9187 -19.57644,-35.9187 z"
         id="path52"
         color="mane-contour" /></g></g><g
     id="g20"
     style="display:inline"
     data-layer="1300"><path
       style="fill:#c024da;fill-opacity:1;fill-rule:evenodd;stroke:none;stroke-width:5;stroke-linecap:round;stroke-dasharray:none;stroke-opacity:1"
       d="m 412.55518,273.96957 c -20.87717,-7.87279 -55.26805,17.33283 -52.59849,41.16405 3.53761,31.5803 59.98464,21.54538 77.29692,55.80014 7.43022,14.70173 4.92018,50.87996 4.92018,50.87996 0,0 24.37563,-20.14876 22.90142,-61.88002 -1.19186,-33.73865 -23.37724,-74.97437 -52.52003,-85.96413 z"
       id="path20"
       color="mane-main" /><path
       d="m 411.55273,273.61914 c -7.11169,-2.28213 -15.64153,-0.93453 -23.70507,2.75781 -6.77691,7.55858 -13.62857,17.13582 -13.71289,25.03516 -0.22479,21.05946 31.84408,32.6637 42.99414,49.39648 0.24034,0.36069 0.48032,0.73055 0.7207,1.10743 7.99946,4.40271 14.98016,10.2638 19.4043,19.01757 7.43022,14.70173 4.91992,50.88086 4.91992,50.88086 0,0 7.99374,-6.60844 14.54883,-20.09179 -0.19637,-8.26214 -0.76136,-17.45837 -3.34643,-23.64223 -12.15646,-29.08 -59.15043,-55.51477 -59.61074,-81.2953 -0.15105,-8.45979 10.0256,-18.1329 17.78724,-23.16599 z"
       style="fill:#2467da;fill-opacity:1;fill-rule:evenodd;stroke:none;stroke-width:5;stroke-linecap:round"
       id="path36"
       color="mane-hl-1" /><path
       d="m 411.55273,273.61914 c -7.76164,5.03309 -19.95964,14.30193 -19.80859,22.76172 0.46031,25.78053 49.1326,52.79109 61.28906,81.87109 2.58507,6.18386 3.49309,15.20857 3.68946,23.47071 3.46201,-7.12113 6.52255,-16.1594 7.79296,-27.15625 -1.29309,-4.68251 -2.89948,-9.38369 -4.8496,-13.23829 -11.50875,-22.7481 -51.79706,-40.19675 -50.08399,-65.63281 0.40299,-5.98371 9.40737,-12.09978 14.94336,-15.3125 -3.8222,-2.67722 -7.82681,-4.8514 -11.9707,-6.41406 -0.33091,-0.12478 -0.66446,-0.24131 -1.00196,-0.34961 z"
       style="fill:#3eda24;fill-opacity:1;fill-rule:evenodd;stroke:none;stroke-width:5;stroke-linecap:round"
       id="path37"
       color="mane-hl-2" /><path
       style="display:inline;fill:none;fill-rule:evenodd;stroke:#717171;stroke-width:5;stroke-linecap:round;stroke-dasharray:none;stroke-opacity:1"
       d="m 412.55518,273.96957 c -20.87717,-7.87279 -55.26805,17.33283 -52.59849,41.16405 3.53761,31.5803 59.98464,21.54538 77.29692,55.80014 7.43022,14.70173 4.92018,50.87996 4.92018,50.87996 0,0 24.37563,-20.14876 22.90142,-61.88002 -1.19186,-33.73865 -23.37724,-74.97437 -52.52003,-85.96413 z"
       id="path34"
       color="mane-contour" /></g><g
     id="g81"
     style="display:inline"
     data-layer="200"
     transform="matrix(-0.97665234,-0.21482601,-0.21482601,0.97665234,884.19384,55.976431)"><g
       id="g64"><path
         style="fill:#dad524;fill-opacity:1;fill-rule:evenodd;stroke:none;stroke-width:5;stroke-linecap:round;stroke-dasharray:none;stroke-opacity:1"
         d="m 454.07503,671.08668 c 0,0 -14.53907,15.64579 -13.26002,31.8564 1.68146,21.31077 27.652,23.93273 27.652,23.93273 0,0 -10.46324,-12.1418 -4.2044,-22.15394 7.90875,-12.65148 15.20052,-20.21346 15.20052,-20.21346 z"
         id="path62"
         color="mane-main" /><path
         d="m 464.78125,678.1582 c -6.53004,7.77834 -12.48937,16.19456 -14.42578,22.84375 -1.92188,6.5993 1.08594,15.55162 3.83203,21.71094 7.60838,3.05785 14.2793,4.16211 14.2793,4.16211 0,0 -10.46392,-12.1402 -4.20508,-22.15234 7.90875,-12.65148 15.20117,-20.21485 15.20117,-20.21485 z"
         style="display:inline;fill:#da3e24;fill-opacity:1;fill-rule:evenodd;stroke:none;stroke-width:5;stroke-linecap:round"
         id="path63"
         color="mane-hl-2" /><path
         style="fill:none;fill-opacity:1;fill-rule:evenodd;stroke:#232323;stroke-width:5;stroke-linecap:round;stroke-dasharray:none;stroke-opacity:1"
         d="m 454.07503,671.08668 c 0,0 -14.53907,15.64579 -13.26002,31.8564 1.68146,21.31077 27.652,23.93273 27.652,23.93273 0,0 -10.46324,-12.1418 -4.2044,-22.15394 7.90875,-12.65148 15.20052,-20.21346 15.20052,-20.21346 z"
         id="path64"
         color="mane-contour" /></g><g
       id="g72"
       style="display:inline"><path
         style="fill:#da3e24;fill-opacity:1;fill-rule:evenodd;stroke:none;stroke-width:5;stroke-linecap:round;stroke-dasharray:none;stroke-opacity:1"
         d="m 409.81092,611.05735 c 0,0 6.33927,-18.13036 14.01939,-25.83277 25.56592,-25.64011 52.75783,-28.13787 52.75783,-28.13787 l 14.17873,40.93535 c 0,0 5.23187,10.06647 -18.97881,17.43131 -28.88146,8.78568 -27.49303,21.26928 -27.49303,21.26928 z"
         id="path69"
         color="mane-main" /><path
         d="m 424.56445,622.03711 10.50782,7.82031 c 5.56809,-8.04738 11.56353,-15.39075 17.38476,-20.05859 8.5702,-6.87215 22.92648,-12.83174 36.375,-17.36524 l -5.22266,-15.07617 c -12.54316,4.46935 -25.15515,10.03471 -33.57617,16.4336 -7.93116,6.02665 -17.20069,17.11136 -25.46875,28.24609 z"
         style="fill:#dab024;fill-opacity:1;fill-rule:evenodd;stroke:none;stroke-width:5;stroke-linecap:round"
         id="path70"
         color="mane-hl-1" /><path
         d="m 479.11914,564.39453 c -14.90533,6.37495 -30.30647,14.20409 -39.75977,22.44336 -7.53648,6.56862 -15.69341,17.83534 -22.86718,29.19141 l 8.07226,6.00781 c 8.26806,-11.13473 17.53759,-22.21944 25.46875,-28.24609 8.42102,-6.39889 21.03301,-11.96425 33.57617,-16.4336 z"
         style="display:inline;fill:#24da27;fill-opacity:1;fill-rule:evenodd;stroke:none;stroke-width:5;stroke-linecap:round"
         id="path71"
         color="mane-hl-2" /><path
         style="fill:none;fill-opacity:1;fill-rule:evenodd;stroke:#232323;stroke-width:5;stroke-linecap:round;stroke-dasharray:none;stroke-opacity:1"
         d="m 409.81092,611.05735 c 0,0 6.33927,-18.13036 14.01939,-25.83277 25.56592,-25.64011 52.75783,-28.13787 52.75783,-28.13787 l 14.17873,40.93535 c 0,0 5.23187,10.06647 -18.97881,17.43131 -28.88146,8.78568 -27.49303,21.26928 -27.49303,21.26928 z"
         id="path72"
         color="mane-contour" /></g><g
       id="g76"><path
         style="fill:#24dac9;fill-opacity:1;fill-rule:evenodd;stroke:none;stroke-width:5;stroke-linecap:round;stroke-dasharray:none;stroke-opacity:1"
         d="m 418.97466,455.6725 c 0,0 -24.17211,37.41546 -12.76509,76.66902 8.44725,29.06847 60.23365,27.07751 76.32601,52.71669 5.7656,9.18605 6.79171,21.022 6.79171,21.022 0,0 31.94599,-26.92786 19.72833,-55.95084 -12.57499,-29.87182 -53.44642,-38.79836 -70.50452,-58.53817 -8.90376,-10.30353 -19.57644,-35.9187 -19.57644,-35.9187 z"
         id="path73"
         color="mane-main" /><path
         d="m 511.29883,570.16992 c -4.0009,-8.61129 -8.99139,-17.99215 -13.90039,-23.60351 -17.12672,-19.57712 -45.74663,-23.11536 -64.49024,-43.45118 -7.71348,-8.36871 -15.90621,-24.66599 -20.51758,-34.61523 -1.53252,3.5371 -3.13408,7.69574 -4.56445,12.33203 3.78217,10.19267 11.05006,27.4207 19.82227,36.46289 15.96671,16.45811 47.74139,22.41615 63.11914,38.41992 6.61175,6.88091 12.12712,20.24806 15.32031,29.25586 2.37209,-4.48198 4.31181,-9.4807 5.21094,-14.80078 z"
         style="display:inline;fill:#da5f24;fill-opacity:1;fill-rule:evenodd;stroke:none;stroke-width:5;stroke-linecap:round"
         id="path74"
         color="mane-hl-2" /><path
         d="m 506.08789,584.9707 c -3.19319,-9.0078 -8.70856,-22.37495 -15.32031,-29.25586 -15.37775,-16.00377 -47.15243,-21.96181 -63.11914,-38.41992 -8.77221,-9.04219 -16.0401,-26.27022 -19.82227,-36.46289 -2.38546,7.73203 -4.29642,16.7937 -4.625,26.52734 5.25532,7.80698 12.12074,17.20064 17.81641,22.28516 18.98115,16.94449 50.06672,20.71145 66.08984,40.47656 5.06886,6.25262 8.78403,17.25863 11.20313,26.50782 2.62102,-3.24048 5.41418,-7.1931 7.77734,-11.65821 z"
         style="display:inline;fill:#dad424;fill-opacity:1;fill-rule:evenodd;stroke:none;stroke-width:5;stroke-linecap:round"
         id="path75"
         color="mane-hl-1" /><path
         style="fill:none;fill-opacity:1;fill-rule:evenodd;stroke:#6f6f6f;stroke-width:5;stroke-linecap:round;stroke-dasharray:none;stroke-opacity:1"
         d="m 418.97466,455.6725 c 0,0 -24.17211,37.41546 -12.76509,76.66902 8.44725,29.06847 60.23365,27.07751 76.32601,52.71669 5.7656,9.18605 6.79171,21.022 6.79171,21.022 0,0 31.94599,-26.92786 19.72833,-55.95084 -12.57499,-29.87182 -53.44642,-38.79836 -70.50452,-58.53817 -8.90376,-10.30353 -19.57644,-35.9187 -19.57644,-35.9187 z"
         id="path76"
         color="mane-contour" /></g><g
       id="g80"
       transform="matrix(0.80893186,0,0,0.67072956,76.74399,290.53307)"><path
         style="fill:#24dac9;fill-opacity:1;fill-rule:evenodd;stroke:none;stroke-width:5;stroke-linecap:round;stroke-dasharray:none;stroke-opacity:1"
         d="m 418.97466,455.6725 c 0,0 -24.17211,37.41546 -12.76509,76.66902 8.44725,29.06847 60.23365,27.07751 76.32601,52.71669 5.7656,9.18605 6.79171,21.022 6.79171,21.022 0,0 31.94599,-26.92786 19.72833,-55.95084 -12.57499,-29.87182 -53.44642,-38.79836 -70.50452,-58.53817 -8.90376,-10.30353 -19.57644,-35.9187 -19.57644,-35.9187 z"
         id="path77"
         color="mane-main" /><path
         d="m 511.29883,570.16992 c -4.0009,-8.61129 -7.57786,-16.62833 -12.48686,-22.23969 -17.12672,-19.57712 -42.35417,-19.36484 -61.09778,-39.70066 -7.71348,-8.36871 -20.7122,-29.78033 -25.32357,-39.72957 -1.53252,3.5371 -3.13408,7.69574 -4.56445,12.33203 3.78217,10.19267 9.07112,31.17121 17.84333,40.2134 15.96671,16.45811 49.15492,23.77998 64.53267,39.78375 6.61175,6.88091 12.69253,15.13372 15.88572,24.14152 2.37209,-4.48198 4.31181,-9.4807 5.21094,-14.80078 z"
         style="display:inline;fill:#da5f24;fill-opacity:1;fill-rule:evenodd;stroke:none;stroke-width:5;stroke-linecap:round"
         id="path78"
         color="mane-hl-1" /><path
         d="m 506.08789,584.9707 c -3.19319,-9.0078 -8.70856,-22.37495 -15.32031,-29.25586 -15.37775,-16.00377 -47.15243,-21.96181 -63.11914,-38.41992 -8.77221,-9.04219 -16.0401,-26.27022 -19.82227,-36.46289 -2.38546,7.73203 -4.29642,16.7937 -4.625,26.52734 5.25532,7.80698 12.12074,20.95115 17.81641,26.03567 18.98115,16.94449 49.2186,18.66572 65.24172,38.43083 5.06886,6.25262 9.63215,15.55385 12.05125,24.80304 2.62102,-3.24048 5.41418,-7.1931 7.77734,-11.65821 z"
         style="display:inline;fill:#dad424;fill-opacity:1;fill-rule:evenodd;stroke:none;stroke-width:5;stroke-linecap:round"
         id="path79"
         color="mane-hl-2" /><path
         style="fill:none;fill-opacity:1;fill-rule:evenodd;stroke:#6f6f6f;stroke-width:6.78798;stroke-linecap:round;stroke-dasharray:none;stroke-opacity:1"
         d="m 418.97466,455.6725 c 0,0 -24.17211,37.41546 -12.76509,76.66902 8.44725,29.06847 60.23365,27.07751 76.32601,52.71669 5.7656,9.18605 7.69127,17.28507 7.69127,17.28507 0,0 31.04643,-23.19093 18.82877,-52.21391 -12.57499,-29.87182 -53.44642,-38.79836 -70.50452,-58.53817 -8.90376,-10.30353 -19.57644,-35.9187 -19.57644,-35.9187 z"
         id="path80"
         color="mane-contour" /></g></g></svg>
