<?xml version="1.0" encoding="UTF-8" standalone="no"?>
<!-- Created with Inkscape (http://www.inkscape.org/) -->

<svg
   width="1000"
   height="1000"
   viewBox="0 0 1000 1000"
   version="1.1"
   id="svg1"
   xml:space="preserve"
   xmlns="http://www.w3.org/2000/svg"
   xmlns:svg="http://www.w3.org/2000/svg"><defs
     id="defs1" /><g
     id="g18"
     style="display:inline"
     data-layer="200"><path
       style="fill:#4e24da;fill-opacity:1;fill-rule:evenodd;stroke:none;stroke-width:5;stroke-linecap:round;stroke-opacity:1"
       d="m 408.15006,254.85123 c 0,0 -9.44873,-11.07089 -25.5498,-13.90685 -11.91952,-2.09945 -22.31565,-2.26391 -22.31565,-2.26391 0,0 -14.94728,-72.6257 -89.90945,-71.7982 -66.28824,0.73176 -64.03622,70.50453 -64.03622,70.50453 0,0 -43.22246,-20.76505 -73.09185,24.57956 -47.919681,72.7467 32.17982,96.37776 32.17982,96.37776 0,0 -24.77421,5.51669 -28.29884,36.86934 -5.3984,48.02044 73.66853,54.4177 54.33377,81.17722 -14.69384,20.33644 -33.63519,-15.20051 -33.63519,-15.20051 0,0 -8.73614,48.46576 32.98836,50.45278 34.06532,1.62228 58.86157,-41.39716 58.86157,-41.39716 0,0 38.20313,1.12644 50.24711,-10.14571 14.68356,-13.74258 13.4657,-57.44807 13.4657,-57.44807 l 132.27685,24.25614 c 0,0 29.55732,-42.00191 30.40103,-64.35964 2.42573,-64.28053 -67.91721,-107.69728 -67.91721,-107.69728 z"
       id="path18"
       color="mane-main" /><path
       d="M 395.40234,417.69141 C 393.90256,393.5303 378.17584,197.25508 263.58398,209.25 c -43.32542,4.5351 -53.6875,70.50391 -53.6875,70.50391 0,0 -33.24972,-3.95892 -43.66015,27.49023 -8.83037,26.67587 29.10742,53.04102 29.10742,53.04102 0,0 -29.35665,17.56237 -32.99023,34.60546 -6.52559,30.60791 45.52207,46.35449 43.6621,77.61915 -0.79166,13.30741 -15.04569,29.05906 -24.16601,37.84179 2.69343,0.68913 5.67193,1.1342 8.96484,1.29102 12.39905,0.59047 23.57124,-4.73333 32.76563,-11.74414 2.47164,-8.99789 4.38256,-18.59317 4.10351,-26.09571 -0.99258,-26.68677 -31.04853,-41.05967 -25.54882,-76.97265 2.39427,-15.63457 31.04687,-34.60547 31.04687,-34.60547 0,0 -38.93711,-15.08279 -37.51562,-47.21875 0.80232,-18.13809 29.7539,-20.69727 29.7539,-20.69727 0,0 15.30905,-62.35284 55.30469,-60.80273 84.08927,3.25903 111.13857,162.34046 114.45312,184.14453 z"
       style="fill:#24dad7;fill-opacity:1;fill-rule:evenodd;stroke:none;stroke-width:5;stroke-linecap:round"
       id="path20"
       color="mane-hl-1" /><path
       d="m 395.17773,417.65039 c -3.31455,-21.80407 -25.18921,-181.20892 -115.74678,-184.46795 -39.99977,-1.43953 -54.98128,59.18566 -54.98128,59.18566 0,0 -29.92182,4.82309 -30.72414,22.96118 -1.42149,32.13596 35.57513,46.89533 35.57513,46.89533 0,0 -27.03553,18.9709 -29.4298,34.60547 -5.49971,35.91298 24.23283,50.93271 25.22541,77.61948 0.27905,7.50254 -2.2787,18.39148 -4.75034,27.38937 16.0664,-12.25079 29.32985,-31.59284 29.32985,-31.59284 0,0 38.20407,1.12567 50.24805,-10.14648 14.68356,-13.74258 13.46484,-57.44727 13.46484,-57.44727 z"
       style="fill:#36da24;fill-opacity:1;fill-rule:evenodd;stroke:none;stroke-width:5;stroke-linecap:round"
       id="path21"
       color="mane-hl-2" /><path
       style="fill:none;fill-rule:evenodd;stroke:#000000;stroke-width:5;stroke-linecap:round;stroke-opacity:1"
       d="m 408.15006,254.85123 c 0,0 -9.44873,-11.07089 -25.5498,-13.90685 -11.91952,-2.09945 -22.31565,-2.26391 -22.31565,-2.26391 0,0 -14.94728,-72.6257 -89.90945,-71.7982 -66.28824,0.73176 -64.03622,70.50453 -64.03622,70.50453 0,0 -43.22246,-20.76505 -73.09185,24.57956 -47.919681,72.7467 32.17982,96.37776 32.17982,96.37776 0,0 -24.77421,5.51669 -28.29884,36.86934 -5.3984,48.02044 73.66853,54.4177 54.33377,81.17722 -14.69384,20.33644 -33.63519,-15.20051 -33.63519,-15.20051 0,0 -8.73614,48.46576 32.98836,50.45278 34.06532,1.62228 58.86157,-41.39716 58.86157,-41.39716 0,0 38.20313,1.12644 50.24711,-10.14571 14.68356,-13.74258 13.4657,-57.44807 13.4657,-57.44807 l 132.27685,24.25614 c 0,0 29.55732,-42.00191 30.40103,-64.35964 2.42573,-64.28053 -67.91721,-107.69728 -67.91721,-107.69728 z"
       id="path22"
       color="mane-contour" /><g
       id="g30"><path
         style="fill:#24da60;fill-opacity:1;fill-rule:evenodd;stroke:none;stroke-width:5;stroke-linecap:round;stroke-linejoin:miter;stroke-miterlimit:100;stroke-opacity:1"
         d="m 235.5498,348.52223 c 0,0 19.67227,27.63289 18.06644,42.76487 -2.57753,24.28854 -38.79937,34.75845 -38.19108,56.7149 0.35134,12.6816 21.83638,12.2579 20.35333,22.18284 -1.11097,7.43488 -18.45962,4.66712 -19.43858,15.55086 -1.28452,14.28084 31.13311,21.24883 25.15581,25.61319 -2.35682,1.72085 -12.96749,-0.63471 -14.17873,4.3451 -2.58353,10.62177 18.624,14.53016 18.75251,24.92711 0.0648,5.24562 -9.14756,12.80659 -9.14756,12.80659 0,0 24.23973,-1.7136 26.75662,-12.12053 2.00345,-8.28391 -5.78504,-10.46315 -8.69018,-14.86479 -5.84868,-8.86147 24.93112,-1.98226 26.52793,-15.77955 1.15303,-9.96276 -16.23693,-16.00824 -16.23693,-16.00824 0,0 13.10673,-5.89309 14.8648,-11.20577 3.0331,-9.1656 -9.37625,-26.98531 -9.37625,-26.98531 l 27.44269,-20.58202 -11.43445,-100.16584 z"
         id="path30"
         color="mane-main" /><path
         style="display:inline;fill:none;fill-opacity:1;fill-rule:evenodd;stroke:#000000;stroke-width:3;stroke-linecap:round;stroke-linejoin:miter;stroke-miterlimit:100;stroke-dasharray:none;stroke-opacity:1"
         d="m 232.11946,475.21601 c 0,0 -1.29629,7.4453 0.2287,10.86273 5.35113,11.99167 18.26277,12.95297 25.61318,21.95416 4.19843,5.14134 8.00412,12.00617 8.00412,12.00617"
         id="path32"
         color="mane-contour" /><path
         style="fill:none;fill-opacity:1;fill-rule:evenodd;stroke:#000000;stroke-width:5;stroke-linecap:round;stroke-linejoin:miter;stroke-miterlimit:100;stroke-opacity:1"
         d="m 235.5498,348.52223 c 0,0 19.67227,27.63289 18.06644,42.76487 -2.57753,24.28854 -38.79937,34.75845 -38.19108,56.7149 0.35134,12.6816 21.83638,12.2579 20.35333,22.18284 -1.11097,7.43488 -18.45962,4.66712 -19.43858,15.55086 -1.28452,14.28084 31.13311,21.24883 25.15581,25.61319 -2.35682,1.72085 -12.96749,-0.63471 -14.17873,4.3451 -2.58353,10.62177 18.624,14.53016 18.75251,24.92711 0.0648,5.24562 -9.14756,12.80659 -9.14756,12.80659 0,0 24.23973,-1.7136 26.75662,-12.12053 2.00345,-8.28391 -5.78504,-10.46315 -8.69018,-14.86479 -5.84868,-8.86147 24.93112,-1.98226 26.52793,-15.77955 1.15303,-9.96276 -16.23693,-16.00824 -16.23693,-16.00824 0,0 13.10673,-5.89309 14.8648,-11.20577 3.0331,-9.1656 -9.37625,-26.98531 -9.37625,-26.98531 l 27.44269,-20.58202 -11.43445,-100.16584 z"
         id="path31"
         color="mane-contour" /></g></g><g
     id="g24"
     style="display:inline"
     data-layer="700"><path
       style="display:inline;fill:#24c2da;fill-opacity:1;fill-rule:evenodd;stroke:none;stroke-width:5;stroke-linecap:round;stroke-opacity:1"
       d="m 356.29766,256.5892 c 0,0 -64.69868,-35.27562 -110.22816,0.91476 -60.2472,47.88918 -10.5197,108.39864 -10.5197,108.39864 0,0 30.46781,-12.91609 61.28868,-13.72134 30.11839,-0.7869 80.0412,16.00824 80.0412,16.00824 0,0 -2.96595,-10.48249 -3.43033,-17.26603 -0.45744,-6.68217 0.68606,-21.61113 0.68606,-21.61113"
       id="path46"
       color="mane-hl-1" /><path
       style="fill:none;fill-opacity:1;fill-rule:evenodd;stroke:#000000;stroke-width:3;stroke-linecap:round;stroke-linejoin:miter;stroke-miterlimit:100;stroke-dasharray:none;stroke-opacity:1"
       d="m 246.76585,360.2846 c 0,0 -14.2723,-44.25674 -0.64684,-71.15135 20.31388,-40.09653 75.35576,-44.63131 75.35576,-44.63131"
       id="path27"
       color="mane-contour" /><path
       style="display:inline;fill:none;fill-opacity:1;fill-rule:evenodd;stroke:#000000;stroke-width:5;stroke-linecap:round;stroke-opacity:1"
       d="m 356.29766,256.5892 c 0,0 -64.69868,-35.27562 -110.22816,0.91476 -60.2472,47.88918 -10.5197,108.39864 -10.5197,108.39864 0,0 30.46781,-12.91609 61.28868,-13.72134 30.11839,-0.7869 80.0412,16.00824 80.0412,16.00824 0,0 -2.96595,-10.48249 -3.43033,-17.26603 -0.45744,-6.68217 0.68606,-21.61113 0.68606,-21.61113"
       id="path26"
       color="mane-contour" /></g><g
     id="g25"
     style="display:inline"
     data-layer="1300"><g
       id="g38"
       style="display:inline"><path
         style="display:inline;fill:#34da24;fill-opacity:1;fill-rule:evenodd;stroke:none;stroke-width:5;stroke-linecap:round;stroke-opacity:1"
         d="m 356.29766,256.5892 c -37.48877,3.57496 -10.01864,71.29984 8.91888,66.89157 6.5234,-1.51851 8.91887,5.83157 8.91887,5.83157 33.09327,-9.07032 67.93102,61.82198 68.29679,42.24282 0.70756,-37.87457 -14.81512,-64.8767 -21.97157,-84.98355 -3.5555,-9.98958 -1.57504,-15.00549 -1.57504,-15.00549 z"
         id="path36"
         color="mane-main" /><path
         style="display:inline;fill:none;fill-opacity:1;fill-rule:evenodd;stroke:#000000;stroke-width:5;stroke-linecap:round;stroke-opacity:1"
         d="m 374.13541,329.31234 c 33.09327,-9.07032 67.93102,61.82198 68.29679,42.24282 0.70756,-37.87457 -14.81512,-64.8767 -21.97157,-84.98355 -3.5555,-9.98958 -1.57504,-15.00549 -1.57504,-15.00549"
         id="path38"
         color="mane-contour" /></g><path
       style="display:inline;fill:#34da24;fill-opacity:1;fill-rule:evenodd;stroke:none;stroke-width:5;stroke-linecap:round;stroke-opacity:1"
       d="m 356.29766,256.5892 c 0,0 -36.74996,-8.41733 -69.80125,16.76211 -22.4428,17.09758 -29.40188,58.56078 -23.39058,83.71968 0.55927,-0.13769 1.12404,-0.27425 1.69401,-0.40943 9.66709,-2.29271 20.82952,-4.18744 32.03864,-4.4803 30.11839,-0.7869 80.0412,16.00824 80.0412,16.00824 0,0 -2.96595,-10.48249 -3.43033,-17.26603 -0.45744,-6.68217 0.68606,-21.61113 0.68606,-21.61113 0,0 38.85762,65.92181 39.43599,95.19017 0.33845,17.12715 -26.25414,26.28217 -26.51505,43.16676 -0.0937,6.06002 9.03322,15.77955 9.03322,15.77955 0,0 -26.84689,12.96563 -28.35745,25.61318 -1.3947,11.67746 6.74632,13.14962 6.74632,13.14962 0,0 -13.82287,8.06657 -12.23486,18.86686 1.72763,11.74985 23.55498,20.58201 23.55498,20.58201 0,0 -4.72732,-13.70168 -1.94386,-20.46767 6.12188,-14.88097 36.95418,-6.30755 44.59438,-22.75457 3.02362,-6.50892 -8.11846,-17.15168 -8.11846,-17.15168 0,0 17.26086,-10.52192 16.46562,-19.78161 -0.45435,-5.29041 -10.51971,-11.32011 -10.51971,-11.32011 0,0 25.81577,-27.6275 26.18154,-47.20666 0.70756,-37.87457 -36.48394,-91.39675 -43.64039,-111.5036 -3.5555,-9.98958 -9.98384,-19.20989 -9.98384,-19.20989 z"
       id="path23"
       color="mane-main" /><path
       d="m 441.99609,449.7832 c -5.56112,-18.40205 -16.90086,-53.4119 -27.61132,-71.07422 -7.26789,-11.98525 -27.46356,-33.80656 -37.17969,-44.04296 9.19129,16.28889 35.88853,65.61383 36.36719,89.83593 0.33845,17.12715 -26.25472,26.28338 -26.51563,43.16797 -0.0937,6.06002 9.0332,15.7793 9.0332,15.7793 0,0 -26.84686,12.96573 -28.35742,25.61328 -1.3947,11.67746 6.7461,13.14844 6.7461,13.14844 0,0 -13.82239,8.06689 -12.23438,18.86718 1.72763,11.74986 23.55469,20.58204 23.55469,20.58204 0,0 -4.72682,-13.70081 -1.94336,-20.4668 6.12188,-14.88097 36.95355,-6.30884 44.59375,-22.75586 3.02362,-6.50892 -8.11914,-17.15039 -8.11914,-17.15039 0,0 17.26204,-10.52156 16.46679,-19.78125 -0.45434,-5.29041 -10.51953,-11.32031 -10.51953,-11.32031 0,0 8.42586,-9.01905 15.71875,-20.40235 z"
       style="display:inline;fill:#4424da;fill-opacity:1;fill-rule:evenodd;stroke:none;stroke-width:5;stroke-linecap:round"
       id="path29"
       color="mane-hl-2" /><path
       style="fill:none;fill-opacity:1;fill-rule:evenodd;stroke:#000000;stroke-width:3;stroke-linecap:round;stroke-linejoin:miter;stroke-miterlimit:100;stroke-dasharray:none;stroke-opacity:1"
       d="m 368.04657,510.02587 c 0,0 12.1328,-7.48901 21.022,-10.83441 8.98204,-3.38034 21.44254,-4.95679 29.26907,-10.51099 4.99888,-3.54752 13.42174,-13.90686 13.42174,-13.90686"
       id="path33"
       color="mane-contour" /><path
       style="fill:none;fill-opacity:1;fill-rule:evenodd;stroke:#000000;stroke-width:3;stroke-linecap:round;stroke-linejoin:miter;stroke-miterlimit:100;stroke-dasharray:none;stroke-opacity:1"
       d="m 374.19146,522.96248 c 0,0 4.92296,-2.45681 15.20946,-5.84109 6.90682,-2.27237 15.79745,-2.12567 23.53349,-4.02421 7.09332,-1.7408 11.38642,-5.0118 11.38642,-5.0118"
       id="path34"
       color="mane-contour" /><path
       style="display:inline;fill:none;fill-opacity:1;fill-rule:evenodd;stroke:#000000;stroke-width:5;stroke-linecap:round;stroke-opacity:1"
       d="m 263.10583,357.07099 c 0.55927,-0.13769 1.12404,-0.27425 1.69401,-0.40943 9.66709,-2.29271 20.82952,-4.18744 32.03864,-4.4803 30.11839,-0.7869 80.0412,16.00824 80.0412,16.00824 0,0 -2.96595,-10.48249 -3.43033,-17.26603 -0.45744,-6.68217 0.68606,-21.61113 0.68606,-21.61113 0,0 38.85762,65.92181 39.43599,95.19017 0.33845,17.12715 -26.25414,26.28217 -26.51505,43.16676 -0.0937,6.06002 9.03322,15.77955 9.03322,15.77955 0,0 -26.84689,12.96563 -28.35745,25.61318 -1.3947,11.67746 6.74632,13.14962 6.74632,13.14962 0,0 -13.82287,8.06657 -12.23486,18.86686 1.72763,11.74985 23.55498,20.58201 23.55498,20.58201 0,0 -4.72732,-13.70168 -1.94386,-20.46767 6.12188,-14.88097 36.95418,-6.30755 44.59438,-22.75457 3.02362,-6.50892 -8.11846,-17.15168 -8.11846,-17.15168 0,0 17.26086,-10.52192 16.46562,-19.78161 -0.45435,-5.29041 -10.51971,-11.32011 -10.51971,-11.32011 0,0 25.81577,-27.6275 26.18154,-47.20666 0.70756,-37.87457 -36.48394,-91.39675 -43.64039,-111.5036 -3.5555,-9.98958 -3.00882,-18.75251 -3.00882,-18.75251"
       id="path25"
       color="mane-contour" /><path
       style="display:inline;fill:none;fill-opacity:1;fill-rule:evenodd;stroke:#000000;stroke-width:3;stroke-linecap:round;stroke-dasharray:none;stroke-opacity:1"
       d="m 356.29766,256.5892 c 0,0 -36.74996,-8.41733 -69.80125,16.76211 -22.4428,17.09758 -29.40188,58.56078 -23.39058,83.71968"
       id="path47"
       color="mane-contour" /></g><g
     id="g35"
     data-layer="1100"><path
       style="fill:#244dda;fill-opacity:1;fill-rule:evenodd;stroke:none;stroke-width:5;stroke-linecap:round;stroke-linejoin:miter;stroke-miterlimit:100;stroke-dasharray:none;stroke-opacity:1"
       d="m 405.69451,259.33347 c 0,0 15.69626,-65.75835 85.52974,-62.20344 93.27456,4.7482 58.54441,81.41333 58.54441,81.41333 0,0 32.45968,-17.46155 54.8854,-14.17872 56.66303,8.29471 80.46762,57.17408 74.09527,95.59204 -8.49754,51.2304 -81.87071,65.4051 -81.87071,65.4051 0,0 -3.8007,19.19322 -10.06232,25.61318 -7.10355,7.28317 -23.78367,10.5197 -23.78367,10.5197 0,0 22.56623,15.41306 16.92299,27.90007 -20.51881,45.40281 -81.49398,13.80486 -91.47564,45.28045 -3.20128,10.09473 17.38037,23.32629 17.38037,23.32629 0,0 -35.09693,3.72154 -42.53618,-9.14757 -11.21894,-19.40757 12.80659,-47.10995 12.80659,-47.10995 0,0 -29.49158,8.38054 -33.84599,-9.60495 -8.72861,-36.05266 38.87716,-55.34277 38.87716,-55.34277 0,0 -19.16119,0.28472 -24.24105,-14.6361 -5.31054,-15.59839 15.55085,-47.10996 15.55085,-47.10996 0,0 -18.16659,-16.61757 -24.69842,-27.4427 -16.4949,-27.33681 -42.0788,-88.274 -42.0788,-88.274 z"
       id="path35"
       color="mane-main" /><path
       d="m 461.90039,503.69336 c 12.1385,-8.99176 27.4178,-16.51786 34.12565,-24.81858 8.19248,-10.1379 -3.43034,-26.52712 -3.43034,-26.52712 0,0 24.69863,-21.70591 23.78529,-35.2191 -1.86325,-27.56746 -28.12873,-31.78797 -28.12873,-31.78797 0,0 43.8672,-73.30371 21.2667,-98.79229 -23.75042,-26.78544 -77.09799,-30.13815 -100.47711,-20.89495 17.64328,17.66908 28.80442,65.50189 38.73159,81.95407 6.53183,10.82513 24.69922,27.44336 24.69922,27.44336 0,0 -20.86328,31.51099 -15.55274,47.10938 5.07986,14.92082 24.24219,14.63671 24.24219,14.63671 0,10e-6 -47.60556,19.28914 -38.87695,55.3418 2.27475,9.39566 11.40859,11.59615 19.61523,11.55469 z"
       style="fill:#b2da24;fill-opacity:1;fill-rule:evenodd;stroke:none;stroke-width:5;stroke-linecap:round;stroke-miterlimit:100"
       id="path40"
       color="mane-hl-2" /><path
       d="m 476.40039,556.65625 c -2.5836,-11.01519 -3.96344,-24.02352 0.64453,-32.5 9.7747,-17.98082 48.45394,-13.91445 55.34375,-34.76172 2.93123,-8.86935 -7.77539,-26.07031 -7.77539,-26.07031 0,0 24.50189,1.16467 30.1875,-18.29492 4.46423,-15.27928 -18.29687,-32.01758 -18.29687,-32.01758 0,0 44.10039,-17.37348 38.8789,-54.42774 -3.93131,-27.89851 -55.80078,-29.27148 -55.80078,-29.27148 0,0 42.23138,-88.12866 -50.3125,-91.47656 -28.65864,-1.03677 -51.47313,17.55392 -61.20898,27.05859 1.76494,4.11754 75.87848,-4.4456 99.6289,22.33984 22.6005,25.48858 -22.41015,99.70704 -22.41015,99.70704 0,0 26.49417,3.07707 28.35742,30.64453 0.91334,13.51319 -21.04102,34.76172 -21.04102,34.76172 0,0 8.19248,14.10233 0,24.24023 -6.70785,8.30072 -18.55681,18.11371 -30.69531,27.10547 7.5028,-0.0379 14.23047,-1.94922 14.23047,-1.94922 0,0 -24.02558,27.70181 -12.80664,47.10938 2.31329,4.00174 7.30109,6.39869 13.07617,7.80273 z"
       style="fill:#da8824;fill-opacity:1;fill-rule:evenodd;stroke:none;stroke-width:5;stroke-linecap:round;stroke-miterlimit:100"
       id="path41"
       color="mane-hl-1" /><path
       style="fill:none;fill-opacity:1;fill-rule:evenodd;stroke:#000000;stroke-width:3;stroke-linecap:round;stroke-linejoin:miter;stroke-miterlimit:100;stroke-dasharray:none;stroke-opacity:1"
       d="m 567.60641,271.68268 c 0,0 49.52942,11.47277 61.74607,48.02472 13.89233,41.56554 -13.72135,99.70846 -13.72135,99.70846"
       id="path42"
       color="mane-contour" /><path
       style="fill:none;fill-opacity:1;fill-rule:evenodd;stroke:#000000;stroke-width:3;stroke-linecap:round;stroke-linejoin:miter;stroke-miterlimit:100;stroke-dasharray:none;stroke-opacity:1"
       d="m 636.67053,275.34171 c 0,0 18.60155,28.50751 21.49678,44.82307 6.92305,39.01363 -13.72135,85.98711 -13.72135,85.98711"
       id="path43"
       color="mane-contour" /><path
       style="fill:none;fill-opacity:1;fill-rule:evenodd;stroke:#000000;stroke-width:3;stroke-linecap:round;stroke-linejoin:miter;stroke-miterlimit:100;stroke-dasharray:none;stroke-opacity:1"
       d="m 595.73518,425.13309 c 0,0 -3.14212,-19.85429 -10.97708,-22.18284 -6.15272,-1.8286 -9.95371,2.12593 -9.14756,8.00411 1.08396,7.90396 20.12464,14.17873 20.12464,14.17873 z"
       id="path44"
       color="mane-contour" /><path
       style="fill:none;fill-opacity:1;fill-rule:evenodd;stroke:#000000;stroke-width:5;stroke-linecap:round;stroke-linejoin:miter;stroke-miterlimit:100;stroke-dasharray:none;stroke-opacity:1"
       d="m 405.69451,259.33347 c 0,0 15.69626,-65.75835 85.52974,-62.20344 93.27456,4.7482 58.54441,81.41333 58.54441,81.41333 0,0 32.45968,-17.46155 54.8854,-14.17872 56.66303,8.29471 80.46762,57.17408 74.09527,95.59204 -8.49754,51.2304 -81.87071,65.4051 -81.87071,65.4051 0,0 -3.8007,19.19322 -10.06232,25.61318 -7.10355,7.28317 -23.78367,10.5197 -23.78367,10.5197 0,0 22.56623,15.41306 16.92299,27.90007 -20.51881,45.40281 -81.49398,13.80486 -91.47564,45.28045 -3.20128,10.09473 17.38037,23.32629 17.38037,23.32629 0,0 -35.09693,3.72154 -42.53618,-9.14757 -11.21894,-19.40757 12.80659,-47.10995 12.80659,-47.10995 0,0 -29.49158,8.38054 -33.84599,-9.60495 -8.72861,-36.05266 38.87716,-55.34277 38.87716,-55.34277 0,0 -19.16119,0.28472 -24.24105,-14.6361 -5.31054,-15.59839 15.55085,-47.10996 15.55085,-47.10996 0,0 -18.16659,-16.61757 -24.69842,-27.4427"
       id="path45"
       color="mane-contour" /></g></svg>
