<?xml version="1.0" encoding="UTF-8" standalone="no"?>
<!-- Created with Inkscape (http://www.inkscape.org/) -->

<svg
   width="1000"
   height="1000"
   viewBox="0 0 1000 1000"
   version="1.1"
   id="svg1"
   xml:space="preserve"
   sodipodi:docname="018.svg"
   inkscape:version="1.4.2 (f4327f4, 2025-05-13)"
   xmlns:inkscape="http://www.inkscape.org/namespaces/inkscape"
   xmlns:sodipodi="http://sodipodi.sourceforge.net/DTD/sodipodi-0.dtd"
   xmlns="http://www.w3.org/2000/svg"
   xmlns:svg="http://www.w3.org/2000/svg"><sodipodi:namedview
     id="namedview1"
     pagecolor="#ffffff"
     bordercolor="#000000"
     borderopacity="0.25"
     inkscape:showpageshadow="2"
     inkscape:pageopacity="0.0"
     inkscape:pagecheckerboard="0"
     inkscape:deskcolor="#d1d1d1"
     inkscape:zoom="2.1863742"
     inkscape:cx="366.13129"
     inkscape:cy="451.20364"
     inkscape:window-width="1920"
     inkscape:window-height="991"
     inkscape:window-x="-9"
     inkscape:window-y="-9"
     inkscape:window-maximized="1"
     inkscape:current-layer="svg1" /><defs
     id="defs1" /><g
     id="g6"
     data-layer="380"
     style="display:inline"><path
       style="opacity:1;fill:#ff2d00;fill-rule:evenodd;stroke:none;stroke-width:5;stroke-linecap:round;stroke-miterlimit:100;stroke-dasharray:none;stroke-opacity:1"
       d="m 462.48383,320.18111 c 0,0 -3.44855,-40.86864 -45.27813,-67.91721 -41.34149,-26.73296 -86.99872,-22.63906 -86.99872,-22.63906 0,0 31.15766,11.49466 40.1035,26.19664 -34.53787,-16.93443 -100.84121,-23.2037 -145.21346,23.6093 -42.71772,45.06747 25.89234,167.99207 -6.14489,176.26133 -14.73694,3.80381 -21.26344,-15.43475 -22.96248,-33.9586 -14.45849,12.32717 -15.71867,73.03539 51.74644,49.15912 -6.0902,17.30686 -42.03098,15.444 -53.68693,7.11513 29.90734,56.40813 81.17723,28.13713 81.17723,28.13713 0,0 -19.61199,24.37844 9.37904,45.60155 -9.05011,-29.86852 4.8998,-32.39258 29.10738,-45.27813 31.59776,-16.8193 55.30401,-78.26649 55.30401,-78.26649 z"
       id="path2"
       sodipodi:nodetypes="csccsscccccscc"
       color="mane-main" /><path
       d="m 462.53103,319.56788 c -3.88926,-15.748 -20.01936,-61.36466 -36.33393,-58.79266 -13.43426,2.11791 -35.72239,6.87577 -45.71599,9.42916 -104.97548,26.82155 -22.35112,72.95427 -44.77603,94.60812 -29.72351,28.70148 -16.29614,86.33834 -45.92578,115.13672 -15.07674,14.65375 -35.04214,26.39602 -47.90625,33.14648 18.43568,1.27566 33.35351,-6.95117 33.35351,-6.95117 0,0 -19.61212,24.37845 9.37891,45.60156 -9.05011,-29.86852 4.89984,-32.39179 29.10742,-45.27734 31.59776,-16.8193 55.30469,-78.26758 55.30469,-78.26758 z"
       style="opacity:1;fill:#0039ff;fill-opacity:1;fill-rule:evenodd;stroke:none;stroke-width:5;stroke-linecap:round;stroke-miterlimit:100"
       id="path24"
       sodipodi:nodetypes="csssscccscc"
       color="mane-hl-1" /><path
       d="m 442.07031,271.46875 c -6.7165,1.6818 -23.48319,5.23743 -33.49297,11.06065 -25.30174,14.71936 -6.66334,75.12532 -1.91523,101.93935 l 55.86914,-64.90039 C 459.94417,309.093 451.94136,285.40188 442.07031,271.46875 Z"
       style="display:inline;opacity:1;fill:#cdff00;fill-opacity:1;fill-rule:evenodd;stroke:none;stroke-width:5;stroke-linecap:round;stroke-miterlimit:100"
       id="path32"
       sodipodi:nodetypes="csccc"
       color="mane-hl-2" /><path
       style="opacity:1;fill:none;fill-rule:evenodd;stroke:#000000;stroke-width:5;stroke-linecap:round;stroke-miterlimit:100;stroke-dasharray:none;stroke-opacity:1"
       d="m 462.48383,320.18111 c 0,0 -3.44855,-40.86864 -45.27813,-67.91721 -41.34149,-26.73296 -86.99872,-22.63906 -86.99872,-22.63906 0,0 31.15766,11.49466 40.1035,26.19664 -34.53787,-16.93443 -100.84121,-23.2037 -145.21346,23.6093 -42.71772,45.06747 25.89234,167.99207 -6.14489,176.26133 -14.73694,3.80381 -21.26344,-15.43475 -22.96248,-33.9586 -14.45849,12.32717 -15.71867,73.03539 51.74644,49.15912 -6.0902,17.30686 -42.03098,15.444 -53.68693,7.11513 29.90734,56.40813 81.17723,28.13713 81.17723,28.13713 0,0 -19.61199,24.37844 9.37904,45.60155 -9.05011,-29.86852 4.8998,-32.39258 29.10738,-45.27813 31.59776,-16.8193 55.30401,-78.26649 55.30401,-78.26649 z"
       id="path25"
       sodipodi:nodetypes="csccsscccccscc"
       color="mane-contour" /></g><g
     id="g4"
     transform="translate(6.4032956,28.586141)"
     data-layer="259"
     style="display:inline"><path
       style="opacity:1;fill:#0039ff;fill-opacity:1;fill-rule:evenodd;stroke:none;stroke-width:5;stroke-linecap:round;stroke-miterlimit:100;stroke-dasharray:none;stroke-opacity:1"
       d="m 304.84261,577.66874 c 45.23321,48.45216 14.42732,87.10066 -1.82952,85.07235 11.96482,-14.36518 21.19703,-29.2069 7.77544,-48.02471 0.5702,22.35176 -3.4089,29.27825 -17.83775,34.76074 -15.08062,5.73013 -32.68136,-7.72512 -39.33454,4.11641 -4.3449,7.7332 2.47732,16.70699 12.80659,23.32629 -17.26379,2.8661 -33.27923,-10.27163 -39.33452,-24.24105 -5.02502,-11.59259 0.008,-26.86775 4.34509,-32.24517 -2.99485,8.17602 -5.11989,16.53449 -6.17461,25.3845 -17.94161,-24.2895 1.13726,-55.13572 13.95004,-65.63379 -7.2205,-0.33207 -21.64174,8.30408 -29.95828,17.60907 -0.15747,-26.44554 59.67627,-58.59632 95.59206,-20.12464 z"
       id="path4"
       sodipodi:nodetypes="sccsscsccccs"
       color="mane-main;hue+40" /><path
       d="m 282.28811,562.84159 c -1.01375,7.69467 -2.85998,17.57548 -6.02734,23.06055 -10.3293,17.88771 -32.74314,19.99893 -44.30664,36.22266 -0.94421,1.32473 -1.83716,2.93382 -2.67383,4.71875 -1.87288,6.13881 -3.24061,12.42236 -4.02149,18.97461 -0.005,-0.007 -0.0106,-0.0127 -0.0156,-0.0195 0.30357,2.36418 0.89528,4.68827 1.8457,6.88086 6.05529,13.96942 22.0702,27.10634 39.33399,24.24024 -10.32927,-6.6193 -17.15154,-15.59297 -12.80664,-23.32617 6.65318,-11.84153 24.25336,1.61294 39.33398,-4.11719 14.42885,-5.48249 18.40809,-12.40801 17.83789,-34.75977 13.42159,18.81781 4.18943,33.66021 -7.77539,48.02539 16.25684,2.02831 47.06329,-36.62205 1.83008,-85.07421 -6.8435,-7.33051 -14.55491,-12.09576 -22.55469,-14.82618 z"
       style="display:inline;opacity:1;fill:#ffec00;fill-opacity:1;fill-rule:evenodd;stroke:none;stroke-width:5;stroke-linecap:round;stroke-miterlimit:100"
       id="path11"
       color="mane-hl-1;hue+40" /><path
       d="m 316.28125,611.98047 c -4.19835,13.70463 -12.02476,35.0475 -22.1875,43.90039 -12.47552,10.86759 -34.70299,3.77218 -47.56641,14.17773 -4.01237,3.24571 -7.7857,9.3349 -10.86523,15.4668 7.1867,12.23782 21.67333,22.55221 37.16406,19.98047 -10.32927,-6.6193 -17.15154,-15.59297 -12.80664,-23.32617 6.65318,-11.84153 24.25337,1.61294 39.33399,-4.11719 14.42885,-5.48249 18.40809,-12.40801 17.83789,-34.75977 13.42159,18.81781 4.18943,33.66021 -7.77539,48.02539 15.61107,1.94775 44.63795,-33.61483 6.86523,-79.34765 z"
       style="display:inline;opacity:1;fill:#00ff29;fill-opacity:1;fill-rule:evenodd;stroke:none;stroke-width:5;stroke-linecap:round;stroke-miterlimit:100"
       id="path12"
       transform="translate(-6.4032956,-28.586141)"
       color="mane-hl-2;hue+40" /><path
       style="opacity:1;fill:none;fill-opacity:1;fill-rule:evenodd;stroke:#000000;stroke-width:5;stroke-linecap:round;stroke-miterlimit:100;stroke-dasharray:none;stroke-opacity:1"
       d="m 304.84261,577.66874 c 45.23321,48.45216 14.42732,87.10066 -1.82952,85.07235 11.96482,-14.36518 21.19703,-29.2069 7.77544,-48.02471 0.5702,22.35176 -3.4089,29.27825 -17.83775,34.76074 -15.08062,5.73013 -32.68136,-7.72512 -39.33454,4.11641 -4.3449,7.7332 2.47732,16.70699 12.80659,23.32629 -17.26379,2.8661 -33.27923,-10.27163 -39.33452,-24.24105 -5.02502,-11.59259 -1.0211,-19.89274 0.22868,-23.78368 -2.42312,3.71659 -2.71865,8.75907 -2.85861,16.69432 -17.94161,-24.2895 1.93767,-54.90703 14.75045,-65.4051 -7.2205,-0.33207 -21.64174,8.30408 -29.95828,17.60907 -0.15747,-26.44554 59.67627,-58.59632 95.59206,-20.12464 z"
       id="path13"
       sodipodi:nodetypes="sccsscsccccs"
       color="mane-contour;hue+40" /></g><g
     id="g5"
     data-layer="260"
     style="display:inline"><path
       style="opacity:1;fill:#0039ff;fill-opacity:1;fill-rule:evenodd;stroke:none;stroke-width:5;stroke-linecap:round;stroke-miterlimit:100;stroke-dasharray:none;stroke-opacity:1"
       d="m 437.4823,342.805 c 0,0 23.3355,-27.88874 38.87716,-21.0394 19.0601,8.39996 9.33325,36.00876 11.43445,54.42801 3.43939,30.15001 11.89653,74.03432 -3.65903,105.65438 -42.77448,86.94848 -141.27548,150.12022 -179.52096,138.8143 -10.87795,-3.21568 -18.71515,-10.19515 -15.77956,-25.1558 4.01157,-20.44415 31.07183,-26.80969 45.28045,-67.46329 C 357.58859,460.88018 437.4823,342.805 437.4823,342.805 Z"
       id="path3"
       sodipodi:nodetypes="cssssssc"
       color="mane-main;hue+40" /><path
       d="m 487.62109,374.30469 c -9.66738,8.80341 -27.12933,24.74633 -36.45703,33.52148 -43.90581,41.30495 -63.59653,90.01895 -103.16992,132.27735 -11.16667,11.92432 -31.19696,25.60725 -46.01953,34.97851 -6.47402,6.58371 -11.57141,12.42663 -13.14063,20.42383 -2.93559,14.96065 4.90135,21.94057 15.7793,25.15625 38.24548,11.30592 136.74701,-51.86597 179.52149,-138.81445 15.55556,-31.62006 7.09759,-75.50429 3.6582,-105.6543 -0.0707,-0.61945 -0.12642,-1.24952 -0.17188,-1.88867 z"
       style="opacity:1;fill:#fff300;fill-opacity:1;fill-rule:evenodd;stroke:none;stroke-width:5;stroke-linecap:round;stroke-miterlimit:100"
       id="path19"
       color="mane-hl-1;hue+40" /><path
       d="m 492.92773,444.59766 c -11.48005,9.41669 -45.82393,37.85333 -63.10937,55.07812 -33.49751,33.37996 -58.92634,75.11184 -93.4668,106.72852 -11.03226,10.0984 -21.97324,13.64562 -29.97265,14.71679 39.42933,8.94123 135.62452,-53.63229 177.75586,-139.27343 5.53631,-11.25376 8.03122,-24.06132 8.79296,-37.25 z"
       style="opacity:1;fill:#00ff11;fill-opacity:1;fill-rule:evenodd;stroke:none;stroke-width:5;stroke-linecap:round;stroke-miterlimit:100"
       id="path21"
       color="mane-hl-2;hue+40" /><path
       style="opacity:1;fill:none;fill-opacity:1;fill-rule:evenodd;stroke:#000000;stroke-width:5;stroke-linecap:round;stroke-miterlimit:100;stroke-dasharray:none;stroke-opacity:1"
       d="m 437.4823,342.805 c 0,0 23.3355,-27.88874 38.87716,-21.0394 19.0601,8.39996 9.33325,36.00876 11.43445,54.42801 3.43939,30.15001 11.89653,74.03432 -3.65903,105.65438 -42.77448,86.94848 -141.27548,150.12022 -179.52096,138.8143 -10.87795,-3.21568 -18.71515,-10.19515 -15.77956,-25.1558 4.01157,-20.44415 31.07183,-26.80969 45.28045,-67.46329 C 357.58859,460.88018 437.4823,342.805 437.4823,342.805 Z"
       id="path22"
       sodipodi:nodetypes="cssssssc"
       color="mane-contour;hue+40" /></g><g
     id="g10"
     data-layer="900"
     style="display:inline"><path
       d="m 381.03125,270.12305 c -16.77466,2.94688 -51.30127,1.35265 -76.41792,12.53729 -54.58738,24.30817 -59.50073,87.53271 -75.94536,100.41583 -1.56137,4.45555 -2.26563,7.06836 -2.26563,7.06836 0,0 58.75455,6.93935 92.84766,-36.13281 -10.77089,21.02528 -49.47995,23.50275 -55.80078,75.4668 26.69551,-43.10482 55.55658,-15.32654 75.92578,-45.28125 l 23.32617,-34.30274 c 0,0 7.96788,24.27359 -14.63672,49.85352 52.35697,-11.25568 40.31029,-68.37111 65.86328,-91.93164 7.67198,-7.07378 20.58204,-8.69141 20.58204,-8.69141 0,0 -6.71722,-25.84908 -53.47852,-29.00195 z"
       style="display:inline;opacity:1;fill:#0039ff;fill-rule:evenodd;stroke:none;stroke-width:5;stroke-linecap:round;stroke-miterlimit:100"
       id="path27"
       sodipodi:nodetypes="cscccccccscc"
       color="mane-hl-1" /><path
       d="m 415.75391,279.08398 c -13.97335,3.58542 -30.12162,9.38414 -43.44727,18.66993 -24.88946,17.34386 -37.72815,48.03165 -60.83203,67.6914 -6.71711,5.71578 -16.50105,12.43183 -26.4082,18.76172 -10.01996,9.47291 -18.87236,22.70602 -21.61719,45.27149 26.69551,-43.10482 55.55658,-15.32654 75.92578,-45.28125 l 23.32617,-34.30274 c 0,0 7.96788,24.27359 -14.63672,49.85352 52.35697,-11.25568 40.31029,-68.37111 65.86328,-91.93164 7.67198,-7.07378 20.58204,-8.69141 20.58204,-8.69141 0,0 -2.97676,-11.45238 -18.75586,-20.04102 z"
       style="display:inline;opacity:1;fill:#00ff1c;fill-opacity:1;fill-rule:evenodd;stroke-width:5;stroke-linecap:round;stroke-miterlimit:100"
       id="path29"
       color="mane-hl-2" /><path
       style="opacity:1;fill:none;fill-opacity:1;fill-rule:evenodd;stroke:#000000;stroke-width:5;stroke-linecap:round;stroke-miterlimit:100;stroke-dasharray:none;stroke-opacity:1"
       d="m 246.55108,352.04954 c 0.97519,-1.64088 6.76954,-17.80345 8.71007,-20.33543 -9.39837,18.37223 -13.54173,41.25515 -29.31629,56.14265 0,0 59.21205,9.22617 93.30516,-33.84599 -10.77089,21.02528 -49.47932,23.50336 -55.80015,75.46741 26.69551,-43.10482 55.55559,-15.32573 75.92479,-45.28044 l 23.3263,-34.30338 c 0,0 7.96849,24.27431 -14.63611,49.85424 52.35697,-11.25568 40.30948,-68.3725 65.86247,-91.93303 7.67198,-7.07378 20.58203,-8.69019 20.58203,-8.69019"
       id="path30"
       sodipodi:nodetypes="cccccsccsc"
       color="mane-contour" /></g></svg>
