<?xml version="1.0" encoding="UTF-8" standalone="no"?>
<!-- Created with Inkscape (http://www.inkscape.org/) -->

<svg
   width="1000"
   height="1000"
   viewBox="0 0 1000 1000"
   version="1.1"
   id="svg1"
   xml:space="preserve"
   sodipodi:docname="020.svg"
   inkscape:version="1.4.2 (f4327f4, 2025-05-13)"
   xmlns:inkscape="http://www.inkscape.org/namespaces/inkscape"
   xmlns:sodipodi="http://sodipodi.sourceforge.net/DTD/sodipodi-0.dtd"
   xmlns="http://www.w3.org/2000/svg"
   xmlns:svg="http://www.w3.org/2000/svg"><sodipodi:namedview
     id="namedview1"
     pagecolor="#ffffff"
     bordercolor="#000000"
     borderopacity="0.25"
     inkscape:showpageshadow="2"
     inkscape:pageopacity="0.0"
     inkscape:pagecheckerboard="0"
     inkscape:deskcolor="#d1d1d1"
     inkscape:zoom="1.7672769"
     inkscape:cx="334.69571"
     inkscape:cy="368.64625"
     inkscape:window-width="1920"
     inkscape:window-height="991"
     inkscape:window-x="-9"
     inkscape:window-y="-9"
     inkscape:window-maximized="1"
     inkscape:current-layer="svg1" /><defs
     id="defs1" /><g
     id="g20"
     style="display:inline"
     data-layer="260"><g
       id="g27"><path
         style="opacity:1;fill:#f5ff00;fill-opacity:1;fill-rule:evenodd;stroke:none;stroke-width:5;stroke-linecap:round;stroke-miterlimit:100;stroke-dasharray:none;stroke-opacity:1"
         d="m 441.82786,307.80248 c 9.13143,4.13815 35.88896,19.88548 65.21808,15.50431 -7.37692,7.4675 -23.7828,14.36714 -28.80798,16.30451 6.75235,1.26652 20.44224,-0.43395 25.80715,-2.60072 -3.97171,32.8079 -31.48596,67.55885 -38.60238,106.86982 -2.11029,11.65723 -5.70302,31.06104 -4.76566,42.06373 -2.19115,0.65191 -5.58421,2.22742 -6.33709,2.80168 0.56495,1.10483 5.21611,5.50494 6.95897,6.65305 -8.1958,6.19938 -38.67641,1.25597 -38.67641,1.25597 z"
         id="path27"
         sodipodi:nodetypes="ccccsccccc"
         color="mane-main" /><path
         d="m 487.37109,384.9043 c -8.78655,3.25951 -20.22654,6.42245 -31.75976,6.55468 -6.22046,0.0713 -14.20428,0.60192 -22.42578,1.32032 l -3.89453,38.30859 c 10.56664,-0.74915 21.46499,-1.11438 29.39648,-0.37695 2.93668,0.27303 6.39685,0.0209 10.05273,-0.55664 4.65507,-15.74184 11.88547,-30.76456 18.63086,-45.25 z"
         style="opacity:1;fill:#ff2f00;fill-rule:evenodd;stroke:none;stroke-width:3;stroke-linecap:round;stroke-miterlimit:100;stroke-dasharray:none;fill-opacity:1"
         id="path29"
         color="mane-hl-1" /><path
         style="opacity:1;fill:none;fill-opacity:1;fill-rule:evenodd;stroke:#000000;stroke-width:5;stroke-linecap:round;stroke-miterlimit:100;stroke-dasharray:none;stroke-opacity:1"
         d="m 441.82786,307.80248 c 9.13143,4.13815 35.88896,19.88548 65.21808,15.50431 -7.37692,7.4675 -23.7828,14.36714 -28.80798,16.30451 6.75235,1.26652 20.44224,-0.43395 25.80715,-2.60072 -3.97171,32.8079 -31.48596,67.55885 -38.60238,106.86982 -2.11029,11.65723 -5.70302,31.06104 -4.76566,42.06373 -2.19115,0.65191 -5.58421,2.22742 -6.33709,2.80168 0.56495,1.10483 5.21611,5.50494 6.95897,6.65305 -8.1958,6.19938 -38.67641,1.25597 -38.67641,1.25597 z"
         id="path30"
         sodipodi:nodetypes="ccccsccccc"
         color="mane-contour" /><path
         d="m 487.37109,384.9043 c -8.78655,3.25951 -20.22654,6.42245 -31.75976,6.55468 -6.22046,0.0713 -14.20428,0.60192 -22.42578,1.32032 l -3.89453,38.30859 c 10.56664,-0.74915 21.46499,-1.11438 29.39648,-0.37695 2.93668,0.27303 6.39685,0.0209 10.05273,-0.55664 4.65507,-15.74184 11.88547,-30.76456 18.63086,-45.25 z"
         style="opacity:1;fill:none;fill-rule:evenodd;stroke:#000000;stroke-width:3;stroke-linecap:round;stroke-miterlimit:100;stroke-dasharray:none"
         id="path31"
         color="mane-contour" /></g><g
       id="g23"><path
         style="opacity:1;fill:#ff2f00;fill-opacity:1;fill-rule:evenodd;stroke:none;stroke-width:4.10131;stroke-linecap:round;stroke-miterlimit:100;stroke-dasharray:none;stroke-opacity:1"
         d="m 297.47658,343.13431 c 0,0 -43.79124,-5.58229 -52.81464,-25.03626 -5.90693,-12.73502 -0.66617,-28.92227 20.00554,-47.11124 2.16753,36.64716 32.8091,72.1475 32.8091,72.1475 z"
         id="path25"
         sodipodi:nodetypes="cscc"
         color="mane-hl-1" /><path
         style="opacity:1;fill:none;fill-opacity:1;fill-rule:evenodd;stroke:#000000;stroke-width:4.10131;stroke-linecap:round;stroke-miterlimit:100;stroke-dasharray:none;stroke-opacity:1"
         d="m 297.47658,343.13431 c 0,0 -43.79124,-5.58229 -52.81464,-25.03626 -5.90693,-12.73502 -0.66617,-28.92227 20.00554,-47.11124 2.16753,36.64716 32.8091,72.1475 32.8091,72.1475 z"
         id="path26"
         sodipodi:nodetypes="cscc"
         color="mane-contour" /><path
         style="opacity:1;fill:#ff9500;fill-opacity:1;fill-rule:evenodd;stroke:none;stroke-width:5;stroke-linecap:round;stroke-miterlimit:100;stroke-dasharray:none;stroke-opacity:1"
         d="m 294.08152,327.29072 c 0,0 -43.79124,-8.29672 -52.81464,-37.21031 -5.90693,-18.92751 -0.66617,-42.98593 20.00554,-70.01941 2.16753,54.4671 32.8091,107.22972 32.8091,107.22972 z"
         id="path23"
         sodipodi:nodetypes="cscc"
         color="mane-hl-2" /><path
         style="opacity:1;fill:none;fill-opacity:1;fill-rule:evenodd;stroke:#000000;stroke-width:5;stroke-linecap:round;stroke-miterlimit:100;stroke-dasharray:none;stroke-opacity:1"
         d="m 294.08152,327.29072 c 0,0 -43.79124,-8.29672 -52.81464,-37.21031 -5.90693,-18.92751 -0.66617,-42.98593 20.00554,-70.01941 2.16753,54.4671 32.8091,107.22972 32.8091,107.22972 z"
         id="path24"
         sodipodi:nodetypes="cscc"
         color="mane-contour" /></g><g
       id="g22"><path
         style="opacity:1;fill:#ecff00;fill-opacity:1;fill-rule:evenodd;stroke:none;stroke-width:5;stroke-linecap:round;stroke-miterlimit:100;stroke-dasharray:none;stroke-opacity:1"
         d="m 305.68473,324.08984 c 0,0 -68.21615,-14.54078 -52.01441,-69.6193 16.3302,-55.51521 108.68877,-27.67252 137.63816,-65.61819 5.22078,61.94456 -38.91234,100.97549 -85.62375,135.23749 z"
         id="path20"
         sodipodi:nodetypes="cscc"
         color="mane-main" /><path
         style="opacity:1;fill:none;fill-opacity:1;fill-rule:evenodd;stroke:#000000;stroke-width:3;stroke-linecap:round;stroke-miterlimit:100;stroke-dasharray:none;stroke-opacity:1"
         d="m 305.88479,218.06045 c 0,0 -37.03041,13.54132 -41.01137,50.01386 -3.30315,30.2626 36.21004,55.41536 36.21004,55.41536"
         id="path21"
         sodipodi:nodetypes="csc"
         color="mane-contour" /><path
         style="opacity:1;fill:none;fill-opacity:1;fill-rule:evenodd;stroke:#000000;stroke-width:5;stroke-linecap:round;stroke-miterlimit:100;stroke-dasharray:none;stroke-opacity:1"
         d="m 305.68473,324.08984 c 0,0 -68.21615,-14.54078 -52.01441,-69.6193 16.3302,-55.51521 108.68877,-27.67252 137.63816,-65.61819 5.22078,61.94456 -38.91234,100.97549 -85.62375,135.23749 z"
         id="path22"
         sodipodi:nodetypes="cscc"
         color="mane-contour" /></g></g><g
     id="g3"
     style="display:inline"
     data-layer="900"><path
       style="display:inline;opacity:1;fill:#ecff00;fill-opacity:1;fill-rule:evenodd;stroke:none;stroke-width:5;stroke-linecap:round;stroke-miterlimit:100;stroke-dasharray:none"
       d="m 289.97781,315.591 c 0,0 -32.96693,-62.26475 33.84599,-90.10352 109.69474,-45.70622 151.76245,86.38241 197.58742,64.49033 -27.65086,56.9855 -120.38189,7.74226 -167.71503,4.93412 -21.83622,-1.29547 -47.52955,11.61333 -63.71838,20.67907 z"
       id="path2"
       sodipodi:nodetypes="cscsc"
       color="mane-main" /><path
       d="m 469.80469,317.33789 c -32.33243,-18.33341 -48.45364,-65.4036 -104.9043,-59.26562 -45.07718,4.90131 -59.33614,39.22555 -62.95703,51.14648 15.37773,-7.70138 34.73596,-15.31614 51.75195,-14.30664 29.87662,1.77249 77.84134,22.04415 116.10938,22.42578 z"
       style="opacity:1;fill:#ff9500;fill-opacity:1;fill-rule:evenodd;stroke:none;stroke-width:3;stroke-linecap:round;stroke-miterlimit:100"
       id="path13"
       color="mane-hl-2" /><path
       d="m 469.80469,317.33789 c -32.33243,-18.33341 -48.45364,-65.4036 -104.9043,-59.26562 -45.07718,4.90131 -59.33614,39.22555 -62.95703,51.14648 15.37773,-7.70138 34.73596,-15.31614 51.75195,-14.30664 29.87662,1.77249 77.84134,22.04415 116.10938,22.42578 z"
       style="opacity:1;fill:none;fill-rule:evenodd;stroke:#000000;stroke-width:3;stroke-linecap:round;stroke-miterlimit:100"
       id="path18"
       color="mane-contour" /><path
       style="opacity:1;fill:none;fill-rule:evenodd;stroke:#000000;stroke-width:5;stroke-linecap:round;stroke-miterlimit:100;stroke-dasharray:none"
       d="m 289.97781,315.591 c 0,0 -32.96693,-62.26475 33.84599,-90.10352 109.69474,-45.70622 151.76245,86.38241 197.58742,64.49033 -27.65086,56.9855 -120.38189,7.74226 -167.71503,4.93412 -21.83622,-1.29547 -47.52955,11.61333 -63.71838,20.67907 z"
       id="path19"
       sodipodi:nodetypes="cscsc"
       color="mane-contour" /></g><g
     id="g4"
     style="display:inline"
     inkscape:label="g4"
     data-layer="901"><path
       style="opacity:1;fill:#ff9500;fill-opacity:1;fill-rule:evenodd;stroke:none;stroke-width:5;stroke-linecap:round;stroke-miterlimit:100;stroke-dasharray:none"
       d="m 295.00898,316.04838 c 0,0 -3.28467,-52.86977 36.13288,-53.05587 41.32524,-0.19511 54.64431,67.97625 14.6361,93.76253 3.48163,-16.67057 2.03294,-36.19075 -12.80659,-46.1952 -10.60146,-7.14725 -37.96239,5.48854 -37.96239,5.48854 z"
       id="path3"
       sodipodi:nodetypes="cscsc"
       color="mane-main" /><path
       d="m 331.14258,262.99219 c -39.41755,0.1861 -36.13281,53.05664 -36.13281,53.05664 0,0 0.1796,-0.0837 0.51562,-0.23242 3.66679,-11.10282 14.41971,-35.84612 37.91602,-38.00196 15.28575,-1.4025 25.62204,4.27579 32.4375,11.19922 -5.87104,-14.97834 -18.0092,-26.10046 -34.73633,-26.02148 z"
       style="opacity:1;fill:#00ff3a;fill-opacity:1;fill-rule:evenodd;stroke:none;stroke-width:5;stroke-linecap:round;stroke-miterlimit:100"
       id="path5"
       color="mane-hl-1" /><path
       d="m 331.14258,262.99219 c -39.41755,0.1861 -36.13281,53.05664 -36.13281,53.05664 0,0 0.1796,-0.0837 0.51562,-0.23242 3.66679,-11.10282 14.41971,-35.84612 37.91602,-38.00196 15.28575,-1.4025 25.62204,4.27579 32.4375,11.19922 -5.87104,-14.97834 -18.0092,-26.10046 -34.73633,-26.02148 z"
       style="display:inline;opacity:1;fill:none;fill-rule:evenodd;stroke:#000000;stroke-width:3;stroke-linecap:round;stroke-miterlimit:100;stroke-dasharray:none"
       id="path10"
       color="mane-contour" /><path
       style="opacity:1;fill:none;fill-rule:evenodd;stroke:#000000;stroke-width:5;stroke-linecap:round;stroke-miterlimit:100;stroke-dasharray:none"
       d="m 295.00898,316.04838 c 0,0 -3.28467,-52.86977 36.13288,-53.05587 41.32524,-0.19511 54.64431,67.97625 14.6361,93.76253 3.48163,-16.67057 2.03294,-36.19075 -12.80659,-46.1952 -10.60146,-7.14725 -37.96239,5.48854 -37.96239,5.48854 z"
       id="path11"
       sodipodi:nodetypes="cscsc"
       color="mane-contour" /></g></svg>
