<?xml version="1.0" encoding="UTF-8" standalone="no"?>
<!-- Created with Inkscape (http://www.inkscape.org/) -->

<svg
   width="1000"
   height="1000"
   viewBox="0 0 1000 1000"
   version="1.1"
   id="svg1"
   xml:space="preserve"
   sodipodi:docname="021.svg"
   inkscape:version="1.4.2 (f4327f4, 2025-05-13)"
   xmlns:inkscape="http://www.inkscape.org/namespaces/inkscape"
   xmlns:sodipodi="http://sodipodi.sourceforge.net/DTD/sodipodi-0.dtd"
   xmlns="http://www.w3.org/2000/svg"
   xmlns:svg="http://www.w3.org/2000/svg"><sodipodi:namedview
     id="namedview1"
     pagecolor="#ffffff"
     bordercolor="#000000"
     borderopacity="0.25"
     inkscape:showpageshadow="2"
     inkscape:pageopacity="0.0"
     inkscape:pagecheckerboard="0"
     inkscape:deskcolor="#d1d1d1"
     inkscape:zoom="1.546"
     inkscape:cx="253.88098"
     inkscape:cy="379.36611"
     inkscape:window-width="1920"
     inkscape:window-height="991"
     inkscape:window-x="-9"
     inkscape:window-y="-9"
     inkscape:window-maximized="1"
     inkscape:current-layer="svg1" /><defs
     id="defs1" /><g
     id="g3"
     data-layer="260"><path
       style="opacity:1;fill:#fffd00;fill-rule:evenodd;stroke:none;stroke-width:5;stroke-linecap:round;stroke-miterlimit:100;stroke-dasharray:none;stroke-opacity:1;fill-opacity:1"
       d="m 316.94696,320.18111 c -11.17095,-36.53999 -54.8833,6.73398 -68.56404,38.80984 -32.88551,-37.17681 14.14045,-154.44873 88.61579,-119.66365 -17.16651,-18.6405 -56.85399,-25.52651 -71.63649,-27.65201 57.52352,-19.03176 89.39513,9.08847 101.3907,18.59638 -6.33654,-14.33569 -30.12939,-29.59528 -40.75033,-36.86934 107.93588,-12.28361 177.76269,57.96148 183.05304,133.24709 -2.02933,2.49589 -7.01547,9.45059 -10.56594,14.25471 -1.27311,1.72263 -4.31647,1.72206 -5.42687,2.41862 3.36966,0.44354 7.84562,-2.06133 19.22696,-5.03038 -2.83265,28.4047 -26.01174,52.33125 -43.74232,67.48897 5.79476,-0.0761 16.26088,-3.4712 24.98424,-7.33373 -13.8626,42.8508 -44.77955,92.28023 -65.97672,107.37387 -73.88893,0.20141 -164.5319,-131.59217 -117.07632,-188.22769 1.49143,-1.77994 6.31217,0.27038 6.4683,2.58732 z"
       id="path2"
       sodipodi:nodetypes="cccccccsccccccc"
       color="mane-main" /><path
       d="m 482.11133,427.42383 c -8.65535,1.47069 -16.95703,5.48437 -16.95703,5.48437 l 3.54492,-10.0625 c 0,0 -30.48905,7.77583 -45.16602,17.15235 -15.47184,9.88433 -36.62551,29.43383 -52.04687,44.51367 18.12724,13.1826 37.61971,21.36083 56.06836,21.31055 16.50547,-11.75288 38.90516,-44.3252 54.55664,-78.39844 z"
       style="opacity:1;fill:#ff3400;fill-rule:evenodd;stroke:none;stroke-width:3;stroke-linecap:round;stroke-miterlimit:100;stroke-dasharray:none;fill-opacity:1"
       id="path10"
       color="mane-hl-1" /><path
       d="m 366.23242,192.63672 c 4.83749,5.29202 10.10571,12.83164 14.4082,23.34375 6.57291,16.0593 6.41602,35.34961 6.41602,35.34961 0,0 3.56109,-3.53518 5.4668,-7.63086 2.15646,-4.63458 3.45117,-8.83594 3.45117,-8.83594 0,0 8.09584,27.06041 4.30859,59.66211 -2.44302,21.03018 -11.05468,49.88086 -11.05468,49.88086 0,0 35.40825,-25.58556 42.9707,-59.16406 7.77029,-34.50137 1.06618,-60.59865 -6.45508,-77.00782 -17.50656,-8.30755 -37.44657,-13.80464 -59.51172,-15.59765 z"
       style="opacity:1;fill:#ff3400;fill-rule:evenodd;stroke:none;stroke-width:3;stroke-linecap:round;stroke-miterlimit:100;stroke-dasharray:none;fill-opacity:1"
       id="path5"
       color="mane-hl-2" /><path
       d="m 246.59375,283.92773 c 11.76745,-7.12269 27.7517,-13.42291 46.12891,-11.78711 33.03276,2.94034 65.40429,50.76758 65.40429,50.76758 0,0 4.31253,-32.71268 -9.14648,-53.05468 -12.05843,-18.22516 -29.37961,-29.98851 -42.21875,-36.79102 -27.53752,1.72617 -48.89192,24.4287 -60.16797,50.86523 z"
       style="opacity:1;fill:#ff3400;fill-rule:evenodd;stroke:none;stroke-width:3;stroke-linecap:round;stroke-miterlimit:100;stroke-dasharray:none;fill-opacity:1"
       id="path4"
       color="mane-hl-1" /><path
       d="m 246.59375,283.92773 c 11.76745,-7.12269 27.7517,-13.42291 46.12891,-11.78711 33.03276,2.94034 65.40429,50.76758 65.40429,50.76758 0,0 4.31253,-32.71268 -9.14648,-53.05468 -12.05843,-18.22516 -29.37961,-29.98851 -42.21875,-36.79102 -27.53752,1.72617 -48.89192,24.4287 -60.16797,50.86523 z"
       style="opacity:1;fill:none;fill-rule:evenodd;stroke:#000000;stroke-width:3;stroke-linecap:round;stroke-miterlimit:100;stroke-dasharray:none"
       id="path11"
       color="mane-contour" /><path
       d="m 366.23242,192.63672 c 4.83749,5.29202 10.10571,12.83164 14.4082,23.34375 6.57291,16.0593 6.41602,35.34961 6.41602,35.34961 0,0 3.56109,-3.53518 5.4668,-7.63086 2.15646,-4.63458 3.45117,-8.83594 3.45117,-8.83594 0,0 8.09584,27.06041 4.30859,59.66211 -2.44302,21.03018 -11.05468,49.88086 -11.05468,49.88086 0,0 35.40825,-25.58556 42.9707,-59.16406 7.77029,-34.50137 1.06618,-60.59865 -6.45508,-77.00782 -17.50656,-8.30755 -37.44657,-13.80464 -59.51172,-15.59765 z"
       style="opacity:1;fill:none;fill-rule:evenodd;stroke:#000000;stroke-width:3;stroke-linecap:round;stroke-miterlimit:100;stroke-dasharray:none"
       id="path12"
       color="mane-contour" /><path
       d="m 482.11133,427.42383 c -8.65535,1.47069 -16.95703,5.48437 -16.95703,5.48437 l 3.54492,-10.0625 c 0,0 -30.48905,7.77583 -45.16602,17.15235 -15.47184,9.88433 -36.62551,29.43383 -52.04687,44.51367 18.12724,13.1826 37.61971,21.36083 56.06836,21.31055 16.50547,-11.75288 38.90516,-44.3252 54.55664,-78.39844 z"
       style="opacity:1;fill:none;fill-rule:evenodd;stroke:#000000;stroke-width:3;stroke-linecap:round;stroke-miterlimit:100;stroke-dasharray:none"
       id="path13"
       color="mane-contour" /><path
       style="opacity:1;fill:none;fill-rule:evenodd;stroke:#000000;stroke-width:5;stroke-linecap:round;stroke-miterlimit:100;stroke-dasharray:none;stroke-opacity:1"
       d="m 316.94696,320.18111 c -11.17095,-36.53999 -54.8833,6.73398 -68.56404,38.80984 -32.88551,-37.17681 14.14045,-154.44873 88.61579,-119.66365 -17.16651,-18.6405 -56.85399,-25.52651 -71.63649,-27.65201 57.52352,-19.03176 89.39513,9.08847 101.3907,18.59638 -6.33654,-14.33569 -30.12939,-29.59528 -40.75033,-36.86934 107.93588,-12.28361 177.76269,57.96148 183.05304,133.24709 -2.02933,2.49589 -7.01547,9.45059 -10.56594,14.25471 -1.27311,1.72263 -4.31647,1.72206 -5.42687,2.41862 3.36966,0.44354 7.84562,-2.06133 19.22696,-5.03038 -2.83265,28.4047 -26.01174,52.33125 -43.74232,67.48897 5.79476,-0.0761 16.26088,-3.4712 24.98424,-7.33373 -13.8626,42.8508 -44.77955,92.28023 -65.97672,107.37387 -73.88893,0.20141 -164.5319,-131.59217 -117.07632,-188.22769 1.49143,-1.77994 6.31217,0.27038 6.4683,2.58732 z"
       id="path18"
       sodipodi:nodetypes="cccccccsccccccc"
       color="mane-contour" /></g></svg>
