<?xml version="1.0" encoding="UTF-8" standalone="no"?>
<!-- Created with Inkscape (http://www.inkscape.org/) -->

<svg
   width="1000"
   height="1000"
   viewBox="0 0 1000 1000"
   version="1.1"
   id="svg1"
   xml:space="preserve"
   sodipodi:docname="022.svg"
   inkscape:version="1.4.2 (f4327f4, 2025-05-13)"
   xmlns:inkscape="http://www.inkscape.org/namespaces/inkscape"
   xmlns:sodipodi="http://sodipodi.sourceforge.net/DTD/sodipodi-0.dtd"
   xmlns="http://www.w3.org/2000/svg"
   xmlns:svg="http://www.w3.org/2000/svg"><sodipodi:namedview
     id="namedview1"
     pagecolor="#ffffff"
     bordercolor="#000000"
     borderopacity="0.25"
     inkscape:showpageshadow="2"
     inkscape:pageopacity="0.0"
     inkscape:pagecheckerboard="0"
     inkscape:deskcolor="#d1d1d1"
     inkscape:zoom="1.6450235"
     inkscape:cx="329.78252"
     inkscape:cy="341.3325"
     inkscape:window-width="1302"
     inkscape:window-height="973"
     inkscape:window-x="-13"
     inkscape:window-y="0"
     inkscape:window-maximized="0"
     inkscape:current-layer="g10" /><defs
     id="defs1" /><g
     id="g10"
     style="display:inline"
     data-layer="290"><path
       style="opacity:1;fill:#0f00ff;fill-opacity:1;fill-rule:evenodd;stroke:none;stroke-width:5;stroke-linecap:round;stroke-miterlimit:100;stroke-dasharray:none;stroke-opacity:1"
       d="m 289.52044,335.71564 c -25.90375,-4.26341 -42.00705,-1.82633 -64.94771,33.38861 -22.59565,-47.45104 -3.53719,-66.03673 24.24104,-72.49446 -17.91247,-18.19298 -27.84808,-40.99737 -15.09348,-56.48621 88.95423,31.54612 116.83329,-56.21289 200.78905,20.12465 7.01639,-14.92782 -22.57564,-27.51721 -35.21812,-34.76075 88.93585,-6.4046 132.62835,57.44154 114.86946,100.13926 -3.64456,8.76262 -4.37922,10.48964 -9.78262,18.29791 7.678,-5.64724 9.84869,-6.7163 23.08053,-27.47439 10.62851,23.22593 -2.28458,62.83801 -15.19494,69.11961 7.35301,24.64723 -16.19483,37.28276 -27.4427,42.0788 5.68902,2.29754 10.86752,3.81837 16.27141,4.62452 -6.06375,15.32374 -16.14726,20.31525 -24.04684,23.27555 2.37508,3.5061 3.07422,4.07514 5.27611,6.37556 -11.79747,11.00082 -39.35479,13.31281 -56.95985,7.34579 C 365.22275,448.88671 352.17695,346.02806 289.52044,335.71564 Z"
       id="path10"
       sodipodi:nodetypes="ccccccsccccccccc"
       color="mane-main" /><path
       d="m 470.46484,238.03711 c 6.81348,10.09282 16.40253,28.79198 13.44141,51.02539 -5.7596,43.24565 -67.69141,95.5918 -67.69141,95.5918 0,0 27.22328,-4.40791 40.95899,-4.51758 13.88649,-0.11087 36.39062,-10.76563 36.39062,-10.76563 0,0 -2.19926,3.27655 -3.60937,4.63477 -2.36533,2.27828 -7.9961,5.75781 -7.9961,5.75781 0,0 9.13433,1.24355 24.67383,-6.24023 5.68595,-2.73833 13.60057,-7.21805 20.66797,-11.36914 4.67825,-14.55267 6.11,-32.69698 0.1582,-45.70313 -13.23184,20.75809 -15.40207,21.82542 -23.08007,27.47266 5.4034,-7.80827 6.13669,-9.53426 9.78125,-18.29688 12.0532,-28.97953 -4.20052,-67.70222 -43.69532,-87.58984 z"
       style="opacity:1;fill:#70ff00;fill-opacity:1;fill-rule:evenodd;stroke:none;stroke-width:3;stroke-linecap:round;stroke-miterlimit:100"
       id="path12"
       color="mane-hl-2" /><path
       d="m 485.09384,427.69988 c -8.06704,0.36006 -17.82981,-0.19443 -28.68954,-1.62176 -15.37149,-2.02032 -45.04102,-6.11914 -45.04102,-6.11914 0,0 26.6007,20.0445 41.18164,27.96485 6.05883,3.29115 14.29839,5.57796 23.36754,7.83565 -0.19235,-0.27612 1.35063,0.11141 1.13246,-0.21065 7.89958,-2.9603 17.98313,-7.95165 24.04688,-23.27539 -5.40389,-0.80615 -10.58247,-2.32746 -16.27149,-4.625 0.35748,-0.15243 -0.10741,0.21983 0.27353,0.0514 z"
       style="opacity:1;fill:#00f3ff;fill-opacity:1;fill-rule:evenodd;stroke:none;stroke-width:3;stroke-linecap:round;stroke-miterlimit:100"
       id="path18"
       sodipodi:nodetypes="cscsccccc"
       color="mane-hl-1" /><path
       style="opacity:1;fill:none;fill-opacity:1;fill-rule:evenodd;stroke:#000000;stroke-width:3;stroke-linecap:round;stroke-miterlimit:100;stroke-dasharray:none;stroke-opacity:1"
       d="m 516.40599,381.60548 c 0,0 -15.6102,10.20912 -27.43122,11.92992 -29.79378,4.33711 -89.58838,-2.05164 -89.58838,-2.05164"
       id="path19"
       sodipodi:nodetypes="csc"
       color="mane-contour" /><path
       d="m 485.09384,427.69988 c -8.06704,0.36006 -17.82981,-0.19443 -28.68954,-1.62176 -15.37149,-2.02032 -45.04102,-6.11914 -45.04102,-6.11914 0,0 26.6007,20.0445 41.18164,27.96485 6.05883,3.29115 14.29839,5.57796 23.36754,7.83565 -0.19235,-0.27612 1.35063,0.11141 1.13246,-0.21065 7.89958,-2.9603 17.98313,-7.95165 24.04688,-23.27539 -5.40389,-0.80615 -10.58247,-2.32746 -16.27149,-4.625 0.35748,-0.15243 -0.10741,0.21983 0.27353,0.0514 z"
       style="opacity:1;fill:none;fill-rule:evenodd;stroke:#000000;stroke-width:3;stroke-linecap:round;stroke-miterlimit:100"
       id="path20"
       sodipodi:nodetypes="cscsccccc"
       color="mane-contour" /><path
       d="m 470.46484,238.03711 c 6.81348,10.09282 16.40253,28.79198 13.44141,51.02539 -5.7596,43.24565 -67.69141,95.5918 -67.69141,95.5918 0,0 27.22328,-4.40791 40.95899,-4.51758 13.88649,-0.11087 36.39062,-10.76563 36.39062,-10.76563 0,0 -2.19926,3.27655 -3.60937,4.63477 -2.36533,2.27828 -7.9961,5.75781 -7.9961,5.75781 0,0 9.13433,1.24355 24.67383,-6.24023 5.68595,-2.73833 13.60057,-7.21805 20.66797,-11.36914 4.67825,-14.55267 6.11,-32.69698 0.1582,-45.70313 -13.23184,20.75809 -15.40207,21.82542 -23.08007,27.47266 5.4034,-7.80827 6.13669,-9.53426 9.78125,-18.29688 12.0532,-28.97953 -4.20052,-67.70222 -43.69532,-87.58984 z"
       style="opacity:1;fill:none;fill-rule:evenodd;stroke:#000000;stroke-width:3;stroke-linecap:round;stroke-miterlimit:100"
       id="path21"
       color="mane-contour" /><path
       style="opacity:1;fill:none;fill-opacity:1;fill-rule:evenodd;stroke:#000000;stroke-width:5;stroke-linecap:round;stroke-miterlimit:100;stroke-dasharray:none;stroke-opacity:1"
       d="m 289.52044,335.71564 c -25.90375,-4.26341 -42.00705,-1.82633 -64.94771,33.38861 -22.59565,-47.45104 -3.53719,-66.03673 24.24104,-72.49446 -17.91247,-18.19298 -27.84808,-40.99737 -15.09348,-56.48621 88.95423,31.54612 116.83329,-56.21289 200.78905,20.12465 7.01639,-14.92782 -22.57564,-27.51721 -35.21812,-34.76075 88.93585,-6.4046 132.62835,57.44154 114.86946,100.13926 -3.64456,8.76262 -4.37922,10.48964 -9.78262,18.29791 7.678,-5.64724 9.84869,-6.7163 23.08053,-27.47439 10.62851,23.22593 -2.28458,62.83801 -15.19494,69.11961 7.35301,24.64723 -16.19483,37.28276 -27.4427,42.0788 5.68902,2.29754 10.86752,3.81837 16.27141,4.62452 -6.06375,15.32374 -16.14726,20.31525 -24.04684,23.27555 2.37508,3.5061 3.07422,4.07514 5.27611,6.37556 -11.79747,11.00082 -39.35479,13.31281 -56.95985,7.34579 C 365.22275,448.88671 352.17695,346.02806 289.52044,335.71564 Z"
       id="path22"
       sodipodi:nodetypes="ccccccsccccccccc"
       color="mane-contour" /></g><g
     id="g3"
     data-layer="900"><path
       style="opacity:1;fill:#00ffee;fill-rule:evenodd;stroke:none;stroke-width:5;stroke-linecap:round;stroke-miterlimit:100;stroke-dasharray:none;stroke-opacity:1;fill-opacity:1"
       d="m 430.85032,298.21062 c -17.4795,17.00478 -26.50699,85.20032 -104.73962,77.75431 7.79195,-4.31629 16.5577,-11.17112 23.2458,-16.8395 1.16211,-0.98492 2.14021,-1.71168 2.73638,-2.38307 -0.54859,0.32199 -1.8433,1.01924 -3.09057,1.65407 -28.58282,14.54808 -67.38935,-3.22342 -67.71468,30.37509 -62.84037,-11.28516 -32.56544,-72.9258 8.2328,-74.55266 42.2389,-1.68431 122.98766,-58.81399 141.32989,-16.00824 z"
       id="path2"
       sodipodi:nodetypes="ccscscsc"
       color="mane-hl-1" /><path
       style="opacity:1;fill:none;fill-rule:evenodd;stroke:#000000;stroke-width:5;stroke-linecap:round;stroke-miterlimit:100;stroke-dasharray:none;stroke-opacity:1"
       d="m 430.85032,298.21062 c -17.4795,17.00478 -26.50699,85.20032 -104.73962,77.75431 7.79195,-4.31629 16.5577,-11.17112 23.2458,-16.8395 1.16211,-0.98492 2.14021,-1.71168 2.73638,-2.38307 -0.54859,0.32199 -1.8433,1.01924 -3.09057,1.65407 -28.58282,14.54808 -67.38935,-3.22342 -67.71468,30.37509 -62.84037,-11.28516 -32.56544,-72.9258 8.2328,-74.55266 42.2389,-1.68431 122.98766,-58.81399 141.32989,-16.00824 z"
       id="path3"
       sodipodi:nodetypes="ccscscsc"
       color="mane-contour" /><path
       style="opacity:1;fill:#0034ff;fill-opacity:1;fill-rule:evenodd;stroke:none;stroke-width:5;stroke-linecap:round;stroke-miterlimit:100;stroke-dasharray:none;stroke-opacity:1"
       d="m 405.42183,281.43111 c -25.71924,2.41437 -57.18373,57.1877 -84.2131,54.95434 7.05446,-6.93847 15.19361,-14.78137 18.4291,-21.67195 -29.37972,23.30681 -79.47359,13.41809 -82.13387,-15.13074 60.26613,15.34223 91.55987,-56.11737 136.7561,-41.16405 7.03457,2.32741 45.55834,19.78347 11.16177,23.0124 z"
       id="path4"
       sodipodi:nodetypes="sccccs"
       color="mane-main" /><path
       style="opacity:1;fill:none;fill-rule:evenodd;stroke:#000000;stroke-width:5;stroke-linecap:round;stroke-miterlimit:100;stroke-dasharray:none;stroke-opacity:1"
       d="m 411.16245,282.88648 c -30.65132,-2.59857 -62.92435,55.73233 -89.95372,53.49897 7.05446,-6.93847 15.19361,-14.78137 18.4291,-21.67195 -29.37972,23.30681 -79.47359,13.41809 -82.13387,-15.13074 60.26613,15.34223 91.55987,-56.11737 136.7561,-41.16405"
       id="path5"
       sodipodi:nodetypes="ccccc"
       color="mane-contour" /></g></svg>
