<?xml version="1.0" encoding="UTF-8" standalone="no"?>
<!-- Created with Inkscape (http://www.inkscape.org/) -->

<svg
   width="1000"
   height="1000"
   viewBox="0 0 1000 1000"
   version="1.1"
   id="svg1"
   xml:space="preserve"
   sodipodi:docname="023.svg"
   inkscape:version="1.4.2 (f4327f4, 2025-05-13)"
   xmlns:inkscape="http://www.inkscape.org/namespaces/inkscape"
   xmlns:sodipodi="http://sodipodi.sourceforge.net/DTD/sodipodi-0.dtd"
   xmlns="http://www.w3.org/2000/svg"
   xmlns:svg="http://www.w3.org/2000/svg"><sodipodi:namedview
     id="namedview1"
     pagecolor="#ffffff"
     bordercolor="#000000"
     borderopacity="0.25"
     inkscape:showpageshadow="2"
     inkscape:pageopacity="0.0"
     inkscape:pagecheckerboard="0"
     inkscape:deskcolor="#d1d1d1"
     inkscape:zoom="2.1863742"
     inkscape:cx="350.35174"
     inkscape:cy="408.43878"
     inkscape:window-width="1307"
     inkscape:window-height="1020"
     inkscape:window-x="-5"
     inkscape:window-y="0"
     inkscape:window-maximized="0"
     inkscape:current-layer="g19" /><defs
     id="defs1" /><g
     id="g3"
     data-layer="700"><path
       style="opacity:1;fill:#00ff13;fill-rule:evenodd;stroke:none;stroke-width:5;stroke-linecap:round;stroke-miterlimit:100;stroke-dasharray:none;fill-opacity:1"
       d="m 313.06598,356.40362 c -33.60235,24.84808 -55.3435,10.65311 -83.76455,91.52653 -9.14375,-22.30492 -1.03277,-44.70493 3.55756,-66.30014 -8.34426,-16.92249 -8.10889,-59.13943 29.10738,-84.7348 13.91955,-34.37937 48.89571,-71.44487 139.71539,-25.22639 5.62465,-12.30955 -10.09312,-22.47559 -17.97729,-28.27584 16.12422,-4.88296 31.39747,10.16797 36.47418,19.71684 5.69747,-10.95137 11.24038,-35.58858 34.54321,-35.42547 -18.57769,40.5689 -16.31153,46.12741 -12.28978,69.21086 2.90102,16.65087 24.7931,19.94017 25.2264,43.98448 25.27121,-3.99213 15.43667,54.38954 23.93273,67.27038 -4.29535,4.38236 -11.50354,0.40615 -17.35009,-1.81942 12.41991,21.45879 -10.18068,51.96202 -3.84511,66.92735 -7.09684,-0.67227 -11.09048,-4.0806 -15.45219,-7.57589 4.33927,21.84776 -11.27198,27.20322 -14.45223,47.2545 -20.50598,-4.25089 -15.72932,-47.16489 2.77678,-71.66144 -7.01155,0.96626 -22.07221,9.41472 -36.60815,6.01094 16.29454,-10.42625 49.95891,-27.99953 53.53672,-55.34605 4.26858,-32.62635 -7.47781,-78.15129 -38.46343,-89.22337 -38.04604,-13.59498 -76.18252,29.6651 -108.66753,53.68693 z"
       id="path2"
       sodipodi:nodetypes="cccccccccccccccccccc"
       color="mane-main" /><path
       d="m 467.68945,340.875 c -2.54415,5.4737 -5.55056,11.18721 -8.72656,15.6582 2.29524,12.06225 2.66655,24.45959 1.23438,35.40625 -0.53711,4.10529 -1.75175,7.9904 -3.48438,11.66407 0.40656,0.34162 0.78296,0.73017 1.12695,1.16992 6.80152,8.69478 13.01604,26.14547 16.66602,37.80273 3.35109,-12.27893 6.00348,-25.4145 -0.26563,-36.24609 5.84655,2.22557 13.05622,6.20267 17.35157,1.82031 -8.4926,-12.8756 1.33001,-71.21514 -23.90235,-67.27539 z"
       style="opacity:1;fill:#f500ff;fill-rule:evenodd;stroke:none;stroke-width:3;stroke-linecap:round;stroke-miterlimit:100;fill-opacity:1"
       id="path4"
       color="mane-hl-2" /><path
       d="m 467.68945,340.875 c -2.54415,5.4737 -5.55056,11.18721 -8.72656,15.6582 2.29524,12.06225 2.66655,24.45959 1.23438,35.40625 -0.53711,4.10529 -1.75175,7.9904 -3.48438,11.66407 0.40656,0.34162 0.78296,0.73017 1.12695,1.16992 6.80152,8.69478 13.01604,26.14547 16.66602,37.80273 3.35109,-12.27893 6.00348,-25.4145 -0.26563,-36.24609 5.84655,2.22557 13.05622,6.20267 17.35157,1.82031 -8.4926,-12.8756 1.33001,-71.21514 -23.90235,-67.27539 z"
       style="opacity:1;fill:none;fill-rule:evenodd;stroke:#000000;stroke-width:3;stroke-linecap:round;stroke-miterlimit:100"
       id="path5"
       color="mane-contour" /><path
       style="opacity:1;fill:none;fill-rule:evenodd;stroke:#000000;stroke-width:5;stroke-linecap:round;stroke-miterlimit:100;stroke-dasharray:none"
       d="m 313.06598,356.40362 c -33.60235,24.84808 -55.3435,10.65311 -83.76455,91.52653 -9.14375,-22.30492 -1.03277,-44.70493 3.55756,-66.30014 -8.34426,-16.92249 -8.10889,-59.13943 29.10738,-84.7348 13.91955,-34.37937 48.89571,-71.44487 139.71539,-25.22639 5.62465,-12.30955 -10.09312,-22.47559 -17.97729,-28.27584 16.12422,-4.88296 31.39747,10.16797 36.47418,19.71684 5.69747,-10.95137 11.24038,-35.58858 34.54321,-35.42547 -18.57769,40.5689 -16.31153,46.12741 -12.28978,69.21086 2.90102,16.65087 24.7931,19.94017 25.2264,43.98448 25.27121,-3.99213 15.43667,54.38954 23.93273,67.27038 -4.29535,4.38236 -11.50354,0.40615 -17.35009,-1.81942 12.41991,21.45879 -10.18068,51.96202 -3.84511,66.92735 -7.09684,-0.67227 -11.09048,-4.0806 -15.45219,-7.57589 4.33927,21.84776 -11.27198,27.20322 -14.45223,47.2545 -20.50598,-4.25089 -15.72932,-47.16489 2.77678,-71.66144 -7.01155,0.96626 -22.07221,9.41472 -36.60815,6.01094 16.29454,-10.42625 49.95891,-27.99953 53.53672,-55.34605 4.26858,-32.62635 -7.47781,-78.15129 -38.46343,-89.22337 -38.04604,-13.59498 -76.18252,29.6651 -108.66753,53.68693 z"
       id="path10"
       sodipodi:nodetypes="cccccccccccccccccccc"
       color="mane-contour" /><path
       style="opacity:1;fill:none;fill-opacity:1;fill-rule:evenodd;stroke:#000000;stroke-width:3;stroke-linecap:round;stroke-miterlimit:100;stroke-dasharray:none;stroke-opacity:1"
       d="m 232.34815,383.05429 c 0,0 12.3997,-25.95065 17.08471,-30.48838 -5.02668,6.01933 -16.51298,30.71706 -16.51298,30.71706"
       id="path11"
       sodipodi:nodetypes="ccc"
       color="mane-contour" /><path
       style="opacity:1;fill:none;fill-opacity:1;fill-rule:evenodd;stroke:#000000;stroke-width:3;stroke-linecap:round;stroke-miterlimit:100;stroke-dasharray:none;stroke-opacity:1"
       d="m 259.89901,298.41243 c 0,0 25.77851,-12.75371 32.26569,-13.42959 -7.67087,1.63021 -31.95722,13.96252 -31.95722,13.96252"
       id="path12"
       sodipodi:nodetypes="ccc"
       color="mane-contour" /><path
       style="opacity:1;fill:none;fill-opacity:1;fill-rule:evenodd;stroke:#000000;stroke-width:3;stroke-linecap:round;stroke-miterlimit:100;stroke-dasharray:none;stroke-opacity:1"
       d="m 421.90131,257.62089 c -0.079,2.24944 -0.41246,4.96604 -0.68166,5.58293 0.22378,-1.50102 0.48159,-3.5288 0.51941,-5.71183"
       id="path13"
       sodipodi:nodetypes="ccc"
       color="mane-contour" /></g><g
     id="g19"
     data-layer="900"><path
       style="opacity:1;fill:#f500ff;fill-opacity:1;fill-rule:evenodd;stroke:none;stroke-width:5;stroke-linecap:round;stroke-miterlimit:100;stroke-dasharray:none;stroke-opacity:1"
       d="M 426.50522,297.52455 C 382.60638,263.81454 297.41194,268.9987 264.82201,330.2271 c 32.03148,-5.15144 37.8378,-0.62138 57.17229,-15.55086 -17.07489,23.69598 -32.93043,59.80419 -32.47386,86.44449 43.17333,-42.59911 68.53418,-53.79153 77.4404,-78.94848 0.70131,14.42194 -4.03158,45.67858 17.00821,56.53695 0.67988,-12.49948 7.80985,-29.47391 4.80247,-42.0788 8.8193,15.1355 22.50101,47.50156 51.45505,45.05176 -24.10467,-33.02194 -36.06728,-59.21172 -13.72135,-84.15761 z"
       id="path18"
       sodipodi:nodetypes="ccccccccc"
       color="mane-hl-1" /><path
       style="opacity:1;fill:none;fill-opacity:1;fill-rule:evenodd;stroke:#000000;stroke-width:5;stroke-linecap:round;stroke-miterlimit:100;stroke-dasharray:none;stroke-opacity:1"
       d="M 426.50522,297.52455 C 382.60638,263.81454 297.41194,268.9987 264.82201,330.2271 c 32.03148,-5.15144 37.8378,-0.62138 57.17229,-15.55086 -17.07489,23.69598 -32.93043,59.80419 -32.47386,86.44449 43.17333,-42.59911 68.53418,-53.79153 77.4404,-78.94848 0.70131,14.42194 -4.03158,45.67858 17.00821,56.53695 0.67988,-12.49948 7.80985,-29.47391 4.80247,-42.0788 8.8193,15.1355 22.50101,47.50156 51.45505,45.05176 -24.10467,-33.02194 -36.06728,-59.21172 -13.72135,-84.15761 z"
       id="path19"
       sodipodi:nodetypes="ccccccccc"
       color="mane-contour" /></g></svg>
