<?xml version="1.0" encoding="UTF-8" standalone="no"?>
<!-- Created with Inkscape (http://www.inkscape.org/) -->

<svg
   width="1000"
   height="1000"
   viewBox="0 0 1000 1000"
   version="1.1"
   id="svg1"
   xml:space="preserve"
   sodipodi:docname="Kirin.svg"
   inkscape:version="1.4.2 (f4327f4, 2025-05-13)"
   xmlns:inkscape="http://www.inkscape.org/namespaces/inkscape"
   xmlns:sodipodi="http://sodipodi.sourceforge.net/DTD/sodipodi-0.dtd"
   xmlns="http://www.w3.org/2000/svg"
   xmlns:svg="http://www.w3.org/2000/svg"><sodipodi:namedview
     id="namedview1"
     pagecolor="#ffffff"
     bordercolor="#000000"
     borderopacity="0.25"
     inkscape:showpageshadow="2"
     inkscape:pageopacity="0.0"
     inkscape:pagecheckerboard="0"
     inkscape:deskcolor="#d1d1d1"
     inkscape:zoom="0.773"
     inkscape:cx="315.00647"
     inkscape:cy="300.7762"
     inkscape:window-width="1920"
     inkscape:window-height="991"
     inkscape:window-x="-9"
     inkscape:window-y="-9"
     inkscape:window-maximized="1"
     inkscape:current-layer="g4" /><defs
     id="defs1" /><g
     id="g4"
     style="display:inline"
     data-layer="290"><path
       style="opacity:1;fill:#bbc1be;fill-opacity:1;fill-rule:evenodd;stroke:none;stroke-width:5;stroke-linecap:round;stroke-miterlimit:100;stroke-dasharray:none"
       d="m 489.98365,492.44769 c 0,0 6.74296,-7.5599 9.70919,-20.31689 2.93032,-12.60259 -9.58475,-38.08453 -9.58475,-38.08453 0,0 23.52914,15.67457 32.25353,5.0177 25.28152,-30.88143 -12.65916,-79.10278 -12.65916,-79.10278 0,0 27.26532,11.8619 29.43079,2.26391 11.87039,-52.61301 -46.47253,-43.71494 -79.38811,-62.44213 -53.5379,-30.46018 -114.88194,-7.51826 -114.88194,-7.51826 l -25.61318,155.05122 31.10172,16.923 c 0,0 -30.61986,28.97621 -25.1558,43.90831 2.77082,7.57204 10.74839,5.03117 10.74839,5.03117 0,0 -13.78295,13.39738 -15.77955,26.52793 -4.56304,30.0086 17.83775,21.95416 17.83775,21.95416 z"
       id="path3"
       sodipodi:nodetypes="cscscsscccscscc"
       color="mane-main" /><path
       d="m 377.96875,543.45898 15.83398,-78.76171 c 0,0 -29.51722,5.91237 -41.62109,14.17773 -8.84379,6.03914 -19.38311,19.05435 -26.95508,29.35547 2.79896,7.46897 10.7168,4.94726 10.7168,4.94726 0,0 -13.7827,13.39875 -15.7793,26.5293 -4.56304,30.0086 17.83789,21.95313 17.83789,21.95313 z"
       style="opacity:1;fill:#8eeebe;fill-opacity:1;fill-rule:evenodd;stroke:none;stroke-width:3;stroke-linecap:round;stroke-miterlimit:100"
       id="path13"
       color="mane-hl-1" /><path
       d="m 532.74609,365.9668 c -2.9841,-9.47577 -8.04511,-21.47563 -15.77148,-27.84961 -16.1242,-13.30189 -51.7686,-14.20287 -79.25781,-20.10547 -29.80839,-6.40058 -50.91211,-17.23633 -50.91211,-17.23633 v 38.81055 c 0,0 85.68917,12.33915 112.54883,42.04492 11.47914,12.6955 17.40447,38.99191 20.39648,59.6582 0.96697,-0.55789 1.84622,-1.29003 2.61133,-2.22461 25.28152,-30.88143 -12.65821,-79.10351 -12.65821,-79.10351 0,0 14.33598,6.23657 23.04297,6.00586 z"
       style="opacity:1;fill:#8eaeee;fill-opacity:1;fill-rule:evenodd;stroke:none;stroke-width:3;stroke-linecap:round;stroke-miterlimit:100;stroke-dasharray:none"
       id="path5"
       color="mane-hl-2" /><path
       d="m 532.74609,365.9668 c -2.9841,-9.47577 -8.04511,-21.47563 -15.77148,-27.84961 -16.1242,-13.30189 -51.7686,-14.20287 -79.25781,-20.10547 -29.80839,-6.40058 -50.91211,-17.23633 -50.91211,-17.23633 v 38.81055 c 0,0 85.68917,12.33915 112.54883,42.04492 11.47914,12.6955 17.40447,38.99191 20.39648,59.6582 0.96697,-0.55789 1.84622,-1.29003 2.61133,-2.22461 25.28152,-30.88143 -12.65821,-79.10351 -12.65821,-79.10351 0,0 14.33598,6.23657 23.04297,6.00586 z"
       style="opacity:1;fill:none;fill-rule:evenodd;stroke:#000000;stroke-width:3;stroke-linecap:round;stroke-miterlimit:100;stroke-dasharray:none"
       id="path10"
       color="mane-contour" /><path
       style="opacity:1;fill:none;fill-rule:evenodd;stroke:#000000;stroke-width:5;stroke-linecap:round;stroke-miterlimit:100;stroke-dasharray:none"
       d="m 489.98365,492.44769 c 0,0 6.74296,-7.5599 9.70919,-20.31689 2.93032,-12.60259 -9.58475,-38.08453 -9.58475,-38.08453 0,0 23.52914,15.67457 32.25353,5.0177 25.28152,-30.88143 -12.65916,-79.10278 -12.65916,-79.10278 0,0 27.26532,11.8619 29.43079,2.26391 11.87039,-52.61301 -46.47253,-43.71494 -79.38811,-62.44213 -53.5379,-30.46018 -114.88194,-7.51826 -114.88194,-7.51826 l -25.61318,155.05122 31.10172,16.923 c 0,0 -30.61986,28.97621 -25.1558,43.90831 2.77082,7.57204 10.74839,5.03117 10.74839,5.03117 0,0 -13.78295,13.39738 -15.77955,26.52793 -4.56304,30.0086 17.83775,21.95416 17.83775,21.95416 z"
       id="path11"
       sodipodi:nodetypes="cscscsscccscscc"
       color="mane-contour" /><path
       d="m 377.96875,543.45898 15.83398,-78.76171 c 0,0 -29.51722,5.91237 -41.62109,14.17773 -8.84379,6.03914 -19.38311,19.05435 -26.95508,29.35547 2.79896,7.46897 10.7168,4.94726 10.7168,4.94726 0,0 -13.7827,13.39875 -15.7793,26.5293 -4.56304,30.0086 17.83789,21.95313 17.83789,21.95313 z"
       style="opacity:1;fill:none;fill-rule:evenodd;stroke:#000000;stroke-width:3;stroke-linecap:round;stroke-miterlimit:100"
       id="path18"
       color="mane-contour" /></g><g
     id="g3"
     style="display:inline"
     data-layer="1100"><path
       style="opacity:1;fill:#999999;fill-opacity:1;fill-rule:evenodd;stroke:none;stroke-width:5;stroke-linecap:round;stroke-miterlimit:100;stroke-dasharray:none"
       d="m 385.511,510.99612 c 0,0 -21.92295,-0.28563 -37.88325,11.53554 -16.30853,12.07908 -26.98832,36.75211 -17.74418,46.67921 8.39175,9.01173 19.56663,-5.65976 19.56663,-5.65976 0,0 -7.04179,36.96396 10.83441,37.67787 8.79084,0.35107 6.62531,-10.8027 9.37904,-15.36222 2.54177,10.32329 16.64571,52.06583 41.39715,45.11643 23.95161,-6.72484 22.02454,-46.88699 36.54593,-68.88746 8.79127,1.04801 15.83558,-0.55409 20.69857,-5.49806 8.5402,-8.68241 6.46831,-34.60543 6.46831,-34.60543 0,0 10.92785,13.73064 17.14101,10.99612 21.42897,-9.43123 8.89392,-61.93403 8.89392,-61.93403 0,0 -16.04494,8.34758 -26.03493,5.01294 -13.01379,-4.34398 -20.69858,-35.57568 -20.69858,-35.57568 0,0 -8.75655,5.45501 -12.62578,9.9225 -10.60344,12.24297 -13.89427,26.94684 -13.89427,26.94684 0,0 -12.17144,4.08441 -19.3754,9.96605 -12.97779,10.59564 -22.66858,23.66914 -22.66858,23.66914 z"
       id="path2"
       sodipodi:nodetypes="csscscscscscscscsc"
       inkscape:label="path2"
       color="mane-main" /><path
       d="m 442.46094,572.01758 c -11.32947,-6.38533 -25.07769,-17.12604 -29.90625,-33.22656 -4.85701,-16.19538 -3.74578,-37.57235 -1.80274,-53.36133 -0.90328,0.6081 -1.76879,1.24049 -2.57226,1.89648 -12.97779,10.59564 -22.66797,23.66992 -22.66797,23.66992 0,0 -0.66887,-0.009 -1.85547,0.0391 -5.09941,14.41379 -10.20859,33.66323 -6.77734,46.05078 6.10763,22.04984 40.63089,37.78043 48.48242,53.05664 0.93435,1.81791 1.69777,3.63718 2.31836,5.43164 6.23308,-12.37999 8.9673,-29.57279 14.78125,-43.55664 z"
       style="opacity:1;fill:#eeee8e;fill-opacity:1;fill-rule:evenodd;stroke:none;stroke-width:3;stroke-linecap:round;stroke-miterlimit:100"
       id="path20"
       color="mane-hl-2" /><path
       d="m 442.73047,449.0625 c -0.46641,0.45607 -0.89763,0.90863 -1.28125,1.35156 -7.61327,8.79046 -10.48702,18.0414 -12.04928,23.01568 -2.73803,16.26537 -6.77125,42.15047 -2.81596,56.64838 2.9382,10.76981 12.24,22.58483 21.21485,32.03907 8.70215,1.00212 15.67821,-0.61149 20.50586,-5.51953 1.02155,-1.03856 1.89128,-2.32321 2.63086,-3.78125 -9.17697,-1.87284 -22.91515,-7.57593 -30.76758,-24.67969 -9.01712,-19.64062 -2.06082,-58.67907 2.5625,-79.07422 z"
       style="opacity:1;fill:#8eeec5;fill-opacity:1;fill-rule:evenodd;stroke:none;stroke-width:3;stroke-linecap:round;stroke-miterlimit:100"
       id="path22"
       sodipodi:nodetypes="cscscscsc"
       color="mane-hl-1" /><path
       d="m 442.73047,449.0625 c -0.46641,0.45607 -0.89763,0.90863 -1.28125,1.35156 -7.61327,8.79046 -10.48702,18.0414 -12.04928,23.01568 -2.73803,16.26537 -6.77125,42.15047 -2.81596,56.64838 2.9382,10.76981 12.24,22.58483 21.21485,32.03907 8.70215,1.00212 15.67821,-0.61149 20.50586,-5.51953 1.02155,-1.03856 1.89128,-2.32321 2.63086,-3.78125 -9.17697,-1.87284 -22.91515,-7.57593 -30.76758,-24.67969 -9.01712,-19.64062 -2.06082,-58.67907 2.5625,-79.07422 z"
       style="opacity:1;fill:none;fill-rule:evenodd;stroke:#000000;stroke-width:3;stroke-linecap:round;stroke-miterlimit:100"
       id="path23"
       sodipodi:nodetypes="cscscscsc"
       color="mane-contour" /><path
       d="m 442.46094,572.01758 c -11.32947,-6.38533 -25.07769,-17.12604 -29.90625,-33.22656 -4.85701,-16.19538 -3.74578,-37.57235 -1.80274,-53.36133 -0.90328,0.6081 -1.76879,1.24049 -2.57226,1.89648 -12.97779,10.59564 -22.66797,23.66992 -22.66797,23.66992 0,0 -0.66887,-0.009 -1.85547,0.0391 -5.09941,14.41379 -10.20859,33.66323 -6.77734,46.05078 6.10763,22.04984 40.63089,37.78043 48.48242,53.05664 0.93435,1.81791 1.69777,3.63718 2.31836,5.43164 6.23308,-12.37999 8.9673,-29.57279 14.78125,-43.55664 z"
       style="opacity:1;fill:none;fill-rule:evenodd;stroke:#000000;stroke-width:3;stroke-linecap:round;stroke-miterlimit:100"
       id="path24"
       color="mane-contour" /><path
       style="opacity:1;fill:none;fill-rule:evenodd;stroke:#000000;stroke-width:5;stroke-linecap:round;stroke-miterlimit:100;stroke-dasharray:none"
       d="m 385.511,510.99612 c 0,0 -21.92295,-0.28563 -37.88325,11.53554 -16.30853,12.07908 -26.98832,36.75211 -17.74418,46.67921 8.39175,9.01173 19.56663,-5.65976 19.56663,-5.65976 0,0 -7.04179,36.96396 10.83441,37.67787 8.79084,0.35107 6.62531,-10.8027 9.37904,-15.36222 2.54177,10.32329 16.64571,52.06583 41.39715,45.11643 23.95161,-6.72484 22.02454,-46.88699 36.54593,-68.88746 8.79127,1.04801 15.83558,-0.55409 20.69857,-5.49806 8.5402,-8.68241 6.46831,-34.60543 6.46831,-34.60543 0,0 10.92785,13.73064 17.14101,10.99612 21.42897,-9.43123 8.89392,-61.93403 8.89392,-61.93403 0,0 -16.04494,8.34758 -26.03493,5.01294 -13.01379,-4.34398 -20.69858,-35.57568 -20.69858,-35.57568 0,0 -8.75655,5.45501 -12.62578,9.9225 -10.60344,12.24297 -13.89427,26.94684 -13.89427,26.94684 0,0 -12.17144,4.08441 -19.3754,9.96605 -12.97779,10.59564 -22.66858,23.66914 -22.66858,23.66914 z"
       id="path25"
       sodipodi:nodetypes="csscscscscscscscsc"
       inkscape:label="path2"
       color="mane-contour" /></g><g
     id="g26"
     data-layer="700"><path
       style="opacity:1;fill:#a3ee8e;fill-opacity:1;fill-rule:evenodd;stroke:none;stroke-width:5;stroke-linecap:round;stroke-miterlimit:100;stroke-dasharray:none;stroke-opacity:1"
       d="m 287.23354,308.95901 c 0,0 -23.30812,-1.29694 -22.64021,-20.58202 0.6679,-19.28508 19.43856,-22.18284 19.43856,-22.18284 0,0 24.27391,-92.45828 101.0806,-56.25753 76.80669,36.20074 86.57513,78.59218 86.90186,103.36749 -88.25257,-2.70731 -55.01105,-34.81395 -124.63557,-32.70255 -31.9011,0.96742 -60.14524,28.35745 -60.14524,28.35745 z"
       id="path26"
       sodipodi:nodetypes="czczcsc"
       color="mane-main" /><path
       d="m 471.9043,309.78125 c -9.55208,-15.25189 -46.81135,-69.16449 -96.625,-69.88672 -58.02969,-0.84135 -75.23828,40.02149 -75.23828,40.02149 0,0 -12.47347,-2.78492 -18.20899,5.5664 -6.02586,8.77408 2.05482,15.71475 9.48828,19.86524 8.93809,-7.47202 31.40637,-23.9985 56.0586,-24.7461 69.62452,-2.1114 36.38219,29.99582 124.63476,32.70313 -0.015,-1.13765 -0.049,-2.31381 -0.10937,-3.52344 z"
       style="opacity:1;fill:#8eaeee;fill-rule:evenodd;stroke:none;stroke-width:3;stroke-linecap:round;stroke-miterlimit:100;fill-opacity:1"
       id="path28"
       color="mane-hl-1" /><path
       d="m 471.9043,309.78125 c -9.55208,-15.25189 -46.81135,-69.16449 -96.625,-69.88672 -58.02969,-0.84135 -75.23828,40.02149 -75.23828,40.02149 0,0 -12.47347,-2.78492 -18.20899,5.5664 -6.02586,8.77408 2.05482,15.71475 9.48828,19.86524 8.93809,-7.47202 31.40637,-23.9985 56.0586,-24.7461 69.62452,-2.1114 36.38219,29.99582 124.63476,32.70313 -0.015,-1.13765 -0.049,-2.31381 -0.10937,-3.52344 z"
       style="opacity:1;fill:none;fill-rule:evenodd;stroke:#000000;stroke-width:3;stroke-linecap:round;stroke-miterlimit:100"
       id="path29"
       color="mane-contour" /><path
       style="opacity:1;fill:none;fill-opacity:1;fill-rule:evenodd;stroke:#000000;stroke-width:5;stroke-linecap:round;stroke-miterlimit:100;stroke-dasharray:none;stroke-opacity:1"
       d="m 287.23354,308.95901 c 0,0 -23.30812,-1.29694 -22.64021,-20.58202 0.6679,-19.28508 19.43856,-22.18284 19.43856,-22.18284 0,0 24.27391,-92.45828 101.0806,-56.25753 76.80669,36.20074 86.57513,78.59218 86.90186,103.36749 -88.25257,-2.70731 -55.01105,-34.81395 -124.63557,-32.70255 -31.9011,0.96742 -60.14524,28.35745 -60.14524,28.35745 z"
       id="path30"
       sodipodi:nodetypes="czczcsc"
       color="mane-contour" /></g></svg>
