<?xml version="1.0" encoding="UTF-8" standalone="no"?>
<!-- Created with Inkscape (http://www.inkscape.org/) -->

<svg
   width="1000"
   height="1000"
   viewBox="0 0 1000 1000"
   version="1.1"
   id="svg1"
   xml:space="preserve"
   sodipodi:docname="Umbrum.svg"
   inkscape:version="1.4.2 (f4327f4, 2025-05-13)"
   xmlns:inkscape="http://www.inkscape.org/namespaces/inkscape"
   xmlns:sodipodi="http://sodipodi.sourceforge.net/DTD/sodipodi-0.dtd"
   xmlns="http://www.w3.org/2000/svg"
   xmlns:svg="http://www.w3.org/2000/svg"><sodipodi:namedview
     id="namedview1"
     pagecolor="#ffffff"
     bordercolor="#000000"
     borderopacity="0.25"
     inkscape:showpageshadow="2"
     inkscape:pageopacity="0.0"
     inkscape:pagecheckerboard="0"
     inkscape:deskcolor="#d1d1d1"
     inkscape:zoom="1.546"
     inkscape:cx="455.69211"
     inkscape:cy="316.62355"
     inkscape:window-width="1920"
     inkscape:window-height="991"
     inkscape:window-x="-9"
     inkscape:window-y="-9"
     inkscape:window-maximized="1"
     inkscape:current-layer="g3" /><defs
     id="defs1" /><g
     id="g3"
     data-layer="260"><path
       style="opacity:1;fill:#ede58a;fill-rule:evenodd;stroke:none;stroke-width:5;stroke-linecap:round;stroke-miterlimit:100;stroke-dasharray:none;stroke-opacity:1;fill-opacity:1"
       d="m 301.18359,303.69916 c -17.20363,-4.25828 -9.22619,-42.62406 -35.33764,-45.45725 -5.3951,-0.5854 -33.44295,-2.37686 -29.26446,15.08085 2.04739,8.55397 19.3963,12.01549 23.34427,-1.56797 2.68726,-9.24583 26.73168,8.80708 18.1518,21.18827 -11.74709,16.95163 -74.16714,-4.99789 -78.66064,-40.47026 -3.23092,-25.50538 27.6388,-51.90693 64.03296,-42.99356 -1.57239,-17.17891 -0.75106,-45.17162 55.57145,-43.67963 41.54294,1.10049 52.4644,29.50381 64.03296,26.98533 12.36902,-2.69274 -51.08499,-87.77669 87.13056,-65.63378 30.82966,4.93908 62.62945,21.87763 54.99703,49.54167 -3.45556,12.52486 -39.2471,2.57379 -37.42133,-6.58025 0.80922,-4.05728 9.28063,-3.52816 12.18438,-5.35183 4.25063,-2.66956 1.79776,-6.98315 -11.0163,-10.11053 -17.7303,-4.32724 -28.71811,9.36609 -25.33197,17.87966 11.04766,27.77647 54.98273,9.40348 75.6523,26.20097 15.48619,12.58512 -27.11256,16.89256 -23.32629,27.21401 11.03479,30.08104 88.3305,-5.25496 92.39041,26.52794 4.9365,38.64526 -90.09501,23.11412 -95.13468,61.74606 -3.59802,27.58085 54.96599,29.4234 53.05588,57.17228 -3.09093,44.90311 -104.10964,37.41334 -107.02651,82.32809 -0.83837,12.90942 45.80782,-24.23085 27.44269,27.4427 -8.45134,23.77934 -42.58955,42.87541 -66.77722,35.6755 C 343.88419,494.21788 378.1452,322.74887 301.18359,303.69916 Z"
       id="path2"
       sodipodi:nodetypes="sssssscsssssssssssssssss"
       color="mane-main" /><path
       d="m 471.54297,454.67383 c 1.26302,4.46003 4.1749,18.45337 -5.93164,26.94531 -16.5555,13.91063 -52.22204,22.14619 -64.91797,24.72852 5.49326,4.71085 11.81862,8.29907 19.17969,10.49023 24.18767,7.19991 58.326,-11.89644 66.77734,-35.67578 11.74505,-33.04679 -3.09859,-29.76886 -15.10742,-26.48828 z"
       style="opacity:1;fill:#8aedad;fill-rule:evenodd;stroke:none;stroke-width:5;stroke-linecap:round;stroke-miterlimit:100;fill-opacity:1"
       id="path22"
       color="mane-hl-2" /><path
       d="m 575.28906,238.11133 c 0.99358,7.38941 1.41934,17.2191 -2.19336,22.13672 -15.58505,21.21444 -79.25027,9.71082 -90.10351,38.87695 -11.13495,29.92317 47.40531,47.55859 48.48047,78.21289 0.33549,9.56529 -5.28639,21.79084 -11.875,32.70117 23.51201,-8.61506 45.2291,-18.19948 46.63671,-38.64844 1.91012,-27.74888 -56.65466,-29.59102 -53.05664,-57.17187 5.03967,-38.63194 100.07127,-23.10083 95.13477,-61.74609 -1.68817,-13.21579 -16.03921,-14.82681 -33.02344,-14.36133 z"
       style="opacity:1;fill:#8aedad;fill-rule:evenodd;stroke:none;stroke-width:5;stroke-linecap:round;stroke-miterlimit:100;fill-opacity:1"
       id="path21"
       color="mane-hl-1" /><path
       d="m 429.66602,123.47852 c -83.94691,0.22832 -35.68265,66.92746 -46.61133,69.30664 -11.56856,2.51848 -22.49027,-25.88584 -64.03321,-26.98633 -37.29084,-0.98784 -50.25206,10.95096 -54.29687,24.11719 14.84938,-2.50757 43.54737,-6.56892 60.01367,-3.76368 31.22211,5.31909 62.05156,58.05539 86.90234,38.41993 17.76129,-14.03381 -10.53282,-50.17492 -2.74414,-73.17969 3.36832,-9.9487 12.69161,-20.32026 20.76954,-27.91406 z"
       style="opacity:1;fill:#8aedad;fill-rule:evenodd;stroke:none;stroke-width:5;stroke-linecap:round;stroke-miterlimit:100;fill-opacity:1"
       id="path19"
       color="mane-hl-2" /><path
       d="m 314.51562,309.07031 c 2.6577,-15.30671 6.24073,-47.30975 -7.61523,-58.42773 -19.04406,-15.28091 -63.43083,-10.2766 -79.58398,0 -11.80198,7.50838 -8.67383,23.20525 -4.25,34.61523 20.42978,13.66117 47.65579,18.30052 55.01171,7.68555 8.57988,-12.38119 -15.46508,-30.43528 -18.15234,-21.18945 -3.94797,13.58346 -21.29636,10.12233 -23.34375,1.56836 -4.17849,-17.45771 23.86857,-15.66548 29.26367,-15.08008 26.11145,2.83319 18.13426,41.19875 35.33789,45.45703 4.87081,1.20563 9.29608,3.02081 13.33203,5.37109 z"
       style="opacity:1;fill:#8aedad;fill-rule:evenodd;stroke:none;stroke-width:5;stroke-linecap:round;stroke-miterlimit:100;fill-opacity:1"
       id="path18"
       color="mane-hl-1" /><path
       d="m 347.65039,357.43164 25.89258,-28.39844 61.39453,11.48438 c 0,0 34.41746,-43.12383 36.30859,-59.46485 1.93663,-16.73421 -17.50497,-35.80821 -10.20898,-50.99218 2.42252,-5.04156 12.49809,-7.72443 16.00781,-5.03125 8.01937,6.15367 2.16211,19.26172 2.16211,19.26172 0,0 22.81109,-3.24433 22.99414,-14.23047 0.28139,-16.88834 -27.97719,-32.84167 -43.45117,-26.07032 -17.12049,7.49185 -11.43359,54.88672 -11.43359,54.88672 0,0 -27.43864,-30.34776 -50.56641,-13.96679 -23.56684,16.69197 -49.70758,55.91299 -64.67773,80.5039 6.46988,8.912 11.44829,19.87665 15.57812,32.01758 z"
       style="opacity:1;fill:#8aedad;fill-rule:evenodd;stroke:none;stroke-width:5;stroke-linecap:round;stroke-miterlimit:100;fill-opacity:1"
       id="path20"
       color="mane-hl-1" /><path
       style="opacity:1;fill:none;fill-rule:evenodd;stroke:#000000;stroke-width:5;stroke-linecap:round;stroke-miterlimit:100;stroke-dasharray:none;stroke-opacity:1"
       d="m 263.44988,209.82564 c 0,0 3.2898,32.81319 57.63442,21.603 12.60528,-2.60021 4.01889,-26.98463 -8.64898,-27.70586 -7.10178,-0.40433 -11.67798,6.0151 -13.46388,9.11607 -0.31406,0.54531 -0.61728,1.4179 -0.82406,1.6521 0.0229,-0.3199 0.78379,-1.60317 0.78379,-1.60317"
       id="path4"
       sodipodi:nodetypes="cssscc"
       color="mane-contour" /><path
       style="opacity:1;fill:none;fill-rule:evenodd;stroke:#000000;stroke-width:5;stroke-linecap:round;stroke-miterlimit:100;stroke-dasharray:none;stroke-opacity:1"
       d="m 301.18359,303.69916 c -17.20363,-4.25828 -9.22619,-42.62406 -35.33764,-45.45725 -5.3951,-0.5854 -33.44295,-2.37686 -29.26446,15.08085 2.04739,8.55397 19.3963,12.01549 23.34427,-1.56797 2.68726,-9.24583 26.73168,8.80708 18.1518,21.18827 -11.74709,16.95163 -74.16714,-4.99789 -78.66064,-40.47026 -3.23092,-25.50538 27.6388,-51.90693 64.03296,-42.99356 -1.57239,-17.17891 -0.75106,-45.17162 55.57145,-43.67963 41.54294,1.10049 52.4644,29.50381 64.03296,26.98533 12.36902,-2.69274 -51.08499,-87.77669 87.13056,-65.63378 30.82966,4.93908 62.62945,21.87763 54.99703,49.54167 -3.45556,12.52486 -39.2471,2.57379 -37.42133,-6.58025 0.80922,-4.05728 9.28063,-3.52816 12.18438,-5.35183 4.25063,-2.66956 1.79776,-6.98315 -11.0163,-10.11053 -17.7303,-4.32724 -28.71811,9.36609 -25.33197,17.87966 11.04766,27.77647 54.98273,9.40348 75.6523,26.20097 15.48619,12.58512 -27.11256,16.89256 -23.32629,27.21401 11.03479,30.08104 88.3305,-5.25496 92.39041,26.52794 4.9365,38.64526 -90.09501,23.11412 -95.13468,61.74606 -3.59802,27.58085 54.96599,29.4234 53.05588,57.17228 -3.09093,44.90311 -104.10964,37.41334 -107.02651,82.32809 -0.83837,12.90942 45.80782,-24.23085 27.44269,27.4427 -8.45134,23.77934 -42.58955,42.87541 -66.77722,35.6755 C 343.88419,494.21788 378.1452,322.74887 301.18359,303.69916 Z"
       id="path3"
       sodipodi:nodetypes="sssssscsssssssssssssssss"
       color="mane-contour" /></g></svg>
