<?xml version="1.0" encoding="UTF-8" standalone="no"?>
<!-- Created with Inkscape (http://www.inkscape.org/) -->

<svg
   width="1000"
   height="1000"
   viewBox="0 0 1000 1000"
   version="1.1"
   id="svg1"
   xml:space="preserve"
   sodipodi:docname="🦓Zecora.svg"
   inkscape:version="1.4.2 (f4327f4, 2025-05-13)"
   xmlns:inkscape="http://www.inkscape.org/namespaces/inkscape"
   xmlns:sodipodi="http://sodipodi.sourceforge.net/DTD/sodipodi-0.dtd"
   xmlns="http://www.w3.org/2000/svg"
   xmlns:svg="http://www.w3.org/2000/svg"><sodipodi:namedview
     id="namedview1"
     pagecolor="#ffffff"
     bordercolor="#000000"
     borderopacity="0.25"
     inkscape:showpageshadow="2"
     inkscape:pageopacity="0.0"
     inkscape:pagecheckerboard="0"
     inkscape:deskcolor="#d1d1d1"
     inkscape:zoom="0.773"
     inkscape:cx="500"
     inkscape:cy="500"
     inkscape:window-width="1920"
     inkscape:window-height="991"
     inkscape:window-x="-9"
     inkscape:window-y="-9"
     inkscape:window-maximized="1"
     inkscape:current-layer="svg1" /><defs
     id="defs1" /><g
     id="g69"
     style="display:inline"
     data-layer="260"><path
       style="display:inline;fill:#328f3e;fill-opacity:1;stroke:none;stroke-width:5;stroke-opacity:1"
       d="m 491.88474,214.19662 c 77.22233,85.03533 43.2562,196.25678 -11.16335,235.12788 l -34.18773,24.41981 -0.6977,-100.47008 -37.67628,-81.63193 -74.65485,-5.58167 -29.30377,15.34959 c -36.32124,-29.3191 -78.3902,-44.26893 -122.09905,-55.119 11.06079,-11.39591 18.07859,-22.79182 37.67628,-34.18773 23.61262,7.7651 37.75058,19.32007 52.32816,30.69919 -7.89708,-14.41785 -13.18567,-28.46305 -33.49002,-44.65337 36.34244,-16.87834 73.49034,-34.13204 113.72654,-34.18773 57.0071,-0.0789 108.0212,15.52536 139.54177,50.23504 z"
       id="path68"
       color="mane-main" /><path
       style="fill:#8f7d32;fill-opacity:1;stroke:none;stroke-width:4;stroke-dasharray:none;stroke-opacity:1"
       d="m 261.29196,186.63712 c 55.17649,69.04875 54.72435,79.06304 66.98005,102.5632 12.98113,-3.74056 36.32371,-2.77136 69.77089,2.79083 0.16602,-34.62435 6.48027,-59.18794 -12.55876,-125.23873 -33.92419,-7.43897 -74.46294,-2.42701 -124.19218,19.8847 z"
       id="path71"
       color="mane-hl-1" /><path
       style="fill:#8f7b32;fill-opacity:1;stroke:none;stroke-width:4;stroke-dasharray:none;stroke-opacity:1"
       d="m 493.62901,216.98745 c -15.92288,46.71201 -47.50703,67.629 -78.8411,88.95788 l 28.60606,63.84036 c 37.72288,0.88051 66.66292,-4.51245 91.39986,-12.90761 4.94157,-45.22167 2.61848,-90.99161 -41.16482,-139.89063 z"
       id="path72"
       color="mane-hl-2" /><path
       style="display:inline;fill:none;fill-opacity:1;stroke:#1d7fbf;stroke-width:4;stroke-dasharray:none;stroke-opacity:1"
       d="m 332.27871,165.11032 c 10.22985,27.78806 15.41158,65.63585 15.1803,67.92444 -0.99328,-2.23708 -2.24274,-27.19436 -12.55876,-68.37547 33.77312,-1.97204 70.43687,2.72311 106.17872,14.53218 -2.24911,23.47774 -12.02131,45.43645 -19.36676,66.90213 -0.58063,1.69677 -1.62092,3.95304 -1.69148,5.08159 0.89969,-1.25664 1.76089,-5.55972 1.76089,-5.55972 l 20.72782,-65.44456 9.40154,3.93958 c -3.26946,26.07931 -11.9686,43.51448 -18.30434,63.69318 -0.35004,1.11483 -1.06214,2.56221 -1.02715,3.37152 0.60096,-0.96948 0.8327,-2.42004 0.8327,-2.42004 l 21.49398,-62.46689"
       id="path70"
       color="mane-contour" /><path
       style="display:inline;fill:none;fill-opacity:1;stroke:#1d7fbf;stroke-width:5;stroke-opacity:1"
       d="m 491.88474,214.19662 c 77.22233,85.03533 43.2562,196.25678 -11.16335,235.12788 l -34.18773,24.41981 -0.6977,-100.47008 -37.67628,-81.63193 -74.65485,-5.58167 -29.30377,15.34959 c -36.32124,-29.3191 -78.3902,-44.26893 -122.09905,-55.119 11.06079,-11.39591 18.07859,-22.79182 37.67628,-34.18773 22.29155,7.33066 36.13896,18.03899 49.88381,28.78833 0.81457,0.63704 1.34291,1.3314 2.44435,1.91086 -0.51885,-0.94727 -1.02644,-1.89294 -1.52776,-2.8377 -7.12907,-13.43499 -12.99193,-26.68908 -31.96226,-41.81567 36.34244,-16.87834 73.49034,-34.13204 113.72654,-34.18773 57.0071,-0.0789 108.0212,15.52536 139.54177,50.23504 z"
       id="path69"
       color="mane-contour" /></g></svg>
