<?xml version="1.0" encoding="UTF-8" standalone="no"?>
<!-- Created with Inkscape (http://www.inkscape.org/) -->

<svg
   width="1000"
   height="1000"
   viewBox="0 0 1000 1000"
   version="1.1"
   id="svg1"
   xml:space="preserve"
   xmlns="http://www.w3.org/2000/svg"
   xmlns:svg="http://www.w3.org/2000/svg"><defs
     id="defs1" /><g
     id="g21"
     data-layer="390"
     transform="matrix(-0.98132598,0.1923521,0.1923521,0.98132598,659.46832,-67.959625)"><path
       style="fill:#e8e8e8;fill-opacity:1;fill-rule:evenodd;stroke:none;stroke-width:5;stroke-linecap:round;stroke-dasharray:none;stroke-opacity:1"
       d="m 386.25594,304.15654 c 0,0 3.03001,5.13157 5.38232,6.82144 2.79174,2.00556 9.71116,3.46957 9.71116,3.46957 0,0 12.1837,-13.01344 17.83775,-19.89595 18.76521,-22.84235 53.9659,-41.17137 53.28456,-70.89363 -0.83365,-36.36696 -69.75018,-78.89775 -69.75018,-78.89775 0,0 25.51352,48.31038 21.95416,74.55265 -1.15988,8.5515 -10.95404,15.07603 -14.6361,23.55498 -2.79893,6.44529 -5.48854,20.35334 -5.48854,20.35334 0,0 -2.98137,-8.21064 -4.99193,-11.75788 -2.02747,-3.57706 -7.42903,-8.94899 -7.42903,-8.94899 0,0 2.25297,35.04402 -1.52908,50.89383 -0.89696,3.75895 -4.34509,10.74839 -4.34509,10.74839 z"
       id="path20"
       color="mane-main" /><path
       style="fill:none;fill-rule:evenodd;stroke:#000000;stroke-width:5;stroke-linecap:round;stroke-dasharray:none;stroke-opacity:1"
       d="m 386.25594,304.15654 c 0,0 3.03001,5.13157 5.38232,6.82144 2.79174,2.00556 9.71116,3.46957 9.71116,3.46957 0,0 12.1837,-13.01344 17.83775,-19.89595 18.76521,-22.84235 53.9659,-41.17137 53.28456,-70.89363 -0.83365,-36.36696 -69.75018,-78.89775 -69.75018,-78.89775 0,0 25.51352,48.31038 21.95416,74.55265 -1.15988,8.5515 -10.95404,15.07603 -14.6361,23.55498 -2.79893,6.44529 -5.48854,20.35334 -5.48854,20.35334 0,0 -2.98137,-8.21064 -4.99193,-11.75788 -2.02747,-3.57706 -7.42903,-8.94899 -7.42903,-8.94899 0,0 2.25297,35.04402 -1.52908,50.89383 -0.89696,3.75895 -4.34509,10.74839 -4.34509,10.74839 z"
       id="path21"
       color="mane-contour" /></g><g
     id="g18"
     data-layer="900"><path
       style="fill:#e8e8e8;fill-opacity:1;fill-rule:evenodd;stroke:none;stroke-width:5;stroke-linecap:round;stroke-dasharray:none;stroke-opacity:1"
       d="m 386.25594,304.15654 c 0,0 3.03001,5.13157 5.38232,6.82144 2.79174,2.00556 9.71116,3.46957 9.71116,3.46957 0,0 12.1837,-13.01344 17.83775,-19.89595 18.76521,-22.84235 53.9659,-41.17137 53.28456,-70.89363 -0.83365,-36.36696 -69.75018,-78.89775 -69.75018,-78.89775 0,0 25.51352,48.31038 21.95416,74.55265 -1.15988,8.5515 -10.95404,15.07603 -14.6361,23.55498 -2.79893,6.44529 -5.48854,20.35334 -5.48854,20.35334 0,0 -2.98137,-8.21064 -4.99193,-11.75788 -2.02747,-3.57706 -7.42903,-8.94899 -7.42903,-8.94899 0,0 2.25297,35.04402 -1.52908,50.89383 -0.89696,3.75895 -4.34509,10.74839 -4.34509,10.74839 z"
       id="path18"
       color="mane-main" /><path
       style="fill:none;fill-rule:evenodd;stroke:#000000;stroke-width:5;stroke-linecap:round;stroke-dasharray:none;stroke-opacity:1"
       d="m 386.25594,304.15654 c 0,0 3.03001,5.13157 5.38232,6.82144 2.79174,2.00556 9.71116,3.46957 9.71116,3.46957 0,0 12.1837,-13.01344 17.83775,-19.89595 18.76521,-22.84235 53.9659,-41.17137 53.28456,-70.89363 -0.83365,-36.36696 -69.75018,-78.89775 -69.75018,-78.89775 0,0 25.51352,48.31038 21.95416,74.55265 -1.15988,8.5515 -10.95404,15.07603 -14.6361,23.55498 -2.79893,6.44529 -5.48854,20.35334 -5.48854,20.35334 0,0 -2.98137,-8.21064 -4.99193,-11.75788 -2.02747,-3.57706 -7.42903,-8.94899 -7.42903,-8.94899 0,0 2.25297,35.04402 -1.52908,50.89383 -0.89696,3.75895 -4.34509,10.74839 -4.34509,10.74839 z"
       id="path19"
       color="mane-contour" /></g></svg>
