<?xml version="1.0" encoding="UTF-8" standalone="no"?>
<!-- Created with Inkscape (http://www.inkscape.org/) -->

<svg
   width="1000"
   height="1000"
   viewBox="0 0 1000 1000"
   version="1.1"
   id="svg1"
   xml:space="preserve"
   xmlns="http://www.w3.org/2000/svg"
   xmlns:svg="http://www.w3.org/2000/svg"><defs
     id="defs1" /><g
     id="g19"
     data-layer="290"><path
       style="fill:#8f8f8f;fill-opacity:1;fill-rule:evenodd;stroke:none;stroke-width:5;stroke-linecap:round"
       d="m 431.43596,409.44373 1.9405,91.2031 c 0,0 14.25257,-7.11842 21.903,-9.12546 8.63989,-2.26661 26.60929,-3.16432 26.60929,-3.16432 0,0 -8.59057,-17.79256 -6.90886,-28.19598 2.36607,-14.63702 24.37328,-28.07828 24.37328,-28.07828 0,0 -12.56129,-14.599 -13.60585,-24.62552 -1.72477,-16.55573 20.72099,-35.52971 20.72099,-35.52971 0,0 -12.14149,-4.84697 -15.77503,-13.05432 -5.32714,-12.03281 -0.94486,-24.01836 2.51164,-36.14067 -10.22342,6.72982 -13.46342,9.88548 -41.74929,23.7475 -8.21433,4.02558 -27.1348,4.10208 -27.1348,4.10208 z"
       id="path18"
       color="mane-main" /><path
       style="fill:none;fill-opacity:1;fill-rule:evenodd;stroke:#000000;stroke-width:4;stroke-linecap:round;stroke-dasharray:none;stroke-opacity:1"
       d="m 503.11608,372.99197 c 0.28782,0.0221 -16.42521,7.62948 -46.02289,6.90952 -13.61702,-0.33122 -40.65029,-4.16525 -40.65029,-4.16525 l 8.23281,54.42801 c 0,0 18.98879,6.22749 28.84389,7.43791 22.63356,2.77988 43.65056,-5.37971 43.65056,-5.37971"
       id="path20"
       color="mane-contour" /><path
       style="fill:none;fill-rule:evenodd;stroke:#000000;stroke-width:5;stroke-linecap:round"
       d="m 431.43596,409.44373 1.9405,91.2031 c 0,0 14.25257,-7.11842 21.903,-9.12546 8.63989,-2.26661 26.60929,-3.16432 26.60929,-3.16432 0,0 -8.59057,-17.79256 -6.90886,-28.19598 2.36607,-14.63702 24.37328,-28.07828 24.37328,-28.07828 0,0 -12.56129,-14.599 -13.60585,-24.62552 -1.72477,-16.55573 20.72099,-35.52971 20.72099,-35.52971 0,0 -12.14149,-4.84697 -15.77503,-13.05432 -5.32714,-12.03281 -0.94486,-24.01836 2.51164,-36.14067 -10.22342,6.72982 -12.8089,11.30967 -41.74929,23.7475 -12.55942,5.39771 -27.1348,4.10208 -27.1348,4.10208 z"
       id="path19"
       color="mane-contour" /></g></svg>
