<?xml version="1.0" encoding="UTF-8" standalone="no"?>
<!-- Created with Inkscape (http://www.inkscape.org/) -->

<svg
   width="1000"
   height="1000"
   viewBox="0 0 1000 1000"
   version="1.1"
   id="svg1"
   xml:space="preserve"
   xmlns="http://www.w3.org/2000/svg"
   xmlns:svg="http://www.w3.org/2000/svg"><defs
     id="defs1" /><g
     id="g21"
     data-layer="390"
     transform="matrix(-0.96477849,0.26306361,0.26306361,0.96477849,643.10521,-97.801504)"><path
       style="fill:#8a8a8a;fill-opacity:1;fill-rule:evenodd;stroke:none;stroke-width:5;stroke-linecap:round"
       d="m 378.39586,302.71669 c 0,0 5.46168,6.25386 11.63497,9.60162 6.24953,3.38912 14.23825,6.56914 14.23825,6.56914 0,0 126.88121,-24.20597 134.86417,-73.41526 12.79305,-78.86013 -111.55873,-136.4093 -165.58862,-159.443729 22.63577,30.559099 86.34478,92.432279 91.84994,140.685639 1.28496,11.26289 -29.10737,-20.69857 -29.10737,-20.69857 0,0 -1.31771,14.79625 4.20439,26.84346 3.41427,7.44867 12.62945,20.28381 12.62945,20.28381 0,0 -5.44496,6.28403 -8.4376,9.27439 -3.20093,3.1985 -10.08843,9.09132 -10.08843,9.09132 0,0 -0.36274,-5.00963 -0.76997,-10.18501 -0.39711,-5.04683 -4.17599,-13.73426 -4.17599,-13.73426 0,0 -9.79674,20.7586 -23.75807,35.52284 -7.67382,8.11513 -27.49512,19.60461 -27.49512,19.60461 z"
       id="path20"
       color="mane-main" /><path
       style="fill:none;fill-rule:evenodd;stroke:#000000;stroke-width:5;stroke-linecap:round"
       d="m 378.39586,302.71669 c 0,0 5.46168,6.25386 11.63497,9.60162 6.24953,3.38912 14.23825,6.56914 14.23825,6.56914 0,0 126.88121,-24.20597 134.86417,-73.41526 12.79305,-78.86013 -111.55873,-136.4093 -165.58862,-159.443729 22.63577,30.559099 86.34478,92.432279 91.84994,140.685639 1.28496,11.26289 -29.10737,-20.69857 -29.10737,-20.69857 0,0 -1.31771,14.79625 4.20439,26.84346 3.41427,7.44867 12.62945,20.28381 12.62945,20.28381 0,0 -5.44496,6.28403 -8.4376,9.27439 -3.20093,3.1985 -10.08843,9.09132 -10.08843,9.09132 0,0 -0.36274,-5.00963 -0.76997,-10.18501 -0.39711,-5.04683 -4.17599,-13.73426 -4.17599,-13.73426 0,0 -9.79674,20.7586 -23.75807,35.52284 -7.67382,8.11513 -27.49512,19.60461 -27.49512,19.60461 z"
       id="path21"
       color="mane-contour" /></g><g
     id="g18"
     data-layer="900"
     style="display:inline"><path
       style="fill:#8a8a8a;fill-opacity:1;fill-rule:evenodd;stroke:none;stroke-width:5;stroke-linecap:round"
       d="m 378.39586,302.71669 c 0,0 5.46168,6.25386 11.63497,9.60162 6.24953,3.38912 14.23825,6.56914 14.23825,6.56914 0,0 126.88121,-24.20597 134.86417,-73.41526 12.79305,-78.86013 -111.55873,-136.4093 -165.58862,-159.443729 22.63577,30.559099 86.34478,92.432279 91.84994,140.685639 1.28496,11.26289 -29.10737,-20.69857 -29.10737,-20.69857 0,0 -1.31771,14.79625 4.20439,26.84346 3.41427,7.44867 12.62945,20.28381 12.62945,20.28381 0,0 -5.44496,6.28403 -8.4376,9.27439 -3.20093,3.1985 -10.08843,9.09132 -10.08843,9.09132 0,0 -0.36274,-5.00963 -0.76997,-10.18501 -0.39711,-5.04683 -4.17599,-13.73426 -4.17599,-13.73426 0,0 -9.79674,20.7586 -23.75807,35.52284 -7.67382,8.11513 -27.49512,19.60461 -27.49512,19.60461 z"
       id="path18"
       color="mane-main" /><path
       style="fill:none;fill-rule:evenodd;stroke:#000000;stroke-width:5;stroke-linecap:round"
       d="m 378.39586,302.71669 c 0,0 5.46168,6.25386 11.63497,9.60162 6.24953,3.38912 14.23825,6.56914 14.23825,6.56914 0,0 126.88121,-24.20597 134.86417,-73.41526 12.79305,-78.86013 -111.55873,-136.4093 -165.58862,-159.443729 22.63577,30.559099 86.34478,92.432279 91.84994,140.685639 1.28496,11.26289 -29.10737,-20.69857 -29.10737,-20.69857 0,0 -1.31771,14.79625 4.20439,26.84346 3.41427,7.44867 12.62945,20.28381 12.62945,20.28381 0,0 -5.44496,6.28403 -8.4376,9.27439 -3.20093,3.1985 -10.08843,9.09132 -10.08843,9.09132 0,0 -0.36274,-5.00963 -0.76997,-10.18501 -0.39711,-5.04683 -4.17599,-13.73426 -4.17599,-13.73426 0,0 -9.79674,20.7586 -23.75807,35.52284 -7.67382,8.11513 -27.49512,19.60461 -27.49512,19.60461 z"
       id="path19"
       color="mane-contour" /></g></svg>
