<?xml version="1.0" encoding="UTF-8" standalone="no"?>
<!-- Created with Inkscape (http://www.inkscape.org/) -->

<svg
   width="1000"
   height="1000"
   viewBox="0 0 1000 1000"
   version="1.1"
   id="svg1"
   xml:space="preserve"
   xmlns="http://www.w3.org/2000/svg"
   xmlns:svg="http://www.w3.org/2000/svg"><defs
     id="defs1" /><g
     id="g24"
     data-layer="390"
     transform="matrix(0.98542535,-0.17450444,0.16068785,1.0701562,-106.68801,45.432315)"><path
       style="fill:#8a8a8a;fill-opacity:1;fill-rule:evenodd;stroke:none;stroke-width:5;stroke-linecap:round;stroke-opacity:1"
       d="m 369.07175,314.88867 c 0,0 -11.08279,-3.93906 -21.48393,-37.37335 -10.51662,-33.80544 -18.27548,-104.62634 -18.27548,-104.62634 0,0 -19.84627,-13.26833 -22.60099,-37.08803 -6.34888,-54.898133 13.01171,-68.889859 23.72818,-65.734083 10.98873,3.235951 11.99063,63.819273 21.0949,64.559293 7.97818,0.64849 7.06829,-15.72024 13.66585,-20.70647 9.29794,-7.02708 13.35006,17.72546 11.03257,28.98524 -3.69604,17.95762 -15.98526,28.47796 -15.98526,28.47796 0,0 4.28998,32.62867 8.65769,55.00425 9.83736,50.39642 35.68502,79.40946 35.68502,79.40946 0,0 -5.67756,7.11208 -15.98322,9.22136 -7.77603,1.59154 -19.53533,-0.12929 -19.53533,-0.12929 z"
       id="path23"
       color="mane-main" /><path
       style="fill:none;fill-opacity:1;fill-rule:evenodd;stroke:#000000;stroke-width:5;stroke-linecap:round;stroke-opacity:1"
       d="m 369.07175,314.88867 c 0,0 -11.08279,-3.93906 -21.48393,-37.37335 -10.51662,-33.80544 -18.27548,-104.62634 -18.27548,-104.62634 0,0 -19.84627,-13.26833 -22.60099,-37.08803 -6.34888,-54.898133 13.01171,-68.889859 23.72818,-65.734083 10.98873,3.235951 11.99063,63.819273 21.0949,64.559293 7.97818,0.64849 7.06829,-15.72024 13.66585,-20.70647 9.29794,-7.02708 13.35006,17.72546 11.03257,28.98524 -3.69604,17.95762 -15.98526,28.47796 -15.98526,28.47796 0,0 4.28998,32.62867 8.65769,55.00425 9.83736,50.39642 35.68502,79.40946 35.68502,79.40946"
       id="path24"
       color="mane-contour" /></g><g
     id="g21"
     data-layer="900"
     style="display:inline"><path
       style="fill:#8a8a8a;fill-opacity:1;fill-rule:evenodd;stroke:none;stroke-width:5;stroke-linecap:round;stroke-opacity:1"
       d="m 369.07175,314.88867 c 0,0 -11.08279,-3.93906 -21.48393,-37.37335 -10.51662,-33.80544 -18.27548,-104.62634 -18.27548,-104.62634 0,0 -19.84627,-13.26833 -22.60099,-37.08803 -6.34888,-54.898133 13.01171,-68.889859 23.72818,-65.734083 10.98873,3.235951 11.99063,63.819273 21.0949,64.559293 7.97818,0.64849 7.06829,-15.72024 13.66585,-20.70647 9.29794,-7.02708 13.35006,17.72546 11.03257,28.98524 -3.69604,17.95762 -15.98526,28.47796 -15.98526,28.47796 0,0 4.28998,32.62867 8.65769,55.00425 9.83736,50.39642 35.68502,79.40946 35.68502,79.40946 0,0 -5.67756,7.11208 -15.98322,9.22136 -7.77603,1.59154 -19.53533,-0.12929 -19.53533,-0.12929 z"
       id="path21"
       color="mane-main" /><path
       style="fill:none;fill-opacity:1;fill-rule:evenodd;stroke:#000000;stroke-width:5;stroke-linecap:round;stroke-opacity:1"
       d="m 369.07175,314.88867 c 0,0 -11.08279,-3.93906 -21.48393,-37.37335 -10.51662,-33.80544 -18.27548,-104.62634 -18.27548,-104.62634 0,0 -19.84627,-13.26833 -22.60099,-37.08803 -6.34888,-54.898133 13.01171,-68.889859 23.72818,-65.734083 10.98873,3.235951 11.99063,63.819273 21.0949,64.559293 7.97818,0.64849 7.06829,-15.72024 13.66585,-20.70647 9.29794,-7.02708 13.35006,17.72546 11.03257,28.98524 -3.69604,17.95762 -15.98526,28.47796 -15.98526,28.47796 0,0 4.28998,32.62867 8.65769,55.00425 9.83736,50.39642 35.68502,79.40946 35.68502,79.40946"
       id="path22"
       color="mane-contour" /></g></svg>
