<?xml version="1.0" encoding="UTF-8" standalone="no"?>
<!-- Created with Inkscape (http://www.inkscape.org/) -->

<svg
   width="1000"
   height="1000"
   viewBox="0 0 1000 1000"
   version="1.1"
   id="svg1"
   xml:space="preserve"
   xmlns="http://www.w3.org/2000/svg"
   xmlns:svg="http://www.w3.org/2000/svg"><defs
     id="defs1" /><g
     id="g21"><g
       id="g23"
       data-layer="260"><path
         style="fill:#31f417;fill-opacity:1;fill-rule:evenodd;stroke:none;stroke-width:5;stroke-linecap:round;stroke-dasharray:none;stroke-opacity:1"
         d="m 438.62574,486.65046 c 0,0 30.61958,-10.91654 38.87715,-33.15992 5.09571,-13.72626 -2.39262,-21.86545 0.2287,-32.47386 4.51637,-18.27762 25.28118,-19.34481 25.38449,-48.71078 0.11002,-31.2729 -35.79559,-63.2268 -35.79559,-63.2268 0,0 -13.44913,-14.09785 -31.21033,-12.69799 -14.54306,1.14621 -24.92711,14.17872 -24.92711,14.17872 z"
         id="path21"
         color="gradient"
         data-grad="from:mane-main;to:mane-main;fromOpacity:0.6;toOpacity:0.4;range:50%-80%" /><path
         style="fill:none;fill-opacity:1;fill-rule:evenodd;stroke:#000000;stroke-width:5;stroke-linecap:round;stroke-dasharray:none;stroke-opacity:1"
         d="m 438.62574,486.65046 c 0,0 30.61958,-10.91654 38.87715,-33.15992 5.09571,-13.72626 -2.39262,-21.86545 0.2287,-32.47386 4.51637,-18.27762 25.28118,-19.34481 25.38449,-48.71078 0.11002,-31.2729 -36.36157,-62.66082 -36.36157,-62.66082 0,0 -12.88315,-14.66383 -30.64435,-13.26397 -14.54306,1.14621 -24.92711,14.17872 -24.92711,14.17872 z"
         id="path23"
         color="mane-contour" /><path
         style="fill:none;fill-opacity:1;fill-rule:evenodd;stroke:#000000;stroke-width:4;stroke-linecap:round;stroke-dasharray:none;stroke-opacity:1"
         d="m 477.27421,452.80447 c 0,0 -5.88746,-9.93132 -12.80659,-13.26397 -9.70081,-4.67247 -24.69843,-3.43033 -24.69843,-3.43033 l 8.00412,-49.39686 c 0,0 13.228,-2.49661 24.69843,2.97296 11.47042,5.46957 14.40741,16.23693 14.40741,16.23693"
         id="path26"
         color="mane-contour" /><path
         style="fill:none;fill-opacity:1;fill-rule:evenodd;stroke:#000000;stroke-width:4;stroke-linecap:round;stroke-dasharray:none;stroke-opacity:1"
         d="m 427.64867,324.28118 c 0,0 19.38955,7.6053 29.04351,8.69019 7.15334,0.80387 13.70202,-0.67524 20.81072,0.45738 4.51744,0.71976 14.40741,5.94591 14.40741,5.94591"
         id="path27"
         color="mane-contour" /><circle
         style="fill:#f417da;fill-opacity:1;fill-rule:evenodd;stroke:none;stroke-width:4;stroke-linecap:round;stroke-dasharray:none;stroke-opacity:1"
         id="path34"
         cx="456.01553"
         cy="324.3855"
         r="3.5575678"
         color="gradient"
         data-grad="from:#ffffff;to:#ffffff;fromOpacity:0.3;toOpacity:0.4;range:50%-80%" /><circle
         style="fill:#f417da;fill-opacity:1;fill-rule:evenodd;stroke:none;stroke-width:4;stroke-linecap:round;stroke-dasharray:none;stroke-opacity:1"
         id="path35"
         cx="469.92239"
         cy="325.67917"
         r="2.5873222"
         color="gradient"
         data-grad="from:#ffffff;to:#ffffff;fromOpacity:0.3;toOpacity:0.4;range:50%-80%" /><ellipse
         style="fill:#f417da;fill-opacity:1;fill-rule:evenodd;stroke:none;stroke-width:4;stroke-linecap:round;stroke-dasharray:none;stroke-opacity:1"
         id="path36"
         cx="491.7529"
         cy="387.45148"
         rx="3.3958602"
         ry="3.2341526"
         color="gradient"
         data-grad="from:#ffffff;to:#ffffff;fromOpacity:0.3;toOpacity:0.4;range:50%-80%" /><ellipse
         style="fill:#f417da;fill-opacity:1;fill-rule:evenodd;stroke:none;stroke-width:4;stroke-linecap:round;stroke-dasharray:none;stroke-opacity:1"
         id="path37"
         cx="479.78656"
         cy="387.45148"
         rx="3.0724449"
         ry="2.5873222"
         color="gradient"
         data-grad="from:#ffffff;to:#ffffff;fromOpacity:0.3;toOpacity:0.4;range:50%-80%" /><ellipse
         style="fill:#f417da;fill-opacity:1;fill-rule:evenodd;stroke:none;stroke-width:4;stroke-linecap:round;stroke-dasharray:none;stroke-opacity:1"
         id="path38"
         cx="465.8797"
         cy="414.13324"
         rx="3.7192755"
         ry="3.3958602"
         color="gradient"
         data-grad="from:#ffffff;to:#ffffff;fromOpacity:0.3;toOpacity:0.4;range:50%-80%" /><ellipse
         style="fill:#f417da;fill-opacity:1;fill-rule:evenodd;stroke:none;stroke-width:4;stroke-linecap:round;stroke-dasharray:none;stroke-opacity:1"
         id="path39"
         cx="462.48383"
         cy="424.15912"
         rx="3.2341526"
         ry="3.0724449"
         color="gradient"
         data-grad="from:#ffffff;to:#ffffff;fromOpacity:0.3;toOpacity:0.4;range:50%-80%" /><ellipse
         style="fill:#f417da;fill-opacity:1;fill-rule:evenodd;stroke:none;stroke-width:4;stroke-linecap:round;stroke-dasharray:none;stroke-opacity:1"
         id="path40"
         cx="462.32211"
         cy="457.30917"
         rx="3.3958602"
         ry="3.2341526"
         color="gradient"
         data-grad="from:#ffffff;to:#ffffff;fromOpacity:0.3;toOpacity:0.4;range:50%-80%" /></g><g
       id="g22"
       data-layer="700"><path
         style="fill:#31f417;fill-opacity:1;fill-rule:evenodd;stroke:none;stroke-width:5;stroke-linecap:round;stroke-dasharray:none;stroke-opacity:1"
         d="m 326.72406,293.73325 c 30.26366,-84.76392 92.27379,-65.00455 113.48775,-49.98492 21.21395,15.01963 26.5427,65.89675 26.5427,65.89675 0,0 -12.88315,-14.66382 -30.64435,-13.26397 -4.51884,0.35615 -6.05557,1.08562 -11.37314,3.02759 -10.2992,-9.13029 -28.40716,-14.06043 -42.37072,-14.77114 -20.56572,-1.04673 -55.64224,9.09569 -55.64224,9.09569 z"
         id="path22"
         color="gradient"
         data-grad="from:mane-main;to:mane-main;fromOpacity:0.6;toOpacity:0.4;range:50%-80%" /><path
         style="fill:none;fill-opacity:1;fill-rule:evenodd;stroke:#000000;stroke-width:5;stroke-linecap:round;stroke-dasharray:none;stroke-opacity:1"
         d="m 326.72406,293.73325 c 30.26366,-84.76392 92.27379,-65.00455 113.48775,-49.98492 21.21395,15.01963 27.35124,65.33077 27.35124,65.33077 0,0 -13.69169,-14.09784 -31.45289,-12.69799 -4.51884,0.35615 -6.05557,1.08562 -11.37314,3.02759 -10.2992,-9.13029 -28.40716,-14.06043 -42.37072,-14.77114 -20.56572,-1.04673 -55.64224,9.09569 -55.64224,9.09569 z"
         id="path24"
         color="mane-contour" /><path
         style="fill:none;fill-opacity:1;fill-rule:evenodd;stroke:#000000;stroke-width:4;stroke-linecap:round;stroke-dasharray:none;stroke-opacity:1"
         d="m 338.82486,290.57712 c 0,0 9.2215,-37.08927 54.12469,-44.78151 39.01112,-6.6829 66.30013,29.43078 66.30013,29.43078 0,0 -20.36623,-20.54731 -50.7762,-14.55369 -28.4097,5.59938 -33.54046,23.93105 -33.54046,23.93105"
         id="path25"
         color="mane-contour" /><ellipse
         style="fill:#f417da;fill-opacity:1;fill-rule:evenodd;stroke:none;stroke-width:4;stroke-linecap:round;stroke-dasharray:none;stroke-opacity:1"
         id="path28"
         cx="377.26392"
         cy="269.89005"
         rx="4.0426908"
         ry="3.7192755"
         color="gradient"
         data-grad="from:#ffffff;to:#ffffff;fromOpacity:0.3;toOpacity:0.4;range:50%-80%" /><ellipse
         style="fill:#f417da;fill-opacity:1;fill-rule:evenodd;stroke:none;stroke-width:4;stroke-linecap:round;stroke-dasharray:none;stroke-opacity:1"
         id="path29"
         cx="376.61707"
         cy="258.73221"
         rx="3.3958602"
         ry="3.2341526"
         color="gradient"
         data-grad="from:#ffffff;to:#ffffff;fromOpacity:0.3;toOpacity:0.4;range:50%-80%" /><ellipse
         style="fill:#f417da;fill-opacity:1;fill-rule:evenodd;stroke:none;stroke-width:4;stroke-linecap:round;stroke-dasharray:none;stroke-opacity:1"
         id="path30"
         cx="387.45148"
         cy="259.21735"
         rx="2.9107373"
         ry="3.0724449"
         color="gradient"
         data-grad="from:#ffffff;to:#ffffff;fromOpacity:0.3;toOpacity:0.4;range:50%-80%" /><ellipse
         style="fill:#f417da;fill-opacity:1;fill-rule:evenodd;stroke:none;stroke-width:4;stroke-linecap:round;stroke-dasharray:none;stroke-opacity:1"
         id="path31"
         cx="416.07373"
         cy="271.3454"
         rx="3.7192755"
         ry="3.5575678"
         color="gradient"
         data-grad="from:#ffffff;to:#ffffff;fromOpacity:0.3;toOpacity:0.4;range:50%-80%" /><ellipse
         style="fill:#f417da;fill-opacity:1;fill-rule:evenodd;stroke:none;stroke-width:4;stroke-linecap:round;stroke-dasharray:none;stroke-opacity:1"
         id="path32"
         cx="439.52133"
         cy="277.00519"
         rx="4.2043986"
         ry="3.3958602"
         color="gradient"
         data-grad="from:#ffffff;to:#ffffff;fromOpacity:0.3;toOpacity:0.4;range:50%-80%" /><ellipse
         style="fill:#f417da;fill-opacity:1;fill-rule:evenodd;stroke:none;stroke-width:4;stroke-linecap:round;stroke-dasharray:none;stroke-opacity:1"
         id="path33"
         cx="436.2872"
         cy="287.67789"
         rx="3.5575678"
         ry="3.3958602"
         color="gradient"
         data-grad="from:#ffffff;to:#ffffff;fromOpacity:0.3;toOpacity:0.4;range:50%-80%" /></g></g></svg>
