<?xml version="1.0" encoding="UTF-8" standalone="no"?>
<!-- Created with Inkscape (http://www.inkscape.org/) -->

<svg
   width="1000"
   height="1000"
   viewBox="0 0 1000 1000"
   version="1.1"
   id="svg1"
   xml:space="preserve"
   sodipodi:docname="001.svg"
   inkscape:version="1.4.2 (f4327f4, 2025-05-13)"
   xmlns:inkscape="http://www.inkscape.org/namespaces/inkscape"
   xmlns:sodipodi="http://sodipodi.sourceforge.net/DTD/sodipodi-0.dtd"
   xmlns="http://www.w3.org/2000/svg"
   xmlns:svg="http://www.w3.org/2000/svg"><sodipodi:namedview
     id="namedview1"
     pagecolor="#ffffff"
     bordercolor="#000000"
     borderopacity="0.25"
     inkscape:showpageshadow="2"
     inkscape:pageopacity="0.0"
     inkscape:pagecheckerboard="0"
     inkscape:deskcolor="#d1d1d1"
     inkscape:zoom="17.490993"
     inkscape:cx="283.14573"
     inkscape:cy="279.88691"
     inkscape:window-width="1920"
     inkscape:window-height="991"
     inkscape:window-x="-9"
     inkscape:window-y="-9"
     inkscape:window-maximized="1"
     inkscape:current-layer="svg1" /><defs
     id="defs1" /><path
     style="display:inline;fill:#0000ff;stroke-width:4;stroke-linecap:round"
     d="m 291.63684,309.93197 c 0,0 -43.03131,-80.22739 -35.6755,-90.10351 5.94506,-7.98201 66.77723,69.52149 66.77723,69.52149 z"
     id="path1"
     data-layer="800"
     color="coat" /><path
     style="fill:none;stroke:#000000;stroke-width:4;stroke-linecap:butt;stroke-opacity:1"
     d="m 291.63684,309.93197 c 0,0 -43.03131,-80.22739 -35.6755,-90.10351 5.94506,-7.98201 66.77723,69.52149 66.77723,69.52149"
     id="path2"
     data-layer="800"
     color="coat-contour" /><path
     style="fill:none;stroke:#000000;stroke-width:3;stroke-linecap:butt;stroke-dasharray:none;stroke-opacity:1"
     d="m 259.79085,240.58096 c 0,0 3.76976,1.79698 9.43343,2.17254 5.83791,0.38711 14.86479,0.17152 14.86479,0.17152"
     id="path3"
     data-layer="800"
     color="coat-contour" /><path
     style="fill:none;stroke:#000000;stroke-width:3;stroke-linecap:butt;stroke-dasharray:none;stroke-opacity:1"
     d="m 267.12529,259.85569 c 0,0 7.5553,1.41588 13.2068,1.94386 9.03955,0.84448 19.20989,-0.40021 19.20989,-0.40021"
     id="path3-8"
     data-layer="800"
     color="coat-contour" /><path
     style="fill:none;stroke:#000000;stroke-width:3;stroke-linecap:butt;stroke-dasharray:none;stroke-opacity:1"
     d="m 277.58447,283.47532 c 0,0 6.2853,1.68319 11.949,2.0582 21.38877,1.41621 28.01442,-2.00103 28.01442,-2.00103"
     id="path3-5"
     data-layer="800"
     color="coat-contour"
     sodipodi:nodetypes="csc" /></svg>
