<?xml version="1.0" encoding="UTF-8" standalone="no"?>
<!-- Created with Inkscape (http://www.inkscape.org/) -->

<svg
   width="1000"
   height="1000"
   viewBox="0 0 1000 1000"
   version="1.1"
   id="svg1"
   xml:space="preserve"
   sodipodi:docname="004.svg"
   inkscape:version="1.4.2 (f4327f4, 2025-05-13)"
   xmlns:inkscape="http://www.inkscape.org/namespaces/inkscape"
   xmlns:sodipodi="http://sodipodi.sourceforge.net/DTD/sodipodi-0.dtd"
   xmlns="http://www.w3.org/2000/svg"
   xmlns:svg="http://www.w3.org/2000/svg"><sodipodi:namedview
     id="namedview1"
     pagecolor="#ffffff"
     bordercolor="#000000"
     borderopacity="0.25"
     inkscape:showpageshadow="2"
     inkscape:pageopacity="0.0"
     inkscape:pagecheckerboard="0"
     inkscape:deskcolor="#d1d1d1"
     inkscape:zoom="3.092"
     inkscape:cx="278.62225"
     inkscape:cy="206.82406"
     inkscape:window-width="1920"
     inkscape:window-height="991"
     inkscape:window-x="-9"
     inkscape:window-y="-9"
     inkscape:window-maximized="1"
     inkscape:current-layer="svg1" /><defs
     id="defs1" /><path
     style="display:inline;fill:#0000ff;stroke-width:4;stroke-linecap:round"
     d="m 291.63684,309.93197 c 0,0 -18.01579,-45.95196 -21.64974,-53.23515 -1.41944,-2.84485 -11.6849,10.45931 -13.56775,5.11979 -8.72963,-24.75604 -29.77263,-79.32924 -28.76157,-99.23083 0.38708,-7.61931 34.98158,66.38589 39.16397,73.18485 2.58209,4.19747 10.27372,-12.19763 13.55744,-8.0185 9.10369,11.5861 42.35938,61.59782 42.35938,61.59782 z"
     id="path1"
     data-layer="800"
     color="coat"
     sodipodi:nodetypes="cssssscc" /><path
     style="display:inline;fill:none;stroke:#000000;stroke-width:4;stroke-linecap:round;stroke-opacity:1"
     d="m 291.63684,309.93197 c 0,0 -18.01579,-45.95196 -21.64974,-53.23515 -1.41944,-2.84485 -11.6849,10.45931 -13.56775,5.11979 -8.72963,-24.75604 -29.77263,-79.32924 -28.76157,-99.23083 0.38708,-7.61931 34.98158,66.38589 39.16397,73.18485 2.58209,4.19747 10.27372,-12.19763 13.55744,-8.0185 9.10369,11.5861 42.35938,61.59782 42.35938,61.59782"
     id="path3"
     data-layer="800"
     color="coat-contour"
     sodipodi:nodetypes="csssssc" /></svg>
