<?xml version="1.0" encoding="UTF-8" standalone="no"?>
<!-- Created with Inkscape (http://www.inkscape.org/) -->

<svg
   width="1000"
   height="1000"
   viewBox="0 0 1000 1000"
   version="1.1"
   id="svg1"
   xml:space="preserve"
   sodipodi:docname="Ancient.svg"
   inkscape:version="1.4.2 (f4327f4, 2025-05-13)"
   xmlns:inkscape="http://www.inkscape.org/namespaces/inkscape"
   xmlns:sodipodi="http://sodipodi.sourceforge.net/DTD/sodipodi-0.dtd"
   xmlns="http://www.w3.org/2000/svg"
   xmlns:svg="http://www.w3.org/2000/svg"><sodipodi:namedview
     id="namedview1"
     pagecolor="#ffffff"
     bordercolor="#000000"
     borderopacity="0.25"
     inkscape:showpageshadow="2"
     inkscape:pageopacity="0.0"
     inkscape:pagecheckerboard="0"
     inkscape:deskcolor="#d1d1d1"
     inkscape:zoom="1.546"
     inkscape:cx="180.14231"
     inkscape:cy="380.65977"
     inkscape:window-width="1920"
     inkscape:window-height="991"
     inkscape:window-x="-9"
     inkscape:window-y="-9"
     inkscape:window-maximized="1"
     inkscape:current-layer="svg1" /><defs
     id="defs1" /><g
     id="g1"><path
       style="display:inline;fill:#0000ff;stroke-width:4;stroke-linecap:round"
       d="m 291.63684,309.93197 c 0,0 -48.20595,-36.56633 -35.19038,-142.01166 18.39655,85.97013 66.29211,121.42964 66.29211,121.42964 z"
       id="path1"
       data-layer="800"
       color="coat"
       sodipodi:nodetypes="cccc" /><path
       style="fill:none;stroke:#000000;stroke-width:4;stroke-linecap:butt;stroke-opacity:1"
       d="m 291.63684,309.93197 c 0,0 -53.05338,-47.72154 -34.00472,-148.23786 0.28879,-1.52393 0.24461,-1.82435 0.8214,-3.15858 0.21228,1.73305 0.16404,1.76249 0.23491,3.35123 3.46124,77.57392 64.05014,127.46319 64.05014,127.46319"
       id="path2"
       data-layer="800"
       color="coat-contour"
       sodipodi:nodetypes="cscsc" /><path
       style="fill:none;stroke:#000000;stroke-width:3;stroke-linecap:butt;stroke-dasharray:none;stroke-opacity:1"
       d="m 252.83742,215.67798 c 0,0 3.76976,1.79698 9.43343,2.17254 5.83791,0.38711 9.85185,0.49494 9.85185,0.49494"
       id="path3"
       data-layer="800"
       color="coat-contour"
       sodipodi:nodetypes="csc" /><path
       style="fill:none;stroke:#000000;stroke-width:3;stroke-linecap:butt;stroke-dasharray:none;stroke-opacity:1"
       d="m 257.09942,247.08079 c 0,0 7.5553,1.41588 13.2068,1.94386 9.03955,0.84448 19.20989,-0.40021 19.20989,-0.40021"
       id="path3-8"
       data-layer="800"
       color="coat-contour" /><path
       style="fill:none;stroke:#000000;stroke-width:3;stroke-linecap:butt;stroke-dasharray:none;stroke-opacity:1"
       d="m 267.88201,273.93457 c 0,0 6.2853,1.68319 11.949,2.0582 21.38877,1.41621 28.01442,-2.00103 28.01442,-2.00103"
       id="path3-5"
       data-layer="800"
       color="coat-contour"
       sodipodi:nodetypes="csc" /></g></svg>
