<?xml version="1.0" encoding="UTF-8" standalone="no"?>
<!-- Created with Inkscape (http://www.inkscape.org/) -->

<svg
   width="1000"
   height="1000"
   viewBox="0 0 1000 1000"
   version="1.1"
   id="svg1"
   xml:space="preserve"
   sodipodi:docname="aurora.svg"
   inkscape:version="1.4.2 (f4327f4, 2025-05-13)"
   xmlns:inkscape="http://www.inkscape.org/namespaces/inkscape"
   xmlns:sodipodi="http://sodipodi.sourceforge.net/DTD/sodipodi-0.dtd"
   xmlns="http://www.w3.org/2000/svg"
   xmlns:svg="http://www.w3.org/2000/svg"><sodipodi:namedview
     id="namedview1"
     pagecolor="#ffffff"
     bordercolor="#000000"
     borderopacity="0.25"
     inkscape:showpageshadow="2"
     inkscape:pageopacity="0.0"
     inkscape:pagecheckerboard="0"
     inkscape:deskcolor="#d1d1d1"
     inkscape:zoom="4.3727483"
     inkscape:cx="254.64534"
     inkscape:cy="305.18564"
     inkscape:window-width="1920"
     inkscape:window-height="991"
     inkscape:window-x="-9"
     inkscape:window-y="-9"
     inkscape:window-maximized="1"
     inkscape:current-layer="g4" /><defs
     id="defs1" /><g
     id="g3"
     style="fill:none;stroke:#000000;stroke-opacity:1;stroke-width:5;stroke-dasharray:none"
     data-layer="800"><g
       id="g5"
       style="display:inline"><path
         style="display:inline;opacity:1;fill:#cb3a3a;fill-opacity:1;fill-rule:evenodd;stroke:none;stroke-width:5;stroke-linecap:round;stroke-miterlimit:100;stroke-dasharray:none;stroke-opacity:1"
         d="m 281.9737,318.10658 -3.38634,20.85232 23.73967,-17.65067 20.12464,13.72134 0.91476,-19.20988 26.52794,-0.45738 -13.95004,-13.03528 14.40741,-7.31805 -11.20576,-5.03117 8.69018,-12.5779 -29.50089,7.77543 -24.92712,16.46562 -25.38449,5.25985 z"
         id="path3"
         color="hooves"
         sodipodi:nodetypes="cccccccccccccc" /><path
         style="display:inline;opacity:1;fill:none;fill-rule:evenodd;stroke:#000000;stroke-width:5;stroke-linecap:round;stroke-miterlimit:100;stroke-dasharray:none;stroke-opacity:1"
         d="m 281.9737,318.10658 -2.5778,21.09489 22.93113,-17.89324 20.12464,13.72134 0.91476,-19.20988 26.52794,-0.45738 -13.95004,-13.03528 14.40741,-7.31805 -11.20576,-5.03117 8.69018,-12.5779 -29.50089,7.77543 -24.92712,16.46562 -25.38449,5.25985 z"
         id="path4"
         color="hooves-contour"
         sodipodi:nodetypes="cccccccccccccc" /></g><g
       id="g4"><path
         style="opacity:1;fill:#ecb4b4;fill-rule:evenodd;stroke:none;stroke-width:5;stroke-linecap:round;stroke-miterlimit:100;stroke-dasharray:none;stroke-opacity:1;fill-opacity:1"
         d="m 290.10349,314.68305 c 0,0 -41.24963,-86.53378 -40.10349,-94.76066 0.96128,-6.89994 4.24949,-22.58081 7.76197,-19.40492 3.38002,3.05612 61.69668,75.37152 71.47477,94.11384 -15.83199,22.75284 -39.13325,20.05174 -39.13325,20.05174 z"
         id="path2"
         sodipodi:nodetypes="ccccc"
         color="hooves;lightness+10;saturation-10;hue+5" /><path
         style="fill:#ecb4b4;stroke:none;stroke-opacity:1;stroke-width:5;stroke-dasharray:none;opacity:1;fill-rule:evenodd;stroke-linecap:round;stroke-miterlimit:100;fill-opacity:1"
         d="m 290.10349,314.68305 c 0,0 -41.24963,-86.53378 -40.10349,-94.76066 0.96128,-6.89994 4.24949,-22.58081 7.76197,-19.40492 3.38002,3.05612 61.69668,75.37152 71.47477,94.11384 -15.83199,22.75284 -39.13325,20.05174 -39.13325,20.05174 z"
         id="path9"
         sodipodi:nodetypes="ccccc"
         color="gradient"
         data-grad="from:hooves;saturation-10;to:transparent;angle:60range:40%-60%" /><path
         d="m 280.72461,249.67578 -15.47852,10.86914 c 5.03259,11.44192 10.49229,23.38812 15.00977,33.13867 l 14.05273,-22.01562 13.16016,40.30273 c 7.04036,-2.64678 15.07142,-7.7165 21.76758,-17.33984 -3.20308,-6.13955 -11.61484,-18.02832 -21.59766,-31.34766 l -12.68359,8.38477 z"
         style="fill:#b4ecb5;stroke:none;stroke-opacity:1;stroke-width:1;stroke-dasharray:none;opacity:1;fill-rule:evenodd;stroke-linecap:round;stroke-miterlimit:100;fill-opacity:1"
         id="path7"
         color="hooves;saturation-15;hue-5;opacity-10;lightness+20" /><path
         d="m 287.08398,236.56055 c -14.67368,-18.6812 -27.77254,-34.64176 -29.32226,-36.04297 -3.51248,-3.17589 -6.80044,12.50436 -7.76172,19.40429 -0.17905,1.2852 0.67671,4.48214 2.24805,8.96094 l 28.47656,20.79297 z"
         style="fill:#b4ecb5;stroke:none;stroke-opacity:1;stroke-width:1;stroke-dasharray:none;opacity:1;fill-rule:evenodd;stroke-linecap:round;stroke-miterlimit:100;fill-opacity:1"
         id="path6"
         color="hooves;saturation-20;hue-5;opacity-10;lightness+30" /><path
         d="m 292.6875,243.73047 -8.0957,59.25976 c 0.29219,0.62424 0.57396,1.22701 0.84765,1.81055 l 8.17383,-59.87891 c -0.30856,-0.39755 -0.6174,-0.79479 -0.92578,-1.1914 z"
         style="opacity:1;fill:#cb3a3a;fill-rule:evenodd;stroke:none;stroke-linecap:round;stroke-miterlimit:100;fill-opacity:1"
         id="path12"
         color="hooves;lightness+100;saturation-90;opacity-70" /><path
         d="M 282.01758,230.13867 274.75,281.71484 c 0.8531,1.86851 1.69522,3.70367 2.51758,5.49219 l 7.7207,-53.30859 c -1.00142,-1.27034 -1.99214,-2.52469 -2.9707,-3.75977 z"
         style="opacity:1;fill:#cb3a3a;fill-rule:evenodd;stroke:none;stroke-linecap:round;stroke-miterlimit:100;fill-opacity:1"
         id="path11"
         color="hooves;lightness+100;saturation-90;opacity-70" /><path
         style="opacity:1;fill:none;fill-rule:evenodd;stroke:#000000;stroke-width:5;stroke-linecap:round;stroke-miterlimit:100;stroke-dasharray:none;stroke-opacity:1"
         d="m 290.10349,314.68305 c 0,0 -41.24963,-86.53378 -40.10349,-94.76066 0.96128,-6.89994 4.24949,-22.58081 7.76197,-19.40492 3.38002,3.05612 61.69668,75.37152 71.47477,94.11384 -15.83199,22.75284 -39.13325,20.05174 -39.13325,20.05174 z"
         id="path8"
         sodipodi:nodetypes="ccccc"
         color="hooves-contour" /></g></g></svg>
