<?xml version="1.0" encoding="UTF-8" standalone="no"?>
<!-- Created with Inkscape (http://www.inkscape.org/) -->

<svg
   width="1000"
   height="1000"
   viewBox="0 0 1000 1000"
   version="1.1"
   id="svg1"
   xml:space="preserve"
   sodipodi:docname="Kirin1.svg"
   inkscape:version="1.4.2 (f4327f4, 2025-05-13)"
   xmlns:inkscape="http://www.inkscape.org/namespaces/inkscape"
   xmlns:sodipodi="http://sodipodi.sourceforge.net/DTD/sodipodi-0.dtd"
   xmlns="http://www.w3.org/2000/svg"
   xmlns:svg="http://www.w3.org/2000/svg"><sodipodi:namedview
     id="namedview1"
     pagecolor="#ffffff"
     bordercolor="#000000"
     borderopacity="0.25"
     inkscape:showpageshadow="2"
     inkscape:pageopacity="0.0"
     inkscape:pagecheckerboard="0"
     inkscape:deskcolor="#d1d1d1"
     inkscape:zoom="2.1863742"
     inkscape:cx="304.38523"
     inkscape:cy="183.17999"
     inkscape:window-width="1920"
     inkscape:window-height="991"
     inkscape:window-x="-9"
     inkscape:window-y="-9"
     inkscape:window-maximized="1"
     inkscape:current-layer="svg1" /><defs
     id="defs1" /><g
     id="g31"
     data-layer="800"><path
       style="display:inline;opacity:1;fill:#5b0e1d;fill-opacity:1;fill-rule:evenodd;stroke:none;stroke-width:5;stroke-linecap:round;stroke-miterlimit:100;stroke-dasharray:none;stroke-opacity:1"
       d="m 298.43932,316.50575 c 20.25528,-12.27797 19.28035,-15.44876 45.05175,-29.27221 -7.36988,-18.2139 -18.12914,-68.99488 8.0921,-110.62978 14.64356,-23.2515 52.87038,-18.17486 61.98766,-33.50502 14.78277,-24.85633 12.67458,-43.757513 3.28681,-39.28617 -8.9873,4.2806 -7.76841,16.55079 -17.81497,21.82276 -11.84346,6.21491 -43.81656,-0.95594 -59.04785,12.58194 -7.92173,7.041 -13.88846,14.73925 -19.63075,21.30686 -12.29826,-10.75203 9.72342,-34.18376 3.16618,-37.22935 -18.71913,-8.69432 -58.67903,44.30423 -24.93329,69.37528 -3.42182,6.90894 -6.67656,14.74519 -9.9371,24.03969 -15.32901,43.6969 -0.61563,92.58963 1.89829,96.58307 2.87566,1.54994 4.47787,2.72341 7.88117,4.21293 z"
       id="path1"
       sodipodi:nodetypes="ccssssscscscc"
       color="5b0e1dff" /><path
       style="display:inline;opacity:1;fill:#980a2d;fill-opacity:1;fill-rule:evenodd;stroke:none;stroke-width:2;stroke-linecap:round;stroke-miterlimit:100"
       d="m 280.92974,275.18591 c 0,0 5.63215,-8.23014 8.03183,-12.5922 2.81006,-5.10803 7.41954,-15.83814 7.41954,-15.83814 0,0 13.59388,13.01703 21.54889,17.91215 6.7894,4.17785 21.9357,9.52776 21.9357,9.52776 l 1.82755,9.85185 c 0,0 -10.30645,2.48009 -30.28533,-6.88174 -4.94192,-2.31571 -13.42599,-9.37062 -13.42599,-9.37062 0,0 -3.87877,11.88883 -6.34923,17.62341 -1.73262,4.02188 -5.92348,11.72645 -5.92348,11.72645"
       id="path2"
       sodipodi:nodetypes="cscsccscsc"
       color="7e2539ff" /><path
       style="display:inline;opacity:1;fill:#980a2d;fill-opacity:1;fill-rule:evenodd;stroke:none;stroke-width:2;stroke-linecap:round;stroke-miterlimit:100"
       d="m 283.03194,234.759 c 0,0 3.57395,-6.35663 8.03183,-10.49 4.27507,-3.96386 12.26601,-14.74543 12.26601,-14.74543 0,0 6.16009,14.02652 14.1151,18.92164 6.7894,4.17785 16.92276,9.85118 16.92276,9.85118 l 1.66584,15.1882 c 0,0 -9.22522,-0.74257 -24.51458,-12.2066 -4.36647,-3.27399 -10.48078,-13.78746 -10.48078,-13.78746 0,0 -6.32063,5.15736 -11.53536,10.89194 -2.94623,3.23994 -7.76449,16.58917 -7.76449,16.58917"
       id="path3"
       sodipodi:nodetypes="cscsccscsc"
       color="7e2539ff" /><path
       style="display:inline;opacity:1;fill:none;fill-opacity:1;fill-rule:evenodd;stroke:#35110d;stroke-width:5;stroke-linecap:round;stroke-miterlimit:100;stroke-dasharray:none;stroke-opacity:1"
       d="m 298.43932,316.50575 c 20.25528,-12.27797 19.28035,-15.44876 45.05175,-29.27221 -7.36988,-18.2139 -18.12914,-68.99488 8.0921,-110.62978 14.64356,-23.2515 52.87038,-18.17486 61.98766,-33.50502 14.78277,-24.85633 12.67458,-43.757513 3.28681,-39.28617 -8.9873,4.2806 -7.76841,16.55079 -17.81497,21.82276 -11.84346,6.21491 -43.81656,-0.95594 -59.04785,12.58194 -7.92173,7.041 -13.88846,14.73925 -19.63075,21.30686 -12.29826,-10.75203 9.72342,-34.18376 3.16618,-37.22935 -18.71913,-8.69432 -58.67903,44.30423 -24.93329,69.37528 -3.42182,6.90894 -6.67656,14.74519 -9.9371,24.03969 -15.32901,43.6969 -0.61563,92.58963 1.89829,96.58307 2.87566,1.54994 4.47787,2.72341 7.88117,4.21293 z"
       id="path34"
       sodipodi:nodetypes="ccssssscscscc"
       color="35110dff" /></g></svg>
