<?xml version="1.0" encoding="UTF-8" standalone="no"?>
<!-- Created with Inkscape (http://www.inkscape.org/) -->

<svg
   width="1000"
   height="1000"
   viewBox="0 0 1000 1000"
   version="1.1"
   id="svg1"
   xml:space="preserve"
   sodipodi:docname="Kirin2.svg"
   inkscape:version="1.4.2 (f4327f4, 2025-05-13)"
   xmlns:inkscape="http://www.inkscape.org/namespaces/inkscape"
   xmlns:sodipodi="http://sodipodi.sourceforge.net/DTD/sodipodi-0.dtd"
   xmlns="http://www.w3.org/2000/svg"
   xmlns:svg="http://www.w3.org/2000/svg"><sodipodi:namedview
     id="namedview1"
     pagecolor="#ffffff"
     bordercolor="#000000"
     borderopacity="0.25"
     inkscape:showpageshadow="2"
     inkscape:pageopacity="0.0"
     inkscape:pagecheckerboard="0"
     inkscape:deskcolor="#d1d1d1"
     inkscape:zoom="3.092"
     inkscape:cx="300.61449"
     inkscape:cy="234.63778"
     inkscape:window-width="1920"
     inkscape:window-height="991"
     inkscape:window-x="-9"
     inkscape:window-y="-9"
     inkscape:window-maximized="1"
     inkscape:current-layer="g31" /><defs
     id="defs1" /><g
     id="g31"
     data-layer="800"><path
       style="display:inline;opacity:1;fill:#5b0e1d;fill-opacity:1;fill-rule:evenodd;stroke:none;stroke-width:5;stroke-linecap:round;stroke-miterlimit:100;stroke-dasharray:none;stroke-opacity:1"
       d="m 298.43932,316.50575 c 20.25528,-12.27797 19.28035,-15.44876 45.05175,-29.27221 -0.86266,-30.12676 14.06979,-36.1285 9.68684,-43.99607 -5.16728,-9.27547 -14.16165,2.29267 -17.78236,6.81909 -1.78182,-22.14786 0.99837,-49.33484 16.18762,-73.4528 14.64356,-23.2515 33.66049,-13.1437 52.38272,-31.9042 13.65444,-13.68235 14.39697,-35.00241 8.78591,-38.76214 -5.37169,-3.59935 -10.00392,8.45409 -15.03002,13.97882 -0.23364,-8.56602 -2.89181,-23.889784 -9.19881,-20.58016 -6.63854,3.4836 -7.14883,24.05973 -17.03784,32.39911 -21.50071,18.13151 -43.91867,12.07325 -70.61716,44.00955 -51.47258,61.57067 -17.83233,124.59833 -10.30982,136.54808 2.87566,1.54994 4.47787,2.72341 7.88117,4.21293 z"
       id="path4"
       sodipodi:nodetypes="ccscssscssscc"
       color="5b0e1dff" /><path
       style="display:inline;opacity:1;fill:#980a2d;fill-opacity:1;fill-rule:evenodd;stroke:none;stroke-width:2;stroke-linecap:round;stroke-miterlimit:100"
       d="m 274.98382,274.27115 c 13.84157,-15.49818 58.47662,21.66801 58.47662,21.66801 -16.61282,6.67461 -23.82086,12.90622 -31.26167,17.23272 -8.31371,4.83405 -13.26342,0.37232 -16.94693,-12.36802"
       id="path2"
       sodipodi:nodetypes="ccsc"
       color="7e2539ff" /><path
       style="display:inline;opacity:1;fill:#980a2d;fill-opacity:1;fill-rule:evenodd;stroke:none;stroke-width:2;stroke-linecap:round;stroke-miterlimit:100"
       d="m 281.312,208.54926 c 16.85172,-9.08612 53.05564,29.74713 53.05564,29.74713 l 1.66584,15.1882 c 0,0 -45.58679,-35.9607 -61.10484,-24.78451"
       id="path3"
       sodipodi:nodetypes="cccc"
       color="7e2539ff" /><path
       style="display:inline;opacity:1;fill:none;fill-opacity:1;fill-rule:evenodd;stroke:#35110d;stroke-width:5;stroke-linecap:round;stroke-miterlimit:100;stroke-dasharray:none;stroke-opacity:1"
       d="m 298.43932,316.50575 c 20.25528,-12.27797 19.28035,-15.44876 45.05175,-29.27221 -0.86266,-30.12676 14.06979,-36.1285 9.68684,-43.99607 -5.16728,-9.27547 -14.16165,2.29267 -17.78236,6.81909 -1.78182,-22.14786 0.99837,-49.33484 16.18762,-73.4528 14.64356,-23.2515 33.66049,-13.1437 52.38272,-31.9042 13.65444,-13.68235 14.39697,-35.00241 8.78591,-38.76214 -5.37169,-3.59935 -10.00392,8.45409 -15.03002,13.97882 -0.23364,-8.56602 -2.89181,-23.889784 -9.19881,-20.58016 -6.63854,3.4836 -7.14883,24.05973 -17.03784,32.39911 -21.50071,18.13151 -43.91867,12.07325 -70.61716,44.00955 -51.47258,61.57067 -17.83233,124.59833 -10.30982,136.54808 2.87566,1.54994 4.47787,2.72341 7.88117,4.21293 z"
       id="path34"
       sodipodi:nodetypes="ccscssscssscc"
       color="35110dff" /></g></svg>
