<?xml version="1.0" encoding="UTF-8" standalone="no"?>
<!-- Created with Inkscape (http://www.inkscape.org/) -->

<svg
   width="1000"
   height="1000"
   viewBox="0 0 1000 1000"
   version="1.1"
   id="svg1"
   xml:space="preserve"
   sodipodi:docname="Kirin.svg"
   inkscape:version="1.4.2 (f4327f4, 2025-05-13)"
   xmlns:inkscape="http://www.inkscape.org/namespaces/inkscape"
   xmlns:sodipodi="http://sodipodi.sourceforge.net/DTD/sodipodi-0.dtd"
   xmlns="http://www.w3.org/2000/svg"
   xmlns:svg="http://www.w3.org/2000/svg"><sodipodi:namedview
     id="namedview1"
     pagecolor="#ffffff"
     bordercolor="#000000"
     borderopacity="0.25"
     inkscape:showpageshadow="2"
     inkscape:pageopacity="0.0"
     inkscape:pagecheckerboard="0"
     inkscape:deskcolor="#d1d1d1"
     inkscape:zoom="1.546"
     inkscape:cx="424.64424"
     inkscape:cy="226.7141"
     inkscape:window-width="1920"
     inkscape:window-height="991"
     inkscape:window-x="-9"
     inkscape:window-y="-9"
     inkscape:window-maximized="1"
     inkscape:current-layer="svg1" /><defs
     id="defs1" /><g
     id="g31"
     data-layer="800"><path
       style="opacity:1;fill:#5b0e1d;fill-opacity:1;fill-rule:evenodd;stroke:none;stroke-width:5;stroke-linecap:round;stroke-miterlimit:100;stroke-dasharray:none;stroke-opacity:1"
       d="m 298.43932,316.50575 c 20.25528,-12.27797 19.28035,-15.44876 45.05175,-29.27221 -5.39837,-124.19721 103.66744,-183.64989 69.06411,-185.23819 -11.47811,-0.52685 -25.3279,5.47928 -39.87105,15.26131 -8.52843,5.73641 -18.14408,12.34693 -25.39939,20.8301 -13.97466,16.33969 -22.71624,39.45965 -27.11996,54.92686 -11.93709,-38.22511 21.34556,-83.97307 -5.94591,-69.52149 -31.90958,16.897 -30.80812,79.54526 -24.46974,130.81018 -9.16116,-3.11134 -14.25247,-31.01129 -21.03941,-22.86891 -16.17084,19.40037 4.15205,53.05631 21.84843,80.85942 2.87566,1.54994 4.47787,2.72341 7.88117,4.21293 z"
       id="path31"
       sodipodi:nodetypes="ccssscscscc"
       color="5b0e1dff" /><path
       d="m 354.45508,212.68164 c -5.39104,-5.98402 -11.53564,-14.30063 -13.41797,-22.70898 -2.29407,-10.24757 -3.37498,-28.2859 -3.80274,-37.69336 -5.42384,9.11844 -9.68611,18.91986 -12.89062,27.79101 0.37997,6.95231 1.25654,15.52636 3.26562,20.80078 2.25513,5.92033 11.00586,15.49414 11.00586,15.49414 0,0 -7.81371,4.19354 -26.67382,14.98829 -8.74892,5.00751 -18.33623,12.73069 -22.94336,16.5957 0.24017,2.13437 0.4923,4.25342 0.75195,6.35351 -9.16116,-3.11134 -14.25408,-31.01152 -21.04102,-22.86914 -12.86361,15.43266 -2.63403,39.88607 10.9961,63.23828 8.35092,-8.85929 21.35625,-22.14907 29.79101,-28.31835 10.20333,-7.46283 27.73045,-14.8213 36.07813,-18.11524 1.94697,-12.70339 5.03994,-24.55232 8.88086,-35.55664 z"
       style="opacity:1;fill:#7e2539;fill-rule:evenodd;stroke:none;stroke-width:2;stroke-linecap:round;stroke-miterlimit:100;fill-opacity:1"
       id="path33"
       color="7e2539ff" /><path
       style="opacity:1;fill:none;fill-opacity:1;fill-rule:evenodd;stroke:#35110d;stroke-width:5;stroke-linecap:round;stroke-miterlimit:100;stroke-dasharray:none;stroke-opacity:1"
       d="m 298.43932,316.50575 c 20.25528,-12.27797 19.28035,-15.44876 45.05175,-29.27221 -5.39837,-124.19721 103.66744,-183.64989 69.06411,-185.23819 -11.47811,-0.52685 -25.3279,5.47928 -39.87105,15.26131 -8.52843,5.73641 -18.14408,12.34693 -25.39939,20.8301 -13.97466,16.33969 -22.71624,39.45965 -27.11996,54.92686 -11.93709,-38.22511 21.34556,-83.97307 -5.94591,-69.52149 -31.90958,16.897 -30.80812,79.54526 -24.46974,130.81018 -9.16116,-3.11134 -14.25247,-31.01129 -21.03941,-22.86891 -16.17084,19.40037 4.15205,53.05631 21.84843,80.85942 2.87566,1.54994 4.47787,2.72341 7.88117,4.21293 z"
       id="path34"
       sodipodi:nodetypes="ccssscscscc"
       color="35110dff" /></g></svg>
