<?xml version="1.0" encoding="UTF-8" standalone="no"?>
<!-- Created with Inkscape (http://www.inkscape.org/) -->

<svg
   width="1000"
   height="1000"
   viewBox="0 0 1000 1000"
   version="1.1"
   id="svg1"
   xml:space="preserve"
   xmlns="http://www.w3.org/2000/svg"
   xmlns:svg="http://www.w3.org/2000/svg"><defs
     id="defs1" /><g
     id="layer1"
     data-layer="800"><path
       style="fill:#dbdbdb;fill-opacity:1;fill-rule:evenodd;stroke:none;stroke-width:5;stroke-linecap:round;stroke-opacity:1"
       d="m 299.12538,311.70328 c 0,0 -17.81961,-9.74116 -28.58614,-19.66726 -11.80701,-10.88536 -24.2893,-36.03839 -27.34359,-46.22775 -2.28487,3.66651 -5.82893,14.98866 -6.40366,19.97064 -4.42364,-7.88322 -8.26559,-21.98041 -12.67665,-32.74469 -2.26994,13.82479 -2.02898,45.72647 10.06232,69.29281 3.20064,6.23816 6.5607,11.89196 9.95587,16.99383 2.15665,3.24076 4.32745,6.25882 6.48057,9.0625 2.13487,2.77993 4.25235,5.34909 6.32138,7.7156 13.96586,15.97383 25.72428,22.71428 25.72428,22.71428 z"
       id="path3"
       color="coat" /><path
       style="fill:none;fill-rule:evenodd;stroke:#000000;stroke-width:5;stroke-linecap:round;stroke-opacity:1"
       d="m 299.12538,311.70328 c 0,0 -17.81961,-9.74116 -28.58614,-19.66726 -11.80701,-10.88536 -24.2893,-36.03839 -27.34359,-46.22775 -2.28487,3.66651 -5.82893,14.98866 -6.40366,19.97064 -4.42364,-7.88322 -8.26559,-21.98041 -12.67665,-32.74469 -2.26994,13.82479 -2.02898,45.72647 10.06232,69.29281 3.20064,6.23816 6.5607,11.89196 9.95587,16.99383 2.15665,3.24076 4.32745,6.25882 6.48057,9.0625 2.13487,2.77993 4.25235,5.34909 6.32138,7.7156 13.96586,15.97383 25.72428,22.71428 25.72428,22.71428"
       id="path4"
       color="coat-contour" /></g></svg>
