<?xml version="1.0" encoding="UTF-8" standalone="no"?>
<!-- Created with Inkscape (http://www.inkscape.org/) -->

<svg
   width="1000"
   height="1000"
   viewBox="0 0 1000 1000"
   version="1.1"
   id="svg1"
   xml:space="preserve"
   xmlns="http://www.w3.org/2000/svg"
   xmlns:svg="http://www.w3.org/2000/svg"><defs
     id="defs1" /><g
     id="layer1"
     data-layer="800"><path
       style="fill:#dbdbdb;fill-opacity:1;fill-rule:evenodd;stroke:none;stroke-width:5;stroke-linecap:round;stroke-opacity:1"
       d="m 299.12538,311.70328 c 0,0 -17.81961,-9.74116 -28.58614,-19.66726 -22.9141,-21.12544 -46.4239,-59.0018 -46.4239,-59.0018 0,0 -1.80029,44.69736 10.29101,68.26371 12.62408,24.60474 20.15064,27.887 26.84179,33.83176 -2.78194,0.49304 -9.81203,0.54662 -15.74712,0.51189 13.96587,15.97383 37.15874,23.17166 37.15874,23.17166 z"
       id="path3"
       color="coat" /><path
       style="fill:none;fill-rule:evenodd;stroke:#000000;stroke-width:5;stroke-linecap:round;stroke-opacity:1"
       d="m 299.12538,311.70328 c 0,0 -17.81961,-9.74116 -28.58614,-19.66726 -22.9141,-21.12544 -46.4239,-59.0018 -46.4239,-59.0018 0,0 -1.80029,44.69736 10.29101,68.26371 12.62408,24.60474 20.15064,27.887 26.84179,33.83176 -2.78194,0.49304 -9.81203,0.54662 -15.74712,0.51189 13.96587,15.97383 37.15874,23.17166 37.15874,23.17166"
       id="path4"
       color="coat-contour" /></g></svg>
