<?xml version="1.0" encoding="UTF-8" standalone="no"?>
<!-- Created with Inkscape (http://www.inkscape.org/) -->

<svg
   width="1000"
   height="1000"
   viewBox="0 0 1000 1000"
   version="1.1"
   id="svg1"
   xml:space="preserve"
   xmlns="http://www.w3.org/2000/svg"
   xmlns:svg="http://www.w3.org/2000/svg"><defs
     id="defs1" /><g
     id="layer1"
     data-layer="800"><path
       style="fill:#e8e8e8;fill-opacity:1;fill-rule:evenodd;stroke:none;stroke-width:5;stroke-linecap:round;stroke-opacity:1"
       d="m 322.90905,305.98605 c 0,0 -46.10748,-29.4886 -18.56306,-68.12638 -8.78564,-21.48567 -35.45831,-61.86853 -35.45831,-61.86853 0,0 -10.76852,14.26651 -23.53872,6.28083 -8.66178,-5.41653 -21.69438,-20.16765 -12.31474,-45.74456 -5.26058,-11.4408 -28.96169,-37.987195 -39.7919,-46.195201 3.90925,11.318851 32.48352,61.322651 12.87356,89.205011 7.02714,5.11474 14.91509,10.10824 20.43181,15.7518 5.51672,5.64356 19.7505,20.59352 19.7505,20.59352 24.16222,-28.55441 51.92424,20.96145 6.63199,40.47797 -0.0689,43.7234 25.92307,65.23234 35.90418,72.03707 0,0 15.2318,-1.24527 21.10439,-4.98719 6.35071,-4.04656 12.9703,-17.42434 12.9703,-17.42434 z"
       id="path8"
       color="coat" /><path
       style="fill:none;fill-rule:evenodd;stroke:#000000;stroke-width:3;stroke-linecap:round"
       d="m 261.84905,251.55804 c 0,0 5.34657,4.27823 9.57502,9.45177 4.77768,5.84552 8.83446,13.41715 8.83446,13.41715 0,0 4.7434,-4.72169 6.94662,-7.3269 2.58104,-3.05197 8.2612,-7.30921 8.2612,-7.30921"
       id="path1"
       color="coat-contour" /><path
       style="fill:none;fill-rule:evenodd;stroke:#000000;stroke-width:3;stroke-linecap:round"
       d="m 273.96957,212.68089 11.66315,-8.4615"
       id="path3"
       color="coat-contour" /><path
       style="fill:none;fill-rule:evenodd;stroke:#000000;stroke-width:3;stroke-linecap:round"
       d="m 267.79497,208.56448 5.71723,-25.1558"
       id="path4"
       color="coat-contour" /><path
       style="fill:none;fill-rule:evenodd;stroke:#000000;stroke-width:3;stroke-linecap:round"
       d="m 249.49984,185.0095 -0.22869,27.4427"
       id="path5"
       color="coat-contour" /><path
       style="fill:none;fill-rule:evenodd;stroke:#000000;stroke-width:3;stroke-linecap:round"
       d="m 229.83257,200.10299 14.63611,-17.38038"
       id="path6"
       color="coat-contour" /><path
       style="fill:none;fill-rule:evenodd;stroke:#000000;stroke-width:3;stroke-linecap:round"
       d="m 216.33991,185.92426 16.23693,-16.92299"
       id="path7"
       color="coat-contour" /><path
       style="fill:none;fill-rule:evenodd;stroke:#000000;stroke-width:5;stroke-linecap:round;stroke-opacity:1"
       d="m 322.90905,305.98605 c 0,0 -46.10748,-29.4886 -18.56306,-68.12638 -8.78564,-21.48567 -35.45831,-61.86853 -35.45831,-61.86853 0,0 -10.76852,14.26651 -23.53872,6.28083 -8.66178,-5.41653 -21.69438,-20.16765 -12.31474,-45.74456 -5.26058,-11.4408 -28.96169,-37.987195 -39.7919,-46.195201 3.90925,11.318851 32.48352,61.322651 12.87356,89.205011 7.02714,5.11474 14.91509,10.10824 20.43181,15.7518 5.51672,5.64356 19.7505,20.59352 19.7505,20.59352 24.16222,-28.55441 51.92424,20.96145 6.63199,40.47797 -0.0689,43.7234 25.92307,65.23234 35.90418,72.03707"
       id="path2"
       color="coat-contour" /></g></svg>
