<?xml version="1.0" encoding="UTF-8" standalone="no"?>
<!-- Created with Inkscape (http://www.inkscape.org/) -->

<svg
   width="1000"
   height="1000"
   viewBox="0 0 1000 1000"
   version="1.1"
   id="svg1"
   xml:space="preserve"
   xmlns="http://www.w3.org/2000/svg"
   xmlns:svg="http://www.w3.org/2000/svg"><defs
     id="defs1" /><g
     id="layer1"
     data-layer="800"><path
       style="fill:#dbdbdb;fill-opacity:1;fill-rule:evenodd;stroke:none;stroke-width:5;stroke-linecap:round;stroke-opacity:1"
       d="m 289.97781,327.02545 c 0,0 -1.89397,-11.96445 -7.18409,-15.30591 -5.99376,-3.78592 -21.06714,-0.8133 -21.06714,-0.8133 0,0 -15.52414,-20.78651 -22.97513,-48.37112 -6.83195,-25.29285 -9.22639,-47.99298 -9.14757,-47.56734 0,0 -11.41194,-3.38357 -16.09147,-6.1861 -3.86877,-2.31697 -10.88909,-11.09444 -7.85391,-16.89525 4.0591,-7.75771 17.79232,1.69766 26.23228,-4.81872 11.28759,-8.71499 -9.1483,-38.65481 4.57378,-42.53618 9.83024,-2.78054 19.6542,10.45329 22.14837,20.36007 3.62263,14.38897 -8.93514,44.71684 -8.93514,44.71684 0,0 12.49395,35.12301 27.68288,54.77917 18.19341,23.5443 45.54838,41.59844 45.54838,41.59844 z"
       id="path3"
       color="coat" /><path
       style="fill:none;fill-rule:evenodd;stroke:#000000;stroke-width:5;stroke-linecap:round;stroke-opacity:1"
       d="m 289.97781,327.02545 c 0,0 -1.89397,-11.96445 -7.18409,-15.30591 -5.99376,-3.78592 -21.06714,-0.8133 -21.06714,-0.8133 0,0 -15.52414,-20.78651 -22.97513,-48.37112 -6.83195,-25.29285 -9.22639,-47.99298 -9.14757,-47.56734 0,0 -11.41194,-3.38357 -16.09147,-6.1861 -3.86877,-2.31697 -10.88909,-11.09444 -7.85391,-16.89525 4.0591,-7.75771 17.79232,1.69766 26.23228,-4.81872 11.28759,-8.71499 -9.1483,-38.65481 4.57378,-42.53618 9.83024,-2.78054 19.6542,10.45329 22.14837,20.36007 3.62263,14.38897 -8.93514,44.71684 -8.93514,44.71684 0,0 12.49395,35.12301 27.68288,54.77917 18.19341,23.5443 45.54838,41.59844 45.54838,41.59844"
       id="path2"
       color="coat-contour" /></g></svg>
