<?xml version="1.0" encoding="UTF-8" standalone="no"?>
<!-- Created with Inkscape (http://www.inkscape.org/) -->

<svg
   width="1000"
   height="1000"
   viewBox="0 0 1000 1000"
   version="1.1"
   id="svg1"
   xml:space="preserve"
   xmlns="http://www.w3.org/2000/svg"
   xmlns:svg="http://www.w3.org/2000/svg"><defs
     id="defs1" /><g
     id="layer2"
     style="display:inline"
     data-layer="300"><title
       id="title7">coat</title><g
       id="g8"
       transform="matrix(1.0892944,-0.26777672,0.26777672,1.0892944,-184.37699,71.353551)"><path
         style="display:inline;fill:#564fb8;fill-opacity:1;stroke:none;stroke-width:5;stroke-linecap:round;stroke-opacity:1"
         d="m 392.86873,594.69687 c 0,0 -57.0239,-32.4897 -78.92151,-15.77252 -28.69872,21.90932 -6.00247,86.05272 5.43094,109.81554 15.98497,32.01278 30.94696,46.10784 45.05047,51.76815 23.97532,-26.05665 26.04855,-47.81775 20.58877,-62.90628 -2.82517,-7.80759 -11.95214,-15.82215 -17.88038,-25.1109 -4.64236,-7.27393 -7.31442,-11.99305 -10.25594,-24.70447 8.43196,8.79272 22.25915,11.98879 28.58003,12.74842 29.44304,3.53842 38.33905,-19.39306 38.33905,-19.39306 z"
         id="path8"
         color="coat" /><path
         style="display:inline;fill:none;stroke:#000000;stroke-width:5;stroke-linecap:round;stroke-opacity:1"
         d="m 392.86873,594.69687 c 0,0 -57.0239,-32.4897 -78.92151,-15.77252 -28.69872,21.90932 -6.00247,86.05272 5.43094,109.81554 15.98497,32.01278 30.94696,46.10784 45.05047,51.76815 23.97532,-26.05665 26.04855,-47.81775 20.58877,-62.90628 -2.82517,-7.80759 -11.95214,-15.82215 -17.88038,-25.1109 -4.64236,-7.27393 -7.31442,-11.99305 -10.25594,-24.70447 8.43196,8.79272 22.25915,11.98879 28.58003,12.74842 29.44304,3.53842 38.33905,-19.39306 38.33905,-19.39306 z"
         id="path7"
         color="coat-contour" /><g
         id="g14"
         style="display:inline"
         transform="rotate(-22.98912,439.38442,590.43053)"><path
           style="fill:#e19a4b;fill-opacity:1;stroke:none;stroke-width:5;stroke-linecap:round;stroke-opacity:1"
           d="m 355.46587,639.5681 c -18.11989,24.48313 -40.91533,39.99222 -58.7293,35.21975 0.8118,4.30263 18.5992,59.03523 36.12057,47.19799 51.52406,-34.80906 24.7734,-75.95886 22.60873,-82.41774 z"
           id="path9"
           color="hooves" /><path
           style="fill:none;stroke:#868686;stroke-width:5;stroke-linecap:round;stroke-opacity:1"
           d="m 354.55914,640.78015 c -18.11989,24.48313 -39.64776,39.14013 -57.46173,34.36766 0.8118,4.30263 18.23836,58.67527 35.75973,46.83803 51.52406,-34.80906 23.86667,-74.74681 21.702,-81.20569 z"
           id="path11"
           color="hooves-contour" /><path
           style="display:inline;opacity:1;fill:none;fill-opacity:1;fill-rule:evenodd;stroke:#868686;stroke-width:3.55011;stroke-linecap:round;stroke-miterlimit:100;stroke-dasharray:none;stroke-opacity:1"
           d="m 312.96631,674.89733 c 0,0 1.68615,12.40386 8.01723,26.89322 5.08918,11.64714 14.81664,17.55671 14.81664,17.55671"
           id="path13"
           color="hooves-contour" /><path
           style="display:inline;opacity:1;fill:none;fill-opacity:1;fill-rule:evenodd;stroke:#868686;stroke-width:3.55011;stroke-linecap:round;stroke-miterlimit:100;stroke-dasharray:none;stroke-opacity:1"
           d="m 334.31573,663.40926 c 0,0 5.84926,9.956 9.2987,15.04 6.35139,9.36109 16.74484,12.07659 16.74484,12.07659"
           id="path14"
           color="hooves-contour" /></g></g><path
       d="m 460.65625,391.45117 -97.11328,94.54102 c 0,0 -11.33788,59.47069 -9.64649,89.39453 3.38553,59.89623 32.16005,65.9132 63.66993,73.31836 32.32413,7.59652 53.58729,7.52819 95.26757,-10.74024 2.16201,-0.9476 4.26726,-2.00846 6.32032,-3.17187 2.17594,-15.19671 4.50009,-41.41358 0.25,-68.16992 -2.72301,-17.14261 -11.80256,-35.94946 -18.58399,-48.1836 -3.60797,1.33245 -7.17357,2.20794 -10.68359,2.49219 -16.29261,1.31943 -34.06252,-2.28044 -39.76953,-5.99805 -8.39433,-5.46816 -2.5037,-51.2419 3.23437,-85.47461 3.55712,-21.22137 7.05469,-38.00781 7.05469,-38.00781 z"
       style="display:inline;fill:#ff0000;stroke-width:0.885764"
       id="path10"
       color="coat" /><path
       d="m 363.54297,485.99219 c 0,0 -11.33788,59.47069 -9.64649,89.39453 3.38553,59.89623 32.16005,65.9132 63.66993,73.31836 32.32413,7.59652 53.58729,7.52819 95.26757,-10.74024 2.16201,-0.9476 4.26726,-2.00846 6.32032,-3.17187 M 500.82031,518.43945 c -3.60797,1.33245 -7.17357,2.20794 -10.68359,2.49219 -16.29261,1.31943 -34.06252,-2.28044 -39.76953,-5.99805 -8.39433,-5.46816 -2.5037,-51.2419 3.23437,-85.47461"
       style="display:inline;fill:none;stroke:#000000;stroke-width:5;stroke-dasharray:none;stroke-opacity:1"
       id="path12"
       color="coat-contour" /><g
       id="g9"
       transform="matrix(1.1267266,0,0,1.1267266,-39.323362,-67.039342)"
       style="display:inline"><path
         style="fill:#6ab84f;fill-opacity:1;stroke:none;stroke-width:5;stroke-linecap:round;stroke-opacity:1"
         d="m 400.40156,581.522 c 0,0 -36.23322,-54.72166 -63.31765,-49.68151 -35.4965,6.60555 -44.17947,74.08964 -44.69631,100.45491 -0.17676,35.78136 6.81708,55.11056 16.8501,66.52488 33.15217,-12.43779 44.81992,-30.92312 46.75451,-46.85203 1.00106,-8.24245 -3.52852,-19.51266 -4.62857,-30.47691 -0.86144,-8.58601 -1.11709,-14.00307 1.99249,-26.67443 3.55827,11.65112 14.45642,20.74157 19.75477,24.27116 24.68007,16.44105 42.96481,-0.0107 42.96481,-0.0107 z"
         id="path5"
         color="coat" /><path
         style="display:inline;fill:none;stroke:#000000;stroke-width:5;stroke-linecap:round;stroke-opacity:1"
         d="m 400.40156,581.522 c 0,0 -36.23322,-54.72166 -63.31765,-49.68151 -35.4965,6.60555 -44.17947,74.08964 -44.69631,100.45491 -0.17676,35.78136 6.81708,55.11056 16.8501,66.52488 33.15217,-12.43779 44.81992,-30.92312 46.75451,-46.85203 1.00106,-8.24245 -3.52852,-19.51266 -4.62857,-30.47691 -0.86144,-8.58601 -1.11709,-14.00307 1.99249,-26.67443 3.55827,11.65112 14.45642,20.74157 19.75477,24.27116 24.68007,16.44105 42.96481,-0.0107 42.96481,-0.0107"
         id="path6"
         color="coat-contour" /><g
         id="g2"><path
           style="fill:#e19a4b;fill-opacity:1;stroke:none;stroke-width:5;stroke-linecap:round;stroke-opacity:1"
           d="m 355.46587,639.5681 c -18.11989,24.48313 -40.91533,39.99222 -58.7293,35.21975 0.8118,4.30263 18.5992,59.03523 36.12057,47.19799 51.52406,-34.80906 24.7734,-75.95886 22.60873,-82.41774 z"
           id="path1"
           color="hooves" /><path
           style="fill:none;stroke:#868686;stroke-width:5;stroke-linecap:round;stroke-opacity:1"
           d="m 355.46587,639.5681 c -18.11989,24.48313 -40.91533,39.99222 -58.7293,35.21975 0.8118,4.30263 18.5992,59.03523 36.12057,47.19799 51.52406,-34.80906 24.7734,-75.95886 22.60873,-82.41774 z"
           id="path2"
           color="hooves-contour" /><path
           style="display:inline;opacity:1;fill:none;fill-opacity:1;fill-rule:evenodd;stroke:#868686;stroke-width:3.55011;stroke-linecap:round;stroke-miterlimit:100;stroke-dasharray:none;stroke-opacity:1"
           d="m 312.96631,674.89733 c 0,0 1.68615,12.40386 8.01723,26.89322 5.08918,11.64714 14.81664,17.55671 14.81664,17.55671"
           id="path3"
           color="hooves-contour" /><path
           style="display:inline;opacity:1;fill:none;fill-opacity:1;fill-rule:evenodd;stroke:#868686;stroke-width:3.55011;stroke-linecap:round;stroke-miterlimit:100;stroke-dasharray:none;stroke-opacity:1"
           d="m 334.31573,663.40926 c 0,0 5.84926,9.956 9.2987,15.04 6.35139,9.36109 16.74484,12.07659 16.74484,12.07659"
           id="path4"
           color="hooves-contour" /></g></g></g></svg>
