<?xml version="1.0" encoding="UTF-8" standalone="no"?>
<!-- Created with Inkscape (http://www.inkscape.org/) -->

<svg
   width="1000"
   height="1000"
   viewBox="0 0 1000 1000"
   version="1.1"
   id="svg1"
   xml:space="preserve"
   xmlns="http://www.w3.org/2000/svg"
   xmlns:svg="http://www.w3.org/2000/svg"><defs
     id="defs1" /><g
     id="layer2"
     style="display:inline"
     data-layer="300"><title
       id="title7">coat</title><g
       id="g17"
       style="display:inline"
       transform="matrix(0.59058221,0.58656527,-0.58656527,0.59058221,482.66613,2.5962861)"><path
         style="opacity:1;fill:#e19a4b;fill-opacity:1;fill-rule:evenodd;stroke:none;stroke-width:4;stroke-linecap:round;stroke-miterlimit:100;stroke-dasharray:none;stroke-opacity:1"
         d="m 396.08957,611.9721 c 0,0 -33.62169,81.67082 -9.26191,92.27606 10.2617,4.46752 13.14962,-13.14961 13.14962,-13.14961 0,0 -1.3004,14.23955 11.43446,15.43651 11.64175,1.09421 12.92093,-22.18284 12.92093,-22.18284 0,0 0.75467,21.61031 13.49266,20.8107 11.78196,-0.7396 8.23281,-26.64228 8.23281,-26.64228 0,0 5.92981,24.85012 16.57997,21.0394 10.53782,-3.77053 0.22868,-35.56116 0.22868,-35.56116 0,0 10.40506,21.02666 15.77955,15.8939 14.43577,-13.78646 -22.64022,-68.83543 -22.64022,-68.83543 z"
         id="path16"
         color="coat" /><path
         style="opacity:1;fill:none;fill-opacity:1;fill-rule:evenodd;stroke:#868686;stroke-width:5;stroke-linecap:round;stroke-miterlimit:100;stroke-dasharray:none;stroke-opacity:1"
         d="m 396.08957,611.9721 c 0,0 -33.62169,81.67082 -9.26191,92.27606 10.2617,4.46752 13.14962,-13.14961 13.14962,-13.14961 0,0 -1.3004,14.23955 11.43446,15.43651 11.64175,1.09421 12.92093,-22.18284 12.92093,-22.18284 0,0 0.75467,21.61031 13.49266,20.8107 11.78196,-0.7396 8.23281,-26.64228 8.23281,-26.64228 0,0 5.92981,24.85012 16.57997,21.0394 10.53782,-3.77053 0.22868,-35.56116 0.22868,-35.56116 0,0 10.40506,21.02666 15.77955,15.8939 14.43577,-13.78646 -22.64022,-68.83543 -22.64022,-68.83543"
         id="path17"
         color="coat-contour" /></g><path
       d="m 460.65625,391.45117 -97.11328,94.54102 c 0,0 -11.33788,59.47069 -9.64649,89.39453 3.38553,59.89623 32.16005,65.9132 63.66993,73.31836 32.32413,7.59652 53.58729,7.52819 95.26757,-10.74024 2.16201,-0.9476 4.26726,-2.00846 6.32032,-3.17187 2.17594,-15.19671 4.50009,-41.41358 0.25,-68.16992 -2.72301,-17.14261 -11.80256,-35.94946 -18.58399,-48.1836 -3.60797,1.33245 -7.17357,2.20794 -10.68359,2.49219 -16.29261,1.31943 -34.06252,-2.28044 -39.76953,-5.99805 -8.39433,-5.46816 -2.5037,-51.2419 3.23437,-85.47461 3.55712,-21.22137 7.05469,-38.00781 7.05469,-38.00781 z"
       style="display:inline;fill:#ff0000;stroke-width:0.885764"
       id="path10"
       color="coat" /><path
       d="m 363.54297,485.99219 c 0,0 -11.33788,59.47069 -9.64649,89.39453 3.38553,59.89623 32.16005,65.9132 63.66993,73.31836 32.32413,7.59652 53.58729,7.52819 95.26757,-10.74024 2.16201,-0.9476 4.26726,-2.00846 6.32032,-3.17187 M 500.82031,518.43945 c -3.60797,1.33245 -7.17357,2.20794 -10.68359,2.49219 -16.29261,1.31943 -34.06252,-2.28044 -39.76953,-5.99805 -8.39433,-5.46816 -2.5037,-51.2419 3.23437,-85.47461"
       style="display:inline;fill:none;stroke:#000000;stroke-width:5;stroke-dasharray:none;stroke-opacity:1"
       id="path12"
       color="coat-contour" /><g
       id="g14"
       style="display:inline"
       transform="rotate(-15.483048,445.55094,582.11615)"><path
         style="opacity:1;fill:#e19a4b;fill-opacity:1;fill-rule:evenodd;stroke:none;stroke-width:4;stroke-linecap:round;stroke-miterlimit:100;stroke-dasharray:none;stroke-opacity:1"
         d="m 396.08957,611.9721 c 0,0 -33.62169,81.67082 -9.26191,92.27606 10.2617,4.46752 13.14962,-13.14961 13.14962,-13.14961 0,0 -1.3004,14.23955 11.43446,15.43651 11.64175,1.09421 12.92093,-22.18284 12.92093,-22.18284 0,0 0.75467,21.61031 13.49266,20.8107 11.78196,-0.7396 8.23281,-26.64228 8.23281,-26.64228 0,0 5.92981,24.85012 16.57997,21.0394 10.53782,-3.77053 0.22868,-35.56116 0.22868,-35.56116 0,0 10.40506,21.02666 15.77955,15.8939 14.43577,-13.78646 -22.64022,-68.83543 -22.64022,-68.83543 z"
         id="path14"
         color="coat" /><path
         style="opacity:1;fill:none;fill-opacity:1;fill-rule:evenodd;stroke:#868686;stroke-width:5;stroke-linecap:round;stroke-miterlimit:100;stroke-dasharray:none;stroke-opacity:1"
         d="m 396.08957,611.9721 c 0,0 -33.62169,81.67082 -9.26191,92.27606 10.2617,4.46752 13.14962,-13.14961 13.14962,-13.14961 0,0 -1.3004,14.23955 11.43446,15.43651 11.64175,1.09421 12.92093,-22.18284 12.92093,-22.18284 0,0 0.75467,21.61031 13.49266,20.8107 11.78196,-0.7396 8.23281,-26.64228 8.23281,-26.64228 0,0 5.92981,24.85012 16.57997,21.0394 10.53782,-3.77053 0.22868,-35.56116 0.22868,-35.56116 0,0 10.40506,21.02666 15.77955,15.8939 14.43577,-13.78646 -22.64022,-68.83543 -22.64022,-68.83543"
         id="path15"
         color="coat-contour" /></g></g></svg>
