<?xml version="1.0" encoding="UTF-8" standalone="no"?>
<!-- Created with Inkscape (http://www.inkscape.org/) -->

<svg
   width="1000"
   height="1000"
   viewBox="0 0 1000 1000"
   version="1.1"
   id="svg1"
   xml:space="preserve"
   sodipodi:docname="0011.svg"
   inkscape:version="1.4.2 (f4327f4, 2025-05-13)"
   xmlns:inkscape="http://www.inkscape.org/namespaces/inkscape"
   xmlns:sodipodi="http://sodipodi.sourceforge.net/DTD/sodipodi-0.dtd"
   xmlns="http://www.w3.org/2000/svg"
   xmlns:svg="http://www.w3.org/2000/svg"><sodipodi:namedview
     id="namedview1"
     pagecolor="#ffffff"
     bordercolor="#000000"
     borderopacity="0.25"
     inkscape:showpageshadow="2"
     inkscape:pageopacity="0.0"
     inkscape:pagecheckerboard="0"
     inkscape:deskcolor="#d1d1d1"
     inkscape:zoom="1.0931871"
     inkscape:cx="428.10605"
     inkscape:cy="784.40371"
     inkscape:window-width="1301"
     inkscape:window-height="973"
     inkscape:window-x="-11"
     inkscape:window-y="0"
     inkscape:window-maximized="0"
     inkscape:current-layer="svg1" /><defs
     id="defs1" /><g
     id="layer2"
     style="display:inline"
     data-layer="300"><title
       id="title7">coat</title><path
       style="display:inline;fill:#00ffff;stroke-width:0.885764"
       d="m 453.89251,605.19805 c 0,0 10.14829,21.98858 18.65093,30.22738 9.44513,9.15204 30.3943,37.8278 36.17637,53.86261 17.38031,48.19901 -8.20264,130.38034 -4.0196,139.07809 9.28049,19.29681 66.0668,9.65831 78.62331,2.73334 20.18026,-11.12949 -5.70744,-167.45796 -32.15677,-190.04661 -11.46748,-9.79363 -19.52151,1.10567 -23.47443,-4.0196 -7.70398,-9.98884 20.7837,-62.92385 13.6666,-87.78801 -9.52443,-33.27438 -87.46641,55.9528 -87.46641,55.9528 z"
       id="path5"
       color="coat" /><path
       style="display:inline;fill:none;stroke:#000000;stroke-width:5;stroke-linecap:round;stroke-dasharray:none;stroke-opacity:1"
       d="m 453.89251,605.19805 c 0,0 10.14829,21.98858 18.65093,30.22738 9.44513,9.15204 30.3943,37.8278 36.17637,53.86261 17.38031,48.19901 -8.20264,130.38034 -4.0196,139.07809 9.28049,19.29681 66.0668,9.65831 78.62331,2.73334 20.18026,-11.12949 -5.70744,-167.45796 -32.15677,-190.04661 -11.46748,-9.79363 -19.52151,1.10567 -23.47443,-4.0196 -7.70398,-9.98884 20.7837,-62.92385 13.6666,-87.78801"
       id="path13"
       color="coat_contour" /><path
       style="display:inline;fill:#ffff00;stroke-width:0.885764"
       d="m 370.6182,604.97184 c -1.66046,33.20921 -5.09216,70.08834 -12.82192,105.84815 -13.22768,61.19456 -43.87146,104.69117 -36.05639,116.67678 15.05334,23.08663 65.21061,15.5523 86.18017,7.07448 9.41118,-3.80484 16.83872,-87.86802 16.72154,-129.9134 -0.0901,-32.36252 -14.14898,-91.9684 -14.14898,-91.9684 z"
       id="path2"
       color="coat" /><path
       style="display:inline;fill:none;stroke:#000000;stroke-width:5;stroke-linecap:round;stroke-dasharray:none;stroke-opacity:1"
       d="m 370.6182,604.97184 c -1.66046,33.20921 -5.09216,70.08834 -12.82192,105.84815 -13.22768,61.19456 -43.87146,104.69117 -36.05639,116.67678 15.05334,23.08663 65.21061,15.5523 86.18017,7.07448 9.41118,-3.80484 16.83872,-87.86802 16.72154,-129.9134 -0.0901,-32.36252 -14.14898,-91.9684 -14.14898,-91.9684"
       id="path11"
       color="coat_contour" /><path
       style="display:inline;fill:#ff0000;stroke-width:0.885764"
       d="m 363.54371,485.99176 c 0,0 -11.33843,59.47199 -9.64704,89.39583 3.38553,59.89623 32.19477,65.76825 63.67044,73.31748 36.90369,8.8511 114.78269,-0.57221 153.06629,-32.15681 18.10802,-14.93942 17.2904,-104.04133 -34.72933,-113.835 -36.52354,-6.87622 -71.93896,21.07753 -85.53704,12.21956 -13.5981,-8.85796 10.29018,-123.48202 10.29018,-123.48202 z"
       id="path1"
       color="coat" /><path
       style="display:inline;fill:none;stroke:#000000;stroke-width:5;stroke-linecap:round;stroke-dasharray:none;stroke-opacity:1"
       d="m 363.54371,485.99176 c 0,0 -11.33843,59.47199 -9.64704,89.39583 3.38553,59.89623 32.19477,65.76825 63.67044,73.31748 36.90369,8.8511 114.78269,-0.57221 153.06629,-32.15681 18.10802,-14.93942 17.2904,-104.04133 -34.72933,-113.835 -36.52354,-6.87622 -71.93896,21.07753 -85.53704,12.21956 -13.5981,-8.85796 4.1185,-87.17802 4.1185,-87.17802 z"
       id="path9"
       color="coat_contour" /><path
       style="display:inline;fill:#00ffff;stroke-width:0.885764"
       d="m 400.20244,629.41103 c -1.66046,33.20921 -5.09217,70.08834 -12.82193,105.84815 -13.22768,61.19456 -43.87145,104.69116 -36.05637,116.67678 15.05335,23.08663 65.21062,15.5523 86.18016,7.07448 9.41119,-3.80485 16.83871,-87.86802 16.72154,-129.9134 -0.09,-32.36252 -14.14898,-91.9684 -14.14898,-91.9684 z"
       id="path10"
       color="coat"
       sodipodi:nodetypes="csssccc" /><path
       style="display:inline;fill:none;stroke:#000000;stroke-width:5;stroke-linecap:round;stroke-dasharray:none;stroke-opacity:1"
       d="m 400.20244,629.41103 c -1.66046,33.20921 -5.09217,70.08834 -12.82193,105.84815 -13.22768,61.19456 -43.87145,104.69116 -36.05637,116.67678 15.05335,23.08663 65.21062,15.5523 86.18016,7.07448 9.41119,-3.80485 16.83871,-87.86802 16.72154,-129.9134 -0.09,-32.36252 -14.14898,-91.9684 -14.14898,-91.9684"
       id="path3"
       color="coat_contour" /><path
       style="display:inline;fill:#ffff00;stroke-width:0.885764"
       d="m 493.45712,627.48158 c 0,0 10.1483,21.98858 18.65093,30.22738 9.44513,9.15203 30.3943,37.82779 36.17637,53.8626 17.38032,48.19902 -8.20264,130.38035 -4.01959,139.07809 9.28048,19.29682 66.0668,9.65832 78.62331,2.73335 20.18025,-11.12949 -5.70745,-167.45796 -32.15677,-190.04661 -11.46749,-9.79363 -19.52152,1.10567 -23.47443,-4.0196 -7.70399,-9.98884 20.78369,-62.92385 13.6666,-87.78801 -9.52444,-33.27438 -87.46642,55.9528 -87.46642,55.9528 z"
       id="path4"
       color="coat"
       sodipodi:nodetypes="csssssssc" /><path
       style="display:inline;fill:none;stroke:#000000;stroke-width:5;stroke-linecap:round;stroke-dasharray:none;stroke-opacity:1"
       d="m 493.45712,627.48158 c 0,0 10.1483,21.98858 18.65093,30.22738 9.44513,9.15203 30.3943,37.82779 36.17637,53.8626 17.38032,48.19902 -8.20264,130.38035 -4.01959,139.07809 9.28048,19.29682 66.0668,9.65832 78.62331,2.73335 20.18025,-11.12949 -5.70745,-167.45796 -32.15677,-190.04661 -11.46749,-9.79363 -19.52152,1.10567 -23.47443,-4.0196 -7.70399,-9.98884 20.60217,-67.64337 13.48508,-92.50753"
       id="path12"
       color="coat_contour" /><g
       id="g6"><path
         style="opacity:1;fill:none;fill-rule:evenodd;stroke:#000000;stroke-width:2;stroke-linecap:round;stroke-miterlimit:100;stroke-dasharray:none;stroke-opacity:1"
         d="m 353.16947,830.5304 c 0,0 3.04961,12.67982 14.8771,12.93661 -1.12149,-2.92722 -1.29713,-4.13443 -1.34037,-4.51771 -0.2263,0.7672 0.51162,3.66874 0.51162,3.66874"
         id="path6"
         sodipodi:nodetypes="cccc"
         color="coat-contour" /><path
         style="opacity:1;fill:none;fill-rule:evenodd;stroke:#000000;stroke-width:2;stroke-linecap:round;stroke-miterlimit:100;stroke-dasharray:none;stroke-opacity:1"
         d="m 380.65977,836.02846 c 6.48618,13.22532 20.06444,13.62469 22.06134,12.04745 2.99645,-2.36673 0.76133,-5.30919 0.63946,-5.78317 0.29067,0.40632 0.40938,1.26628 1.66469,2.44882 9.78388,9.21678 38.043,0.99557 38.00695,0.67604"
         id="path7"
         sodipodi:nodetypes="cscsc"
         color="coat-contour" /><path
         style="opacity:1;fill:none;fill-rule:evenodd;stroke:#000000;stroke-width:2;stroke-linecap:round;stroke-miterlimit:100;stroke-dasharray:none;stroke-opacity:1"
         d="m 592.15901,834.15889 c -0.43984,-0.6688 -1.02397,-1.4343 -1.14584,-1.90828 0.29067,0.40632 0.40938,1.26628 1.66469,2.44882 9.78388,9.21678 38.043,0.99557 38.00695,0.67604"
         id="path8"
         sodipodi:nodetypes="ccsc"
         color="coat-contour" /><path
         style="opacity:1;fill:none;fill-rule:evenodd;stroke:#000000;stroke-width:2;stroke-linecap:round;stroke-miterlimit:100;stroke-dasharray:none;stroke-opacity:1"
         d="m 566.3383,833.51523 c 0.12193,0.20946 -0.84547,-1.05977 -0.82022,-1.22034 0.0624,0.10037 0.12526,0.19998 0.18869,0.29885 3.78615,5.90129 9.46147,9.12388 16.64047,9.81112 -1.95371,-3.11169 -4.52502,-7.40982 -4.77128,-10.40416 -0.10913,0.22389 0.15506,1.80138 0.72827,2.90649"
         id="path14"
         sodipodi:nodetypes="ccsccc"
         color="coat-contour" /><path
         style="opacity:1;fill:none;fill-rule:evenodd;stroke:#000000;stroke-width:2;stroke-linecap:round;stroke-miterlimit:100;stroke-dasharray:none;stroke-opacity:1"
         d="m 526.33377,824.13376 c -1.09033,-0.23338 -2.55341,-1.14762 -2.83017,-1.29303 8.8e-4,0.16968 1.63468,0.91555 1.84161,0.98604 4.39025,1.49571 8.20587,1.19899 9.19277,0.4195 2.99645,-2.36673 0.76133,-5.30919 0.63946,-5.78317 0.29067,0.40632 0.40938,1.26628 1.66469,2.44882 2.51631,2.37046 6.25468,3.58745 10.41946,4.08207"
         id="path15"
         sodipodi:nodetypes="ccsscsc"
         color="coat-contour" /><path
         style="opacity:1;fill:none;fill-rule:evenodd;stroke:#000000;stroke-width:1.6992;stroke-linecap:round;stroke-miterlimit:100;stroke-dasharray:none;stroke-opacity:1"
         d="m 328.55336,803.79156 c 0.009,0.20573 -0.2159,-1.13138 -0.13334,-1.24209 0.007,0.10016 0.015,0.19992 0.0235,0.29936 0.50929,5.93509 3.49932,10.60469 8.62354,13.9639 -0.23646,-3.1126 -0.46737,-7.36159 0.53317,-9.7099 -0.17068,0.12508 -0.59672,1.41547 -0.60344,2.47313"
         id="path16"
         sodipodi:nodetypes="ccsccc"
         color="coat-contour" /><path
         style="opacity:1;fill:none;fill-rule:evenodd;stroke:#000000;stroke-width:2;stroke-linecap:round;stroke-miterlimit:100;stroke-dasharray:none;stroke-opacity:1"
         d="m 346.08951,819.52279 c -0.43984,-0.6688 -1.02397,-1.4343 -1.14584,-1.90828 0.29067,0.40632 0.40938,1.26628 1.66469,2.44882 2.28274,2.15043 5.57121,3.35159 9.27138,3.92532"
         id="path17"
         sodipodi:nodetypes="ccsc"
         color="coat-contour" /></g></g></svg>
