<?xml version="1.0" encoding="UTF-8" standalone="no"?>
<!-- Created with Inkscape (http://www.inkscape.org/) -->

<svg
   width="1000"
   height="1000"
   viewBox="0 0 1000 1000"
   version="1.1"
   id="svg1"
   xml:space="preserve"
   xmlns="http://www.w3.org/2000/svg"
   xmlns:svg="http://www.w3.org/2000/svg"><defs
     id="defs1" /><g
     id="layer2"
     style="display:inline"
     data-layer="300"><title
       id="title7">coat</title><g
       id="g5"
       style="display:inline"><g
         id="g7"
         style="display:inline"><path
           style="display:inline;fill:#00ffff;stroke-width:0.885764"
           d="m 509.33122,789.42339 c -2.52959,20.26657 -6.30731,35.45724 -4.63101,38.94274 9.28048,19.29681 66.0668,9.6583 78.62331,2.73334 5.87736,-3.24139 13.08375,-19.23103 7.09411,-39.35723 -0.0208,-0.07 0.22803,-0.62552 -0.12311,-0.63439 -45.19375,-1.14215 -47.58525,-1.24092 -72.0018,-1.11228 -2.06307,0.0109 -8.92818,-0.83912 -8.9615,-0.57218 z"
           id="path6"
           color="hooves" /><path
           style="display:inline;fill:none;stroke:#f11414;stroke-width:5;stroke-linecap:round;stroke-dasharray:none;stroke-opacity:1"
           d="m 508.94737,791.82133 c -3.06043,18.97776 -5.85637,33.19879 -4.24716,36.5448 9.28048,19.29681 66.0668,9.6583 78.62331,2.73334 5.62194,-3.10052 7.66853,-17.46995 7.12369,-37.07733"
           id="path7"
           color="hooves-contour" /></g><path
         style="display:inline;fill:#00ff23;fill-opacity:1;stroke-width:0.885764"
         d="m 453.89251,605.19805 c 0,0 10.14829,21.98858 18.65093,30.22738 9.44513,9.15204 30.3943,37.8278 36.17637,53.86261 10.66214,29.5682 5.15574,71.9251 0.27152,102.26047 -3.07752,19.1142 10.49926,12.94537 18.34795,6.41659 5.33573,11.09451 18.09091,30.73483 33.32401,10.67266 3.73969,14.71329 17.32296,25.40523 22.66023,22.46171 1.00397,-0.55369 1.89392,-1.46677 2.67545,-2.70487 14.92759,-23.64833 -9.69875,-165.87688 -34.83222,-187.34174 -11.46748,-9.79363 -19.52151,1.10567 -23.47443,-4.0196 -7.70398,-9.98884 20.7837,-62.92385 13.6666,-87.78801 -9.52443,-33.27438 -87.46641,55.9528 -87.46641,55.9528 z"
         id="path5"
         color="coat" /><path
         style="display:inline;fill:none;fill-opacity:1;stroke:#000000;stroke-width:5;stroke-dasharray:none;stroke-opacity:1"
         d="m 453.89251,605.19805 c 0,0 10.14829,21.98858 18.65093,30.22738 9.44513,9.15204 30.3943,37.8278 36.17637,53.86261 10.66214,29.5682 5.15574,71.9251 0.27152,102.26047 -3.07752,19.1142 10.49926,12.94537 18.34795,6.41659 5.33573,11.09451 18.09091,30.73483 33.32401,10.67266 3.73969,14.71329 17.32296,25.40523 22.66023,22.46171 1.00397,-0.55369 1.89392,-1.46677 2.67545,-2.70487 14.92759,-23.64833 -9.69875,-165.87688 -34.83222,-187.34174 -11.46748,-9.79363 -19.52151,1.10567 -23.47443,-4.0196 -7.70398,-9.98884 20.7837,-62.92385 13.6666,-87.78801"
         id="path8"
         color="coat-contour" /></g><g
       id="g4"
       style="display:inline"><g
         id="g14"><path
           style="display:inline;fill:#ffff00;stroke-width:0.885764"
           d="m 333.45064,783.83129 c -0.44506,-0.0536 -0.34326,0.82546 -0.51352,1.23458 -8.90307,21.3928 -15.26829,36.1873 -11.19723,42.4309 15.05335,23.08662 65.21059,15.55226 86.18017,7.07448 3.88497,-1.57065 7.43191,-16.81784 10.24963,-37.14014 0.0599,-0.43192 0.61428,-1.23766 0.17867,-1.30255 -40.26656,-5.99823 -56.59222,-8.88877 -84.89772,-12.29727 z"
           id="path2"
           color="hooves" /><path
           style="display:inline;fill:none;stroke:#000000;stroke-width:5;stroke-linecap:round;stroke-dasharray:none;stroke-opacity:1"
           d="m 332.43867,786.26315 c -8.63982,20.74773 -14.69345,35.10718 -10.69878,41.23362 15.05335,23.08662 65.21059,15.55226 86.18017,7.07448 3.83752,-1.55147 7.34521,-16.44743 10.14606,-36.39779"
           id="path11"
           color="hooves-contour" /></g><path
         style="display:inline;fill:#ff8200;fill-opacity:1;stroke-width:0.885764"
         d="m 370.6182,604.97184 c -1.66046,33.20921 -5.09216,70.08834 -12.82192,105.84815 -6.36064,29.42594 -16.74833,54.75966 -24.95051,74.46535 -8.85518,21.27452 9.87845,15.63587 18.28067,4.82076 -0.4791,11.79057 7.79667,35.00196 33.0417,17.18257 5.67443,16.52174 14.73491,30.92808 23.75192,27.28258 9.41117,-3.80486 16.83872,-87.86802 16.72154,-129.9134 -0.0901,-32.36252 -14.14898,-91.9684 -14.14898,-91.9684 z"
         id="path13"
         color="coat" /><path
         style="display:inline;fill:none;fill-opacity:1;stroke:#010000;stroke-width:5;stroke-dasharray:none;stroke-opacity:1"
         d="m 370.6182,604.97184 c -1.66046,33.20921 -5.09216,70.08834 -12.82192,105.84815 -6.36064,29.42594 -16.74833,54.75966 -24.95051,74.46535 -8.85518,21.27452 9.87845,15.63587 18.28067,4.82076 -0.4791,11.79057 7.79667,35.00196 33.0417,17.18257 5.67443,16.52174 14.73491,30.92808 23.75192,27.28258 9.41117,-3.80486 16.83872,-87.86802 16.72154,-129.9134 -0.0901,-32.36252 -14.14898,-91.9684 -14.14898,-91.9684"
         id="path14"
         color="coat-contour" /></g><g
       id="g3"
       style="display:inline"><path
         style="display:inline;fill:#ff0000;stroke-width:0.885764"
         d="m 363.54371,485.99176 c 0,0 -11.33843,59.47199 -9.64704,89.39583 3.38553,59.89623 32.19477,65.76825 63.67044,73.31748 36.90369,8.8511 114.78269,-0.57221 153.06629,-32.15681 18.10802,-14.93942 17.2904,-104.04133 -34.72933,-113.835 -36.52354,-6.87622 -71.93896,21.07753 -85.53704,12.21956 -13.5981,-8.85796 10.29018,-123.48202 10.29018,-123.48202 z"
         id="path1"
         color="coat" /><path
         style="display:inline;fill:none;stroke:#000000;stroke-width:5;stroke-linecap:round;stroke-dasharray:none;stroke-opacity:1"
         d="m 363.54371,485.99176 c 0,0 -11.33843,59.47199 -9.64704,89.39583 3.38553,59.89623 32.19477,65.76825 63.67044,73.31748 36.90369,8.8511 114.78269,-0.57221 153.06629,-32.15681 18.10802,-14.93942 17.2904,-104.04133 -34.72933,-113.835 -36.52354,-6.87622 -71.93896,21.07753 -85.53704,12.21956 -13.5981,-8.85796 4.1185,-87.17802 4.1185,-87.17802 z"
         id="path9"
         color="coat_contour" /></g><g
       id="g18"
       style="display:inline"
       transform="translate(29.589056,22.064004)"><g
         id="g16"><path
           style="display:inline;fill:#ffff00;stroke-width:0.885764"
           d="m 333.45064,783.83129 c -0.44506,-0.0536 -0.34326,0.82546 -0.51352,1.23458 -8.90307,21.3928 -15.26829,36.1873 -11.19723,42.4309 15.05335,23.08662 65.21059,15.55226 86.18017,7.07448 3.88497,-1.57065 7.43191,-16.81784 10.24963,-37.14014 0.0599,-0.43192 0.61428,-1.23766 0.17867,-1.30255 -40.26656,-5.99823 -56.59222,-8.88877 -84.89772,-12.29727 z"
           id="path15"
           color="hooves" /><path
           style="display:inline;fill:none;stroke:#000000;stroke-width:5;stroke-linecap:round;stroke-dasharray:none;stroke-opacity:1"
           d="m 332.43867,786.26315 c -8.63982,20.74773 -14.69345,35.10718 -10.69878,41.23362 15.05335,23.08662 65.21059,15.55226 86.18017,7.07448 3.83752,-1.55147 7.34521,-16.44743 10.14606,-36.39779"
           id="path16"
           color="hooves-contour" /></g><path
         style="display:inline;fill:#ff8200;fill-opacity:1;stroke-width:0.885764"
         d="m 370.6182,604.97184 c -1.66046,33.20921 -5.09216,70.08834 -12.82192,105.84815 -6.36064,29.42594 -16.74833,54.75966 -24.95051,74.46535 -8.85518,21.27452 9.87845,15.63587 18.28067,4.82076 -0.4791,11.79057 7.79667,35.00196 33.0417,17.18257 5.67443,16.52174 14.73491,30.92808 23.75192,27.28258 9.41117,-3.80486 16.83872,-87.86802 16.72154,-129.9134 -0.0901,-32.36252 -14.14898,-91.9684 -14.14898,-91.9684 z"
         id="path17"
         color="coat" /><path
         style="display:inline;fill:none;fill-opacity:1;stroke:#010000;stroke-width:5;stroke-linecap:round;stroke-dasharray:none;stroke-opacity:1"
         d="m 370.6182,604.97184 c -1.66046,33.20921 -5.09216,70.08834 -12.82192,105.84815 -6.36064,29.42594 -16.74833,54.75966 -24.95051,74.46535 -8.85518,21.27452 9.87845,15.63587 18.28067,4.82076 -0.4791,11.79057 7.79667,35.00196 33.0417,17.18257 5.67443,16.52174 14.73491,30.92808 23.75192,27.28258 9.41117,-3.80486 16.83872,-87.86802 16.72154,-129.9134 -0.0901,-32.36252 -14.14898,-91.9684 -14.14898,-91.9684"
         id="path18"
         color="coat-contour" /></g><g
       id="g25"
       style="display:inline"
       transform="translate(39.3344,22.283734)"><g
         id="g23"
         style="display:inline"><path
           style="display:inline;fill:#00ffff;stroke-width:0.885764"
           d="m 509.33122,789.42339 c -2.52959,20.26657 -6.30731,35.45724 -4.63101,38.94274 9.28048,19.29681 66.0668,9.6583 78.62331,2.73334 5.87736,-3.24139 13.08375,-19.23103 7.09411,-39.35723 -0.0208,-0.07 0.22803,-0.62552 -0.12311,-0.63439 -45.19375,-1.14215 -47.58525,-1.24092 -72.0018,-1.11228 -2.06307,0.0109 -8.92818,-0.83912 -8.9615,-0.57218 z"
           id="path22"
           color="hooves" /><path
           style="display:inline;fill:none;stroke:#f11414;stroke-width:5;stroke-linecap:round;stroke-dasharray:none;stroke-opacity:1"
           d="m 508.94737,791.82133 c -3.06043,18.97776 -5.85637,33.19879 -4.24716,36.5448 9.28048,19.29681 66.0668,9.6583 78.62331,2.73334 5.62194,-3.10052 7.66853,-17.46995 7.12369,-37.07733"
           id="path23"
           color="hooves-contour" /></g><path
         style="display:inline;fill:#00ff23;fill-opacity:1;stroke-width:0.885764"
         d="m 453.89251,605.19805 c 0,0 10.14829,21.98858 18.65093,30.22738 9.44513,9.15204 30.3943,37.8278 36.17637,53.86261 10.66214,29.5682 5.15574,71.9251 0.27152,102.26047 -3.07752,19.1142 10.49926,12.94537 18.34795,6.41659 5.33573,11.09451 18.09091,30.73483 33.32401,10.67266 3.73969,14.71329 17.32296,25.40523 22.66023,22.46171 1.00397,-0.55369 1.89392,-1.46677 2.67545,-2.70487 14.92759,-23.64833 -9.69875,-165.87688 -34.83222,-187.34174 -11.46748,-9.79363 -19.52151,1.10567 -23.47443,-4.0196 -7.70398,-9.98884 20.7837,-62.92385 13.6666,-87.78801 -9.52443,-33.27438 -87.46641,55.9528 -87.46641,55.9528 z"
         id="path24"
         color="coat" /><path
         style="display:inline;fill:none;fill-opacity:1;stroke:#000000;stroke-width:5;stroke-linecap:round;stroke-dasharray:none;stroke-opacity:1"
         d="m 453.89251,605.19805 c 0,0 10.14829,21.98858 18.65093,30.22738 9.44513,9.15204 30.3943,37.8278 36.17637,53.86261 10.66214,29.5682 5.15574,71.9251 0.27152,102.26047 -3.07752,19.1142 10.49926,12.94537 18.34795,6.41659 5.33573,11.09451 18.09091,30.73483 33.32401,10.67266 3.73969,14.71329 17.32296,25.40523 22.66023,22.46171 1.00397,-0.55369 1.89392,-1.46677 2.67545,-2.70487 14.92759,-23.64833 -9.69875,-165.87688 -34.83222,-187.34174 -11.46748,-9.79363 -19.52152,1.10568 -23.47443,-4.0196 -7.27097,-9.42741 17.69567,-57.10898 14.54198,-83.34203 -0.18781,-1.56226 -0.59664,-8.82951 -0.99666,-10.22703"
         id="path25"
         color="coat-contour" /></g></g></svg>
