<?xml version="1.0" encoding="UTF-8" standalone="no"?>
<!-- Created with Inkscape (http://www.inkscape.org/) -->

<svg
   width="1000"
   height="1000"
   viewBox="0 0 1000 1000"
   version="1.1"
   id="svg1"
   xml:space="preserve"
   sodipodi:docname="004 Hooves2.svg"
   inkscape:version="1.4.2 (f4327f4, 2025-05-13)"
   xmlns:inkscape="http://www.inkscape.org/namespaces/inkscape"
   xmlns:sodipodi="http://sodipodi.sourceforge.net/DTD/sodipodi-0.dtd"
   xmlns="http://www.w3.org/2000/svg"
   xmlns:svg="http://www.w3.org/2000/svg"><sodipodi:namedview
     id="namedview1"
     pagecolor="#ffffff"
     bordercolor="#000000"
     borderopacity="0.25"
     inkscape:showpageshadow="2"
     inkscape:pageopacity="0.0"
     inkscape:pagecheckerboard="0"
     inkscape:deskcolor="#d1d1d1"
     inkscape:zoom="0.773"
     inkscape:cx="475.42044"
     inkscape:cy="551.74644"
     inkscape:window-width="1920"
     inkscape:window-height="991"
     inkscape:window-x="-9"
     inkscape:window-y="-9"
     inkscape:window-maximized="1"
     inkscape:current-layer="g1" /><defs
     id="defs1" /><g
     id="layer2"
     style="display:inline"
     data-layer="300"><title
       id="title7">coat</title><g
       id="g5"
       style="display:inline"
       sodipodi:insensitive="true"><g
         id="g7"
         style="display:inline"><path
           style="display:inline;fill:#00ffff;stroke-width:0.885764"
           d="m 509.33122,789.42339 c -2.52959,20.26657 -6.30731,35.45724 -4.63101,38.94274 9.28048,19.29681 66.0668,9.6583 78.62331,2.73334 5.87736,-3.24139 13.08375,-19.23103 7.09411,-39.35723 -0.0208,-0.07 0.22803,-0.62552 -0.12311,-0.63439 -45.19375,-1.14215 -47.58525,-1.24092 -72.0018,-1.11228 -2.06307,0.0109 -8.92818,-0.83912 -8.9615,-0.57218 z"
           id="path6"
           color="hooves" /><path
           d="m 563.54646,790.43697 -30.43555,3.90234 -0.80468,45.30078 c 8.49288,0.35721 17.75457,-0.40744 26.14648,-1.72851 l 12.20703,-47.29883 c -2.5562,-0.0638 -4.91637,-0.1228 -7.11133,-0.17578 z"
           style="display:inline;opacity:1;fill:#3a7ccb;fill-rule:evenodd;stroke-width:2;stroke-linecap:round;stroke-miterlimit:100"
           id="path21"
           color="hooves;saturation-30;lightness-10;opacity-40" /><path
           d="m 545.2906,790.05611 c -8.6868,-0.13156 -15.32667,-0.12204 -26.99805,-0.0606 -0.37236,0.002 13.00612,-5.36025 12.38929,-5.40275 l -13.5796,8.61478 -4.60927,44.36845 c 5.75056,1.52879 12.65765,2.24771 19.82617,2.14023 z"
           style="display:inline;opacity:1;fill:#cb763a;fill-opacity:1;fill-rule:evenodd;stroke-width:2;stroke-linecap:round;stroke-miterlimit:100"
           id="path26"
           color="hooves;saturation-30;lightness+30;opacity-40"
           sodipodi:nodetypes="csccccc" /><path
           style="display:inline;fill:none;stroke:#f11414;stroke-width:5;stroke-linecap:round;stroke-dasharray:none;stroke-opacity:1"
           d="m 508.94737,791.82133 c -3.06043,18.97776 -5.85637,33.19879 -4.24716,36.5448 9.28048,19.29681 66.0668,9.6583 78.62331,2.73334 5.62194,-3.10052 7.66853,-17.46995 7.12369,-37.07733"
           id="path7"
           color="hooves-contour" /></g><path
         style="display:inline;fill:#00ff23;fill-opacity:1;stroke-width:0.885764"
         d="m 453.89251,605.19805 c 0,0 10.14829,21.98858 18.65093,30.22738 9.44513,9.15204 30.3943,37.8278 36.17637,53.86261 10.66214,29.5682 5.15574,71.9251 0.27152,102.26047 -3.07752,19.1142 10.49926,12.94537 18.34795,6.41659 5.33573,11.09451 18.09091,30.73483 33.32401,10.67266 3.73969,14.71329 17.32296,25.40523 22.66023,22.46171 1.00397,-0.55369 1.89392,-1.46677 2.67545,-2.70487 14.92759,-23.64833 -9.69875,-165.87688 -34.83222,-187.34174 -11.46748,-9.79363 -19.52151,1.10567 -23.47443,-4.0196 -7.70398,-9.98884 20.7837,-62.92385 13.6666,-87.78801 -9.52443,-33.27438 -87.46641,55.9528 -87.46641,55.9528 z"
         id="path5"
         color="coat" /><path
         style="display:inline;fill:none;fill-opacity:1;stroke:#000000;stroke-width:5;stroke-dasharray:none;stroke-opacity:1"
         d="m 453.89251,605.19805 c 0,0 10.14829,21.98858 18.65093,30.22738 9.44513,9.15204 30.3943,37.8278 36.17637,53.86261 10.66214,29.5682 5.15574,71.9251 0.27152,102.26047 -3.07752,19.1142 10.49926,12.94537 18.34795,6.41659 5.33573,11.09451 18.09091,30.73483 33.32401,10.67266 3.73969,14.71329 17.32296,25.40523 22.66023,22.46171 1.00397,-0.55369 1.89392,-1.46677 2.67545,-2.70487 14.92759,-23.64833 -9.69875,-165.87688 -34.83222,-187.34174 -11.46748,-9.79363 -19.52151,1.10567 -23.47443,-4.0196 -7.70398,-9.98884 20.7837,-62.92385 13.6666,-87.78801"
         id="path8"
         color="coat-contour" /></g><g
       id="g4"
       style="display:inline"
       sodipodi:insensitive="true"><g
         id="g14"><path
           style="display:inline;fill:#ffff00;stroke-width:0.885764"
           d="m 333.45064,783.83129 c -0.44506,-0.0536 -0.34326,0.82546 -0.51352,1.23458 -8.90307,21.3928 -15.26829,36.1873 -11.19723,42.4309 15.05335,23.08662 65.21059,15.55226 86.18017,7.07448 3.88497,-1.57065 7.43191,-16.81784 10.24963,-37.14014 0.0599,-0.43192 0.61428,-1.23766 0.17867,-1.30255 -40.26656,-5.99823 -56.59222,-8.88877 -84.89772,-12.29727 z"
           id="path2"
           color="hooves" /><path
           d="m 381.50991,794.096 -30.43555,3.90234 -0.80468,45.30078 c 8.49288,0.35721 17.75457,-0.40744 26.14648,-1.72851 l 12.20703,-47.29883 c -2.5562,-0.0638 -4.91637,-0.1228 -7.11133,-0.17578 z"
           style="display:inline;opacity:1;fill:#3a7ccb;fill-rule:evenodd;stroke-width:2;stroke-linecap:round;stroke-miterlimit:100"
           id="path19"
           color="hooves;saturation-30;lightness-10;opacity-40" /><path
           d="m 359.13765,791.42824 c -8.6868,-0.13156 -3.36031,-6.42864 -15.03169,-6.3672 -0.37236,0.002 -12.8671,6.2827 -13.48393,6.2402 l 8.41265,-0.27913 -9.13709,44.36844 c 5.75056,1.52879 15.08326,5.80528 22.25178,5.6978 z"
           style="display:inline;opacity:1;fill:#3a7ccb;fill-rule:evenodd;stroke-width:2;stroke-linecap:round;stroke-miterlimit:100"
           id="path20"
           color="hooves;saturation-30;lightness+30;opacity-40"
           sodipodi:nodetypes="csccccc" /><path
           style="display:inline;fill:none;stroke:#000000;stroke-width:5;stroke-linecap:round;stroke-dasharray:none;stroke-opacity:1"
           d="m 332.43867,786.26315 c -8.63982,20.74773 -14.69345,35.10718 -10.69878,41.23362 15.05335,23.08662 65.21059,15.55226 86.18017,7.07448 3.83752,-1.55147 7.34521,-16.44743 10.14606,-36.39779"
           id="path11"
           color="hooves-contour" /></g><path
         style="display:inline;fill:#ff8200;fill-opacity:1;stroke-width:0.885764"
         d="m 370.6182,604.97184 c -1.66046,33.20921 -5.09216,70.08834 -12.82192,105.84815 -6.36064,29.42594 -16.74833,54.75966 -24.95051,74.46535 -8.85518,21.27452 9.87845,15.63587 18.28067,4.82076 -0.4791,11.79057 7.79667,35.00196 33.0417,17.18257 5.67443,16.52174 14.73491,30.92808 23.75192,27.28258 9.41117,-3.80486 16.83872,-87.86802 16.72154,-129.9134 -0.0901,-32.36252 -14.14898,-91.9684 -14.14898,-91.9684 z"
         id="path13"
         color="coat" /><path
         style="display:inline;fill:none;fill-opacity:1;stroke:#010000;stroke-width:5;stroke-dasharray:none;stroke-opacity:1"
         d="m 370.6182,604.97184 c -1.66046,33.20921 -5.09216,70.08834 -12.82192,105.84815 -6.36064,29.42594 -16.74833,54.75966 -24.95051,74.46535 -8.85518,21.27452 9.87845,15.63587 18.28067,4.82076 -0.4791,11.79057 7.79667,35.00196 33.0417,17.18257 5.67443,16.52174 14.73491,30.92808 23.75192,27.28258 9.41117,-3.80486 16.83872,-87.86802 16.72154,-129.9134 -0.0901,-32.36252 -14.14898,-91.9684 -14.14898,-91.9684"
         id="path14"
         color="coat-contour" /></g><g
       id="g3"
       style="display:inline"
       sodipodi:insensitive="true"><path
         style="display:inline;fill:#ff0000;stroke-width:0.885764"
         d="m 363.54371,485.99176 c 0,0 -11.33843,59.47199 -9.64704,89.39583 3.38553,59.89623 32.19477,65.76825 63.67044,73.31748 36.90369,8.8511 114.78269,-0.57221 153.06629,-32.15681 18.10802,-14.93942 17.2904,-104.04133 -34.72933,-113.835 -36.52354,-6.87622 -71.93896,21.07753 -85.53704,12.21956 -13.5981,-8.85796 10.29018,-123.48202 10.29018,-123.48202 z"
         id="path1"
         color="coat" /><path
         style="display:inline;fill:none;stroke:#000000;stroke-width:5;stroke-linecap:round;stroke-dasharray:none;stroke-opacity:1"
         d="m 363.54371,485.99176 c 0,0 -11.33843,59.47199 -9.64704,89.39583 3.38553,59.89623 32.19477,65.76825 63.67044,73.31748 36.90369,8.8511 114.78269,-0.57221 153.06629,-32.15681 18.10802,-14.93942 17.2904,-104.04133 -34.72933,-113.835 -36.52354,-6.87622 -71.93896,21.07753 -85.53704,12.21956 -13.5981,-8.85796 4.1185,-87.17802 4.1185,-87.17802 z"
         id="path9"
         color="coat_contour" /></g><g
       id="g18"
       style="display:inline"
       transform="translate(29.589056,22.064004)"
       sodipodi:insensitive="true"><g
         id="g16"><path
           style="display:inline;fill:#ffff00;stroke-width:0.885764"
           d="m 333.45064,783.83129 c -0.44506,-0.0536 -0.34326,0.82546 -0.51352,1.23458 -8.90307,21.3928 -15.26829,36.1873 -11.19723,42.4309 15.05335,23.08662 65.21059,15.55226 86.18017,7.07448 3.88497,-1.57065 7.43191,-16.81784 10.24963,-37.14014 0.0599,-0.43192 0.61428,-1.23766 0.17867,-1.30255 -40.26656,-5.99823 -56.59222,-8.88877 -84.89772,-12.29727 z"
           id="path15"
           color="hooves" /><path
           d="m 381.86219,792.4918 -30.43555,3.90234 -0.80468,45.30078 c 8.49288,0.35721 24.38458,2.01817 32.77649,0.6971 l 8.97288,-48.43078 c -2.5562,-0.0638 -8.31223,-1.41646 -10.50719,-1.46944 z"
           style="display:inline;opacity:1;fill:#3a7ccb;fill-rule:evenodd;stroke-width:2;stroke-linecap:round;stroke-miterlimit:100"
           id="path3"
           color="hooves;saturation-30;lightness-10;opacity-40"
           sodipodi:nodetypes="cccccsc" /><path
           d="m 374.68904,793.12855 c -8.6868,-0.13156 -27.77815,-1.90082 -39.44953,-1.83938 -0.37236,0.002 10.41879,-5.84537 9.80196,-5.88787 l -3.06859,4.24867 -15.44369,45.66211 c 5.75056,1.52879 16.21522,6.77553 23.38374,6.66805 z"
           style="display:inline;opacity:1;fill:#cb6d3a;fill-opacity:1;fill-rule:evenodd;stroke-width:2;stroke-linecap:round;stroke-miterlimit:100"
           id="path10"
           color="hooves;saturation-30;lightness+30;opacity-40"
           sodipodi:nodetypes="csccccc" /><path
           style="display:inline;fill:none;stroke:#000000;stroke-width:5;stroke-linecap:round;stroke-dasharray:none;stroke-opacity:1"
           d="m 332.43867,786.26315 c -8.63982,20.74773 -14.69345,35.10718 -10.69878,41.23362 15.05335,23.08662 65.21059,15.55226 86.18017,7.07448 3.83752,-1.55147 7.34521,-16.44743 10.14606,-36.39779"
           id="path16"
           color="hooves-contour" /></g><path
         style="display:inline;fill:#ff8200;fill-opacity:1;stroke-width:0.885764"
         d="m 370.6182,604.97184 c -1.66046,33.20921 -5.09216,70.08834 -12.82192,105.84815 -6.36064,29.42594 -16.74833,54.75966 -24.95051,74.46535 -8.85518,21.27452 9.87845,15.63587 18.28067,4.82076 -0.4791,11.79057 7.79667,35.00196 33.0417,17.18257 5.67443,16.52174 14.73491,30.92808 23.75192,27.28258 9.41117,-3.80486 16.83872,-87.86802 16.72154,-129.9134 -0.0901,-32.36252 -14.14898,-91.9684 -14.14898,-91.9684 z"
         id="path17"
         color="coat" /><path
         style="display:inline;fill:none;fill-opacity:1;stroke:#010000;stroke-width:5;stroke-linecap:round;stroke-dasharray:none;stroke-opacity:1"
         d="m 370.6182,604.97184 c -1.66046,33.20921 -5.09216,70.08834 -12.82192,105.84815 -6.36064,29.42594 -16.74833,54.75966 -24.95051,74.46535 -8.85518,21.27452 9.87845,15.63587 18.28067,4.82076 -0.4791,11.79057 7.79667,35.00196 33.0417,17.18257 5.67443,16.52174 14.73491,30.92808 23.75192,27.28258 9.41117,-3.80486 16.83872,-87.86802 16.72154,-129.9134 -0.0901,-32.36252 -14.14898,-91.9684 -14.14898,-91.9684"
         id="path18"
         color="coat-contour" /></g><g
       id="g25"
       style="display:inline"
       transform="translate(39.3344,22.283734)"
       sodipodi:insensitive="true"><g
         id="g23"
         style="display:inline"><path
           style="display:inline;fill:#00ffff;stroke-width:0.885764"
           d="m 509.33122,789.42339 c -2.52959,20.26657 -6.30731,35.45724 -4.63101,38.94274 9.28048,19.29681 66.0668,9.6583 78.62331,2.73334 5.87736,-3.24139 13.08375,-19.23103 7.09411,-39.35723 -0.0208,-0.07 0.22803,-0.62552 -0.12311,-0.63439 -45.19375,-1.14215 -47.58525,-1.24092 -72.0018,-1.11228 -2.06307,0.0109 -8.92818,-0.83912 -8.9615,-0.57218 z"
           id="path22"
           color="hooves" /><g
           id="g1"><path
             d="m 563.54646,790.43697 -30.43555,3.90234 -0.80468,45.30078 c 8.49288,0.35721 17.75457,-0.40744 26.14648,-1.72851 l 12.20703,-47.29883 c -2.5562,-0.0638 -4.91637,-0.1228 -7.11133,-0.17578 z"
             style="display:inline;opacity:1;fill:#3a7ccb;fill-rule:evenodd;stroke-width:2;stroke-linecap:round;stroke-miterlimit:100"
             id="path12"
             color="hooves;saturation-30;lightness-10;opacity-40" /><path
             d="m 545.2906,790.05611 c -8.6868,-0.13156 -15.32667,-0.12204 -26.99805,-0.0606 -0.37236,0.002 -0.90074,-0.0239 -1.51757,-0.0664 l -0.80469,2.14648 2.50586,45.66211 c 5.75056,1.52879 12.65765,2.086 19.82617,1.97852 z"
             style="display:inline;opacity:1;fill:#cb5e3a;fill-opacity:1;fill-rule:evenodd;stroke-width:2;stroke-linecap:round;stroke-miterlimit:100"
             id="path4"
             color="hooves;saturation-30;lightness+30;opacity-40" /></g><path
           style="display:inline;fill:none;stroke:#f11414;stroke-width:5;stroke-linecap:round;stroke-dasharray:none;stroke-opacity:1"
           d="m 508.94737,791.82133 c -3.06043,18.97776 -5.85637,33.19879 -4.24716,36.5448 9.28048,19.29681 66.0668,9.6583 78.62331,2.73334 5.62194,-3.10052 7.66853,-17.46995 7.12369,-37.07733"
           id="path23"
           color="hooves-contour" /></g><path
         style="display:inline;fill:#00ff23;fill-opacity:1;stroke-width:0.885764"
         d="m 453.89251,605.19805 c 0,0 10.14829,21.98858 18.65093,30.22738 9.44513,9.15204 30.3943,37.8278 36.17637,53.86261 10.66214,29.5682 5.15574,71.9251 0.27152,102.26047 -3.07752,19.1142 10.49926,12.94537 18.34795,6.41659 5.33573,11.09451 18.09091,30.73483 33.32401,10.67266 3.73969,14.71329 17.32296,25.40523 22.66023,22.46171 1.00397,-0.55369 1.89392,-1.46677 2.67545,-2.70487 14.92759,-23.64833 -9.69875,-165.87688 -34.83222,-187.34174 -11.46748,-9.79363 -19.52151,1.10567 -23.47443,-4.0196 -7.70398,-9.98884 20.7837,-62.92385 13.6666,-87.78801 -9.52443,-33.27438 -87.46641,55.9528 -87.46641,55.9528 z"
         id="path24"
         color="coat" /><path
         style="display:inline;fill:none;fill-opacity:1;stroke:#000000;stroke-width:5;stroke-linecap:round;stroke-dasharray:none;stroke-opacity:1"
         d="m 453.89251,605.19805 c 0,0 10.14829,21.98858 18.65093,30.22738 9.44513,9.15204 30.3943,37.8278 36.17637,53.86261 10.66214,29.5682 5.15574,71.9251 0.27152,102.26047 -3.07752,19.1142 10.49926,12.94537 18.34795,6.41659 5.33573,11.09451 18.09091,30.73483 33.32401,10.67266 3.73969,14.71329 17.32296,25.40523 22.66023,22.46171 1.00397,-0.55369 1.89392,-1.46677 2.67545,-2.70487 14.92759,-23.64833 -9.69875,-165.87688 -34.83222,-187.34174 -11.46748,-9.79363 -19.52152,1.10568 -23.47443,-4.0196 -7.27097,-9.42741 17.69567,-57.10898 14.54198,-83.34203 -0.18781,-1.56226 -0.59664,-8.82951 -0.99666,-10.22703"
         id="path25"
         color="coat-contour" /></g></g></svg>
