<?xml version="1.0" encoding="UTF-8" standalone="no"?>
<!-- Created with Inkscape (http://www.inkscape.org/) -->

<svg
   width="1000"
   height="1000"
   viewBox="0 0 1000 1000"
   version="1.1"
   id="svg1"
   xml:space="preserve"
   sodipodi:docname="debug.svg"
   inkscape:version="1.4.2 (f4327f4, 2025-05-13)"
   xmlns:inkscape="http://www.inkscape.org/namespaces/inkscape"
   xmlns:sodipodi="http://sodipodi.sourceforge.net/DTD/sodipodi-0.dtd"
   xmlns="http://www.w3.org/2000/svg"
   xmlns:svg="http://www.w3.org/2000/svg"><sodipodi:namedview
     id="namedview1"
     pagecolor="#ffffff"
     bordercolor="#000000"
     borderopacity="0.25"
     inkscape:showpageshadow="2"
     inkscape:pageopacity="0.0"
     inkscape:pagecheckerboard="0"
     inkscape:deskcolor="#d1d1d1"
     inkscape:zoom="0.773"
     inkscape:cx="499.35317"
     inkscape:cy="500"
     inkscape:window-width="1920"
     inkscape:window-height="991"
     inkscape:window-x="-9"
     inkscape:window-y="-9"
     inkscape:window-maximized="1"
     inkscape:current-layer="layer2" /><defs
     id="defs1" /><g
     id="layer2"
     style="display:inline"
     data-layer="300"><title
       id="title7">coat</title><path
       style="display:inline;fill:#00ffff;stroke-width:0.885764"
       d="m 453.89251,605.19805 c 0,0 10.14829,21.98858 18.65093,30.22738 9.44513,9.15204 30.3943,37.8278 36.17637,53.86261 17.38031,48.19901 -8.20264,130.38034 -4.0196,139.07809 9.28049,19.29681 66.0668,9.65831 78.62331,2.73334 20.18026,-11.12949 -5.70744,-167.45796 -32.15677,-190.04661 -11.46748,-9.79363 -19.52151,1.10567 -23.47443,-4.0196 -7.70398,-9.98884 20.7837,-62.92385 13.6666,-87.78801 -9.52443,-33.27438 -87.46641,55.9528 -87.46641,55.9528 z"
       id="path5"
       color="coat" /><path
       style="display:inline;fill:none;stroke:#000000;stroke-width:5;stroke-linecap:round;stroke-dasharray:none;stroke-opacity:1"
       d="m 453.89251,605.19805 c 0,0 10.14829,21.98858 18.65093,30.22738 9.44513,9.15204 30.3943,37.8278 36.17637,53.86261 17.38031,48.19901 -8.20264,130.38034 -4.0196,139.07809 9.28049,19.29681 66.0668,9.65831 78.62331,2.73334 20.18026,-11.12949 -5.70744,-167.45796 -32.15677,-190.04661 -11.46748,-9.79363 -19.52151,1.10567 -23.47443,-4.0196 -7.70398,-9.98884 20.7837,-62.92385 13.6666,-87.78801"
       id="path13"
       color="coat_contour" /><path
       style="display:inline;fill:#ffff00;stroke-width:0.885764"
       d="m 370.6182,604.97184 c -1.66046,33.20921 -5.09216,70.08834 -12.82192,105.84815 -13.22768,61.19456 -43.87146,104.69117 -36.05639,116.67678 15.05334,23.08663 65.21061,15.5523 86.18017,7.07448 9.41118,-3.80484 16.83872,-87.86802 16.72154,-129.9134 -0.0901,-32.36252 -14.14898,-91.9684 -14.14898,-91.9684 z"
       id="path2"
       color="coat" /><path
       style="display:inline;fill:none;stroke:#000000;stroke-width:5;stroke-linecap:round;stroke-dasharray:none;stroke-opacity:1"
       d="m 370.6182,604.97184 c -1.66046,33.20921 -5.09216,70.08834 -12.82192,105.84815 -13.22768,61.19456 -43.87146,104.69117 -36.05639,116.67678 15.05334,23.08663 65.21061,15.5523 86.18017,7.07448 9.41118,-3.80484 16.83872,-87.86802 16.72154,-129.9134 -0.0901,-32.36252 -14.14898,-91.9684 -14.14898,-91.9684"
       id="path11"
       color="coat_contour" /><path
       style="display:inline;fill:#ff0000;stroke-width:0.885764"
       d="m 363.54371,485.99176 c 0,0 -11.33843,59.47199 -9.64704,89.39583 3.38553,59.89623 32.19477,65.76825 63.67044,73.31748 36.90369,8.8511 114.78269,-0.57221 153.06629,-32.15681 18.10802,-14.93942 17.2904,-104.04133 -34.72933,-113.835 -36.52354,-6.87622 -71.93896,21.07753 -85.53704,12.21956 -13.5981,-8.85796 10.29018,-123.48202 10.29018,-123.48202 z"
       id="path1"
       color="coat" /><path
       style="display:inline;fill:none;stroke:#000000;stroke-width:5;stroke-linecap:round;stroke-dasharray:none;stroke-opacity:1"
       d="m 363.54371,485.99176 c 0,0 -11.33843,59.47199 -9.64704,89.39583 3.38553,59.89623 32.19477,65.76825 63.67044,73.31748 36.90369,8.8511 114.78269,-0.57221 153.06629,-32.15681 18.10802,-14.93942 17.2904,-104.04133 -34.72933,-113.835 -36.52354,-6.87622 -71.93896,21.07753 -85.53704,12.21956 -13.5981,-8.85796 4.1185,-87.17802 4.1185,-87.17802 z"
       id="path9"
       color="coat_contour" /><path
       style="display:inline;fill:#00ffff;stroke-width:0.885764"
       d="m 400.20244,629.41103 c -1.66046,33.20921 -5.09217,70.08834 -12.82193,105.84815 -13.22768,61.19456 -43.87145,104.69116 -36.05637,116.67678 15.05335,23.08663 65.21062,15.5523 86.18016,7.07448 9.41119,-3.80485 16.83871,-87.86802 16.72154,-129.9134 -0.09,-32.36252 -14.14898,-91.9684 -14.14898,-91.9684 z"
       id="path10"
       color="coat" /><path
       style="display:inline;fill:none;stroke:#000000;stroke-width:5;stroke-linecap:round;stroke-dasharray:none;stroke-opacity:1"
       d="m 400.20244,629.41103 c -1.66046,33.20921 -5.09217,70.08834 -12.82193,105.84815 -13.22768,61.19456 -43.87145,104.69116 -36.05637,116.67678 15.05335,23.08663 65.21062,15.5523 86.18016,7.07448 9.41119,-3.80485 16.83871,-87.86802 16.72154,-129.9134 -0.09,-32.36252 -14.14898,-91.9684 -14.14898,-91.9684"
       id="path3"
       color="coat_contour" /><path
       style="display:inline;fill:#ffff00;stroke-width:0.885764"
       d="m 493.45712,627.48158 c 0,0 10.1483,21.98858 18.65093,30.22738 9.44513,9.15203 30.3943,37.82779 36.17637,53.8626 17.38032,48.19902 -8.20264,130.38035 -4.01959,139.07809 9.28048,19.29682 66.0668,9.65832 78.62331,2.73335 20.18025,-11.12949 -5.70745,-167.45796 -32.15677,-190.04661 -11.46749,-9.79363 -19.52152,1.10567 -23.47443,-4.0196 -7.70399,-9.98884 20.78369,-62.92385 13.6666,-87.78801 -9.52444,-33.27438 -87.46642,55.9528 -87.46642,55.9528 z"
       id="path4"
       color="coat;hue+50" /><path
       style="display:inline;fill:none;stroke:#000000;stroke-width:5;stroke-linecap:round;stroke-dasharray:none;stroke-opacity:1"
       d="m 493.45712,627.48158 c 0,0 10.1483,21.98858 18.65093,30.22738 9.44513,9.15203 30.3943,37.82779 36.17637,53.8626 17.38032,48.19902 -8.20264,130.38035 -4.01959,139.07809 9.28048,19.29682 66.0668,9.65832 78.62331,2.73335 20.18025,-11.12949 -5.70745,-167.45796 -32.15677,-190.04661 -11.46749,-9.79363 -19.52152,1.10567 -23.47443,-4.0196 -7.70399,-9.98884 20.60217,-67.64337 13.48508,-92.50753"
       id="path12"
       color="coat_contour" /><ellipse
       style="opacity:1;fill:#0005ff;fill-rule:evenodd;stroke-width:4;stroke-linecap:round;stroke-miterlimit:100"
       id="path6"
       cx="322.76843"
       cy="597.0246"
       rx="57.567917"
       ry="56.274258"
       color="mane-main" /><ellipse
       style="opacity:1;fill:#0005ff;fill-rule:evenodd;stroke-width:4;stroke-linecap:round;stroke-miterlimit:100"
       id="ellipse6"
       cx="324.06207"
       cy="785.89911"
       rx="57.567917"
       ry="56.274258"
       color="coat" /><ellipse
       style="opacity:1;fill:#0005ff;fill-rule:evenodd;stroke-width:4;stroke-linecap:round;stroke-miterlimit:100"
       id="ellipse7"
       cx="713.45404"
       cy="465.07117"
       rx="57.567917"
       ry="56.274258"
       color="mane-main;lightness-40" /><ellipse
       style="opacity:1;fill:#0005ff;fill-rule:evenodd;stroke-width:4;stroke-linecap:round;stroke-miterlimit:100"
       id="ellipse8"
       cx="591.84991"
       cy="511.64297"
       rx="57.567917"
       ry="56.274258"
       color="mane-main;saturation+50" /><ellipse
       style="opacity:1;fill:#0005ff;fill-rule:evenodd;stroke-width:4;stroke-linecap:round;stroke-miterlimit:100"
       id="ellipse9"
       cx="458.60284"
       cy="554.3338"
       rx="57.567917"
       ry="56.274258"
       color="mane-main;hue+25" /><ellipse
       style="opacity:1;fill:#0005ff;fill-rule:evenodd;stroke-width:4;stroke-linecap:round;stroke-miterlimit:100"
       id="ellipse10"
       cx="766.49414"
       cy="637.12811"
       rx="57.567917"
       ry="56.274258"
       color="coat;lightness-30" /><ellipse
       style="opacity:1;fill:#0005ff;fill-rule:evenodd;stroke-width:4;stroke-linecap:round;stroke-miterlimit:100"
       id="ellipse11"
       cx="631.95343"
       cy="703.1048"
       rx="57.567917"
       ry="56.274258"
       color="coat;saturation-20" /><ellipse
       style="opacity:1;fill:#0005ff;fill-rule:evenodd;stroke-width:4;stroke-linecap:round;stroke-miterlimit:100"
       id="ellipse12"
       cx="472.8331"
       cy="756.1449"
       rx="57.567917"
       ry="56.274258"
       color="coat;hue+40" /></g></svg>
