<?xml version="1.0" encoding="UTF-8" standalone="no"?>
<!-- Created with Inkscape (http://www.inkscape.org/) -->

<svg
   width="1000"
   height="1000"
   viewBox="0 0 1000 1000"
   version="1.1"
   id="svg1"
   xml:space="preserve"
   sodipodi:docname="Kirin1.svg"
   inkscape:version="1.4.2 (f4327f4, 2025-05-13)"
   xmlns:inkscape="http://www.inkscape.org/namespaces/inkscape"
   xmlns:sodipodi="http://sodipodi.sourceforge.net/DTD/sodipodi-0.dtd"
   xmlns="http://www.w3.org/2000/svg"
   xmlns:svg="http://www.w3.org/2000/svg"><sodipodi:namedview
     id="namedview1"
     pagecolor="#ffffff"
     bordercolor="#000000"
     borderopacity="0.25"
     inkscape:showpageshadow="2"
     inkscape:pageopacity="0.0"
     inkscape:pagecheckerboard="0"
     inkscape:deskcolor="#d1d1d1"
     inkscape:zoom="0.92716861"
     inkscape:cx="324.64429"
     inkscape:cy="664.9276"
     inkscape:window-width="1920"
     inkscape:window-height="991"
     inkscape:window-x="-9"
     inkscape:window-y="-9"
     inkscape:window-maximized="1"
     inkscape:current-layer="g65" /><defs
     id="defs1" /><g
     id="layer2"
     style="display:inline"
     data-layer="300"><title
       id="title7">coat</title><g
       id="g5"><path
         style="display:inline;fill:#00ffff;stroke-width:0.885764"
         d="m 453.89251,605.19805 c 0,0 10.14829,21.98858 18.65093,30.22738 9.44513,9.15204 30.3943,37.8278 36.17637,53.86261 17.38031,48.19901 -8.20264,130.38034 -4.0196,139.07809 9.28049,19.29681 66.0668,9.65831 78.62331,2.73334 20.18026,-11.12949 -5.70744,-167.45796 -32.15677,-190.04661 -11.46748,-9.79363 -19.52151,1.10567 -23.47443,-4.0196 -7.70398,-9.98884 20.7837,-62.92385 13.6666,-87.78801 -9.52443,-33.27438 -87.46641,55.9528 -87.46641,55.9528 z"
         id="path5"
         color="coat" /><path
         style="display:inline;fill:none;stroke:#000000;stroke-width:5;stroke-linecap:round;stroke-dasharray:none;stroke-opacity:1"
         d="m 453.89251,605.19805 c 0,0 10.14829,21.98858 18.65093,30.22738 9.44513,9.15204 30.3943,37.8278 36.17637,53.86261 17.38031,48.19901 -8.20264,130.38034 -4.0196,139.07809 9.28049,19.29681 66.0668,9.65831 78.62331,2.73334 20.18026,-11.12949 -5.70744,-167.45796 -32.15677,-190.04661 -11.46748,-9.79363 -19.52151,1.10567 -23.47443,-4.0196 -7.70398,-9.98884 20.7837,-62.92385 13.6666,-87.78801"
         id="path13"
         color="coat_contour" /><path
         d="m 535.70117,839.72461 c -0.68255,-7.75391 -2.65878,-19.67808 -8.37305,-23.42383 -6.36126,-4.16985 -15.33485,-5.36924 -21.46093,-5.66406 -1.44629,9.20374 -2.17934,15.62152 -1.16602,17.72851 3.98786,8.2919 16.74727,11.24189 31,11.35938 z"
         style="display:inline;opacity:1;fill:#000000;fill-rule:evenodd;stroke:none;stroke-width:5.1;stroke-linecap:round;stroke-miterlimit:100;fill-opacity:1"
         id="path20"
         color="hooves" /><path
         d="m 535.70117,839.72461 c -0.68255,-7.75391 -2.65878,-19.67808 -8.37305,-23.42383 -6.36126,-4.16985 -15.33485,-5.36924 -21.46093,-5.66406 -1.44629,9.20374 -2.17934,15.62152 -1.16602,17.72851 3.98786,8.2919 16.74727,11.24189 31,11.35938 z"
         style="display:inline;opacity:1;fill:none;fill-rule:evenodd;stroke:#989898;stroke-width:5.1;stroke-linecap:round;stroke-miterlimit:100"
         id="path21"
         color="hooves-contour" /></g><g
       id="g4"><path
         style="display:inline;fill:#ffff00;stroke-width:0.885764"
         d="m 370.6182,604.97184 c -1.66046,33.20921 -5.09216,70.08834 -12.82192,105.84815 -13.22768,61.19456 -43.87146,104.69117 -36.05639,116.67678 15.05334,23.08663 65.21061,15.5523 86.18017,7.07448 9.41118,-3.80484 16.83872,-87.86802 16.72154,-129.9134 -0.0901,-32.36252 -14.14898,-91.9684 -14.14898,-91.9684 z"
         id="path2"
         color="coat" /><path
         style="display:inline;fill:none;stroke:#000000;stroke-width:5;stroke-linecap:round;stroke-dasharray:none;stroke-opacity:1"
         d="m 370.6182,604.97184 c -1.66046,33.20921 -5.09216,70.08834 -12.82192,105.84815 -13.22768,61.19456 -43.87146,104.69117 -36.05639,116.67678 15.05334,23.08663 65.21061,15.5523 86.18017,7.07448 9.41118,-3.80484 16.83872,-87.86802 16.72154,-129.9134 -0.0901,-32.36252 -14.14898,-91.9684 -14.14898,-91.9684"
         id="path11"
         color="coat_contour" /><path
         d="m 352.07734,842.40213 c 0.0627,-8.03291 -0.68573,-22.87737 -6.58984,-29.78907 -5.15519,-6.03497 -14.97638,-5.98288 -21.48242,-5.13476 -3.37003,9.49017 -4.68829,16.31988 -2.24414,20.06836 5.94744,9.12132 17.37476,13.46354 30.3164,14.85547 z"
         style="display:inline;opacity:1;fill:#000000;fill-rule:evenodd;stroke:none;stroke-width:5.1;stroke-linecap:round;stroke-miterlimit:100;stroke-dasharray:none;stroke-opacity:1;fill-opacity:1"
         id="path14"
         color="hooves" /><path
         d="m 352.07734,842.40213 c 0.0627,-8.03291 -0.68573,-22.87737 -6.58984,-29.78907 -5.15519,-6.03497 -14.97638,-5.98288 -21.48242,-5.13476 -3.37003,9.49017 -4.68829,16.31988 -2.24414,20.06836 5.94744,9.12132 17.37476,13.46354 30.3164,14.85547 z"
         style="display:inline;opacity:1;fill:none;fill-rule:evenodd;stroke:#919191;stroke-width:5.1;stroke-linecap:round;stroke-miterlimit:100;stroke-dasharray:none;stroke-opacity:1"
         id="path15"
         color="hooves-contour" /></g><g
       id="g3"><path
         style="display:inline;fill:#ff0000;stroke-width:0.885764"
         d="m 363.54371,485.99176 c 0,0 -11.33843,59.47199 -9.64704,89.39583 3.38553,59.89623 32.19477,65.76825 63.67044,73.31748 36.90369,8.8511 114.78269,-0.57221 153.06629,-32.15681 18.10802,-14.93942 17.2904,-104.04133 -34.72933,-113.835 -36.52354,-6.87622 -71.93896,21.07753 -85.53704,12.21956 -13.5981,-8.85796 10.29018,-123.48202 10.29018,-123.48202 z"
         id="path1"
         color="coat" /><path
         style="display:inline;fill:none;stroke:#000000;stroke-width:5;stroke-linecap:round;stroke-dasharray:none;stroke-opacity:1"
         d="m 363.54371,485.99176 c 0,0 -11.33843,59.47199 -9.64704,89.39583 3.38553,59.89623 32.19477,65.76825 63.67044,73.31748 36.90369,8.8511 114.78269,-0.57221 153.06629,-32.15681 18.10802,-14.93942 17.2904,-104.04133 -34.72933,-113.835 -36.52354,-6.87622 -71.93896,21.07753 -85.53704,12.21956 -13.5981,-8.85796 4.1185,-87.17802 4.1185,-87.17802 z"
         id="path9"
         color="coat_contour" /></g><g
       id="g2"><path
         style="display:inline;fill:#00ffff;stroke-width:0.885764"
         d="m 400.20244,629.41103 c -1.66046,33.20921 -5.09217,70.08834 -12.82193,105.84815 -13.22768,61.19456 -43.87145,104.69116 -36.05637,116.67678 15.05335,23.08663 65.21062,15.5523 86.18016,7.07448 9.41119,-3.80485 16.83871,-87.86802 16.72154,-129.9134 -0.09,-32.36252 -14.14898,-91.9684 -14.14898,-91.9684 z"
         id="path10"
         color="coat" /><path
         style="display:inline;fill:none;stroke:#000000;stroke-width:5;stroke-linecap:round;stroke-dasharray:none;stroke-opacity:1"
         d="m 400.20244,629.41103 c -1.66046,33.20921 -5.09217,70.08834 -12.82193,105.84815 -13.22768,61.19456 -43.87145,104.69116 -36.05637,116.67678 15.05335,23.08663 65.21062,15.5523 86.18016,7.07448 9.41119,-3.80485 16.83871,-87.86802 16.72154,-129.9134 -0.09,-32.36252 -14.14898,-91.9684 -14.14898,-91.9684"
         id="path3"
         color="coat_contour" /><path
         d="m 381.64062,866.79102 c 0.0627,-8.03291 -0.68573,-22.87737 -6.58984,-29.78907 -5.15519,-6.03497 -14.97638,-5.98288 -21.48242,-5.13476 -3.37003,9.49017 -4.68829,16.31988 -2.24414,20.06836 5.94744,9.12132 17.37476,13.46354 30.3164,14.85547 z"
         style="display:inline;opacity:1;fill:#000000;fill-opacity:1;fill-rule:evenodd;stroke:none;stroke-width:5.1;stroke-linecap:round;stroke-miterlimit:100;stroke-dasharray:none;stroke-opacity:1"
         id="path7"
         color="hooves" /><path
         d="m 381.64062,866.79102 c 0.0627,-8.03291 -0.68573,-22.87737 -6.58984,-29.78907 -5.15519,-6.03497 -14.97638,-5.98288 -21.48242,-5.13476 -3.37003,9.49017 -4.68829,16.31988 -2.24414,20.06836 5.94744,9.12132 17.37476,13.46354 30.3164,14.85547 z"
         style="display:inline;opacity:1;fill:none;fill-rule:evenodd;stroke:#919191;stroke-width:5.1;stroke-linecap:round;stroke-miterlimit:100;stroke-dasharray:none;stroke-opacity:1"
         id="path8"
         color="hooves-contour" /><g
         id="g62"><path
           style="display:inline;opacity:1;fill:#00ffff;fill-opacity:1;fill-rule:evenodd;stroke:none;stroke-width:5;stroke-linecap:round;stroke-miterlimit:100;stroke-dasharray:none;stroke-opacity:1"
           d="m 451.83898,742.72679 c 0,0 29.66442,59.54221 14.39593,86.93438 -7.40542,13.28556 -30.83855,-32.2194 -30.83855,-32.2194 z"
           id="path62"
           sodipodi:nodetypes="cscc"
           color="coat" /><path
           style="display:inline;opacity:1;fill:none;fill-opacity:1;fill-rule:evenodd;stroke:#000000;stroke-width:5;stroke-linecap:round;stroke-miterlimit:100;stroke-dasharray:none;stroke-opacity:1"
           d="m 454.02203,743.61618 c 0,0 27.48137,58.65282 12.21288,86.04499 -7.40542,13.28556 -28.6555,-31.33001 -28.6555,-31.33001"
           id="path63"
           sodipodi:nodetypes="csc"
           color="coat-contour" /><path
           style="display:inline;opacity:1;fill:none;fill-opacity:1;fill-rule:evenodd;stroke:#000000;stroke-width:3;stroke-linecap:round;stroke-miterlimit:100;stroke-dasharray:none;stroke-opacity:1"
           d="m 464.74774,831.66236 -0.9237,-5.734 1.20659,4.09003"
           id="path64"
           sodipodi:nodetypes="ccc"
           color="coat-contour" /></g></g><g
       id="g1"><g
         id="g65"
         style="display:inline"><path
           style="display:inline;opacity:1;fill:#00ffff;fill-opacity:1;fill-rule:evenodd;stroke:none;stroke-width:5;stroke-linecap:round;stroke-miterlimit:100;stroke-dasharray:none;stroke-opacity:1"
           d="m 587.00218,668.43289 c 0,0 20.62917,0.82957 28.16091,-1.804 6.78323,-2.37183 9.58843,-10.86899 9.58843,-10.86899 0,0 5.21231,7.19038 4.81112,15.91686 -0.37721,8.20494 -4.00221,14.82189 -4.00221,14.82189 0,0 15.46947,8.34831 19.97235,15.46244 4.90494,7.74936 5.91291,26.87074 5.91291,26.87074 0,0 -10.07932,-1.30332 -14.8173,-3.02456 -2.98148,-1.08312 -8.37157,-4.5253 -8.37157,-4.5253 0,0 -0.90139,8.27891 -3.27714,14.0834 -2.71168,6.62524 -11.28332,18.27317 -11.28332,18.27317 z"
           id="path65"
           sodipodi:nodetypes="cscscscscscc"
           color="tail-main" /><path
           d="m 650.70508,728.73047 c -5.56346,-9.33428 -15.57874,-24.96964 -23.79688,-31.44727 -8.57001,-6.75497 -24.51003,-11.92411 -35.53711,-14.9082 l 3.29297,10.51367 c 8.27241,2.5226 19.10244,6.61591 24.42578,11.94531 3.65661,3.66078 6.78543,10.26493 9.1543,16.55664 0.008,-0.0715 0.0117,-0.10937 0.0117,-0.10937 0,0 5.39157,3.44227 8.37305,4.52539 3.9638,1.43999 11.66494,2.58728 14.07617,2.92383 z"
           style="display:inline;opacity:1;fill:#00ff28;fill-rule:evenodd;stroke:none;stroke-width:3;stroke-linecap:round;stroke-miterlimit:100;fill-opacity:1"
           id="path67"
           color="tail-hl-1" /><path
           style="display:inline;opacity:1;fill:none;fill-opacity:1;fill-rule:evenodd;stroke:#000000;stroke-width:5;stroke-linecap:round;stroke-miterlimit:100;stroke-dasharray:none;stroke-opacity:1"
           d="m 587.00218,668.43289 c 0,0 20.62917,0.82957 28.16091,-1.804 6.78323,-2.37183 9.58843,-10.86899 9.58843,-10.86899 0,0 5.21231,7.19038 4.81112,15.91686 -0.37721,8.20494 -4.00221,14.82189 -4.00221,14.82189 0,0 15.46947,8.34831 19.97235,15.46244 4.90494,7.74936 5.91291,26.87074 5.91291,26.87074 0,0 -10.07932,-1.30332 -14.8173,-3.02456 -2.98148,-1.08312 -8.37157,-4.5253 -8.37157,-4.5253 0,0 -0.90139,8.27891 -3.27714,14.0834 -2.71168,6.62524 -11.28332,18.27317 -11.28332,18.27317 z"
           id="path68"
           sodipodi:nodetypes="cscscscscscc"
           color="tail-contour" /><path
           d="m 650.70508,728.73047 c -5.56346,-9.33428 -15.57874,-24.96964 -23.79688,-31.44727 -8.57001,-6.75497 -24.51003,-11.92411 -35.53711,-14.9082 l 3.29297,10.51367 c 8.27241,2.5226 19.10244,6.61591 24.42578,11.94531 3.65661,3.66078 6.78543,10.26493 9.1543,16.55664 0.008,-0.0715 0.0117,-0.10937 0.0117,-0.10937 0,0 5.39157,3.44227 8.37305,4.52539 3.9638,1.43999 11.66494,2.58728 14.07617,2.92383 z"
           style="display:inline;opacity:1;fill:none;fill-rule:evenodd;stroke:#000000;stroke-width:3;stroke-linecap:round;stroke-miterlimit:100"
           id="path69"
           color="tail-contour" /></g><path
         style="display:inline;fill:#ffff00;stroke-width:0.885764"
         d="m 493.45712,627.48158 c 0,0 10.1483,21.98858 18.65093,30.22738 9.44513,9.15203 30.3943,37.82779 36.17637,53.8626 17.38032,48.19902 -8.20264,130.38035 -4.01959,139.07809 9.28048,19.29682 66.0668,9.65832 78.62331,2.73335 20.18025,-11.12949 -5.70745,-167.45796 -32.15677,-190.04661 -11.46749,-9.79363 -19.52152,1.10567 -23.47443,-4.0196 -7.70399,-9.98884 20.78369,-62.92385 13.6666,-87.78801 -9.52444,-33.27438 -87.46642,55.9528 -87.46642,55.9528 z"
         id="path4"
         color="coat" /><path
         style="display:inline;fill:none;stroke:#000000;stroke-width:5;stroke-linecap:round;stroke-dasharray:none;stroke-opacity:1"
         d="m 493.45712,627.48158 c 0,0 10.1483,21.98858 18.65093,30.22738 9.44513,9.15203 30.3943,37.82779 36.17637,53.8626 17.38032,48.19902 -8.20264,130.38035 -4.01959,139.07809 9.28048,19.29682 66.0668,9.65832 78.62331,2.73335 20.18025,-11.12949 -5.70745,-167.45796 -32.15677,-190.04661 -11.46749,-9.79363 -19.52152,1.10567 -23.47443,-4.0196 -7.70399,-9.98884 20.60217,-67.64337 13.48508,-92.50753"
         id="path12"
         color="coat_contour" /><path
         d="m 584.25977,861.73828 c -1.99282,-9.09373 -6.10938,-20.67103 -14.40235,-24.0918 -10.4983,-4.33044 -19.72074,-3.27154 -24.8418,-2.02148 -1.16088,7.75248 -1.66083,13.13151 -0.75,15.02539 4.81482,10.01141 22.416,12.23361 39.99415,11.08789 z"
         style="display:inline;fill:#000000;stroke:none;stroke-width:5.1;stroke-linecap:round;stroke-dasharray:none;stroke-opacity:1;fill-opacity:1"
         id="path17"
         color="hooves" /><path
         d="m 584.25977,861.73828 c -1.99282,-9.09373 -6.10938,-20.67103 -14.40235,-24.0918 -10.4983,-4.33044 -19.72074,-3.27154 -24.8418,-2.02148 -1.16088,7.75248 -1.66083,13.13151 -0.75,15.02539 4.81482,10.01141 22.416,12.23361 39.99415,11.08789 z"
         style="display:inline;fill:none;stroke:#989898;stroke-width:5.1;stroke-linecap:round;stroke-dasharray:none;stroke-opacity:1"
         id="path18"
         color="hooves-contour" /></g><g
       id="g22"
       style="display:inline;fill:none;stroke:#989898;stroke-opacity:1"><path
         style="opacity:1;fill:none;fill-opacity:1;fill-rule:evenodd;stroke:#989898;stroke-width:5.1;stroke-linecap:round;stroke-miterlimit:100;stroke-dasharray:none;stroke-opacity:1"
         d="m 554.33441,857.50869 c 0,0 1.08555,-1.98404 1.32798,-2.41243 -0.0108,1.04302 -0.28028,3.10839 -0.28028,3.10839"
         id="path22"
         sodipodi:nodetypes="ccc"
         color="hooves-contour" /><path
         style="opacity:1;fill:none;fill-opacity:1;fill-rule:evenodd;stroke:#989898;stroke-width:5.1;stroke-linecap:round;stroke-miterlimit:100;stroke-dasharray:none;stroke-opacity:1"
         d="m 509.37969,831.95889 c 0,0 1.08555,-1.98404 1.32798,-2.41243 -0.0108,1.04302 -0.28028,3.10839 -0.28028,3.10839"
         id="path23"
         sodipodi:nodetypes="ccc"
         color="hooves-contour" /><path
         style="opacity:1;fill:none;fill-opacity:1;fill-rule:evenodd;stroke:#989898;stroke-width:5.1;stroke-linecap:round;stroke-miterlimit:100;stroke-dasharray:none;stroke-opacity:1"
         d="m 358.34476,857.6704 c 0,0 1.08555,-4.00539 1.32798,-4.43378 -0.0108,1.04302 -0.28028,5.12974 -0.28028,5.12974"
         id="path24"
         sodipodi:nodetypes="ccc"
         color="hooves-contour" /><path
         style="opacity:1;fill:none;fill-opacity:1;fill-rule:evenodd;stroke:#989898;stroke-width:5.1;stroke-linecap:round;stroke-miterlimit:100;stroke-dasharray:none;stroke-opacity:1"
         d="m 327.62031,831.79718 c 0,0 1.32811,-3.11599 1.57054,-3.54438 -0.0108,1.04302 -0.52284,4.24034 -0.52284,4.24034"
         id="path25"
         sodipodi:nodetypes="ccc"
         color="hooves-contour" /></g><g
       id="g27"><path
         d="m 448.13672,512.43359 c -6.32534,10.27251 -19.20669,37.29358 13.37695,46.42774 40.558,11.36962 52.97662,-25.92683 85.38086,-27.8125 11.04358,-0.64265 20.00608,2.10033 26.55274,5.3457 -6.99743,-16.66126 -19.0267,-30.19561 -37.54297,-33.68164 -36.52354,-6.87622 -71.93903,21.07867 -85.53711,12.2207 -0.86593,-0.56407 -1.60585,-1.41072 -2.23047,-2.5 z"
         style="display:inline;opacity:1;fill:#f3f3f3;fill-rule:evenodd;stroke:none;stroke-width:5.1;stroke-linecap:round;stroke-miterlimit:100;fill-opacity:1"
         id="path27"
         color="hooves" /><path
         d="m 448.13672,512.43359 c -6.32534,10.27251 -19.20669,37.29358 13.37695,46.42774 40.558,11.36962 52.97662,-25.92683 85.38086,-27.8125 11.04358,-0.64265 20.00608,2.10033 26.55274,5.3457 -6.99743,-16.66126 -19.0267,-30.19561 -37.54297,-33.68164 -36.52354,-6.87622 -71.93903,21.07867 -85.53711,12.2207 -0.86593,-0.56407 -1.60585,-1.41072 -2.23047,-2.5 z"
         style="display:inline;opacity:1;fill:none;fill-rule:evenodd;stroke:#989898;stroke-width:5.1;stroke-linecap:round;stroke-miterlimit:100"
         id="path28"
         color="hooves-contour" /><path
         style="opacity:1;fill:none;fill-opacity:1;fill-rule:evenodd;stroke:#989898;stroke-width:3;stroke-linecap:round;stroke-miterlimit:100;stroke-dasharray:none;stroke-opacity:1"
         d="m 482.84938,510.2243 c 1.35979,0.0772 10.12029,1.28395 12.34112,6.28599 -2.12426,5.34507 -11.08565,7.41747 -12.45111,7.93083 1.41329,0.60666 10.08765,2.71649 12.30941,8.84618 -2.12078,5.88337 -12.36052,9.08014 -13.4974,9.77651 1.44613,1.01423 10.38883,2.96128 13.46903,8.68634 -3.03724,5.55354 -11.73002,7.75081 -13.04828,7.99731"
         id="path29"
         sodipodi:nodetypes="ccccccc"
         color="hooves-contour" /><path
         style="opacity:1;fill:none;fill-opacity:1;fill-rule:evenodd;stroke:#989898;stroke-width:3;stroke-linecap:round;stroke-miterlimit:100;stroke-dasharray:none;stroke-opacity:1"
         d="m 467.00204,516.36919 c 1.35979,0.0772 11.25224,2.82017 13.47307,7.82221 -2.12426,5.34507 -11.08565,7.41747 -12.45111,7.93083 1.41329,0.60666 10.08765,2.71649 12.30941,8.84618 -2.12078,5.88337 -12.36052,9.08014 -13.4974,9.77651 1.44613,1.01423 10.38883,2.96128 13.46903,8.68634 -0.56174,1.02713 -1.31694,1.93946 -2.18316,2.74586"
         id="path41"
         sodipodi:nodetypes="ccccccc"
         color="hooves-contour" /><path
         style="opacity:1;fill:none;fill-opacity:1;fill-rule:evenodd;stroke:#989898;stroke-width:3;stroke-linecap:round;stroke-miterlimit:100;stroke-dasharray:none;stroke-opacity:1"
         d="m 464.35253,515.95859 c -2.12426,5.34507 -15.08771,7.53181 -16.45317,8.04517 1.41329,0.60666 14.08971,2.60215 16.31147,8.73184 -2.12078,5.88337 -18.19209,8.27973 -19.32897,8.9761 1.44613,1.01423 16.2204,3.76169 19.3006,9.48675 -1.61709,2.95683 -4.83738,4.96224 -7.69427,6.22837"
         id="path42"
         sodipodi:nodetypes="cccccc"
         color="hooves-contour" /><path
         style="opacity:1;fill:none;fill-opacity:1;fill-rule:evenodd;stroke:#989898;stroke-width:3;stroke-linecap:round;stroke-miterlimit:100;stroke-dasharray:none;stroke-opacity:1"
         d="m 506.61312,504.10122 c 1.59165,1.07741 2.93099,2.36539 3.59158,3.85325 -2.12426,5.34507 -11.08565,7.41747 -12.45111,7.93083 1.41329,0.60666 10.08765,2.71649 12.30941,8.84618 -2.12078,5.88337 -12.36052,9.08014 -13.4974,9.77651 1.44613,1.01423 10.38883,2.96128 13.46903,8.68634 -3.03724,5.55354 -12.98781,8.20819 -14.30607,8.45469"
         id="path43"
         sodipodi:nodetypes="ccccccc"
         color="hooves-contour" /><path
         style="opacity:1;fill:none;fill-opacity:1;fill-rule:evenodd;stroke:#989898;stroke-width:3;stroke-linecap:round;stroke-miterlimit:100;stroke-dasharray:none;stroke-opacity:1"
         d="m 510.56732,505.04908 c 1.35979,0.0772 11.25224,2.82017 13.47307,7.82221 -2.12426,5.34507 -11.08565,7.41747 -12.45111,7.93083 1.41329,0.60666 10.08765,2.71649 12.30941,8.84618 -2.46381,7.48419 -14.07569,9.88055 -15.21257,10.57692 0.88994,0.62415 7.13449,-0.91401 10.58908,1.07977"
         id="path44"
         sodipodi:nodetypes="cccccc"
         color="hooves-contour" /><path
         style="opacity:1;fill:none;fill-opacity:1;fill-rule:evenodd;stroke:#989898;stroke-width:3;stroke-linecap:round;stroke-miterlimit:100;stroke-dasharray:none;stroke-opacity:1"
         d="m 538.90518,504.1811 c -2.12426,5.34507 -11.08565,7.41747 -12.45111,7.93083 1.41329,0.60666 10.08765,2.71649 12.30941,8.84618 -2.12078,5.88337 -12.36052,9.08014 -13.4974,9.77651 0.83378,0.58477 4.1596,1.47962 7.41702,3.22989"
         id="path45"
         sodipodi:nodetypes="ccccc"
         color="hooves-contour" /><path
         style="opacity:1;fill:none;fill-opacity:1;fill-rule:evenodd;stroke:#989898;stroke-width:3;stroke-linecap:round;stroke-miterlimit:100;stroke-dasharray:none;stroke-opacity:1"
         d="m 540.18256,504.82039 c 1.35979,0.0772 11.25224,2.82017 13.47307,7.82221 -2.12426,5.34507 -11.08565,7.41747 -12.45111,7.93083 1.41329,0.60666 10.08765,2.71649 12.30941,8.84618"
         id="path46"
         sodipodi:nodetypes="cccc"
         color="hooves-contour" /><path
         style="opacity:1;fill:none;fill-opacity:1;fill-rule:evenodd;stroke:#989898;stroke-width:3;stroke-linecap:round;stroke-miterlimit:100;stroke-dasharray:none;stroke-opacity:1"
         d="m 558.34704,513.02629 c -1.36789,0.47258 -2.44382,0.76266 -2.84945,0.91516 1.41329,0.60666 8.08662,3.57407 10.30838,9.70376 -2.12078,5.88337 -10.03607,7.09061 -11.17295,7.78698"
         id="path47"
         sodipodi:nodetypes="cccc"
         color="hooves-contour" /><path
         style="opacity:1;fill:none;fill-opacity:1;fill-rule:evenodd;stroke:#989898;stroke-width:3;stroke-linecap:round;stroke-miterlimit:100;stroke-dasharray:none;stroke-opacity:1"
         d="m 442.61039,532.53955 c 0.36569,0.19064 0.15017,-0.16257 1.83905,0.31036 -1.17073,0.34389 -1.45651,0.27067 -1.81863,0.3161"
         id="path48"
         sodipodi:nodetypes="ccc"
         color="hooves-contour" /><path
         style="opacity:1;fill:none;fill-opacity:1;fill-rule:evenodd;stroke:#989898;stroke-width:3;stroke-linecap:round;stroke-miterlimit:100;stroke-dasharray:none;stroke-opacity:1"
         d="m 454.73846,523.40307 c 0.36569,0.19064 2.65664,-0.16257 4.34552,0.31036 -1.17073,0.34389 -3.96298,0.27067 -4.3251,0.3161"
         id="path49"
         sodipodi:nodetypes="ccc"
         color="hooves-contour" /><path
         style="opacity:1;fill:none;fill-opacity:1;fill-rule:evenodd;stroke:#989898;stroke-width:3;stroke-linecap:round;stroke-miterlimit:100;stroke-dasharray:none;stroke-opacity:1"
         d="m 451.50431,541.67603 c 0.36569,0.19064 3.14176,-0.16257 4.83064,0.31036 -1.17073,0.34389 -4.4481,0.27067 -4.81022,0.3161"
         id="path50"
         sodipodi:nodetypes="ccc"
         color="hooves-contour" /><path
         style="opacity:1;fill:none;fill-opacity:1;fill-rule:evenodd;stroke:#989898;stroke-width:3;stroke-linecap:round;stroke-miterlimit:100;stroke-dasharray:none;stroke-opacity:1"
         d="m 470.50496,550.40824 c 0.36569,0.19064 3.14176,-0.16257 4.83064,0.31036 -1.17073,0.34389 -4.4481,0.27067 -4.81022,0.3161"
         id="path51"
         sodipodi:nodetypes="ccc"
         color="hooves-contour" /><path
         style="opacity:1;fill:none;fill-opacity:1;fill-rule:evenodd;stroke:#989898;stroke-width:3;stroke-linecap:round;stroke-miterlimit:100;stroke-dasharray:none;stroke-opacity:1"
         d="m 473.49655,531.65015 c 0.36569,0.19064 3.14176,-0.16257 4.83064,0.31036 -1.17073,0.34389 -4.4481,0.27067 -4.81022,0.3161"
         id="path52"
         sodipodi:nodetypes="ccc"
         color="hooves-contour" /><path
         style="opacity:1;fill:none;fill-opacity:1;fill-rule:evenodd;stroke:#989898;stroke-width:3;stroke-linecap:round;stroke-miterlimit:100;stroke-dasharray:none;stroke-opacity:1"
         d="m 472.84972,515.72195 c 0.36569,0.19064 3.14176,-0.16257 4.83064,0.31036 -1.17073,0.34389 -4.4481,0.27067 -4.81022,0.3161"
         id="path53"
         sodipodi:nodetypes="ccc"
         color="hooves-contour" /><path
         style="opacity:1;fill:none;fill-opacity:1;fill-rule:evenodd;stroke:#989898;stroke-width:3;stroke-linecap:round;stroke-miterlimit:100;stroke-dasharray:none;stroke-opacity:1"
         d="m 487.96938,509.25364 c 0.36569,0.19064 3.14176,-0.16257 4.83064,0.31036 -1.17073,0.34389 -4.4481,0.27067 -4.81022,0.3161"
         id="path54"
         sodipodi:nodetypes="ccc"
         color="hooves-contour" /><path
         style="opacity:1;fill:none;fill-opacity:1;fill-rule:evenodd;stroke:#989898;stroke-width:3;stroke-linecap:round;stroke-miterlimit:100;stroke-dasharray:none;stroke-opacity:1"
         d="m 487.32255,524.04989 c 0.36569,0.19064 3.14176,-0.16257 4.83064,0.31036 -1.17073,0.34389 -4.4481,0.27067 -4.81022,0.3161"
         id="path55"
         sodipodi:nodetypes="ccc"
         color="hooves-contour" /><path
         style="opacity:1;fill:none;fill-opacity:1;fill-rule:evenodd;stroke:#989898;stroke-width:3;stroke-linecap:round;stroke-miterlimit:100;stroke-dasharray:none;stroke-opacity:1"
         d="m 485.70547,542.40371 c 0.36569,0.19064 3.14176,-0.16257 4.83064,0.31036 -1.17073,0.34389 -4.4481,0.27067 -4.81022,0.3161"
         id="path56"
         sodipodi:nodetypes="ccc"
         color="hooves-contour" /><path
         style="opacity:1;fill:none;fill-opacity:1;fill-rule:evenodd;stroke:#989898;stroke-width:3;stroke-linecap:round;stroke-miterlimit:100;stroke-dasharray:none;stroke-opacity:1"
         d="m 504.1271,530.95512 c 0.36569,0.19064 2.88449,-0.41985 4.57337,0.0531 -1.17073,0.34389 -5.33427,0.55654 -5.69639,0.60197"
         id="path57"
         sodipodi:nodetypes="ccc"
         color="hooves-contour" /><path
         style="opacity:1;fill:none;fill-opacity:1;fill-rule:evenodd;stroke:#989898;stroke-width:3;stroke-linecap:round;stroke-miterlimit:100;stroke-dasharray:none;stroke-opacity:1"
         d="m 505.4338,513.05378 c 0.36569,0.19064 3.056,-0.39126 4.74488,0.0817 -1.17073,0.34389 -5.87741,0.15633 -5.72497,0.28751"
         id="path58"
         sodipodi:nodetypes="ccc"
         color="hooves-contour" /><path
         style="opacity:1;fill:none;fill-opacity:1;fill-rule:evenodd;stroke:#989898;stroke-width:3;stroke-linecap:round;stroke-miterlimit:100;stroke-dasharray:none;stroke-opacity:1"
         d="m 516.18736,520.24976 c 0.36569,0.19064 3.14176,-0.16257 4.83064,0.31036 -1.17073,0.34389 -4.4481,0.27067 -4.81022,0.3161"
         id="path59"
         sodipodi:nodetypes="ccc"
         color="hooves-contour" /><path
         style="opacity:1;fill:none;fill-opacity:1;fill-rule:evenodd;stroke:#989898;stroke-width:3;stroke-linecap:round;stroke-miterlimit:100;stroke-dasharray:none;stroke-opacity:1"
         d="m 531.30702,511.84096 c 0.36569,0.19064 3.14176,-0.16257 4.83064,0.31036 -1.17073,0.34389 -4.4481,0.27067 -4.81022,0.3161"
         id="path60"
         sodipodi:nodetypes="ccc"
         color="hooves-contour" /><path
         style="opacity:1;fill:none;fill-opacity:1;fill-rule:evenodd;stroke:#989898;stroke-width:3;stroke-linecap:round;stroke-miterlimit:100;stroke-dasharray:none;stroke-opacity:1"
         d="m 546.7501,520.33061 c 0.36569,0.19064 3.14176,-0.16257 4.83064,0.31036 -1.17073,0.34389 -4.4481,0.27067 -4.81022,0.3161"
         id="path61"
         sodipodi:nodetypes="ccc"
         color="hooves-contour" /></g></g></svg>
