<?xml version="1.0" encoding="UTF-8" standalone="no"?>
<!-- Created with Inkscape (http://www.inkscape.org/) -->

<svg
   width="1000"
   height="1000"
   viewBox="0 0 1000 1000"
   version="1.1"
   id="svg1"
   xml:space="preserve"
   sodipodi:docname="Umbrum.svg"
   inkscape:version="1.4.2 (f4327f4, 2025-05-13)"
   xmlns:inkscape="http://www.inkscape.org/namespaces/inkscape"
   xmlns:sodipodi="http://sodipodi.sourceforge.net/DTD/sodipodi-0.dtd"
   xmlns="http://www.w3.org/2000/svg"
   xmlns:svg="http://www.w3.org/2000/svg"><sodipodi:namedview
     id="namedview1"
     pagecolor="#ffffff"
     bordercolor="#000000"
     borderopacity="0.25"
     inkscape:showpageshadow="2"
     inkscape:pageopacity="0.0"
     inkscape:pagecheckerboard="0"
     inkscape:deskcolor="#d1d1d1"
     inkscape:zoom="0.54659354"
     inkscape:cx="812.30378"
     inkscape:cy="482.07668"
     inkscape:window-width="1920"
     inkscape:window-height="991"
     inkscape:window-x="-9"
     inkscape:window-y="-9"
     inkscape:window-maximized="1"
     inkscape:current-layer="g5" /><defs
     id="defs1" /><g
     id="layer2"
     style="display:inline"
     data-layer="300"><title
       id="title7">coat</title><g
       id="g5"><path
         style="display:inline;fill:#00ffff;stroke-width:0.885764"
         d="m 453.89251,605.19805 c 0,0 10.14829,21.98858 18.65093,30.22738 9.44513,9.15204 30.3943,37.8278 36.17637,53.86261 17.38031,48.19901 -8.20264,130.38034 -4.0196,139.07809 9.28049,19.29681 66.0668,9.65831 78.62331,2.73334 20.18026,-11.12949 -5.70744,-167.45796 -32.15677,-190.04661 -11.46748,-9.79363 -19.52151,1.10567 -23.47443,-4.0196 -7.70398,-9.98884 20.7837,-62.92385 13.6666,-87.78801 -9.52443,-33.27438 -87.46641,55.9528 -87.46641,55.9528 z"
         id="path5"
         color="coat" /><path
         style="display:inline;opacity:1;fill:#8aedad;fill-rule:evenodd;stroke-width:2;stroke-linecap:round;stroke-miterlimit:100"
         d="m 516.6229,728.33423 c 7.28642,3.50194 70.55365,28.72893 69.54372,18.67151 -1.43685,-14.30908 -5.95806,-26.2949 -7.08106,-33.05585 -0.52953,-3.18801 -13.00129,3.46189 -26.0608,-4.52111 -17.81992,-10.89293 -38.4067,-35.65078 -46.65413,-26.51602 6.41062,17.5815 8.85885,35.75568 10.25227,45.42147 z"
         id="path20"
         sodipodi:nodetypes="cssscc"
         color="detail-1" /><path
         style="display:inline;fill:none;stroke:#000000;stroke-width:5;stroke-linecap:round;stroke-dasharray:none;stroke-opacity:1"
         d="m 453.89251,605.19805 c 0,0 10.14829,21.98858 18.65093,30.22738 9.44513,9.15204 30.3943,37.8278 36.17637,53.86261 17.38031,48.19901 -8.20264,130.38034 -4.0196,139.07809 9.28049,19.29681 66.0668,9.65831 78.62331,2.73334 20.18026,-11.12949 -5.70744,-167.45796 -32.15677,-190.04661 -11.46748,-9.79363 -19.52151,1.10567 -23.47443,-4.0196 -7.70398,-9.98884 20.7837,-62.92385 13.6666,-87.78801"
         id="path13"
         color="coat_contour" /></g><g
       id="g4"
       style="display:inline"
       sodipodi:insensitive="true"><path
         style="display:inline;fill:#ffff00;stroke-width:0.885764"
         d="m 370.6182,604.97184 c -1.66046,33.20921 -5.09216,70.08834 -12.82192,105.84815 -13.22768,61.19456 -43.87146,104.69117 -36.05639,116.67678 15.05334,23.08663 65.21061,15.5523 86.18017,7.07448 9.41118,-3.80484 16.83872,-87.86802 16.72154,-129.9134 -0.0901,-32.36252 -14.14898,-91.9684 -14.14898,-91.9684 z"
         id="path2"
         color="coat" /><path
         style="display:inline;opacity:1;fill:#8aedad;fill-rule:evenodd;stroke-width:2;stroke-linecap:round;stroke-miterlimit:100"
         d="m 355.79059,732.73299 c -2.32868,14.44348 10.56903,26.08428 12.54404,44.7163 3.29283,31.06429 28.00185,25.73165 45.68006,26.50562 14.48166,-2.81462 4.41534,-27.4259 -8.04721,-25.82745 -14.73309,1.88967 -31.27775,-22.80731 -35.43852,-28.25337 -6.28325,-8.22419 -7.98805,-33.6044 8.92709,-19.60268 0.46471,-11.9194 -19.8158,-21.41562 -23.66546,2.46158 z"
         id="path18"
         sodipodi:nodetypes="sscsscs"
         color="detail-1" /><path
         style="display:inline;opacity:1;fill:#8aedad;fill-rule:evenodd;stroke-width:2;stroke-linecap:round;stroke-miterlimit:100"
         d="m 377.27948,627.97337 c -2.88978,12.69334 5.543,69.02038 40.15766,70.53585 -0.38313,-9.4466 -5.89384,-35.2086 -6.90377,-45.26602 -1.43685,-14.30908 -3.21379,-14.86044 -4.33679,-21.62139 -1.25209,-7.53812 -22.16678,-20.11174 -5.25164,-6.11002 0.46471,-11.9194 -18.2967,-21.12055 -23.66546,2.46158 z"
         id="path19"
         sodipodi:nodetypes="scsscs"
         color="detail-1" /><path
         style="display:inline;fill:none;stroke:#000000;stroke-width:5;stroke-linecap:round;stroke-dasharray:none;stroke-opacity:1"
         d="m 370.6182,604.97184 c -1.66046,33.20921 -5.09216,70.08834 -12.82192,105.84815 -13.22768,61.19456 -43.87146,104.69117 -36.05639,116.67678 15.05334,23.08663 65.21061,15.5523 86.18017,7.07448 9.41118,-3.80484 16.83872,-87.86802 16.72154,-129.9134 -0.0901,-32.36252 -14.14898,-91.9684 -14.14898,-91.9684"
         id="path11"
         color="coat_contour" /></g><g
       id="g3"
       sodipodi:insensitive="true"
       style="display:inline"><path
         style="display:inline;fill:#ff0000;stroke-width:0.885764"
         d="m 363.54371,485.99176 c 0,0 -11.33843,59.47199 -9.64704,89.39583 3.38553,59.89623 32.19477,65.76825 63.67044,73.31748 36.90369,8.8511 114.78269,-0.57221 153.06629,-32.15681 18.10802,-14.93942 17.2904,-104.04133 -34.72933,-113.835 -36.52354,-6.87622 -71.93896,21.07753 -85.53704,12.21956 -13.5981,-8.85796 10.29018,-123.48202 10.29018,-123.48202 z"
         id="path1"
         color="coat"
         sodipodi:nodetypes="cssssscc" /><path
         style="opacity:1;fill:#8aedad;fill-rule:evenodd;stroke-width:2;stroke-linecap:round;stroke-miterlimit:100"
         d="m 354.46313,552.39327 c 0,0 27.46808,35.16525 40.71782,23.42939 13.24974,-11.73587 8.2052,-23.4457 -6.17461,-21.46534 4.90436,-3.5652 18.86133,-8.38526 33.59014,5.48571 14.72881,13.87097 4.34417,46.61608 4.34417,46.61608 0,0 -5.93467,-25.08042 -24.53359,-14.38722 -18.59891,10.69321 -6.55196,23.45063 -1.09074,24.99434 -37.26555,11.31098 -48.14685,-38.79974 -48.14685,-38.79974 z"
         id="path6"
         sodipodi:nodetypes="czczczccc"
         color="detail-1" /><path
         style="display:inline;opacity:1;fill:#8aedad;fill-rule:evenodd;stroke-width:2;stroke-linecap:round;stroke-miterlimit:100"
         d="m 501.73893,505.512 c 17.03659,-4.27509 49.9742,-5.96383 63.78826,15.45388 13.81405,21.41771 14.73059,52.26945 14.73059,52.26945 0,0 -43.16571,-25.31126 -74.72065,-14.34569 -15.24584,5.29804 -4.37127,19.76089 -4.37127,19.76089 0,0 -19.79012,-10.88236 -9.8832,-21.80098 23.08135,-25.43845 55.88709,-5.34249 55.39276,-16.88442 -0.52065,-12.15627 -32.87743,-21.58056 -44.93649,-34.45313 z"
         id="path8"
         sodipodi:nodetypes="czcscssc"
         color="detail-1" /><path
         style="display:inline;fill:none;stroke:#000000;stroke-width:5;stroke-linecap:round;stroke-dasharray:none;stroke-opacity:1"
         d="m 363.54371,485.99176 c 0,0 -11.33843,59.47199 -9.64704,89.39583 3.38553,59.89623 32.19477,65.76825 63.67044,73.31748 36.90369,8.8511 114.78269,-0.57221 153.06629,-32.15681 18.10802,-14.93942 17.2904,-104.04133 -34.72933,-113.835 -36.52354,-6.87622 -71.93896,21.07753 -85.53704,12.21956 -13.5981,-8.85796 4.1185,-87.17802 4.1185,-87.17802 z"
         id="path9"
         color="coat_contour" /></g><g
       id="g2"
       sodipodi:insensitive="true"
       style="display:inline"><path
         style="display:inline;fill:#00ffff;stroke-width:0.885764"
         d="m 400.20244,629.41103 c -1.66046,33.20921 -5.09217,70.08834 -12.82193,105.84815 -13.22768,61.19456 -43.87145,104.69116 -36.05637,116.67678 15.05335,23.08663 65.21062,15.5523 86.18016,7.07448 9.41119,-3.80485 16.83871,-87.86802 16.72154,-129.9134 -0.09,-32.36252 -14.14898,-91.9684 -14.14898,-91.9684 z"
         id="path10"
         color="coat" /><path
         style="display:inline;opacity:1;fill:#8aedad;fill-rule:evenodd;stroke-width:2;stroke-linecap:round;stroke-miterlimit:100"
         d="m 420.40408,792.94974 c 11.56743,5.97213 36.82016,40.13572 15.66781,67.57747 -16.7117,2.39948 -50.02875,16.9199 -67.03602,1.76404 -4.69815,-8.63667 -7.01713,-31.11789 8.1993,-23.25565 14.21718,7.34593 37.55661,12.03283 43.06064,8.66468 12.42845,-7.6055 4.30612,-29.45364 2.82413,-36.14507 -2.23798,-10.10485 -23.84254,-19.33841 -16.47679,5.1882 -9.41261,-7.3274 -7.72945,-34.88889 13.76093,-23.79367 z"
         id="path16"
         sodipodi:nodetypes="sccssscs"
         color="detail-1" /><path
         style="display:inline;opacity:1;fill:#8aedad;fill-rule:evenodd;stroke-width:2;stroke-linecap:round;stroke-miterlimit:100"
         d="m 455.47681,751.21285 c -10.76578,-20.46943 -20.89445,19.22025 -43.84764,-5.54055 -4.69815,-8.63667 -13.42042,-43.92448 1.79601,-36.06224 8.73542,4.51354 18.15019,20.51511 26.91776,23.45189 5.50192,1.84293 12.9671,-9.49968 12.94123,-7.01178 -0.14677,14.11468 0.63733,14.97605 2.19264,25.16268 z"
         id="path17"
         sodipodi:nodetypes="ccsssc"
         color="detail-1" /><path
         style="display:inline;fill:none;stroke:#000000;stroke-width:5;stroke-linecap:round;stroke-dasharray:none;stroke-opacity:1"
         d="m 400.20244,629.41103 c -1.66046,33.20921 -5.09217,70.08834 -12.82193,105.84815 -13.22768,61.19456 -43.87145,104.69116 -36.05637,116.67678 15.05335,23.08663 65.21062,15.5523 86.18016,7.07448 9.41119,-3.80485 16.83871,-87.86802 16.72154,-129.9134 -0.09,-32.36252 -14.14898,-91.9684 -14.14898,-91.9684"
         id="path3"
         color="coat_contour" /></g><g
       id="g1"
       sodipodi:insensitive="true"
       style="display:inline"><path
         style="display:inline;fill:#ffff00;stroke-width:0.885764"
         d="m 493.45712,627.48158 c 0,0 10.1483,21.98858 18.65093,30.22738 9.44513,9.15203 30.3943,37.82779 36.17637,53.8626 17.38032,48.19902 -8.20264,130.38035 -4.01959,139.07809 9.28048,19.29682 66.0668,9.65832 78.62331,2.73335 20.18025,-11.12949 -5.70745,-167.45796 -32.15677,-190.04661 -11.46749,-9.79363 -19.52152,1.10567 -23.47443,-4.0196 -7.70399,-9.98884 20.78369,-62.92385 13.6666,-87.78801 -9.52444,-33.27438 -87.46642,55.9528 -87.46642,55.9528 z"
         id="path4"
         color="coat" /><path
         style="display:inline;opacity:1;fill:#8aedad;fill-rule:evenodd;stroke-width:2;stroke-linecap:round;stroke-miterlimit:100"
         d="m 580.94385,583.29765 c 0,0 4.28902,-23.64149 -13.72888,-22.01484 -2.99931,0.27078 -23.37763,-2.68505 -18.23109,-1.43036 6.59255,1.60722 12.79868,4.85628 12.73357,6.38032 -0.13112,3.06912 -9.51695,9.95397 -14.77993,11.0352 -25.18195,5.1734 -10.4013,30.02191 5.0185,37.23528 -6.18405,-55.74483 33.43525,-1.01679 28.98783,-31.2056 z"
         id="path14"
         sodipodi:nodetypes="csssscc"
         color="detail-1" /><path
         style="display:inline;opacity:1;fill:#8aedad;fill-rule:evenodd;stroke-width:2;stroke-linecap:round;stroke-miterlimit:100"
         d="m 580.46232,792.22343 c -4.49251,-12.21839 1.71163,-61.8672 35.84673,-67.80576 4.67347,12.21533 5.27085,13.24666 7.56858,35.9109 -12.62171,0.68802 -17.03917,-5.31629 -30.74069,14.76406 -5.83338,8.54916 4.14275,24.54492 15.28431,1.48685 1.98825,11.76159 -19.61258,38.3437 -27.95893,15.64395 z"
         id="path15"
         sodipodi:nodetypes="sccscs"
         color="detail-1" /><path
         style="display:inline;opacity:1;fill:#8aedad;fill-rule:evenodd;stroke-width:2;stroke-linecap:round;stroke-miterlimit:100"
         d="m 552.26855,797.44098 c 2.8774,4.78472 10.71783,19.601 13.68431,39.99047 0.99269,6.82309 12.10252,-1.06443 23.1651,-12.24329 11.60925,22.72598 31.76585,21.11717 30.79882,28.53829 -10.65929,9.50486 -52.81965,17.73082 -69.9407,3.10638 -10.62792,-9.07815 2.29247,-59.39185 2.29247,-59.39185 z"
         id="path7"
         sodipodi:nodetypes="cscccc"
         color="detail-1" /><path
         style="display:inline;fill:none;stroke:#000000;stroke-width:5;stroke-linecap:round;stroke-dasharray:none;stroke-opacity:1"
         d="m 493.45712,627.48158 c 0,0 10.1483,21.98858 18.65093,30.22738 9.44513,9.15203 30.3943,37.82779 36.17637,53.8626 17.38032,48.19902 -8.20264,130.38035 -4.01959,139.07809 9.28048,19.29682 66.0668,9.65832 78.62331,2.73335 20.18025,-11.12949 -5.70745,-167.45796 -32.15677,-190.04661 -11.46749,-9.79363 -19.52152,1.10567 -23.47443,-4.0196 -7.34158,-9.51894 18.0187,-62.32447 14.26175,-88.78923 -0.18545,-1.30641 -0.55621,-4.4925 -0.89101,-5.66216"
         id="path12"
         color="coat_contour"
         sodipodi:nodetypes="csssssssc" /></g></g></svg>
