<?xml version="1.0" encoding="UTF-8" standalone="no"?>
<!-- Created with Inkscape (http://www.inkscape.org/) -->

<svg
   width="1000"
   height="1000"
   viewBox="0 0 1000 1000"
   version="1.1"
   id="svg1"
   xml:space="preserve"
   xmlns="http://www.w3.org/2000/svg"
   xmlns:svg="http://www.w3.org/2000/svg"><defs
     id="defs1" /><g
     id="layer2"
     style="display:inline"
     data-layer="300"><title
       id="title7">coat</title><g
       id="g29"
       style="display:inline"
       transform="translate(0.23049,0.04074)"><path
         style="display:inline;fill:#00ff23;fill-opacity:1;stroke:none;stroke-width:5;stroke-dasharray:none;stroke-opacity:1"
         d="m 453.89251,605.19805 c 0,0 9.28448,23.00691 15.67797,32.97165 21.92469,42.64712 62.67211,74.8931 84.4726,116.55986 14.30048,32.452 11.2324,41.39372 11.80405,41.22062 5.12958,-1.55325 -19.43377,-30.83034 -34.09252,-25.28448 -20.25105,7.66162 -36.4723,70.38216 -18.5178,75.5589 33.39687,9.62915 72.18141,-1.09636 83.30499,-8.87959 5.96008,-4.17029 12.97954,-21.82872 11.83306,-32.72837 -4.27184,-40.61264 -15.43929,-103.87654 -32.95197,-127.9881 -4.99917,-6.88289 -14.4562,4.30657 -19.91686,0.83163 -31.96012,-20.33813 -7.03001,-103.35076 -14.14711,-128.21492 -9.52443,-33.27438 -87.46641,55.9528 -87.46641,55.9528 z"
         id="path27"
         color="coat" /><path
         style="display:inline;fill:none;fill-opacity:1;stroke:#000000;stroke-width:5;stroke-linecap:round;stroke-dasharray:none;stroke-opacity:1"
         d="m 453.89251,605.19805 c 0,0 9.28448,23.00691 15.67797,32.97165 21.92469,42.64712 62.67211,74.8931 84.4726,116.55986 14.30048,32.452 12.25498,41.61229 11.80405,41.22062 -1.78827,-1.55325 -19.43377,-30.83034 -34.09252,-25.28448 -20.25105,7.66162 -36.4723,70.38216 -18.5178,75.5589 33.39687,9.62915 72.18141,-1.09636 83.30499,-8.87959 5.96008,-4.17029 12.97954,-21.82872 11.83306,-32.72837 -4.27184,-40.61264 -15.43929,-103.87654 -32.95197,-127.9881 -4.99917,-6.88289 -14.4562,4.30657 -19.91686,0.83163 -31.96012,-20.33813 -6.97284,-108.32475 -14.08994,-133.18891"
         id="path28"
         color="coat-contour" /><path
         style="fill:none;fill-rule:evenodd;stroke:#000000;stroke-width:3;stroke-linecap:round;stroke-opacity:1"
         d="m 517.52362,845.59151 c 0,0 4.92593,-43.41369 22.11263,-52.66187 10.85348,-5.84026 25.9121,3.95109 25.9121,3.95109"
         id="path29"
         color="coat-contour" /></g><g
       id="g26"
       style="display:inline"
       transform="translate(-10.239019,0.13716)"><path
         style="display:inline;fill:#ff8200;fill-opacity:1;stroke:none;stroke-width:5;stroke-linecap:round;stroke-dasharray:none;stroke-opacity:1"
         d="m 370.82918,606.40484 c -3.43037,67.15995 9.03814,128.86701 -18.08722,192.28265 -11.25533,-9.74585 -21.91122,-19.58846 -28.62774,-15.97796 -23.31511,12.53318 -28.22052,55.86047 -21.8306,56.73994 44.78294,6.16365 78.93196,4.57522 109.96382,-0.24357 10.03101,-1.55767 12.72231,-91.06967 12.60514,-133.11505 -0.09,-32.36252 -14.14898,-91.9684 -14.14898,-91.9684"
         id="path23"
         color="coat" /><path
         style="fill:none;fill-opacity:1;fill-rule:evenodd;stroke:#000000;stroke-width:3;stroke-linecap:round;stroke-opacity:1"
         d="m 313.67332,840.78008 c 0,0 9.25717,-35.88912 20.64228,-43.78387 6.15047,-4.26491 18.69225,2.99397 18.69225,2.99397"
         id="path25"
         color="coat-contour" /><path
         style="display:inline;fill:none;stroke:#000000;stroke-width:5;stroke-linecap:round;stroke-dasharray:none;stroke-opacity:1"
         d="m 370.82918,606.40484 c -3.43037,67.15995 9.03814,128.86701 -18.08722,192.28265 -11.25533,-9.74585 -21.91122,-19.58846 -28.62774,-15.97796 -23.31511,12.53318 -28.22052,55.86047 -21.8306,56.73994 44.78294,6.16365 78.93196,4.57522 109.96382,-0.24357 10.03101,-1.55767 12.72231,-91.06967 12.60514,-133.11505 -0.09,-32.36252 -14.14898,-91.9684 -14.14898,-91.9684"
         id="path26"
         color="coat_contour" /></g><g
       id="g3"
       style="display:inline"><path
         style="display:inline;fill:#ff0000;stroke-width:0.885764"
         d="m 363.54371,485.99176 c 0,0 -11.33843,59.47199 -9.64704,89.39583 3.38553,59.89623 32.19477,65.76825 63.67044,73.31748 36.90369,8.8511 114.78269,-0.57221 153.06629,-32.15681 18.10802,-14.93942 17.2904,-104.04133 -34.72933,-113.835 -36.52354,-6.87622 -71.93896,21.07753 -85.53704,12.21956 -13.5981,-8.85796 10.29018,-123.48202 10.29018,-123.48202 z"
         id="path1"
         color="coat" /><path
         style="display:inline;fill:none;stroke:#000000;stroke-width:5;stroke-linecap:round;stroke-dasharray:none;stroke-opacity:1"
         d="m 363.54371,485.99176 c 0,0 -11.33843,59.47199 -9.64704,89.39583 3.38553,59.89623 32.19477,65.76825 63.67044,73.31748 36.90369,8.8511 114.78269,-0.57221 153.06629,-32.15681 18.10802,-14.93942 17.2904,-104.04133 -34.72933,-113.835 -36.52354,-6.87622 -71.93896,21.07753 -85.53704,12.21956 -13.5981,-8.85796 4.1185,-87.17802 4.1185,-87.17802 z"
         id="path9"
         color="coat_contour" /></g><g
       id="g18"
       style="display:inline"
       transform="translate(29.589056,22.064004)"><path
         style="display:inline;fill:#ff8200;fill-opacity:1;stroke:none;stroke-width:5;stroke-linecap:round;stroke-dasharray:none;stroke-opacity:1"
         d="m 370.82918,606.40484 c -3.43037,67.15995 9.03814,128.86701 -18.08722,192.28265 -11.25533,-9.74585 -21.91122,-19.58846 -28.62774,-15.97796 -23.31511,12.53318 -28.22052,55.86047 -21.8306,56.73994 44.78294,6.16365 78.93196,4.57522 109.96382,-0.24357 10.03101,-1.55767 12.72231,-91.06967 12.60514,-133.11505 -0.09,-32.36252 -14.14898,-91.9684 -14.14898,-91.9684"
         id="path20"
         color="coat" /><path
         style="fill:none;fill-opacity:1;fill-rule:evenodd;stroke:#000000;stroke-width:3;stroke-linecap:round;stroke-opacity:1"
         d="m 313.67332,840.78008 c 0,0 9.25717,-35.88912 20.64228,-43.78387 6.15047,-4.26491 18.69225,2.99397 18.69225,2.99397"
         id="path21"
         color="coat-contour" /><path
         style="display:inline;fill:none;stroke:#000000;stroke-width:5;stroke-linecap:round;stroke-dasharray:none;stroke-opacity:1"
         d="m 370.82918,606.40484 c -3.43037,67.15995 9.03814,128.86701 -18.08722,192.28265 -11.25533,-9.74585 -21.91122,-19.58846 -28.62774,-15.97796 -23.31511,12.53318 -28.22052,55.86047 -21.8306,56.73994 44.78294,6.16365 78.93196,4.57522 109.96382,-0.24357 10.03101,-1.55767 12.72231,-91.06967 12.60514,-133.11505 -0.09,-32.36252 -14.14898,-91.9684 -14.14898,-91.9684"
         id="path22"
         color="coat_contour" /></g><g
       id="g25"
       style="display:inline"
       transform="translate(39.3344,22.283734)"><path
         style="display:inline;fill:#00ff23;fill-opacity:1;stroke:none;stroke-width:5;stroke-dasharray:none;stroke-opacity:1"
         d="m 453.89251,605.19805 c 0,0 9.28448,23.00691 15.67797,32.97165 21.92469,42.64712 62.67211,74.8931 84.4726,116.55986 14.30048,32.452 11.2324,41.39372 11.80405,41.22062 5.12958,-1.55325 -19.43377,-30.83034 -34.09252,-25.28448 -20.25105,7.66162 -36.4723,70.38216 -18.5178,75.5589 33.39687,9.62915 72.18141,-1.09636 83.30499,-8.87959 5.96008,-4.17029 12.97954,-21.82872 11.83306,-32.72837 -4.27184,-40.61264 -15.43929,-103.87654 -32.95197,-127.9881 -4.99917,-6.88289 -14.4562,4.30657 -19.91686,0.83163 -31.96012,-20.33813 -7.03001,-103.35076 -14.14711,-128.21492 -9.52443,-33.27438 -87.46641,55.9528 -87.46641,55.9528 z"
         id="path24"
         color="coat" /><path
         style="display:inline;fill:none;fill-opacity:1;stroke:#000000;stroke-width:5;stroke-linecap:round;stroke-dasharray:none;stroke-opacity:1"
         d="m 453.89251,605.19805 c 0,0 9.28448,23.00691 15.67797,32.97165 21.92469,42.64712 62.67211,74.8931 84.4726,116.55986 14.30048,32.452 12.25498,41.61229 11.80405,41.22062 -1.78827,-1.55325 -19.43377,-30.83034 -34.09252,-25.28448 -20.25105,7.66162 -36.4723,70.38216 -18.5178,75.5589 33.39687,9.62915 72.18141,-1.09636 83.30499,-8.87959 5.96008,-4.17029 12.97954,-21.82872 11.83306,-32.72837 -4.27184,-40.61264 -15.43929,-103.87654 -32.95197,-127.9881 -4.99917,-6.88289 -14.4562,4.30657 -19.91686,0.83163 -31.96012,-20.33813 -6.97284,-108.32475 -14.08994,-133.18891"
         id="path6"
         color="coat-contour" /><path
         style="fill:none;fill-rule:evenodd;stroke:#000000;stroke-width:3;stroke-linecap:round;stroke-opacity:1"
         d="m 517.52362,845.59151 c 0,0 4.92593,-43.41369 22.11263,-52.66187 10.85348,-5.84026 25.9121,3.95109 25.9121,3.95109"
         id="path7"
         color="coat-contour" /></g></g></svg>
