<?xml version="1.0" encoding="UTF-8" standalone="no"?>
<!-- Created with Inkscape (http://www.inkscape.org/) -->

<svg
   width="1000"
   height="1000"
   viewBox="0 0 1000 1000"
   version="1.1"
   id="svg1"
   xml:space="preserve"
   xmlns="http://www.w3.org/2000/svg"
   xmlns:svg="http://www.w3.org/2000/svg"><defs
     id="defs1" /><g
     id="layer2"
     style="display:inline"
     data-layer="300"><title
       id="title7">coat</title><g
       id="g19"
       style="display:inline"
       transform="translate(1.9342163,1.57016)"><g
         id="g17"><path
           style="display:inline;fill:#ffff00;stroke:none;stroke-width:5;stroke-dasharray:none;stroke-opacity:1"
           d="m 375.17121,692.62819 c -13.63845,25.7901 -9.12916,41.88371 -19.27439,82.38882 -4.53574,18.10904 -12.56476,31.44836 -23.78668,33.04477 -8.1302,1.15658 -22.84553,-6.68343 -31.40965,-5.03475 -10.43841,2.00951 -12.41789,32.53758 -12.99835,40.49755 21.71606,3.45707 70.04469,3.84859 112.40915,3.34201 5.7826,-0.0691 11.22539,-4.50011 16.70291,-4.59721 6.98148,-0.12376 13.87655,4.07935 20.05628,3.93054 3.64241,-2.94517 -1.39149,-29.79799 -24.8754,-31.38844 -15.78502,-1.06904 4.52498,-91.70988 1.82547,-96.94941 -18.64579,-36.18991 -31.75037,-38.27974 -38.64934,-25.23388 z"
           id="path12"
           color="hooves" /><path
           style="fill:none;fill-opacity:1;fill-rule:evenodd;stroke:#000000;stroke-width:3;stroke-linecap:round;stroke-dasharray:none;stroke-opacity:1"
           d="m 328.20419,808.32444 c 0,0 -18.1213,3.27328 -22.23864,7.53936 -4.27889,4.43346 -4.26422,27.60982 -4.26422,27.60982 l 6.47443,2.06386 8.6447,0.33906 c 0,0 -0.93841,-24.75354 2.76976,-27.11423 4.72695,-3.00927 14.8061,-3.97096 18.67768,-4.71518"
           id="path13"
           color="hooves-contour" /><path
           style="display:inline;fill:none;stroke:#000000;stroke-width:5;stroke-dasharray:none;stroke-opacity:1"
           d="m 375.17121,692.62819 c -13.63845,25.7901 -9.12916,41.88371 -19.27439,82.38882 -4.53574,18.10904 -12.56476,31.44836 -23.78668,33.04477 -8.1302,1.15658 -22.84553,-6.68343 -31.40965,-5.03475 -10.43841,2.00951 -12.41789,32.53758 -12.99835,40.49755 21.71606,3.45707 70.04469,3.84859 112.40915,3.34201 5.7826,-0.0691 11.22539,-4.50011 16.70291,-4.59721 6.98148,-0.12376 13.87655,4.07935 20.05628,3.93054 3.64241,-2.94517 -1.39149,-29.79799 -24.8754,-31.38844 -15.78502,-1.06904 4.52498,-91.70988 1.82547,-96.94941 -18.64579,-36.18991 -31.75037,-38.27974 -38.64934,-25.23388 z"
           id="path14"
           color="hooves-contour" /><path
           style="fill:none;fill-opacity:1;fill-rule:evenodd;stroke:#000000;stroke-width:3;stroke-linecap:round;stroke-dasharray:none;stroke-opacity:1"
           d="m 408.70277,758.6989 c 0,0 -9.65981,-4.95954 -26.35505,-5.26724 -6.16049,-0.11354 -21.18722,4.05484 -21.18722,4.05484 l -5.18871,19.67293 c 4.1258,-1.71277 17.23494,-5.46621 28.56614,-3.90626 12.62303,1.73779 19.37988,5.63398 22.5654,8.09141"
           id="path16"
           color="hooves-contour" /></g><path
         style="display:inline;fill:#ff8200;fill-opacity:1;stroke:none;stroke-width:5;stroke-dasharray:none;stroke-opacity:1"
         d="m 370.6182,604.97184 c -1.66046,33.20921 -5.09217,70.08834 -12.82192,105.84815 -0.9005,4.16595 -2.98712,20.18982 9.03682,10.11924 3.00025,12.55572 12.33364,27.70389 20.46883,11.27308 3.16869,8.39126 15.85913,28.84225 20.12068,8.58338 9.99821,21.35896 16.11499,7.79806 16.60213,-7.97373 0.42865,-10.27404 0.63978,-19.94225 0.61686,-28.16411 -0.0902,-32.36252 -14.14898,-91.9684 -14.14898,-91.9684 z"
         id="path18"
         color="coat" /><path
         style="display:inline;fill:none;fill-opacity:1;stroke:#000000;stroke-width:5;stroke-linecap:round;stroke-dasharray:none;stroke-opacity:1"
         d="m 370.6182,604.97184 c -1.66046,33.20921 -5.09217,70.08834 -12.82192,105.84815 -0.9005,4.16595 -2.98712,20.18982 9.03682,10.11924 3.00025,12.55572 12.33364,27.70389 20.46883,11.27308 3.16869,8.39126 15.85913,28.84225 20.12068,8.58338 9.99821,21.35896 16.11499,7.79806 16.60213,-7.97373 0.42865,-10.27404 0.63978,-19.94225 0.61686,-28.16411 -0.0902,-32.36252 -14.14898,-91.9684 -14.14898,-91.9684"
         id="path19"
         color="coat-contour" /></g><g
       id="g11"
       style="display:inline"
       transform="translate(0.23049,0.04074)"><path
         style="display:inline;fill:#00ff23;fill-opacity:1;stroke:none;stroke-width:5;stroke-dasharray:none;stroke-opacity:1"
         d="m 453.89251,605.19805 c 0,0 9.28448,23.00691 15.67797,32.97165 21.92469,42.64712 62.67211,74.8931 84.4726,116.55986 14.30048,32.452 11.2324,41.39372 11.80405,41.22062 5.12958,-1.55325 -19.43377,-30.83034 -34.09252,-25.28448 -20.25105,7.66162 -36.4723,70.38216 -18.5178,75.5589 33.39687,9.62915 72.18141,-1.09636 83.30499,-8.87959 5.96008,-4.17029 12.97954,-21.82872 11.83306,-32.72837 -4.27184,-40.61264 -15.43929,-103.87654 -32.95197,-127.9881 -4.99917,-6.88289 -14.4562,4.30657 -19.91686,0.83163 -31.96012,-20.33813 -7.03001,-103.35076 -14.14711,-128.21492 -9.52443,-33.27438 -87.46641,55.9528 -87.46641,55.9528 z"
         id="path8"
         color="coat" /><path
         style="display:inline;fill:none;fill-opacity:1;stroke:#000000;stroke-width:5;stroke-linecap:round;stroke-dasharray:none;stroke-opacity:1"
         d="m 453.89251,605.19805 c 0,0 9.28448,23.00691 15.67797,32.97165 21.92469,42.64712 62.67211,74.8931 84.4726,116.55986 14.30048,32.452 12.25498,41.61229 11.80405,41.22062 -1.78827,-1.55325 -19.43377,-30.83034 -34.09252,-25.28448 -20.25105,7.66162 -36.4723,70.38216 -18.5178,75.5589 33.39687,9.62915 72.18141,-1.09636 83.30499,-8.87959 5.96008,-4.17029 12.97954,-21.82872 11.83306,-32.72837 -4.27184,-40.61264 -15.43929,-103.87654 -32.95197,-127.9881 -4.99917,-6.88289 -14.4562,4.30657 -19.91686,0.83163 -31.96012,-20.33813 -6.97284,-108.32475 -14.08994,-133.18891"
         id="path10"
         color="coat-contour" /><path
         style="fill:none;fill-rule:evenodd;stroke:#000000;stroke-width:3;stroke-linecap:round;stroke-opacity:1"
         d="m 517.52362,845.59151 c 0,0 4.92593,-43.41369 22.11263,-52.66187 10.85348,-5.84026 25.9121,3.95109 25.9121,3.95109"
         id="path11"
         color="coat-contour" /></g><g
       id="g3"
       style="display:inline"><path
         style="display:inline;fill:#ff0000;stroke-width:0.885764"
         d="m 363.54371,485.99176 c 0,0 -11.33843,59.47199 -9.64704,89.39583 3.38553,59.89623 32.19477,65.76825 63.67044,73.31748 36.90369,8.8511 114.78269,-0.57221 153.06629,-32.15681 18.10802,-14.93942 17.2904,-104.04133 -34.72933,-113.835 -36.52354,-6.87622 -71.93896,21.07753 -85.53704,12.21956 -13.5981,-8.85796 10.29018,-123.48202 10.29018,-123.48202 z"
         id="path1"
         color="coat" /><path
         style="display:inline;fill:none;stroke:#000000;stroke-width:5;stroke-linecap:round;stroke-dasharray:none;stroke-opacity:1"
         d="m 363.54371,485.99176 c 0,0 -11.33843,59.47199 -9.64704,89.39583 3.38553,59.89623 32.19477,65.76825 63.67044,73.31748 36.90369,8.8511 114.78269,-0.57221 153.06629,-32.15681 18.10802,-14.93942 17.2904,-104.04133 -34.72933,-113.835 -36.52354,-6.87622 -71.93896,21.07753 -85.53704,12.21956 -13.5981,-8.85796 4.1185,-87.17802 4.1185,-87.17802 z"
         id="path9"
         color="coat_contour" /></g><g
       id="g18"
       style="display:inline"
       transform="translate(29.589056,22.064004)"><g
         id="g16"><path
           style="display:inline;fill:#ffff00;stroke:none;stroke-width:5;stroke-dasharray:none;stroke-opacity:1"
           d="m 375.17121,692.62819 c -13.63845,25.7901 -9.12916,41.88371 -19.27439,82.38882 -4.53574,18.10904 -12.56476,31.44836 -23.78668,33.04477 -8.1302,1.15658 -22.84553,-6.68343 -31.40965,-5.03475 -10.43841,2.00951 -12.41789,32.53758 -12.99835,40.49755 21.71606,3.45707 70.04469,3.84859 112.40915,3.34201 5.7826,-0.0691 11.22539,-4.50011 16.70291,-4.59721 6.98148,-0.12376 13.87655,4.07935 20.05628,3.93054 3.64241,-2.94517 -1.39149,-29.79799 -24.8754,-31.38844 -15.78502,-1.06904 4.52498,-91.70988 1.82547,-96.94941 -18.64579,-36.18991 -31.75037,-38.27974 -38.64934,-25.23388 z"
           id="path15"
           color="hooves" /><path
           style="fill:none;fill-opacity:1;fill-rule:evenodd;stroke:#000000;stroke-width:3;stroke-linecap:round;stroke-dasharray:none;stroke-opacity:1"
           d="m 328.20419,808.32444 c 0,0 -18.1213,3.27328 -22.23864,7.53936 -4.27889,4.43346 -4.26422,27.60982 -4.26422,27.60982 l 6.47443,2.06386 8.6447,0.33906 c 0,0 -0.93841,-24.75354 2.76976,-27.11423 4.72695,-3.00927 14.8061,-3.97096 18.67768,-4.71518"
           id="path36"
           color="hooves-contour" /><path
           style="display:inline;fill:none;stroke:#000000;stroke-width:5;stroke-dasharray:none;stroke-opacity:1"
           d="m 375.17121,692.62819 c -13.63845,25.7901 -9.12916,41.88371 -19.27439,82.38882 -4.53574,18.10904 -12.56476,31.44836 -23.78668,33.04477 -8.1302,1.15658 -22.84553,-6.68343 -31.40965,-5.03475 -10.43841,2.00951 -12.41789,32.53758 -12.99835,40.49755 21.71606,3.45707 70.04469,3.84859 112.40915,3.34201 5.7826,-0.0691 11.22539,-4.50011 16.70291,-4.59721 6.98148,-0.12376 13.87655,4.07935 20.05628,3.93054 3.64241,-2.94517 -1.39149,-29.79799 -24.8754,-31.38844 -15.78502,-1.06904 4.52498,-91.70988 1.82547,-96.94941 -18.64579,-36.18991 -31.75037,-38.27974 -38.64934,-25.23388 z"
           id="path2"
           color="hooves-contour" /><path
           style="fill:none;fill-opacity:1;fill-rule:evenodd;stroke:#000000;stroke-width:3;stroke-linecap:round;stroke-dasharray:none;stroke-opacity:1"
           d="m 408.70277,758.6989 c 0,0 -9.65981,-4.95954 -26.35505,-5.26724 -6.16049,-0.11354 -21.18722,4.05484 -21.18722,4.05484 l -5.18871,19.67293 c 4.1258,-1.71277 17.23494,-5.46621 28.56614,-3.90626 12.62303,1.73779 19.37988,5.63398 22.5654,8.09141"
           id="path4"
           color="hooves-contour" /></g><path
         style="display:inline;fill:#ff8200;fill-opacity:1;stroke:none;stroke-width:5;stroke-dasharray:none;stroke-opacity:1"
         d="m 370.6182,604.97184 c -1.66046,33.20921 -5.09217,70.08834 -12.82192,105.84815 -0.9005,4.16595 -2.98712,20.18982 9.03682,10.11924 3.00025,12.55572 12.33364,27.70389 20.46883,11.27308 3.16869,8.39126 15.85913,28.84225 20.12068,8.58338 9.99821,21.35896 16.11499,7.79806 16.60213,-7.97373 0.42865,-10.27404 0.63978,-19.94225 0.61686,-28.16411 -0.0902,-32.36252 -14.14898,-91.9684 -14.14898,-91.9684 z"
         id="path17"
         color="coat" /><path
         style="display:inline;fill:none;fill-opacity:1;stroke:#000000;stroke-width:5;stroke-linecap:round;stroke-dasharray:none;stroke-opacity:1"
         d="m 370.6182,604.97184 c -1.66046,33.20921 -5.09217,70.08834 -12.82192,105.84815 -0.9005,4.16595 -2.98712,20.18982 9.03682,10.11924 3.00025,12.55572 12.33364,27.70389 20.46883,11.27308 3.16869,8.39126 15.85913,28.84225 20.12068,8.58338 9.99821,21.35896 16.11499,7.79806 16.60213,-7.97373 0.42865,-10.27404 0.63978,-19.94225 0.61686,-28.16411 -0.0902,-32.36252 -14.14898,-91.9684 -14.14898,-91.9684"
         id="path5"
         color="coat-contour" /></g><g
       id="g25"
       style="display:inline"
       transform="translate(39.3344,22.283734)"><path
         style="display:inline;fill:#00ff23;fill-opacity:1;stroke:none;stroke-width:5;stroke-dasharray:none;stroke-opacity:1"
         d="m 453.89251,605.19805 c 0,0 9.28448,23.00691 15.67797,32.97165 21.92469,42.64712 62.67211,74.8931 84.4726,116.55986 14.30048,32.452 11.2324,41.39372 11.80405,41.22062 5.12958,-1.55325 -19.43377,-30.83034 -34.09252,-25.28448 -20.25105,7.66162 -36.4723,70.38216 -18.5178,75.5589 33.39687,9.62915 72.18141,-1.09636 83.30499,-8.87959 5.96008,-4.17029 12.97954,-21.82872 11.83306,-32.72837 -4.27184,-40.61264 -15.43929,-103.87654 -32.95197,-127.9881 -4.99917,-6.88289 -14.4562,4.30657 -19.91686,0.83163 -31.96012,-20.33813 -7.03001,-103.35076 -14.14711,-128.21492 -9.52443,-33.27438 -87.46641,55.9528 -87.46641,55.9528 z"
         id="path24"
         color="coat" /><path
         style="display:inline;fill:none;fill-opacity:1;stroke:#000000;stroke-width:5;stroke-linecap:round;stroke-dasharray:none;stroke-opacity:1"
         d="m 453.89251,605.19805 c 0,0 9.28448,23.00691 15.67797,32.97165 21.92469,42.64712 62.67211,74.8931 84.4726,116.55986 14.30048,32.452 12.25498,41.61229 11.80405,41.22062 -1.78827,-1.55325 -19.43377,-30.83034 -34.09252,-25.28448 -20.25105,7.66162 -36.4723,70.38216 -18.5178,75.5589 33.39687,9.62915 72.18141,-1.09636 83.30499,-8.87959 5.96008,-4.17029 12.97954,-21.82872 11.83306,-32.72837 -4.27184,-40.61264 -15.43929,-103.87654 -32.95197,-127.9881 -4.99917,-6.88289 -14.4562,4.30657 -19.91686,0.83163 -31.96012,-20.33813 -6.97284,-108.32475 -14.08994,-133.18891"
         id="path6"
         color="coat-contour" /><path
         style="fill:none;fill-rule:evenodd;stroke:#000000;stroke-width:3;stroke-linecap:round;stroke-opacity:1"
         d="m 517.52362,845.59151 c 0,0 4.92593,-43.41369 22.11263,-52.66187 10.85348,-5.84026 25.9121,3.95109 25.9121,3.95109"
         id="path7"
         color="coat-contour" /></g></g></svg>
