<?xml version="1.0" encoding="UTF-8" standalone="no"?>
<!-- Created with Inkscape (http://www.inkscape.org/) -->

<svg
   width="1000"
   height="1000"
   viewBox="0 0 1000 1000"
   version="1.1"
   id="svg1"
   xml:space="preserve"
   xmlns="http://www.w3.org/2000/svg"
   xmlns:svg="http://www.w3.org/2000/svg"><defs
     id="defs1" /><g
     id="layer2"
     style="display:inline"
     data-layer="300"><title
       id="title7">coat</title><g
       id="g26"
       style="display:inline"
       transform="translate(3.9967053e-4,-2.6581778e-4)"><g
         id="g21"
         style="display:inline"><path
           style="display:inline;fill:#00ffff;stroke-width:0.885764"
           d="m 509.33122,789.42339 c -2.52959,20.26657 -6.30731,35.45724 -4.63101,38.94274 9.28048,19.29681 66.0668,9.6583 78.62331,2.73334 5.87736,-3.24139 13.08375,-19.23103 7.09411,-39.35723 -0.0208,-0.07 0.22803,-0.62552 -0.12311,-0.63439 -45.19375,-1.14215 -47.58525,-1.24092 -72.0018,-1.11228 -2.06307,0.0109 -8.92818,-0.83912 -8.9615,-0.57218 z"
           id="path20"
           color="hooves" /><path
           style="display:inline;fill:none;stroke:#f11414;stroke-width:5;stroke-linecap:round;stroke-dasharray:none;stroke-opacity:1"
           d="m 508.94737,791.82133 c -3.06043,18.97776 -5.85637,33.19879 -4.24716,36.5448 9.28048,19.29681 66.0668,9.6583 78.62331,2.73334 5.62194,-3.10052 7.66853,-17.46995 7.12369,-37.07733"
           id="path21"
           color="hooves-contour" /></g><path
         style="display:inline;fill:#00ff23;fill-opacity:1;stroke:none;stroke-width:5;stroke-dasharray:none;stroke-opacity:1"
         d="m 453.89251,605.19805 c 0,0 10.14829,21.98858 18.65093,30.22738 9.44513,9.15204 30.3943,37.8278 36.17637,53.86261 10.66214,29.5682 5.15573,71.9251 0.27152,102.26047 -0.10694,0.66421 -1.80289,9.14856 -1.23124,8.97546 5.02106,-1.52039 11.32411,-3.48761 19.80788,-13.13574 2.6136,6.34531 13.0799,17.73905 25.40485,25.41117 15.2909,9.51838 32.9195,14.26754 35.79355,7.85131 0.32192,-0.71868 0.37981,-1.57685 0.52699,-2.45063 6.7829,-40.26943 -15.46573,-157.79404 -38.12661,-177.14722 -11.46748,-9.79363 -19.52151,1.10567 -23.47443,-4.0196 -7.70398,-9.98884 20.7837,-62.92385 13.6666,-87.78801 -9.52443,-33.27438 -87.46641,55.9528 -87.46641,55.9528 z"
         id="path25"
         color="coat" /><path
         style="display:inline;fill:none;fill-opacity:1;stroke:#000000;stroke-width:5;stroke-dasharray:none;stroke-opacity:1"
         d="m 453.89251,605.19805 c 0,0 10.14829,21.98858 18.65093,30.22738 9.44513,9.15204 30.3943,37.8278 36.17637,53.86261 10.66214,29.5682 5.15573,71.9251 0.27152,102.26047 -0.10694,0.66421 -1.80289,9.14856 -1.23124,8.97546 5.02106,-1.52039 11.32411,-3.48761 19.80788,-13.13574 2.6136,6.34531 13.0799,17.73905 25.40485,25.41117 15.2909,9.51838 32.9195,14.26754 35.79355,7.85131 0.32192,-0.71868 0.37981,-1.57685 0.52699,-2.45063 6.7829,-40.26943 -15.46573,-157.79404 -38.12661,-177.14722 -11.46748,-9.79363 -19.52151,1.10567 -23.47443,-4.0196 -7.70398,-9.98884 21.58411,-65.78246 13.6666,-93.1622"
         id="path26"
         color="coat-contour" /><g
         id="g32"
         style="display:inline"
         transform="translate(3.4349055,-1.6487297)"><path
           style="fill:#f700ff;fill-opacity:1;fill-rule:evenodd;stroke:none;stroke-width:5;stroke-linecap:round;stroke-dasharray:none;stroke-opacity:1"
           d="m 574.50778,726.74602 c 0,0 5.77525,-14.59542 16.17076,-30.72444 12.06187,-18.71444 30.30364,-34.41681 32.01812,-26.19664 1.36647,6.55162 8.08727,43.45658 3.88097,53.36351 -5.93028,13.96738 -21.602,29.58135 -22.63907,31.12873 2.79545,-0.82186 3.10919,-1.24822 10.18759,-4.12355 4.83821,-1.96534 15.36222,-3.07244 15.36222,-3.07244 0,0 -5.80129,22.90481 -13.58344,32.17981 -5.2283,6.23126 -15.32282,8.44947 -16.9793,13.26003 3.24102,-1.00215 16.33247,-1.77878 16.33247,-1.77878 0,0 -5.73123,14.47142 -12.7749,18.59638 -7.27753,4.2619 -26.03493,3.71927 -26.03493,3.71927 z"
           id="path31"
           color="coat" /><path
           style="fill:none;fill-rule:evenodd;stroke:#000000;stroke-width:5;stroke-linecap:round;stroke-dasharray:none;stroke-opacity:1"
           d="m 576.75147,721.38945 c 0,0 -1.95807,3.13269 -1.81587,4.31535 1.51216,-3.60844 6.98965,-16.10216 15.74294,-29.68322 12.06187,-18.71444 30.30364,-34.41681 32.01812,-26.19664 1.36647,6.55162 8.08727,43.45658 3.88097,53.36351 -5.93028,13.96738 -21.602,29.58135 -22.63907,31.12873 2.79545,-0.82186 3.10919,-1.24822 10.18759,-4.12355 4.83821,-1.96534 15.36222,-3.07244 15.36222,-3.07244 0,0 -5.80129,22.90481 -13.58344,32.17981 -5.2283,6.23126 -15.32282,8.44947 -16.9793,13.26003 3.24102,-1.00215 16.33247,-1.77878 16.33247,-1.77878 0,0 -3.95244,15.27997 -10.99612,19.40492 -5.8545,3.42854 -17.40469,4.89407 -22.31442,5.05153 1.39394,0.84681 6.54793,0.0422 6.54793,0.0422"
           id="path32"
           color="coat-contour" /></g></g><g
       id="g19"
       style="display:inline"
       transform="translate(5.6492873e-5)"><g
         id="g12"><path
           style="display:inline;fill:#ffff00;stroke-width:0.885764"
           d="m 333.45064,783.83129 c -0.44506,-0.0536 -0.34326,0.82546 -0.51352,1.23458 -8.90307,21.3928 -15.26829,36.1873 -11.19723,42.4309 15.05335,23.08662 65.21059,15.55226 86.18017,7.07448 3.88497,-1.57065 7.43191,-16.81784 10.24963,-37.14014 0.0599,-0.43192 0.61428,-1.23766 0.17867,-1.30255 -40.26656,-5.99823 -56.59222,-8.88877 -84.89772,-12.29727 z"
           id="path10"
           color="hooves" /><path
           style="display:inline;fill:none;stroke:#000000;stroke-width:5;stroke-linecap:round;stroke-dasharray:none;stroke-opacity:1"
           d="m 332.43867,786.26315 c -8.63982,20.74773 -14.69345,35.10718 -10.69878,41.23362 15.05335,23.08662 65.21059,15.55226 86.18017,7.07448 3.83752,-1.55147 7.34521,-16.44743 10.14606,-36.39779"
           id="path12"
           color="hooves-contour" /></g><path
         style="display:inline;fill:#ff8200;fill-opacity:1;stroke:none;stroke-width:5;stroke-dasharray:none;stroke-opacity:1"
         d="m 370.6182,604.97184 c -1.66046,33.20921 -5.09216,70.08834 -12.82192,105.84815 -6.36064,29.42594 -16.7484,54.75963 -24.95051,74.46535 -0.82978,1.99357 -3.91471,9.35116 -2.86768,9.34818 2.55334,-0.007 8.7107,0.21684 16.80326,-6.58562 0.91572,14.89115 43.61258,46.41384 64.38114,40.12474 0.97393,-0.29492 1.44191,-2.11384 1.86721,-3.34318 7.38826,-21.35586 11.71152,-84.43009 11.6119,-120.17161 -0.0902,-32.36252 -14.14898,-91.9684 -14.14898,-91.9684 z"
         id="path18"
         color="coat" /><path
         style="display:inline;fill:none;fill-opacity:1;stroke:#000000;stroke-width:5;stroke-dasharray:none;stroke-opacity:1"
         d="m 370.6182,604.97184 c -1.66046,33.20921 -5.09216,70.08834 -12.82192,105.84815 -6.36064,29.42594 -16.7484,54.75963 -24.95051,74.46535 -0.82978,1.99357 -3.91471,9.35116 -2.86768,9.34818 2.55334,-0.007 8.7107,0.21684 16.80326,-6.58562 0.91572,14.89115 43.61258,46.41384 64.38114,40.12474 0.97393,-0.29492 1.44191,-2.11384 1.86721,-3.34318 7.38826,-21.35586 11.71152,-84.43009 11.6119,-120.17161 -0.0902,-32.36252 -14.14898,-91.9684 -14.14898,-91.9684"
         id="path19"
         color="coat-contour" /><g
         id="g34"
         style="display:inline"
         transform="translate(-177.35388,5.7895556)"><path
           style="fill:#f700ff;fill-opacity:1;fill-rule:evenodd;stroke:none;stroke-width:5;stroke-linecap:round;stroke-dasharray:none;stroke-opacity:1"
           d="m 595.7813,728.31193 c 0,0 8.71679,-13.05363 22.27309,-26.63445 15.72933,-15.75778 36.86649,-27.27067 36.8131,-18.87378 -0.0426,6.69247 -1.23684,44.18538 -7.43337,52.98558 -8.73621,12.40703 -27.34225,24.37423 -28.68167,25.66877 2.90579,-0.21532 3.30221,-0.56612 10.82713,-1.88781 5.14341,-0.90341 15.66478,0.22848 15.66478,0.22848 0,0 -10.49051,21.17155 -20.04989,28.6016 -6.4223,4.99177 -16.75757,5.03648 -19.38909,9.39085 3.37931,-0.29783 16.34113,1.69731 16.34113,1.69731 0,0 -8.64767,12.94168 -16.40156,15.49235 -8.01131,2.63533 -26.23469,-1.84163 -26.23469,-1.84163 z"
           id="path33"
           color="coat" /><path
           style="fill:none;fill-opacity:1;fill-rule:evenodd;stroke:#000000;stroke-width:5;stroke-linecap:round;stroke-dasharray:none;stroke-opacity:1"
           d="m 601.44107,719.74143 c 0,0 -5.11247,6.71912 -5.12125,7.78456 2.09247,-3.01261 10.14492,-14.2379 21.73457,-25.84851 15.72933,-15.75778 36.86649,-27.27067 36.8131,-18.87378 -0.0426,6.69247 -1.23684,44.18538 -7.43337,52.98558 -8.73621,12.40703 -27.34225,24.37423 -28.68167,25.66877 2.90579,-0.21532 3.30221,-0.56612 10.82713,-1.88781 5.14341,-0.90341 15.66478,0.22848 15.66478,0.22848 0,0 -10.49051,21.17155 -20.04989,28.6016 -6.4223,4.99177 -16.75757,5.03648 -19.38909,9.39085 3.37931,-0.29783 16.34113,1.69731 16.34113,1.69731 0,0 -8.64766,12.9417 -16.40156,15.49235 -6.45103,2.12207 -20.70569,-0.78044 -21.46031,-0.85182 0.6138,0.48677 5.95515,0.96042 5.95515,0.96042"
           id="path34"
           color="coat-contour" /></g></g><g
       id="g3"
       style="display:inline"><path
         style="display:inline;fill:#ff0000;stroke-width:0.885764"
         d="m 363.54371,485.99176 c 0,0 -11.33843,59.47199 -9.64704,89.39583 3.38553,59.89623 32.19477,65.76825 63.67044,73.31748 36.90369,8.8511 114.78269,-0.57221 153.06629,-32.15681 18.10802,-14.93942 17.2904,-104.04133 -34.72933,-113.835 -36.52354,-6.87622 -71.93896,21.07753 -85.53704,12.21956 -13.5981,-8.85796 10.29018,-123.48202 10.29018,-123.48202 z"
         id="path1"
         color="coat" /><path
         style="display:inline;fill:none;stroke:#000000;stroke-width:5;stroke-linecap:round;stroke-dasharray:none;stroke-opacity:1"
         d="m 363.54371,485.99176 c 0,0 -11.33843,59.47199 -9.64704,89.39583 3.38553,59.89623 32.19477,65.76825 63.67044,73.31748 36.90369,8.8511 114.78269,-0.57221 153.06629,-32.15681 18.10802,-14.93942 17.2904,-104.04133 -34.72933,-113.835 -36.52354,-6.87622 -71.93896,21.07753 -85.53704,12.21956 -13.5981,-8.85796 4.1185,-87.17802 4.1185,-87.17802 z"
         id="path9"
         color="coat_contour" /></g><g
       id="g18"
       style="display:inline"
       transform="translate(29.589056,22.064004)"><g
         id="g16"><path
           style="display:inline;fill:#ffff00;stroke-width:0.885764"
           d="m 333.45064,783.83129 c -0.44506,-0.0536 -0.34326,0.82546 -0.51352,1.23458 -8.90307,21.3928 -15.26829,36.1873 -11.19723,42.4309 15.05335,23.08662 65.21059,15.55226 86.18017,7.07448 3.88497,-1.57065 7.43191,-16.81784 10.24963,-37.14014 0.0599,-0.43192 0.61428,-1.23766 0.17867,-1.30255 -40.26656,-5.99823 -56.59222,-8.88877 -84.89772,-12.29727 z"
           id="path15"
           color="hooves" /><path
           style="display:inline;fill:none;stroke:#000000;stroke-width:5;stroke-linecap:round;stroke-dasharray:none;stroke-opacity:1"
           d="m 332.43867,786.26315 c -8.63982,20.74773 -14.69345,35.10718 -10.69878,41.23362 15.05335,23.08662 65.21059,15.55226 86.18017,7.07448 3.83752,-1.55147 7.34521,-16.44743 10.14606,-36.39779"
           id="path16"
           color="hooves-contour" /></g><path
         style="display:inline;fill:#ff8200;fill-opacity:1;stroke:none;stroke-width:5;stroke-dasharray:none;stroke-opacity:1"
         d="m 370.6182,604.97184 c -1.66046,33.20921 -5.09216,70.08834 -12.82192,105.84815 -6.36064,29.42594 -16.7484,54.75963 -24.95051,74.46535 -0.82978,1.99357 -3.91471,9.35116 -2.86768,9.34818 2.55334,-0.007 8.7107,0.21684 16.80326,-6.58562 0.91572,14.89115 43.61258,46.41384 64.38114,40.12474 0.97393,-0.29492 1.44191,-2.11384 1.86721,-3.34318 7.38826,-21.35586 11.71152,-84.43009 11.6119,-120.17161 -0.0902,-32.36252 -14.14898,-91.9684 -14.14898,-91.9684 z"
         id="path17"
         color="coat" /><path
         style="display:inline;fill:none;fill-opacity:1;stroke:#000000;stroke-width:5;stroke-linecap:round;stroke-dasharray:none;stroke-opacity:1"
         d="m 370.6182,604.97184 c -1.66046,33.20921 -5.09216,70.08834 -12.82192,105.84815 -6.36064,29.42594 -16.7484,54.75963 -24.95051,74.46535 -0.82978,1.99357 -3.91471,9.35116 -2.86768,9.34818 2.55334,-0.007 8.7107,0.21684 16.80326,-6.58562 0.91572,14.89115 43.61258,46.41384 64.38114,40.12474 0.97393,-0.29492 1.44191,-2.11384 1.86721,-3.34318 7.38826,-21.35586 11.71152,-84.43009 11.6119,-120.17161 -0.0902,-32.36252 -14.14898,-91.9684 -14.14898,-91.9684"
         id="path4"
         color="coat-contour" /><g
         id="g30"
         style="display:inline"
         transform="translate(-177.83551,8.6285269)"><path
           style="fill:#f700ff;fill-opacity:1;fill-rule:evenodd;stroke:none;stroke-width:5;stroke-linecap:round;stroke-dasharray:none;stroke-opacity:1"
           d="m 595.7813,728.31193 c 0,0 8.71679,-13.05363 22.27309,-26.63445 15.72933,-15.75778 36.86649,-27.27067 36.8131,-18.87378 -0.0426,6.69247 -1.23684,44.18538 -7.43337,52.98558 -8.73621,12.40703 -27.34225,24.37423 -28.68167,25.66877 2.90579,-0.21532 3.30221,-0.56612 10.82713,-1.88781 5.14341,-0.90341 15.66478,0.22848 15.66478,0.22848 0,0 -10.49051,21.17155 -20.04989,28.6016 -6.4223,4.99177 -16.75757,5.03648 -19.38909,9.39085 3.37931,-0.29783 16.34113,1.69731 16.34113,1.69731 0,0 -8.64767,12.94168 -16.40156,15.49235 -8.01131,2.63533 -26.23469,-1.84163 -26.23469,-1.84163 z"
           id="path29"
           color="coat" /><path
           style="fill:none;fill-opacity:1;fill-rule:evenodd;stroke:#000000;stroke-width:5;stroke-linecap:round;stroke-dasharray:none;stroke-opacity:1"
           d="m 601.44107,719.74143 c 0,0 -5.11247,6.71912 -5.12125,7.78456 2.09247,-3.01261 10.14492,-14.2379 21.73457,-25.84851 15.72933,-15.75778 36.86649,-27.27067 36.8131,-18.87378 -0.0426,6.69247 -1.23684,44.18538 -7.43337,52.98558 -8.73621,12.40703 -27.34225,24.37423 -28.68167,25.66877 2.90579,-0.21532 3.30221,-0.56612 10.82713,-1.88781 5.14341,-0.90341 15.66478,0.22848 15.66478,0.22848 0,0 -10.49051,21.17155 -20.04989,28.6016 -6.4223,4.99177 -16.75757,5.03648 -19.38909,9.39085 3.37931,-0.29783 16.34113,1.69731 16.34113,1.69731 0,0 -8.64766,12.9417 -16.40156,15.49235 -6.45103,2.12207 -20.70569,-0.78044 -21.46031,-0.85182 0.6138,0.48677 5.95515,0.96042 5.95515,0.96042"
           id="path30"
           color="coat-contour" /></g></g><g
       id="g25"
       style="display:inline"
       transform="translate(39.3344,22.283734)"><g
         id="g23"
         style="display:inline"><path
           style="display:inline;fill:#00ffff;stroke-width:0.885764"
           d="m 509.33122,789.42339 c -2.52959,20.26657 -6.30731,35.45724 -4.63101,38.94274 9.28048,19.29681 66.0668,9.6583 78.62331,2.73334 5.87736,-3.24139 13.08375,-19.23103 7.09411,-39.35723 -0.0208,-0.07 0.22803,-0.62552 -0.12311,-0.63439 -45.19375,-1.14215 -47.58525,-1.24092 -72.0018,-1.11228 -2.06307,0.0109 -8.92818,-0.83912 -8.9615,-0.57218 z"
           id="path22"
           color="hooves" /><path
           style="display:inline;fill:none;stroke:#f11414;stroke-width:5;stroke-linecap:round;stroke-dasharray:none;stroke-opacity:1"
           d="m 508.94737,791.82133 c -3.06043,18.97776 -5.85637,33.19879 -4.24716,36.5448 9.28048,19.29681 66.0668,9.6583 78.62331,2.73334 5.62194,-3.10052 7.66853,-17.46995 7.12369,-37.07733"
           id="path23"
           color="hooves-contour" /></g><path
         style="display:inline;fill:#00ff23;fill-opacity:1;stroke:none;stroke-width:5;stroke-dasharray:none;stroke-opacity:1"
         d="m 453.89251,605.19805 c 0,0 10.14829,21.98858 18.65093,30.22738 9.44513,9.15204 30.3943,37.8278 36.17637,53.86261 10.66214,29.5682 5.15573,71.9251 0.27152,102.26047 -0.10694,0.66421 -1.80289,9.14856 -1.23124,8.97546 5.02106,-1.52039 11.32411,-3.48761 19.80788,-13.13574 2.6136,6.34531 13.0799,17.73905 25.40485,25.41117 15.2909,9.51838 32.9195,14.26754 35.79355,7.85131 0.32192,-0.71868 0.37981,-1.57685 0.52699,-2.45063 6.7829,-40.26943 -15.46573,-157.79404 -38.12661,-177.14722 -11.46748,-9.79363 -19.52151,1.10567 -23.47443,-4.0196 -7.70398,-9.98884 20.7837,-62.92385 13.6666,-87.78801 -9.52443,-33.27438 -87.46641,55.9528 -87.46641,55.9528 z"
         id="path24"
         color="coat" /><path
         style="display:inline;fill:none;fill-opacity:1;stroke:#000000;stroke-width:5;stroke-linecap:round;stroke-dasharray:none;stroke-opacity:1"
         d="m 453.89251,605.19805 c 0,0 10.14829,21.98858 18.65093,30.22738 9.44513,9.15204 30.3943,37.8278 36.17637,53.86261 10.66214,29.5682 5.15573,71.9251 0.27152,102.26047 -0.10694,0.66421 -1.80289,9.14856 -1.23124,8.97546 5.02106,-1.52039 11.32411,-3.48761 19.80788,-13.13574 2.6136,6.34531 13.0799,17.73905 25.40485,25.41117 15.2909,9.51838 32.9195,14.26754 35.79355,7.85131 0.32192,-0.71868 0.37981,-1.57685 0.52699,-2.45063 6.7829,-40.26943 -15.46573,-157.79404 -38.12661,-177.14722 -11.46748,-9.79363 -19.52151,1.10567 -23.47443,-4.0196 -7.70398,-9.98884 21.58411,-65.78246 13.6666,-93.1622"
         id="path3"
         color="coat-contour" /><g
         id="g28"><path
           style="fill:#f700ff;fill-opacity:1;fill-rule:evenodd;stroke:none;stroke-width:5;stroke-linecap:round;stroke-dasharray:none;stroke-opacity:1"
           d="m 574.50778,726.74602 c 0,0 5.77525,-14.59542 16.17076,-30.72444 12.06187,-18.71444 30.30364,-34.41681 32.01812,-26.19664 1.36647,6.55162 8.08727,43.45658 3.88097,53.36351 -5.93028,13.96738 -21.602,29.58135 -22.63907,31.12873 2.79545,-0.82186 3.10919,-1.24822 10.18759,-4.12355 4.83821,-1.96534 15.36222,-3.07244 15.36222,-3.07244 0,0 -5.80129,22.90481 -13.58344,32.17981 -5.2283,6.23126 -15.32282,8.44947 -16.9793,13.26003 3.24102,-1.00215 16.33247,-1.77878 16.33247,-1.77878 0,0 -5.73123,14.47142 -12.7749,18.59638 -7.27753,4.2619 -26.03493,3.71927 -26.03493,3.71927 z"
           id="path27"
           color="coat" /><path
           style="fill:none;fill-rule:evenodd;stroke:#000000;stroke-width:5;stroke-linecap:round;stroke-dasharray:none;stroke-opacity:1"
           d="m 576.75147,721.38945 c 0,0 -1.95807,3.13269 -1.81587,4.31535 1.51216,-3.60844 6.98965,-16.10216 15.74294,-29.68322 12.06187,-18.71444 30.30364,-34.41681 32.01812,-26.19664 1.36647,6.55162 8.08727,43.45658 3.88097,53.36351 -5.93028,13.96738 -21.602,29.58135 -22.63907,31.12873 2.79545,-0.82186 3.10919,-1.24822 10.18759,-4.12355 4.83821,-1.96534 15.36222,-3.07244 15.36222,-3.07244 0,0 -5.80129,22.90481 -13.58344,32.17981 -5.2283,6.23126 -15.32282,8.44947 -16.9793,13.26003 3.24102,-1.00215 16.33247,-1.77878 16.33247,-1.77878 0,0 -3.95244,15.27997 -10.99612,19.40492 -5.8545,3.42854 -17.40469,4.89407 -22.31442,5.05153 1.39394,0.84681 6.54793,0.0422 6.54793,0.0422"
           id="path28"
           color="coat-contour" /></g></g></g></svg>
