<?xml version="1.0" encoding="UTF-8" standalone="no"?>
<!-- Created with Inkscape (http://www.inkscape.org/) -->

<svg
   width="1000"
   height="1000"
   viewBox="0 0 1000 1000"
   version="1.1"
   id="svg1"
   xml:space="preserve"
   xmlns="http://www.w3.org/2000/svg"
   xmlns:svg="http://www.w3.org/2000/svg"><defs
     id="defs1" /><g
     id="layer2"
     style="display:inline"
     data-layer="300"><title
       id="title7">coat</title><g
       id="g6"
       style="display:inline"><path
         style="display:inline;fill:#00ffff;stroke-width:0.885764"
         d="m 453.89251,605.19805 c 0,0 10.14829,21.98858 18.65093,30.22738 9.44513,9.15204 30.3943,37.8278 36.17637,53.86261 17.38031,48.19901 -8.20264,130.38034 -4.0196,139.07809 9.28049,19.29681 66.0668,9.65831 78.62331,2.73334 20.18026,-11.12949 -5.70744,-167.45796 -32.15677,-190.04661 -11.46748,-9.79363 -19.52151,1.10567 -23.47443,-4.0196 -7.70398,-9.98884 20.7837,-62.92385 13.6666,-87.78801 -9.52443,-33.27438 -87.46641,55.9528 -87.46641,55.9528 z"
         id="path5"
         color="coat" /><path
         d="m 575.37997,833.90861 c -11.95467,-9.73585 -38.14247,-30.60401 -48.52539,-35.22265 -7.61785,-3.38865 -13.38382,-4.35895 -16.99219,-4.55469 -2.85976,17.47173 -5.28332,30.38874 -3.75977,33.55664 7.75797,16.13107 48.71327,12.04181 69.27735,6.2207 z"
         style="display:inline;fill:#4700ff;fill-opacity:1;stroke:none;stroke-width:0.885764"
         id="path31"
         color="hooves" /><path
         d="m 588.20223,753.45468 c -12.98202,-2.68276 -29.71163,-5.90033 -39.56836,-6.86133 -9.51941,-0.9281 -22.65764,-0.99978 -32.83007,-0.86523 -0.38949,6.6631 -1.01136,13.29356 -1.76172,19.73437 10.85934,-0.68545 24.38878,-1.12049 35.54492,-0.16797 12.80634,1.09342 28.98604,3.09094 40.62891,4.6211 -0.55125,-5.34739 -1.22771,-10.85953 -2.01368,-16.46094 z"
         style="display:inline;fill:#00ff31;fill-opacity:1;fill-rule:evenodd;stroke:none;stroke-width:5;stroke-linecap:round"
         id="path26"
         color="detail-1" /><path
         d="m 574.70419,688.5953 c -15.76492,-3.35963 -37.09665,-7.71059 -46.95703,-8.85937 -7.77089,-0.90534 -15.66653,-0.66702 -21.88086,-0.1543 1.78427,3.38652 3.24965,6.56117 4.25586,9.35157 1.14909,3.18665 2.10978,6.52193 2.90429,9.9746 4.38519,-0.12688 9.022,-0.0817 13.57617,0.26954 11.55148,0.89092 36.88861,6.65295 53.55469,10.66601 -1.69012,-7.35013 -3.51861,-14.49471 -5.45312,-21.24805 z"
         style="display:inline;fill:#00ff31;fill-opacity:1;fill-rule:evenodd;stroke:none;stroke-width:5;stroke-linecap:round"
         id="path27"
         color="detail-1" /><path
         d="m 536.37606,597.4703 c -14.78147,1.39686 -39.08744,5.30477 -52.35742,16.1836 -7.69273,6.30655 -12.55935,11.0971 -15.63477,14.60156 1.85184,2.667 3.74393,5.0542 5.56055,6.81445 2.56141,2.48193 5.96984,6.39922 9.69141,11.11133 3.36829,-3.50734 8.51311,-8.36052 14.77148,-12.64062 6.08176,-4.15932 20.21416,-11.05397 32.07422,-16.58008 1.61811,-5.87468 3.77188,-12.55279 5.89453,-19.49024 z"
         style="display:inline;fill:#00ff31;fill-opacity:1;fill-rule:evenodd;stroke:none;stroke-width:5;stroke-linecap:round"
         id="path28"
         color="detail-1" /><path
         style="display:inline;fill:none;stroke:#000000;stroke-width:5;stroke-linecap:round;stroke-dasharray:none;stroke-opacity:1"
         d="m 453.89251,605.19805 c 0,0 10.14829,21.98858 18.65093,30.22738 9.44513,9.15204 30.3943,37.8278 36.17637,53.86261 17.38031,48.19901 -8.20264,130.38034 -4.0196,139.07809 9.28049,19.29681 66.0668,9.65831 78.62331,2.73334 20.18026,-11.12949 -5.70744,-167.45796 -32.15677,-190.04661 -11.46748,-9.79363 -19.52151,1.10567 -23.47443,-4.0196 -7.70398,-9.98884 20.7837,-62.92385 13.6666,-87.78801"
         id="path13"
         color="coat_contour" /></g><g
       id="g7"
       style="display:inline"><path
         style="display:inline;fill:#ffff00;stroke-width:0.885764"
         d="m 370.6182,604.97184 c -1.66046,33.20921 -5.09216,70.08834 -12.82192,105.84815 -13.22768,61.19456 -43.87146,104.69117 -36.05639,116.67678 15.05334,23.08663 65.21061,15.5523 86.18017,7.07448 9.41118,-3.80484 16.83872,-87.86802 16.72154,-129.9134 -0.0901,-32.36252 -14.14898,-91.9684 -14.14898,-91.9684 z"
         id="path2"
         color="coat" /><path
         d="m 393.09885,839.82508 c -13.07252,-11.08676 -40.08902,-33.59357 -50.27929,-39.04883 -5.85187,-3.13272 -10.13189,-4.70968 -13.11329,-5.48828 -6.63587,16.17448 -10.58837,27.46614 -7.16601,32.71485 12.03412,18.45617 46.50249,17.34273 70.55859,11.82226 z"
         style="display:inline;fill:#0800ff;fill-opacity:1;stroke:none;stroke-width:0.885764"
         id="path34"
         color="hooves" /><path
         d="m 419.92969,783.28516 c -0.0203,0.009 -0.0403,0.0166 -0.0605,0.0254 -11.24215,4.8642 -33.38867,9.38086 -33.38867,9.38086 0,0 18.46437,7.16816 30.76367,11.06054 0.97383,-6.27865 1.87346,-13.20214 2.68555,-20.46679 z"
         style="display:inline;fill:#00ff31;fill-opacity:1;stroke:none;stroke-width:0.885764"
         id="path21"
         color="detail-1" /><path
         d="m 423.62891,687.26562 c -8.61055,-3.56983 -17.79262,-7.41906 -22.83204,-9.6621 -14.0302,-6.24487 -26.32827,-19.26875 -33.51171,-28.05469 -1.28807,12.50314 -2.93221,25.2058 -5.04102,37.89844 4.01322,4.06309 9.36848,8.9733 14.12695,11.64257 10.85529,6.08929 32.44767,7.62373 48.26953,7.86133 0.003,-0.77754 0.002,-1.54157 0,-2.29297 -0.0145,-5.21196 -0.38966,-11.13017 -1.01171,-17.39258 z"
         style="display:inline;fill:#00ff31;fill-opacity:1;stroke:none;stroke-width:0.885764"
         id="path20"
         color="detail-1" /><path
         d="m 341.6875,763.39258 c 1.95025,-0.11231 3.82119,-0.1547 5.30078,-0.0645 9.33531,0.56938 27.52734,5.42969 27.52734,5.42969 10e-6,0 -9.29538,-13.56645 -15.59179,-18.67773 -2.48673,-2.01868 -6.54062,-4.2475 -10.26758,-6.09766 -2.25367,6.80365 -4.61398,13.28277 -6.96875,19.41016 z"
         style="display:inline;fill:#00ff31;fill-opacity:1;stroke:none;stroke-width:0.885764"
         id="path19"
         color="detail-1" /><path
         style="display:inline;fill:none;stroke:#000000;stroke-width:5;stroke-linecap:round;stroke-dasharray:none;stroke-opacity:1"
         d="m 370.6182,604.97184 c -1.66046,33.20921 -5.09216,70.08834 -12.82192,105.84815 -13.22768,61.19456 -43.87146,104.69117 -36.05639,116.67678 15.05334,23.08663 65.21061,15.5523 86.18017,7.07448 9.41118,-3.80484 16.83872,-87.86802 16.72154,-129.9134 -0.0901,-32.36252 -14.14898,-91.9684 -14.14898,-91.9684"
         id="path11"
         color="coat_contour" /></g><g
       id="g8"
       style="display:inline"><path
         style="display:inline;fill:#ff0000;stroke-width:0.885764"
         d="m 363.54371,485.99176 c 0,0 -11.33843,59.47199 -9.64704,89.39583 3.38553,59.89623 32.19477,65.76825 63.67044,73.31748 36.90369,8.8511 114.78269,-0.57221 153.06629,-32.15681 18.10802,-14.93942 17.2904,-104.04133 -34.72933,-113.835 -36.52354,-6.87622 -71.93896,21.07753 -85.53704,12.21956 -13.5981,-8.85796 10.29018,-123.48202 10.29018,-123.48202 z"
         id="path1"
         color="coat" /><path
         d="m 451.85547,515.72266 c -0.90438,2.56736 -2.2772,5.96395 -3.9336,8.45898 -2.92422,4.40474 -8.38085,11.86524 -8.38085,11.86523 0,0 5.42767,-0.34328 9.92968,-2.36328 5.02452,-2.25444 11.79471,-7.2411 11.79471,-7.2411 0,0 -1.43045,6.53377 -4.22071,11.36914 -3.23992,5.61461 -11.32986,18.36025 -11.32986,18.36024 0,0 16.35915,-6.17209 22.1826,-13.82542 4.96839,-6.52958 9.83368,-20.02006 9.83368,-20.02006 0,0 4.42645,8.25957 1.35078,17.52205 -4.14609,12.48609 -12.55695,19.9823 -12.55695,19.9823 0,0 19.66402,-10.02689 25.36997,-19.67727 5.38749,-9.11176 11.67912,-27.88901 11.67912,-27.88901 l 5.48832,11.89006 13.94975,-13.7204 6.86137,12.34856 18.52344,-7.31749 5.0299,12.57886 11.77435,-6.36827 c -7.05537,-9.53125 -16.66707,-16.5851 -29.29687,-18.96289 -35.26039,-6.63841 -69.48805,19.18593 -84.04883,13.00977 z"
         style="fill:#5aca67;fill-opacity:1;fill-rule:evenodd;stroke:none;stroke-width:5;stroke-linecap:round"
         id="path14"
         color="detail-1" /><path
         style="display:inline;fill:none;stroke:#000000;stroke-width:5;stroke-linecap:round;stroke-dasharray:none;stroke-opacity:1"
         d="m 363.54371,485.99176 c 0,0 -11.33843,59.47199 -9.64704,89.39583 3.38553,59.89623 32.19477,65.76825 63.67044,73.31748 36.90369,8.8511 114.78269,-0.57221 153.06629,-32.15681 18.10802,-14.93942 17.2904,-104.04133 -34.72933,-113.835 -36.52354,-6.87622 -71.93896,21.07753 -85.53704,12.21956 -13.5981,-8.85796 4.1185,-87.17802 4.1185,-87.17802 z"
         id="path9"
         color="coat_contour" /></g><g
       id="g9"
       style="display:inline"><path
         style="display:inline;fill:#00ffff;stroke-width:0.885764"
         d="m 400.20244,629.41103 c -1.66046,33.20921 -5.09217,70.08834 -12.82193,105.84815 -13.22768,61.19456 -43.87145,104.69116 -36.05637,116.67678 15.05335,23.08663 65.21062,15.5523 86.18016,7.07448 9.41119,-3.80485 16.83871,-87.86802 16.72154,-129.9134 -0.09,-32.36252 -14.14898,-91.9684 -14.14898,-91.9684 z"
         id="path10"
         color="coat" /><path
         d="m 421.88281,863.75781 c -13.07252,-11.08676 -40.08902,-33.59357 -50.27929,-39.04883 -5.85187,-3.13272 -10.13189,-4.70968 -13.11329,-5.48828 -6.63587,16.17448 -10.58837,27.46614 -7.16601,32.71485 12.03412,18.45617 46.50249,17.34273 70.55859,11.82226 z"
         style="display:inline;fill:#0800ff;fill-opacity:1;stroke:none;stroke-width:0.885764"
         id="path33"
         color="hooves" /><path
         d="m 448.78125,813.97852 c -9.23045,-5.67805 -21.33328,-13.07141 -30.42969,-18.44336 -12.87997,-7.60636 -34.38239,-13.71751 -43.90234,-16.19922 -2.46106,6.78079 -4.97272,13.18432 -7.40235,19.17968 9.32283,2.138 27.63898,6.55611 37.81836,10.47266 11.7435,4.51835 29.84091,14.10157 41.73633,20.63867 0.77389,-4.85308 1.50248,-10.11789 2.17969,-15.64843 z"
         style="display:inline;fill:#5aca67;fill-opacity:1;fill-rule:evenodd;stroke:none;stroke-width:5;stroke-linecap:round"
         id="path17"
         color="detail-1" /><path
         d="m 446.97656,670.22266 c -9.18875,-5.65659 -19.23715,-11.31664 -25.11719,-13.00586 -6.99921,-2.01075 -16.25978,-3.19253 -23.15429,-3.84766 -0.48261,6.356 -1.04401,12.79739 -1.70117,19.29492 7.51879,-0.10078 17.13901,0.0723 23.24609,1.3086 8.11975,1.64379 19.81078,6.25641 29.2168,10.33203 -0.80152,-4.83428 -1.64745,-9.57838 -2.49024,-14.08203 z"
         style="display:inline;fill:#5aca67;fill-opacity:1;fill-rule:evenodd;stroke:none;stroke-width:5;stroke-linecap:round"
         id="path16"
         color="detail-1" /><path
         style="display:inline;fill:none;stroke:#000000;stroke-width:5;stroke-linecap:round;stroke-dasharray:none;stroke-opacity:1"
         d="m 400.20244,629.41103 c -1.66046,33.20921 -5.09217,70.08834 -12.82193,105.84815 -13.22768,61.19456 -43.87145,104.69116 -36.05637,116.67678 15.05335,23.08663 65.21062,15.5523 86.18016,7.07448 9.41119,-3.80485 16.83871,-87.86802 16.72154,-129.9134 -0.09,-32.36252 -14.14898,-91.9684 -14.14898,-91.9684"
         id="path3"
         color="coat_contour" /></g><g
       id="g10"
       style="display:inline"><path
         style="display:inline;fill:#ffff00;stroke-width:0.885764"
         d="m 493.45712,627.48158 c 0,0 10.1483,21.98858 18.65093,30.22738 9.44513,9.15203 30.3943,37.82779 36.17637,53.8626 17.38032,48.19902 -8.20264,130.38035 -4.01959,139.07809 9.28048,19.29682 66.0668,9.65832 78.62331,2.73335 20.18025,-11.12949 -5.70745,-167.45796 -32.15677,-190.04661 -11.46749,-9.79363 -19.52152,1.10567 -23.47443,-4.0196 -7.70399,-9.98884 21.95165,-63.28827 13.6666,-87.78801 -7.69493,-22.75468 -87.46642,55.9528 -87.46642,55.9528 z"
         id="path4"
         color="coat" /><path
         d="m 613.54297,856.87109 c -11.95467,-9.73585 -38.14247,-30.60401 -48.52539,-35.22265 -7.61785,-3.38865 -13.38382,-4.35895 -16.99219,-4.55469 -2.85976,17.47173 -5.28332,30.38874 -3.75977,33.55664 7.75797,16.13107 48.71327,12.04181 69.27735,6.2207 z"
         style="display:inline;fill:#4700ff;fill-opacity:1;stroke:none;stroke-width:0.885764"
         id="path30"
         color="hooves" /><path
         d="m 626.36523,776.09375 c -12.98202,-2.68276 -29.71163,-5.90033 -39.56836,-6.86133 -9.51941,-0.9281 -22.65764,-0.99978 -32.83007,-0.86523 -0.38949,6.6631 -1.01136,13.29356 -1.76172,19.73437 10.85934,-0.68545 24.38878,-1.12049 35.54492,-0.16797 12.80634,1.09342 28.98604,3.09094 40.62891,4.6211 -0.55125,-5.34739 -1.22771,-10.85953 -2.01368,-16.46094 z"
         style="display:inline;fill:#00ff31;fill-opacity:1;fill-rule:evenodd;stroke:none;stroke-width:5;stroke-linecap:round"
         id="path25"
         color="detail-1" /><path
         d="m 612.86719,711.23437 c -15.76492,-3.35963 -37.09665,-7.71059 -46.95703,-8.85937 -7.77089,-0.90534 -15.66653,-0.66702 -21.88086,-0.1543 1.78427,3.38652 3.24965,6.56117 4.25586,9.35157 1.14909,3.18665 2.10978,6.52193 2.90429,9.9746 4.38519,-0.12688 9.022,-0.0817 13.57617,0.26954 11.55148,0.89092 36.88861,6.65295 53.55469,10.66601 -1.69012,-7.35013 -3.51861,-14.49471 -5.45312,-21.24805 z"
         style="display:inline;fill:#00ff31;fill-opacity:1;fill-rule:evenodd;stroke:none;stroke-width:5;stroke-linecap:round"
         id="path24"
         color="detail-1" /><path
         d="m 574.53906,620.10937 c -14.78147,1.39686 -39.08744,5.30477 -52.35742,16.1836 -7.69273,6.30655 -12.55935,11.0971 -15.63477,14.60156 1.85184,2.667 3.74393,5.0542 5.56055,6.81445 2.56141,2.48193 5.96984,6.39922 9.69141,11.11133 3.36829,-3.50734 8.51311,-8.36052 14.77148,-12.64062 6.08176,-4.15932 20.21416,-11.05397 32.07422,-16.58008 1.61811,-5.87468 3.77188,-12.55279 5.89453,-19.49024 z"
         style="display:inline;fill:#00ff31;fill-opacity:1;fill-rule:evenodd;stroke:none;stroke-width:5;stroke-linecap:round"
         id="path23"
         color="detail-1" /><path
         style="display:inline;fill:none;stroke:#000000;stroke-width:5;stroke-linecap:round;stroke-dasharray:none;stroke-opacity:1"
         d="m 493.45712,627.48158 c 0,0 10.1483,21.98858 18.65093,30.22738 9.44513,9.15203 30.3943,37.82779 36.17637,53.8626 17.38032,48.19902 -8.20264,130.38035 -4.01959,139.07809 9.28048,19.29682 66.0668,9.65832 78.62331,2.73335 20.18025,-11.12949 -5.70745,-167.45796 -32.15677,-190.04661 -11.46749,-9.79363 -19.52152,1.10567 -23.47443,-4.0196 -7.70399,-9.98884 20.60217,-67.64337 13.48508,-92.50753"
         id="path12"
         color="coat_contour" /></g></g></svg>
