<?xml version="1.0" encoding="UTF-8" standalone="no"?>
<!-- Created with Inkscape (http://www.inkscape.org/) -->

<svg
   width="1000"
   height="1000"
   viewBox="0 0 1000 1000"
   version="1.1"
   id="svg1"
   xml:space="preserve"
   xmlns="http://www.w3.org/2000/svg"
   xmlns:svg="http://www.w3.org/2000/svg"><defs
     id="defs1" /><g
     id="layer2"
     style="display:inline"
     data-layer="300"><title
       id="title7">coat</title><g
       id="g6"
       style="display:inline"><path
         style="display:inline;fill:#00ffff;stroke-width:0.885764"
         d="m 453.89251,605.19805 c 0,0 10.14829,21.98858 18.65093,30.22738 9.44513,9.15204 30.3943,37.8278 36.17637,53.86261 17.38031,48.19901 -8.20264,130.38034 -4.0196,139.07809 9.28049,19.29681 66.0668,9.65831 78.62331,2.73334 20.18026,-11.12949 -5.70744,-167.45796 -32.15677,-190.04661 -11.46748,-9.79363 -19.52151,1.10567 -23.47443,-4.0196 -7.70398,-9.98884 20.7837,-62.92385 13.6666,-87.78801 -9.52443,-33.27438 -87.46641,55.9528 -87.46641,55.9528 z"
         id="path5"
         color="coat" /><path
         d="m 575.37997,833.90861 c -11.95467,-9.73585 -7.0946,-25.42937 -48.52539,-35.22265 -8.11394,-1.91795 -13.38382,-4.35895 -16.99219,-4.55469 -2.85976,17.47173 -5.28332,30.38874 -3.75977,33.55664 7.75797,16.13107 48.71327,12.04181 69.27735,6.2207 z"
         style="display:inline;fill:#4700ff;fill-opacity:1;stroke:none;stroke-width:0.885764"
         id="path31"
         color="hooves" /><path
         d="m 536.37606,597.4703 c -14.78147,1.39686 -39.08744,5.30477 -52.35742,16.1836 -7.69273,6.30655 -12.55935,11.0971 -15.63477,14.60156 1.85184,2.667 3.74393,5.0542 5.56055,6.81445 2.56141,2.48193 5.96984,6.39922 9.69141,11.11133 3.36829,-3.50734 8.51311,-8.36052 14.77148,-12.64062 6.08176,-4.15932 20.21416,-11.05397 32.07422,-16.58008 1.61811,-5.87468 3.77188,-12.55279 5.89453,-19.49024 z"
         style="display:inline;fill:#00ff31;fill-opacity:1;fill-rule:evenodd;stroke:none;stroke-width:5;stroke-linecap:round"
         id="path28"
         color="detail-1" /><path
         d="m 588.86021,762.82978 c -7.1768,7.05557 -12.63315,7.78677 -19.66683,7.65649 -10.11242,-0.18732 -19.86528,-3.26016 -27.84824,-12.04744 0.21904,11.502 9.54428,25.73333 20.54279,32.07814 8.84521,5.10261 20.67533,6.03139 30.60304,1.38695 -0.55125,-5.34739 -2.84479,-23.47273 -3.63076,-29.07414 z"
         style="display:inline;fill:#00ff31;fill-opacity:1;fill-rule:evenodd;stroke:none;stroke-width:5;stroke-linecap:round"
         id="path37"
         color="detail-1" /><path
         d="m 578.08692,712.7066 c -6.32193,5.15356 -11.12835,5.68764 -17.32421,5.59248 -8.90788,-0.13682 -17.49902,-2.3813 -24.53109,-8.79973 0.19295,8.40133 8.40741,18.79623 18.09583,23.43063 7.79161,3.72706 18.21258,4.40546 26.95775,1.01305 -0.48559,-3.90585 -2.50593,-17.14503 -3.19828,-21.23643 z"
         style="display:inline;fill:#00ff31;fill-opacity:1;fill-rule:evenodd;stroke:none;stroke-width:4.01067;stroke-linecap:round"
         id="path38"
         color="detail-1" /><path
         style="display:inline;fill:none;stroke:#000000;stroke-width:5;stroke-linecap:round;stroke-dasharray:none;stroke-opacity:1"
         d="m 453.89251,605.19805 c 0,0 10.14829,21.98858 18.65093,30.22738 9.44513,9.15204 30.3943,37.8278 36.17637,53.86261 17.38031,48.19901 -8.20264,130.38034 -4.0196,139.07809 9.28049,19.29681 66.0668,9.65831 78.62331,2.73334 20.18026,-11.12949 -5.70744,-167.45796 -32.15677,-190.04661 -11.46748,-9.79363 -19.52151,1.10567 -23.47443,-4.0196 -7.70398,-9.98884 20.7837,-62.92385 13.6666,-87.78801"
         id="path13"
         color="coat_contour" /></g><g
       id="g7"
       style="display:inline"><path
         style="display:inline;fill:#ffff00;stroke-width:0.885764"
         d="m 370.6182,604.97184 c -1.66046,33.20921 -5.09216,70.08834 -12.82192,105.84815 -13.22768,61.19456 -43.87146,104.69117 -36.05639,116.67678 15.05334,23.08663 65.21061,15.5523 86.18017,7.07448 9.41118,-3.80484 16.83872,-87.86802 16.72154,-129.9134 -0.0901,-32.36252 -14.14898,-91.9684 -14.14898,-91.9684 z"
         id="path2"
         color="coat" /><path
         d="m 393.09885,839.82508 c -13.07252,-11.08676 -21.33093,-31.00625 -50.27929,-39.04883 -6.39541,-1.77681 -10.13189,-4.70968 -13.11329,-5.48828 -6.63587,16.17448 -10.58837,27.46614 -7.16601,32.71485 12.03412,18.45617 46.50249,17.34273 70.55859,11.82226 z"
         style="display:inline;fill:#0800ff;fill-opacity:1;stroke:none;stroke-width:0.885764"
         id="path34"
         color="hooves" /><path
         d="m 421.26008,780.71435 c -12.51499,1.75434 -17.49525,1.63945 -25.42623,-0.62917 -12.44616,-3.56019 -24.37693,-9.32905 -30.76844,-19.22759 0.0806,7.28351 7.67092,25.83651 19.98002,34.0663 8.25059,5.5163 16.03215,5.75442 31.61921,7.26036 1.0239,-4.85308 3.69945,-15.93936 4.59544,-21.4699 z"
         style="display:inline;fill:#5aca67;fill-opacity:1;fill-rule:evenodd;stroke:none;stroke-width:5.75121;stroke-linecap:round"
         id="path39"
         color="detail-1" /><path
         d="m 424.49423,731.33281 c -10.2101,1.53467 -14.27314,1.43416 -20.74347,-0.55039 -10.15396,-3.11441 -19.88744,-8.16093 -25.10182,-16.82005 0.0658,6.37152 6.25817,22.60144 16.3003,29.80075 6.73108,4.82559 13.07951,5.03389 25.79589,6.35127 0.83533,-4.24541 3.01813,-13.94354 3.7491,-18.78158 z"
         style="display:inline;fill:#5aca67;fill-opacity:1;fill-rule:evenodd;stroke:none;stroke-width:4.85859;stroke-linecap:round"
         id="path40"
         color="detail-1" /><path
         style="display:inline;fill:none;stroke:#000000;stroke-width:5;stroke-linecap:round;stroke-dasharray:none;stroke-opacity:1"
         d="m 370.6182,604.97184 c -1.66046,33.20921 -5.09216,70.08834 -12.82192,105.84815 -13.22768,61.19456 -43.87146,104.69117 -36.05639,116.67678 15.05334,23.08663 65.21061,15.5523 86.18017,7.07448 9.41118,-3.80484 16.83872,-87.86802 16.72154,-129.9134 -0.0901,-32.36252 -14.14898,-91.9684 -14.14898,-91.9684"
         id="path11"
         color="coat_contour" /></g><g
       id="g8"
       style="display:inline"><path
         style="display:inline;fill:#ff0000;stroke-width:0.885764"
         d="m 363.54371,485.99176 c 0,0 -11.33843,59.47199 -9.64704,89.39583 3.38553,59.89623 32.19477,65.76825 63.67044,73.31748 36.90369,8.8511 114.78269,-0.57221 153.06629,-32.15681 18.10802,-14.93942 17.2904,-104.04133 -34.72933,-113.835 -36.52354,-6.87622 -71.93896,21.07753 -85.53704,12.21956 -13.5981,-8.85796 10.29018,-123.48202 10.29018,-123.48202 z"
         id="path1"
         color="coat" /><path
         d="m 444.0128,484.14089 c -1.44579,1.4073 -6.97132,3.4397 -9.92683,3.92322 -5.21768,0.8536 -20.65327,-2.77995 -20.65326,-2.77996 0,0 9.5529,8.69705 14.09626,10.62224 5.07067,2.14864 18.49418,0.65325 18.49418,0.65325 -1.26965,-9.60691 2.14441,-8.2933 -2.01035,-12.41875 z"
         style="fill:#5aca67;fill-opacity:1;fill-rule:evenodd;stroke:none;stroke-width:5;stroke-linecap:round"
         id="path14"
         color="detail-1" /><path
         d="m 444.08124,500.47844 c -1.30932,1.53508 -4.4628,3.70042 -12.99778,5.63376 -8.53499,1.93334 -16.53667,-2.14998 -20.25594,-4.57562 0,0 1.23097,8.57805 13.887,12.66774 12.65603,4.0897 22.51794,-1.54653 22.51794,-1.54653 -2.15343,-9.44814 1.36756,-8.45618 -3.15122,-12.17935 z"
         style="display:inline;fill:#5aca67;fill-opacity:1;fill-rule:evenodd;stroke:none;stroke-width:5;stroke-linecap:round"
         id="path41"
         color="detail-1" /><path
         d="m 462.58133,516.92859 c 1.25863,1.57691 1.16892,5.73091 1.44697,14.47771 0.27805,8.7468 -2.17748,16.47471 -5.26502,19.66592 0,0 8.33233,-3.62297 14.75007,-15.27257 6.41775,-11.6496 2.27089,-21.91697 2.27089,-21.91697 -9.68513,0.3208 -7.07259,2.38848 -13.20291,3.04591 z"
         style="display:inline;fill:#5aca67;fill-opacity:1;fill-rule:evenodd;stroke:none;stroke-width:5;stroke-linecap:round"
         id="path42"
         color="detail-1" /><path
         d="m 485.1949,510.53113 c 1.94459,1.72699 2.74172,7.02315 5.01328,18.07255 2.27156,11.04938 0.84741,21.40409 -2.37454,26.1348 0,0 9.78929,-6.42945 15.3862,-22.63458 5.59694,-16.20512 -1.92237,-28.33744 -1.92237,-28.33744 -12.2319,2.53165 -8.45989,4.58508 -16.10257,6.76467 z"
         style="display:inline;fill:#5aca67;fill-opacity:1;fill-rule:evenodd;stroke:none;stroke-width:6.44508;stroke-linecap:round"
         id="path43"
         color="detail-2" /><path
         d="m 508.41324,504.29371 c 1.91533,0.63427 9.20137,6.42774 14.20869,13.60483 5.00732,7.17707 5.38927,12.48607 4.54414,16.84525 0,0 6.6211,-2.16655 5.63964,-15.43068 -0.98144,-13.26415 -9.57526,-19.52271 -9.57526,-19.52271 -7.93997,5.55533 -10.03953,0.60628 -14.81721,4.50331 z"
         style="display:inline;fill:#5aca67;fill-opacity:1;fill-rule:evenodd;stroke:none;stroke-width:5;stroke-linecap:round"
         id="path44"
         color="detail-1" /><path
         style="display:inline;fill:none;stroke:#000000;stroke-width:5;stroke-linecap:round;stroke-dasharray:none;stroke-opacity:1"
         d="m 363.54371,485.99176 c 0,0 -11.33843,59.47199 -9.64704,89.39583 3.38553,59.89623 32.19477,65.76825 63.67044,73.31748 36.90369,8.8511 114.78269,-0.57221 153.06629,-32.15681 18.10802,-14.93942 17.2904,-104.04133 -34.72933,-113.835 -36.52354,-6.87622 -71.93896,21.07753 -85.53704,12.21956 -13.5981,-8.85796 4.1185,-87.17802 4.1185,-87.17802 z"
         id="path9"
         color="coat_contour" /></g><g
       id="g9"
       style="display:inline"><path
         style="display:inline;fill:#00ffff;stroke-width:0.885764"
         d="m 400.20244,629.41103 c -1.66046,33.20921 -5.09217,70.08834 -12.82193,105.84815 -13.22768,61.19456 -43.87145,104.69116 -36.05637,116.67678 15.05335,23.08663 65.21062,15.5523 86.18016,7.07448 9.41119,-3.80485 16.83871,-87.86802 16.72154,-129.9134 -0.09,-32.36252 -14.14898,-91.9684 -14.14898,-91.9684 z"
         id="path10"
         color="coat" /><path
         d="m 438.05357,859.55341 c 20.23926,-26.61069 -20.36069,-27.77209 -63.86273,-36.78492 -6.49961,-1.3466 -12.71921,-2.76919 -15.70061,-3.54779 -6.63587,16.17448 -10.58837,27.46614 -7.16601,32.71485 12.03412,18.45617 56.52836,15.72565 86.72935,7.61786 z"
         style="display:inline;fill:#0800ff;fill-opacity:1;stroke:none;stroke-width:0.885764"
         id="path33"
         color="hooves" /><path
         d="m 450.07491,808.15705 c -9.45914,1.75434 -13.22334,1.63945 -19.21777,-0.62917 -9.40712,-3.56019 -18.42469,-9.32905 -23.25555,-19.22759 0.0609,7.28351 5.79787,25.83651 15.10139,34.0663 6.236,5.5163 12.1175,5.75442 23.89858,7.26036 0.77389,-4.85308 2.79614,-15.93936 3.47335,-21.4699 z"
         style="display:inline;fill:#5aca67;fill-opacity:1;fill-rule:evenodd;stroke:none;stroke-width:5;stroke-linecap:round"
         id="path17"
         color="detail-1" /><path
         d="m 453.30906,758.77551 c -8.27473,1.53467 -11.5676,1.43416 -16.81145,-0.55039 -8.22923,-3.11441 -16.11768,-8.16093 -20.34365,-16.82005 0.0533,6.37152 5.0719,22.60144 13.2105,29.80075 5.45517,4.82559 10.60023,5.03389 20.90616,6.35127 0.67699,-4.24541 2.44603,-13.94354 3.03844,-18.78158 z"
         style="display:inline;fill:#5aca67;fill-opacity:1;fill-rule:evenodd;stroke:none;stroke-width:4.37393;stroke-linecap:round"
         id="path35"
         color="detail-1" /><path
         style="display:inline;fill:none;stroke:#000000;stroke-width:5;stroke-linecap:round;stroke-dasharray:none;stroke-opacity:1"
         d="m 400.20244,629.41103 c -1.66046,33.20921 -5.09217,70.08834 -12.82193,105.84815 -13.22768,61.19456 -43.87145,104.69116 -36.05637,116.67678 15.05335,23.08663 65.21062,15.5523 86.18016,7.07448 9.41119,-3.80485 16.83871,-87.86802 16.72154,-129.9134 -0.09,-32.36252 -14.14898,-91.9684 -14.14898,-91.9684"
         id="path3"
         color="coat_contour" /></g><g
       id="g10"
       style="display:inline"><path
         style="display:inline;fill:#ffff00;stroke-width:0.885764"
         d="m 493.45712,627.48158 c 0,0 10.1483,21.98858 18.65093,30.22738 9.44513,9.15203 30.3943,37.82779 36.17637,53.8626 17.38032,48.19902 -8.20264,130.38035 -4.01959,139.07809 9.28048,19.29682 66.0668,9.65832 78.62331,2.73335 20.18025,-11.12949 -5.70745,-167.45796 -32.15677,-190.04661 -11.46749,-9.79363 -19.52152,1.10567 -23.47443,-4.0196 -7.70399,-9.98884 21.95165,-63.28827 13.6666,-87.78801 -7.69493,-22.75468 -87.46642,55.9528 -87.46642,55.9528 z"
         id="path4"
         color="coat" /><path
         d="m 623.89226,852.99011 c 2.03579,-6.13713 12.47073,-11.158 3.12812,-16.09119 -14.1413,-7.46704 -45.44528,-15.59681 -58.76865,-18.80805 -13.32336,-3.21123 -16.61797,-0.80138 -20.22634,-0.99712 -2.85976,17.47173 -5.28332,30.38874 -3.75977,33.55664 7.75797,16.13107 59.06256,8.16083 79.62664,2.33972 z"
         style="display:inline;fill:#4700ff;fill-opacity:1;stroke:none;stroke-width:0.885764"
         id="path30"
         color="hooves" /><path
         d="m 626.36523,776.09375 c -7.1768,7.05557 -12.63315,7.78677 -19.66683,7.65649 -10.11242,-0.18732 -19.86528,-3.26016 -27.84824,-12.04744 0.21904,11.502 9.54428,25.73333 20.54279,32.07814 8.84521,5.10261 20.67533,6.03139 30.60304,1.38695 -0.55125,-5.34739 -2.84479,-23.47273 -3.63076,-29.07414 z"
         style="display:inline;fill:#00ff31;fill-opacity:1;fill-rule:evenodd;stroke:none;stroke-width:5;stroke-linecap:round"
         id="path25"
         color="detail-1" /><path
         d="m 615.59194,725.97057 c -6.32193,5.15356 -11.12835,5.68764 -17.32421,5.59248 -8.90788,-0.13682 -17.49902,-2.3813 -24.53109,-8.79973 0.19295,8.40133 8.40741,18.79623 18.09583,23.43063 7.79161,3.72706 18.21258,4.40546 26.95775,1.01305 -0.48559,-3.90585 -2.50593,-17.14503 -3.19828,-21.23643 z"
         style="display:inline;fill:#00ff31;fill-opacity:1;fill-rule:evenodd;stroke:none;stroke-width:4.01067;stroke-linecap:round"
         id="path36"
         color="detail-1" /><path
         style="display:inline;fill:none;stroke:#000000;stroke-width:5;stroke-linecap:round;stroke-dasharray:none;stroke-opacity:1"
         d="m 493.45712,627.48158 c 0,0 10.1483,21.98858 18.65093,30.22738 9.44513,9.15203 30.3943,37.82779 36.17637,53.8626 17.38032,48.19902 -8.20264,130.38035 -4.01959,139.07809 9.28048,19.29682 66.0668,9.65832 78.62331,2.73335 20.18025,-11.12949 -5.70745,-167.45796 -32.15677,-190.04661 -11.46749,-9.79363 -19.52152,1.10567 -23.47443,-4.0196 -7.70399,-9.98884 20.60217,-67.64337 13.48508,-92.50753"
         id="path12"
         color="coat_contour" /></g></g></svg>
