<?xml version="1.0" encoding="UTF-8" standalone="no"?>
<!-- Created with Inkscape (http://www.inkscape.org/) -->

<svg
   width="1000"
   height="1000"
   viewBox="0 0 1000 1000"
   version="1.1"
   id="svg1"
   xml:space="preserve"
   xmlns="http://www.w3.org/2000/svg"
   xmlns:svg="http://www.w3.org/2000/svg"><defs
     id="defs1" /><g
     id="layer2"
     style="display:inline"
     data-layer="300"><title
       id="title7">coat</title><g
       id="g6"
       style="display:inline"><path
         style="display:inline;fill:#00ffff;stroke-width:0.885764"
         d="m 453.89251,605.19805 c 0,0 10.14829,21.98858 18.65093,30.22738 9.44513,9.15204 30.3943,37.8278 36.17637,53.86261 17.38031,48.19901 -8.20264,130.38034 -4.0196,139.07809 9.28049,19.29681 66.0668,9.65831 78.62331,2.73334 20.18026,-11.12949 -5.70744,-167.45796 -32.15677,-190.04661 -11.46748,-9.79363 -19.52151,1.10567 -23.47443,-4.0196 -7.70398,-9.98884 20.7837,-62.92385 13.6666,-87.78801 -9.52443,-33.27438 -87.46641,55.9528 -87.46641,55.9528 z"
         id="path5"
         color="coat" /><path
         d="m 575.37997,833.90861 c -11.95467,-9.73585 -7.0946,-25.42937 -48.52539,-35.22265 -8.11394,-1.91795 -13.38382,-4.35895 -16.99219,-4.55469 -2.85976,17.47173 -5.28332,30.38874 -3.75977,33.55664 7.75797,16.13107 48.71327,12.04181 69.27735,6.2207 z"
         style="display:inline;fill:#4700ff;fill-opacity:1;stroke:none;stroke-width:0.885764"
         id="path31"
         color="hooves" /><path
         d="m 588.86021,762.82978 c -7.1768,7.05557 -12.82374,6.02501 -19.66683,7.65649 -13.28654,3.16768 -24.71651,6.11888 -40.78485,3.96162 7.65759,9.23809 21.47457,13.04983 33.4794,16.06908 9.90308,2.49065 20.67533,6.03139 30.60304,1.38695 -0.55125,-5.34739 -2.84479,-23.47273 -3.63076,-29.07414 z"
         style="display:inline;fill:#00ff31;fill-opacity:1;fill-rule:evenodd;stroke:none;stroke-width:5;stroke-linecap:round"
         id="path37"
         color="detail-1" /><path
         d="m 578.08692,712.7066 c -6.32193,5.15356 -11.39844,4.28562 -17.32421,5.59248 -10.64334,2.34727 -17.98414,4.57213 -32.45476,3.97517 9.7337,8.07792 16.85926,8.67332 26.0195,10.65573 8.7888,1.90202 18.21258,4.40546 26.95775,1.01305 -0.48559,-3.90585 -2.50593,-17.14503 -3.19828,-21.23643 z"
         style="display:inline;fill:#00ff31;fill-opacity:1;fill-rule:evenodd;stroke:none;stroke-width:4.01067;stroke-linecap:round"
         id="path38"
         color="detail-1" /><path
         style="display:inline;fill:none;stroke:#000000;stroke-width:5;stroke-linecap:round;stroke-dasharray:none;stroke-opacity:1"
         d="m 453.89251,605.19805 c 0,0 10.14829,21.98858 18.65093,30.22738 9.44513,9.15204 30.3943,37.8278 36.17637,53.86261 17.38031,48.19901 -8.20264,130.38034 -4.0196,139.07809 9.28049,19.29681 66.0668,9.65831 78.62331,2.73334 20.18026,-11.12949 -5.70744,-167.45796 -32.15677,-190.04661 -11.46748,-9.79363 -19.52151,1.10567 -23.47443,-4.0196 -7.70398,-9.98884 20.7837,-62.92385 13.6666,-87.78801"
         id="path13"
         color="coat_contour" /></g><g
       id="g7"
       style="display:inline"><path
         style="display:inline;fill:#ffff00;stroke-width:0.885764"
         d="m 370.6182,604.97184 c -1.66046,33.20921 -5.09216,70.08834 -12.82192,105.84815 -13.22768,61.19456 -43.87146,104.69117 -36.05639,116.67678 15.05334,23.08663 65.21061,15.5523 86.18017,7.07448 9.41118,-3.80484 16.83872,-87.86802 16.72154,-129.9134 -0.0901,-32.36252 -14.14898,-91.9684 -14.14898,-91.9684 z"
         id="path2"
         color="coat" /><path
         d="m 393.09885,839.82508 c -13.07252,-11.08676 -21.33093,-31.00625 -50.27929,-39.04883 -6.39541,-1.77681 -10.13189,-4.70968 -13.11329,-5.48828 -6.63587,16.17448 -10.58837,27.46614 -7.16601,32.71485 12.03412,18.45617 46.50249,17.34273 70.55859,11.82226 z"
         style="display:inline;fill:#0800ff;fill-opacity:1;stroke:none;stroke-width:0.885764"
         id="path34"
         color="hooves" /><path
         d="m 421.26008,780.71435 c -12.51499,1.75434 -16.96198,-0.14645 -25.42623,-0.62917 -14.44068,-0.82356 -43.21993,-3.86536 -43.21993,-3.86536 0,0 20.81657,14.13992 32.43151,18.70407 10.06483,3.95502 16.03215,5.75442 31.61921,7.26036 1.0239,-4.85308 3.69945,-15.93936 4.59544,-21.4699 z"
         style="display:inline;fill:#5aca67;fill-opacity:1;fill-rule:evenodd;stroke:none;stroke-width:5.75121;stroke-linecap:round"
         id="path39"
         color="detail-1" /><path
         d="m 424.49423,731.33281 c -10.2101,1.53467 -13.16624,1.45889 -19.77322,1.3901 -13.05623,-0.13594 -39.00868,-3.56002 -39.00868,-3.56002 0,0 19.01264,10.84164 29.23691,14.60023 8.3116,3.05546 13.07951,5.03389 25.79589,6.35127 0.83533,-4.24541 3.01813,-13.94354 3.7491,-18.78158 z"
         style="display:inline;fill:#5aca67;fill-opacity:1;fill-rule:evenodd;stroke:none;stroke-width:4.85859;stroke-linecap:round"
         id="path40"
         color="detail-1" /><path
         style="display:inline;fill:none;stroke:#000000;stroke-width:5;stroke-linecap:round;stroke-dasharray:none;stroke-opacity:1"
         d="m 370.6182,604.97184 c -1.66046,33.20921 -5.09216,70.08834 -12.82192,105.84815 -13.22768,61.19456 -43.87146,104.69117 -36.05639,116.67678 15.05334,23.08663 65.21061,15.5523 86.18017,7.07448 9.41118,-3.80484 16.83872,-87.86802 16.72154,-129.9134 -0.0901,-32.36252 -14.14898,-91.9684 -14.14898,-91.9684"
         id="path11"
         color="coat_contour" /></g><g
       id="g8"
       style="display:inline"><path
         style="display:inline;fill:#ff0000;stroke-width:0.885764"
         d="m 363.54371,485.99176 c 0,0 -11.33843,59.47199 -9.64704,89.39583 3.38553,59.89623 32.19477,65.76825 63.67044,73.31748 36.90369,8.8511 114.78269,-0.57221 153.06629,-32.15681 18.10802,-14.93942 17.2904,-104.04133 -34.72933,-113.835 -36.52354,-6.87622 -71.93896,21.07753 -85.53704,12.21956 -13.5981,-8.85796 10.29018,-123.48202 10.29018,-123.48202 z"
         id="path1"
         color="coat" /><path
         d="m 444.65963,488.98066 c -1.44579,-1.4073 -9.55864,-3.11628 -12.51415,-3.5998 -5.21768,-0.8536 -24.21084,5.36727 -24.21083,5.36728 0,0 14.58329,-9.38636 19.43261,-10.29883 7.98141,-1.50181 19.14101,0.15529 19.14101,0.15529 -1.26965,9.60691 2.30612,4.25061 -1.84864,8.37606 z"
         style="fill:#5aca67;fill-opacity:1;fill-rule:evenodd;stroke:none;stroke-width:5;stroke-linecap:round"
         id="path14"
         color="detail-1" /><path
         d="m 444.33622,503.53435 c -1.44579,-1.4073 -10.20634,-0.82904 -15.91001,-0.85077 -5.70367,-0.0217 -25.01938,7.95459 -25.01937,7.9546 0,0 15.75772,-11.93306 20.56457,-13.04785 7.17286,-1.66352 21.24321,-2.10862 21.24321,-2.10862 -1.26965,9.60691 3.27636,3.92719 -0.8784,8.05264 z"
         style="display:inline;fill:#5aca67;fill-opacity:1;fill-rule:evenodd;stroke:none;stroke-width:5;stroke-linecap:round"
         id="path49"
         color="detail-1" /><path
         d="m 449.96161,517.08962 c -1.91504,-0.63516 -7.10621,1.8898 -15.40879,4.65581 -8.30259,2.76603 -26.29713,20.46523 -28.2227,24.46634 0,0 7.209,-14.41346 15.91792,-24.4661 8.7089,-10.05265 24.38631,-13.4728 24.38631,-13.4728 3.05063,9.19773 5.26484,3.29161 3.32726,8.81675 z"
         style="display:inline;fill:#5aca67;fill-opacity:1;fill-rule:evenodd;stroke:none;stroke-width:5;stroke-linecap:round"
         id="path41"
         color="detail-1" /><path
         d="m 459.15099,517.84335 c 1.25863,1.57691 1.61624,44.66275 1.07283,58.09478 -0.53049,13.11289 -12.11815,73.49527 -15.20569,76.68648 0,0 7.02154,-0.52053 10.33442,-0.53452 2.17506,-0.009 11.50111,-52.34121 14.42331,-76.00226 4.22601,-34.21805 -1.30967,-60.60433 -1.30967,-60.60433 -9.68513,0.3208 -3.18488,1.70242 -9.3152,2.35985 z"
         style="display:inline;fill:#5aca67;fill-opacity:1;fill-rule:evenodd;stroke:none;stroke-width:5;stroke-linecap:round"
         id="path42"
         color="detail-1" /><path
         d="m 535.35984,504.61923 c 1.33804,0.95561 5.37025,7.95019 7.5375,14.74469 2.16725,6.79446 3.044,10.21082 3.67968,14.37068 0,0 2.11907,-3.56662 3.58336,-11.70316 1.4643,-8.13655 -2.42269,-16.61708 -2.42269,-16.61708 -7.52051,2.40989 -4.88904,-4.29376 -9.54796,-2.41216 z"
         style="display:inline;fill:#5aca67;fill-opacity:1;fill-rule:evenodd;stroke:none;stroke-width:4.07472;stroke-linecap:round"
         id="path44"
         color="detail-1" /><path
         d="m 503.66514,502.84045 c 1.33804,0.95561 6.74238,5.77764 8.90963,12.57214 2.16725,6.79446 2.35794,12.26903 2.30755,16.54323 0,0 2.80514,-4.59572 4.26943,-12.73226 1.4643,-8.13655 -3.10876,-15.58798 -3.10876,-15.58798 -4.03361,-1.69637 -5.52984,-2.15542 -12.37785,-0.79513 z"
         style="display:inline;fill:#5aca67;fill-opacity:1;fill-rule:evenodd;stroke:none;stroke-width:4.07472;stroke-linecap:round"
         id="path46"
         color="detail-1" /><path
         d="m 522.80995,501.09575 c 1.18888,1.13582 4.18766,8.63184 5.36874,15.66513 1.18108,7.03326 2.02151,8.70995 2.06041,12.91792 0,0 3.86157,-4.94496 5.77966,-13.02004 1.91809,-8.07508 -1.0691,-13.01934 -1.0691,-13.01934 0.30509,-0.75343 -6.89173,-1.67258 -12.13971,-2.54367 z"
         style="display:inline;fill:#5aca67;fill-opacity:1;fill-rule:evenodd;stroke:none;stroke-width:4.07472;stroke-linecap:round"
         id="path47"
         color="detail-1" /><path
         d="m 484.50382,512.84735 c 1.58941,1.24281 10.78248,39.78085 10.27469,53.21428 -0.5078,13.43341 -15.38125,80.94069 -17.64642,84.75982 0,0 0.95044,0.50282 4.17014,-0.27751 2.11393,-0.51213 19.30771,-46.7164 20.22077,-84.61068 0.91306,-37.89427 -8.50302,-57.53754 -8.50302,-57.53754 -9.34795,2.55355 -2.70442,2.39329 -8.51616,4.45163 z"
         style="display:inline;fill:#5aca67;fill-opacity:1;fill-rule:evenodd;stroke:none;stroke-width:5;stroke-linecap:round"
         id="path48"
         color="detail-1" /><path
         style="display:inline;fill:none;stroke:#000000;stroke-width:5;stroke-linecap:round;stroke-dasharray:none;stroke-opacity:1"
         d="m 363.54371,485.99176 c 0,0 -11.33843,59.47199 -9.64704,89.39583 3.38553,59.89623 32.19477,65.76825 63.67044,73.31748 36.90369,8.8511 114.78269,-0.57221 153.06629,-32.15681 18.10802,-14.93942 17.2904,-104.04133 -34.72933,-113.835 -36.52354,-6.87622 -71.93896,21.07753 -85.53704,12.21956 -13.5981,-8.85796 4.1185,-87.17802 4.1185,-87.17802 z"
         id="path9"
         color="coat_contour" /><path
         d="m 436.56551,587.95441 c -5.6423,10.60706 -20.51516,8.96471 -9.94333,-9.40196 10.57185,-18.36668 16.99558,-3.85564 9.94333,9.40196 z"
         style="display:inline;fill:#5aca67;fill-opacity:1;fill-rule:evenodd;stroke:none;stroke-width:5.06132;stroke-linecap:round"
         id="path50"
         color="detail-1" /><path
         d="m 472.19378,580.35137 c 0.87968,-11.38998 18.77467,-17.41431 14.75187,0.08 -4.0228,17.49431 -15.71042,12.33121 -14.75187,-0.08 z"
         style="display:inline;fill:#5aca67;fill-opacity:1;fill-rule:evenodd;stroke:none;stroke-width:4.45003;stroke-linecap:round"
         id="path51"
         color="detail-1" /><path
         d="m 522.84699,572.39448 c 1.52707,8.87164 -8.8943,17.40517 -11.01985,1.53893 -2.12555,-15.86625 9.11119,-12.62748 11.01985,-1.53893 z"
         style="display:inline;fill:#5aca67;fill-opacity:1;fill-rule:evenodd;stroke:none;stroke-width:4.02228;stroke-linecap:round"
         id="path52"
         color="detail-1" /></g><g
       id="g9"
       style="display:inline"><path
         style="display:inline;fill:#00ffff;stroke-width:0.885764"
         d="m 400.20244,629.41103 c -1.66046,33.20921 -5.09217,70.08834 -12.82193,105.84815 -13.22768,61.19456 -43.87145,104.69116 -36.05637,116.67678 15.05335,23.08663 65.21062,15.5523 86.18016,7.07448 9.41119,-3.80485 16.83871,-87.86802 16.72154,-129.9134 -0.09,-32.36252 -14.14898,-91.9684 -14.14898,-91.9684 z"
         id="path10"
         color="coat" /><path
         d="m 438.05357,859.55341 c 20.23926,-26.61069 -20.36069,-27.77209 -63.86273,-36.78492 -6.49961,-1.3466 -12.71921,-2.76919 -15.70061,-3.54779 -6.63587,16.17448 -10.58837,27.46614 -7.16601,32.71485 12.03412,18.45617 56.52836,15.72565 86.72935,7.61786 z"
         style="display:inline;fill:#0800ff;fill-opacity:1;stroke:none;stroke-width:0.885764"
         id="path33"
         color="hooves" /><path
         d="m 450.39833,795.22044 c -9.45914,1.75434 -12.87827,0.31449 -19.21777,-0.62917 -12.90898,-1.92156 -28.15098,-4.87703 -37.80924,-10.17196 -6.38692,-3.5015 18.29315,18.83619 29.65508,25.01067 7.31528,3.97539 12.1175,5.75442 23.89858,7.26036 0.77389,-4.85308 2.79614,-15.93936 3.47335,-21.4699 z"
         style="display:inline;fill:#5aca67;fill-opacity:1;fill-rule:evenodd;stroke:none;stroke-width:5;stroke-linecap:round"
         id="path17"
         color="detail-1" /><path
         d="m 455.24955,708.32273 c -8.27473,1.53467 -9.89237,1.38011 -14.87096,1.3901 -12.11179,0.0243 -26.12502,-1.83878 -36.191,-3.23661 8.96651,7.60962 15.8015,11.87826 24.85345,15.57048 7.31972,2.98565 12.86414,3.74023 23.17007,5.05761 0.67699,-4.24541 2.44603,-13.94354 3.03844,-18.78158 z"
         style="display:inline;fill:#5aca67;fill-opacity:1;fill-rule:evenodd;stroke:none;stroke-width:4.37393;stroke-linecap:round"
         id="path35"
         color="detail-1" /><path
         style="display:inline;fill:none;stroke:#000000;stroke-width:5;stroke-linecap:round;stroke-dasharray:none;stroke-opacity:1"
         d="m 400.20244,629.41103 c -1.66046,33.20921 -5.09217,70.08834 -12.82193,105.84815 -13.22768,61.19456 -43.87145,104.69116 -36.05637,116.67678 15.05335,23.08663 65.21062,15.5523 86.18016,7.07448 9.41119,-3.80485 16.83871,-87.86802 16.72154,-129.9134 -0.09,-32.36252 -14.14898,-91.9684 -14.14898,-91.9684"
         id="path3"
         color="coat_contour" /></g><g
       id="g10"
       style="display:inline"><path
         style="display:inline;fill:#ffff00;stroke-width:0.885764"
         d="m 493.45712,627.48158 c 0,0 10.1483,21.98858 18.65093,30.22738 9.44513,9.15203 30.3943,37.82779 36.17637,53.8626 17.38032,48.19902 -8.20264,130.38035 -4.01959,139.07809 9.28048,19.29682 66.0668,9.65832 78.62331,2.73335 20.18025,-11.12949 -5.70745,-167.45796 -32.15677,-190.04661 -11.46749,-9.79363 -19.52152,1.10567 -23.47443,-4.0196 -7.70399,-9.98884 21.95165,-63.28827 13.6666,-87.78801 -7.69493,-22.75468 -87.46642,55.9528 -87.46642,55.9528 z"
         id="path4"
         color="coat" /><path
         d="m 623.89226,852.99011 c 2.03579,-6.13713 12.47073,-11.158 3.12812,-16.09119 -14.1413,-7.46704 -45.44528,-15.59681 -58.76865,-18.80805 -13.32336,-3.21123 -16.61797,-0.80138 -20.22634,-0.99712 -2.85976,17.47173 -5.28332,30.38874 -3.75977,33.55664 7.75797,16.13107 59.06256,8.16083 79.62664,2.33972 z"
         style="display:inline;fill:#4700ff;fill-opacity:1;stroke:none;stroke-width:0.885764"
         id="path30"
         color="hooves" /><path
         d="m 626.36523,776.09375 c -7.1768,7.05557 -11.34215,8.93806 -18.04975,11.21406 -12.21841,4.1459 -25.36334,3.53156 -38.52095,3.79991 13.47907,7.62101 20.02603,10.2628 30.89208,12.67322 9.54861,2.11817 19.38167,6.03139 29.30938,1.38695 -0.55125,-5.34739 -2.84479,-23.47273 -3.63076,-29.07414 z"
         style="display:inline;fill:#00ff31;fill-opacity:1;fill-rule:evenodd;stroke:none;stroke-width:5;stroke-linecap:round"
         id="path25"
         color="detail-1" /><path
         d="m 615.59194,725.97057 c -5.06414,4.63901 -10.25125,6.35323 -15.95208,8.10806 -9.77346,3.00847 -17.57749,2.54167 -30.43103,3.88521 11.8359,6.46084 18.51483,8.50159 28.44511,10.1706 13.08215,2.19875 16.05014,1.32152 24.10924,1.07359 -0.48559,-3.90585 -5.47889,-19.14606 -6.17124,-23.23746 z"
         style="display:inline;fill:#00ff31;fill-opacity:1;fill-rule:evenodd;stroke:none;stroke-width:4.01067;stroke-linecap:round"
         id="path36"
         color="detail-1" /><path
         d="m 597.15727,667.109 c -5.06414,4.63901 -10.68103,9.1702 -16.98118,12.11012 -13.20702,6.16296 -29.46933,9.63103 -42.32287,10.97457 3.14572,7.94732 13.04779,7.70615 28.10208,6.16854 21.07431,-2.15248 30.5719,-6.56825 38.631,-6.81618 -0.48559,-3.90585 -6.73668,-18.34565 -7.42903,-22.43705 z"
         style="display:inline;fill:#00ff31;fill-opacity:1;fill-rule:evenodd;stroke:none;stroke-width:4.01067;stroke-linecap:round"
         id="path45"
         color="detail-1" /><path
         style="display:inline;fill:none;stroke:#000000;stroke-width:5;stroke-linecap:round;stroke-dasharray:none;stroke-opacity:1"
         d="m 493.45712,627.48158 c 0,0 10.1483,21.98858 18.65093,30.22738 9.44513,9.15203 30.3943,37.82779 36.17637,53.8626 17.38032,48.19902 -8.20264,130.38035 -4.01959,139.07809 9.28048,19.29682 66.0668,9.65832 78.62331,2.73335 20.18025,-11.12949 -5.70745,-167.45796 -32.15677,-190.04661 -11.46749,-9.79363 -19.52152,1.10567 -23.47443,-4.0196 -7.70399,-9.98884 20.60217,-67.64337 13.48508,-92.50753"
         id="path12"
         color="coat_contour" /></g></g></svg>
