<?xml version="1.0" encoding="UTF-8" standalone="no"?>
<!-- Created with Inkscape (http://www.inkscape.org/) -->

<svg
   width="1000"
   height="1000"
   viewBox="0 0 1000 1000"
   version="1.1"
   id="svg1"
   xml:space="preserve"
   xmlns="http://www.w3.org/2000/svg"
   xmlns:svg="http://www.w3.org/2000/svg"><defs
     id="defs1" /><g
     id="layer2"
     style="display:inline"
     data-layer="300"><title
       id="title7">coat</title><g
       id="g6"
       style="display:inline"><path
         style="display:inline;fill:#00ffff;stroke-width:0.885764"
         d="m 453.89251,605.19805 c 0,0 10.14829,21.98858 18.65093,30.22738 9.44513,9.15204 30.3943,37.8278 36.17637,53.86261 17.38031,48.19901 -8.20264,130.38034 -4.0196,139.07809 9.28049,19.29681 66.0668,9.65831 78.62331,2.73334 20.18026,-11.12949 -5.70744,-167.45796 -32.15677,-190.04661 -11.46748,-9.79363 -19.52151,1.10567 -23.47443,-4.0196 -7.70398,-9.98884 20.7837,-62.92385 13.6666,-87.78801 -9.52443,-33.27438 -87.46641,55.9528 -87.46641,55.9528 z"
         id="path5"
         color="coat" /><path
         d="m 583.78877,831.6447 c 17.47612,-26.23003 -36.43185,-17.39471 -51.43613,-19.05188 -14.70378,-1.62398 -21.79262,-5.97603 -25.40099,-6.17177 -2.85976,17.47173 -2.37258,18.09896 -0.84903,21.26686 7.75797,16.13107 57.12207,9.7779 77.68615,3.95679 z"
         style="display:inline;fill:#4700ff;fill-opacity:1;stroke:none;stroke-width:0.885764"
         id="path31"
         color="hooves" /><path
         d="m 549.23178,638.76571 c -28.23489,-2.18461 -37.30843,6.61026 -46.89076,9.20365 -7.55176,2.04384 -9.94362,1.96178 -15.52365,4.74458 2.91384,2.48226 5.06114,6.86253 7.03124,9.08007 2.24985,2.53245 3.46518,5.73023 5.48453,8.64131 4.0248,-1.74556 4.80243,-2.62435 9.16161,-3.98867 11.05689,-3.46055 36.72266,-7.51513 53.68767,-9.97509 -4.29768,-6.19765 -8.64755,-12.15307 -12.95064,-17.70585 z"
         style="display:inline;fill:#00ff31;fill-opacity:1;fill-rule:evenodd;stroke:none;stroke-width:5;stroke-linecap:round"
         id="path27"
         color="detail-1" /><path
         d="m 536.37606,597.4703 c -14.78147,1.39686 -39.08744,5.30477 -52.35742,16.1836 -7.69273,6.30655 -12.55935,11.0971 -15.63477,14.60156 1.85184,2.667 3.74393,5.0542 5.56055,6.81445 2.56141,2.48193 9.9719,14.06031 13.69347,18.77242 3.36829,-3.50734 31.49637,-4.35846 37.75474,-8.63856 6.08176,-4.15932 -6.77116,-22.71712 5.0889,-28.24323 1.61811,-5.87468 3.77188,-12.55279 5.89453,-19.49024 z"
         style="display:inline;fill:#00ff31;fill-opacity:1;fill-rule:evenodd;stroke:none;stroke-width:5;stroke-linecap:round"
         id="path28"
         color="detail-1" /><path
         style="display:inline;fill:none;stroke:#000000;stroke-width:5;stroke-linecap:round;stroke-dasharray:none;stroke-opacity:1"
         d="m 453.89251,605.19805 c 0,0 10.14829,21.98858 18.65093,30.22738 9.44513,9.15204 30.3943,37.8278 36.17637,53.86261 17.38031,48.19901 -8.20264,130.38034 -4.0196,139.07809 9.28049,19.29681 66.0668,9.65831 78.62331,2.73334 20.18026,-11.12949 -5.70744,-167.45796 -32.15677,-190.04661 -11.46748,-9.79363 -19.52151,1.10567 -23.47443,-4.0196 -7.70398,-9.98884 20.7837,-62.92385 13.6666,-87.78801"
         id="path13"
         color="coat_contour" /></g><g
       id="g7"
       style="display:inline"><path
         style="display:inline;fill:#ffff00;stroke-width:0.885764"
         d="m 370.6182,604.97184 c -1.66046,33.20921 -5.09216,70.08834 -12.82192,105.84815 -13.22768,61.19456 -43.87146,104.69117 -36.05639,116.67678 15.05334,23.08663 65.21061,15.5523 86.18017,7.07448 9.41118,-3.80484 16.83872,-87.86802 16.72154,-129.9134 -0.0901,-32.36252 -14.14898,-91.9684 -14.14898,-91.9684 z"
         id="path2"
         color="coat" /><path
         d="m 393.09885,839.82508 c 55.07684,-19.54826 -30.44109,-21.68408 -41.81779,-23.72666 -13.6273,-2.44665 -24.53931,-8.59739 -27.52071,-9.37599 -6.63587,16.17448 -4.64245,16.03168 -1.22009,21.28039 12.03412,18.45617 46.50249,17.34273 70.55859,11.82226 z"
         style="display:inline;fill:#0800ff;fill-opacity:1;stroke:none;stroke-width:0.885764"
         id="path34"
         color="hooves" /><path
         d="m 423.62891,687.26562 c -8.61055,-3.56983 -16.1918,-8.10511 -21.23122,-10.34817 -5.81107,-2.58652 -18.41437,1.21077 -26.1351,9.65908 -7.03864,-5.84085 -4.76925,-31.88075 -8.97743,-37.0277 -1.28807,12.50314 -2.93221,25.2058 -5.04102,37.89844 3.42823,-8.31154 5.61609,3.63507 10.78211,15.42061 20.10395,-29.66646 40.98834,3.92372 51.61437,4.08329 0.003,-0.77754 0.002,-1.54157 0,-2.29297 -0.0145,-5.21196 -0.38966,-11.13017 -1.01171,-17.39258 z"
         style="display:inline;fill:#00ff31;fill-opacity:1;stroke:none;stroke-width:0.885764"
         id="path20"
         color="detail-1" /><path
         style="display:inline;fill:none;stroke:#000000;stroke-width:5;stroke-linecap:round;stroke-dasharray:none;stroke-opacity:1"
         d="m 370.6182,604.97184 c -1.66046,33.20921 -5.09216,70.08834 -12.82192,105.84815 -13.22768,61.19456 -43.87146,104.69117 -36.05639,116.67678 15.05334,23.08663 65.21061,15.5523 86.18017,7.07448 9.41118,-3.80484 16.83872,-87.86802 16.72154,-129.9134 -0.0901,-32.36252 -14.14898,-91.9684 -14.14898,-91.9684"
         id="path11"
         color="coat_contour" /></g><g
       id="g8"
       style="display:inline"><path
         style="display:inline;fill:#ff0000;stroke-width:0.885764"
         d="m 363.54371,485.99176 c 0,0 -11.33843,59.47199 -9.64704,89.39583 3.38553,59.89623 32.19477,65.76825 63.67044,73.31748 36.90369,8.8511 114.78269,-0.57221 153.06629,-32.15681 18.10802,-14.93942 17.2904,-104.04133 -34.72933,-113.835 -36.52354,-6.87622 -71.93896,21.07753 -85.53704,12.21956 -13.5981,-8.85796 10.29018,-123.48202 10.29018,-123.48202 z"
         id="path1"
         color="coat" /><path
         d="m 499.4658,506.50128 c 1.73694,2.09576 5.54506,4.61948 6.83329,7.32305 2.27425,4.77289 1.86517,10.0302 2.72276,12.43143 0,0 4.7833,-5.97515 5.36566,-10.87508 0.64996,-5.46862 -0.88908,-11.43811 -0.88908,-11.43811 -4.47429,-0.49687 -7.24589,0.5857 -14.03263,2.55871 z"
         style="display:inline;fill:#5aca67;fill-opacity:1;fill-rule:evenodd;stroke:none;stroke-width:5;stroke-linecap:round"
         id="path6"
         color="detail-1" /><path
         d="m 541.10076,505.23816 c 0.27485,2.70808 6.7451,5.15312 6.51081,13.53316 -0.14776,5.28498 -4.91631,10.10001 -7.05893,12.52561 0,0 8.48419,-3.43017 11.69762,-7.17482 3.58639,-4.17924 1.92918,-13.19104 1.92918,-13.19104 -3.43879,-2.9053 -6.34355,-3.55038 -13.0787,-5.69291 z"
         style="display:inline;fill:#5aca67;fill-opacity:1;fill-rule:evenodd;stroke:none;stroke-width:5;stroke-linecap:round"
         id="path7"
         color="detail-1" /><path
         d="m 512.66207,503.60682 c 1.4663,2.29329 7.01693,7.89186 7.96324,10.73322 1.67063,5.01615 1.55709,10.85468 0.98537,13.31308 0,0 4.49706,-6.3179 5.67701,-11.10916 1.31691,-5.34734 -0.38494,-13.75242 -0.38494,-13.75242 -4.37934,-1.04282 -7.26295,-0.30896 -14.24068,0.81528 z"
         style="fill:#5aca67;fill-opacity:1;fill-rule:evenodd;stroke:none;stroke-width:5;stroke-linecap:round"
         id="path14"
         color="detail-1" /><path
         d="m 452.73229,517.90778 c 3.78553,4.56754 11.17549,10.20412 11.9278,22.19824 1.1767,18.76022 -5.059,35.01863 -6.96332,40.02324 0,0 20.00622,-5.25591 27.90741,-35.25916 3.05654,-11.60661 -2.93567,-33.42824 -2.93567,-33.42824 -9.75138,1.26187 -14.90248,3.78296 -29.93622,6.46592 z"
         style="display:inline;fill:#5aca67;fill-opacity:1;fill-rule:evenodd;stroke:none;stroke-width:10.8971;stroke-linecap:round"
         id="path8"
         color="detail-1" /><path
         d="m 446.6018,512.33637 c 1.34387,5.77812 5.83387,12.92542 2.19943,24.38036 -3.13099,9.86817 -15.00778,14.9929 -18.94877,18.61797 0,0 9.24898,2.14152 23.58635,-4.99225 10.74566,-5.34665 17.33321,-27.65583 17.33321,-27.65583 -7.66951,-5.33344 -10.81694,-3.92613 -24.17022,-10.35025 z"
         style="display:inline;fill:#5aca67;fill-opacity:1;fill-rule:evenodd;stroke:none;stroke-width:10.8971;stroke-linecap:round"
         id="path15"
         color="detail-1" /><path
         d="m 449.49016,569.3321 c -0.55239,6.98161 -4.20429,10.57572 -7.40739,13.22608 -3.17957,2.63089 -9.43602,4.30568 -13.69142,5.46957 0,0 7.21305,3.41646 14.38789,0.7782 7.17533,-2.63849 10.05994,-10.66512 6.71092,-19.47385 z"
         style="display:inline;fill:#5aca67;fill-opacity:1;fill-rule:evenodd;stroke:none;stroke-width:6.94109;stroke-linecap:round"
         id="path18"
         color="detail-1" /><path
         d="m 444.36239,480.45233 c -2.85283,5.20134 -9.77297,10.61056 -20.92993,15.10372 -9.60344,3.86753 -24.73952,-4.01463 -30.0937,-3.94248 0,0 5.46249,7.76473 20.90281,12.01295 11.5723,3.184 31.36084,-9.04339 31.36084,-9.04339 -2.15667,-9.08932 0.70455,1.01764 -1.24002,-14.1308 z"
         style="display:inline;fill:#5aca67;fill-opacity:1;fill-rule:evenodd;stroke:none;stroke-width:10.8971;stroke-linecap:round"
         id="path19"
         color="detail-1" /><path
         d="m 444.84751,491.61016 c -17.89164,8.11208 -17.37323,29.20694 -28.53019,33.7001 -9.60344,3.86753 -21.66707,-6.27854 -27.02125,-6.20639 0,0 6.75615,9.05839 22.19647,13.30661 11.5723,3.184 34.59499,-26.66952 34.59499,-26.66952 -2.15667,-9.08932 0.70455,1.01764 -1.24002,-14.1308 z"
         style="display:inline;fill:#5aca67;fill-opacity:1;fill-rule:evenodd;stroke:none;stroke-width:10.8971;stroke-linecap:round"
         id="path21"
         color="detail-1" /><path
         style="display:inline;fill:none;stroke:#000000;stroke-width:5;stroke-linecap:round;stroke-dasharray:none;stroke-opacity:1"
         d="m 363.54371,485.99176 c 0,0 -11.33843,59.47199 -9.64704,89.39583 3.38553,59.89623 32.19477,65.76825 63.67044,73.31748 36.90369,8.8511 114.78269,-0.57221 153.06629,-32.15681 18.10802,-14.93942 17.2904,-104.04133 -34.72933,-113.835 -36.52354,-6.87622 -71.93896,21.07753 -85.53704,12.21956 -13.5981,-8.85796 4.1185,-87.17802 4.1185,-87.17802 z"
         id="path9"
         color="coat_contour" /></g><g
       id="g9"
       style="display:inline"><path
         style="display:inline;fill:#00ffff;stroke-width:0.885764"
         d="m 400.20244,629.41103 c -1.66046,33.20921 -5.09217,70.08834 -12.82193,105.84815 -13.22768,61.19456 -43.87145,104.69116 -36.05637,116.67678 15.05335,23.08663 65.21062,15.5523 86.18016,7.07448 9.41119,-3.80485 16.83871,-87.86802 16.72154,-129.9134 -0.09,-32.36252 -14.14898,-91.9684 -14.14898,-91.9684 z"
         id="path10"
         color="coat" /><path
         d="m 421.88281,863.75781 c 23.21488,-8.00166 25.9059,-15.26257 15.31551,-19.39918 -12.21612,-4.77162 -41.14205,-6.02758 -60.90528,-9.94719 -9.12239,-1.80923 -18.37898,-6.00334 -21.36038,-6.78194 -6.63587,16.17448 -7.0308,19.05734 -3.60844,24.30605 12.03412,18.45617 46.50249,17.34273 70.55859,11.82226 z"
         style="display:inline;fill:#0800ff;fill-opacity:1;stroke:none;stroke-width:0.885764"
         id="path33"
         color="hooves" /><path
         d="m 430.10705,684.77788 c -9.76103,-2.57782 -20.94962,5.88772 -23.37925,11.88308 9.78021,-4.49398 16.71564,-4.8196 21.56994,-3.66207 5.7734,1.37669 11.76535,6.30316 16.8647,10.23193 -1.97514,-5.98503 -5.0231,-15.80349 -15.05539,-18.45294 z"
         style="display:inline;fill:#5aca67;fill-opacity:1;fill-rule:evenodd;stroke:none;stroke-width:5;stroke-linecap:round"
         id="path17"
         color="detail-1" /><path
         d="m 449.03476,683.94401 c -8.0453,-8.85824 -25.64044,-17.71994 -43.41232,-2.25747 -2.65411,-7.04191 -0.0229,-27.66227 -6.91736,-28.3174 -0.48261,6.356 -1.04401,12.79739 -1.70117,19.29492 2.25894,7.44596 -0.0127,13.33627 5.17965,20.51849 22.52716,-18.25217 34.67557,-16.15513 50.02751,8.95989 -0.80152,-4.83428 -2.33352,-13.69478 -3.17631,-18.19843 z"
         style="display:inline;fill:#5aca67;fill-opacity:1;fill-rule:evenodd;stroke:none;stroke-width:5;stroke-linecap:round"
         id="path16"
         color="detail-1" /><path
         style="display:inline;fill:none;stroke:#000000;stroke-width:5;stroke-linecap:round;stroke-dasharray:none;stroke-opacity:1"
         d="m 400.20244,629.41103 c -1.66046,33.20921 -5.09217,70.08834 -12.82193,105.84815 -13.22768,61.19456 -43.87145,104.69116 -36.05637,116.67678 15.05335,23.08663 65.21062,15.5523 86.18016,7.07448 9.41119,-3.80485 16.83871,-87.86802 16.72154,-129.9134 -0.09,-32.36252 -14.14898,-91.9684 -14.14898,-91.9684"
         id="path3"
         color="coat_contour" /></g><g
       id="g10"
       style="display:inline"><path
         style="display:inline;fill:#ffff00;stroke-width:0.885764"
         d="m 493.45712,627.48158 c 0,0 10.1483,21.98858 18.65093,30.22738 9.44513,9.15203 30.3943,37.82779 36.17637,53.8626 17.38032,48.19902 -8.20264,130.38035 -4.01959,139.07809 9.28048,19.29682 66.0668,9.65832 78.62331,2.73335 20.18025,-11.12949 -5.70745,-167.45796 -32.15677,-190.04661 -11.46749,-9.79363 -19.52152,1.10567 -23.47443,-4.0196 -7.70399,-9.98884 21.95165,-63.28827 13.6666,-87.78801 -7.69493,-22.75468 -87.46642,55.9528 -87.46642,55.9528 z"
         id="path4"
         color="coat" /><path
         d="m 623.14791,852.75469 c 21.43395,-24.37196 -27.78366,-19.33603 -54.01393,-21.04393 -8.31992,-0.54172 -18.87235,-5.73108 -22.48072,-5.92682 -2.85976,17.47173 -3.91119,21.69855 -2.38764,24.86645 7.75797,16.13107 58.31821,7.92541 78.88229,2.1043 z"
         style="display:inline;fill:#4700ff;fill-opacity:1;stroke:none;stroke-width:0.885764"
         id="path30"
         color="hooves" /><path
         d="m 616.66277,728.06658 c -3.9178,1.9193 -13.80571,-5.95035 -17.41815,-1.7504 -9.13984,10.62628 -16.3173,17.96048 -28.45681,34.99257 -6.20043,-13.04823 -11.3381,-20.24299 -16.98272,-30.13432 -0.38949,6.6631 1.25255,18.3065 0.50219,24.74731 9.88909,7.72335 6.60094,6.31806 15.49317,14.22401 13.9383,-11.35807 38.20338,-30.22083 49.84625,-28.69067 -0.55125,-5.34739 -2.19796,-7.78709 -2.98393,-13.3885 z"
         style="display:inline;fill:#00ff31;fill-opacity:1;fill-rule:evenodd;stroke:none;stroke-width:5;stroke-linecap:round"
         id="path25"
         color="detail-1" /><path
         d="m 612.86719,711.23437 c -13.50101,2.46184 -20.76418,3.44724 -30.62456,2.29846 -7.77089,-0.90534 -31.999,-11.82485 -38.21333,-11.31213 1.78427,3.38652 3.24965,6.56117 4.25586,9.35157 1.14909,3.18665 2.10978,6.52193 2.90429,9.9746 5.51714,1.97532 10.47737,8.65051 21.33814,18.86591 15.59417,-8.97323 34.78641,-17.27977 45.79272,-7.93036 -1.69012,-7.35013 -3.51861,-14.49471 -5.45312,-21.24805 z"
         style="display:inline;fill:#00ff31;fill-opacity:1;fill-rule:evenodd;stroke:none;stroke-width:5;stroke-linecap:round"
         id="path24"
         color="detail-1" /><path
         style="display:inline;fill:none;stroke:#000000;stroke-width:5;stroke-linecap:round;stroke-dasharray:none;stroke-opacity:1"
         d="m 493.45712,627.48158 c 0,0 10.1483,21.98858 18.65093,30.22738 9.44513,9.15203 30.3943,37.82779 36.17637,53.8626 17.38032,48.19902 -8.20264,130.38035 -4.01959,139.07809 9.28048,19.29682 66.0668,9.65832 78.62331,2.73335 20.18025,-11.12949 -5.70745,-167.45796 -32.15677,-190.04661 -11.46749,-9.79363 -19.52152,1.10567 -23.47443,-4.0196 -7.70399,-9.98884 20.60217,-67.64337 13.48508,-92.50753"
         id="path12"
         color="coat_contour" /></g></g></svg>
