<?xml version="1.0" encoding="UTF-8" standalone="no"?>
<!-- Created with Inkscape (http://www.inkscape.org/) -->

<svg
   width="1000"
   height="1000"
   viewBox="0 0 1000 1000"
   version="1.1"
   id="svg1"
   xml:space="preserve"
   xmlns="http://www.w3.org/2000/svg"
   xmlns:svg="http://www.w3.org/2000/svg"><defs
     id="defs1" /><g
     id="layer2"
     style="display:inline"
     data-layer="300"><title
       id="title7">coat</title><g
       id="g6"
       style="display:inline"><path
         style="display:inline;fill:#00ffff;stroke-width:0.885764"
         d="m 453.89251,605.19805 c 0,0 10.14829,21.98858 18.65093,30.22738 9.44513,9.15204 30.3943,37.8278 36.17637,53.86261 17.38031,48.19901 -8.20264,130.38034 -4.0196,139.07809 9.28049,19.29681 66.0668,9.65831 78.62331,2.73334 20.18026,-11.12949 -5.70744,-167.45796 -32.15677,-190.04661 -11.46748,-9.79363 -19.52151,1.10567 -23.47443,-4.0196 -7.70398,-9.98884 20.7837,-62.92385 13.6666,-87.78801 -9.52443,-33.27438 -87.46641,55.9528 -87.46641,55.9528 z"
         id="path5"
         color="coat" /><path
         d="m 575.37997,833.90861 c -11.95467,-9.73585 -7.0946,-25.42937 -48.52539,-35.22265 -8.11394,-1.91795 -13.38382,-4.35895 -16.99219,-4.55469 -2.85976,17.47173 -5.28332,30.38874 -3.75977,33.55664 7.75797,16.13107 48.71327,12.04181 69.27735,6.2207 z"
         style="display:inline;fill:#4700ff;fill-opacity:1;stroke:none;stroke-width:0.885764"
         id="path31"
         color="hooves" /><path
         d="m 536.37606,597.4703 c -14.78147,1.39686 -39.08744,5.30477 -52.35742,16.1836 -7.69273,6.30655 -12.55935,11.0971 -15.63477,14.60156 1.85184,2.667 3.74393,5.0542 5.56055,6.81445 2.56141,2.48193 5.96984,6.39922 9.69141,11.11133 3.36829,-3.50734 8.51311,-8.36052 14.77148,-12.64062 6.08176,-4.15932 20.21416,-11.05397 32.07422,-16.58008 1.61811,-5.87468 3.77188,-12.55279 5.89453,-19.49024 z"
         style="display:inline;fill:#00ff31;fill-opacity:1;fill-rule:evenodd;stroke:none;stroke-width:5;stroke-linecap:round"
         id="path28"
         color="detail-1" /><path
         d="m 532.21052,738.64899 c 9.60241,-0.22128 16.52476,-1.22502 27.42879,-4.14817 9.7933,-2.62539 15.01405,-4.87724 21.86506,-8.81329 3.90133,21.27633 4.55081,27.96575 2.18543,30.03519 -1.50966,1.32078 -11.28298,5.41668 -15.16244,6.41074 -7.19471,1.84355 -16.75987,3.92751 -31.86222,5.75137 -1.16224,-4.90963 -4.59376,-22.8259 -4.45462,-29.23584 z"
         style="display:inline;fill:#00ff31;fill-opacity:1;fill-rule:evenodd;stroke:none;stroke-width:5;stroke-linecap:round"
         id="path37"
         color="detail-1" /><path
         d="m 525.57827,692.56813 c 9.00005,-0.22128 15.48816,-1.22502 25.70818,-4.14817 9.17897,-2.62539 14.07222,-4.87724 20.49347,-8.81329 3.6566,21.27633 4.26533,27.96575 2.04833,30.03519 -1.41495,1.32078 -10.57519,5.41668 -14.21129,6.41074 -6.74339,1.84355 -15.70853,3.92751 -29.8635,5.75137 -1.08934,-4.90963 -4.3056,-22.8259 -4.17519,-29.23584 z"
         style="display:inline;fill:#00ff31;fill-opacity:1;fill-rule:evenodd;stroke:none;stroke-width:4.84063;stroke-linecap:round"
         id="path6"
         color="detail-1" /><path
         style="display:inline;fill:none;stroke:#000000;stroke-width:5;stroke-linecap:round;stroke-dasharray:none;stroke-opacity:1"
         d="m 453.89251,605.19805 c 0,0 10.14829,21.98858 18.65093,30.22738 9.44513,9.15204 30.3943,37.8278 36.17637,53.86261 17.38031,48.19901 -8.20264,130.38034 -4.0196,139.07809 9.28049,19.29681 66.0668,9.65831 78.62331,2.73334 20.18026,-11.12949 -5.70744,-167.45796 -32.15677,-190.04661 -11.46748,-9.79363 -19.52151,1.10567 -23.47443,-4.0196 -7.70398,-9.98884 20.7837,-62.92385 13.6666,-87.78801"
         id="path13"
         color="coat_contour" /></g><g
       id="g7"
       style="display:inline"><path
         style="display:inline;fill:#ffff00;stroke-width:0.885764"
         d="m 370.6182,604.97184 c -1.66046,33.20921 -5.09216,70.08834 -12.82192,105.84815 -13.22768,61.19456 -43.87146,104.69117 -36.05639,116.67678 15.05334,23.08663 65.21061,15.5523 86.18017,7.07448 9.41118,-3.80484 16.83872,-87.86802 16.72154,-129.9134 -0.0901,-32.36252 -14.14898,-91.9684 -14.14898,-91.9684 z"
         id="path2"
         color="coat" /><path
         d="m 393.09885,839.82508 c -13.07252,-11.08676 -21.33093,-31.00625 -50.27929,-39.04883 -6.39541,-1.77681 -10.13189,-4.70968 -13.11329,-5.48828 -6.63587,16.17448 -10.58837,27.46614 -7.16601,32.71485 12.03412,18.45617 46.50249,17.34273 70.55859,11.82226 z"
         style="display:inline;fill:#0800ff;fill-opacity:1;stroke:none;stroke-width:0.885764"
         id="path34"
         color="hooves" /><path
         d="m 391.29756,768.06476 c -8.7384,-2.1657 -14.85501,-4.55111 -24.1991,-9.61879 -8.39229,-4.55147 -12.68153,-7.80986 -18.09763,-13.04348 -8.17883,19.97899 -10.22222,26.3777 -8.50617,28.87826 1.09524,1.59593 9.15067,7.57894 12.48509,9.33707 6.1839,3.26059 14.48471,7.23717 27.90846,12.08409 2.12703,-4.55706 9.14809,-21.35116 10.40935,-27.63715 z"
         style="display:inline;fill:#00ff31;fill-opacity:1;fill-rule:evenodd;stroke:none;stroke-width:4.84063;stroke-linecap:round"
         id="path18"
         color="detail-1" /><path
         d="m 407.45874,704.06139 c -8.9759,-0.69502 -15.40214,-2.0391 -25.454,-5.49649 -9.02796,-3.10521 -13.79581,-5.61166 -20.00082,-9.88048 -4.77218,21.05421 -5.7324,27.70228 -3.62748,29.88562 1.34342,1.39347 10.27521,5.96617 13.8539,7.15036 6.63693,2.19618 15.47987,4.74945 29.51912,7.31634 1.34642,-4.84543 5.50189,-22.56743 5.70928,-28.97535 z"
         style="display:inline;fill:#00ff31;fill-opacity:1;fill-rule:evenodd;stroke:none;stroke-width:4.84063;stroke-linecap:round"
         id="path19"
         color="detail-1" /><path
         style="display:inline;fill:none;stroke:#000000;stroke-width:5;stroke-linecap:round;stroke-dasharray:none;stroke-opacity:1"
         d="m 370.6182,604.97184 c -1.66046,33.20921 -5.09216,70.08834 -12.82192,105.84815 -13.22768,61.19456 -43.87146,104.69117 -36.05639,116.67678 15.05334,23.08663 65.21061,15.5523 86.18017,7.07448 9.41118,-3.80484 16.83872,-87.86802 16.72154,-129.9134 -0.0901,-32.36252 -14.14898,-91.9684 -14.14898,-91.9684"
         id="path11"
         color="coat_contour" /></g><g
       id="g8"
       style="display:inline"><path
         style="display:inline;fill:#ff0000;stroke-width:0.885764"
         d="m 363.54371,485.99176 c 0,0 -11.33843,59.47199 -9.64704,89.39583 3.38553,59.89623 32.19477,65.76825 63.67044,73.31748 36.90369,8.8511 114.78269,-0.57221 153.06629,-32.15681 18.10802,-14.93942 17.2904,-104.04133 -34.72933,-113.835 -36.52354,-6.87622 -71.93896,21.07753 -85.53704,12.21956 -13.5981,-8.85796 10.29018,-123.48202 10.29018,-123.48202 z"
         id="path1"
         color="coat" /><path
         d="m 444.0128,484.14089 c -1.44579,1.4073 -11.86991,0.74868 -14.93977,0.68907 -1.4984,5.21971 -1.58903,7.77182 -1.54406,11.07643 6.09977,1.43399 18.49418,0.65325 18.49418,0.65325 -1.26965,-9.60691 2.14441,-8.2933 -2.01035,-12.41875 z"
         style="fill:#5aca67;fill-opacity:1;fill-rule:evenodd;stroke:none;stroke-width:5;stroke-linecap:round"
         id="path14"
         color="detail-1" /><path
         d="m 444.08124,500.47844 c -1.30932,1.53508 -14.16526,7.5814 -22.70024,9.51474 0.52064,6.13774 -0.10517,14.83684 0.90791,19.41166 12.97944,0.047 24.94355,-16.74705 24.94355,-16.74705 -2.15343,-9.44814 1.36756,-8.45618 -3.15122,-12.17935 z"
         style="display:inline;fill:#5aca67;fill-opacity:1;fill-rule:evenodd;stroke:none;stroke-width:5;stroke-linecap:round"
         id="path41"
         color="detail-1" /><path
         d="m 455.46619,518.06054 c 1.25863,1.57691 -8.85695,33.38292 -8.5789,42.12972 7.23148,1.79337 18.59124,1.48926 25.49411,0.35066 6.41775,-11.6496 3.40284,-46.65824 3.40284,-46.65824 -9.68513,0.3208 -14.18773,3.52043 -20.31805,4.17786 z"
         style="display:inline;fill:#5aca67;fill-opacity:1;fill-rule:evenodd;stroke:none;stroke-width:5;stroke-linecap:round"
         id="path42"
         color="detail-1" /><path
         d="m 485.1949,510.53113 c 1.94459,1.72699 3.55026,17.53415 5.82182,28.58355 9.71011,-0.75528 18.57257,-3.90397 22.06729,-4.26175 -1.35649,-16.20512 -11.78654,-31.08647 -11.78654,-31.08647 -12.2319,2.53165 -8.45989,4.58508 -16.10257,6.76467 z"
         style="display:inline;fill:#5aca67;fill-opacity:1;fill-rule:evenodd;stroke:none;stroke-width:6.44508;stroke-linecap:round"
         id="path43"
         color="detail-2" /><path
         d="m 517.46887,503.32346 c 5.95802,0.79598 11.30357,12.57263 14.5321,20.23485 11.15221,2.48755 39.99471,5.85605 39.14958,10.21523 0,0 -7.25577,-18.31869 -17.32285,-23.51606 -25.61249,-13.22306 -31.58115,-10.83105 -36.35883,-6.93402 z"
         style="display:inline;fill:#5aca67;fill-opacity:1;fill-rule:evenodd;stroke:none;stroke-width:5;stroke-linecap:round"
         id="path44"
         color="detail-1" /><path
         style="display:inline;fill:none;stroke:#000000;stroke-width:5;stroke-linecap:round;stroke-dasharray:none;stroke-opacity:1"
         d="m 363.54371,485.99176 c 0,0 -11.33843,59.47199 -9.64704,89.39583 3.38553,59.89623 32.19477,65.76825 63.67044,73.31748 36.90369,8.8511 114.78269,-0.57221 153.06629,-32.15681 18.10802,-14.93942 17.2904,-104.04133 -34.72933,-113.835 -36.52354,-6.87622 -71.93896,21.07753 -85.53704,12.21956 -13.5981,-8.85796 4.1185,-87.17802 4.1185,-87.17802 z"
         id="path9"
         color="coat_contour" /></g><g
       id="g9"
       style="display:inline"><path
         style="display:inline;fill:#00ffff;stroke-width:0.885764"
         d="m 400.20244,629.41103 c -1.66046,33.20921 -5.09217,70.08834 -12.82193,105.84815 -13.22768,61.19456 -43.87145,104.69116 -36.05637,116.67678 15.05335,23.08663 65.21062,15.5523 86.18016,7.07448 9.41119,-3.80485 16.83871,-87.86802 16.72154,-129.9134 -0.09,-32.36252 -14.14898,-91.9684 -14.14898,-91.9684 z"
         id="path10"
         color="coat" /><path
         d="m 438.05357,859.55341 c 20.23926,-26.61069 -20.36069,-27.77209 -63.86273,-36.78492 -6.49961,-1.3466 -12.71921,-2.76919 -15.70061,-3.54779 -6.63587,16.17448 -10.58837,27.46614 -7.16601,32.71485 12.03412,18.45617 56.52836,15.72565 86.72935,7.61786 z"
         style="display:inline;fill:#0800ff;fill-opacity:1;stroke:none;stroke-width:0.885764"
         id="path33"
         color="hooves" /><path
         d="m 420.72835,771.94574 c -8.7384,-2.1657 -14.52262,-4.40598 -23.87568,-9.45708 -4.83472,-2.61098 -8.31543,-5.38425 -12.11445,-12.39665 -8.17883,19.97899 -10.22222,26.3777 -8.50617,28.87826 1.09524,1.59593 9.15067,7.57894 12.48509,9.33707 6.1839,3.26059 20.14447,8.53083 33.56822,13.37775 -0.62199,-4.88048 -1.52461,-21.83628 -1.55701,-29.73935 z"
         style="display:inline;fill:#00ff31;fill-opacity:1;fill-rule:evenodd;stroke:none;stroke-width:4.84063;stroke-linecap:round"
         id="path20"
         color="detail-1" /><path
         d="m 429.84642,709.6443 c -7.8904,-1.05288 -13.0301,-3.75246 -21.74149,-7.28131 -4.50302,-1.82411 -7.8319,-3.92262 -11.85306,-9.71566 -5.2435,18.35425 -6.41658,24.17653 -4.6651,26.20711 1.11786,1.29597 8.77953,5.77011 11.88104,6.99071 5.75196,2.2637 15.1199,5.03716 27.38889,7.99041 -0.52185,-4.24868 -1.18292,-16.44037 -1.01028,-24.19126 z"
         style="display:inline;fill:#00ff31;fill-opacity:1;fill-rule:evenodd;stroke:none;stroke-width:4.28013;stroke-linecap:round"
         id="path21"
         color="detail-1" /><path
         style="display:inline;fill:none;stroke:#000000;stroke-width:5;stroke-linecap:round;stroke-dasharray:none;stroke-opacity:1"
         d="m 400.20244,629.41103 c -1.66046,33.20921 -5.09217,70.08834 -12.82193,105.84815 -13.22768,61.19456 -43.87145,104.69116 -36.05637,116.67678 15.05335,23.08663 65.21062,15.5523 86.18016,7.07448 9.41119,-3.80485 16.83871,-87.86802 16.72154,-129.9134 -0.09,-32.36252 -14.14898,-91.9684 -14.14898,-91.9684"
         id="path3"
         color="coat_contour" /></g><g
       id="g10"
       style="display:inline"><path
         style="display:inline;fill:#ffff00;stroke-width:0.885764"
         d="m 493.45712,627.48158 c 0,0 10.1483,21.98858 18.65093,30.22738 9.44513,9.15203 30.3943,37.82779 36.17637,53.8626 17.38032,48.19902 -8.20264,130.38035 -4.01959,139.07809 9.28048,19.29682 66.0668,9.65832 78.62331,2.73335 20.18025,-11.12949 -5.70745,-167.45796 -32.15677,-190.04661 -11.46749,-9.79363 -19.52152,1.10567 -23.47443,-4.0196 -7.70399,-9.98884 21.95165,-63.28827 13.6666,-87.78801 -7.69493,-22.75468 -87.46642,55.9528 -87.46642,55.9528 z"
         id="path4"
         color="coat" /><path
         d="m 623.89226,852.99011 c 2.03579,-6.13713 12.47073,-11.158 3.12812,-16.09119 -14.1413,-7.46704 -45.44528,-15.59681 -58.76865,-18.80805 -13.32336,-3.21123 -16.61797,-0.80138 -20.22634,-0.99712 -2.85976,17.47173 -5.28332,30.38874 -3.75977,33.55664 7.75797,16.13107 59.06256,8.16083 79.62664,2.33972 z"
         style="display:inline;fill:#4700ff;fill-opacity:1;stroke:none;stroke-width:0.885764"
         id="path30"
         color="hooves" /><path
         d="m 555.48044,693.71184 c 8.71585,-2.25475 14.80779,-4.70245 24.09969,-9.86522 8.3454,-4.63687 12.60117,-7.93886 17.96359,-13.22747 8.38227,19.89448 10.49085,26.27201 8.8004,28.78995 -1.07889,1.60703 -9.07285,7.67192 -12.38915,9.46399 -6.15031,3.32352 -14.41011,7.38459 -27.7837,12.36824 -2.17343,-4.53512 -9.36549,-21.2567 -10.69083,-27.52949 z"
         style="display:inline;fill:#00ff31;fill-opacity:1;fill-rule:evenodd;stroke:none;stroke-width:4.84063;stroke-linecap:round"
         id="path7"
         color="detail-1" /><path
         d="m 573.42765,751.74998 c 8.9781,-0.66615 15.40862,-1.98955 25.47155,-5.41459 9.0379,-3.07616 13.81379,-5.56726 20.0325,-9.81609 4.70443,21.06944 5.64326,27.72057 3.53133,29.89713 -1.3479,1.38914 -10.29434,5.93308 -13.87683,7.10576 -6.64396,2.17482 -15.49506,4.69963 -29.5425,7.22135 -1.33083,-4.84974 -5.42927,-22.58501 -5.61605,-28.99356 z"
         style="display:inline;fill:#00ff31;fill-opacity:1;fill-rule:evenodd;stroke:none;stroke-width:4.84063;stroke-linecap:round"
         id="path8"
         color="detail-1" /><path
         d="m 507.29156,650.3742 c 6.45195,0.49428 20.2855,-2.57243 30.40629,-5.82253 11.41785,-3.66662 26.83144,-13.1135 32.19386,-18.40211 2.07568,7.7664 -2.28405,17.21638 -3.9745,19.73432 -1.07889,1.60703 -12.56221,9.26347 -18.21062,11.8896 -12.25161,5.69618 -13.92499,4.63556 -27.29858,9.61921 -2.17343,-4.53512 -11.79111,-10.7457 -13.11645,-17.01849 z"
         style="display:inline;fill:#00ff31;fill-opacity:1;fill-rule:evenodd;stroke:none;stroke-width:4.84063;stroke-linecap:round"
         id="path15"
         color="detail-1" /><path
         d="m 532.35868,597.46825 c 8.29275,1.22872 14.38484,1.50986 24.1621,0.99153 8.78131,-0.46552 16.64999,-0.35385 23.07625,-2.18314 -1.77683,15.96348 -2.92887,19.71635 -5.24343,20.85677 -1.47722,0.72787 -10.43968,2.24947 -13.91206,2.40097 -6.43977,0.28099 -14.95172,0.3917 -28.19335,-0.48379 -0.3379,-3.68418 -0.8739,-17.01161 0.11047,-21.58234 z"
         style="display:inline;fill:#00ff31;fill-opacity:1;fill-rule:evenodd;stroke:none;stroke-width:3.98679;stroke-linecap:round"
         id="path16"
         color="detail-1" /><path
         style="display:inline;fill:none;stroke:#000000;stroke-width:5;stroke-linecap:round;stroke-dasharray:none;stroke-opacity:1"
         d="m 493.45712,627.48158 c 0,0 10.1483,21.98858 18.65093,30.22738 9.44513,9.15203 30.3943,37.82779 36.17637,53.8626 17.38032,48.19902 -8.20264,130.38035 -4.01959,139.07809 9.28048,19.29682 66.0668,9.65832 78.62331,2.73335 20.18025,-11.12949 -5.70745,-167.45796 -32.15677,-190.04661 -11.46749,-9.79363 -19.52152,1.10567 -23.47443,-4.0196 -7.70399,-9.98884 20.60217,-67.64337 13.48508,-92.50753"
         id="path12"
         color="coat_contour" /></g></g></svg>
