<?xml version="1.0" encoding="UTF-8" standalone="no"?>
<!-- Created with Inkscape (http://www.inkscape.org/) -->

<svg
   width="1000"
   height="1000"
   viewBox="0 0 1000 1000"
   version="1.1"
   id="svg1"
   xml:space="preserve"
   xmlns="http://www.w3.org/2000/svg"
   xmlns:svg="http://www.w3.org/2000/svg"><defs
     id="defs1" /><g
     id="layer2"
     style="display:inline"
     data-layer="300"><title
       id="title7">coat</title><g
       id="g15"
       style="display:inline"
       transform="translate(-46.079784,-15.105138)"><path
         d="m 547.64814,559.46061 c -8.92406,0.37599 -18.06885,3.42866 -25.22851,9.62695 -16.45278,14.24356 -24.20463,32.80503 -22.10156,47.1875 1.56958,10.734 11.74932,28.16354 20.25195,36.40234 9.44513,9.15203 21.93277,42.85972 27.71484,58.89453 0.97824,2.71284 1.81403,5.56729 2.52344,8.53907 a 15.200518,19.404917 0 0 1 4.65039,-0.93164 15.200518,19.404917 0 0 1 15.20117,19.40625 15.200518,19.404917 0 0 1 -15.20117,19.40429 15.200518,19.404917 0 0 1 -1.32422,-0.0742 c -0.21829,12.69183 -1.40263,25.73415 -2.9043,38.01758 a 10.834412,11.157826 0 0 1 1.48047,-0.10351 10.834412,11.157826 0 0 1 10.83399,11.1582 10.834412,11.157826 0 0 1 -10.83399,11.1582 10.834412,11.157826 0 0 1 -4.41406,-0.96875 c -3.2782,21.8043 -6.25293,37.93662 -3.80273,39.64649 13.28273,9.2694 56.11894,7.50349 73.36328,1.13281 10.34921,-3.82337 -15.96682,-164.23124 -29.38086,-192.53711 -10.78142,0.49738 -17.26584,-0.97824 -21.21875,-6.10351 -7.70399,-9.98884 20.09757,-56.74914 12.98047,-81.61329 -3.4528,-12.0626 -17.71641,-18.86884 -32.58985,-18.24218 z"
         style="display:inline;fill:#ffff00;stroke-width:0.885764"
         id="path32"
         color="coat" /><path
         d="m 547.64814,559.46061 c -8.92406,0.37599 -18.06885,3.42866 -25.22851,9.62695 -16.45278,14.24356 -24.20463,32.80503 -22.10156,47.1875 1.56958,10.734 11.74932,28.16354 20.25195,36.40234 9.44513,9.15203 21.93277,42.85972 27.71484,58.89453 0.97824,2.71284 1.81403,5.56729 2.52344,8.53907 a 15.200518,19.404917 0 0 1 4.65039,-0.93164 15.200518,19.404917 0 0 1 15.20117,19.40625 15.200518,19.404917 0 0 1 -15.20117,19.40429 15.200518,19.404917 0 0 1 -1.32422,-0.0742 c -0.21829,12.69183 -1.40263,25.73415 -2.9043,38.01758 a 10.834412,11.157826 0 0 1 1.48047,-0.10351 10.834412,11.157826 0 0 1 10.83399,11.1582 10.834412,11.157826 0 0 1 -10.83399,11.1582 10.834412,11.157826 0 0 1 -4.41406,-0.96875 c -3.2782,21.8043 -6.25293,37.93662 -3.80273,39.64649 13.28273,9.2694 56.11894,7.50349 73.36328,1.13281 10.34921,-3.82337 -15.96682,-164.23124 -29.38086,-192.53711 -10.78142,0.49738 -17.26584,-0.97824 -21.21875,-6.10351 -7.70399,-9.98884 20.09757,-56.74914 12.98047,-81.61329 -3.4528,-12.0626 -17.71641,-18.86884 -32.58985,-18.24218 z"
         style="display:inline;fill:none;stroke:#18000c;stroke-width:5;stroke-dasharray:none;stroke-opacity:1"
         id="path36"
         color="coat-contour" /></g><g
       id="g12"
       style="display:inline"
       transform="translate(-26.932952,-14.409792)"><path
         d="m 414.681,619.4137 c -8.93359,0.39152 -13.77452,4.40774 -14.47852,9.99805 -2.07088,16.4445 -3.34273,33.9093 -5.05468,51.7207 a 8.0853815,10.510996 0 0 1 5.65234,10.02344 8.0853815,10.510996 0 0 1 -7.87695,10.50781 c -1.39129,11.21868 -3.13852,22.47209 -5.54297,33.5957 -0.5464,2.5278 -1.10408,5.0333 -1.67383,7.51367 a 14.715395,16.170763 0 0 1 13.80078,16.13868 14.715395,16.170763 0 0 1 -14.71484,16.16992 14.715395,16.170763 0 0 1 -6.88867,-1.88086 c -6.54383,23.14659 -13.52885,43.00511 -19.22461,57.92578 a 15.03881,10.349289 0 0 1 9.45703,9.60937 15.03881,10.349289 0 0 1 -15.03907,10.34961 15.03881,10.349289 0 0 1 -2.3457,-0.12695 c -1.07139,2.56602 -1.9609,4.65678 -2.6289,6.23633 25.11567,10.73742 57.66331,8.69288 81.14843,2.50195 1.79161,-0.47229 3.51442,-3.70688 5.13086,-8.93555 a 21.507114,19.243208 0 0 1 -21.31054,-19.24218 21.507114,19.243208 0 0 1 21.50585,-19.24414 21.507114,19.243208 0 0 1 6.64844,0.94336 c 3.40978,-27.70671 5.49496,-61.64565 5.4336,-83.66407 -0.09,-32.36252 -5.83054,-64.13558 -9.35157,-92.91015 -0.88724,-7.25071 -1.51209,-16.01268 -18.5664,-17.16992 -1.44311,-0.0979 -2.80385,-0.11648 -4.08008,-0.0606 z"
         style="display:inline;fill:#00ffff;stroke-width:0.885764"
         id="path29"
         color="coat" /><path
         d="m 414.681,619.4137 c -8.93359,0.39152 -13.77452,4.40774 -14.47852,9.99805 -2.07088,16.4445 -3.34273,33.9093 -5.05468,51.7207 a 8.0853815,10.510996 0 0 1 5.65234,10.02344 8.0853815,10.510996 0 0 1 -7.87695,10.50781 c -1.39129,11.21868 -3.13852,22.47209 -5.54297,33.5957 -0.5464,2.5278 -1.10408,5.0333 -1.67383,7.51367 a 14.715395,16.170763 0 0 1 13.80078,16.13868 14.715395,16.170763 0 0 1 -14.71484,16.16992 14.715395,16.170763 0 0 1 -6.88867,-1.88086 c -6.54383,23.14659 -13.52885,43.00511 -19.22461,57.92578 a 15.03881,10.349289 0 0 1 9.45703,9.60937 15.03881,10.349289 0 0 1 -15.03907,10.34961 15.03881,10.349289 0 0 1 -2.3457,-0.12695 c -1.07139,2.56602 -1.9609,4.65678 -2.6289,6.23633 25.11567,10.73742 57.66331,8.69288 81.14843,2.50195 1.79161,-0.47229 3.51442,-3.70688 5.13086,-8.93555 a 21.507114,19.243208 0 0 1 -21.31054,-19.24218 21.507114,19.243208 0 0 1 21.50585,-19.24414 21.507114,19.243208 0 0 1 6.64844,0.94336 c 3.40978,-27.70671 5.49496,-61.64565 5.4336,-83.66407 -0.09,-32.36252 -5.83054,-64.13558 -9.35157,-92.91015 -0.88724,-7.25071 -1.51209,-16.01268 -18.5664,-17.16992 -1.44311,-0.0979 -2.80385,-0.11648 -4.08008,-0.0606 z"
         style="display:inline;fill:none;stroke:#18000c;stroke-width:5;stroke-dasharray:none;stroke-opacity:1"
         id="path35"
         color="coat-contour" /></g><g
       id="g3"
       style="display:inline"><path
         style="display:inline;fill:#ff0000;stroke-width:0.885764"
         d="m 363.54371,485.99176 c 0,0 -11.33843,59.47199 -9.64704,89.39583 3.38553,59.89623 26.70623,69.42728 58.1819,76.97651 13.18575,3.16251 42.78638,5.08389 54.85594,1.83166 7.03177,-10.44033 10.99064,-14.62596 23.28626,-20.5087 21.26335,-10.17327 60.9834,-1.10937 80.41263,-17.1388 18.10802,-14.93942 17.2904,-104.04133 -34.72933,-113.835 -36.52354,-6.87622 -71.93896,21.07753 -85.53704,12.21956 -13.5981,-8.85796 10.29018,-123.48202 10.29018,-123.48202 z"
         id="path1"
         color="coat" /><g
         id="g19"><path
           style="display:inline;fill:none;fill-rule:evenodd;stroke:#000000;stroke-width:3;stroke-linecap:round;stroke-dasharray:none;stroke-opacity:1"
           d="m 476.06727,642.94955 c 0,0 8.90418,-44.50327 3.23415,-71.47478 C 475.612,553.92472 453.4282,518.11126 453.4282,518.11126"
           id="path16"
           color="hooves-contour" /><path
           style="display:inline;fill:none;fill-rule:evenodd;stroke:#000000;stroke-width:3;stroke-linecap:round;stroke-dasharray:none;stroke-opacity:1"
           d="m 497.7361,630.33636 c 0,0 10.53997,-36.3715 4.52781,-62.41916 -4.54056,-19.67201 -31.37129,-51.74644 -31.37129,-51.74644"
           id="path18"
           color="hooves-contour" /><path
           style="display:inline;fill:none;fill-rule:evenodd;stroke:#000000;stroke-width:3;stroke-linecap:round;stroke-dasharray:none;stroke-opacity:1"
           d="m 487.06339,634.21735 c 0,0 12.93685,-34.22041 2.58732,-69.21088 -5.65935,-19.13358 -25.87322,-46.57178 -25.87322,-46.57178"
           id="path17"
           color="hooves-contour" /></g><path
         style="display:inline;fill:none;stroke:#000000;stroke-width:5;stroke-dasharray:none;stroke-opacity:1"
         d="m 363.54371,485.99176 c 0,0 -11.33843,59.47199 -9.64704,89.39583 3.38553,59.89623 26.70623,69.42728 58.1819,76.97651 13.18575,3.16251 42.78638,5.08389 54.85594,1.83166 7.03177,-10.44033 10.99064,-14.62596 23.28626,-20.5087 21.26335,-10.17327 60.9834,-1.10937 80.41263,-17.1388 18.10802,-14.93942 17.2904,-104.04133 -34.72933,-113.835 -36.52354,-6.87622 -71.93896,21.07753 -85.53704,12.21956 -13.5981,-8.85796 6.08578,-119.43933 6.08578,-119.43933 z"
         id="path6"
         color="coat-contour" /></g><g
       id="g2"
       style="display:inline"><path
         d="m 414.68164,619.41406 c -8.93358,0.39152 -13.77452,4.40579 -14.47852,9.9961 -4.15451,32.99013 -5.0925,70.0898 -12.82226,105.84961 -2.04204,9.44698 -4.25847,18.57353 -6.56641,27.30078 a 27.652006,37.192757 16.122439 0 1 15.89844,43.30664 27.652006,37.192757 16.122439 0 1 -36.89258,28.05078 27.652006,37.192757 16.122439 0 1 -1.95508,-0.67188 c -4.37399,11.34539 -7.90035,19.59408 -9.74218,23.94922 25.11567,10.73742 57.66331,8.69289 81.14843,2.50196 4.48568,-1.18248 8.53193,-19.683 11.5918,-43.4375 a 9.8641653,12.451488 7.3289829 0 1 -0.82812,-0.0606 9.8641653,12.451488 7.3289829 0 1 -8.19532,-13.60938 9.8641653,12.451488 7.3289829 0 1 11.37305,-11.09179 9.8641653,12.451488 7.3289829 0 1 0.33008,0.0508 c 1.71807,-18.92029 2.81375,-38.52793 3.07617,-54.125 a 18.111256,22.153946 0 0 1 -13.88867,-21.54492 18.111256,22.153946 0 0 1 12.0293,-20.86719 c -2.00817,-20.26479 -5.17566,-39.93281 -7.43165,-58.36914 -0.88724,-7.25071 -1.51209,-16.01073 -18.5664,-17.16797 -1.4431,-0.0979 -2.80385,-0.11648 -4.08008,-0.0606 z"
         style="display:inline;fill:#00ffff;stroke-width:0.885764"
         id="path19"
         color="coat" /><path
         d="m 414.68164,619.41406 c -8.93358,0.39152 -13.77452,4.40579 -14.47852,9.9961 -4.15451,32.99013 -5.0925,70.0898 -12.82226,105.84961 -2.04204,9.44698 -4.25847,18.57353 -6.56641,27.30078 a 27.652006,37.192757 16.122439 0 1 15.89844,43.30664 27.652006,37.192757 16.122439 0 1 -36.89258,28.05078 27.652006,37.192757 16.122439 0 1 -1.95508,-0.67188 c -4.37399,11.34539 -7.90035,19.59408 -9.74218,23.94922 25.11567,10.73742 57.66331,8.69289 81.14843,2.50196 4.48568,-1.18248 8.53193,-19.683 11.5918,-43.4375 a 9.8641653,12.451488 7.3289829 0 1 -0.82812,-0.0606 9.8641653,12.451488 7.3289829 0 1 -8.19532,-13.60938 9.8641653,12.451488 7.3289829 0 1 11.37305,-11.09179 9.8641653,12.451488 7.3289829 0 1 0.33008,0.0508 c 1.71807,-18.92029 2.81375,-38.52793 3.07617,-54.125 a 18.111256,22.153946 0 0 1 -13.88867,-21.54492 18.111256,22.153946 0 0 1 12.0293,-20.86719 c -2.00817,-20.26479 -5.17566,-39.93281 -7.43165,-58.36914 -0.88724,-7.25071 -1.51209,-16.01073 -18.5664,-17.16797 -1.4431,-0.0979 -2.80385,-0.11648 -4.08008,-0.0606 z"
         style="display:inline;fill:none;stroke:#18000c;stroke-width:5;stroke-dasharray:none;stroke-opacity:1"
         id="path34"
         color="coat-contour" /></g><g
       id="g1"
       style="display:inline"><path
         d="m 557.18555,559.47656 c -6.68795,0.0823 -14.34471,2.48151 -22.47461,7.34571 -18.67445,11.1731 -27.44096,27.63315 -25.33789,42.01562 4.86703,33.28453 10.03175,24.02386 38.91211,102.73438 6.04316,16.47003 6.79144,38.19345 5.40625,59.8125 a 22.477362,31.371281 0 0 1 5.65625,-1.00977 22.477362,31.371281 0 0 1 22.47656,31.37109 22.477362,31.371281 0 0 1 -22.47656,31.3711 22.477362,31.371281 0 0 1 -12.60938,-5.39844 c -2.54428,16.31013 -4.27874,27.68562 -2.24414,29.10547 13.28273,9.2694 56.11894,7.50349 73.36328,1.13281 2.2628,-0.83596 2.77151,-9.15765 2.04688,-21.94726 a 10.996119,14.230271 0 0 1 -0.56446,0.0195 10.996119,14.230271 0 0 1 -10.99609,-14.23047 10.996119,14.230271 0 0 1 8.91797,-13.97461 c -2.83633,-23.69123 -7.41353,-52.33245 -12.36914,-77.99414 a 18.434669,18.272963 0 0 1 -5.28125,0.76562 18.434669,18.272963 0 0 1 -18.4336,-18.27343 18.434669,18.272963 0 0 1 16.08008,-18.12305 c -3.16787,-13.08725 -6.21175,-23.35724 -8.78125,-28.7793 -10.78142,0.49738 -17.26584,-0.97824 -21.21875,-6.10351 -7.70399,-9.98884 20.09757,-56.74914 12.98047,-81.61329 -3.45279,-12.0626 -11.90616,-18.36367 -23.05273,-18.22656 z"
         style="display:inline;fill:#ffff00;stroke-width:0.885764"
         id="path7"
         color="coat" /><path
         d="m 557.18555,559.47656 c -6.68795,0.0823 -14.34471,2.48151 -22.47461,7.34571 -18.67445,11.1731 -27.44096,27.63315 -25.33789,42.01562 4.86703,33.28453 10.03175,24.02386 38.91211,102.73438 6.04316,16.47003 6.79144,38.19345 5.40625,59.8125 a 22.477362,31.371281 0 0 1 5.65625,-1.00977 22.477362,31.371281 0 0 1 22.47656,31.37109 22.477362,31.371281 0 0 1 -22.47656,31.3711 22.477362,31.371281 0 0 1 -12.60938,-5.39844 c -2.54428,16.31013 -4.27874,27.68562 -2.24414,29.10547 13.28273,9.2694 56.11894,7.50349 73.36328,1.13281 2.2628,-0.83596 2.77151,-9.15765 2.04688,-21.94726 a 10.996119,14.230271 0 0 1 -0.56446,0.0195 10.996119,14.230271 0 0 1 -10.99609,-14.23047 10.996119,14.230271 0 0 1 8.91797,-13.97461 c -2.83633,-23.69123 -7.41353,-52.33245 -12.36914,-77.99414 a 18.434669,18.272963 0 0 1 -5.28125,0.76562 18.434669,18.272963 0 0 1 -18.4336,-18.27343 18.434669,18.272963 0 0 1 16.08008,-18.12305 c -3.16787,-13.08725 -6.21175,-23.35724 -8.78125,-28.7793 -10.78142,0.49738 -17.26584,-0.97824 -21.21875,-6.10351 -7.70399,-9.98884 20.09757,-56.74914 12.98047,-81.61329 -3.45279,-12.0626 -11.90616,-18.36367 -23.05273,-18.22656 z"
         style="display:inline;fill:none;stroke:#18000c;stroke-width:5;stroke-dasharray:none;stroke-opacity:1"
         id="path33"
         color="coat-contour" /></g><g
       id="g20"
       style="display:inline"><path
         style="display:inline;fill:#0600ff;fill-opacity:1;fill-rule:evenodd;stroke:none;stroke-width:5;stroke-linecap:round;stroke-dasharray:none;stroke-opacity:1"
         d="m 452.45796,514.71539 -25.87322,33.7969 c 0,0 22.62489,15.9426 37.19275,16.17077 22.08076,0.34584 40.19018,-16.54557 61.4489,-20.05175 18.50928,-3.05272 54.01035,-0.64683 54.01035,-0.64683 0,0 -6.0487,-28.3428 -36.38422,-39.94178 -23.81896,-9.10733 -57.31386,3.97452 -75.26103,8.70446 -8.60966,2.26906 -15.13353,1.96823 -15.13353,1.96823 z"
         id="path20"
         color="gradient"
         data-grad="from:tail-main;to:tail-hl-1;angle:0;range:10%-100%" /><path
         style="display:inline;fill:none;fill-rule:evenodd;stroke:#53ff17;stroke-width:5;stroke-linecap:round;stroke-dasharray:none;stroke-opacity:1"
         d="M 449.65652,515.41575 425.93791,548.674 c 0,0 23.27172,15.78089 37.83958,16.00906 22.08076,0.34584 40.19018,-16.54557 61.4489,-20.05175 18.50928,-3.05272 54.01035,-0.64683 54.01035,-0.64683 0,0 -6.0487,-28.3428 -36.38422,-39.94178 -23.81896,-9.10733 -57.31386,3.97452 -75.26103,8.70446 -8.60966,2.26906 -17.93497,2.66859 -17.93497,2.66859 z"
         id="path21"
         color="tail-contour" /><ellipse
         style="fill:#00ff34;fill-opacity:1;fill-rule:evenodd;stroke:none;stroke-width:6.12372;stroke-linecap:round;stroke-dasharray:none;stroke-opacity:1"
         id="path22"
         cx="715.35236"
         cy="274.03687"
         rx="12.128073"
         ry="7.4385509"
         transform="rotate(22.491027)"
         color="gradient"
         data-grad="from:#ffffff; to:#ffffff; angle:0; range:5%-100%; fromOpacity:0.4; toOpacity:0.1" /></g><g
       id="g27"
       style="display:inline"><path
         style="display:inline;fill:#ff00ef;fill-opacity:1;stroke-width:0.885764"
         d="m 363.54371,485.99176 c 0,0 -11.33843,59.47199 -9.64704,89.39583 1.42797,25.2634 6.40248,41.56665 14.03957,52.54032 0.52282,0.75124 1.09961,2.91285 1.60562,2.17995 37.18547,-53.85863 44.24645,-62.69268 80.82517,-115.17504 0.18211,-0.26129 -0.51928,-0.38841 -0.75773,-0.64205 -0.11986,-0.12749 -0.23619,-0.26486 -0.34905,-0.41189 -11.10318,-14.46477 11.39696,-122.42808 11.39696,-122.42808 z"
         id="path23"
         color="coat" /><path
         style="display:inline;fill:none;fill-opacity:1;stroke:#ff1787;stroke-width:5;stroke-dasharray:none;stroke-opacity:1"
         d="m 363.54371,485.99176 c 0,0 -11.33843,59.47199 -9.64704,89.39583 1.42797,25.2634 6.40248,41.56665 14.03957,52.54032 0.52282,0.75124 0.45278,0.64894 1.60562,2.17995 37.18547,-53.85863 44.24645,-62.69268 80.82517,-115.17504 -0.57733,-0.74396 -0.40594,-0.14091 -1.10678,-1.05394 -7.40816,-9.65104 0.14286,-60.92479 5.98911,-93.9827 2.91598,-16.48855 2.98224,-28.44538 2.98224,-28.44538 z"
         id="path27"
         color="coat-contour" /></g></g></svg>
