<?xml version="1.0" encoding="UTF-8" standalone="no"?>
<!-- Created with Inkscape (http://www.inkscape.org/) -->

<svg
   width="1000"
   height="1000"
   viewBox="0 0 1000 1000"
   version="1.1"
   id="svg1"
   xml:space="preserve"
   xmlns="http://www.w3.org/2000/svg"
   xmlns:svg="http://www.w3.org/2000/svg"><defs
     id="defs1" /><g
     id="layer2"
     style="display:inline"
     data-layer="300"><title
       id="title7">coat</title><g
       id="g15"
       style="display:inline"
       transform="translate(-46.079784,-15.105138)"><path
         style="display:inline;fill:#ffff00;stroke-width:0.885764"
         d="m 500.31779,616.27581 c 1.56958,10.734 11.74913,28.16319 20.25176,36.40199 9.44513,9.15203 21.9328,42.85895 27.71487,58.89376 17.38032,48.19902 -9.86301,141.01526 -3.7909,145.25269 13.28273,9.2694 56.11912,7.50321 73.36346,1.13253 10.34921,-3.82337 -15.96596,-164.23054 -29.38,-192.53641 -10.78142,0.49738 -17.26713,-0.97831 -21.22004,-6.10358 -7.70399,-9.98884 20.09763,-56.74925 12.98053,-81.6134 -5.52447,-19.30017 -38.72476,-25.1451 -57.81718,-8.61634 -16.45278,14.24356 -24.20557,32.80629 -22.1025,47.18876 z"
         id="path14"
         color="coat" /><path
         style="display:inline;fill:none;stroke:#000000;stroke-width:5;stroke-dasharray:none;stroke-opacity:1"
         d="m 500.31779,616.27581 c 1.56958,10.734 11.74913,28.16319 20.25176,36.40199 9.44513,9.15203 21.9328,42.85895 27.71487,58.89376 17.38032,48.19902 -9.86301,141.01526 -3.7909,145.25269 13.28273,9.2694 56.11912,7.50321 73.36346,1.13253 10.34921,-3.82337 -15.96596,-164.23054 -29.38,-192.53641 -10.78142,0.49738 -17.26713,-0.97831 -21.22004,-6.10358 -7.70399,-9.98884 20.09763,-56.74925 12.98053,-81.6134 -5.52447,-19.30017 -38.72476,-25.1451 -57.81718,-8.61634 -16.45278,14.24356 -24.20557,32.80629 -22.1025,47.18876 z"
         id="path15"
         color="coat-contour" /></g><g
       id="g12"
       style="display:inline"
       transform="translate(-26.932952,-14.409792)"><path
         style="display:inline;fill:#00ffff;stroke-width:0.885764"
         d="m 400.20244,629.41103 c -4.15451,32.99013 -5.09217,70.08834 -12.82193,105.84815 -13.22768,61.19456 -33.75778,108.93095 -39.25802,121.93663 25.11567,10.73742 57.66388,8.69163 81.149,2.5007 9.8159,-2.58758 17.52478,-88.09671 17.40761,-130.14209 -0.09,-32.36252 -5.83024,-64.13633 -9.35127,-92.9109 -0.88724,-7.25071 -1.51261,-16.01177 -18.56692,-17.16901 -11.54482,-0.78339 -17.7539,3.5476 -18.55847,9.93652 z"
         id="path9"
         color="coat" /><path
         style="display:inline;fill:none;stroke:#000000;stroke-width:5;stroke-dasharray:none;stroke-opacity:1"
         d="m 400.20244,629.41103 c -4.15451,32.99013 -5.09217,70.08834 -12.82193,105.84815 -13.22768,61.19456 -33.75778,108.93095 -39.25802,121.93663 25.11567,10.73742 57.66388,8.69163 81.149,2.5007 9.8159,-2.58758 17.52478,-88.09671 17.40761,-130.14209 -0.09,-32.36252 -5.83024,-64.13633 -9.35127,-92.9109 -0.88724,-7.25071 -1.51261,-16.01177 -18.56692,-17.16901 -11.54482,-0.78339 -17.7539,3.5476 -18.55847,9.93652 z"
         id="path12"
         color="coat-contour" /></g><g
       id="g3"
       style="display:inline"><path
         style="display:inline;fill:#ff0000;stroke-width:0.885764"
         d="m 363.54371,485.99176 c 0,0 -11.33843,59.47199 -9.64704,89.39583 3.38553,59.89623 26.70623,69.42728 58.1819,76.97651 13.18575,3.16251 42.78638,5.08389 54.85594,1.83166 7.03177,-10.44033 10.99064,-14.62596 23.28626,-20.5087 21.26335,-10.17327 60.9834,-1.10937 80.41263,-17.1388 18.10802,-14.93942 17.2904,-104.04133 -34.72933,-113.835 -36.52354,-6.87622 -71.93896,21.07753 -85.53704,12.21956 -13.5981,-8.85796 10.29018,-123.48202 10.29018,-123.48202 z"
         id="path1"
         color="hooves" /><g
         id="g19"><path
           style="display:inline;fill:none;fill-rule:evenodd;stroke:#000000;stroke-width:3;stroke-linecap:round;stroke-dasharray:none;stroke-opacity:1"
           d="m 476.06727,642.94955 c 0,0 8.90418,-44.50327 3.23415,-71.47478 C 475.612,553.92472 453.4282,518.11126 453.4282,518.11126"
           id="path16"
           color="hooves-contour" /><path
           style="display:inline;fill:none;fill-rule:evenodd;stroke:#000000;stroke-width:3;stroke-linecap:round;stroke-dasharray:none;stroke-opacity:1"
           d="m 497.7361,630.33636 c 0,0 10.53997,-36.3715 4.52781,-62.41916 -4.54056,-19.67201 -31.37129,-51.74644 -31.37129,-51.74644"
           id="path18"
           color="hooves-contour" /><path
           style="display:inline;fill:none;fill-rule:evenodd;stroke:#000000;stroke-width:3;stroke-linecap:round;stroke-dasharray:none;stroke-opacity:1"
           d="m 487.06339,634.21735 c 0,0 12.93685,-34.22041 2.58732,-69.21088 -5.65935,-19.13358 -25.87322,-46.57178 -25.87322,-46.57178"
           id="path17"
           color="hooves-contour" /></g><path
         style="display:inline;fill:none;stroke:#000000;stroke-width:5;stroke-dasharray:none;stroke-opacity:1"
         d="m 363.54371,485.99176 c 0,0 -11.33843,59.47199 -9.64704,89.39583 3.38553,59.89623 26.70623,69.42728 58.1819,76.97651 13.18575,3.16251 42.78638,5.08389 54.85594,1.83166 7.03177,-10.44033 10.99064,-14.62596 23.28626,-20.5087 21.26335,-10.17327 60.9834,-1.10937 80.41263,-17.1388 18.10802,-14.93942 17.2904,-104.04133 -34.72933,-113.835 -36.52354,-6.87622 -71.93896,21.07753 -85.53704,12.21956 -13.5981,-8.85796 5.83074,-120.73775 5.83074,-120.73775 z"
         id="path6"
         color="hooves-contour" /></g><g
       id="g2"
       style="display:inline"><path
         style="display:inline;fill:#00ffff;stroke-width:0.885764"
         d="m 400.20244,629.41103 c -4.15451,32.99013 -5.09217,70.08834 -12.82193,105.84815 -13.22768,61.19456 -33.75778,108.93095 -39.25802,121.93663 25.11567,10.73742 57.66388,8.69163 81.149,2.5007 9.8159,-2.58758 17.52478,-88.09671 17.40761,-130.14209 -0.09,-32.36252 -5.83024,-64.13633 -9.35127,-92.9109 -0.88724,-7.25071 -1.51261,-16.01177 -18.56692,-17.16901 -11.54482,-0.78339 -17.7539,3.5476 -18.55847,9.93652 z"
         id="path10"
         color="coat" /><path
         style="display:inline;fill:none;stroke:#000000;stroke-width:5;stroke-dasharray:none;stroke-opacity:1"
         d="m 400.20244,629.41103 c -4.15451,32.99013 -5.09217,70.08834 -12.82193,105.84815 -13.22768,61.19456 -33.75778,108.93095 -39.25802,121.93663 25.11567,10.73742 57.66388,8.69163 81.149,2.5007 9.8159,-2.58758 17.52478,-88.09671 17.40761,-130.14209 -0.09,-32.36252 -5.83024,-64.13633 -9.35127,-92.9109 -0.88724,-7.25071 -1.51261,-16.01177 -18.56692,-17.16901 -11.54482,-0.78339 -17.7539,3.5476 -18.55847,9.93652 z"
         id="path8"
         color="coat-contour" /></g><g
       id="g1"
       style="display:inline"><path
         style="display:inline;fill:#ffff00;stroke:none;stroke-width:0.885764;stroke-opacity:1"
         d="m 509.37342,608.83726 c 4.86703,33.28453 10.03064,24.02378 38.911,102.7343 17.64923,48.1012 -9.86301,141.01526 -3.7909,145.25269 13.28273,9.2694 56.11912,7.50321 73.36346,1.13253 10.34921,-3.82337 -15.96596,-164.23054 -29.38,-192.53641 -10.78142,0.49738 -17.26713,-0.97831 -21.22004,-6.10358 -7.70399,-9.98884 20.09763,-56.74925 12.98053,-81.6134 -5.52447,-19.30017 -23.84766,-23.85144 -45.5274,-10.88025 -18.67445,11.1731 -27.43972,27.63165 -25.33665,42.01412 z"
         id="path4"
         color="coat" /><path
         style="display:inline;fill:none;stroke:#000000;stroke-width:5;stroke-dasharray:none;stroke-opacity:1"
         d="m 509.37342,608.83726 c 4.86703,33.28453 10.03064,24.02378 38.911,102.7343 17.64923,48.1012 -9.86301,141.01526 -3.7909,145.25269 13.28273,9.2694 56.11912,7.50321 73.36346,1.13253 10.34921,-3.82337 -15.96596,-164.23054 -29.38,-192.53641 -10.78142,0.49738 -17.26713,-0.97831 -21.22004,-6.10358 -7.70399,-9.98884 20.09763,-56.74925 12.98053,-81.6134 -5.52447,-19.30017 -23.84766,-23.85144 -45.5274,-10.88025 -18.67445,11.1731 -27.43972,27.63165 -25.33665,42.01412 z"
         id="path19"
         color="coat-contour" /></g><g
       id="g20"><path
         style="display:inline;fill:#0600ff;fill-opacity:1;fill-rule:evenodd;stroke:none;stroke-width:5;stroke-linecap:round;stroke-dasharray:none;stroke-opacity:1"
         d="m 452.45796,514.71539 -25.87322,33.7969 c 0,0 22.62489,15.9426 37.19275,16.17077 22.08076,0.34584 40.19018,-16.54557 61.4489,-20.05175 18.50928,-3.05272 54.01035,-0.64683 54.01035,-0.64683 0,0 2.91131,-36.49563 -23.12025,-61.43856 -6.93054,-6.64071 -26.4512,-16.25314 -44.44314,-14.32645 7.05713,3.92003 10.51843,19.97689 -6.70516,23.09764 -17.22358,3.12075 -21.44152,-12.57026 -20.24673,-19.44492 -10.10784,7.07371 -22.8295,20.39799 -32.2635,42.8432 z"
         id="path20"
         color="tail-main" /><path
         d="m 578.44531,528.42773 c -7.58143,-2.89314 -20.36282,-6.97252 -34.62304,-8.16015 -19.74759,-1.64464 -53.51368,5.94531 -53.51368,5.94531 0,0 0.55305,-4.49279 1.25196,-6.63086 1.12865,-3.45273 4.69531,-9.83398 4.69531,-9.83398 0,0 -14.3065,-0.22681 -31.29297,6.24023 -5.95138,2.26579 -13.59049,5.4879 -19.69922,8.125 0,0 -0.002,0.002 -0.002,0.002 l -18.67774,24.39649 c 0,0 22.6255,15.9437 37.19336,16.17187 22.08076,0.34584 40.1905,-16.54655 61.44922,-20.05273 18.50928,-3.05272 54.00977,-0.64648 54.00977,-0.64649 0,0 0.50663,-6.3473 -0.79102,-15.55664 z"
         style="display:inline;fill:#00e4ff;fill-opacity:1;fill-rule:evenodd;stroke-width:5;stroke-linecap:round"
         id="path5"
         color="tail-hl-1" /><path
         style="display:inline;fill:none;fill-opacity:1;fill-rule:evenodd;stroke:#000000;stroke-width:5;stroke-linecap:round;stroke-dasharray:none;stroke-opacity:1"
         d="m 452.45796,514.71539 -25.87322,33.7969 c 0,0 22.62489,15.9426 37.19275,16.17077 22.08076,0.34584 40.19018,-16.54557 61.4489,-20.05175 18.50928,-3.05272 54.01035,-0.64683 54.01035,-0.64683 0,0 2.91131,-36.49563 -23.12025,-61.43856 -6.93054,-6.64071 -26.4512,-16.25314 -44.44314,-14.32645 3.3981,4.49175 10.51843,19.97689 -6.70516,23.09764 -17.22358,3.12075 -19.15463,-13.02764 -20.01804,-18.30147 -7.47792,3.52902 -23.05819,19.25454 -32.49219,41.69975 z"
         id="path2"
         color="tail-contour" /><ellipse
         style="fill:#00ff34;fill-opacity:1;fill-rule:evenodd;stroke:none;stroke-width:6.12372;stroke-linecap:round;stroke-dasharray:none;stroke-opacity:1"
         id="path22"
         cx="715.35236"
         cy="274.03687"
         rx="12.128073"
         ry="7.4385509"
         transform="rotate(22.491027)"
         color="gradient"
         data-grad="from:#ffffff; to:#ffffff; angle:0; range:5%-100%; fromOpacity:0.4; toOpacity:0.1" /></g><g
       id="g27"
       style="display:inline"><path
         style="display:inline;fill:#ff00ef;fill-opacity:1;stroke-width:0.885764"
         d="m 363.54371,485.99176 c 0,0 -11.33843,59.47199 -9.64704,89.39583 1.42797,25.2634 6.40248,41.56665 14.03957,52.54032 0.52282,0.75124 1.09961,2.91285 1.60562,2.17995 37.18547,-53.85863 44.24645,-62.69268 80.82517,-115.17504 0.18211,-0.26129 -0.51928,-0.38841 -0.75773,-0.64205 -0.11986,-0.12749 -0.23619,-0.26486 -0.34905,-0.41189 -11.10318,-14.46477 11.39696,-122.42808 11.39696,-122.42808 z"
         id="path23"
         color="gradient"
         data-grad="from:detail-1;to:coat;angle:240;range:15%-60%" /><path
         style="display:inline;fill:none;fill-opacity:1;stroke:#ff1787;stroke-width:5;stroke-dasharray:none;stroke-opacity:1"
         d="m 363.54371,485.99176 c 0,0 -11.33843,59.47199 -9.64704,89.39583 1.42797,25.2634 6.40248,41.56665 14.03957,52.54032 0.52282,0.75124 0.45278,0.64894 1.60562,2.17995 37.18547,-53.85863 44.24645,-62.69268 80.82517,-115.17504 -0.57733,-0.74396 -0.40594,-0.14091 -1.10678,-1.05394 -8.85007,-11.5295 5.82484,-79.90878 8.02045,-107.65702 0.37766,-4.77285 -8.62967,-4.82308 -8.62967,-4.82308 z"
         id="path27"
         color="coat-contour" /></g><g
       id="g4"
       transform="translate(0.52999922,11.174618)"
       style="display:inline"><path
         style="fill:#dbdbdb;fill-rule:evenodd;stroke-width:5;stroke-linecap:round"
         d="m 370.09188,537.31998 c 0,0 11.19775,15.32035 10.22937,20.37853 -1.82588,9.53727 -10.8762,15.52057 -10.8762,15.52057 0,0 -4.09844,-10.41411 -4.04834,-16.24141 0.0549,-6.38873 4.69517,-19.65769 4.69517,-19.65769 z"
         id="path2-8"
         color="gradient"
         data-grad="from:iris-1;to:iris-1;" /><path
         style="fill:#dbdbdb;fill-rule:evenodd;stroke-width:5;stroke-linecap:round"
         d="m 400.86905,516.87242 c 0,0 7.28793,20.19924 5.40961,24.99453 -3.5416,9.0416 -12.61985,10.17898 -12.61985,10.17898 0,0 -4.63753,-7.90124 -3.5211,-13.62082 1.22397,-6.27063 10.73134,-21.55269 10.73134,-21.55269 z"
         id="path5-2"
         color="gradient"
         data-grad="from:iris-1;to:iris-1;" /><path
         style="fill:#dbdbdb;fill-rule:evenodd;stroke-width:5;stroke-linecap:round"
         d="m 357.28529,519.48223 c 0,0 1.24977,16.69249 0.28139,21.75067 -1.82588,9.53727 -3.67249,16.20663 -3.67249,16.20663 0,0 -7.87181,-10.18542 -7.82171,-16.01272 0.0549,-6.38873 11.21281,-21.94458 11.21281,-21.94458 z"
         id="path7"
         color="gradient"
         data-grad="from:iris-1;to:iris-1;" /><path
         style="fill:none;fill-rule:evenodd;stroke:#000000;stroke-width:3;stroke-linecap:round;stroke-dasharray:none;stroke-opacity:1"
         d="m 370.09188,537.31998 c 0,0 11.19775,15.32035 10.22937,20.37853 -1.82588,9.53727 -10.8762,15.52057 -10.8762,15.52057 0,0 -4.09844,-10.41411 -4.04834,-16.24141 0.0549,-6.38873 4.69517,-19.65769 4.69517,-19.65769 z"
         id="path11"
         color="coat-contour" /><path
         style="fill:none;fill-rule:evenodd;stroke:#000000;stroke-width:3;stroke-linecap:round;stroke-dasharray:none;stroke-opacity:1"
         d="m 400.86905,516.87242 c 0,0 7.28793,20.19924 5.40961,24.99453 -3.5416,9.0416 -12.61985,10.17898 -12.61985,10.17898 0,0 -4.63753,-7.90124 -3.5211,-13.62082 1.22397,-6.27063 10.73134,-21.55269 10.73134,-21.55269 z"
         id="path13"
         color="coat-contour" /><path
         style="fill:none;fill-rule:evenodd;stroke:#000000;stroke-width:3;stroke-linecap:round;stroke-dasharray:none;stroke-opacity:1"
         d="m 357.28529,519.48223 c 0,0 1.24977,16.69249 0.28139,21.75067 -1.82588,9.53727 -3.67249,16.20663 -3.67249,16.20663 0,0 -7.87181,-10.18542 -7.82171,-16.01272 0.0549,-6.38873 11.21281,-21.94458 11.21281,-21.94458 z"
         id="path24"
         color="coat-contour" /></g></g></svg>
