<?xml version="1.0" encoding="UTF-8" standalone="no"?>
<!-- Created with Inkscape (http://www.inkscape.org/) -->

<svg
   width="1000"
   height="1000"
   viewBox="0 0 1000 1000"
   version="1.1"
   id="svg1"
   xml:space="preserve"
   xmlns="http://www.w3.org/2000/svg"
   xmlns:svg="http://www.w3.org/2000/svg"><defs
     id="defs1" /><g
     id="layer6"><ellipse
       style="fill:#0000ff;fill-opacity:1;stroke:none;stroke-width:4;stroke-linecap:round"
       id="path2"
       cx="241.47609"
       cy="464.70328"
       rx="10.52"
       ry="15.84769"
       transform="rotate(-15)"
       data-layer="600"
       color="eye-glimmer" /><path
       style="fill:#fde20f;fill-rule:evenodd;stroke-width:5;stroke-linecap:round"
       d="m 335.45929,420.03167 c 0.45548,-0.28574 0.19517,1.89807 0.43094,2.50793 0.83464,0.1778 2.63329,0.17005 3.47969,-0.36182 -0.063,-0.5927 -0.48082,-2.3515 -0.32215,-2.24659 1.24067,0.82029 3.75409,-0.2754 4.05952,-2.57628 0.30199,-2.27504 -2.14576,-4.55495 -4.56915,-2.84447 0.52493,-1.66382 0.30653,-4.41331 -2.76047,-4.0686 -3.06701,0.34472 -2.88588,3.61626 -1.71608,4.79762 -2.96767,-0.25311 -3.16556,1.88311 -2.99272,3.20028 0.24895,1.89732 2.89876,2.44711 4.39042,1.59193 z"
       id="path3"
       data-layer="600"
       color="eye-glimmer" /></g></svg>
