<?xml version="1.0" encoding="UTF-8" standalone="no"?>
<!-- Created with Inkscape (http://www.inkscape.org/) -->

<svg
   width="1000"
   height="1000"
   viewBox="0 0 1000 1000"
   version="1.1"
   id="svg1"
   xml:space="preserve"
   xmlns="http://www.w3.org/2000/svg"
   xmlns:svg="http://www.w3.org/2000/svg"><defs
     id="defs1" /><g
     id="layer5"><path
       style="fill:#001fff;fill-opacity:1;stroke:none;stroke-width:5;stroke-linecap:square;stroke-dasharray:none"
       d="m 551.09961,514.8771 c -1.11404,-5.5892 43.26548,-56.27608 105.43337,-59.50841 150.48609,-7.82432 159.76715,227.03752 159.76715,227.03752 0,0 -2.68456,9.91245 -15.57029,27.43664 -3.64773,4.96079 -0.41216,-55.8402 -13.36702,-76.5761 0.76569,14.8021 7.85603,60.76203 -1.80557,90.24169 -1.02263,3.12027 -2.23293,6.05592 -3.65828,8.75044 -9.78585,18.49951 -34.44866,33.52711 -62.60298,54.13187 -57.8091,42.30763 -73.75912,46.08015 -73.75912,46.08015 0,0 60.33235,-237.4661 0.64683,-300.77621 -27.83527,-29.52565 -89.13562,13.02616 -95.08409,-16.81759 z"
       id="path18"
       color="tail-main"
       data-layer="200" /><path
       style="fill:none;fill-opacity:1;stroke:#000000;stroke-width:3;stroke-linecap:square;stroke-dasharray:none"
       d="m 552.51293,516.38005 c 0,0 61.42287,-62.20384 137.67085,-46.65258 116.18682,23.69703 88.27401,268.02365 88.27401,268.02365"
       id="path20"
       color="tail-contour"
       data-layer="200" /><path
       style="fill:#ff0000;fill-opacity:1;stroke:none;stroke-width:3;stroke-linecap:square;stroke-dasharray:none"
       d="m 552.05555,526.89975 c -1.60142,3.26012 67.93917,-30.96811 109.3134,-23.78367 44.76522,7.77326 44.06912,89.9118 31.36005,175.99371 -11.46438,77.65138 -42.33713,151.48912 -42.33713,151.48912 l 33.846,-19.20989 c 0,0 93.80715,-312.70418 -15.55086,-323.8238 -55.08415,-5.601 -113.64795,33.2608 -116.63146,39.33453 z"
       id="path22"
       color="tail-hl-1"
       data-layer="200" /><path
       style="fill:#00ff47;fill-opacity:1;stroke:none;stroke-width:3;stroke-linecap:square;stroke-dasharray:none"
       d="m 552.05555,523.24072 c 3.93623,-7.54601 44.92558,-47.96785 118.00359,-49.85423 143.36326,-3.70067 62.66082,304.15654 62.66082,304.15654 l -51.22636,36.13288 c 0,0 95.63666,-312.70418 -13.72135,-323.8238 -55.08415,-5.601 -121.82549,45.09959 -115.7167,33.38861 z"
       id="path21"
       color="tail-hl-2"
       data-layer="200" /><path
       style="fill:none;fill-opacity:1;stroke:#000000;stroke-width:5;stroke-linecap:square;stroke-dasharray:none"
       d="m 551.09961,514.8771 c -1.11404,-5.5892 43.26548,-56.27608 105.43337,-59.50841 150.48609,-7.82432 159.76715,227.03752 159.76715,227.03752 0,0 -2.68456,9.91245 -15.57029,27.43664 -3.64773,4.96079 -0.41216,-55.8402 -13.36702,-76.5761 0.76569,14.8021 7.85603,60.76203 -1.80557,90.24169 -1.02263,3.12027 -2.23293,6.05592 -3.65828,8.75044 -9.78585,18.49951 -34.44866,33.52711 -62.60298,54.13187 -57.8091,42.30763 -73.75912,46.08015 -73.75912,46.08015 0,0 60.33235,-237.4661 0.64683,-300.77621 -27.83527,-29.52565 -89.13562,13.02616 -95.08409,-16.81759 z"
       id="path19"
       color="tail-contour"
       data-layer="200" /></g></svg>
