<?xml version="1.0" encoding="UTF-8" standalone="no"?>
<!-- Created with Inkscape (http://www.inkscape.org/) -->

<svg
   width="1000"
   height="1000"
   viewBox="0 0 1000 1000"
   version="1.1"
   id="svg1"
   xml:space="preserve"
   xmlns="http://www.w3.org/2000/svg"
   xmlns:svg="http://www.w3.org/2000/svg"><defs
     id="defs1" /><g
     id="layer8"
     style="display:inline"
     data-layer="200"><path
       style="fill:#ff7200;fill-opacity:1;stroke:none;stroke-width:5;stroke-linecap:round;stroke-dasharray:none;stroke-opacity:1"
       d="m 839.74774,722.348 c 0,0 1.06891,-11.09784 -4.04269,-15.20052 -7.60917,-6.10728 -32.58053,-7.80369 -32.82665,14.23027 -0.0783,7.00894 14.52347,10.07917 17.30271,20.05175 0,0 2.10941,15.94571 7.60026,15.68563 12.04297,-0.57042 11.96637,-34.76713 11.96637,-34.76713 z"
       id="path39"
       data-grad="from:tail-contour;to:tail-contour;angle:45;range:1%-100%; fromOpacity:1; toOpacity:1"
       color="gradient" /><path
       style="display:inline;fill:none;fill-opacity:1;stroke:#000000;stroke-width:5;stroke-linecap:round;stroke-dasharray:none;stroke-opacity:1"
       d="m 839.74774,722.348 c 0,0 1.06891,-11.09784 -4.04269,-15.20052 -7.60917,-6.10728 -32.58053,-7.80369 -32.82665,14.23027 -0.0783,7.00894 14.52347,10.07917 17.30271,20.05175 0,0 2.10941,15.94571 7.60026,15.68563 12.04297,-0.57042 11.96637,-34.76713 11.96637,-34.76713 z"
       id="path46"
       color="tail-contour" /><path
       style="fill:#ec00ff;fill-opacity:1;stroke:none;stroke-width:5;stroke-linecap:round;stroke-dasharray:none;stroke-opacity:1"
       d="m 813.94318,729.38634 c 0,0 4.8992,-1.13718 7.58876,-2.56938 2.83999,-1.5123 7.38139,-5.76263 7.38139,-5.76263 0,0 0.62859,9.6895 2.50241,14.06857 1.13062,2.64225 5.09784,6.95343 5.09784,6.95343 l -10.6727,11.96636 c 0,0 -1.10531,-1.83825 -1.71168,-4.75274 -0.80585,-3.87329 -1.34376,-9.38458 -3.20653,-12.44881 -1.65731,-2.72625 -6.97949,-7.4548 -6.97949,-7.4548 z"
       id="path40"
       color="tail-main" /><path
       style="fill:#ffea00;fill-opacity:1;stroke:none;stroke-width:5;stroke-linecap:round;stroke-dasharray:none;stroke-opacity:1"
       d="m 785.57568,734.79948 c 0,0 22.0465,18.16738 33.9586,14.87711 16.18677,-4.47098 20.37516,-29.7542 20.37516,-29.7542 0,0 -1.59083,21.82923 4.85124,31.53298 2.30313,3.46922 7.43854,6.95343 7.43854,6.95343 0,0 -6.96851,28.75747 -24.41784,31.20957 -20.16138,2.83321 -46.4101,-36.38422 -46.4101,-36.38422 z"
       id="path38"
       color="tail-main" /><path
       d="m 844.25977,750.64844 c -3.59994,4.71933 -11.13664,13.59329 -17.44922,14.39062 -13.40986,1.69378 -33.61336,-12.60823 -43.48047,-20.39648 l -1.95899,8.59179 c 0,0 5.64783,8.43671 13.71485,17.20118 11.62598,4.5705 24.9162,8.12297 33.98828,5.4375 8.46401,-2.50548 16.29949,-13.62985 20.08984,-19.79102 -1.5317,-1.28623 -3.29646,-2.95822 -4.40429,-4.62695 -0.17272,-0.26017 -0.33865,-0.5297 -0.5,-0.80664 z"
       style="fill:#0013ff;fill-opacity:1;stroke:none;stroke-width:3;stroke-linecap:round"
       id="path43"
       color="tail-hl-1" /><path
       d="m 844.25977,750.64844 c -3.59994,4.71933 -11.13664,13.59329 -17.44922,14.39062 -13.40986,1.69378 -33.61336,-12.60823 -43.48047,-20.39648 l -1.95899,8.59179 c 0,0 5.64783,8.43671 13.71485,17.20118 11.62598,4.5705 24.9162,8.12297 33.98828,5.4375 8.46401,-2.50548 16.29949,-13.62985 20.08984,-19.79102 -1.5317,-1.28623 -3.29646,-2.95822 -4.40429,-4.62695 -0.17272,-0.26017 -0.33865,-0.5297 -0.5,-0.80664 z"
       style="fill:none;stroke:#000000;stroke-width:3;stroke-linecap:round"
       id="path44"
       color="tail-contour" /><path
       style="fill:none;fill-opacity:1;stroke:#000000;stroke-width:5;stroke-linecap:round;stroke-dasharray:none;stroke-opacity:1"
       d="m 785.57568,734.79948 c 0,0 22.0465,18.16738 33.9586,14.87711 16.18677,-4.47098 20.37516,-29.7542 20.37516,-29.7542 0,0 -1.59083,21.82923 4.85124,31.53298 2.30313,3.46922 7.43854,6.95343 7.43854,6.95343 0,0 -6.96851,28.75747 -24.41784,31.20957 -20.16138,2.83321 -46.4101,-36.38422 -46.4101,-36.38422 z"
       id="path45"
       color="tail-contour" /></g><g
     id="layer5"
     style="display:inline"
     data-layer="200"><g
       id="g18"
       style="display:inline"><path
         style="display:inline;fill:#ec00ff;fill-opacity:1;stroke:none;stroke-width:5;stroke-linecap:round;stroke-dasharray:none"
         d="m 531.97688,534.69816 c 0.11912,-7.51148 8.4586,-47.70011 43.93524,-78.41853 22.88717,-19.81749 46.45974,-38.43766 102.53678,-24.24663 33.38126,8.44756 57.85072,57.6664 60.80438,93.81803 2.81455,34.44904 -40.37931,98.47029 -40.37931,98.47029 l -28.81483,-4.11641 c 0,0 16.81118,-28.50233 12.94055,-47.19237 -5.54194,-26.76032 -5.2195,-64.70477 -48.60259,-75.22805 -43.11492,-10.45823 -102.62186,49.62879 -102.42022,36.91367 z"
         id="path18"
         color="gradient"
         data-grad="from:tail-main;to:tail-contour;angle:45;range:1%-100%; fromOpacity:1; toOpacity:1" /><path
         d="m 719.12109,589.92969 c -1.98892,-31.60323 -12.17398,-121.48775 -63.88086,-136.17774 -51.86674,-14.7354 -102.18186,47.60575 -122.95507,77.70313 -0.19979,1.38371 -0.29622,2.47802 -0.3086,3.23828 21.17208,-25.03525 73.80452,-78.09708 124.23242,-56.36133 40.99216,17.66869 43.79196,116.44729 43.75391,144.34375 2.87595,-4.39779 11.01566,-17.15378 19.1582,-32.74609 z"
         style="fill:#00ff27;fill-opacity:1;stroke:none;stroke-width:3;stroke-linecap:round"
         id="path24"
         color="gradient"
         data-grad="from:tail-hl-1;to:tail-contour;angle:45;range:1%-100%; fromOpacity:1; toOpacity:1" /><path
         style="fill:none;stroke:#000000;stroke-width:5;stroke-linecap:round;stroke-dasharray:none"
         d="m 531.97688,534.69816 c 0.11912,-7.51148 8.4586,-47.70011 43.93524,-78.41853 22.88717,-19.81749 46.45974,-38.43766 102.53678,-24.24663 33.38126,8.44756 57.85072,57.6664 60.80438,93.81803 2.81455,34.44904 -40.37931,98.47029 -40.37931,98.47029 l -28.81483,-4.11641 c 0,0 16.81118,-28.50233 12.94055,-47.19237 -5.54194,-26.76032 -5.2195,-64.70477 -48.60259,-75.22805 -43.11492,-10.45823 -102.62186,49.62879 -102.42022,36.91367 z"
         id="path31"
         color="tail-contour" /><path
         d="m 719.12109,589.92969 c -1.98892,-31.60323 -12.17398,-121.48775 -63.88086,-136.17774 -51.86674,-14.7354 -102.18186,47.60575 -122.95507,77.70313 -0.19979,1.38371 -0.29622,2.47802 -0.3086,3.23828 21.17208,-25.03525 73.80452,-78.09708 124.23242,-56.36133 40.99216,17.66869 43.79196,116.44729 43.75391,144.34375 2.87595,-4.39779 11.01566,-17.15378 19.1582,-32.74609 z"
         style="fill:none;stroke:#000000;stroke-width:3;stroke-linecap:round"
         id="path32"
         color="tail-contour" /></g><g
       id="g21"
       style="display:inline"><path
         style="display:inline;fill:#3000ff;fill-opacity:1;stroke:none;stroke-width:5;stroke-linecap:round;stroke-dasharray:none"
         d="m 711.35188,771.66882 c 0,0 -9.13951,0.21564 -12.6132,-2.82988 -22.46344,-19.6946 5.49806,-87.40298 5.49806,-87.40298 l 39.13325,-26.03492 c 0,0 11.86548,23.83841 11.96636,36.70763 0.52295,66.71244 -43.98447,79.56015 -43.98447,79.56015 z"
         id="path21"
         color="gradient"
         data-grad="from:tail-contour;to:tail-contour;angle:90;range:5%-100%; fromOpacity:1; toOpacity:1" /><path
         style="display:inline;fill:none;stroke:#000000;stroke-width:5;stroke-linecap:round;stroke-dasharray:none"
         d="m 711.35188,771.66882 c 0,0 -9.13951,0.21564 -12.6132,-2.82988 -22.46344,-19.6946 5.49806,-87.40298 5.49806,-87.40298 l 39.13325,-26.03492 c 0,0 11.86548,23.83841 11.96636,36.70763 0.52295,66.71244 -43.98447,79.56015 -43.98447,79.56015 z"
         id="path33"
         color="tail-contour" /></g><g
       id="g20"
       style="display:inline"><path
         style="fill:#e3ff00;fill-opacity:1;stroke:none;stroke-width:5;stroke-linecap:round;stroke-dasharray:none"
         d="m 706.66236,771.66883 c 0,0 26.53691,6.92311 39.13325,11.80465 21.05458,8.15943 32.66493,17.94955 32.66493,17.94955 0,0 14.32007,-14.57143 16.17077,-39.78008 2.75646,-37.54603 -21.34541,-83.76455 -21.34541,-83.76455 0,0 -7.39657,-2.15269 -13.26003,-5.82148 -6.63707,-4.15285 -14.8771,-16.17076 -14.8771,-16.17076 0,0 8.89644,63.39626 -17.78784,98.64165 -5.78088,7.63556 -20.69857,17.14102 -20.69857,17.14102 z"
         id="path20"
         color="tail-main" /><path
         d="m 760.36328,672.26562 c 1.78414,20.79897 3.6674,61.44795 -6.14648,82.63672 -4.23971,9.15377 -12.13474,18.08061 -19.1836,24.87696 4.01128,1.26657 7.77724,2.53676 10.76172,3.69336 10.0295,3.8868 17.91652,8.14475 23.42578,11.53711 4.90169,-10.8115 10.55342,-29.01236 9.23633,-53.82813 -0.99549,-18.75654 -9.37335,-49.10648 -14.80078,-67.11133 -1.10712,-0.54944 -2.2222,-1.15143 -3.29297,-1.80469 z"
         style="fill:#00ff5f;fill-opacity:1;stroke:none;stroke-width:5;stroke-linecap:round"
         id="path27"
         color="tail-hl-2" /><path
         style="fill:none;stroke:#000000;stroke-width:5;stroke-linecap:round;stroke-dasharray:none"
         d="m 706.66236,771.66883 c 0,0 26.53691,6.92311 39.13325,11.80465 21.05458,8.15943 32.66493,17.94955 32.66493,17.94955 0,0 14.32007,-14.57143 16.17077,-39.78008 2.75646,-37.54603 -21.34541,-83.76455 -21.34541,-83.76455 0,0 -7.39657,-2.15269 -13.26003,-5.82148 -6.63707,-4.15285 -14.8771,-16.17076 -14.8771,-16.17076 0,0 8.89644,63.39626 -17.78784,98.64165 -5.78088,7.63556 -20.69857,17.14102 -20.69857,17.14102 z"
         id="path34"
         color="tail-contour" /><path
         d="m 760.36328,672.26562 c 1.78414,20.79897 3.6674,61.44795 -6.14648,82.63672 -4.23971,9.15377 -12.13474,18.08061 -19.1836,24.87696 4.01128,1.26657 7.77724,2.53676 10.76172,3.69336 10.0295,3.8868 17.91652,8.14475 23.42578,11.53711 4.90169,-10.8115 10.55342,-29.01236 9.23633,-53.82813 -0.99549,-18.75654 -9.37335,-49.10648 -14.80078,-67.11133 -1.10712,-0.54944 -2.2222,-1.15143 -3.29297,-1.80469 z"
         style="fill:none;stroke:#000000;stroke-width:3;stroke-linecap:round;stroke-dasharray:none"
         id="path35"
         color="tail-contour" /></g><g
       id="g19"
       style="display:inline"><path
         style="fill:#feff00;fill-opacity:1;stroke:none;stroke-width:5;stroke-linecap:round;stroke-dasharray:none"
         d="m 641.00906,613.19534 c 0,0 16.02615,39.11002 18.75808,59.83183 2.36933,17.97146 -2.26391,54.33376 -2.26391,54.33376 0,0 57.02913,-23.44794 75.67918,-49.48253 29.33985,-40.95705 47.68865,-84.27445 25.5498,-154.91592 -17.59509,-56.14309 -66.62354,-85.05821 -66.62354,-85.05821 0,0 84.56684,108.19574 -12.11415,170.01463 -10.09576,6.45534 -38.98546,5.27644 -38.98546,5.27644 z"
         id="path19"
         color="tail-main" /><path
         d="m 762.90234,537.83203 c -6.74328,19.44324 -21.60745,54.14602 -48.93554,82.37305 -19.54656,20.18952 -44.78029,29.46859 -58.69727,33.30469 2.07774,7.08883 3.76582,13.96359 4.49805,19.51757 0.87754,6.65621 0.79427,15.83587 0.34179,24.75586 15.58073,-8.0985 43.33035,-24.18856 60.26172,-43.73242 27.09292,-31.2733 40.8362,-74.97421 46.36719,-96.76367 -0.909,-6.24299 -2.17771,-12.71904 -3.83594,-19.45508 z"
         style="fill:#00ff5f;fill-opacity:1;stroke:none;stroke-width:5;stroke-linecap:round"
         id="path30"
         color="tail-hl-2" /><path
         style="fill:none;stroke:#000000;stroke-width:5;stroke-linecap:round;stroke-dasharray:none"
         d="m 641.00906,613.19534 c 0,0 16.02615,39.11002 18.75808,59.83183 2.36933,17.97146 -2.26391,54.33376 -2.26391,54.33376 0,0 57.02913,-23.44794 75.67918,-49.48253 29.33985,-40.95705 47.68865,-84.27445 25.5498,-154.91592 -17.59509,-56.14309 -66.62354,-85.05821 -66.62354,-85.05821 0,0 84.56684,108.19574 -12.11415,170.01463 -10.09576,6.45534 -38.98546,5.27644 -38.98546,5.27644 z"
         id="path36"
         color="tail-contour" /><path
         d="m 762.90234,537.83203 c -6.74328,19.44324 -21.60745,54.14602 -48.93554,82.37305 -19.54656,20.18952 -44.78029,29.46859 -58.69727,33.30469 2.07774,7.08883 3.76582,13.96359 4.49805,19.51757 0.87754,6.65621 0.79427,15.83587 0.34179,24.75586 15.58073,-8.0985 43.33035,-24.18856 60.26172,-43.73242 27.09292,-31.2733 40.8362,-74.97421 46.36719,-96.76367 -0.909,-6.24299 -2.17771,-12.71904 -3.83594,-19.45508 z"
         style="fill:none;stroke:#000000;stroke-width:3;stroke-linecap:round;stroke-dasharray:none"
         id="path37"
         color="tail-contour" /></g></g></svg>
