<?xml version="1.0" encoding="UTF-8" standalone="no"?>
<!-- Created with Inkscape (http://www.inkscape.org/) -->

<svg
   width="1000"
   height="1000"
   viewBox="0 0 1000 1000"
   version="1.1"
   id="svg1"
   xml:space="preserve"
   xmlns="http://www.w3.org/2000/svg"
   xmlns:svg="http://www.w3.org/2000/svg"><defs
     id="defs1" /><g
     id="layer11"
     style="display:inline"
     data-layer="200"><path
       style="fill:#ff8500;fill-opacity:1;stroke:none;stroke-width:3;stroke-linecap:round;stroke-opacity:1"
       d="m 664.61837,735.76973 c -10.04188,11.56702 -0.80854,42.52911 -0.80854,42.52911 0,0 6.54203,-8.76279 8.51149,-13.82541 2.30702,-5.93037 2.60845,-8.19113 3.61658,-14.15001 3.52905,9.35521 3.50157,20.09281 24.41785,33.47348 14.00104,8.95681 49.48254,-6.14489 49.48254,-6.14489 0,0 -9.75894,-1.55042 -14.50618,-2.87929 -3.66313,-1.0254 -10.72021,-3.91243 -10.72021,-3.91243 0,0 24.61086,-3.4052 32.98836,-16.00906 6.00357,-9.03231 4.85123,-35.09055 4.85123,-35.09055 0,0 -7.05725,13.76654 -12.22242,19.40021 -3.85952,4.2096 -13.65081,10.35399 -13.65081,10.35399 0,0 14.23329,-25.64466 5.17465,-30.72445 -17.94196,-10.06127 -60.19349,-2.53473 -77.13454,16.9793 z"
       id="path27"
       color="tail-main" /><path
       d="m 723.71292,714.41192 c -11.79058,-0.56263 -25.72323,1.8996 -37.76563,6.9336 7.72619,0.003 31.56129,0.85809 34.78321,11.18945 3.39092,10.8733 -21.34571,26.68164 -21.34571,26.68164 0,0 15.74319,3.10005 27.67774,2.625 17.83896,-0.71007 28.86644,-8.68165 32.79492,-12.08984 3.426,-11.19886 2.59375,-29.99024 2.59375,-29.99024 0,0 -7.05749,13.76477 -12.22266,19.39844 -3.85952,4.2096 -13.65039,10.35547 -13.65039,10.35547 0,0 14.23247,-25.64482 5.17383,-30.72461 -4.66215,-2.61439 -10.96472,-4.04133 -18.03906,-4.37891 z"
       style="fill:#00ff87;fill-opacity:1;stroke:none;stroke-width:3;stroke-linecap:round"
       id="path31"
       color="tail-hl-2" /><path
       style="fill:none;fill-opacity:1;stroke:#000000;stroke-width:3;stroke-linecap:round;stroke-opacity:1"
       d="m 684.99353,721.86287 c 0,0 31.88391,-1.68382 35.73739,10.67271 3.39092,10.8733 -21.34541,26.68176 -21.34541,26.68176 0,0 15.74265,3.10002 27.6772,2.62497 22.74851,-0.90549 32.31633,-11.35718 32.31633,-11.35718"
       id="path28"
       color="tail-contour" /><path
       style="fill:none;fill-opacity:1;stroke:#000000;stroke-width:3;stroke-linecap:round;stroke-opacity:1"
       d="m 664.61837,735.76973 c -10.04188,11.56702 -0.80854,42.52911 -0.80854,42.52911 0,0 6.54203,-8.76279 8.51149,-13.82541 2.30702,-5.93037 2.60845,-8.19113 3.61658,-14.15001 3.52905,9.35521 3.50157,20.09281 24.41785,33.47348 14.00104,8.95681 49.48254,-6.14489 49.48254,-6.14489 0,0 -9.75894,-1.55042 -14.50618,-2.87929 -3.66313,-1.0254 -10.72021,-3.91243 -10.72021,-3.91243 0,0 24.61086,-3.4052 32.98836,-16.00906 6.00357,-9.03231 4.85123,-35.09055 4.85123,-35.09055 0,0 -7.05725,13.76654 -12.22242,19.40021 -3.85952,4.2096 -13.65081,10.35399 -13.65081,10.35399 0,0 14.23329,-25.64466 5.17465,-30.72445 -17.94196,-10.06127 -60.19349,-2.53473 -77.13454,16.9793 z"
       id="path32"
       color="tail-contour" /></g><g
     id="layer10"
     style="display:inline"
     data-layer="200"><path
       style="fill:#003bff;fill-opacity:1;stroke:none;stroke-width:3;stroke-linecap:round;stroke-opacity:1"
       d="m 546.10964,527.81451 c -8.30777,-22.98898 44.69952,-93.5522 123.03475,-91.01828 58.87355,1.90439 91.46644,54.5633 106.11176,100.16584 18.07467,56.28086 13.68797,139.70317 -36.13289,171.51685 -39.6952,25.34783 -78.05819,21.69601 -99.25108,-3.20165 -34.34722,-40.35152 50.05887,-120.47319 16.46562,-161.45453 -43.05666,-52.52602 -107.23105,-7.71472 -110.22816,-16.00823 z"
       id="path18"
       color="tail-main" /><path
       d="m 669.14453,436.79687 c -74.40777,-2.40687 -125.96335,61.13729 -123.82617,87.2168 11.19565,-16.09731 53.64148,-72.24749 100.04297,-70.75195 74.78384,2.41032 106.11022,48.59047 113.42969,131.72461 6.34241,72.03678 -27.8529,119.15772 -41.11329,134.49804 7.0407,-2.73886 14.22089,-6.39261 21.44532,-11.00585 49.82086,-31.81368 54.20748,-115.23477 36.13281,-171.51563 -14.64532,-45.60254 -47.23778,-98.26163 -106.11133,-100.16602 z"
       style="display:inline;fill:#22ff00;fill-opacity:1;stroke:none;stroke-width:3;stroke-linecap:round"
       id="path25"
       color="tail-hl-2" /><path
       d="m 674.6875,724.86523 c -7.166,-5.10864 -15.63943,-17.03978 -18.80664,-44.74414 -6.19445,-54.18451 74.32158,-132.52643 28.35742,-171.05859 -51.8154,-43.43732 -122.21224,9.34042 -135.13281,19.77148 13.58309,-1.25122 68.81416,-31.87922 107.23242,14.98829 33.59325,40.98134 -50.81206,121.10355 -16.46484,161.45507 8.94381,10.5073 20.94504,17.23117 34.81445,19.58789 z"
       style="fill:#22ff00;fill-opacity:1;stroke:none;stroke-width:3;stroke-linecap:round"
       id="path24"
       color="tail-hl-1" /><path
       style="fill:none;stroke:#000000;stroke-width:3;stroke-linecap:round;stroke-opacity:1"
       d="m 542.45061,528.27188 c 0,0 48.76156,-76.75526 102.91011,-75.01003 74.78384,2.41032 106.11033,48.5908 113.4298,131.72494 7.83526,88.99238 -43.28446,135.26822 -43.28446,135.26822"
       id="path19"
       color="tail-contour" /><path
       style="fill:none;stroke:#000000;stroke-width:3;stroke-linecap:round;stroke-opacity:1"
       d="m 547.02439,530.55878 c 0,0 79.95268,-69.49902 137.21348,-21.49678 45.96416,38.53216 -34.55192,116.87495 -28.35746,171.05946 3.4332,30.03103 10.96914,40.48294 16.93685,43.83941"
       id="path20"
       color="tail-contour" /><path
       style="fill:none;stroke:#000000;stroke-width:3;stroke-linecap:round;stroke-opacity:1"
       d="m 546.10964,527.81451 c -8.30777,-22.98898 44.69952,-93.5522 123.03475,-91.01828 58.87355,1.90439 91.46644,54.5633 106.11176,100.16584 18.07467,56.28086 13.68797,139.70317 -36.13289,171.51685 -39.6952,25.34783 -78.05819,21.69601 -99.25108,-3.20165 -34.34722,-40.35152 50.05887,-120.47319 16.46562,-161.45453 -43.05666,-52.52602 -107.23105,-7.71472 -110.22816,-16.00823 z"
       id="path26"
       color="tail-contour" /></g></svg>
