<?xml version="1.0" encoding="UTF-8" standalone="no"?>
<!-- Created with Inkscape (http://www.inkscape.org/) -->

<svg
   width="1000"
   height="1000"
   viewBox="0 0 1000 1000"
   version="1.1"
   id="svg1"
   xml:space="preserve"
   xmlns="http://www.w3.org/2000/svg"
   xmlns:svg="http://www.w3.org/2000/svg"><defs
     id="defs1" /><g
     id="layer5"
     style="display:inline"
     data-layer="200"><path
       style="display:inline;fill:#f9ff01;fill-opacity:1;stroke:none;stroke-width:5;stroke-linecap:round;stroke-dasharray:none;stroke-opacity:1"
       d="m 546.10964,537.87683 c 0,0 29.51371,-83.19172 63.11819,-110.68554 39.52086,-32.33436 94.94213,-53.17742 140.87251,-14.17872 37.24976,31.62812 7.31805,93.76254 7.31805,93.76254 0,0 66.87057,-32.52998 86.90187,-3.65903 22.89983,33.00533 9.04411,77.5338 -5.7921,101.98405 -20.14692,33.20235 -46.13288,39.67149 -50.92281,42.54748 3.87641,0.6264 42.24915,-0.75218 42.99356,36.59026 0.89662,44.97759 -33.84599,53.05588 -33.84599,53.05588 0,0 7.48752,15.24705 -2.0582,27.90007 -8.90483,11.80351 -29.04352,13.26397 -29.04352,13.26397 0,0 16.30326,17.73861 36.59026,10.06232 22.60821,-8.5546 21.0394,-30.18696 21.0394,-30.18696 0,0 21.4536,28.99074 -28.75213,53.59173 -11.3536,5.5633 -56.80313,6.69949 -71.01954,-17.37559 -11.43215,-19.36003 12.67235,-31.06997 17.44358,-37.1309 -3.20422,0.59192 -65.55517,24.00064 -104.28224,-40.24929 -29.59273,-49.09565 19.20989,-102.45273 19.20989,-102.45273 0,0 -35.91419,-6.12055 -43.45094,-43.45093 -7.0906,-35.12056 37.9624,-84.61498 37.9624,-84.61498 0,0 -23.69744,3.05818 -42.99356,15.55086 -33.50766,21.69351 -42.272,41.0242 -55.86587,49.75186 -5.27694,3.38795 -5.42281,-14.07635 -5.42281,-14.07635 z"
       id="path18"
       color="tail-main" /><path
       d="m 770.33008,501.30859 c 8.67986,3.40449 30.24751,12.97948 41.89844,27.9961 27.64955,35.6369 3.32503,94.92282 -1.77735,106.34375 8.9184,-6.22543 19.07894,-15.72129 28.07617,-30.54883 14.83621,-24.45025 28.6928,-68.97905 5.79297,-101.98438 -14.49795,-20.89577 -53.53137,-9.62646 -73.99023,-1.80664 z"
       style="fill:#01ff11;fill-opacity:1;stroke:none;stroke-width:5;stroke-linecap:round"
       id="path25"
       color="tail-hl-2" /><path
       d="m 766.45312,778.38086 c -4.2007,-1.58268 -10.92096,-4.57475 -15.45117,-8.86914 -3.8914,-3.68884 -8.46308,-9.15818 -10.46093,-11.60742 -5.59139,6.19096 -28.16572,17.78862 -17.03125,36.64453 14.21641,24.07508 59.66593,22.94025 71.01953,17.37695 50.20573,-24.60099 28.75195,-53.5918 28.75195,-53.5918 0,0 1.56915,21.63095 -21.03906,30.18555 -20.287,7.67629 -36.5918,-10.0625 -36.5918,-10.0625 0,0 0.28557,-0.0199 0.80273,-0.0762 z"
       style="fill:#01ff11;fill-opacity:1;stroke:none;stroke-width:5;stroke-linecap:round"
       id="path24"
       color="tail-hl-2" /><path
       d="m 671.10352,751.95312 c 14.3346,-0.37533 39.53502,-5.20264 46.98046,-33.4121 5.74865,-21.78061 -18.29492,-47.10938 -18.29492,-47.10938 0,0 127.68007,-8.66141 90.10352,-110.22852 -11.12892,-30.08078 -80.95703,-5.48828 -80.95703,-5.48828 0,0 73.81524,-93.43251 -5.03125,-120.74804 -84.32235,-29.21258 -143.76923,82.28907 -157.20313,110.36132 0.64777,4.26564 2.00332,8.44112 4.83203,6.625 13.59387,-8.72766 22.35758,-28.05844 55.86524,-49.75195 19.29612,-12.49268 42.99414,-15.55078 42.99414,-15.55078 0,0 -45.05349,49.49468 -37.96289,84.61523 7.53675,37.33038 43.45117,43.45118 43.45117,43.45118 0,0 -48.80367,53.35747 -19.21094,102.45312 10.32179,17.1243 22.3226,28.02116 34.4336,34.7832 z"
       style="fill:#01b9ff;fill-opacity:1;stroke:none;stroke-width:5;stroke-linecap:round"
       id="path26"
       color="tail-hl-1" /><path
       style="fill:none;stroke:#000000;stroke-width:5;stroke-linecap:round;stroke-dasharray:none"
       d="m 546.10964,537.87683 c 0,0 29.51371,-83.19172 63.11819,-110.68554 39.52086,-32.33436 94.94213,-53.17742 140.87251,-14.17872 37.24976,31.62812 7.31805,93.76254 7.31805,93.76254 0,0 66.87057,-32.52998 86.90187,-3.65903 22.89983,33.00533 9.04411,77.5338 -5.7921,101.98405 -20.14692,33.20235 -46.13288,39.67149 -50.92281,42.54748 3.87641,0.6264 42.24915,-0.75218 42.99356,36.59026 0.89662,44.97759 -33.84599,53.05588 -33.84599,53.05588 0,0 7.48752,15.24705 -2.0582,27.90007 -8.90483,11.80351 -29.04352,13.26397 -29.04352,13.26397 0,0 16.30326,17.73861 36.59026,10.06232 22.60821,-8.5546 21.0394,-30.18696 21.0394,-30.18696 0,0 21.4536,28.99074 -28.75213,53.59173 -11.3536,5.5633 -56.80313,6.69949 -71.01954,-17.37559 -11.43215,-19.36003 12.67235,-31.06997 17.44358,-37.1309 -3.20422,0.59192 -65.55517,24.00064 -104.28224,-40.24929 -29.59273,-49.09565 19.20989,-102.45273 19.20989,-102.45273 0,0 -35.91419,-6.12055 -43.45094,-43.45093 -7.0906,-35.12056 37.9624,-84.61498 37.9624,-84.61498 0,0 -23.69744,3.05818 -42.99356,15.55086 -33.50766,21.69351 -42.272,41.0242 -55.86587,49.75186 -5.27694,3.38795 -5.42281,-14.07635 -5.42281,-14.07635 z"
       id="path20"
       color="tail-contour" /><path
       d="m 671.10352,751.95312 c 14.3346,-0.37533 39.53502,-5.20264 46.98046,-33.4121 5.74865,-21.78061 -18.29492,-47.10938 -18.29492,-47.10938 0,0 127.68007,-8.66141 90.10352,-110.22852 -11.12892,-30.08078 -80.95703,-5.48828 -80.95703,-5.48828 0,0 73.81524,-93.43251 -5.03125,-120.74804 -84.32235,-29.21258 -143.76923,82.28907 -157.20313,110.36132 0.64777,4.26564 2.00332,8.44112 4.83203,6.625 13.59387,-8.72766 22.35758,-28.05844 55.86524,-49.75195 19.29612,-12.49268 42.99414,-15.55078 42.99414,-15.55078 0,0 -45.05349,49.49468 -37.96289,84.61523 7.53675,37.33038 43.45117,43.45118 43.45117,43.45118 0,0 -48.80367,53.35747 -19.21094,102.45312 10.32179,17.1243 22.3226,28.02116 34.4336,34.7832 z"
       style="display:inline;fill:none;stroke:#000000;stroke-width:3;stroke-linecap:round;stroke-dasharray:none"
       id="path27"
       color="tail-contour" /><path
       style="fill:none;fill-opacity:1;stroke:#000000;stroke-width:5;stroke-linecap:round;stroke-dasharray:none;stroke-opacity:1"
       d="m 655.88616,613.84217 c 0,0 17.64319,-30.50325 31.69469,-28.46054 11.0148,1.60126 12.49542,18.26224 7.43856,25.5498 -7.45711,10.74662 -39.13325,2.91074 -39.13325,2.91074 z"
       id="path28"
       color="tail-contour" /><path
       style="fill:none;fill-opacity:1;stroke:#000000;stroke-width:5;stroke-linecap:round;stroke-dasharray:none;stroke-opacity:1"
       d="m 795.60155,736.73997 c 0,0 -9.32894,-17.24689 -16.81759,-16.17076 -8.67761,1.24698 -13.0377,6.46147 -6.79172,12.61319 4.90724,4.83319 23.60931,3.55757 23.60931,3.55757 z"
       id="path29"
       color="tail-contour" /></g></svg>
