<?xml version="1.0" encoding="UTF-8" standalone="no"?>
<!-- Created with Inkscape (http://www.inkscape.org/) -->

<svg
   width="1000"
   height="1000"
   viewBox="0 0 1000 1000"
   version="1.1"
   id="svg1"
   xml:space="preserve"
   xmlns="http://www.w3.org/2000/svg"
   xmlns:svg="http://www.w3.org/2000/svg"><defs
     id="defs1" /><g
     id="layer14"
     style="display:inline"
     data-layer="200"><path
       style="fill:#edff00;fill-opacity:1;stroke:none;stroke-width:4;stroke-linecap:round;stroke-opacity:1"
       d="m 531.47353,532.38829 c 4.67117,-18.03239 72.09346,-118.90264 130.81018,-118.00359 119.45574,1.82906 191.62436,101.45859 163.74142,235.09242 -17.32669,83.04117 -92.76456,99.36171 -76.78406,119.47324 37.34309,46.99645 127.89476,4.36427 186.2219,13.74828 32.57372,5.24064 57.6811,48.87898 44.92453,71.49055 -23.71291,42.03213 -45.05455,7.058 -45.05455,7.058 0,0 40.87305,22.64764 28.82041,-26.0745 -5.60568,-22.66067 -29.25556,-23.75523 -53.97064,-24.69842 -76.18949,-2.90761 -188.93736,50.51662 -238.75144,0.91475 -82.89653,-82.54339 111.30555,-212.24098 -43.90831,-301.86965 -37.82328,-21.84115 -103.66705,52.27562 -96.04944,22.86892 z"
       id="path18"
       color="tail-main" /><path
       d="m 886.44727,783.26367 c 1.79459,0.1438 52.72397,4.46653 74.96093,33.61328 7.87847,10.32657 6.06849,25.71258 4.92383,31.85742 1.41312,30.47291 -31,12.51368 -31,12.51368 0,0 21.34178,34.97353 45.05469,-7.0586 12.75657,-22.61157 -12.35011,-66.24959 -44.92383,-71.49023 -14.74003,-2.37146 -31.53845,-1.42196 -49.01562,0.56445 z"
       style="fill:#ff3100;fill-opacity:1;stroke:none;stroke-width:4;stroke-linecap:round"
       id="path27"
       color="tail-hl-1" /><path
       d="m 662.2832,414.38477 c -58.71672,-0.89905 -126.13937,99.97151 -130.81054,118.0039 -0.0421,0.16234 -0.0815,0.3205 -0.11914,0.47656 14.68032,-15.58959 57.35818,-56.88473 101.6582,-61.76562 64.91464,-7.15217 102.81668,39.13536 117.35742,90.20898 20.58624,72.30813 -67.01056,148.73392 -61.55664,233.61524 1.24418,19.36353 14.21557,31.4414 18.60742,35 13.5007,2.90199 28.58055,3.19364 44.54688,1.98437 -6.50501,-3.76338 -34.74852,-21.48577 -39.3711,-47.96093 -11.30697,-64.75914 64.59041,-89.22959 91.47461,-174.71875 8.64837,-27.50098 13.90626,-83.3821 14.56641,-90.6836 -24.48418,-62.9521 -81.01475,-103.0066 -156.35352,-104.16015 z"
       style="fill:#ff3100;fill-opacity:1;stroke:none;stroke-width:4;stroke-linecap:round"
       id="path26"
       color="tail-hl-2" /><path
       style="fill:none;stroke:#000000;stroke-width:4;stroke-linecap:round;stroke-opacity:1"
       d="m 525.98499,538.79158 c 0,0 52.27367,-61.65942 107.02651,-67.69198 64.91464,-7.15217 102.81602,39.1353 117.35676,90.20892 20.58624,72.30813 -67.01053,148.73357 -61.55661,233.61489 1.50022,23.34842 20.28159,35.07464 20.28159,35.07464"
       id="path19"
       color="tail-contour" /><path
       style="fill:none;stroke:#000000;stroke-width:4;stroke-linecap:round;stroke-opacity:1"
       d="m 818.70708,517.75218 c 0,0 -5.37248,62.01819 -14.63611,91.47565 -26.8842,85.48916 -102.78262,109.95936 -91.47565,174.7185 5.23072,29.95825 37.9624,47.79602 37.9624,47.79602"
       id="path20"
       color="tail-contour" /><path
       style="fill:none;stroke:#000000;stroke-width:4;stroke-linecap:round;stroke-opacity:1"
       d="m 886.39906,783.26026 c 0,0 52.37269,3.94576 75.01003,33.6173 10.03953,13.15915 5.03116,34.76075 5.03116,34.76075"
       id="path21"
       color="tail-contour" /><path
       style="fill:none;stroke:#000000;stroke-width:4;stroke-linecap:round;stroke-opacity:1"
       d="m 531.47353,532.38829 c 4.67117,-18.03239 72.09346,-118.90264 130.81018,-118.00359 119.45574,1.82906 191.62436,101.45859 163.74142,235.09242 -17.32669,83.04117 -92.76456,99.36171 -76.78406,119.47324 37.34309,46.99645 127.89476,4.36427 186.2219,13.74828 32.57372,5.24064 57.6811,48.87898 44.92453,71.49055 -23.71291,42.03213 -45.05455,7.058 -45.05455,7.058 0,0 40.87305,22.64764 28.82041,-26.0745 -5.60568,-22.66067 -29.25556,-23.75523 -53.97064,-24.69842 -76.18949,-2.90761 -188.93736,50.51662 -238.75144,0.91475 -82.89653,-82.54339 111.30555,-212.24098 -43.90831,-301.86965 -37.82328,-21.84115 -103.66705,52.27562 -96.04944,22.86892 z"
       id="path28"
       color="tail-contour" /></g></svg>
