<?xml version="1.0" encoding="UTF-8" standalone="no"?>
<!-- Created with Inkscape (http://www.inkscape.org/) -->

<svg
   width="1000"
   height="1000"
   viewBox="0 0 1000 1000"
   version="1.1"
   id="svg1"
   xml:space="preserve"
   xmlns="http://www.w3.org/2000/svg"
   xmlns:svg="http://www.w3.org/2000/svg"><defs
     id="defs1" /><g
     id="layer5"
     data-layer="200"><path
       style="fill:#001b1c;fill-opacity:1;fill-rule:evenodd;stroke:none;stroke-width:5;stroke-linecap:round;stroke-dasharray:none;stroke-opacity:1"
       d="m 540.6211,546.10964 c 0,0 18.14379,-99.42356 114.67749,-103.52444 96.53371,-4.10087 117.45893,90.8426 118.10505,100.93711 -4.60248,-4.3914 -9.47885,-11.84073 -21.47753,-23.14773 -11.99868,-11.307 -14.72421,-15.63268 -19.807,-18.12728 2.83939,6.37147 20.82467,24.48852 29.49416,58.87734 8.66949,34.38882 -2.48162,78.78432 6.93915,116.54346 8.73519,35.01131 38.32784,66.40785 38.32784,66.40785 0,0 -20.90929,-4.10262 -29.90146,-9.42821 -11.03898,-6.5378 -27.79322,-26.6262 -27.79322,-26.6262 0,0 1.01087,37.60559 17.2694,60.26295 18.84123,26.25652 46.77999,34.65233 60.4849,43.10453 -9.5796,1.02087 -25.0641,2.81175 -42.29123,-2.68877 -12.16029,-3.88271 -27.25888,-13.0598 -34.54831,-16.52111 4.27801,6.57887 8.95783,11.52939 14.26034,16.50345 5.13807,4.81981 16.84138,12.76875 16.84138,12.76875 0,0 -65.32348,0.96983 -94.85723,-29.49416 -29.53375,-30.464 -40.52673,-82.10613 -40.52673,-82.10613 0,0 -5.91644,8.77312 -8.19153,14.41293 -2.46519,6.11106 -5.52982,20.34782 -5.52982,20.34782 0,0 -10.15918,-32.61588 -9.03659,-62.3049 1.12259,-29.68903 12.29635,-40.39349 15.43988,-51.12491 -3.24657,3.07532 -10.43057,13.96466 -21.63073,17.15842 -11.20017,3.19375 -21.58478,1.46013 -21.58478,1.46013 0,0 33.66918,-26.86664 23.09087,-64.35637 -15.66533,-55.51822 -77.7543,-39.33453 -77.7543,-39.33453 z"
       id="path18"
       color="tail-main" /><path
       d="m 655.29883,442.58594 c -96.5337,4.10088 -114.67774,103.52343 -114.67774,103.52343 0,0 0.1111,-0.0286 0.32618,-0.0801 10.56382,-22.50822 42.77536,-71.88219 92.87495,-76.27331 46.73298,-4.09605 75.38007,11.80964 96.93633,32.6112 4.93133,2.51349 9.35903,6.88031 21.16723,18.00781 11.99868,11.307 16.87604,18.75508 21.47852,23.14648 -0.64612,-10.09451 -21.57176,-105.03641 -118.10547,-100.93554 z"
       style="fill:#f35c5b;fill-opacity:1;fill-rule:evenodd;stroke:none;stroke-width:5;stroke-linecap:round"
       id="path25"
       color="tail-hl-2" /><path
       d="m 798.33398,796.34375 c -15.36936,-2.86496 -45.08706,-16.72579 -62.92773,-78.94727 -7.45853,-26.01251 4.00007,-113.91401 1.65625,-150.12695 -0.93544,-14.45296 -22.69415,-81.25964 -77.30273,-84.41016 -79.88707,-4.6089 -106.25679,41.87162 -113.93165,62.22071 1.0176,-0.16329 2.16549,-0.32768 3.42383,-0.48047 14.92499,-20.9661 56.29845,-65.8299 120.50782,-39.02008 85.10386,35.53406 40.96704,138.35966 40.40058,216.74113 -0.2349,32.50416 23.60413,56.80362 47.59942,73.83364 7.79817,4.17923 18.10877,9.7435 26.88867,12.54687 17.22713,5.50052 32.71141,3.70837 42.29101,2.6875 -6.91233,-4.26303 -17.44482,-8.51171 -28.60547,-15.04492 z"
       style="fill:#f9f5b6;fill-opacity:1;fill-rule:evenodd;stroke:none;stroke-width:5;stroke-linecap:round"
       id="path23"
       color="tail-hl-1" /><path
       d="m 686.98828,792.61133 c -6.31744,-13.24378 -14.76378,-33.6105 -16.92969,-51.65821 -7.07881,-58.98508 46.70551,-149.35763 11.43555,-196.67382 -53.95643,-72.38491 -113.97407,-15.74798 -128.45508,-0.0625 0.20842,-0.0168 0.41859,-0.0332 0.63086,-0.0488 10.87031,-9.5599 43.93437,-32.55578 92.60547,-11.7793 26.77497,11.42957 23.07867,43.96791 20.125,73.63672 -2.89433,29.0728 -26.79141,80.14864 -41.05664,108.52148 2.70317,17.06015 6.75391,30.06446 6.75391,30.06446 0,0 3.0641,-14.2366 5.52929,-20.34766 2.27509,-5.63981 8.19141,-14.41211 8.19141,-14.41211 0,0 10.99359,51.64147 40.52734,82.10547 0.21276,0.21946 0.42615,0.43809 0.64258,0.6543 z"
       style="fill:#2fa9e6;fill-opacity:1;fill-rule:evenodd;stroke:none;stroke-width:5;stroke-linecap:round"
       id="path21"
       color="gradient"
       data-grad="from:tail-contour;to:tail-contour;angle:90;range:5%-100%; fromOpacity:1; toOpacity:1" /><path
       d="m 732.35937,502.36719 c -21.55626,-20.80156 -54.31975,-39.45152 -101.05273,-35.35547 -50.09959,4.39112 -79.79555,56.50936 -90.35937,79.01758 0.68016,-0.16291 2.39427,-0.5502 4.88085,-0.94922 7.67486,-20.34909 33.81589,-65.45748 113.70296,-60.84858 54.60858,3.15052 75.45253,68.81376 76.38797,83.26672 2.34382,36.21294 -8.88609,125.48657 -1.42756,151.49908 17.84067,62.22148 48.47313,74.48149 63.84249,77.34645 -10.96727,-6.42001 -22.54061,-15.04506 -31.8789,-28.05859 -16.25853,-22.65736 -17.26953,-60.26368 -17.26953,-60.26368 0,0 16.75399,20.08916 27.79297,26.62696 8.99217,5.32559 29.90234,9.42773 29.90234,9.42773 0,0 -29.59294,-31.39689 -38.32813,-66.4082 -9.42077,-37.75914 1.73004,-82.15415 -6.93945,-116.54297 -8.66949,-34.38882 -26.65475,-52.50548 -29.49414,-58.87695 0.0807,0.0396 0.16069,0.0786 0.24023,0.11914 z"
       style="fill:#f58448;fill-opacity:1;fill-rule:evenodd;stroke:none;stroke-linecap:round"
       id="path24"
       color="tail-main" /><path
       d="m 757.75977,796.1543 c -23.99529,-17.03002 -46.80522,-41.78686 -46.57032,-74.29102 0.56646,-78.38147 43.67418,-181.32141 -41.42968,-216.85547 -64.20937,-26.80982 -105.58283,18.6257 -120.50782,39.5918 1.17078,-0.14216 2.43792,-0.27403 3.78711,-0.38281 13.79494,-12.02645 73.12652,-72.32241 127.08295,0.0625 35.26996,47.31619 -18.51436,137.68874 -11.43555,196.67382 2.16591,18.04771 11.98438,38.41443 18.30182,51.65821 29.82771,29.79658 94.21289,28.83984 94.21289,28.83984 0,0 -11.70177,-7.94972 -16.83984,-12.76953 -5.30251,-4.97406 -9.98371,-9.92308 -14.26172,-16.50195 2.02636,0.96219 4.65775,2.36554 7.66016,3.97461 z"
       style="fill:#6dcb5b;fill-opacity:1;fill-rule:evenodd;stroke:none;stroke-linecap:round"
       id="path22"
       color="tail-hl-2" /><path
       d="m 625.34375,714.54687 c 14.26523,-28.37284 39.53444,-78.76261 42.42877,-107.83541 2.95367,-29.66881 4.13439,-64.26535 -22.64058,-75.69492 -48.6711,-20.77648 -80.59171,3.59153 -91.46202,13.15143 19.09506,-1.41098 53.58859,1.87833 64.70508,41.27539 10.57831,37.48973 -23.08984,64.35742 -23.08984,64.35742 0,0 10.38381,1.73281 21.58398,-1.46094 11.20016,-3.19376 18.38429,-14.08288 21.63086,-17.1582 -3.14353,10.73142 -14.31686,21.43597 -15.43945,51.125 -0.41376,10.94248 0.70534,22.28212 2.2832,32.24023 z"
       style="fill:#75439a;fill-opacity:1;fill-rule:evenodd;stroke:none;stroke-linecap:round"
       id="path20"
       color="tail-hl-1" /><path
       style="fill:none;fill-opacity:1;fill-rule:evenodd;stroke:#2fa9e6;stroke-width:5;stroke-linecap:round;stroke-dasharray:none;stroke-opacity:1"
       d="m 540.6211,546.10964 c 0,0 18.14379,-99.42356 114.67749,-103.52444 96.53371,-4.10087 117.45893,90.8426 118.10505,100.93711 -4.60248,-4.3914 -9.47885,-11.84073 -21.47753,-23.14773 -11.99868,-11.307 -14.72421,-15.63268 -19.807,-18.12728 2.83939,6.37147 20.82467,24.48852 29.49416,58.87734 8.66949,34.38882 -2.48162,78.78432 6.93915,116.54346 8.73519,35.01131 38.32784,66.40785 38.32784,66.40785 0,0 -20.90929,-4.10262 -29.90146,-9.42821 -11.03898,-6.5378 -27.79322,-26.6262 -27.79322,-26.6262 0,0 1.01087,37.60559 17.2694,60.26295 18.84123,26.25652 46.77999,34.65233 60.4849,43.10453 -9.5796,1.02087 -25.0641,2.81175 -42.29123,-2.68877 -12.16029,-3.88271 -27.25888,-13.0598 -34.54831,-16.52111 4.27801,6.57887 8.95783,11.52939 14.26034,16.50345 5.13807,4.81981 16.84138,12.76875 16.84138,12.76875 0,0 -65.32348,0.96983 -94.85723,-29.49416 -29.53375,-30.464 -40.52673,-82.10613 -40.52673,-82.10613 0,0 -5.91644,8.77312 -8.19153,14.41293 -2.46519,6.11106 -5.52982,20.34782 -5.52982,20.34782 0,0 -10.15918,-32.61588 -9.03659,-62.3049 1.12259,-29.68903 12.29635,-40.39349 15.43988,-51.12491 -3.24657,3.07532 -10.43057,13.96466 -21.63073,17.15842 -11.20017,3.19375 -21.58478,1.46013 -21.58478,1.46013 0,0 33.66918,-26.86664 23.09087,-64.35637 -12.37061,-43.84166 -54.60554,-40.91214 -71.43921,-38.60632"
       id="path1"
       color="tail-contour" /></g></svg>
