<?xml version="1.0" encoding="UTF-8" standalone="no"?>
<!-- Created with Inkscape (http://www.inkscape.org/) -->

<svg
   width="1000"
   height="1000"
   viewBox="0 0 1000 1000"
   version="1.1"
   id="svg1"
   xml:space="preserve"
   xmlns="http://www.w3.org/2000/svg"
   xmlns:svg="http://www.w3.org/2000/svg"><defs
     id="defs1" /><g
     id="layer8"
     data-layer="200"><g
       id="layer9"
       style="display:inline"><path
         style="fill:#2ffd0f;fill-opacity:1;fill-rule:evenodd;stroke:none;stroke-width:5;stroke-linecap:round;stroke-opacity:1"
         d="m 627.06559,675.54768 c 0,0 1.25596,16.97535 4.80247,24.52691 4.24613,9.04128 18.9812,23.49781 18.9812,23.49781 0,0 4.39943,-14.98064 10.8106,-20.95141 6.76158,-6.2971 16.34258,-7.03157 23.75593,-11.86885 6.04486,-3.94433 16.65983,-13.83232 16.65983,-13.83232 0,0 -0.0932,13.97613 -4.9297,17.86549 -12.64144,10.16579 -26.67325,23.43972 -29.29519,39.98612 -2.96203,18.69261 19.58879,53.2913 19.58879,53.2913 0,0 8.33415,-20.79868 16.89049,-30.01573 13.65526,-14.70972 38.88552,-24.73926 50.58429,-41.23858 10.54056,-14.86585 18.16298,-39.2032 8.92561,-55.50924 -6.46836,-11.41812 -29.09463,-13.72429 -37.84666,-25.77964 -10.81434,-14.89606 5.78921,-48.98992 -11.94732,-53.91515 -40.25782,-11.17912 -86.98034,93.94329 -86.98034,93.94329 z"
         id="path20"
         color="tail-main" /><path
         d="m 700.30078,581.92969 c -36.42579,10.80237 -73.23437,93.61719 -73.23437,93.61718 0,0 1.25427,16.97579 4.80078,24.52735 4.24613,9.04128 18.98242,23.49805 18.98242,23.49805 0,0 4.39938,-14.98041 10.81055,-20.95118 6.76158,-6.2971 16.34251,-7.03186 23.75586,-11.86914 6.04486,-3.94433 16.66015,-13.83203 16.66015,-13.83203 0,0 -0.0932,13.97588 -4.92969,17.86524 -12.64144,10.16579 -26.67298,23.43992 -29.29492,39.98632 -1.93886,12.23567 7.05223,31.28686 13.4961,42.98829 1.19263,-10.67207 3.89432,-27.64819 9.79101,-41.66602 9.75318,-23.18564 41.63046,-26.38006 44.3086,-50.77734 1.45243,-13.23129 -18.11133,-32.3418 -18.11133,-32.3418 l 0.32226,21.66992 c 0,0 -12.74627,-10.42559 -15.52343,-17.78906 -7.40311,-19.62887 -4.10737,-56.64279 -1.83399,-74.92578 z"
         style="fill:#d7fd0f;fill-opacity:1;fill-rule:evenodd;stroke:none;stroke-width:5;stroke-linecap:round"
         id="path22"
         color="tail-hl-2" /><path
         style="fill:none;fill-rule:evenodd;stroke:#515151;stroke-width:5;stroke-linecap:round;stroke-opacity:1"
         d="m 627.06559,675.54768 c 0,0 1.25596,16.97535 4.80247,24.52691 4.24613,9.04128 18.9812,23.49781 18.9812,23.49781 0,0 4.39943,-14.98064 10.8106,-20.95141 6.76158,-6.2971 16.34258,-7.03157 23.75593,-11.86885 6.04486,-3.94433 16.65983,-13.83232 16.65983,-13.83232 0,0 -0.0932,13.97613 -4.9297,17.86549 -12.64144,10.16579 -26.67325,23.43972 -29.29519,39.98612 -2.96203,18.69261 19.58879,53.2913 19.58879,53.2913 0,0 8.33415,-20.79868 16.89049,-30.01573 13.65526,-14.70972 38.88552,-24.73926 50.58429,-41.23858 10.54056,-14.86585 18.16298,-39.2032 8.92561,-55.50924 -6.46836,-11.41812 -29.09463,-13.72429 -37.84666,-25.77964 -10.81434,-14.89606 5.78921,-48.98992 -11.94732,-53.91515 -40.25782,-11.17912 -86.98034,93.94329 -86.98034,93.94329 z"
         id="path23"
         color="tail-contour" /></g><g
       id="g25"><path
         style="display:inline;fill:#e9fd0f;fill-opacity:1;fill-rule:evenodd;stroke:none;stroke-width:5;stroke-linecap:round;stroke-opacity:1"
         d="m 536.04731,529.18664 c 0,0 13.43018,-78.96429 42.53619,-101.08059 76.77551,-58.33813 150.63386,-7.53655 187.98246,37.50501 23.92943,28.85835 15.01828,84.28993 -7.31806,119.37572 -21.81403,34.26536 -69.75996,39.28457 -103.82486,64.49034 -12.00372,8.88196 -27.90007,31.10173 -27.90007,31.10173 0,0 -4.89178,-35.60271 -1.82952,-54.8854 4.01649,-25.29125 29.13173,-57.07958 21.95416,-84.1576 -5.19764,-19.60852 -22.49452,-31.62361 -42.53617,-34.76075 -27.46425,-4.29901 -62.20345,28.81484 -62.20345,28.81484 z"
         id="path18"
         color="tail-main" /><path
         d="m 653.29102,401.89648 c -23.74254,-0.58592 -49.0615,6.72214 -74.70704,26.20899 -18.9859,14.4265 -31.30313,53.04161 -37.57226,78.15039 13.93259,-17.79016 37.25322,-44.66106 56.78125,-52.99414 23.42151,-9.99453 53.98863,-13.49373 76.38281,-1.3711 14.87993,8.05496 26.98438,42.99219 26.98438,42.99219 l -33.38868,-21.95312 c 0,0 11.91078,39.12984 8.52539,57.20508 -4.30219,22.97034 -28.13935,53.3115 -41.83203,69.21875 -3.93067,9.20957 -7.46584,18.11839 -8.77148,26.33984 -0.73163,4.60695 -1.00905,10.14622 -1.00781,15.9082 6.78114,-4.49785 16.28028,-11.86732 28.9082,-23.91211 12.54816,-11.96871 47.57764,-32.18298 59.91602,-44.13672 5.77026,-5.59037 11.89257,-15.09375 11.89257,-15.09375 l -23.32617,8.23243 c 0,0 8.91281,-20.37039 15.55078,-30.64454 10.06866,-15.58408 26.2438,-22.08193 31.78711,-37.5039 4.3845,-12.19805 4.68527,-30.77783 3.64844,-47.75 -25.01057,-25.01281 -60.20059,-47.91995 -99.77148,-48.89649 z"
         style="display:inline;fill:#2ffd0f;fill-opacity:1;fill-rule:evenodd;stroke:none;stroke-width:5;stroke-linecap:round"
         id="path24"
         color="tail-hl-1" /><path
         style="display:inline;fill:none;fill-rule:evenodd;stroke:#000000;stroke-width:5;stroke-linecap:round;stroke-opacity:1"
         d="m 536.04731,529.18664 c 0,0 13.43018,-78.96429 42.53619,-101.08059 76.77551,-58.33813 150.63386,-7.53655 187.98246,37.50501 23.92943,28.85835 15.01828,84.28993 -7.31806,119.37572 -21.81403,34.26536 -69.75996,39.28457 -103.82486,64.49034 -12.00372,8.88196 -27.90007,31.10173 -27.90007,31.10173 0,0 -4.89178,-35.60271 -1.82952,-54.8854 4.01649,-25.29125 29.13173,-57.07958 21.95416,-84.1576 -5.19764,-19.60852 -22.49452,-31.62361 -42.53617,-34.76075 -27.46425,-4.29901 -62.20345,28.81484 -62.20345,28.81484 z"
         id="path25"
         color="tail-contour" /></g></g></svg>
