<?xml version="1.0" encoding="UTF-8" standalone="no"?>
<!-- Created with Inkscape (http://www.inkscape.org/) -->

<svg
   width="1000"
   height="1000"
   viewBox="0 0 1000 1000"
   version="1.1"
   id="svg1"
   xml:space="preserve"
   xmlns="http://www.w3.org/2000/svg"
   xmlns:svg="http://www.w3.org/2000/svg"><defs
     id="defs1" /><g
     id="g45"
     style="display:inline;opacity:1"
     data-layer="200"><path
       style="display:inline;fill:#69328f;fill-opacity:1;stroke:none;stroke-width:5;stroke-dasharray:none;stroke-opacity:1"
       d="m 538.74326,509.14199 c 8.27738,-22.26077 21.53006,-44.34158 45.38863,-61.17598 26.72244,-18.85512 55.32748,-18.97883 80.91016,-9.86709 44.4332,15.8257 58.07083,35.90513 69.06965,53.77565 39.13116,63.57899 23.49982,112.35675 19.73419,128.76556 -6.44578,28.08761 -25.04682,65.17893 -33.54812,77.95003 l -26.5813,39.93181 c -17.3008,4.20214 13.07483,-0.4289 23.62117,-17.23749 0,0 6.63178,16.6468 4.19352,23.9277 -5.4412,16.24798 -22.24842,16.68428 -22.24842,16.68428 3.99263,2.28114 7.82773,0.81602 12.13465,0.0898 1.70014,8.77109 -0.44715,21.55043 -7.89368,29.3546 -10.13634,10.62317 -28.03844,14.76001 -42.4285,11.84051 -22.25053,-4.51426 -42.75992,-22.31025 -53.2823,-42.4285 -9.31846,-17.81641 -3.94683,-60.18926 -3.94683,-60.18926 3.23403,-14.50066 15.5292,-28.95396 37.49495,-58.21585 16.06501,-21.40116 32.7314,-45.31238 25.65444,-88.80384 -3.57791,-21.98805 -20.73472,-39.39721 -51.30888,-46.37533 -27.41583,-6.25728 -43.94114,9.47305 -61.17598,23.68102 z"
       id="path44"
       color="tail-hl-1" /><g
       id="g50"
       style="display:inline"><path
         style="display:inline;fill:#9f6ad3;fill-opacity:1;stroke:none;stroke-width:5;stroke-dasharray:none;stroke-opacity:1"
         d="m 538.63121,507.23431 c 4.31001,-12.15916 16.05709,-23.9131 34.88544,-30.69919 21.97881,-7.92158 48.39123,-11.97263 80.93422,5.58167 32.6144,17.59282 37.00012,44.69955 33.49003,69.77089 -6.91129,49.36491 -24.12876,59.87589 -34.88544,75.35255 11.19012,-25.47339 21.62581,-51.17639 11.86105,-83.02735 -10.89336,-16.2197 -23.57399,-29.7585 -41.86253,-34.88544 -13.9373,-3.58733 -27.20962,-4.95807 -38.37399,0.69771 L 553.9808,530.2587 Z"
         id="path48"
         color="tail-main" /><path
         style="display:inline;fill:#9f6ad3;fill-opacity:1;stroke:none;stroke-width:5;stroke-dasharray:none;stroke-opacity:1"
         d="m 754.22323,540.02663 c 5.8934,25.79841 8.3516,54.34499 -4.18625,94.8884 l -29.30377,62.09608 -25.11752,39.0717 -21.62897,3.48854 10.46563,-58.60754 54.42129,-87.91131 z"
         id="path49"
         color="tail-main" /><path
         style="display:inline;fill:#9f6ad3;fill-opacity:1;stroke:none;stroke-width:5;stroke-dasharray:none;stroke-opacity:1"
         d="m 605.61126,691.42944 c 0,0 12.06505,48.65673 27.21064,67.67776 6.97256,8.75669 16.54178,17.21063 27.5595,19.18699 16.90649,3.03267 49.88618,-12.90761 49.88618,-12.90761 4.99777,10.83923 -0.31572,25.02314 -11.86105,30.00147 -19.28766,8.31682 -49.6062,11.91137 -62.79379,-3.13969 l -32.09461,-36.62971 -1.85548,-25.35393 z"
         id="path50"
         color="tail-main" /></g><g
       id="g47"
       style="display:inline"><path
         style="fill:#9be9d8;fill-opacity:1;stroke:none;stroke-width:5;stroke-dasharray:none;stroke-opacity:1"
         d="m 631.42648,653.75316 c -9.02395,26.6074 -16.64602,46.50388 -0.59595,79.77683 12.13466,25.15602 30.12758,32.50637 44.06649,33.09029 22.76525,0.95367 26.56179,-2.54619 35.37056,-4.02454 l 1.39542,6.97709 c -8.29304,22.82818 -52.96355,34.21362 -84.29558,4.51873 -22.48173,-21.30703 -22.69295,-54.10849 -21.75616,-82.66212 z"
         id="path46"
         color="tail-hl-2" /><path
         style="display:inline;fill:#9be9d8;fill-opacity:1;stroke:none;stroke-width:5;stroke-dasharray:none;stroke-opacity:1"
         d="m 737.47822,496.07097 c -1.61823,57.87124 -12.29669,96.99644 -43.25794,135.35551 l -39.42055,48.83962 c -11.34876,14.06041 -6.35458,34.62099 -0.34886,45.35107 l 22.32669,13.95418 c -1.3788,-12.79964 0.784,-27.10655 13.95417,-47.4442 13.48616,-20.82562 26.8567,-36.45772 39.7694,-64.18921 11.15083,-23.94766 22.13543,-46.84226 24.10547,-89.78278 z"
         id="path47"
         color="tail-hl-2" /></g><path
       style="display:inline;fill:none;fill-opacity:1;stroke:#1d7fbf;stroke-width:5;stroke-dasharray:none;stroke-opacity:1"
       d="m 538.74326,509.14199 c 8.27738,-22.26077 21.53006,-44.34158 45.38863,-61.17598 26.72244,-18.85512 55.32748,-18.97883 80.91016,-9.86709 44.4332,15.8257 58.07083,35.90513 69.06965,53.77565 39.13116,63.57899 23.49982,112.35675 19.73419,128.76556 -6.44578,28.08761 -24.71264,65.4078 -33.54812,77.95003 -9.12995,12.96024 -27.50418,38.65202 -27.50418,38.65202 2.20094,-0.22585 17.58003,-3.97872 24.54405,-15.9577 0,0 6.63178,16.6468 4.19352,23.9277 -5.4412,16.24798 -22.04747,18.57713 -24.35062,19.63545 5.08416,0.46193 9.2831,-4.1565 14.51984,-4.15503 1.70014,8.77109 -0.73014,22.84409 -8.17667,30.64826 -10.13634,10.62317 -28.03844,14.76001 -42.4285,11.84051 -22.25053,-4.51426 -42.75992,-22.31025 -53.2823,-42.4285 -9.31846,-17.81641 -8.97125,-37.66088 -3.94683,-60.18926 3.23403,-14.50066 15.5292,-28.95396 37.49495,-58.21585 16.06501,-21.40116 32.7314,-45.31238 25.65444,-88.80384 -3.57791,-21.98805 -20.73472,-39.39721 -51.30888,-46.37533 -27.41583,-6.25728 -43.94114,9.47305 -61.17598,23.68102 z"
       id="path45"
       color="tail-contour" /><path
       style="opacity:1;fill:none;fill-rule:evenodd;stroke:#1d7fbf;stroke-width:5;stroke-linecap:round;stroke-miterlimit:100"
       d="m 692.92805,737.1794 c 0,0 -8.59447,1.78164 -18.66895,0.10562 -7.92892,-1.31908 -13.09034,-4.29768 -14.61835,-6.71433 1.27035,1.03941 4.12944,3.23555 4.12944,3.23555"
       id="path19"
       color="tail-contour" /></g></svg>
