<?xml version="1.0" encoding="UTF-8" standalone="no"?>
<!-- Created with Inkscape (http://www.inkscape.org/) -->

<svg
   width="1000"
   height="1000"
   viewBox="0 0 1000 1000"
   version="1.1"
   id="svg1"
   xml:space="preserve"
   xmlns="http://www.w3.org/2000/svg"
   xmlns:svg="http://www.w3.org/2000/svg"><defs
     id="defs1" /><g
     id="layer7"
     transform="translate(-21.707604,21.707604)"
     style="display:inline"
     data-layer="100"><path
       style="display:inline;opacity:1;fill:#51c000;fill-opacity:1;stroke:none;stroke-width:5;stroke-dasharray:none;stroke-opacity:1"
       d="m 705.701,418.92211 c 95.26652,1.24472 119.11207,99.35941 119.49121,115.27387 -17.48766,-25.02402 -46.15083,-46.36 -60.62422,-50.60804 10.6134,11.03548 42.86916,39.74264 45.16065,82.94095 1.45074,27.34879 -0.96006,56.89021 -7.60959,84.35925 -9.97301,41.19829 -18.51973,81.01009 -7.85398,105.42091 12.01826,27.50634 43.29143,13.93031 51.31093,10.54333 -2.41113,10.71906 -16.70835,40.63566 -52.71671,35.14448 -25.60137,-3.90414 -43.60034,-14.23245 -58.43793,-35.24259 -13.31046,-18.84771 -14.73594,-62.7518 -17.29841,-70.89372 -2.58268,11.03719 1.31069,72.28489 4.9169,82.12663 -8.04388,-7.05385 -33.27317,-13.7638 -40.23709,-75.09773 -3.81914,-33.63662 -3.81254,-69.84334 -12.65201,-123.70854 -4.78802,-29.17683 -15.25111,-47.23377 -44.98492,-64.66583 -16.27047,-9.5389 -38.42463,-7.26319 -56.23116,-2.10867 l -18.27512,-8.43468 C 588.0494,447.51903 637.0066,420.81749 705.701,418.92211 Z"
       id="path1"
       color="tail-main" /><path
       style="display:inline;fill:#aeffef;fill-opacity:1;stroke:none;stroke-width:5;stroke-dasharray:none;stroke-opacity:1"
       d="m 565.826,508.89196 c 59.60728,-17.23618 99.24555,-6.8961 119.49121,30.22424 16.06785,37.01273 14.2949,51.72446 16.16646,70.99184 -5.67436,119.35934 7.01581,136.69355 17.57223,165.88191 -12.07998,-18.07446 -21.4586,-6.43403 -38.65892,-80.83229 -2.95047,-41.15376 -2.79714,-81.53157 -12.65201,-124.41143 -11.53162,-20.38652 -13.86657,-44.11727 -44.28203,-57.63694 -20.63351,-11.35415 -38.72148,-4.88951 -57.63694,-4.21733 z"
       id="path33"
       color="tail-hl-1" /><path
       style="display:inline;fill:#bfedff;fill-opacity:1;stroke:none;stroke-width:5;stroke-dasharray:none;stroke-opacity:1"
       d="m 560.20289,506.78329 c 42.70911,-54.10539 88.29974,-87.83557 169.57207,-79.77796 28.85933,2.86121 61.54394,24.15461 76.1316,53.38913 10.18836,20.4181 13.35389,35.45205 17.87987,50.28707 -13.43992,-18.68255 -32.04709,-35.42738 -60.44849,-48.49937 20.40208,18.14426 28.35861,41.88334 34.29301,71.16422 6.02477,29.72676 5.81259,61.14928 -2.35535,88.46596 -16.43034,54.94937 -25.75406,91.64991 -5.68407,134.75857 -11.81387,-4.33775 -28.41291,-29.53873 -29.76804,-62.43523 -2.8079,-68.16331 29.41951,-147.18537 -30.97478,-212.8879 -18.93745,-20.60192 -52.70785,-31.84496 -91.52702,-29.46039 -31.53409,1.93707 -49.42369,19.67671 -77.1188,34.9959 z"
       id="path34"
       color="tail-hl-2" /><path
       style="display:inline;opacity:1;fill:none;fill-opacity:1;stroke:#1d7fbf;stroke-width:5;stroke-dasharray:none;stroke-opacity:1"
       d="m 705.701,418.92211 c 95.26652,1.24472 119.11207,99.35941 119.49121,115.27387 -17.48766,-25.02402 -46.15083,-46.36 -60.62422,-50.60804 10.6134,11.03548 42.86916,39.74264 45.16065,82.94095 1.45074,27.34879 -0.96006,56.89021 -7.60959,84.35925 -9.97301,41.19829 -18.51973,81.01009 -7.85398,105.42091 12.01826,27.50634 43.29143,13.93031 51.31093,10.54333 -2.41113,10.71906 -16.70835,40.63566 -52.71671,35.14448 -25.60137,-3.90414 -43.60034,-14.23245 -58.43793,-35.24259 -13.31046,-18.84771 -14.73594,-62.7518 -17.29841,-70.89372 -2.58268,11.03719 3.03743,72.28489 4.9169,82.12663 -9.77062,-6.06714 -33.27317,-13.7638 -40.23709,-75.09773 -3.81914,-33.63662 -3.81254,-69.84334 -12.65201,-123.70854 -4.78802,-29.17683 -15.25111,-47.23377 -44.98492,-64.66583 -16.27047,-9.5389 -38.42463,-7.26319 -56.23116,-2.10867 l -18.27512,-8.43468 C 588.0494,447.51903 637.0066,420.81749 705.701,418.92211 Z"
       id="path32"
       color="tail-contour" /></g></svg>
