<?xml version="1.0" encoding="UTF-8" standalone="no"?>
<!-- Created with Inkscape (http://www.inkscape.org/) -->

<svg
   width="1000"
   height="1000"
   viewBox="0 0 1000 1000"
   version="1.1"
   id="svg1"
   xml:space="preserve"
   xmlns="http://www.w3.org/2000/svg"
   xmlns:svg="http://www.w3.org/2000/svg"><defs
     id="defs1" /><g
     id="g84"
     style="display:inline"
     data-layer="200"><path
       style="display:inline;fill:#4bc7e1;fill-opacity:1;stroke:none;stroke-width:4;stroke-dasharray:none;stroke-opacity:1"
       d="m 544.93605,519.06883 c 0.16442,-27.11665 -4.41286,-58.04448 18.96929,-87.94854 29.21624,-37.36545 62.30571,-31.23735 91.3975,-34.48962 -26.18506,13.96155 -50.12598,36.89965 -72.42821,66.39252 26.71851,-14.55954 53.52277,-23.83845 76.73942,-12.93361 37.76698,17.73911 55.10201,48.901 74.15269,77.60166 -1.34892,139.48565 -61.97967,144.86175 -72.42821,153.47882 -4.93107,-45.79788 12.35962,-84.16875 -42.24979,-155.2033 -9.1079,-11.84733 -23.00228,-18.82645 -45.69875,-15.52034 -8.18163,1.19179 -12.90342,10.98211 -18.10706,18.9693 z"
       id="path81"
       color="tail-main" /><path
       d="m 714.56055,632.52539 c -5.90715,-25.2378 -18.92886,-60.38152 -51.68164,-95.9082 -32.93348,-35.72268 -52.82654,-28.28299 -73.34571,-26.74414 2.10767,0.19827 4.11415,0.51355 6.02344,0.9375 14.02902,1.36037 38.76986,3.31198 63.4375,43.77343 0,0 0,0 0,0 -24.66764,-40.46145 -49.40848,-42.41306 -63.4375,-43.77343 10.34296,2.29659 17.86334,7.78357 23.53125,15.15625 54.60941,71.03455 37.31893,109.40524 42.25,155.20312 4.69527,-0.34603 33.38696,-6.169 53.22266,-48.64453 z"
       style="display:inline;fill:#df3f3f;fill-opacity:1;stroke:none;stroke-width:5;stroke-opacity:1"
       id="path18"
       color="tail-hl-1" /><path
       d="m 647.53906,397.2832 c -1.89529,0.0832 -3.68879,0.2557 -6.02539,0.38086 -25.46899,1.36424 -52.92083,1.88467 -77.60742,33.45703 -23.38214,29.90406 -18.80628,60.83062 -18.9707,87.94727 l 10.34765,10.34766 c 5.0777,-7.79387 9.6971,-17.30404 17.51953,-18.86719 15.80627,-14.43178 27.13898,-35.361 58.9961,-36.0918 57.32428,-1.31502 84.85267,56.01583 101.18164,75.38672 0.44238,-7.00633 0.71198,-14.38372 0.78711,-22.15234 -19.05068,-28.70066 -36.38732,-59.86245 -74.1543,-77.60157 -21.91972,-10.29567 -47.03753,-2.60036 -72.26172,10.54493 -1.49244,0.77777 -2.86966,1.57535 -4.47656,2.38867 0.91046,-1.488 2.16804,-2.8464 3.25781,-4.2461 18.43182,-23.67394 37.98547,-42.85608 58.99805,-56.20703 3.35285,-2.13034 4.63056,-2.90349 9.03906,-5.13086 -2.7403,-0.23301 -4.73557,-0.2394 -6.63086,-0.15625 z"
       style="display:inline;fill:#a2a2a2;fill-opacity:1;stroke:none;stroke-width:5"
       id="path19"
       color="tail-hl-2" /><path
       style="display:inline;fill:none;fill-opacity:1;stroke:#1d7fbf;stroke-width:4;stroke-dasharray:none;stroke-opacity:1"
       d="m 733.29462,550.21378 c -16.28969,-18.9991 -43.80188,-77.08109 -101.49574,-75.75759 -31.86136,0.7309 -43.1937,21.66553 -59.00326,36.0975"
       id="path83"
       color="tail-contour" /><path
       style="display:inline;fill:none;fill-opacity:1;stroke:#1d7fbf;stroke-width:4;stroke-dasharray:none;stroke-opacity:1"
       d="M 714.84085,633.74138 C 709.06852,608.42365 696.1609,572.71697 662.87891,536.61626 629.694,500.62085 609.7501,508.44993 589.06383,509.90685 c 11.57723,2.8155 40.80474,-3.09569 69.93008,44.67756 32.99234,54.11616 26.28287,75.68348 33.99379,107.80888"
       id="path84"
       color="tail-contour" /><path
       style="display:inline;fill:none;fill-opacity:1;stroke:#1d7fbf;stroke-width:5;stroke-dasharray:none;stroke-opacity:1"
       d="m 544.93605,519.06883 c 0.16442,-27.11665 -4.41285,-58.04448 18.96929,-87.94854 24.68659,-31.57236 52.13851,-32.09208 77.6075,-33.45632 4.6732,-0.25032 7.17745,-0.69078 12.65805,-0.22476 -4.4085,2.22737 -5.68647,3.00135 -9.03932,5.13169 -21.01258,13.35095 -40.56753,32.53241 -58.99935,56.20635 -1.08977,1.3997 -2.34713,2.75794 -3.25759,4.24594 1.6069,-0.81332 2.98537,-1.61017 4.47781,-2.38794 25.22419,-13.14529 50.34189,-20.84134 72.26161,-10.54567 37.76698,17.73912 55.10201,48.901 74.15269,77.60166 -1.34892,139.48565 -65.21382,152.94713 -72.42821,153.47882 -4.93107,-45.79788 12.35962,-84.16875 -42.24979,-155.2033 -9.1079,-11.84733 -23.00228,-18.82645 -45.69875,-15.52034 -8.18163,1.19179 -12.90342,10.98211 -18.10706,18.9693 z"
       id="path82"
       color="tail-contour" /></g></svg>
