<?xml version="1.0" encoding="UTF-8" standalone="no"?>
<!-- Created with Inkscape (http://www.inkscape.org/) -->

<svg
   width="1000"
   height="1000"
   viewBox="0 0 1000 1000"
   version="1.1"
   id="svg1"
   xml:space="preserve"
   xmlns="http://www.w3.org/2000/svg"
   xmlns:svg="http://www.w3.org/2000/svg"><defs
     id="defs1" /><g
     id="g96"
     style="display:inline;stroke-width:4;stroke-dasharray:none"
     data-layer="200"><path
       style="display:inline;fill:#4bc7e1;fill-opacity:1;stroke:none;stroke-width:4;stroke-dasharray:none;stroke-opacity:1"
       d="m 547.78565,520.59062 c 21.05102,-34.67565 36.92386,-78.17856 85.4701,-99.06762 58.53367,-25.18657 117.01012,-13.93061 145.68768,28.16628 38.26944,56.17718 32.31625,77.24105 41.7638,107.80888 -15.01052,-17.31518 -15.29483,-24.43528 -61.18883,-63.13132 44.66914,52.9944 36.67933,69.47406 36.90755,96.15386 0.44653,52.20013 -49.6567,64.79527 -45.46197,105.54096 36.32762,49.12564 73.61854,30.54522 93.05327,31.40545 -8.49695,14.2053 -17.98757,26.95658 -46.62005,32.05129 -24.78203,4.40958 -49.58972,6.94303 -76.72884,-10.68376 18.86972,9.18829 13.04506,18.76316 61.02611,25.90237 25.23166,3.75428 41.59567,-6.69554 59.40903,-12.30485 -20.63012,21.25027 -35.09165,45.31057 -100.03887,43.7063 -23.64575,-0.58408 -47.26755,-14.10308 -70.90133,-56.33257 4.96348,20.76333 17.05458,40.10114 34.96504,58.27507 -17.68191,-5.50623 -44.88001,-0.0634 -62.27307,-67.75618 -16.29708,-63.42727 31.71894,-120.21534 12.73926,-191.56787 -5.32004,-20.00024 -36.28787,-22.51075 -61.18882,-13.59752 -10.86924,3.89062 -22.24295,11.00751 -34.96505,16.51127 z"
       id="path96"
       color="tail-main" /><path
       d="m 697.51367,408.26758 c -20.36562,-0.5091 -42.30768,3.81089 -64.25781,13.25586 -48.54624,20.88906 -64.41968,64.39075 -85.4707,99.0664 l 6.79492,18.11524 c 12.06355,-14.25422 32.10597,-36.10057 47.61914,-43.87891 37.22278,-18.6636 81.67422,-26.28427 121.28125,-16.49414 13.72709,3.39309 30.88715,15.45085 44.91601,26.96484 -2.69999,-3.46447 -5.65235,-7.10178 -8.8789,-10.92968 45.894,38.69604 46.17893,45.81568 61.18945,63.13086 -9.44755,-30.56783 -3.49423,-51.63142 -41.76367,-107.8086 -17.92348,-26.31055 -47.48698,-40.57337 -81.42969,-41.42187 z"
       style="display:inline;fill:#64e14b;fill-opacity:1"
       id="path19"
       color="tail-hl-2" /><path
       style="display:inline;fill:#eabd9f;fill-opacity:1;stroke:none;stroke-width:4;stroke-dasharray:none;stroke-opacity:1"
       d="m 765.75778,501.34815 c -17.02053,-18.87772 -41.28812,-39.18166 -89.28118,-37.77281 -35.77299,1.05012 -55.93249,13.13781 -75.54561,24.72402 -24.44534,14.44078 -32.44701,34.61607 -47.3877,50.13481 28.10109,-18.88621 44.95803,-47.32343 95.46218,-51.50837 70.39295,-5.83299 83.46945,50.11841 84.47374,67.99105 3.07768,54.77187 -26.64155,99.1658 -29.53148,139.41599 -2.11547,29.46375 12.34904,54.57888 34.17912,61.20316 33.62595,10.20371 52.13383,7.17705 70.21118,1.98044 13.47282,-3.87297 25.86131,-11.72659 37.08603,-29.53147 -46.17993,-1.24199 -64.25331,-11.501 -69.36461,-26.78435 -12.55012,-37.52623 20.81953,-56.5367 21.29013,-117.43908 0.17514,-22.66603 -6.88964,-51.72322 -31.5918,-82.41339 z"
       id="path97"
       color="tail-hl-1" /><path
       style="display:inline;fill:none;fill-opacity:1;stroke:#1d7fbf;stroke-width:4;stroke-linecap:round;stroke-dasharray:none;stroke-opacity:1"
       d="m 760.97351,495.8264 c -16.79343,-17.21213 -40.89378,-33.53104 -84.49691,-32.25106 -35.77299,1.05013 -55.93249,13.13781 -75.54561,24.72402 -24.44534,14.44078 -32.44701,34.61607 -47.3877,50.13481 28.10109,-18.88621 44.95803,-47.32343 95.46218,-51.50837 70.39295,-5.83299 83.46945,50.11841 84.47374,67.99105 3.07768,54.77187 -23.08939,99.57971 -29.53148,139.41599 -3.86347,23.89076 13.87881,49.38571 27.629,60.44997"
       id="path98"
       color="tail-contour" /><path
       style="display:inline;fill:none;fill-opacity:1;stroke:#1d7fbf;stroke-width:4;stroke-dasharray:none;stroke-opacity:1"
       d="m 547.78565,520.59062 c 21.05102,-34.67565 36.92386,-78.17856 85.4701,-99.06762 58.53367,-25.18657 117.01012,-13.93061 145.68768,28.16628 38.26944,56.17718 37.81048,82.0485 41.7638,107.80888 -9.13677,-10.53959 -13.04609,-19.93179 -24.87772,-32.33705 -7.6062,-7.97497 -18.35237,-15.65216 -36.31111,-30.79427 44.66914,52.9944 39.48228,75.38971 37.23097,101.97533 -3.43446,40.55719 -27.60574,69.52881 -21.69095,98.10241 7.01429,33.88517 49.5241,32.1623 68.95883,33.02253 -8.49695,14.2053 -17.94069,27.22748 -46.62005,32.05129 -33.01484,5.55303 -48.56062,0.31105 -67.58127,-6.33867 8.00126,9.69476 14.07235,15.2955 52.44356,20.3873 17.19328,2.28152 42.06082,-4.83878 58.84401,-11.13487 -10.61575,15.97575 -35.09165,45.31057 -100.03887,43.7063 -23.64575,-0.58408 -46.58148,-13.41701 -68.95747,-50.38665 0.50404,18.24775 17.51196,38.95769 34.16463,52.55784 -39.71537,0.0415 -63.10485,-47.6816 -65.24603,-72.10127 -5.72017,-65.23721 32.38296,-132.04095 14.56877,-187.45147 -5.31533,-16.53319 -36.28787,-22.51075 -61.18882,-13.59752 -10.86924,3.89062 -22.24295,11.00751 -34.96505,16.51127 z"
       id="path92"
       color="tail-contour" /></g></svg>
