<?xml version="1.0" encoding="UTF-8" standalone="no"?>
<!-- Created with Inkscape (http://www.inkscape.org/) -->

<svg
   width="1000"
   height="1000"
   viewBox="0 0 1000 1000"
   version="1.1"
   id="svg1"
   xml:space="preserve"
   xmlns="http://www.w3.org/2000/svg"
   xmlns:svg="http://www.w3.org/2000/svg"><defs
     id="defs1" /><g
     id="g117"
     style="display:inline"
     data-layer="200"><path
       style="display:inline;fill:#8f327d;fill-opacity:1;stroke:none;stroke-width:5;stroke-linecap:butt;stroke-linejoin:bevel;stroke-dasharray:none;stroke-opacity:1;paint-order:markers stroke fill"
       d="m 772.4755,536.30465 c 5.33849,29.78921 2.9627,64.72127 -19.6809,113.1652 L 719.0559,699.375 c 25.15358,-4.35151 40.68343,6.69496 47.0936,32.33291 -17.15539,55.95376 -36.61005,47.52803 -55.52827,54.12249 -35.55671,-7.60114 -34.08273,-34.69211 -35.14447,-60.44849 l 33.73869,-87.86118 z"
       id="path115"
       color="tail-hl-1" /><path
       style="display:inline;fill:none;fill-opacity:1;stroke:#1d7fbf;stroke-width:5;stroke-linecap:butt;stroke-linejoin:bevel;stroke-dasharray:none;stroke-opacity:1;paint-order:markers stroke fill"
       d="m 774.58417,525.8819 c 4.04862,112.87853 -38.66634,148.83269 -57.57639,175.31394 10.07373,-3.34863 26.17481,-1.24723 34.38104,3.80227 22.9868,14.14436 14.38973,41.29241 1.40578,59.74561 -12.96493,18.42617 -36.16482,25.78517 -57.63694,15.46356 -24.11438,-11.59174 -18.89381,-42.1137 -16.86935,-65.08489"
       id="path114"
       color="tail-contour" /><path
       style="fill:#48c697;fill-opacity:1;stroke:none;stroke-width:5;stroke-linecap:butt;stroke-linejoin:bevel;stroke-dasharray:none;stroke-opacity:1;paint-order:markers stroke fill"
       d="m 574.55268,444.334 c 23.66597,-12.53198 36.76861,-29.51168 108.3499,-21.86879 40.56415,14.49601 79.49713,31.36462 91.4513,87.47515 4.36445,52.5581 -20.68936,84.52341 -41.74951,119.28429 -30.96602,42.57951 -56.43252,85.77007 -70.57654,130.21869 17.58332,-0.026 10.93121,28.58983 8.94633,51.68986 -12.21793,8.94152 -20.56683,21.26844 -61.63022,4.97018 -8.60663,-13.17702 -20.67471,-18.93666 -16.89861,-58.64811 l 25.84493,-55.66601 61.63022,-102.38568 22.86282,-114.31412 z"
       id="path116"
       color="tail-main" /><path
       style="display:inline;fill:none;fill-opacity:1;stroke:#1d7fbf;stroke-width:5;stroke-linecap:round;stroke-linejoin:bevel;stroke-dasharray:none;stroke-opacity:1;paint-order:markers stroke fill"
       d="m 618.54271,702.88945 c -15.92794,29.86411 -35.01819,60.44738 -24.60113,91.37562 11.18434,33.20629 49.77443,30.86227 59.04271,28.11558 21.96966,-6.51078 24.77687,-36.52095 19.68091,-54.12249 -5.53419,-19.11521 -39.57427,-18.46138 -49.90515,7.73179 -5.5085,13.9664 1.53894,25.33276 14.05779,27.41269 11.56565,1.92156 17.80653,-5.62312 18.27512,-18.27513"
       id="path112"
       color="tail-contour" /><path
       style="display:inline;fill:#c648b2;fill-opacity:1;stroke:none;stroke-width:5;stroke-linecap:butt;stroke-linejoin:bevel;stroke-dasharray:none;stroke-opacity:1;paint-order:markers stroke fill"
       d="m 535.60176,513.10929 c 1.55334,-10.15406 7.90049,-58.10684 47.09359,-70.28894 54.51262,-13.97933 90.04476,-8.97818 108.94786,12.65201 40.4833,42.75779 22.36997,78.484 18.97802,115.97676 l -38.65892,58.33982 c 28.01844,16.92459 21.572,39.59332 4.92023,63.96294 -21.33134,19.29127 -44.29829,14.04824 -67.47739,5.62312 -25.70022,-33.05866 -17.19307,-56.78804 -2.10867,-78.72362 22.22176,-35.22864 57.66637,-68.25347 59.7456,-106.8392 -6.19564,-17.03382 -10.54474,-34.65077 -51.31093,-40.76758 -18.27634,0.22703 -35.36585,7.57497 -49.90515,30.22424 l -7.73178,26.00691 z"
       id="path117"
       color="tail-hl-2" /><path
       style="display:inline;fill:none;fill-opacity:1;stroke:#1d7fbf;stroke-width:5;stroke-linecap:butt;stroke-linejoin:bevel;stroke-dasharray:none;stroke-opacity:1;paint-order:markers stroke fill"
       d="m 662.12186,759.1206 c 16.43208,-60.5436 55.34828,-104.28654 90.67274,-166.5848 19.4912,-34.37469 46.96524,-104.46268 -26.7098,-151.12123 -86.94543,-55.06271 -158.85302,7.0289 -158.85302,7.0289 8.92553,-4.46276 79.05393,-23.30044 107.54208,-5.62312 42.28518,26.23858 46.52568,68.24733 40.0647,106.8392 -6.02825,36.0072 -25.18264,58.49707 -44.28203,79.4265"
       id="path113"
       color="tail-contour" /><path
       style="display:inline;fill:none;fill-opacity:1;stroke:#1d7fbf;stroke-width:5;stroke-linecap:round;stroke-linejoin:bevel;stroke-dasharray:none;stroke-opacity:1;paint-order:markers stroke fill"
       d="m 568.55573,447.34884 c -25.51568,20.26718 -31.84916,42.37946 -32.77044,64.57959 l 21.86879,16.89861 c 8.88778,-28.95378 19.66547,-62.07483 69.5825,-54.67197 45.8897,6.80559 47.34376,50.50532 27.833,81.51093 -27.95473,44.42438 -67.52696,74.25363 -61.63022,106.36183 4.19614,22.84831 14.69121,51.84718 55.66601,44.73161 36.1537,-6.27836 47.24958,-34.49058 40.75547,-57.65407 -7.97851,-28.45811 -43.48555,-25.15593 -57.15706,-16.40159 -9.65413,6.18187 -12.50636,24.78918 -5.4672,35.28827 5.95912,8.88817 16.88237,7.84343 26.83896,6.46123"
       id="path111"
       color="tail-contour" /><path
       style="fill:none;fill-opacity:1;fill-rule:evenodd;stroke:#1d7fbf;stroke-width:5;stroke-linecap:round;stroke-miterlimit:100;stroke-dasharray:none;stroke-opacity:1"
       d="m 717.65015,700.7808 c 0,0 -37.10103,31.88093 -13.17918,54.64966 14.70289,13.99416 33.70134,-2.65504 37.15847,-19.17725 3.60765,-17.2416 -14.49028,-11.74989 -14.49028,-11.74989"
       id="path23"
       color="tail-contour" /></g></svg>
