<?xml version="1.0" encoding="UTF-8" standalone="no"?>
<!-- Created with Inkscape (http://www.inkscape.org/) -->

<svg
   width="1000"
   height="1000"
   viewBox="0 0 1000 1000"
   version="1.1"
   id="svg1"
   xml:space="preserve"
   xmlns="http://www.w3.org/2000/svg"
   xmlns:svg="http://www.w3.org/2000/svg"><defs
     id="defs1" /><g
     id="g18"
     data-layer="200"><path
       style="fill:#d7d82c;fill-opacity:1;fill-rule:evenodd;stroke:none;stroke-width:5;stroke-linecap:round"
       d="m 531.47353,508.60462 c 0,0 19.03018,-16.89153 40.24929,-17.38037 27.53051,-0.63425 57.25777,25.24306 109.3134,15.55086 52.05563,-9.6922 29.27221,-43.90832 29.27221,-43.90832 0,0 31.31499,12.26122 20.58202,54.8854 -3.76664,14.9586 -16.67805,20.42507 -16.67805,20.42507 0,0 19.87098,3.45564 30.3994,20.28159 29.60266,47.30936 2.0103,147.38873 14.6361,185.23819 12.62581,37.84946 24.71189,43.18301 24.71189,43.18301 0,0 -44.15529,7.02306 -65.74197,-4.33836 -16.76684,-8.82467 -32.15044,-43.41843 -32.15044,-43.41843 0,0 -4.16919,29.20967 2.82275,42.82709 4.69062,9.1354 24.61995,23.03538 24.61995,23.03538 0,0 -66.66345,4.72876 -97.87895,-45.87179 -25.02388,-40.5639 8.55065,-93.84333 8.55065,-93.84333 0,0 -10.33032,3.71595 -16.49344,3.95394 -8.02311,0.3098 -18.40223,-2.68073 -18.40223,-2.68073 0,0 18.83736,-10.28893 25.42074,-22.45877 9.13478,-16.88628 9.11891,-56.86969 9.11891,-56.86969 0,0 -7.0204,10.54899 -11.39299,15.08701 -3.50141,3.63387 -11.73415,9.5652 -11.73415,9.5652 0,0 5.6618,-32.26732 -4.22551,-43.48144 -15.44368,-17.51611 -54.47988,-19.9896 -54.47988,-19.9896 z"
       id="path29"
       color="tail-main" /><path
       d="m 713.41959,608.87925 -22.65636,34.8546 -9.26223,8.85039 -11.06155,56.34154 3.02491,29.46392 11.71142,9.77632 v 0.002 c -0.12269,1.80215 -0.18785,3.9301 -0.24805,6.03515 0.24226,-8.33917 1.13868,-15.08007 1.13868,-15.08007 0,0 15.3855,34.5933 32.15234,43.41797 21.58668,11.36142 49.04592,4.79722 49.04592,4.79722 0,0 -23.32274,-11.06513 -32.94373,-42.9549 C 714.47658,678.6072 713.41959,608.87925 713.41959,608.87925 Z"
       style="display:inline;fill:#30d82c;fill-opacity:1;fill-rule:evenodd;stroke:none;stroke-width:5;stroke-linecap:round"
       id="path28"
       color="gradient"
       data-grad="from:tail-hl-2; to:tail-hl-2; angle:270; range:0.1%-100%; fromOpacity:0.3; toOpacity:0.3" /><path
       d="m 685.17578,748.16602 c 0,0 -8.16911,-25.33388 -6.72269,-47.55431 1.28975,-19.81357 7.00056,-50.15511 7.00056,-50.15511 l -19.1635,15.61686 1.48155,-21.58766 -4.93296,-20.13185 -9.53991,8.8941 -37.51563,71.15039 0.87305,56.33789 c 31.6245,48.87659 96.85352,44.25 96.85352,44.25 0,0 -19.92853,-13.89976 -24.61915,-23.03516 -4.50878,-8.78126 -4.37759,-24.04811 -3.71484,-33.7832 z"
       style="display:inline;fill:#d82c2c;fill-opacity:1;fill-rule:evenodd;stroke:none;stroke-width:2;stroke-linecap:round"
       id="path26"
       color="tail-hl-2" /><path
       d="m 629.85742,776.63086 c -4.35971,-11.26488 -10.2381,-31.67334 -6.95508,-54.01367 3.59662,-24.47426 24.83518,-57.79923 31.36133,-78.10157 9.12893,-28.39938 13.8024,-37.74373 11.12478,-64.5348 -6.15513,-61.5855 -31.42125,-63.75878 -44.99001,-76.65074 -18.84736,-5.31724 -34.07066,-12.44194 -48.67578,-12.10547 -21.21911,0.48884 -40.25,17.38086 -40.25,17.38086 l 10.52148,39.79101 c 0,0 39.03484,2.47413 54.47852,19.99024 9.88731,11.21412 4.22656,43.48047 4.22656,43.48047 0,0 8.23296,-5.93059 11.73437,-9.56446 4.37259,-4.53802 11.39258,-15.08789 11.39258,-15.08789 0,0 0.0156,39.98482 -9.11914,56.8711 -6.58338,12.16984 -25.42187,22.45703 -25.42187,22.45703 0,0 10.37923,2.99144 18.40234,2.68164 6.16312,-0.23799 16.49414,-3.95313 16.49414,-3.95313 0,0 -33.57466,53.2779 -8.55078,93.8418 4.18638,6.78616 9.01135,12.57687 14.22656,17.51758 z"
       style="display:inline;fill:#000000;fill-opacity:1;fill-rule:evenodd;stroke:none;stroke-width:2;stroke-linecap:round"
       id="path24"
       color="tail-hl-1" /><path
       style="fill:none;fill-rule:evenodd;stroke:#1773b2;stroke-width:5;stroke-linecap:round"
       d="m 531.47353,508.60462 c 0,0 19.03018,-16.89153 40.24929,-17.38037 27.53051,-0.63425 57.25777,25.24306 109.3134,15.55086 52.05563,-9.6922 29.27221,-43.90832 29.27221,-43.90832 0,0 31.31499,12.26122 20.58202,54.8854 -3.76664,14.9586 -16.67805,20.42507 -16.67805,20.42507 0,0 19.87098,3.45564 30.3994,20.28159 29.60266,47.30936 2.0103,147.38873 14.6361,185.23819 12.62581,37.84946 24.71189,43.18301 24.71189,43.18301 0,0 -44.15529,7.02306 -65.74197,-4.33836 -16.76684,-8.82467 -32.15044,-43.41843 -32.15044,-43.41843 0,0 -4.16919,29.20967 2.82275,42.82709 4.69062,9.1354 24.61995,23.03538 24.61995,23.03538 0,0 -66.66345,4.72876 -97.87895,-45.87179 -25.02388,-40.5639 8.55065,-93.84333 8.55065,-93.84333 0,0 -10.33032,3.71595 -16.49344,3.95394 -8.02311,0.3098 -18.40223,-2.68073 -18.40223,-2.68073 0,0 18.83736,-10.28893 25.42074,-22.45877 9.13478,-16.88628 9.11891,-56.86969 9.11891,-56.86969 0,0 -7.0204,10.54899 -11.39299,15.08701 -3.50141,3.63387 -11.73415,9.5652 -11.73415,9.5652 0,0 5.6618,-32.26732 -4.22551,-43.48144 -15.44368,-17.51611 -54.47988,-19.9896 -54.47988,-19.9896 z"
       id="path18"
       color="tail-contour" /><path
       style="fill:none;fill-rule:evenodd;stroke:#1773b2;stroke-width:5;stroke-linecap:round"
       d="m 623.74676,588.61578 c 0,0 14.49958,-40.76689 -14.06417,-55.27545 -22.61988,-11.48945 -71.843,-0.67539 -71.843,-0.67539"
       id="path19"
       color="tail-contour" /><path
       style="fill:none;fill-rule:evenodd;stroke:#1773b2;stroke-width:5;stroke-linecap:round"
       d="m 623.86805,666.55886 c 0,0 20.90884,-9.46689 27.81371,-18.11125 7.174,-8.98129 11.85202,-26.85299 11.85202,-26.85299 0,0 3.69275,12.18418 3.86136,21.33194 0.15509,8.41403 -2.45335,25.24938 -2.45335,25.24938 0,0 41.35059,-34.02191 47.14351,-58.34535 6.79247,-28.52033 -7.74517,-48.13314 -9.99571,-53.46906 2.40414,1.8524 5.63466,10.86128 5.63466,10.86128"
       id="path20"
       color="tail-contour" /></g></svg>
