<?xml version="1.0" encoding="UTF-8" standalone="no"?>
<!-- Created with Inkscape (http://www.inkscape.org/) -->

<svg
   width="1000"
   height="1000"
   viewBox="0 0 1000 1000"
   version="1.1"
   id="svg1"
   xml:space="preserve"
   xmlns="http://www.w3.org/2000/svg"
   xmlns:svg="http://www.w3.org/2000/svg"><defs
     id="defs1" /><g
     id="g21"
     data-layer="200"
     style="display:inline"><path
       style="fill:#82e265;fill-opacity:1;fill-rule:evenodd;stroke:none;stroke-width:5;stroke-linecap:round;stroke-dasharray:none;stroke-opacity:1"
       d="m 554.33377,529.10738 c 0,0 66.81306,-101.8418 145.53687,-79.56016 49.44454,13.99457 7.76196,80.20698 7.76196,80.20698 0,0 51.68178,-8.70362 68.56404,27.16689 37.98166,80.70138 -65.32623,140.38523 -28.13714,157.50323 25.25652,11.62548 28.78397,-28.78396 28.78397,-28.78396 0,0 43.93897,41.01637 2.2639,68.56404 -31.16844,20.60268 -56.59767,-13.58344 -56.59767,-13.58344 0,0 -29.32784,29.28904 -65.97671,6.46831 -45.3231,-28.22206 -5.17465,-79.56016 -5.17465,-79.56016 0,0 -23.37315,8.49596 -34.28202,-8.4088 -18.35783,-28.44793 12.75699,-68.36399 -5.82147,-96.70117 -7.28635,-11.11366 -32.97477,-13.72298 -47.18379,-19.80965 -8.88571,-3.80634 -9.73729,-13.50211 -9.73729,-13.50211 z"
       id="path21"
       color="tail-main" /><path
       style="fill:#060822;fill-opacity:1;fill-rule:evenodd;stroke:none;stroke-width:2;stroke-linecap:round;stroke-dasharray:none;stroke-opacity:1"
       d="m 560.26622,535.93833 c 0,0 50.87847,-68.82471 104.36052,-55.42171 40.02876,10.03151 19.12863,83.25841 19.12863,83.25841 0,0 36.74535,-7.45387 54.21604,23.05721 25.4534,44.4522 -58.24355,120.50757 -0.90802,150.87798 31.95295,16.92536 56.8705,-23.86085 56.8705,-23.86085 l -1.82951,-4.80247 c 0,0 -23.29,38.46544 -52.06803,24.7756 -55.34406,-26.32741 29.56307,-101.39461 0.90802,-149.73453 -17.92836,-30.24442 -50.78571,-25.11542 -50.78571,-25.11542 0,0 17.92718,-72.9982 -25.07454,-82.80102 -53.75681,-12.2546 -107.10479,56.56515 -107.10479,56.56515 z"
       id="path22"
       color="tail-hl-2" /><path
       d="m 702.41797,752.72266 c -7.30517,-9.7495 -16.10036,-25.1226 -16.35156,-42.8711 -0.59782,-42.23765 40.82148,-75.61631 24.69921,-109.31445 -10.6787,-22.32021 -45.27929,-13.7207 -45.27929,-13.7207 0,0 25.22934,-56.79169 1.37109,-70.89454 -37.96977,-22.44428 -83.31395,12.28281 -100.45703,27.61915 14.52717,5.45211 37.94992,8.34905 44.85352,18.8789 18.57846,28.33718 -12.53557,68.25324 5.82226,96.70117 10.90887,16.90476 34.28125,8.40821 34.28125,8.40821 0,0 -40.14732,51.33848 5.17578,79.56054 17.89384,11.14224 34.04288,9.86106 45.88477,5.63282 z"
       style="fill:#091030;fill-opacity:1;fill-rule:evenodd;stroke:none;stroke-width:7;stroke-linecap:round"
       id="path24"
       color="tail-hl-1" /><path
       style="fill:none;fill-rule:evenodd;stroke:#000000;stroke-width:5;stroke-linecap:round;stroke-dasharray:none;stroke-opacity:1"
       d="m 554.33377,529.10738 c 0,0 66.81306,-101.8418 145.53687,-79.56016 49.44454,13.99457 7.76196,80.20698 7.76196,80.20698 0,0 51.68178,-8.70362 68.56404,27.16689 37.98166,80.70138 -65.32623,140.38523 -28.13714,157.50323 25.25652,11.62548 28.78397,-28.78396 28.78397,-28.78396 0,0 43.93897,41.01637 2.2639,68.56404 -31.16844,20.60268 -56.59767,-13.58344 -56.59767,-13.58344 0,0 -29.32784,29.28904 -65.97671,6.46831 -45.3231,-28.22206 -5.17465,-79.56016 -5.17465,-79.56016 0,0 -23.37315,8.49596 -34.28202,-8.4088 -18.35783,-28.44793 12.75699,-68.36399 -5.82147,-96.70117 -7.28635,-11.11366 -32.97477,-13.72298 -47.18379,-19.80965 -8.88571,-3.80634 -9.73729,-13.50211 -9.73729,-13.50211 z"
       id="path25"
       color="tail-contour" /></g></svg>
