<?xml version="1.0" encoding="UTF-8" standalone="no"?>
<!-- Created with Inkscape (http://www.inkscape.org/) -->

<svg
   width="1000"
   height="1000"
   viewBox="0 0 1000 1000"
   version="1.1"
   id="svg1"
   xml:space="preserve"
   xmlns="http://www.w3.org/2000/svg"
   xmlns:svg="http://www.w3.org/2000/svg"><defs
     id="defs1" /><g
     id="g21"
     style="display:inline"
     data-layer="200"
     transform="matrix(1.0789578,-0.2518387,0.28108071,0.96670925,2.0960894,236.95594)"><g
       id="g86"
       transform="matrix(0.86791806,0.22610248,-0.25235615,0.96869556,28.132542,-235.11077)"><path
         style="fill:#36da24;fill-opacity:1;fill-rule:evenodd;stroke:none;stroke-width:5;stroke-linecap:round;stroke-dasharray:none;stroke-opacity:1"
         d="m 635.75578,477.27421 c -58.21037,21.19425 -76.83955,68.83543 -76.83955,68.83543 l 16.23693,37.96239 c 0,0 27.36869,-35.53266 70.20756,-41.62142 20.60728,-2.92895 39.10584,13.03528 39.10584,13.03528 l 34.76075,-39.33453 -8.69019,-26.98532 C 685.03599,471.38949 674.34,463.22579 635.75578,477.27421 Z"
         id="path86"
         color="tail-main" /><path
         d="m 710.69336,489.65234 c -21.89188,-1.42294 -58.4174,-0.82176 -85,14.83594 -25.03848,14.74818 -49.40697,45.25629 -59.45313,58.74414 l 5.22266,12.21094 c 13.76422,-17.17359 42.59296,-50.98581 64.29297,-61.80664 19.56201,-9.7547 55.28737,-12.36303 78.48242,-12.97656 z"
         style="fill:#da8824;fill-opacity:1;fill-rule:evenodd;stroke:none;stroke-width:5;stroke-linecap:round"
         id="path89"
         color="tail-hl-1" /><path
         d="m 687.78125,474.76758 c -21.26423,2.5388 -49.73768,8.19662 -71.46484,20.80273 -18.97422,11.00886 -42.38388,40.94443 -54.43164,57.48047 l 4.35546,10.18164 c 10.04616,-13.48785 34.41465,-43.99596 59.45313,-58.74414 26.5826,-15.6577 63.10812,-16.25888 85,-14.83594 l -0.15625,-0.48632 c -8.754,-6.10232 -15.76411,-11.07136 -22.75586,-14.39844 z"
         style="fill:#d1da24;fill-opacity:1;fill-rule:evenodd;stroke:none;stroke-width:5;stroke-linecap:round"
         id="path88"
         color="tail-hl-2" /><path
         style="fill:none;fill-opacity:1;fill-rule:evenodd;stroke:#232323;stroke-width:5;stroke-linecap:round;stroke-dasharray:none;stroke-opacity:1"
         d="m 635.75578,477.27421 c -58.21037,21.19425 -76.83955,68.83543 -76.83955,68.83543 l 16.23693,37.96239 c 0,0 27.36869,-35.53266 70.20756,-41.62142 20.60728,-2.92895 39.10584,13.03528 39.10584,13.03528 l 34.76075,-39.33453 -8.69019,-26.98532 C 685.03599,471.38949 674.34,463.22579 635.75578,477.27421 Z"
         id="path90"
         color="tail-contour" /></g><g
       id="g81"
       transform="matrix(0.86791806,0.22610248,-0.25235615,0.96869556,28.132542,-235.11077)"><path
         style="fill:#246fda;fill-opacity:1;fill-rule:evenodd;stroke:none;stroke-width:5;stroke-linecap:round;stroke-dasharray:none;stroke-opacity:1"
         d="m 650.9636,556.62934 c 14.67993,-26.91321 32.78198,-7.2312 52.94153,-43.45094 11.99177,-21.54504 -29.2722,-42.53618 -29.2722,-42.53618 0,0 46.17784,0.51077 66.31984,53.51326 18.7681,49.38712 -37.73974,57.95715 -45.28044,86.90187 -2.77219,10.64094 11.43445,17.38037 11.43445,17.38037 L 654.0509,607.8557 Z"
         id="path81"
         color="tail-main" /><path
         d="m 725.74023,497.5293 c -0.82773,10.1902 -2.83007,23.34411 -7.65625,30.28515 -11.61276,16.70158 -34.84966,17.57688 -49.625,31.5586 -4.87346,4.6117 -10.79932,12.17483 -16.15039,19.58203 l 1.74219,28.90039 3.10547,1.20508 c 3.10216,-10.75683 8.26573,-26.01546 14.27539,-33.22071 13.56857,-16.26794 38.72822,-17.73945 52.14063,-32.70312 5.61353,-6.26278 10.63833,-16.86108 14.34375,-26.17969 -3.58136,-7.67875 -7.73695,-14.08389 -12.17579,-19.42773 z"
         style="fill:#49da24;fill-opacity:1;fill-rule:evenodd;stroke:none;stroke-width:5;stroke-linecap:round"
         id="path83"
         color="tail-hl-2" /><path
         d="m 737.91602,516.95703 c -3.70542,9.31861 -8.73022,19.91691 -14.34375,26.17969 -13.41241,14.96367 -38.57206,16.43518 -52.14063,32.70312 -6.00966,7.20525 -11.17323,22.46388 -14.27539,33.22071 l 17.71094,6.87109 c 1.96471,-9.67377 5.10959,-20.9338 9.82812,-27.28516 10.40914,-14.01118 29.17905,-14.18285 43.67969,-27.44336 5.17079,-4.72856 11.14866,-12.67252 16.33203,-20.27734 -0.23159,-5.02883 -1.40113,-10.57836 -3.75391,-16.76953 -0.95602,-2.51573 -1.97149,-4.91444 -3.0371,-7.19922 z"
         style="fill:#dad524;fill-opacity:1;fill-rule:evenodd;stroke:none;stroke-width:5;stroke-linecap:round"
         id="path84"
         color="tail-hl-1" /><path
         style="fill:none;fill-opacity:1;fill-rule:evenodd;stroke:#232323;stroke-width:5;stroke-linecap:round;stroke-dasharray:none;stroke-opacity:1"
         d="m 650.9636,556.62934 c 14.67993,-26.91321 32.78198,-7.2312 52.94153,-43.45094 11.99177,-21.54504 -29.2722,-42.53618 -29.2722,-42.53618 0,0 46.17784,0.51077 66.31984,53.51326 18.7681,49.38712 -37.73974,57.95715 -45.28044,86.90187 -2.77219,10.64094 11.43445,17.38037 11.43445,17.38037 L 654.0509,607.8557 Z"
         id="path85"
         color="tail-contour" /></g><g
       id="g58"><path
         style="fill:#dad524;fill-opacity:1;fill-rule:evenodd;stroke:none;stroke-width:5;stroke-linecap:round;stroke-dasharray:none;stroke-opacity:1"
         d="m 454.07503,671.08668 c 0,0 -14.53907,15.64579 -13.26002,31.8564 1.68146,21.31077 16.90501,30.66777 16.90501,30.66777 0,0 0.28375,-18.87684 6.54259,-28.88898 7.90875,-12.65148 15.20052,-20.21346 15.20052,-20.21346 z"
         id="path58"
         color="tail-main" /><path
         d="m 464.78125,678.1582 c -6.53004,7.77834 -12.48937,16.19456 -14.42578,22.84375 -1.92188,6.5993 -3.36632,19.41005 -0.62023,25.56937 7.60838,3.05785 8.65352,10.22397 8.65352,10.22397 0,0 -0.38588,-22.06049 5.87296,-32.07263 7.90875,-12.65148 15.20117,-20.21485 15.20117,-20.21485 z"
         style="display:inline;fill:#da3e24;fill-opacity:1;fill-rule:evenodd;stroke:none;stroke-width:5;stroke-linecap:round"
         id="path60"
         color="tail-hl-2" /><path
         style="fill:none;fill-opacity:1;fill-rule:evenodd;stroke:#232323;stroke-width:5;stroke-linecap:round;stroke-dasharray:none;stroke-opacity:1"
         d="m 454.07503,671.08668 c 0,0 -14.53907,15.64579 -13.26002,31.8564 1.68146,21.31077 18.97249,35.38828 18.97249,35.38828 0,0 -1.78373,-23.59735 4.47511,-33.60949 7.90875,-12.65148 15.20052,-20.21346 15.20052,-20.21346 z"
         id="path61"
         color="tail-contour" /></g><g
       id="g53"
       style="display:inline"><path
         style="fill:#da3e24;fill-opacity:1;fill-rule:evenodd;stroke:none;stroke-width:5;stroke-linecap:round;stroke-dasharray:none;stroke-opacity:1"
         d="m 409.81092,611.05735 c 0,0 6.33927,-18.13036 14.01939,-25.83277 25.56592,-25.64011 52.75783,-28.13787 52.75783,-28.13787 l 14.17873,40.93535 c 0,0 5.23187,10.06647 -18.97881,17.43131 -28.88146,8.78568 -27.49303,21.26928 -27.49303,21.26928 z"
         id="path53"
         color="tail-main" /><path
         d="m 424.56445,622.03711 10.50782,7.82031 c 5.56809,-8.04738 11.56353,-15.39075 17.38476,-20.05859 8.5702,-6.87215 22.92648,-12.83174 36.375,-17.36524 l -5.22266,-15.07617 c -12.54316,4.46935 -25.15515,10.03471 -33.57617,16.4336 -7.93116,6.02665 -17.20069,17.11136 -25.46875,28.24609 z"
         style="fill:#dab024;fill-opacity:1;fill-rule:evenodd;stroke:none;stroke-width:5;stroke-linecap:round"
         id="path56"
         color="tail-hl-1" /><path
         d="m 479.11914,564.39453 c -14.90533,6.37495 -30.30647,14.20409 -39.75977,22.44336 -7.53648,6.56862 -15.69341,17.83534 -22.86718,29.19141 l 8.07226,6.00781 c 8.26806,-11.13473 17.53759,-22.21944 25.46875,-28.24609 8.42102,-6.39889 21.03301,-11.96425 33.57617,-16.4336 z"
         style="display:inline;fill:#24da27;fill-opacity:1;fill-rule:evenodd;stroke:none;stroke-width:5;stroke-linecap:round"
         id="path55"
         color="tail-hl-2" /><path
         style="fill:none;fill-opacity:1;fill-rule:evenodd;stroke:#232323;stroke-width:5;stroke-linecap:round;stroke-dasharray:none;stroke-opacity:1"
         d="m 409.81092,611.05735 c 0,0 6.33927,-18.13036 14.01939,-25.83277 25.56592,-25.64011 52.75783,-28.13787 52.75783,-28.13787 l 14.17873,40.93535 c 0,0 5.23187,10.06647 -18.97881,17.43131 -28.88146,8.78568 -27.49303,21.26928 -27.49303,21.26928 z"
         id="path57"
         color="tail-contour" /></g><g
       id="g42"><path
         style="fill:#24dac9;fill-opacity:1;fill-rule:evenodd;stroke:none;stroke-width:5;stroke-linecap:round;stroke-dasharray:none;stroke-opacity:1"
         d="m 454.85594,447.95779 c 0,0 -54.43257,40.23795 -43.02555,79.49151 8.44725,29.06847 54.61283,31.96973 70.70519,57.60891 5.7656,9.18605 6.79171,21.022 6.79171,21.022 0,0 31.94599,-26.92786 19.72833,-55.95084 -12.57499,-29.87182 -35.59922,-34.81807 -52.65732,-54.55788 -8.90376,-10.30353 -1.54236,-47.6137 -1.54236,-47.6137 z"
         id="path42"
         color="tail-main" /><path
         d="m 511.29883,570.16992 c -4.0009,-8.61129 -8.99139,-17.99215 -13.90039,-23.60351 -17.12672,-19.57712 -33.62815,-28.58199 -51.81917,-49.5177 -10.14823,-11.67941 -6.1634,-21.79333 -3.97242,-35.99243 -1.53252,3.5371 -16.29485,15.64201 -17.72522,20.2783 3.78217,10.19267 3.57266,20.45446 12.34487,29.49665 15.96671,16.45811 39.16333,28.87984 54.54108,44.88361 6.61175,6.88091 12.12712,20.24806 15.32031,29.25586 2.37209,-4.48198 4.31181,-9.4807 5.21094,-14.80078 z"
         style="display:inline;fill:#da5f24;fill-opacity:1;fill-rule:evenodd;stroke:none;stroke-width:5;stroke-linecap:round"
         id="path45"
         color="tail-hl-2" /><path
         d="m 506.08789,584.9707 c -3.19319,-9.0078 -8.70856,-22.37495 -15.32031,-29.25586 -15.37775,-16.00377 -34.49187,-26.56192 -50.67499,-43.04007 -11.86021,-12.07642 -11.66145,-26.96957 -13.4917,-38.32651 -2.38546,7.73203 -9.77118,6.16727 -10.09976,15.90091 2.19663,14.37031 8.2131,29.89931 13.90877,34.98383 18.98115,16.94449 40.6744,25.12298 56.69752,44.88809 5.06886,6.25262 8.78403,17.25863 11.20313,26.50782 2.62102,-3.24048 5.41418,-7.1931 7.77734,-11.65821 z"
         style="display:inline;fill:#dad424;fill-opacity:1;fill-rule:evenodd;stroke:none;stroke-width:5;stroke-linecap:round"
         id="path44"
         color="tail-hl-1" /><path
         style="fill:none;fill-opacity:1;fill-rule:evenodd;stroke:#6f6f6f;stroke-width:4.73763;stroke-linecap:round;stroke-dasharray:none;stroke-opacity:1"
         d="m 457.10186,447.09257 c 0,0 -57.38824,38.07458 -45.98122,77.32814 8.44725,29.06847 55.32258,34.99832 71.41494,60.6375 5.7656,9.18605 6.79171,21.022 6.79171,21.022 0,0 31.94599,-26.92786 19.72833,-55.95084 -12.57499,-29.87182 -34.79297,-35.61169 -51.85107,-55.3515 -8.90376,-10.30353 -0.10269,-47.6853 -0.10269,-47.6853 z"
         id="path46"
         color="tail-contour" /></g><g
       id="g52"
       transform="matrix(0.80893186,0,0,0.67072956,76.74399,290.53307)"><path
         style="fill:#24dac9;fill-opacity:1;fill-rule:evenodd;stroke:none;stroke-width:5;stroke-linecap:round;stroke-dasharray:none;stroke-opacity:1"
         d="m 418.97466,455.6725 c 0,0 -24.17211,37.41546 -12.76509,76.66902 8.44725,29.06847 60.23365,27.07751 76.32601,52.71669 5.7656,9.18605 6.79171,21.022 6.79171,21.022 0,0 31.94599,-26.92786 19.72833,-55.95084 -12.57499,-29.87182 -53.44642,-38.79836 -70.50452,-58.53817 -8.90376,-10.30353 -19.57644,-35.9187 -19.57644,-35.9187 z"
         id="path49"
         color="mane-main" /><path
         d="m 511.29883,570.16992 c -4.0009,-8.61129 -7.57786,-16.62833 -12.48686,-22.23969 -17.12672,-19.57712 -42.35417,-19.36484 -61.09778,-39.70066 -7.71348,-8.36871 -20.7122,-29.78033 -25.32357,-39.72957 -1.53252,3.5371 -3.13408,7.69574 -4.56445,12.33203 3.78217,10.19267 9.07112,31.17121 17.84333,40.2134 15.96671,16.45811 49.15492,23.77998 64.53267,39.78375 6.61175,6.88091 12.69253,15.13372 15.88572,24.14152 2.37209,-4.48198 4.31181,-9.4807 5.21094,-14.80078 z"
         style="display:inline;fill:#da5f24;fill-opacity:1;fill-rule:evenodd;stroke:none;stroke-width:5;stroke-linecap:round"
         id="path50"
         color="mane-hl-1" /><path
         d="m 506.08789,584.9707 c -3.19319,-9.0078 -8.70856,-22.37495 -15.32031,-29.25586 -15.37775,-16.00377 -47.15243,-21.96181 -63.11914,-38.41992 -8.77221,-9.04219 -16.0401,-26.27022 -19.82227,-36.46289 -2.38546,7.73203 -4.29642,16.7937 -4.625,26.52734 5.25532,7.80698 12.12074,20.95115 17.81641,26.03567 18.98115,16.94449 49.2186,18.66572 65.24172,38.43083 5.06886,6.25262 9.63215,15.55385 12.05125,24.80304 2.62102,-3.24048 5.41418,-7.1931 7.77734,-11.65821 z"
         style="display:inline;fill:#dad424;fill-opacity:1;fill-rule:evenodd;stroke:none;stroke-width:5;stroke-linecap:round"
         id="path51"
         color="mane-hl-2" /><path
         style="fill:none;fill-opacity:1;fill-rule:evenodd;stroke:#6f6f6f;stroke-width:6.78798;stroke-linecap:round;stroke-dasharray:none;stroke-opacity:1"
         d="m 418.97466,455.6725 c 0,0 -24.17211,37.41546 -12.76509,76.66902 8.44725,29.06847 60.23365,27.07751 76.32601,52.71669 5.7656,9.18605 7.69127,17.28507 7.69127,17.28507 0,0 31.04643,-23.19093 18.82877,-52.21391 -12.57499,-29.87182 -53.44642,-38.79836 -70.50452,-58.53817 -8.90376,-10.30353 -19.57644,-35.9187 -19.57644,-35.9187 z"
         id="path52"
         color="mane-contour" /></g></g></svg>
