<?xml version="1.0" encoding="UTF-8" standalone="no"?>
<!-- Created with Inkscape (http://www.inkscape.org/) -->

<svg
   width="1000"
   height="1000"
   viewBox="0 0 1000 1000"
   version="1.1"
   id="svg1"
   xml:space="preserve"
   xmlns="http://www.w3.org/2000/svg"
   xmlns:svg="http://www.w3.org/2000/svg"><defs
     id="defs1" /><g
     id="g18"
     data-layer="200"><path
       style="fill:#247dda;fill-opacity:1;fill-rule:evenodd;stroke:none;stroke-width:5;stroke-linecap:round;stroke-miterlimit:100;stroke-dasharray:none;stroke-opacity:1"
       d="m 549.76866,533.30304 c 0,0 11.51209,-102.92236 119.83311,-80.04119 35.46311,7.49104 19.20988,60.83131 19.20988,60.83131 0,0 70.00979,-61.5467 124.40689,-8.23281 48.67819,47.70885 -63.57558,98.33632 -63.57558,98.33632 0,0 62.06554,-6.84705 60.37393,13.72135 -3.59865,43.75628 -66.77723,46.65259 -66.77723,46.65259 0,0 33.51276,9.17872 18.75251,20.58201 -31.68738,24.48064 -84.48303,20.24079 -93.76254,43.45094 -3.78612,9.46994 22.41153,5.94592 22.41153,5.94592 0,0 -30.84481,26.14437 -54.88539,-6.86068 -27.73585,-38.07823 17.83776,-49.39685 17.83776,-49.39685 0,0 -35.17124,-5.34306 -38.87716,-26.98532 -1.93743,-11.31441 16.46562,-32.93123 16.46562,-32.93123 0,0 -16.35971,2.53731 -19.20989,-7.77543 -8.77147,-31.7377 40.12624,-51.80769 23.78367,-70.43625 -17.11545,-19.50955 -76.38216,15.09348 -76.38216,15.09348 z"
       id="path18"
       color="tail-main" /><path
       d="m 638.44727,674.10547 c 0.076,-5.29379 0.58232,-13.39793 2.79687,-17.76758 8.77707,-17.31855 44.52652,-20.47947 42.53711,-39.79297 -1.6825,-16.33396 -42.08008,-25.61133 -42.08008,-25.61133 0,0 30.92755,-48.28744 -5.03125,-64.0332 -28.48316,-12.4723 -64.0885,5.50276 -82.29297,16.9375 l 4.9961,11.41992 c 0,0 59.26736,-34.6033 76.38281,-15.09375 16.34257,18.62856 -32.55467,38.69785 -23.7832,70.43555 2.85018,10.31274 19.20898,7.77539 19.20898,7.77539 0,0 -18.40227,21.61723 -16.46484,32.93164 2.04838,11.96237 13.70867,18.94556 23.73047,22.79883 z"
       style="fill:#dad524;fill-opacity:1;fill-rule:evenodd;stroke:none;stroke-width:5;stroke-linecap:round;stroke-miterlimit:100"
       id="path21"
       color="tail-hl-2" /><path
       d="m 654.05469,742.53516 c -3.19762,-8.2057 -6.35279,-19.04398 -4.1211,-25.82422 6.19456,-18.82002 40.29529,-15.07993 45.73828,-37.96094 2.48404,-10.44225 -15.55078,-15.09375 -15.55078,-15.09375 0,0 52.2796,-21.27389 44.36524,-56.71484 -7.16067,-32.06588 -57.62891,-31.10157 -57.62891,-31.10157 0,0 42.54634,-43.83541 -6.86133,-66.77734 -44.52577,-20.67507 -87.2014,6.915 -109.42968,26.06445 l 3.81054,8.71094 c 18.20447,-11.43474 53.32469,-27.63102 81.80785,-15.15872 35.9588,15.74576 4.54612,62.57784 4.54612,62.57784 0,0 40.39758,9.27737 42.08008,25.61133 1.98941,19.3135 -33.76004,21.66588 -42.53711,38.98443 -2.21455,4.36965 -1.75062,12.95891 -1.82662,18.2527 8.10958,3.11805 15.14648,4.18555 15.14648,4.18555 0,0 -45.57374,11.3202 -17.83789,49.39843 5.87618,8.06735 12.15941,12.60054 18.29883,14.84571 z"
       style="fill:#40da24;fill-opacity:1;fill-rule:evenodd;stroke:none;stroke-width:5;stroke-linecap:round;stroke-miterlimit:100"
       id="path20"
       color="tail-hl-1" /><path
       style="fill:none;fill-opacity:1;fill-rule:evenodd;stroke:#000000;stroke-width:3;stroke-linecap:round;stroke-miterlimit:100;stroke-dasharray:none;stroke-opacity:1"
       d="m 742.78229,664.11323 c 0,0 15.50511,-10.63574 18.06644,-26.07056 2.38785,-14.38943 -7.77543,-33.15993 -7.77543,-33.15993"
       id="path23"
       color="tail-contour" /><path
       style="fill:none;fill-opacity:1;fill-rule:evenodd;stroke:#000000;stroke-width:3;stroke-linecap:round;stroke-miterlimit:100;stroke-dasharray:none;stroke-opacity:1"
       d="m 669.25873,725.97363 c 0,0 -12.65799,1.44742 -22.41153,-10.40535 -11.2933,-13.72393 -6.06027,-31.67345 -6.06027,-31.67345"
       id="path22"
       color="tail-contour" /><path
       style="fill:none;fill-opacity:1;fill-rule:evenodd;stroke:#000000;stroke-width:3;stroke-linecap:round;stroke-miterlimit:100;stroke-dasharray:none;stroke-opacity:1"
       d="m 769.31022,660.4542 c 0,0 11.36035,-11.75918 12.12053,-24.46974 0.69847,-11.67877 -8.00412,-32.24516 -8.00412,-32.24516"
       id="path24"
       color="tail-contour" /><path
       style="fill:none;fill-opacity:1;fill-rule:evenodd;stroke:#000000;stroke-width:3;stroke-linecap:round;stroke-miterlimit:100;stroke-dasharray:none;stroke-opacity:1"
       d="m 708.47892,501.51526 c 0,0 36.19983,-6.65957 58.7731,28.12876 21.19482,32.66396 1.14345,65.40509 1.14345,65.40509"
       id="path25"
       color="tail-contour" /><path
       style="fill:none;fill-opacity:1;fill-rule:evenodd;stroke:#000000;stroke-width:3;stroke-linecap:round;stroke-miterlimit:100;stroke-dasharray:none;stroke-opacity:1"
       d="m 745.06918,486.19308 c 0,0 31.4968,5.90482 45.73782,28.81484 17.5744,28.27254 6.86068,59.91655 6.86068,59.91655"
       id="path26"
       color="tail-contour" /><path
       style="fill:none;fill-rule:evenodd;stroke:#000000;stroke-width:5;stroke-linecap:round;stroke-miterlimit:100;stroke-dasharray:none;stroke-opacity:1"
       d="m 549.76866,533.30304 c 0,0 11.51209,-102.92236 119.83311,-80.04119 35.46311,7.49104 19.20988,60.83131 19.20988,60.83131 0,0 70.00979,-61.5467 124.40689,-8.23281 48.67819,47.70885 -63.57558,98.33632 -63.57558,98.33632 0,0 62.06554,-6.84705 60.37393,13.72135 -3.59865,43.75628 -66.77723,46.65259 -66.77723,46.65259 0,0 33.51276,9.17872 18.75251,20.58201 -31.68738,24.48064 -84.48303,20.24079 -93.76254,43.45094 -3.78612,9.46994 22.41153,5.94592 22.41153,5.94592 0,0 -30.84481,26.14437 -54.88539,-6.86068 -27.73585,-38.07823 17.83776,-49.39685 17.83776,-49.39685 0,0 -35.17124,-5.34306 -38.87716,-26.98532 -1.93743,-11.31441 16.46562,-32.93123 16.46562,-32.93123 0,0 -16.35971,2.53731 -19.20989,-7.77543 -8.77147,-31.7377 40.12624,-51.80769 23.78367,-70.43625 -17.11545,-19.50955 -76.38216,15.09348 -76.38216,15.09348 z"
       id="path27"
       color="tail-contour" /></g></svg>
