<?xml version="1.0" encoding="UTF-8" standalone="no"?>
<!-- Created with Inkscape (http://www.inkscape.org/) -->

<svg
   width="1000"
   height="1000"
   viewBox="0 0 1000 1000"
   version="1.1"
   id="svg1"
   xml:space="preserve"
   sodipodi:docname="018.svg"
   data-layer="190"
   inkscape:version="1.4.2 (f4327f4, 2025-05-13)"
   xmlns:inkscape="http://www.inkscape.org/namespaces/inkscape"
   xmlns:sodipodi="http://sodipodi.sourceforge.net/DTD/sodipodi-0.dtd"
   xmlns="http://www.w3.org/2000/svg"
   xmlns:svg="http://www.w3.org/2000/svg"><sodipodi:namedview
     id="namedview1"
     pagecolor="#ffffff"
     bordercolor="#000000"
     borderopacity="0.25"
     inkscape:showpageshadow="2"
     inkscape:pageopacity="0.0"
     inkscape:pagecheckerboard="0"
     inkscape:deskcolor="#d1d1d1"
     inkscape:zoom="1.546"
     inkscape:cx="442.10867"
     inkscape:cy="611.57827"
     inkscape:window-width="1920"
     inkscape:window-height="991"
     inkscape:window-x="-9"
     inkscape:window-y="-9"
     inkscape:window-maximized="1"
     inkscape:current-layer="svg1" /><defs
     id="defs1" /><path
     style="opacity:1;fill:#00ff07;fill-rule:evenodd;stroke:none;stroke-width:5;stroke-linecap:round;stroke-miterlimit:100;stroke-opacity:1;fill-opacity:1"
     d="m 537.51617,532.34153 c 78.16452,-152.45284 250.87904,-32.44232 193.07892,99.93531 -1.94878,-25.96047 -10.03202,-54.62643 -25.54981,-74.3855 19.06813,49.10322 -10.75018,83.49212 -23.17602,116.39273 -11.52555,30.5169 -3.2698,80.75359 52.93022,76.68618 -16.22902,17.0879 -39.89591,10.74772 -62.35094,-0.0345 -4.73945,-2.27573 -4.96547,-2.34812 -6.6856,-3.18311 1.73587,1.47947 2.29175,1.906 5.86875,4.1131 12.82499,7.91339 22.05088,10.17062 25.16649,10.58575 -4.69237,0.49787 -8.91652,0.48687 -14.06334,0.38455 -91.55322,-1.82022 -91.29958,-58.12424 -91.43701,-94.27841 -5.90056,15.73719 -4.77972,36.40228 -2.03522,46.83694 -59.07237,-39.15611 76.50369,-214.92066 -51.74644,-183.05304 z"
     id="path18"
     sodipodi:nodetypes="cccscscscsccc"
     color="tail-main" /><path
     d="m 638.4375,461.14648 c -36.01011,-1.42026 -74.05282,18.78965 -100.92188,71.19532 5.45637,-1.3558 10.43607,-2.33614 14.97266,-2.9668 19.69027,-13.50973 54.34632,-29.05278 76.23047,8.14062 26.31888,44.7305 -23.30316,102.04638 -23.28516,153.94532 0.006,16.72804 2.97905,33.78679 6.98047,49.17187 13.28128,12.66397 34.94945,21.4999 70.32031,22.20313 5.14683,0.10232 9.37209,0.1131 14.06446,-0.38477 -3.11561,-0.41513 -12.34298,-2.67255 -25.16797,-10.58594 -3.577,-2.2071 -4.13132,-2.63381 -5.86719,-4.11328 1.72013,0.83499 1.9461,0.90787 6.68555,3.1836 22.45503,10.78222 46.12059,17.12305 62.34961,0.0351 -56.20002,4.06741 -64.45524,-46.1706 -52.92969,-76.6875 12.42584,-32.90061 42.24391,-67.28936 23.17578,-116.39258 15.51779,19.75908 23.602,48.42625 25.55078,74.38672 37.93133,-86.87282 -23.41162,-168.41943 -92.1582,-171.13086 z"
     style="opacity:1;fill:#ff3e00;fill-rule:evenodd;stroke:none;stroke-width:5;stroke-linecap:round;stroke-miterlimit:100;fill-opacity:1"
     id="path22"
     color="tail-hl-2" /><path
     d="m 638.4375,461.14648 c -36.01011,-1.42026 -74.05282,18.78965 -100.92188,71.19532 1.73065,-0.43003 3.41314,-0.82248 5.04883,-1.17774 19.55154,-21.96792 97.46642,-66.96833 126.25782,-13.05273 22.17229,41.52046 -20.8772,94.5824 -23.28516,165.58789 -0.7883,23.2452 6.99646,44.05647 17.48474,61.31367 3.85953,6.35039 9.11426,5.47319 13.4135,10.80523 2.37487,0.13036 7.44695,3.99493 9.95805,4.04486 5.14683,0.10232 5.71306,3.08606 10.40543,2.58819 -3.11561,-0.41513 -12.34298,-2.67255 -25.16797,-10.58594 -3.577,-2.2071 -4.13132,-2.63381 -5.86719,-4.11328 1.72013,0.83499 1.9461,0.90787 6.68555,3.1836 22.45503,10.78222 46.12059,17.12305 62.34961,0.0351 -56.20002,4.06741 -64.45524,-46.1706 -52.92969,-76.6875 12.42584,-32.90061 42.24391,-67.28936 23.17578,-116.39258 15.51779,19.75908 23.602,48.42625 25.55078,74.38672 37.93133,-86.87282 -23.41162,-168.41943 -92.1582,-171.13086 z"
     style="opacity:1;fill:#ffee00;fill-opacity:1;fill-rule:evenodd;stroke:none;stroke-width:5;stroke-linecap:round;stroke-miterlimit:100"
     id="path20"
     sodipodi:nodetypes="sccssscscscscsccss"
     color="tail-hl-1" /><path
     style="opacity:1;fill:none;fill-rule:evenodd;stroke:#000000;stroke-width:5;stroke-linecap:round;stroke-miterlimit:100;stroke-opacity:1;fill-opacity:1"
     d="m 537.51617,532.34153 c 78.16452,-152.45284 250.87904,-32.44232 193.07892,99.93531 -1.94878,-25.96047 -10.03202,-54.62643 -25.54981,-74.3855 19.06813,49.10322 -10.75018,83.49212 -23.17602,116.39273 -11.52555,30.5169 -3.2698,80.75359 52.93022,76.68618 -16.22902,17.0879 -39.89591,10.74772 -62.35094,-0.0345 -4.73945,-2.27573 -4.96547,-2.34812 -6.6856,-3.18311 1.73587,1.47947 2.29175,1.906 5.86875,4.1131 12.82499,7.91339 22.05088,10.17062 25.16649,10.58575 -4.69237,0.49787 -8.91652,0.48687 -14.06334,0.38455 -91.55322,-1.82022 -91.29958,-58.12424 -91.43701,-94.27841 -5.90056,15.73719 -4.77972,36.40228 -2.03522,46.83694 -59.07237,-39.15611 76.50369,-214.92066 -51.74644,-183.05304 z"
     id="path23"
     sodipodi:nodetypes="cccscscscsccc"
     color="tail-contour" /></svg>
