<?xml version="1.0" encoding="UTF-8" standalone="no"?>
<!-- Created with Inkscape (http://www.inkscape.org/) -->

<svg
   width="1000"
   height="1000"
   viewBox="0 0 1000 1000"
   version="1.1"
   id="svg1"
   xml:space="preserve"
   sodipodi:docname="020.svg"
   inkscape:version="1.4.2 (f4327f4, 2025-05-13)"
   xmlns:inkscape="http://www.inkscape.org/namespaces/inkscape"
   xmlns:sodipodi="http://sodipodi.sourceforge.net/DTD/sodipodi-0.dtd"
   xmlns="http://www.w3.org/2000/svg"
   xmlns:svg="http://www.w3.org/2000/svg"><sodipodi:namedview
     id="namedview1"
     pagecolor="#ffffff"
     bordercolor="#000000"
     borderopacity="0.25"
     inkscape:showpageshadow="2"
     inkscape:pageopacity="0.0"
     inkscape:pagecheckerboard="0"
     inkscape:deskcolor="#d1d1d1"
     inkscape:zoom="3.092"
     inkscape:cx="656.20957"
     inkscape:cy="580.36869"
     inkscape:window-width="1920"
     inkscape:window-height="991"
     inkscape:window-x="-9"
     inkscape:window-y="-9"
     inkscape:window-maximized="1"
     inkscape:current-layer="svg1" /><defs
     id="defs1" /><g
     id="g18"
     data-layer="200"><path
       style="opacity:1;fill:#00ff1c;fill-rule:evenodd;stroke:#000000;stroke-width:5;stroke-linecap:round;stroke-miterlimit:100;stroke-dasharray:none;stroke-opacity:1;fill-opacity:1"
       d="m 527.81451,534.2178 c 9.18747,-46.69753 45.60373,-83.1391 109.66456,-89.31796 -4.06285,5.17247 -11.02,9.25636 -15.96074,10.58595 -6.43527,1.73179 -9.24019,1.2053 -10.13358,1.78703 59.94978,-8.8822 95.70345,41.50816 105.78435,76.03022 -20.02062,-18.70435 -32.81552,-25.17697 -45.04502,-30.18696 10.5724,9.83164 27.06687,28.71977 25.13036,53.25799 -3.0667,38.85933 -41.25734,82.39894 -47.45967,120.01549 -4.87189,29.54759 7.93994,42.78657 18.24541,51.22077 -23.04622,1.23176 -47.30025,-34.33988 -53.5525,-52.9774 -1.03221,9.70189 -0.15154,18.78386 -0.16527,25.59098 -10.68447,-11.62374 -22.9899,-42.31177 -22.00321,-76.70757 1.26421,-44.07017 15.94488,-93.08584 -5.88827,-103.70593 -23.25162,-11.31006 -56.75099,22.93576 -58.61642,14.40739 z"
       id="path18"
       sodipodi:nodetypes="ccscccsscccssc"
       color="tail-main" /><path
       d="m 637.47852,444.90039 c -61.94603,5.97488 -98.04299,40.24651 -108.66602,84.72656 11.30899,-19.68365 35.75101,-53.24778 70.75,-52.84375 32.6191,0.37656 58.67163,15.06579 74.70117,27.22266 -0.7149,-0.30275 -1.42693,-0.59788 -2.13672,-0.88867 12.22851,5.0098 25.02414,11.48287 45.04297,30.18554 -10.0809,-34.52206 -45.83537,-84.91149 -105.78515,-76.02929 0.89339,-0.58173 3.69754,-0.0553 10.13281,-1.78711 4.94074,-1.32959 11.89809,-5.41347 15.96094,-10.58594 z"
       style="opacity:1;fill:#ff0000;fill-rule:evenodd;stroke:none;stroke-width:5;stroke-linecap:round;stroke-miterlimit:100;fill-opacity:1"
       id="path23"
       color="tail-hl-1" /><path
       d="m 674.26367,504.00586 c -16.02954,-12.15687 -42.08207,-26.8461 -74.70117,-27.22266 -34.99997,-0.40404 -59.44143,33.16228 -70.75,52.84571 -0.36246,1.5178 -0.69489,3.04898 -0.99805,4.58984 0.0504,0.23024 0.1231,0.42803 0.21875,0.59766 14.0472,-17.3746 50.59801,-52.31771 100.86133,-24.38282 39.37525,21.88362 36.86197,92.81777 31.57617,134.44727 13.5653,-29.24498 34.54328,-60.12292 36.78321,-88.50586 1.93651,-24.53822 -14.55651,-43.42813 -25.12891,-53.25977 0.71057,0.2911 1.42298,0.58755 2.13867,0.89063 z"
       style="opacity:1;fill:#fffd00;fill-rule:evenodd;stroke:none;stroke-width:3;stroke-linecap:round;stroke-miterlimit:100;fill-opacity:1"
       id="path20"
       color="tail-hl-2" /><path
       d="m 674.26367,504.00586 c -16.02954,-12.15687 -42.08207,-26.8461 -74.70117,-27.22266 -34.99997,-0.40404 -59.44143,33.16228 -70.75,52.84571 -0.36246,1.5178 -0.69489,3.04898 -0.99805,4.58984 0.0504,0.23024 0.1231,0.42803 0.21875,0.59766 14.0472,-17.3746 50.59801,-52.31771 100.86133,-24.38282 39.37525,21.88362 36.86197,92.81777 31.57617,134.44727 13.5653,-29.24498 34.54328,-60.12292 36.78321,-88.50586 1.93651,-24.53822 -14.55651,-43.42813 -25.12891,-53.25977 0.71057,0.2911 1.42298,0.58755 2.13867,0.89063 z"
       style="opacity:1;fill:none;fill-rule:evenodd;stroke:#000000;stroke-width:3;stroke-linecap:round;stroke-miterlimit:100"
       id="path21"
       color="tail-contour" /><path
       style="opacity:1;fill:none;fill-rule:evenodd;stroke:#000000;stroke-width:5;stroke-linecap:round;stroke-miterlimit:100;stroke-dasharray:none;stroke-opacity:1"
       d="m 527.81451,534.2178 c 9.18747,-46.69753 45.60373,-83.1391 109.66456,-89.31796 -4.06285,5.17247 -11.02,9.25636 -15.96074,10.58595 -6.43527,1.73179 -9.24019,1.2053 -10.13358,1.78703 59.94978,-8.8822 95.70345,41.50816 105.78435,76.03022 -20.02062,-18.70435 -32.81552,-25.17697 -45.04502,-30.18696 10.5724,9.83164 27.06687,28.71977 25.13036,53.25799 -3.0667,38.85933 -41.25734,82.39894 -47.45967,120.01549 -4.87189,29.54759 7.93994,42.78657 18.24541,51.22077 -23.04622,1.23176 -47.30025,-34.33988 -53.5525,-52.9774 -1.03221,9.70189 -0.15154,18.78386 -0.16527,25.59098 -10.68447,-11.62374 -22.9899,-42.31177 -22.00321,-76.70757 1.26421,-44.07017 15.94488,-93.08584 -5.88827,-103.70593 -23.25162,-11.31006 -56.75099,22.93576 -58.61642,14.40739 z"
       id="path22"
       sodipodi:nodetypes="ccscccsscccssc"
       color="tail-contour" /></g></svg>
