<?xml version="1.0" encoding="UTF-8" standalone="no"?>
<!-- Created with Inkscape (http://www.inkscape.org/) -->

<svg
   width="1000"
   height="1000"
   viewBox="0 0 1000 1000"
   version="1.1"
   id="svg1"
   xml:space="preserve"
   sodipodi:docname="021.svg"
   inkscape:version="1.4.2 (f4327f4, 2025-05-13)"
   xmlns:inkscape="http://www.inkscape.org/namespaces/inkscape"
   xmlns:sodipodi="http://sodipodi.sourceforge.net/DTD/sodipodi-0.dtd"
   xmlns="http://www.w3.org/2000/svg"
   xmlns:svg="http://www.w3.org/2000/svg"><sodipodi:namedview
     id="namedview1"
     pagecolor="#ffffff"
     bordercolor="#000000"
     borderopacity="0.25"
     inkscape:showpageshadow="2"
     inkscape:pageopacity="0.0"
     inkscape:pagecheckerboard="0"
     inkscape:deskcolor="#d1d1d1"
     inkscape:zoom="1.0931871"
     inkscape:cx="297.29587"
     inkscape:cy="621.57705"
     inkscape:window-width="1920"
     inkscape:window-height="991"
     inkscape:window-x="-9"
     inkscape:window-y="-9"
     inkscape:window-maximized="1"
     inkscape:current-layer="g18" /><defs
     id="defs1" /><g
     id="g18"
     data-layer="200"><path
       style="opacity:1;fill:#fff400;fill-rule:evenodd;stroke:none;stroke-width:5;stroke-linecap:round;stroke-miterlimit:100;stroke-dasharray:none;stroke-opacity:1;fill-opacity:1"
       d="m 540.75032,521.34541 c -2.46941,-28.14256 18.24103,-50.26269 41.81193,-68.78599 -4.94515,10.91194 -5.39303,16.30276 -8.43121,23.4906 -0.65659,1.55337 -4.8315,4.2562 -4.87925,5.35499 0.64874,-0.7319 1.93289,-2.34181 2.93707,-3.17231 69.81435,-57.73904 168.11054,59.372 86.08565,157.66336 1.71802,-6.05263 10.11549,-36.64426 7.23564,-53.11801 -5.30842,15.00575 -11.2441,31.74146 -25.79475,44.32415 -11.18213,-21.96788 -30.50115,-35.16733 -45.27814,-44.63131 7.59123,-50.6508 -13.46442,-78.33368 -41.22352,-49.57789 -4.82038,4.99346 -11.81872,-4.20027 -12.46342,-11.54759 z"
       id="path18"
       sodipodi:nodetypes="ccscsccccsc"
       color="tail-main" /><path
       d="m 618.45898,600.12891 c 7.66709,-25.56037 14.38744,-64.07309 -5.80078,-84.43555 -25.01629,-25.23221 -55.0998,-7.51878 -71.8164,6.42969 0.17418,1.20367 0.50515,2.44132 0.95898,3.64453 17.23374,-9.67008 46.21282,-21.70455 60.33789,-3.44141 17.30651,22.37662 11.99581,48.18758 3.23242,67.44922 4.33062,3.06837 8.77338,6.48786 13.08789,10.35352 z"
       style="opacity:1;fill:#0fff00;fill-rule:evenodd;stroke:none;stroke-width:3;stroke-linecap:round;stroke-miterlimit:100;fill-opacity:1"
       id="path21"
       color="tail-hl-2" /><path
       d="m 665.41602,583.04687 c 0.64401,-22.56184 -3.18236,-59.87627 -31.94727,-80.61718 -38.43931,-27.71663 -74.50284,-1.25518 -92.83398,17.33398 0.0302,0.5249 0.0688,1.05289 0.11523,1.58203 0.0226,0.2572 0.054,0.51631 0.0918,0.77735 16.7166,-13.94847 46.80011,-31.6619 71.8164,-6.42969 20.18822,20.36246 13.46787,58.87518 5.80078,84.43555 8.06153,7.22284 15.67297,16.00477 21.25586,26.97265 14.46403,-12.50778 20.41665,-29.118 25.70118,-44.05469 z"
       style="opacity:1;fill:#0034ff;fill-rule:evenodd;stroke:none;stroke-width:3;stroke-linecap:round;stroke-miterlimit:100;fill-opacity:1"
       id="path20"
       color="tail-hl-1" /><path
       d="m 665.41602,583.04687 c 0.64401,-22.56184 -3.18236,-59.87627 -31.94727,-80.61718 -38.43931,-27.71663 -74.50284,-1.25518 -92.83398,17.33398 0.0302,0.5249 0.0688,1.05289 0.11523,1.58203 0.0226,0.2572 0.054,0.51631 0.0918,0.77735 16.7166,-13.94847 46.80011,-31.6619 71.8164,-6.42969 20.18822,20.36246 13.46787,58.87518 5.80078,84.43555 8.06153,7.22284 15.67297,16.00477 21.25586,26.97265 14.46403,-12.50778 20.41665,-29.118 25.70118,-44.05469 z"
       style="opacity:1;fill:none;fill-rule:evenodd;stroke:#000000;stroke-width:3;stroke-linecap:round;stroke-miterlimit:100"
       id="path22"
       color="tail-contour" /><path
       d="m 618.45898,600.12891 c 7.66709,-25.56037 14.38744,-64.07309 -5.80078,-84.43555 -25.01629,-25.23221 -55.0998,-7.51878 -71.8164,6.42969 0.17418,1.20367 0.50515,2.44132 0.95898,3.64453 17.23374,-9.67008 46.21282,-21.70455 60.33789,-3.44141 17.30651,22.37662 11.99581,48.18758 3.23242,67.44922 4.33062,3.06837 8.77338,6.48786 13.08789,10.35352 z"
       style="opacity:1;fill:none;fill-rule:evenodd;stroke:#000000;stroke-width:3;stroke-linecap:round;stroke-miterlimit:100"
       id="path23"
       color="tail-contour" /><path
       style="opacity:1;fill:none;fill-rule:evenodd;stroke:#000000;stroke-width:5;stroke-linecap:round;stroke-miterlimit:100;stroke-dasharray:none;stroke-opacity:1"
       d="m 540.75032,521.34541 c -2.46941,-28.14256 18.24103,-50.26269 41.81193,-68.78599 -4.94515,10.91194 -5.39303,16.30276 -8.43121,23.4906 -0.65659,1.55337 -4.8315,4.2562 -4.87925,5.35499 0.64874,-0.7319 1.93289,-2.34181 2.93707,-3.17231 69.81435,-57.73904 168.11054,59.372 86.08565,157.66336 1.71802,-6.05263 10.11549,-36.64426 7.23564,-53.11801 -5.30842,15.00575 -11.2441,31.74146 -25.79475,44.32415 -11.18213,-21.96788 -30.50115,-35.16733 -45.27814,-44.63131 7.59123,-50.6508 -13.46442,-78.33368 -41.22352,-49.57789 -4.82038,4.99346 -11.81872,-4.20027 -12.46342,-11.54759 z"
       id="path24"
       sodipodi:nodetypes="ccscsccccsc"
       color="tail-contour" /></g></svg>
