<?xml version="1.0" encoding="UTF-8" standalone="no"?>
<!-- Created with Inkscape (http://www.inkscape.org/) -->

<svg
   width="1000"
   height="1000"
   viewBox="0 0 1000 1000"
   version="1.1"
   id="svg1"
   xml:space="preserve"
   sodipodi:docname="022.svg"
   inkscape:version="1.4.2 (f4327f4, 2025-05-13)"
   xmlns:inkscape="http://www.inkscape.org/namespaces/inkscape"
   xmlns:sodipodi="http://sodipodi.sourceforge.net/DTD/sodipodi-0.dtd"
   xmlns="http://www.w3.org/2000/svg"
   xmlns:svg="http://www.w3.org/2000/svg"><sodipodi:namedview
     id="namedview1"
     pagecolor="#ffffff"
     bordercolor="#000000"
     borderopacity="0.25"
     inkscape:showpageshadow="2"
     inkscape:pageopacity="0.0"
     inkscape:pagecheckerboard="0"
     inkscape:deskcolor="#d1d1d1"
     inkscape:zoom="1.546"
     inkscape:cx="637.7749"
     inkscape:cy="610.93144"
     inkscape:window-width="1309"
     inkscape:window-height="973"
     inkscape:window-x="-9"
     inkscape:window-y="0"
     inkscape:window-maximized="0"
     inkscape:current-layer="g18" /><defs
     id="defs1" /><g
     id="g18"
     data-layer="200"><path
       style="opacity:1;fill:#f8ff00;fill-rule:evenodd;stroke:none;stroke-width:5;stroke-linecap:round;stroke-miterlimit:100;stroke-dasharray:none;stroke-opacity:1;fill-opacity:1"
       d="m 535.57568,540.10349 c 1.46811,-54.70325 29.82964,-142.08189 97.67141,-131.95343 115.81719,15.79807 199.33027,149.63052 139.71539,210.86676 -8.1e-4,-14.3165 -4.52306,-34.77171 -11.64295,-52.39328 8.45888,72.31717 -3.85711,95.54843 -86.02846,139.06857 3.07263,-17.79808 10.76344,-44.03106 6.16788,-71.11886 -1.17297,29.78352 -14.16258,50.64594 -35.27525,73.05935 0.0291,-84.40091 -20.43168,-214.33672 -95.33925,-162.73658 -3.08587,2.1257 -11.59077,-6.85579 -15.26877,-4.79253 z"
       id="path18"
       sodipodi:nodetypes="cccccccsc"
       color="tail-main" /><path
       d="m 688.04297,425.04687 c 17.86721,21.57928 39.70747,51.4044 46.96484,75.78321 12.99263,43.64452 19.78457,98.50138 -5.26172,136.64062 6.50022,-2.87891 13.64975,-8.21625 19.89649,-17.72265 -1.01609,17.78426 -4.25664,31.22856 -8.97852,42.07812 23.09781,-23.83957 25.9574,-49.88222 20.65625,-95.20312 7.11989,17.62157 11.64177,38.07803 11.64258,52.39453 49.66119,-51.01184 -2.9e-4,-152.40292 -84.91992,-193.97071 z"
       style="opacity:1;fill:#00ff18;fill-rule:evenodd;stroke:none;stroke-width:3;stroke-linecap:round;stroke-miterlimit:100;stroke-dasharray:none;fill-opacity:1"
       id="path20"
       color="tail-hl-2" /><path
       d="m 688.04297,425.04687 c -17.02062,-8.33151 -35.45732,-14.25873 -54.79492,-16.89648 -67.84177,-10.12846 -96.20377,77.24988 -97.67188,131.95313 3.678,-2.06326 12.18171,6.91866 15.26758,4.79296 1.38889,-0.95673 2.75966,-1.85218 4.11133,-2.68554 8.00208,-20.53789 30.12293,-67.32845 64.33594,-63.33594 43.71967,5.1019 82.94157,61.59223 81.4121,94.67773 -11.86257,-16.87321 -20.57433,-27.03096 -37.96289,-34.76171 30.09723,37.02207 38.37385,57.82635 35.67579,93.30664 -0.95855,12.60513 -8.16753,24.32556 -16.36719,35.14648 -1.57081,14.69544 -4.95745,28.01874 -6.75781,38.44727 30.67487,-16.24624 51.61439,-29.66473 65.37304,-43.86524 4.72188,-10.84956 7.96243,-24.29386 8.97852,-42.07812 -6.24674,9.5064 -13.39627,14.84374 -19.89649,17.72265 25.04629,-38.13924 18.25435,-92.9961 5.26172,-136.64062 -7.25737,-24.37881 -29.09763,-54.20393 -46.96484,-75.78321 z"
       style="opacity:1;fill:#ff4400;fill-rule:evenodd;stroke:none;stroke-width:3;stroke-linecap:round;stroke-miterlimit:100;fill-opacity:1"
       id="path21"
       color="tail-hl-1" /><path
       d="m 688.04297,425.04687 c -17.02062,-8.33151 -35.45732,-14.25873 -54.79492,-16.89648 -67.84177,-10.12846 -96.20377,77.24988 -97.67188,131.95313 3.678,-2.06326 12.18171,6.91866 15.26758,4.79296 1.38889,-0.95673 2.75966,-1.85218 4.11133,-2.68554 8.00208,-20.53789 30.12293,-67.32845 64.33594,-63.33594 43.71967,5.1019 82.94157,61.59223 81.4121,94.67773 -11.86257,-16.87321 -20.57433,-27.03096 -37.96289,-34.76171 30.09723,37.02207 38.37385,57.82635 35.67579,93.30664 -0.95855,12.60513 -8.16753,24.32556 -16.36719,35.14648 -1.57081,14.69544 -4.95745,28.01874 -6.75781,38.44727 30.67487,-16.24624 51.61439,-29.66473 65.37304,-43.86524 4.72188,-10.84956 7.96243,-24.29386 8.97852,-42.07812 -6.24674,9.5064 -13.39627,14.84374 -19.89649,17.72265 25.04629,-38.13924 18.25435,-92.9961 5.26172,-136.64062 -7.25737,-24.37881 -29.09763,-54.20393 -46.96484,-75.78321 z"
       style="opacity:1;fill:none;fill-rule:evenodd;stroke:#000000;stroke-width:3;stroke-linecap:round;stroke-miterlimit:100"
       id="path22"
       color="tail-contour" /><path
       d="m 688.04297,425.04687 c -17.02062,-8.33151 -35.45732,-14.25873 -54.79492,-16.89648 -67.84177,-10.12846 -96.20377,77.24988 -97.67188,131.95313 3.678,-2.06326 12.18171,6.91866 15.26758,4.79296 1.38889,-0.95673 2.75966,-1.85218 4.11133,-2.68554 8.00208,-20.53789 30.12293,-67.32845 64.33594,-63.33594 43.71967,5.1019 82.94157,61.59223 81.4121,94.67773 -11.86257,-16.87321 -20.57433,-27.03096 -37.96289,-34.76171 30.09723,37.02207 38.37385,57.82635 35.67579,93.30664 -0.95855,12.60513 -8.16753,24.32556 -16.36719,35.14648 -1.57081,14.69544 -4.95745,28.01874 -6.75781,38.44727 30.67487,-16.24624 51.61439,-29.66473 65.37304,-43.86524 4.72188,-10.84956 7.96243,-24.29386 8.97852,-42.07812 -6.24674,9.5064 -13.39627,14.84374 -19.89649,17.72265 25.04629,-38.13924 18.25435,-92.9961 5.26172,-136.64062 -7.25737,-24.37881 -29.09763,-54.20393 -46.96484,-75.78321 z"
       style="opacity:1;fill:none;fill-rule:evenodd;stroke:#000000;stroke-width:3;stroke-linecap:round;stroke-miterlimit:100"
       id="path23"
       color="tail-contour" /><path
       style="opacity:1;fill:none;fill-rule:evenodd;stroke:#000000;stroke-width:5;stroke-linecap:round;stroke-miterlimit:100;stroke-dasharray:none;stroke-opacity:1"
       d="m 535.57568,540.10349 c 1.46811,-54.70325 29.82964,-142.08189 97.67141,-131.95343 115.81719,15.79807 199.33027,149.63052 139.71539,210.86676 -8.1e-4,-14.3165 -4.52306,-34.77171 -11.64295,-52.39328 8.45888,72.31717 -3.85711,95.54843 -86.02846,139.06857 3.07263,-17.79808 10.76344,-44.03106 6.16788,-71.11886 -1.17297,29.78352 -14.16258,50.64594 -35.27525,73.05935 0.0291,-84.40091 -20.43168,-214.33672 -95.33925,-162.73658 -3.08587,2.1257 -11.59077,-6.85579 -15.26877,-4.79253 z"
       id="path24"
       sodipodi:nodetypes="cccccccsc"
       color="tail-contour" /></g></svg>
