<?xml version="1.0" encoding="UTF-8" standalone="no"?>
<!-- Created with Inkscape (http://www.inkscape.org/) -->

<svg
   width="1000"
   height="1000"
   viewBox="0 0 1000 1000"
   version="1.1"
   id="svg1"
   xml:space="preserve"
   sodipodi:docname="023.svg"
   inkscape:version="1.4.2 (f4327f4, 2025-05-13)"
   xmlns:inkscape="http://www.inkscape.org/namespaces/inkscape"
   xmlns:sodipodi="http://sodipodi.sourceforge.net/DTD/sodipodi-0.dtd"
   xmlns="http://www.w3.org/2000/svg"
   xmlns:svg="http://www.w3.org/2000/svg"><sodipodi:namedview
     id="namedview1"
     pagecolor="#ffffff"
     bordercolor="#000000"
     borderopacity="0.25"
     inkscape:showpageshadow="2"
     inkscape:pageopacity="0.0"
     inkscape:pagecheckerboard="0"
     inkscape:deskcolor="#d1d1d1"
     inkscape:zoom="1.546"
     inkscape:cx="426.90815"
     inkscape:cy="550.7762"
     inkscape:window-width="1920"
     inkscape:window-height="991"
     inkscape:window-x="-9"
     inkscape:window-y="-9"
     inkscape:window-maximized="1"
     inkscape:current-layer="g18" /><defs
     id="defs1" /><g
     id="g18"
     transform="translate(10.349289,0.64683054)"
     data-layer="200"><path
       style="opacity:1;fill:#00ff13;fill-opacity:1;fill-rule:evenodd;stroke:none;stroke-width:5;stroke-linecap:round;stroke-miterlimit:100;stroke-opacity:1"
       d="m 531.93091,531.93091 c 19.55186,-56.2403 -2.30026,-78.48953 -10.5197,-86.44449 24.51668,-4.28229 30.12032,7.37634 35.6755,17.38037 25.19987,-43.43193 67.45335,-24.89132 73.6379,2.74427 68.58171,7.77852 -9.15282,130.24175 2.28689,168.77258 -23.79604,-2.01839 -29.38453,-21.01337 -31.5591,-37.04764 -51.3466,-28.68865 16.74183,-87.36503 -10.08531,-94.16443 -26.82713,-6.7994 -23.41081,51.57064 -45.25745,50.7135 -8.70486,-0.34153 -11.21391,-13.76263 -14.17873,-21.95416 z"
       id="path18"
       sodipodi:nodetypes="cccccczcc"
       color="tail-main" /><path
       d="m 611.34375,624.07422 c -1.76653,-9.30008 -2.29014,-21.69917 1.24023,-36.6836 8.13648,-34.53469 21.64376,-80.99191 0.98829,-94.79492 -19.95239,-13.33319 -38.18946,16.00977 -38.18946,16.00977 l -0.30859,0.97656 c 3.93866,-5.28879 8.99706,-8.25932 16.29297,-6.41016 26.82714,6.79941 -41.26066,65.47542 10.08593,94.16407 1.24654,9.19134 3.61398,19.35659 9.89063,26.73828 z"
       style="opacity:1;fill:#fff500;fill-opacity:1;fill-rule:evenodd;stroke:none;stroke-width:3;stroke-linecap:round;stroke-miterlimit:100;stroke-dasharray:none"
       id="path21"
       color="tail-hl-1" /><path
       d="m 589.68164,437.38281 c -11.39923,1.68925 -23.18626,9.26722 -32.5957,25.48438 -5.55518,-10.00403 -11.15715,-21.66315 -35.67383,-17.38086 8.21944,7.95496 30.07139,30.20501 10.51953,86.44531 1.41541,3.91065 2.72681,9.01217 4.6582,13.31445 6.0935,-16.62853 15.62316,-41.99772 23.92969,-61.33398 9.42701,-21.94453 20.69474,-37.1316 29.16211,-46.5293 z"
       style="opacity:1;fill:#ff2900;fill-opacity:1;fill-rule:evenodd;stroke:none;stroke-width:3;stroke-linecap:round;stroke-miterlimit:100;stroke-dasharray:none"
       id="path20"
       color="tail-hl-2" /><path
       style="opacity:1;fill:none;fill-rule:evenodd;stroke:#000000;stroke-width:5;stroke-linecap:round;stroke-miterlimit:100;stroke-opacity:1"
       d="m 531.93091,531.93091 c 19.55186,-56.2403 -2.30026,-78.48953 -10.5197,-86.44449 24.51668,-4.28229 30.12032,7.37634 35.6755,17.38037 25.19987,-43.43193 67.45335,-24.89132 73.6379,2.74427 68.58171,7.77852 -9.15282,130.24175 2.28689,168.77258 -23.79604,-2.01839 -29.38453,-21.01337 -31.5591,-37.04764 -51.3466,-28.68865 16.74183,-87.36503 -10.08531,-94.16443 -26.82713,-6.7994 -23.41081,51.57064 -45.25745,50.7135 -8.70486,-0.34153 -11.21391,-13.76263 -14.17873,-21.95416 z"
       id="path22"
       sodipodi:nodetypes="cccccczcc"
       color="tail-contour" /><path
       style="opacity:1;fill:none;fill-rule:evenodd;stroke:#000000;stroke-width:3;stroke-linecap:round;stroke-miterlimit:100;stroke-dasharray:none;stroke-opacity:1"
       d="m 629.71394,466.3213 c 0,0 0.32079,0.20266 -2.07987,0.11476 -4.33582,-0.15875 -12.65232,0.65871 -13.51376,0.76749 1.63778,-0.68638 9.29782,-1.08044 13.18044,-1.06505 1.54478,0.006 1.98118,0.34927 1.98118,0.34927"
       id="path23"
       sodipodi:nodetypes="cscsc"
       color="tail-contour" /><path
       style="opacity:1;fill:none;fill-rule:evenodd;stroke:#000000;stroke-width:3;stroke-linecap:round;stroke-miterlimit:100;stroke-dasharray:none;stroke-opacity:1"
       d="m 602.25617,597.57769 c 0,0 0.22402,0.30625 -0.0271,-2.08286 -0.45353,-4.31496 0.25329,-18.44221 0.30318,-19.30906 -0.5733,1.68071 -0.90239,15.1242 -0.62274,18.99677 0.11114,1.54079 0.48332,1.95281 0.48332,1.95281"
       id="path24"
       sodipodi:nodetypes="cscsc"
       color="tail-contour" /><path
       d="m 611.34375,624.07422 c -1.76653,-9.30008 -2.29014,-21.69917 1.24023,-36.6836 8.13648,-34.53469 21.64376,-80.99191 0.98829,-94.79492 -19.95239,-13.33319 -38.18946,16.00977 -38.18946,16.00977 l -0.30859,0.97656 c 3.93866,-5.28879 8.99706,-8.25932 16.29297,-6.41016 26.82714,6.79941 -41.26066,65.47542 10.08593,94.16407 1.24654,9.19134 3.61398,19.35659 9.89063,26.73828 z"
       style="opacity:1;fill:none;fill-rule:evenodd;stroke:#000000;stroke-width:3;stroke-linecap:round;stroke-miterlimit:100;stroke-dasharray:none"
       id="path25"
       color="tail-contour" /><path
       d="m 589.68164,437.38281 c -11.39923,1.68925 -23.18626,9.26722 -32.5957,25.48438 -5.55518,-10.00403 -11.15715,-21.66315 -35.67383,-17.38086 8.21944,7.95496 30.07139,30.20501 10.51953,86.44531 1.41541,3.91065 2.72681,9.01217 4.6582,13.31445 6.0935,-16.62853 15.62316,-41.99772 23.92969,-61.33398 9.42701,-21.94453 20.69474,-37.1316 29.16211,-46.5293 z"
       style="opacity:1;fill:none;fill-rule:evenodd;stroke:#000000;stroke-width:3;stroke-linecap:round;stroke-miterlimit:100;stroke-dasharray:none"
       id="path26"
       color="tail-contour" /></g></svg>
