<?xml version="1.0" encoding="UTF-8" standalone="no"?>
<!-- Created with Inkscape (http://www.inkscape.org/) -->

<svg
   width="1000"
   height="1000"
   viewBox="0 0 1000 1000"
   version="1.1"
   id="svg1"
   xml:space="preserve"
   sodipodi:docname="Kirin.svg"
   inkscape:version="1.4.2 (f4327f4, 2025-05-13)"
   xmlns:inkscape="http://www.inkscape.org/namespaces/inkscape"
   xmlns:sodipodi="http://sodipodi.sourceforge.net/DTD/sodipodi-0.dtd"
   xmlns="http://www.w3.org/2000/svg"
   xmlns:svg="http://www.w3.org/2000/svg"><sodipodi:namedview
     id="namedview1"
     pagecolor="#ffffff"
     bordercolor="#000000"
     borderopacity="0.25"
     inkscape:showpageshadow="2"
     inkscape:pageopacity="0.0"
     inkscape:pagecheckerboard="0"
     inkscape:deskcolor="#d1d1d1"
     inkscape:zoom="1.0931871"
     inkscape:cx="687.43951"
     inkscape:cy="637.1279"
     inkscape:window-width="1920"
     inkscape:window-height="991"
     inkscape:window-x="-9"
     inkscape:window-y="-9"
     inkscape:window-maximized="1"
     inkscape:current-layer="svg1" /><defs
     id="defs1" /><g
     id="g21"
     data-layer="200"><path
       style="opacity:1;fill:#00ff28;fill-opacity:1;fill-rule:evenodd;stroke:none;stroke-width:5;stroke-linecap:round;stroke-miterlimit:100;stroke-dasharray:none;stroke-opacity:1"
       d="m 675.61449,427.8784 c 0,0 63.56996,18.47827 81.17723,104.46313 16.60071,81.06933 -55.04258,134.47607 -64.68304,151.19663 -12.93157,22.4287 -4.52782,56.43597 -4.52782,56.43597 0,0 -11.37125,-6.49034 -19.92924,-21.33316 -5.89177,-10.21857 -6.93848,-16.48417 -7.23765,-26.85571 -15.4482,-9.285 -26.75031,-28.03961 -20.69857,-56.59768 8.05832,-38.02707 47.21863,-44.6313 47.21863,-44.6313 0,0 -8.2017,-4.80913 -10.34243,-9.81339 -2.12704,-4.97228 -1.94735,-14.11934 -1.94735,-14.11934 0,0 41.55657,29.91073 40.75032,-30.40104 -0.43288,-32.38139 -22.63907,-50.45278 -22.63907,-50.45278 0,0 -0.98942,7.94155 0.70082,13.93493 1.92871,6.83896 6.41432,13.87878 6.41432,13.87878 0,0 -9.23888,-0.51076 -17.12119,-4.24552 -9.12278,-4.3225 -14.57351,-11.92524 -14.57351,-11.92524 0,0 -1.14983,51.87621 -20.69858,56.92109 -15.74133,4.06231 -26.52005,-23.2859 -26.52005,-23.2859 0,0 -1.89815,13.77716 -4.86785,19.94144 -4.09565,8.50145 -13.47209,17.22159 -13.47209,17.22159 0,0 5.15993,-18.19023 4.00135,-33.40717 -0.45751,-6.00901 -1.83217,-17.98613 -1.83217,-17.98613 l 22.63907,-68.56404 26.75536,-20.09034 z"
       id="path21"
       sodipodi:nodetypes="csscscscscscscscscscscccc"
       color="tail-main" /><path
       d="m 740.64648,486.67383 c 1.47257,25.75298 2.63695,72.58375 -6.55468,92.36719 -14.19695,30.55652 -49.16964,47.97306 -64.03321,78.21093 -4.2624,8.67128 -7.77792,21.44416 -10.50586,34.00196 0.28568,0.1801 0.57268,0.35775 0.86133,0.53125 0.29917,10.37154 1.34651,16.63689 7.23828,26.85546 8.55799,14.84282 19.92774,21.33399 19.92774,21.33399 0,0 -8.40227,-34.00685 4.52929,-56.43555 9.64046,-16.72056 81.28236,-70.12793 64.68165,-151.19726 -3.69506,-18.04476 -9.41333,-33.1162 -16.14454,-45.66797 z"
       style="opacity:1;fill:#ff5700;fill-rule:evenodd;stroke:none;stroke-width:3;stroke-linecap:round;stroke-miterlimit:100;stroke-dasharray:none;fill-opacity:1"
       id="path24"
       color="tail-hl-2" /><path
       d="m 721.39844,459.2832 c 5.27805,30.50225 12.49042,89.17588 -4.01758,116.13086 -23.18237,37.85321 -40.44749,26.88702 -59.24609,38.23633 -4.61415,2.78571 -10.83342,8.70131 -16.52344,14.66016 -0.74566,2.16991 -1.38419,4.45941 -1.89649,6.87695 -5.93866,28.02445 4.83492,46.60751 19.83789,56.06641 4.0216,20.43056 23.60174,52.0788 21.50198,42.64746 -4.17976,-18.77393 -16.67843,-42.65611 -2.18955,-76.76317 3.97094,-9.34766 14.39975,-18.2982 22.3419,-28.87193 14.7453,-19.63105 28.83299,-40.50456 32.88474,-49.22525 9.19164,-19.78344 8.02725,-66.61421 6.55468,-92.36719 -5.87036,-10.94657 -12.50992,-19.9767 -19.24804,-27.39063 z"
       style="opacity:1;fill:#edff00;fill-opacity:1;fill-rule:evenodd;stroke:none;stroke-width:3;stroke-linecap:round;stroke-miterlimit:100"
       id="path23"
       sodipodi:nodetypes="csscscsssscc"
       color="tail-hl-1" /><path
       d="m 684.13229,736.85546 c -7.94477,-15.79195 -16.52155,-54.97429 -6.95856,-74.42887 9.56298,-19.45457 42.72112,-52.82905 56.91807,-83.38557 9.19163,-19.78344 8.02725,-66.61421 6.55468,-92.36719 -5.87036,-10.94657 -12.50992,-19.9767 -19.24804,-27.39063 5.27805,30.50225 12.49042,89.17588 -4.01758,116.13086 -23.18237,37.85321 -40.44749,26.88702 -59.24609,38.23633 -4.61415,2.78571 -10.83342,8.70131 -16.52344,14.66016 -0.74566,2.16991 -1.38419,4.45941 -1.89649,6.87695"
       style="opacity:1;fill:none;fill-rule:evenodd;stroke:#000000;stroke-width:3;stroke-linecap:round;stroke-miterlimit:100"
       id="path25"
       sodipodi:nodetypes="czsccsscc"
       color="tail-contour" /><path
       style="opacity:1;fill:none;fill-opacity:1;fill-rule:evenodd;stroke:#000000;stroke-width:5;stroke-linecap:round;stroke-miterlimit:100;stroke-dasharray:none;stroke-opacity:1"
       d="m 675.61449,427.8784 c 0,0 63.56996,18.47827 81.17723,104.46313 16.60071,81.06933 -55.04258,134.47607 -64.68304,151.19663 -12.93157,22.4287 -4.52782,56.43597 -4.52782,56.43597 0,0 -11.37125,-6.49034 -19.92924,-21.33316 -5.89177,-10.21857 -6.93848,-16.48417 -7.23765,-26.85571 -15.4482,-9.285 -26.75031,-28.03961 -20.69857,-56.59768 8.05832,-38.02707 47.21863,-44.6313 47.21863,-44.6313 0,0 -8.2017,-4.80913 -10.34243,-9.81339 -2.12704,-4.97228 -1.94735,-14.11934 -1.94735,-14.11934 0,0 41.55657,29.91073 40.75032,-30.40104 -0.43288,-32.38139 -22.63907,-50.45278 -22.63907,-50.45278 0,0 -0.98942,7.94155 0.70082,13.93493 1.92871,6.83896 6.41432,13.87878 6.41432,13.87878 0,0 -9.23888,-0.51076 -17.12119,-4.24552 -9.12278,-4.3225 -14.57351,-11.92524 -14.57351,-11.92524 0,0 -1.14983,51.87621 -20.69858,56.92109 -15.74133,4.06231 -26.52005,-23.2859 -26.52005,-23.2859 0,0 -1.89815,13.77716 -4.86785,19.94144 -4.09565,8.50145 -13.47209,17.22159 -13.47209,17.22159 0,0 5.15993,-18.19023 4.00135,-33.40717 -0.45751,-6.00901 -1.83217,-17.98613 -1.83217,-17.98613 l 22.63907,-68.56404 26.75536,-20.09034 z"
       id="path27"
       sodipodi:nodetypes="csscscscscscscscscscscccc"
       color="tail-contour" /><path
       style="opacity:1;fill:none;fill-opacity:1;fill-rule:evenodd;stroke:#000000;stroke-width:3;stroke-linecap:round;stroke-miterlimit:100;stroke-dasharray:none;stroke-opacity:1"
       d="m 669.56502,638.71026 c 0,0 1.41257,-2.40229 1.78565,-3.3347 -0.63099,0.72977 -4.35741,8.03537 -7.21733,18.011 -3.89238,13.57692 -2.72208,39.38617 -2.72208,39.38617"
       id="path28"
       sodipodi:nodetypes="ccsc"
       color="tail-contour" /><path
       style="opacity:1;fill:none;fill-opacity:1;fill-rule:evenodd;stroke:#000000;stroke-width:2.22712;stroke-linecap:round;stroke-miterlimit:100;stroke-dasharray:none;stroke-opacity:1"
       d="m 654.74567,643.32217 c 0,0 1.04866,-1.78339 1.32562,-2.47559 -0.46843,0.54176 -3.23483,5.96525 -5.35795,13.37089 -2.8896,10.07914 -2.0208,29.23924 -2.0208,29.23924"
       id="path29"
       sodipodi:nodetypes="ccsc"
       color="tail-contour" /><path
       style="opacity:1;fill:none;fill-opacity:1;fill-rule:evenodd;stroke:#000000;stroke-width:2.22712;stroke-linecap:round;stroke-miterlimit:100;stroke-dasharray:none;stroke-opacity:1"
       d="m 653.89963,500.69604 c 0,0 -1.04866,-1.78339 -1.32562,-2.47559 0.46843,0.54176 3.23483,5.96525 5.35795,13.37089 2.8896,10.07914 2.0208,29.23924 2.0208,29.23924"
       id="path30"
       sodipodi:nodetypes="ccsc"
       color="tail-contour" /><path
       style="opacity:1;fill:none;fill-opacity:1;fill-rule:evenodd;stroke:#000000;stroke-width:2.48918;stroke-linecap:round;stroke-miterlimit:100;stroke-dasharray:none;stroke-opacity:1"
       d="m 638.45898,509.41882 c 0,0 -1.41173,-1.83131 -1.81545,-2.56025 0.59505,0.5354 4.41957,6.16359 7.80734,14.07959 4.6108,10.77375 6.321,32.14201 6.321,32.14201"
       id="path31"
       sodipodi:nodetypes="ccsc"
       color="tail-contour" /></g><g
     id="g19"
     transform="translate(9.0556274,-3.2341527)"
     data-layer="200"><path
       style="opacity:1;fill:#00ff28;fill-opacity:1;fill-rule:evenodd;stroke:none;stroke-width:5;stroke-linecap:round;stroke-miterlimit:100;stroke-dasharray:none;stroke-opacity:1"
       d="m 558.20801,538.1305 c -0.75687,1.211 12.55609,-7.45505 28.19935,-29.89769 14.93077,-21.42046 18.68381,-61.15801 42.12247,-74.84962 17.50131,-10.22333 37.94941,-2.40461 37.94941,-2.40461 0,0 -15.5056,1.17785 -30.30516,12.70792 -15.89655,12.38472 -24.71329,45.82756 -35.887,69.07456 -13.05342,27.15774 -32.91246,47.17223 -32.91246,47.17223 z"
       id="path19"
       sodipodi:nodetypes="csscsscc"
       color="coat" /><path
       style="opacity:1;fill:none;fill-rule:evenodd;stroke:#000000;stroke-width:5;stroke-linecap:round;stroke-miterlimit:100;stroke-dasharray:none;stroke-opacity:1"
       d="m 555.46375,539.04525 c -0.75687,1.211 15.30035,-8.3698 30.94361,-30.81244 14.93077,-21.42046 18.68381,-61.15801 42.12247,-74.84962 17.50131,-10.22333 37.94941,-2.40461 37.94941,-2.40461 0,0 -15.5056,1.17785 -30.30516,12.70792 -15.89655,12.38472 -24.71329,45.82756 -35.887,69.07456 -13.05342,27.15774 -33.82721,48.08698 -33.82721,48.08698 z"
       id="path20"
       sodipodi:nodetypes="csscsscc"
       color="coat-contour" /></g></svg>
