<?xml version="1.0" encoding="UTF-8" standalone="no"?>
<!-- Created with Inkscape (http://www.inkscape.org/) -->

<svg
   width="1000"
   height="1000"
   viewBox="0 0 1000 1000"
   version="1.1"
   id="svg1"
   xml:space="preserve"
   sodipodi:docname="Umbrum.svg"
   inkscape:version="1.4.2 (f4327f4, 2025-05-13)"
   xmlns:inkscape="http://www.inkscape.org/namespaces/inkscape"
   xmlns:sodipodi="http://sodipodi.sourceforge.net/DTD/sodipodi-0.dtd"
   xmlns="http://www.w3.org/2000/svg"
   xmlns:svg="http://www.w3.org/2000/svg"><sodipodi:namedview
     id="namedview1"
     pagecolor="#ffffff"
     bordercolor="#000000"
     borderopacity="0.25"
     inkscape:showpageshadow="2"
     inkscape:pageopacity="0.0"
     inkscape:pagecheckerboard="0"
     inkscape:deskcolor="#d1d1d1"
     inkscape:zoom="2.1863742"
     inkscape:cx="719.91337"
     inkscape:cy="640.10087"
     inkscape:window-width="1920"
     inkscape:window-height="991"
     inkscape:window-x="-9"
     inkscape:window-y="-9"
     inkscape:window-maximized="1"
     inkscape:current-layer="g18" /><defs
     id="defs1" /><g
     id="g18"
     data-layer="200"><path
       style="opacity:1;fill:#8aed95;fill-rule:evenodd;stroke:#000000;stroke-width:5;stroke-linecap:round;stroke-miterlimit:100;stroke-opacity:1;fill-opacity:1"
       d="m 547.21863,521.99224 c 0,0 71.26165,-75.75899 106.72703,-56.92109 8.19672,4.3538 -14.36161,19.46715 -7.11513,22.63907 30.13039,13.18866 84.37235,12.47401 92.49676,45.92497 4.04064,16.63666 -30.2546,26.76535 -23.93272,41.39715 6.37927,14.76464 54.72616,26.24553 58.21474,52.39328 1.31899,9.88612 -20.16118,-2.8004 -31.37425,2.67666 -11.61487,5.67332 -15.17848,29.89152 9.38201,63.30005 24.15857,32.8618 54.20247,-2.85907 45.27814,-16.17076 -11.48541,-17.13185 -5.79341,14.94338 -20.05174,11.31953 -12.30104,-3.1264 -20.24415,-28.27086 4.52781,-31.04786 44.78663,-5.02071 79.5217,85.78959 56.27425,121.28072 -43.00793,65.65882 -116.803,-4.29324 -137.08883,1.14008 -7.32044,1.96069 -6.86063,6.93612 -2.46815,10.17658 2.45674,1.81242 7.99116,0.88561 10.28204,2.41495 2.388,1.59419 2.69752,5.06765 -1.08102,8.20514 -22.81451,18.94392 -65.64579,-10.72478 -74.68931,-45.22265 -10.81909,-41.27101 0.93964,-45.66918 -5.17465,-71.47477 -6.75817,-28.52318 -37.45943,-40.04855 -34.88288,-67.15545 2.3025,-24.22363 53.45891,-41.65594 34.67997,-64.52053 -16.47388,-20.05802 -76.76992,-1.89453 -76.76992,-1.89453 z"
       id="path18"
       sodipodi:nodetypes="cssssssssssssssssssscc"
       color="tail-main" /><path
       d="m 839.15234,776.26172 c -13.71036,6.48009 -33.61551,13.46052 -50.66601,9.96094 -33.24386,-6.82324 -72.85889,-54.04588 -106.4043,-59.18555 -22.34168,-3.42309 6.00756,48.2512 -9.70117,50.12891 -4.60268,0.55017 -13.02677,-18.25193 -22.24805,-32.02149 -7.94169,-11.85885 -16.19564,-19.90035 -22.25586,-25.51367 -0.33732,8.48941 0.34175,19.15557 4.72266,35.86719 9.04352,34.49787 51.87494,64.16657 74.68945,45.22265 3.77854,-3.13749 3.47003,-6.61088 1.08203,-8.20508 -2.29088,-1.52933 -7.82646,-0.60164 -10.2832,-2.41406 -4.39248,-3.24046 -4.85169,-8.21704 2.46875,-10.17773 20.28583,-5.43332 94.08191,64.51819 137.08984,-1.14063 0.5322,-0.81248 1.03387,-1.65283 1.50586,-2.52148 z"
       style="opacity:1;fill:#ede58a;fill-rule:evenodd;stroke:none;stroke-width:5;stroke-linecap:round;stroke-miterlimit:100;fill-opacity:1"
       id="path28"
       color="tail-hl-1" /><path
       d="m 618.34766,664.71289 c 0.49827,-1.95901 0.85088,-3.75759 0.94336,-5.17383 0.81992,-12.5574 -11.89105,-27.73865 -10.52149,-40.24804 2.10976,-19.27027 16.7228,-22.57404 17.83789,-29.73047 0.49555,-3.18031 -1.1745,-7.75069 -2.93359,-11.46875 -10.91616,12.23917 -29.75433,24.29349 -31.13086,38.77539 -1.90911,20.08496 14.45098,31.6166 25.80469,47.8457 z"
       style="opacity:1;fill:#ede58a;fill-rule:evenodd;stroke:none;stroke-width:5;stroke-linecap:round;stroke-miterlimit:100;fill-opacity:1"
       id="path26"
       color="tail-hl-2" /><path
       d="m 639.17773,462.10937 c -37.39895,1.88083 -91.95898,59.88282 -91.95898,59.88282 l 0.74805,6.58984 c 19.86126,-18.50189 48.42469,-42.23873 63.08984,-41.01758 6.94421,0.57824 -1.32134,15.31544 3.20313,20.58203 19.48099,22.67638 87.24487,0.54538 84.15625,30.1875 -1.73847,16.68436 -40.18782,19.03207 -44.35547,4.75782 -1.38279,-4.73607 3.63019,-7.02386 15.67968,-5.7793 -8.64479,-7.1918 -27.3478,-9.73648 -31.48828,2.75391 -5.57198,16.80873 23.4136,28.42921 42.69727,34.80273 15.97308,5.27933 29.44114,6.91515 40.11523,6.85938 -2.68273,-2.19798 -4.68095,-4.40638 -5.66992,-6.69532 -6.32188,-14.6318 27.97424,-24.76177 23.93359,-41.39843 -8.1244,-33.45096 -62.36765,-32.73517 -92.49804,-45.92383 -7.24648,-3.17192 15.31195,-18.28683 7.11523,-22.64063 -4.43317,-2.35474 -9.42487,-3.22962 -14.76758,-2.96094 z"
       style="opacity:1;fill:#ede58a;fill-rule:evenodd;stroke:none;stroke-width:5;stroke-linecap:round;stroke-miterlimit:100;fill-opacity:1"
       id="path25"
       color="tail-hl-1" /><path
       d="m 773.42187,626.25781 c -15.46604,-8.85121 -84.6473,-45.90286 -111.71484,-16.94336 -27.66636,29.60019 16.69895,103.22137 66.30078,99.01758 19.78712,-1.67697 4.0219,-34.08606 -11.16015,-48.8457 -11.39486,-11.07782 -18.70313,-0.26758 -18.70313,-0.26758 0,0 8.96434,0.59644 15.23828,6.96875 7.31594,7.43064 13.15962,23.7226 6.13281,24.76172 -22.80849,3.37291 -51.64875,-42.07922 -34.19921,-59.9668 10.0843,-10.33745 32.81925,2.55202 48.21875,13.4668 0.92514,-7.19209 4.21049,-12.15513 8.69921,-14.34766 11.21307,-5.47706 32.69399,7.21034 31.375,-2.67578 -0.0524,-0.3928 -0.11514,-0.78173 -0.1875,-1.16797 z"
       style="opacity:1;fill:#ede58a;fill-rule:evenodd;stroke:none;stroke-width:3;stroke-linecap:round;stroke-miterlimit:100;fill-opacity:1"
       id="path27"
       color="tail-hl-2" /><path
       d="m 770.43359,706.66016 c 6.112,8.46358 16.6609,19.03141 30.08789,16.52929 24.22399,-4.51413 27.60961,-22.44525 26.68946,-35.40625 -11.62978,-18.97355 -27.93139,-32.28688 -45.83985,-30.27929 -24.77196,2.777 -16.82838,27.92047 -4.52734,31.04687 14.25833,3.62385 8.56537,-28.45021 20.05078,-11.31836 6.65708,9.92983 -8.36874,32.32759 -26.46094,29.42774 z"
       style="opacity:1;fill:#ede58a;fill-rule:evenodd;stroke:none;stroke-width:3;stroke-linecap:round;stroke-miterlimit:100;fill-opacity:1"
       id="path29"
       color="tail-hl-1" /><path
       style="opacity:1;fill:none;fill-rule:evenodd;stroke:#000000;stroke-width:5;stroke-linecap:round;stroke-miterlimit:100;stroke-opacity:1"
       d="m 547.21863,521.99224 c 0,0 71.26165,-75.75899 106.72703,-56.92109 8.19672,4.3538 -14.36161,19.46715 -7.11513,22.63907 30.13039,13.18866 84.37235,12.47401 92.49676,45.92497 4.04064,16.63666 -30.2546,26.76535 -23.93272,41.39715 6.37927,14.76464 54.72616,26.24553 58.21474,52.39328 1.31899,9.88612 -20.16118,-2.8004 -31.37425,2.67666 -11.61487,5.67332 -15.17848,29.89152 9.38201,63.30005 24.15857,32.8618 54.20247,-2.85907 45.27814,-16.17076 -11.48541,-17.13185 -5.79341,14.94338 -20.05174,11.31953 -12.30104,-3.1264 -20.24415,-28.27086 4.52781,-31.04786 44.78663,-5.02071 79.5217,85.78959 56.27425,121.28072 -43.00793,65.65882 -116.803,-4.29324 -137.08883,1.14008 -7.32044,1.96069 -6.86063,6.93612 -2.46815,10.17658 2.45674,1.81242 7.99116,0.88561 10.28204,2.41495 2.388,1.59419 2.69752,5.06765 -1.08102,8.20514 -22.81451,18.94392 -65.64579,-10.72478 -74.68931,-45.22265 -10.81909,-41.27101 0.93964,-45.66918 -5.17465,-71.47477 -6.75817,-28.52318 -37.45943,-40.04855 -34.88288,-67.15545 2.3025,-24.22363 53.45891,-41.65594 34.67997,-64.52053 -16.47388,-20.05802 -76.76992,-1.89453 -76.76992,-1.89453 z"
       id="path24"
       sodipodi:nodetypes="cssssssssssssssssssscc"
       color="tail-contour" /></g></svg>
