<?xml version="1.0" encoding="UTF-8" standalone="no"?>
<!-- Created with Inkscape (http://www.inkscape.org/) -->

<svg
   width="1000"
   height="1000"
   viewBox="0 0 1000 1000"
   version="1.1"
   id="svg1"
   xml:space="preserve"
   xmlns="http://www.w3.org/2000/svg"
   xmlns:svg="http://www.w3.org/2000/svg"><defs
     id="defs1" /><g
     id="g18"
     data-layer="200"><path
       style="fill:#ff8200;fill-rule:evenodd;stroke:none;stroke-width:5;stroke-linecap:round;stroke-dasharray:none;stroke-opacity:1"
       d="m 758.56184,757.1897 c 0,0 30.82031,-22.7302 48.93946,-27.21401 16.57961,-4.10282 49.59481,-2.94645 53.39892,2.74427 -12.95581,1.59185 -21.41426,0.5209 -31.21607,9.94798 102.74223,-18.16597 135.40851,37.45681 138.35693,43.33659 -35.93564,-17.15292 -78.81547,-19.44267 -89.18877,-17.15168 5.24675,3.56337 16.35895,2.67968 34.07469,39.10584 -27.04878,-8.83945 -36.27249,-17.43402 -62.21157,-20.76271 -0.74733,7.10863 -1.33975,13.37238 -4.36448,22.03569 -25.78116,-35.14904 -48.8395,-31.66395 -75.21121,-34.89028 z"
       id="path19"
       color="tail-main" /><path
       style="fill:none;fill-rule:evenodd;stroke:#000000;stroke-width:5;stroke-linecap:round;stroke-dasharray:none;stroke-opacity:1"
       d="m 758.56184,757.1897 c 0,0 30.82031,-22.7302 48.93946,-27.21401 16.57961,-4.10282 49.59481,-2.94645 53.39892,2.74427 -12.95581,1.59185 -21.41426,0.5209 -31.21607,9.94798 102.74223,-18.16597 135.40851,37.45681 138.35693,43.33659 -35.93564,-17.15292 -78.81547,-19.44267 -89.18877,-17.15168 5.24675,3.56337 16.35895,2.67968 34.07469,39.10584 -27.04878,-8.83945 -36.27249,-17.43402 -62.21157,-20.76271 -0.74733,7.10863 -1.33975,13.37238 -4.36448,22.03569 -25.78116,-35.14904 -48.8395,-31.66395 -75.21121,-34.89028 z"
       id="path20"
       color="tail-contour" /><path
       style="fill:#ff8200;fill-rule:evenodd;stroke:none;stroke-width:5;stroke-linecap:round;stroke-dasharray:none;stroke-opacity:1"
       d="m 547.02439,523.24072 c 0,0 73.04965,-0.3306 100.62322,22.41154 41.17375,33.95932 15.701,138.93412 44.36569,178.83489 14.20416,19.77195 47.20131,25.67143 68.8559,26.67072 21.71897,1.00227 7.52626,13.80726 7.52626,13.80726 0,0 9.19836,1.31405 15.37057,2.84622 8.21591,2.03949 13.56329,10.69692 6.58359,12.01857 -30.85042,5.84174 -83.2206,-7.06827 -108.39865,-33.84599 -45.14322,-48.01136 -17.3075,-154.0672 -43.45093,-185.69557 -18.0265,-21.8085 -89.64613,-24.24105 -89.64613,-24.24105 z"
       id="path18"
       color="coat" /><path
       style="fill:none;fill-rule:evenodd;stroke:#000000;stroke-width:5;stroke-linecap:round;stroke-dasharray:none;stroke-opacity:1"
       d="m 547.02439,523.24072 c 0,0 73.04965,-0.3306 100.62322,22.41154 41.17375,33.95932 15.701,138.93412 44.36569,178.83489 14.20416,19.77195 47.20131,25.67143 68.8559,26.67072 21.71897,1.00227 7.52626,13.80726 7.52626,13.80726 0,0 9.19836,1.31405 15.37057,2.84622 8.21591,2.03949 13.56329,10.69692 6.58359,12.01857 -30.85042,5.84174 -83.2206,-7.06827 -108.39865,-33.84599 -45.14322,-48.01136 -17.3075,-154.0672 -43.45093,-185.69557 -18.0265,-21.8085 -89.64613,-24.24105 -89.64613,-24.24105 z"
       id="path21"
       color="coat-contour" /></g></svg>
