<?xml version="1.0" encoding="UTF-8" standalone="no"?>
<!-- Created with Inkscape (http://www.inkscape.org/) -->

<svg
   width="1000"
   height="1000"
   viewBox="0 0 1000 1000"
   version="1.1"
   id="svg1"
   xml:space="preserve"
   xmlns="http://www.w3.org/2000/svg"
   xmlns:svg="http://www.w3.org/2000/svg"><defs
     id="defs1" /><g
     id="g80"
     style="display:inline"
     data-layer="200"><path
       style="display:inline;fill:#4bc7e1;fill-opacity:1;stroke:none;stroke-width:4;stroke-dasharray:none;stroke-opacity:1"
       d="m 547.00374,512.1183 c 16.20907,-23.2973 32.84718,-41.58967 44.65336,-46.04879 27.97388,-10.56557 56.60741,-6.99834 76.74798,16.04731 46.88904,53.65232 31.41394,92.30344 57.90983,124.88988 19.47648,23.9535 39.97205,38.77117 62.7938,42.56024 -1.99615,27.37227 -14.2549,37.64021 -27.21065,46.74649 -28.44093,-18.608 -57.07886,-31.10932 -83.72506,-105.35403 23.80406,71.04564 42.93184,105.85009 59.30525,119.30821 -26.79796,25.23019 -65.02456,24.33777 -104.65632,20.23356 -13.18895,-28.21595 -26.61791,-56.83293 -23.7221,-88.60903 2.74367,-30.10673 17.89994,-47.17116 12.55876,-93.49298 -5.66275,-49.11069 -35.73976,-45.57054 -60.00297,-14.65189 z"
       id="path73"
       color="tail-main" /><path
       d="m 649.68945,731.99609 c -5.9641,-15.60323 -12.80132,-19.23343 -19.96875,-63.00976 -3.9617,-24.19679 -0.21345,-49.07336 1.98828,-85.48828 2.41483,-39.93933 -10.3573,-52.75652 -16.73632,-59.62891 3.14795,5.9337 5.47467,14.02789 6.68554,24.5293 5.34118,46.32182 -9.81492,63.38741 -12.55859,93.49414 -2.89581,31.7761 10.53371,60.39342 23.72266,88.60937 5.66114,0.58626 11.2926,1.10573 16.86718,1.49414 z"
       style="display:inline;fill:#4be14c;fill-opacity:1;stroke-width:4"
       id="path20"
       color="tail-hl-2" /><g
       id="g18"><path
         d="m 597.11914,510.93555 c 5.15403,-3.78302 11.96536,-7.43359 10.28516,-14.74805 -0.99105,-4.31434 -5.00021,-9.06167 -12.95703,-9.88477 8.12356,-3.49156 13.20275,-3.00763 14.65234,-9.76757 0.97086,-4.52748 -2.03914,-7.63424 -13.47461,-11.86719 -1.32378,0.43556 -2.64695,0.90311 -3.96875,1.40234 -11.80618,4.45912 -28.44327,22.75153 -44.65234,46.04883 l 14.65234,21.62891 c 11.59316,-14.77319 24.51253,-23.29719 35.46289,-22.8125 z"
         style="display:inline;fill:#c1e14b;fill-opacity:1;stroke-width:4"
         id="path18"
         color="coat" /><path
         style="display:inline;fill:#328f3e;fill-opacity:1;stroke:none;stroke-width:4;stroke-dasharray:none;stroke-opacity:1"
         d="m 555.16899,499.50298 c 13.37932,2.38427 23.2818,6.79668 20.87475,18.38966 l 14.41352,-5.46719 c -2.44355,-12.28055 -5.53757,-24.23586 -18.38966,-31.31213 z"
         id="path80"
         color="detail-1" /></g><path
       style="display:inline;fill:#328f3e;fill-opacity:1;stroke:none;stroke-width:4;stroke-dasharray:none;stroke-opacity:1"
       d="m 595.42744,485.08946 c 11.30792,-6.37992 19.99458,-7.51734 27.33598,-5.96421 32.06375,10.14149 44.02777,24.04202 49.70179,40.75547 21.18207,62.39415 30.63876,100.1388 47.2167,119.28429 38.10302,44.00432 50.3522,35.48197 64.11531,35.28827 -4.24026,7.78661 -12.80882,15.57323 -20.87475,23.35984 -23.47243,-14.79618 -46.81807,-26.54954 -71.57058,-72.06759 14.50601,46.76546 28.94825,65.04891 44.73161,84.99005 -4.65491,8.93025 -12.48818,11.70003 -22.36581,15.40756 -16.61723,-11.44982 -33.34697,-30.73029 -52.68389,-70.57653 -15.65797,-32.26529 -7.67829,-116.46514 -12.92247,-125.24852 -5.47029,-9.1621 -3.6784,-25.83853 -38.7674,-33.30019 -2.39317,-6.22181 -7.56226,-9.6677 -13.91649,-11.92844 z"
       id="path79"
       color="tail-hl-1" /><path
       style="display:inline;fill:none;fill-opacity:1;stroke:#1d7fbf;stroke-width:4;stroke-dasharray:none;stroke-opacity:1"
       d="m 609.34394,478.62823 c 50.13639,1.11024 60.16679,33.64947 70.57654,66.10338 13.26792,41.36466 24.24832,76.53065 42.74354,97.91253 19.63405,22.69845 41.94672,34.18637 59.64214,33.79721"
       id="path76"
       color="tail-contour" /><path
       style="display:inline;fill:none;fill-opacity:1;stroke:#1d7fbf;stroke-width:4;stroke-dasharray:none;stroke-opacity:1"
       d="m 606.85885,496.02386 c 30.63303,6.70318 44.05844,29.57199 44.73161,54.17495 1.07668,39.35019 -4.91327,75.42695 8.94632,107.35586 17.56216,40.4587 38.55492,57.34799 51.68986,67.59444"
       id="path77"
       color="tail-contour" /><path
       style="fill:none;fill-opacity:1;stroke:#1d7fbf;stroke-width:4;stroke-dasharray:none;stroke-opacity:1"
       d="m 612.44497,520.87475 c 4.30795,6.39275 22.07568,16.13404 19.26477,62.62426 -2.20173,36.41492 -5.94977,61.29028 -1.98807,85.48707 7.31595,44.68348 14.28757,47.5405 20.3381,63.99639"
       id="path78"
       color="tail-contour" /><path
       style="display:inline;fill:none;fill-opacity:1;stroke:#1d7fbf;stroke-width:5;stroke-dasharray:none;stroke-opacity:1"
       d="m 547.00374,512.1183 c 16.20907,-23.2973 32.84718,-41.58967 44.65336,-46.04879 27.97388,-10.56557 56.60741,-6.99834 76.74798,16.04731 46.88904,53.65232 31.41394,92.30344 57.90983,124.88988 19.47648,23.9535 39.97205,38.77117 62.7938,42.56024 -1.99615,27.37227 -14.2549,37.64021 -27.21065,46.74649 -27.56844,-18.03716 -55.32197,-30.33656 -81.26719,-98.69349 -0.82112,-2.16338 -1.39787,-5.35315 -2.45787,-6.66054 0.0819,1.68984 1.45307,4.31596 2.17309,6.42341 22.79953,66.7332 41.26,99.83868 57.13216,112.8848 -26.79796,25.23019 -65.02456,24.33777 -104.65632,20.23356 -13.18895,-28.21595 -26.61791,-56.83293 -23.7221,-88.60903 2.74367,-30.10673 17.89994,-47.17116 12.55876,-93.49298 -5.66275,-49.11069 -35.73976,-45.57054 -60.00297,-14.65189 z"
       id="path74"
       color="tail-contour" /><path
       d="m 597.11914,510.93555 c 5.15403,-3.78302 11.96536,-7.43359 10.28516,-14.74805 -0.99105,-4.31434 -5.00021,-9.06167 -12.95703,-9.88477 8.12356,-3.49156 13.20275,-3.00763 14.65234,-9.76757 0.97086,-4.52748 -2.03914,-7.63424 -13.47461,-11.86719 -1.32378,0.43556 -2.64695,0.90311 -3.96875,1.40234 -11.80618,4.45912 -28.44327,22.75153 -44.65234,46.04883 l 14.65234,21.62891 c 11.59316,-14.77319 24.51253,-23.29719 35.46289,-22.8125 z"
       style="display:inline;fill:none;stroke:#1dbf27;stroke-width:5;stroke-opacity:1"
       id="path19"
       color="coat-contour" /></g></svg>
