<?xml version="1.0" encoding="UTF-8" standalone="no"?>
<!-- Created with Inkscape (http://www.inkscape.org/) -->

<svg
   width="1000"
   height="1000"
   viewBox="0 0 1000 1000"
   version="1.1"
   id="svg1"
   xml:space="preserve"
   xmlns="http://www.w3.org/2000/svg"
   xmlns:svg="http://www.w3.org/2000/svg"><defs
     id="defs1" /><g
     id="layer5"
     data-layer="200"><g
       id="g20"
       style="fill:none"><path
         style="fill:#39b4a5;fill-opacity:1;fill-rule:evenodd;stroke:none;stroke-width:5;stroke-linecap:round;stroke-dasharray:none"
         d="m 560.47866,540.75032 0.97024,25.54981 c 0,0 31.97545,17.26008 43.66106,32.01811 43.77954,55.29023 76.03012,108.49715 106.40362,113.84218 23.43639,4.12426 22.87,-12.74738 24.09444,-18.75809 14.62946,21.83578 40.33363,96.50403 91.36482,110.28461 17.846,4.81917 33.25938,-5.71725 34.82025,-13.04283 3.44652,-16.17552 9.16422,-47.75925 9.16422,-47.75925 L 843.79043,677.55498 769.72833,616.4295 668.49935,592.49677 591.84994,558.21475 Z"
         id="path20"
         color="gradient"
         data-grad="from:mane-main;to:mane-main;fromOpacity:0.6;toOpacity:0.4;range:50%-80%" /><path
         style="fill:none;fill-opacity:1;fill-rule:evenodd;stroke:#000000;stroke-width:5;stroke-linecap:round;stroke-dasharray:none"
         d="m 560.47866,540.75032 0.97024,25.54981 c 0,0 31.97545,17.26008 43.66106,32.01811 43.77954,55.29023 76.03012,108.49715 106.40362,113.84218 23.43639,4.12426 22.87,-12.74738 24.09444,-18.75809 14.62946,21.83578 40.33363,96.50403 91.36482,110.28461 17.846,4.81917 33.25938,-5.71725 34.82025,-13.04283 3.44652,-16.17552 9.16422,-47.75925 9.16422,-47.75925 L 843.79043,677.55498 769.72833,616.4295 668.49935,592.49677 591.84994,558.21475 Z"
         id="path21"
         color="mane-contour" /></g><g
       id="g22"
       style="fill:none;stroke:#000000;stroke-width:4;stroke-dasharray:none;stroke-opacity:1"><path
         style="fill:none;fill-opacity:1;fill-rule:evenodd;stroke:#000000;stroke-width:4;stroke-linecap:round;stroke-dasharray:none;stroke-opacity:1"
         d="m 608.99095,604.46313 c 0,0 2.69072,-6.29293 3.21494,-9.18691 1.24132,-6.85279 -0.30421,-19.92046 -0.30421,-19.92046 0,0 8.64172,16.85982 11.36998,26.14916 2.3628,8.04503 4.15396,25.59728 4.15396,25.59728"
         id="path23"
         color="mane-contour" /><path
         style="fill:none;fill-opacity:1;fill-rule:evenodd;stroke:#000000;stroke-width:4;stroke-linecap:round;stroke-dasharray:none;stroke-opacity:1"
         d="m 613.19534,576.326 c 0,0 41.43277,34.58559 64.03623,48.83571 45.01855,28.38147 80.39674,26.43727 114.489,77.61966 31.10755,46.70146 29.7542,98.64166 29.7542,98.64166"
         id="path22"
         color="mane-contour" /><path
         style="fill:none;fill-opacity:1;fill-rule:evenodd;stroke:#000000;stroke-width:4;stroke-linecap:round;stroke-dasharray:none;stroke-opacity:1"
         d="m 727.36093,709.57309 c 0,0 -35.31429,-26.20149 -48.4703,-43.45871 -13.48583,-17.68986 -30.44302,-61.65125 -30.44302,-61.65125 0,0 13.53389,36.22377 29.63887,52.19892 13.31693,13.20959 56.38959,37.38711 56.38959,37.38711"
         id="path24"
         color="mane-contour" /><path
         style="fill:none;fill-opacity:1;fill-rule:evenodd;stroke:#000000;stroke-width:4;stroke-linecap:round;stroke-dasharray:none;stroke-opacity:1"
         d="m 738.68047,654.91591 c 0,0 25.50763,-4.93604 47.54204,4.85123 38.03616,16.89495 61.26674,67.35958 63.71281,92.17336 1.71446,17.3921 0,49.48253 0,49.48253"
         id="path25"
         color="mane-contour" /><path
         style="fill:none;fill-opacity:1;fill-rule:evenodd;stroke:#000000;stroke-width:4;stroke-linecap:round;stroke-dasharray:none;stroke-opacity:1"
         d="m 777.81371,767.14101 c 0,0 -6.48868,-22.88147 -6.14489,-47.54204 0.19395,-13.91219 -1.29366,-41.72057 -1.29366,-41.72057"
         id="path26"
         color="mane-contour" /><path
         style="fill:none;fill-opacity:1;fill-rule:evenodd;stroke:#000000;stroke-width:4;stroke-linecap:round;stroke-dasharray:none;stroke-opacity:1"
         d="m 771.13633,654.87667 c 0,0 -1.20428,-6.87509 -0.76117,-14.51444 0.41228,-7.10783 2.37489,-13.22416 2.37489,-13.22416"
         id="path27"
         color="mane-contour" /></g><g
       id="g18"><path
         style="fill:#3cb439;fill-opacity:1;fill-rule:evenodd;stroke:#000000;stroke-width:3;stroke-linecap:round"
         d="m 558.86158,524.57956 c 0,0 46.33406,37.07045 73.09185,49.15912 41.03409,18.53843 115.84426,19.34279 153.94567,43.33765 48.80032,30.73264 86.39824,80.27715 89.90944,130.65977 1.45258,20.84316 -14.8771,45.27813 -14.8771,45.27813 0,0 5.88897,-32.32813 2.58731,-48.8357 -10.07216,-50.35875 -41.16507,-87.87286 -86.67528,-116.10608 -33.1947,-20.59303 -90.70439,-19.87581 -133.24709,-37.8396 -32.87228,-13.88042 -91.20311,-54.65717 -91.20311,-54.65717 z"
         id="path18"
         color="mane-main" /><path
         style="fill:none;fill-rule:evenodd;stroke:#000000;stroke-width:5;stroke-linecap:round;stroke-dasharray:none"
         d="m 558.86158,524.57956 c 0,0 46.33406,37.07045 73.09185,49.15912 41.03409,18.53843 115.84426,19.34279 153.94567,43.33765 48.80032,30.73264 86.39824,80.27715 89.90944,130.65977 1.45258,20.84316 -14.8771,45.27813 -14.8771,45.27813 0,0 5.88897,-32.32813 2.58731,-48.8357 -10.07216,-50.35875 -41.16507,-87.87286 -86.67528,-116.10608 -33.1947,-20.59303 -94.26196,-19.87581 -136.80466,-37.8396 -32.87228,-13.88042 -87.64554,-54.65717 -87.64554,-54.65717 z"
         id="path19"
         color="mane-contour" /></g><g
       id="g28"><ellipse
         style="fill:#7b39b4;fill-opacity:1;fill-rule:evenodd;stroke:none;stroke-width:4;stroke-linecap:round;stroke-dasharray:none;stroke-opacity:1"
         id="path28"
         cx="606.02618"
         cy="583.38599"
         rx="5.4885392"
         ry="5.25985"
         color="gradient"
         data-grad="from:#ffffff;to:#ffffff;fromOpacity:0.3;toOpacity:0.4;range:50%-80%" /><ellipse
         style="fill:#7b39b4;fill-opacity:1;fill-rule:evenodd;stroke:none;stroke-width:3.16667;stroke-linecap:round;stroke-dasharray:none;stroke-opacity:1"
         id="ellipse28"
         cx="774.11273"
         cy="649.52478"
         rx="4.3450937"
         ry="4.1640482"
         color="gradient"
         data-grad="from:#ffffff;to:#ffffff;fromOpacity:0.3;toOpacity:0.4;range:50%-80%" /><ellipse
         style="fill:#7b39b4;fill-opacity:1;fill-rule:evenodd;stroke:none;stroke-width:2.83333;stroke-linecap:round;stroke-dasharray:none;stroke-opacity:1"
         id="ellipse29"
         cx="712.36664"
         cy="634.45038"
         rx="3.8877153"
         ry="3.7257271"
         color="gradient"
         data-grad="from:#ffffff;to:#ffffff;fromOpacity:0.3;toOpacity:0.4;range:50%-80%" /><ellipse
         style="fill:#7b39b4;fill-opacity:1;fill-rule:evenodd;stroke:none;stroke-width:4.83333;stroke-linecap:round;stroke-dasharray:none;stroke-opacity:1"
         id="ellipse30"
         cx="815.27673"
         cy="766.51837"
         rx="6.6319847"
         ry="6.3556519"
         color="gradient"
         data-grad="from:#ffffff;to:#ffffff;fromOpacity:0.3;toOpacity:0.4;range:50%-80%" /><ellipse
         style="fill:#7b39b4;fill-opacity:1;fill-rule:evenodd;stroke:none;stroke-width:5.04348;stroke-linecap:round;stroke-dasharray:none;stroke-opacity:1"
         id="ellipse31"
         cx="845.29462"
         cy="739.35199"
         rx="6.920332"
         ry="6.6319847"
         color="gradient"
         data-grad="from:#ffffff;to:#ffffff;fromOpacity:0.3;toOpacity:0.4;range:50%-80%" /><ellipse
         style="fill:#7b39b4;fill-opacity:1;fill-rule:evenodd;stroke:none;stroke-width:3.13043;stroke-linecap:round;stroke-dasharray:none;stroke-opacity:1"
         id="ellipse32"
         cx="781.83838"
         cy="714.88226"
         rx="4.2953787"
         ry="4.1164045"
         color="gradient"
         data-grad="from:#ffffff;to:#ffffff;fromOpacity:0.3;toOpacity:0.4;range:50%-80%" /><ellipse
         style="fill:#7b39b4;fill-opacity:1;fill-rule:evenodd;stroke:none;stroke-width:2.6087;stroke-linecap:round;stroke-dasharray:none;stroke-opacity:1"
         id="ellipse33"
         cx="766.48639"
         cy="641.93036"
         rx="3.5794821"
         ry="3.430337"
         color="gradient"
         data-grad="from:#ffffff;to:#ffffff;fromOpacity:0.3;toOpacity:0.4;range:50%-80%" /><ellipse
         style="fill:#7b39b4;fill-opacity:1;fill-rule:evenodd;stroke:none;stroke-width:2.78261;stroke-linecap:round;stroke-dasharray:none;stroke-opacity:1"
         id="ellipse34"
         cx="665.18707"
         cy="656.33783"
         rx="3.8181143"
         ry="3.6590261"
         color="gradient"
         data-grad="from:#ffffff;to:#ffffff;fromOpacity:0.3;toOpacity:0.4;range:50%-80%" /><ellipse
         style="fill:#7b39b4;fill-opacity:1;fill-rule:evenodd;stroke:none;stroke-width:2;stroke-linecap:round;stroke-dasharray:none;stroke-opacity:1"
         id="ellipse35"
         cx="673.2608"
         cy="660.7973"
         rx="2.7442698"
         ry="2.6299253"
         color="gradient"
         data-grad="from:#ffffff;to:#ffffff;fromOpacity:0.3;toOpacity:0.4;range:50%-80%" /><ellipse
         style="fill:#7b39b4;fill-opacity:1;fill-rule:evenodd;stroke:none;stroke-width:3;stroke-linecap:round;stroke-dasharray:none;stroke-opacity:1"
         id="ellipse36"
         cx="772.5119"
         cy="720.65668"
         rx="4.1164045"
         ry="3.9448876"
         color="gradient"
         data-grad="from:#ffffff;to:#ffffff;fromOpacity:0.3;toOpacity:0.4;range:50%-80%" /><ellipse
         style="fill:#7b39b4;fill-opacity:1;fill-rule:evenodd;stroke:none;stroke-width:2.78261;stroke-linecap:round;stroke-dasharray:none;stroke-opacity:1"
         id="ellipse37"
         cx="762.60864"
         cy="658.62476"
         rx="3.8181143"
         ry="3.6590261"
         color="gradient"
         data-grad="from:#ffffff;to:#ffffff;fromOpacity:0.3;toOpacity:0.4;range:50%-80%" /></g></g></svg>
