<?xml version="1.0" encoding="UTF-8" standalone="no"?>
<!-- Created with Inkscape (http://www.inkscape.org/) -->

<svg
   width="1000"
   height="1000"
   viewBox="0 0 1000 1000"
   version="1.1"
   id="svg1"
   xml:space="preserve"
   xmlns="http://www.w3.org/2000/svg"
   xmlns:svg="http://www.w3.org/2000/svg"><defs
     id="defs1" /><g
     id="g18"
     data-layer="200"><path
       style="fill:#9c9c9c;fill-opacity:1;fill-rule:evenodd;stroke:none;stroke-width:4;stroke-linecap:round"
       d="m 552.39327,512.28978 c 0,0 70.38397,34.29193 107.2766,47.10485 37.20002,12.91968 96.73045,27.31004 114.32508,29.77604 -11.17436,5.01545 -28.47557,4.36788 -34.60822,18.12473 -4.20378,9.42998 10.30332,20.3062 10.30332,20.3062 0,0 -18.83602,-2.58982 -25.80033,2.18265 -8.19876,5.61842 -5.42352,23.39014 -5.42352,23.39014 0,0 -18.84236,-9.07925 -28.82739,-2.75261 -10.90882,6.91198 -7.76963,25.37542 -7.76963,25.37542 -46.09992,-41.80662 -73.66357,-80.84457 -108.09791,-130.98565 -5.34157,-7.77805 -15.8986,-24.661 -21.378,-32.52177 z"
       id="path18"
       color="mane-main" /><path
       style="fill:none;fill-opacity:1;fill-rule:evenodd;stroke:#000000;stroke-width:4;stroke-linecap:round;stroke-opacity:1"
       d="m 746.76585,626.45537 c 0,0 -56.89373,-24.5633 -84.42237,-38.74941 -38.91161,-20.05201 -112.86094,-66.36055 -112.86094,-66.36055 0,0 64.45709,64.34051 101.01083,91.20716 20.84696,15.32231 66.84169,39.45261 66.84169,39.45261"
       id="path20"
       color="mane-contour" /><path
       style="fill:none;fill-rule:evenodd;stroke:#000000;stroke-width:5;stroke-linecap:round;stroke-dasharray:none"
       d="m 552.39327,512.28978 c 0,0 70.38397,34.29193 107.2766,47.10485 37.20002,12.91968 96.73045,27.31004 114.32508,29.77604 -11.17436,5.01545 -28.47557,4.36788 -34.60822,18.12473 -4.20378,9.42998 10.30332,20.3062 10.30332,20.3062 0,0 -18.83602,-2.58982 -25.80033,2.18265 -8.19876,5.61842 -5.42352,23.39014 -5.42352,23.39014 0,0 -20.13602,-6.49193 -30.12105,-0.16529 -10.90882,6.91198 -6.47597,22.7881 -6.47597,22.7881 -46.09992,-41.80662 -73.66357,-80.84457 -108.09791,-130.98565 -5.34157,-7.77805 -15.8986,-24.661 -21.378,-32.52177 z"
       id="path19"
       color="mane-contour" /></g></svg>
