<?xml version="1.0" encoding="UTF-8" standalone="no"?>
<!-- Created with Inkscape (http://www.inkscape.org/) -->

<svg
   width="1000"
   height="1000"
   viewBox="0 0 1000 1000"
   version="1.1"
   id="svg1"
   xml:space="preserve"
   xmlns="http://www.w3.org/2000/svg"
   xmlns:svg="http://www.w3.org/2000/svg"><defs
     id="defs1" /><g
     id="g6"
     style="fill:none"
     data-layer="200"
     transform="matrix(0.60092665,-0.34556028,0.34556028,0.60092665,-13.888749,370.65527)"><path
       style="opacity:1;fill:#30a6b7;fill-opacity:1;fill-rule:evenodd;stroke:none;stroke-width:5;stroke-linecap:round;stroke-miterlimit:100;stroke-dasharray:none;stroke-opacity:1"
       d="m 454.39845,533.31177 c 0,0 15.20629,-35.73522 44.97446,-61.48926 17.13609,-14.82535 47.20389,-29.90076 60.1355,-27.77334 26.30706,4.32786 -19.52631,47.27366 -26.19664,54.65717 9.50044,-3.61261 50.55951,-34.31297 73.73869,-20.37516 19.56986,11.7675 -12.63768,34.36507 -42.54051,48.22856 -16.4398,7.62178 -32.49184,11.27985 -32.49184,11.27985 0,0 26.05558,7.86062 22.63907,18.43467 -9.26267,28.66777 -85.70504,7.11513 -85.70504,7.11513 z"
       id="path4"
       color="coat" /><path
       style="opacity:1;fill:none;fill-rule:evenodd;stroke:#000000;stroke-width:5;stroke-linecap:round;stroke-miterlimit:100;stroke-dasharray:none;stroke-opacity:1"
       d="m 454.39845,533.31177 c 0,0 15.20629,-35.73522 44.97446,-61.48926 17.13609,-14.82535 47.20389,-29.90076 60.1355,-27.77334 26.30706,4.32786 -14.02825,43.06926 -20.69858,50.45277 9.50044,-3.61261 45.06145,-30.10857 68.24063,-16.17076 19.56986,11.7675 -12.63768,34.36507 -42.54051,48.22856 -16.4398,7.62178 -32.49184,11.27985 -32.49184,11.27985 0,0 26.05558,7.86062 22.63907,18.43467 -9.26267,28.66777 -85.70504,7.11513 -85.70504,7.11513"
       id="path5"
       color="coat-contour" /><path
       style="opacity:1;fill:none;fill-opacity:1;fill-rule:evenodd;stroke:#000000;stroke-width:5;stroke-linecap:round;stroke-miterlimit:100;stroke-dasharray:none;stroke-opacity:1"
       d="m 455.36869,532.34153 c 0,0 27.0492,-35.58077 50.45279,-23.2859 30.42351,15.98272 -8.08539,39.78008 -8.08539,39.78008 0,0 12.50562,2.38194 9.70246,11.64295 -3.57959,11.82613 -19.15829,7.30626 -19.15829,7.30626"
       id="path6"
       color="coat-contour" /></g><g
     id="g1"
     style="display:inline;fill:none"
     data-layer="1000"><path
       style="opacity:1;fill:#30a6b7;fill-opacity:1;fill-rule:evenodd;stroke:none;stroke-width:5;stroke-linecap:round;stroke-miterlimit:100;stroke-dasharray:none;stroke-opacity:1"
       d="m 454.39845,533.31177 c 0,0 15.20629,-35.73522 44.97446,-61.48926 17.13609,-14.82535 47.20389,-29.90076 60.1355,-27.77334 26.30706,4.32786 -19.52631,47.27366 -26.19664,54.65717 9.50044,-3.61261 50.55951,-34.31297 73.73869,-20.37516 19.56986,11.7675 -12.63768,34.36507 -42.54051,48.22856 -16.4398,7.62178 -32.49184,11.27985 -32.49184,11.27985 0,0 26.05558,7.86062 22.63907,18.43467 -9.26267,28.66777 -85.70504,7.11513 -85.70504,7.11513 z"
       id="path1"
       color="coat" /><path
       style="opacity:1;fill:none;fill-rule:evenodd;stroke:#000000;stroke-width:5;stroke-linecap:round;stroke-miterlimit:100;stroke-dasharray:none;stroke-opacity:1"
       d="m 454.39845,533.31177 c 0,0 15.20629,-35.73522 44.97446,-61.48926 17.13609,-14.82535 47.20389,-29.90076 60.1355,-27.77334 26.30706,4.32786 -14.02825,43.06926 -20.69858,50.45277 9.50044,-3.61261 45.06145,-30.10857 68.24063,-16.17076 19.56986,11.7675 -12.63768,34.36507 -42.54051,48.22856 -16.4398,7.62178 -32.49184,11.27985 -32.49184,11.27985 0,0 26.05558,7.86062 22.63907,18.43467 -9.26267,28.66777 -85.70504,7.11513 -85.70504,7.11513"
       id="path2"
       color="coat-contour" /><path
       style="opacity:1;fill:none;fill-opacity:1;fill-rule:evenodd;stroke:#000000;stroke-width:5;stroke-linecap:round;stroke-miterlimit:100;stroke-dasharray:none;stroke-opacity:1"
       d="m 455.36869,532.34153 c 0,0 27.0492,-35.58077 50.45279,-23.2859 30.42351,15.98272 -8.08539,39.78008 -8.08539,39.78008 0,0 12.50562,2.38194 9.70246,11.64295 -3.57959,11.82613 -19.15829,7.30626 -19.15829,7.30626"
       id="path3"
       color="coat-contour" /></g></svg>
