<?xml version="1.0" encoding="UTF-8" standalone="no"?>
<!-- Created with Inkscape (http://www.inkscape.org/) -->

<svg
   width="1000"
   height="1000"
   viewBox="0 0 1000 1000"
   version="1.1"
   id="svg1"
   xml:space="preserve"
   sodipodi:docname="0013 Pegasi colsed.svg"
   inkscape:version="1.4.2 (f4327f4, 2025-05-13)"
   xmlns:inkscape="http://www.inkscape.org/namespaces/inkscape"
   xmlns:sodipodi="http://sodipodi.sourceforge.net/DTD/sodipodi-0.dtd"
   xmlns="http://www.w3.org/2000/svg"
   xmlns:svg="http://www.w3.org/2000/svg"><sodipodi:namedview
     id="namedview1"
     pagecolor="#ffffff"
     bordercolor="#000000"
     borderopacity="0.25"
     inkscape:showpageshadow="2"
     inkscape:pageopacity="0.0"
     inkscape:pagecheckerboard="0"
     inkscape:deskcolor="#d1d1d1"
     inkscape:zoom="4.3727483"
     inkscape:cx="520.83949"
     inkscape:cy="552.1699"
     inkscape:window-width="1920"
     inkscape:window-height="991"
     inkscape:window-x="-9"
     inkscape:window-y="-9"
     inkscape:window-maximized="1"
     inkscape:current-layer="layer5" /><defs
     id="defs1" /><g
     id="layer5"><path
       style="display:inline;fill:#00ff16;fill-opacity:1;stroke:none;stroke-width:5;stroke-linecap:round"
       d="m 515.00792,610.14259 c 53.82038,-14.46411 74.96381,-55.90608 69.97887,-69.06411 -9.0051,-23.76947 -89.18876,-7.77543 -89.18876,-7.77543 -12.11448,1.77194 16.47825,77.57366 19.20989,76.83954 z"
       id="path18"
       data-layer="1000"
       color="mane-hl-2"
       sodipodi:nodetypes="sscs" /><path
       style="display:inline;fill:#ff0000;fill-opacity:1;stroke:none;stroke-width:5;stroke-linecap:round"
       d="m 507.68986,545.30923 c 1.6572,1.42136 67.38728,-14.10146 57.6904,-15.83657 -26.55637,-4.75187 -69.58223,3.83039 -69.58223,3.83039 9.56651,4.29693 7.52386,8.25981 11.89183,12.00618 z"
       id="path1"
       data-layer="1000"
       color="mane-hl-2"
       sodipodi:nodetypes="sscs" /><path
       style="display:inline;fill:#00bdff;fill-opacity:1;stroke:none;stroke-width:5;stroke-linecap:round"
       d="m 492.36769,580.18432 c 8.51149,38.78827 11.56052,33.35372 22.64023,29.95827 29.33961,-8.99131 49.0971,-25.03102 60.09717,-39.82764 8.97733,-12.07577 -57.171,48.02742 -77.24886,8.95461 -0.38267,-0.74471 86.64038,-39.86951 86.01438,-40.41256 -3.09113,-2.68153 -7.4625,-7.65996 -15.12905,-7.41901 -19.07198,0.59939 -49.0439,12.14101 -60.94587,15.36093 -26.27358,7.10796 -19.75159,13.68204 -15.428,33.3854 z"
       id="path2"
       data-layer="1000"
       color="mane-main"
       sodipodi:nodetypes="ssssssss" /><path
       style="display:inline;fill:#ff00ea;fill-opacity:1;stroke:none;stroke-width:5;stroke-linecap:round"
       d="m 468.35533,532.84567 c 0,0 -31.76793,13.97826 -24.69842,46.1952 8.51149,38.78827 59.47089,34.49717 70.5506,31.10172 9.71702,-2.97785 7.30623,-17.7645 3.8017,-24.13408 12.28646,-8.28825 11.53812,-20.41576 6.76746,-26.10873 -9.23101,-11.01566 -19.94969,-4.52376 -19.60239,-7.38684 2.18904,-18.04584 -9.37625,-19.20989 -9.37625,-19.20989 z"
       id="path3"
       data-layer="1000"
       color="coat"
       sodipodi:nodetypes="csscsscc" /><path
       style="display:inline;fill:none;stroke:#000000;stroke-width:5;stroke-linecap:round"
       d="m 468.35533,532.84567 c 0,0 -31.76793,13.97826 -24.69842,46.1952 8.51149,38.78827 60.2713,34.49717 71.35101,31.10172 53.28413,-16.32927 74.96381,-55.90608 69.97887,-69.06411 -9.0051,-23.76947 -89.18876,-7.77543 -89.18876,-7.77543 0,0 7.86731,3.33065 9.60494,6.86067 1.8865,3.83244 -0.45738,12.80659 -0.45738,12.80659 0,0 17.64001,-3.15066 23.78367,12.80659 5.27638,13.70463 -11.43445,19.20989 -11.43445,19.20989 0,0 6.62249,9.95327 4.57378,14.6361 -3.99076,9.12189 -25.88111,12.59871 -25.88111,12.59871"
       id="path19"
       data-layer="1000"
       color="coat-contour"
       sodipodi:nodetypes="cssscscscsc" /><path
       style="display:inline;fill:none;fill-opacity:1;stroke:#000000;stroke-width:5;stroke-linecap:round;stroke-opacity:1"
       d="m 521.41121,592.30484 c 0,0 3.93971,0.0861 19.23965,-6.86381 18.73058,-8.50826 36.10312,-18.29199 36.10312,-18.29199"
       id="path20"
       data-layer="1000"
       color="coat-contour" /><path
       style="display:inline;fill:none;fill-opacity:1;stroke:#000000;stroke-width:5;stroke-linecap:round;stroke-opacity:1"
       d="m 527.9324,563.42505 c 0,0 9.54259,-3.0012 24.84253,-9.95111 18.73058,-8.50826 31.07196,-14.28993 31.07196,-14.28993"
       id="path20-5"
       data-layer="1000"
       color="coat-contour" /><path
       style="display:inline;fill:none;fill-opacity:1;stroke:#000000;stroke-width:5;stroke-linecap:round;stroke-opacity:1"
       d="m 507.70783,545.39183 c 0,0 9.91091,-1.64888 26.21466,-5.72036 18.04452,-4.5062 31.75803,-9.71615 31.75803,-9.71615"
       id="path20-1"
       data-layer="1000"
       color="coat-contour"
       sodipodi:nodetypes="csc" /></g></svg>
