<?xml version="1.0" encoding="UTF-8" standalone="no"?>
<!-- Created with Inkscape (http://www.inkscape.org/) -->

<svg
   width="1000"
   height="1000"
   viewBox="0 0 1000 1000"
   version="1.1"
   id="svg1"
   xml:space="preserve"
   xmlns="http://www.w3.org/2000/svg"
   xmlns:svg="http://www.w3.org/2000/svg"><defs
     id="defs1" /><g
     id="layer5"><path
       style="display:inline;fill:#00ff16;fill-opacity:1;stroke:none;stroke-width:5;stroke-linecap:round"
       d="m 468.35533,532.84567 c 0,0 -31.76793,13.97826 -24.69842,46.1952 8.51149,38.78827 60.2713,34.49717 71.35101,31.10172 53.28413,-16.32927 74.96381,-55.90608 69.97887,-69.06411 -9.0051,-23.76947 -89.18876,-7.77543 -89.18876,-7.77543 z"
       id="path18"
       data-layer="1000"
       color="coat" /><path
       style="display:inline;fill:#800080;fill-opacity:1;stroke:none;stroke-width:5;stroke-linecap:round"
       d="m 505.8715,540.28422 c -0.93802,3.9791 -1.86849,-0.85304 -0.98213,13.6113 0.0353,1.82823 18.28338,-9.50876 24.20032,12.12039 1.18871,4.3453 -3.79025,14.16078 -11.66039,19.16117 8.08949,16.36539 -4.53431,25.61303 -2.42138,24.96551 53.28413,-16.32927 74.96381,-55.90608 69.97887,-69.06411 -9.0051,-23.76947 -89.18876,-7.77543 -89.18876,-7.77543 z"
       id="path1"
       data-layer="1000"
       color="gradient"
       data-grad="from:detail-1;to:transparent;angle:160;range:1%-100%" /><path
       style="fill:none;stroke:#000000;stroke-width:5;stroke-linecap:round"
       d="m 468.35533,532.84567 c 0,0 -31.76793,13.97826 -24.69842,46.1952 8.51149,38.78827 60.2713,34.49717 71.35101,31.10172 53.28413,-16.32927 74.96381,-55.90608 69.97887,-69.06411 -9.0051,-23.76947 -89.18876,-7.77543 -89.18876,-7.77543 0,0 7.86731,3.33065 9.60494,6.86067 1.8865,3.83244 -0.45738,12.80659 -0.45738,12.80659 0,0 17.64001,-3.15066 23.78367,12.80659 5.27638,13.70463 -11.43445,19.20989 -11.43445,19.20989 0,0 6.62249,9.95327 4.57378,14.6361 -3.99076,9.12189 -26.98532,12.80659 -26.98532,12.80659"
       id="path19"
       data-layer="1000"
       color="coat-contour" /><path
       style="fill:none;fill-opacity:1;stroke:#000000;stroke-width:5;stroke-linecap:round;stroke-opacity:1"
       d="m 521.41121,592.30484 c 0,0 3.93971,0.0861 19.23965,-6.86381 18.73058,-8.50826 36.10312,-18.29199 36.10312,-18.29199"
       id="path20"
       data-layer="1000"
       color="coat-contour" /><path
       style="fill:none;fill-opacity:1;stroke:#000000;stroke-width:5;stroke-linecap:round;stroke-opacity:1"
       d="m 527.9324,563.42505 c 0,0 9.54259,-3.0012 24.84253,-9.95111 18.73058,-8.50826 31.07196,-14.28993 31.07196,-14.28993"
       id="path20-5"
       data-layer="1000"
       color="coat-contour" /><path
       style="fill:none;fill-opacity:1;stroke:#000000;stroke-width:5;stroke-linecap:round;stroke-opacity:1"
       d="m 507.70783,545.39183 c 0,0 9.91091,-1.64888 26.21466,-5.72036 18.04452,-4.5062 31.75803,-9.71615 31.75803,-9.71615"
       id="path20-1"
       data-layer="1000"
       color="coat-contour" /></g></svg>
