<?xml version="1.0" encoding="UTF-8" standalone="no"?>
<!-- Created with Inkscape (http://www.inkscape.org/) -->

<svg
   width="1000"
   height="1000"
   viewBox="0 0 1000 1000"
   version="1.1"
   id="svg1"
   xml:space="preserve"
   xmlns="http://www.w3.org/2000/svg"
   xmlns:svg="http://www.w3.org/2000/svg"><defs
     id="defs1" /><g
     id="g26"
     transform="rotate(-3.5375269,311.61686,845.64733)"
     data-layer="200"
     style="display:inline"><path
       style="fill:#97ff00;fill-opacity:1;stroke:none;stroke-width:5;stroke-linecap:round;stroke-opacity:1"
       d="m 461.95204,533.30304 c 0,0 16.40228,-31.90164 22.86891,-52.59849 14.17306,-45.36172 6.27976,-102.54359 30.18696,-143.61677 13.31934,-22.88298 49.3234,-71.36055 57.17229,-46.19521 8.77229,28.12598 -36.99161,95.64138 -38.44276,101.31602 7.07274,-5.86579 91.48892,-108.67733 109.79377,-88.50943 22.59346,24.89302 -73.58128,117.12718 -79.81925,129.46103 8.19475,-3.19934 60.77342,-45.45192 71.12906,-20.14763 13.388,32.71396 -80.27369,75.40596 -88.38835,87.93098 6.76566,0.031 25.06581,-4.02241 26.64229,6.74632 5.65085,38.60031 -99.25109,54.88539 -99.25109,54.88539 z"
       id="path23"
       color="coat" /><g
       id="g10"
       style="fill:#00b2ff;fill-opacity:1;stroke:none"
       color="detail-1"><path
         d="m 565.0985,283.84728 c -5.21918,-0.30317 -12.26676,4.7994 -19.57423,12.2472 0,0 10.47162,-0.0836 14.93272,2.24794 4.94353,2.58374 11.49206,12.1639 11.49206,12.1639 1.59457,-7.49736 1.89759,-14.26678 0.23013,-19.61301 -1.47675,-4.73481 -3.94918,-6.86413 -7.08068,-7.04603 z"
         style="fill:#00b2ff;fill-opacity:1;stroke:none;stroke-width:5;stroke-linecap:round"
         id="path10"
         color="detail-1" /><path
         d="m 615.40508,311.10481 c 0,0 14.02927,0.14068 19.40088,3.9781 4.42402,3.16047 8.27952,14.05327 8.27952,14.05327 4.59511,-10.77881 5.54204,-19.82159 0.44537,-25.43701 -5.17366,-5.70022 -15.62856,-1.57688 -28.12577,7.40564 z"
         style="fill:#00b2ff;fill-opacity:1;stroke:none;stroke-width:5;stroke-linecap:round"
         id="path9"
         color="detail-1" /><path
         d="m 606.83475,408.58792 c 0,0 14.25033,4.41539 18.59638,9.93929 3.7129,4.71917 4.5142,17.43924 4.5142,17.43924 5.53803,-7.8507 7.88502,-15.65169 4.89638,-22.95451 -4.23962,-10.35963 -15.55628,-9.39524 -28.00696,-4.42402 z"
         style="fill:#00b2ff;fill-opacity:1;stroke:none;stroke-width:5;stroke-linecap:round"
         id="path8"
         color="detail-1" /><path
         d="m 558.42998,500.22702 c 0,0 4.04425,8.41222 4.55557,12.96394 0.69947,6.22663 -2.14183,18.67496 -2.14183,18.67496 8.51814,-6.81025 13.61808,-14.84143 12.25143,-24.17684 -0.93991,-6.42041 -7.8247,-7.57226 -14.66517,-7.46206 z"
         style="fill:#00b2ff;fill-opacity:1;stroke:none;stroke-width:5;stroke-linecap:round"
         id="path7"
         color="detail-1" /></g><path
       style="display:inline;fill:none;stroke:#000000;stroke-width:5;stroke-linecap:round;stroke-opacity:1"
       d="m 461.95204,533.30304 c 0,0 16.40228,-31.90164 22.86891,-52.59849 14.17306,-45.36172 6.27976,-102.54359 30.18696,-143.61677 13.31934,-22.88298 49.3234,-71.36055 57.17229,-46.19521 8.77229,28.12598 -36.99161,95.64138 -38.44276,101.31602 7.07274,-5.86579 91.48892,-108.67733 109.79377,-88.50943 22.59346,24.89302 -73.58128,117.12718 -79.81925,129.46103 8.19475,-3.19934 60.77342,-45.45192 71.12906,-20.14763 13.388,32.71396 -80.27369,75.40596 -88.38835,87.93098 6.76566,0.031 25.06581,-4.02241 26.64229,6.74632 5.65085,38.60031 -99.25109,54.88539 -99.25109,54.88539"
       id="path26"
       color="coat-contour" /></g><g
     id="layer5"
     style="display:inline"
     data-layer="1000"><path
       style="display:inline;fill:#97ff00;fill-opacity:1;stroke:none;stroke-width:5;stroke-linecap:round;stroke-opacity:1"
       d="m 461.95204,533.30304 c 0,0 16.40228,-31.90164 22.86891,-52.59849 14.17306,-45.36172 6.27976,-102.54359 30.18696,-143.61677 13.31934,-22.88298 49.3234,-71.36055 57.17229,-46.19521 8.77229,28.12598 -36.99161,95.64138 -38.44276,101.31602 7.07274,-5.86579 91.48892,-108.67733 109.79377,-88.50943 22.59346,24.89302 -73.58128,117.12718 -79.81925,129.46103 8.19475,-3.19934 60.77342,-45.45192 71.12906,-20.14763 13.388,32.71396 -80.27369,75.40596 -88.38835,87.93098 6.76566,0.031 25.06581,-4.02241 26.64229,6.74632 5.65085,38.60031 -99.25109,54.88539 -99.25109,54.88539 z"
       id="path18"
       color="coat" /><g
       id="g5"
       style="display:inline"
       color="detail-1"><path
         d="m 559.27539,500.2207 c 0,0 1.00831,9.45937 -2.35352,15.30274 8.35386,2.17576 10.93555,9.44531 10.93555,9.44531 4.10193,-5.17252 6.16869,-10.92379 5.23828,-17.2793 -0.90118,-6.15585 -7.26796,-7.46818 -13.82031,-7.46875 z"
         style="display:inline;fill:#2ffefe;fill-opacity:1;fill-rule:evenodd;stroke:none;stroke-width:3;stroke-linecap:round"
         id="path5"
         color="detail-1" /><path
         d="m 615.58984,405.78711 c 0,0 3.54383,12.11947 -1.42382,20.79687 12.60816,3.29894 13.12304,12.86133 13.12304,12.86133 7.38378,-9.01577 10.98262,-18.05258 7.55274,-26.43359 -3.2136,-7.8525 -10.49436,-9.19765 -19.25196,-7.22461 z"
         style="fill:#2ffefe;fill-opacity:1;stroke:none;stroke-width:5;stroke-linecap:round"
         id="path4"
         color="detail-1" /><path
         d="m 619.46875,308.3125 c -0.21858,0.0729 4.3706,9.78638 4.72266,20.27734 13.03677,-2.59374 19.20117,-0.18554 19.20117,-0.18554 4.32744,-10.45587 5.11952,-19.21728 0.13867,-24.70508 -4.60194,-5.07032 -13.38297,-2.36754 -24.0625,4.61328 z"
         style="fill:#2ffefe;fill-opacity:1;stroke:none;stroke-width:5;stroke-linecap:round"
         id="path3"
         color="detail-1" /><path
         d="m 564.39648,283.83984 c -5.06257,0.15824 -11.68449,4.98625 -18.55664,11.9336 0,0 6.34472,6.84946 6.87696,18.91015 15.92065,-8.38947 19.2207,-4.11914 19.2207,-4.11914 1.60548,-7.52073 1.91399,-14.31169 0.24219,-19.67187 -1.5854,-5.08314 -4.31934,-7.161 -7.78321,-7.05274 z"
         style="fill:#2ffefe;fill-opacity:1;stroke:none;stroke-width:5;stroke-linecap:round"
         id="path2"
         color="detail-1" /></g><path
       d="m 512.12695,553.88086 c 6.56423,-7.04154 15.49758,-18.35981 12.45313,-25.09766 -2.20391,-4.87759 -14.23047,-7.4375 -14.23047,-7.4375 0,0 65.68754,-52.43246 45.27734,-73.41601 -13.16274,-13.53251 -33.61315,20.94175 -45.27734,29.7539 4.75452,-12.52709 34.09183,-70.30838 9.05469,-79.55859 -10.38697,-3.83756 -19.47437,13.41442 -25.08985,27.85937 -1.95376,18.92134 -4.16292,37.65782 -9.49414,54.72071 -6.46663,20.69685 -22.86914,52.59765 -22.86914,52.59765 0,0 0.62624,7.91894 3.1369,14.82387 2.6005,7.15198 8.75568,14.44957 8.75568,14.44957 0,0 17.76669,-2.75859 38.2832,-8.69531 z"
       style="display:inline;fill:#00ff66;fill-opacity:1;stroke:none;stroke-width:5;stroke-linecap:round;stroke-opacity:1"
       id="path20"
       color="coat" /><path
       d="m 473.84375,562.57617 c 0,0 17.76669,-2.75859 38.2832,-8.69531 6.56423,-7.04154 15.49758,-18.35981 12.45313,-25.09766 -2.20391,-4.87759 -14.23047,-7.4375 -14.23047,-7.4375 0,0 65.68754,-52.43246 45.27734,-73.41601 -13.16274,-13.53251 -33.61315,20.94175 -45.27734,29.7539 4.75452,-12.52709 34.09183,-70.30838 9.05469,-79.55859 -10.38697,-3.83756 -19.47437,13.41442 -25.08985,27.85937 -1.95376,18.92134 -4.16292,37.65782 -9.49414,54.72071 -6.46663,20.69685 -22.86914,52.59765 -22.86914,52.59765"
       style="display:inline;fill:#00ff66;fill-opacity:1;stroke:#000000;stroke-width:5;stroke-linecap:round;stroke-opacity:1"
       id="path21"
       color="coat-contour" /><path
       style="display:inline;fill:none;stroke:#000000;stroke-width:5;stroke-linecap:round;stroke-opacity:1"
       d="m 461.95204,533.30304 c 0,0 16.40228,-31.90164 22.86891,-52.59849 14.17306,-45.36172 6.27976,-102.54359 30.18696,-143.61677 13.31934,-22.88298 49.3234,-71.36055 57.17229,-46.19521 8.77229,28.12598 -36.99161,95.64138 -38.44276,101.31602 7.07274,-5.86579 91.48892,-108.67733 109.79377,-88.50943 22.59346,24.89302 -73.58128,117.12718 -79.81925,129.46103 8.19475,-3.19934 60.77342,-45.45192 71.12906,-20.14763 13.388,32.71396 -80.27369,75.40596 -88.38835,87.93098 6.76566,0.031 25.06581,-4.02241 26.64229,6.74632 5.65085,38.60031 -99.25109,54.88539 -99.25109,54.88539"
       id="path22"
       color="coat-contour" /></g></svg>
