<?xml version="1.0" encoding="UTF-8" standalone="no"?>
<!-- Created with Inkscape (http://www.inkscape.org/) -->

<svg
   width="1000"
   height="1000"
   viewBox="0 0 1000 1000"
   version="1.1"
   id="svg1"
   xml:space="preserve"
   sodipodi:docname="008.svg"
   inkscape:version="1.4.2 (f4327f4, 2025-05-13)"
   xmlns:inkscape="http://www.inkscape.org/namespaces/inkscape"
   xmlns:sodipodi="http://sodipodi.sourceforge.net/DTD/sodipodi-0.dtd"
   xmlns="http://www.w3.org/2000/svg"
   xmlns:svg="http://www.w3.org/2000/svg"><sodipodi:namedview
     id="namedview1"
     pagecolor="#ffffff"
     bordercolor="#000000"
     borderopacity="0.25"
     inkscape:showpageshadow="2"
     inkscape:pageopacity="0.0"
     inkscape:pagecheckerboard="0"
     inkscape:deskcolor="#d1d1d1"
     inkscape:zoom="0.773"
     inkscape:cx="197.93014"
     inkscape:cy="232.21216"
     inkscape:window-width="1920"
     inkscape:window-height="991"
     inkscape:window-x="-9"
     inkscape:window-y="-9"
     inkscape:window-maximized="1"
     inkscape:current-layer="g26" /><defs
     id="defs1" /><g
     id="g26"
     transform="rotate(-3.5375269,311.61686,845.64733)"
     data-layer="200"
     style="display:inline"><path
       style="fill:#97ff00;fill-opacity:1;stroke:none;stroke-width:5;stroke-linecap:round;stroke-opacity:1"
       d="m 452.75402,535.32668 c 0,0 15.92335,-24.15446 22.38999,-44.85131 14.17305,-45.36172 -48.88161,-94.78556 -15.965,-193.77866 12.60845,-37.91856 69.4548,-71.35093 98.89754,-79.87485 -9.08738,9.11367 -33.8314,45.11438 -29.54227,70.87372 13.00659,78.11397 47.67862,205.60531 -54.69041,274.87967 z"
       id="path23"
       color="coat"
       sodipodi:nodetypes="ccscscc" /><path
       style="fill:none;fill-opacity:1;stroke:#000000;stroke-width:5;stroke-linecap:round;stroke-opacity:1"
       d="m 452.75402,535.32668 c 0,0 15.92335,-24.15446 22.38999,-44.85131 14.17305,-45.36172 -48.88161,-94.78556 -15.965,-193.77866 12.60845,-37.91856 69.4548,-71.35093 98.89754,-79.87485 -8.15889,9.81913 -33.8314,45.11438 -29.54227,70.87372 13.00659,78.11397 47.67862,205.60531 -54.69041,274.87967 z"
       id="path9"
       color="coat-contour"
       sodipodi:nodetypes="ccscscc" /></g><g
     id="layer5"
     style="display:inline"
     data-layer="1000"><path
       style="display:inline;opacity:1;fill:#ff9600;fill-opacity:1;fill-rule:evenodd;stroke:none;stroke-width:4;stroke-linecap:round;stroke-miterlimit:100;stroke-opacity:1"
       d="m 713.77749,170.76326 c -29.01742,20.77124 -51.48202,62.08779 -57.56791,95.08409 -6.71119,36.38651 27.94195,92.1774 21.3454,125.48513 -9.12347,46.06675 -43.01423,61.44889 -43.01423,61.44889 0,0 12.57951,14.83564 5.82148,27.16689 -14.52255,26.49903 -46.89522,29.10737 -46.89522,29.10737 0,0 10.51942,5.71862 4.2044,17.14101 -10.15136,18.36144 -32.8636,23.13269 -55.95084,23.93273 -15.38238,0.53304 -45.27814,-9.05563 -45.27814,-9.05563 l 36.86934,-172.05692 33.95861,-126.77879 c 0,0 67.62374,-61.2176 146.50711,-71.47477 z"
       id="path4"
       sodipodi:nodetypes="csscscsscccc"
       color="coat" /><path
       style="display:inline;opacity:1;fill:none;fill-opacity:1;fill-rule:evenodd;stroke:#000000;stroke-width:4;stroke-linecap:round;stroke-miterlimit:100;stroke-opacity:1"
       d="m 594.04201,509.11511 c 0,0 -34.09049,0.76646 -48.61844,-3.48345 -3.65891,-1.07035 -0.22869,11.43446 -0.22869,11.43446 0,0 4.55309,5.17524 9.1611,6.6059 -9.03238,0.10378 -9.06046,-3.03487 -9.06046,-3.03487"
       id="path6"
       sodipodi:nodetypes="csccc"
       color="coat-contour" /><path
       style="display:inline;opacity:1;fill:none;fill-opacity:1;fill-rule:evenodd;stroke:#000000;stroke-width:4;stroke-linecap:round;stroke-miterlimit:100;stroke-opacity:1"
       d="m 599.85519,413.18529 c 0,0 16.61418,-0.52684 27.51451,-8.9867 -9.9683,12.17563 -30.47933,12.09879 -31.61827,11.42578"
       id="path8"
       sodipodi:nodetypes="ccc"
       color="coat-contour" /><path
       style="display:inline;opacity:1;fill:none;fill-opacity:1;fill-rule:evenodd;stroke:#000000;stroke-width:4;stroke-linecap:round;stroke-miterlimit:100;stroke-opacity:1"
       d="m 634.51999,452.62889 c 0,0 -15.1093,-17.52867 -78.34803,-19.72038 -3.80996,-0.13204 18.29513,35.9042 18.29513,35.9042 0,0 4.3244,8.20537 17.16522,5.40528 -5.7639,2.79659 -15.92564,-1.16124 -17.06458,-1.83425"
       id="path7"
       sodipodi:nodetypes="csccc"
       color="coat-contour" /><path
       style="display:inline;opacity:1;fill:none;fill-opacity:1;fill-rule:evenodd;stroke:#000000;stroke-width:4;stroke-linecap:round;stroke-miterlimit:100;stroke-opacity:1"
       d="m 713.77749,170.76326 c -29.01742,20.77124 -51.48202,62.08779 -57.56791,95.08409 -6.71119,36.38651 27.94195,92.1774 21.3454,125.48513 -9.12347,46.06675 -43.01423,61.44889 -43.01423,61.44889 0,0 12.57951,14.83564 5.82148,27.16689 -14.52255,26.49903 -46.89522,29.10737 -46.89522,29.10737 0,0 10.51942,5.71862 4.2044,17.14101 -10.15136,18.36144 -32.8636,23.13269 -55.95084,23.93273 -15.38238,0.53304 -45.27814,-9.05563 -45.27814,-9.05563 l 36.86934,-172.05692 33.95861,-126.77879 c 0,0 67.62374,-61.2176 146.50711,-71.47477 z"
       id="path5"
       sodipodi:nodetypes="csscscsscccc"
       color="coat-contour" /><path
       style="display:inline;opacity:1;fill:#f5ff00;fill-opacity:1;fill-rule:evenodd;stroke:none;stroke-width:4;stroke-linecap:round;stroke-miterlimit:100;stroke-opacity:1"
       d="m 473.15653,561.4489 c 0,0 49.42867,11.30374 55.30401,-6.79172 3.09472,-9.53142 -9.86416,-11.64295 -9.86416,-11.64295 0,0 6.80208,-3.59511 9.21733,-6.4683 6.46695,-7.69308 2.42562,-14.5537 2.42562,-14.5537 0,0 12.36047,8.52313 22.15394,-5.49805 9.185,-13.15005 -3.71927,-27.4903 -3.71927,-27.4903 0,0 21.88052,6.28197 31.8564,-17.62613 7.65886,-18.35517 -25.38809,-22.80077 -25.38809,-22.80077 0,0 37.40887,5.59284 50.45277,-39.61838 6.4435,-22.33367 -32.17981,-23.77102 -32.17981,-23.77102 0,0 51.07289,-48.58311 33.63519,-68.07892 -12.46676,-13.93816 -38.32472,10.83442 -38.32472,10.83442 0,0 57.12557,-82.82681 44.14618,-106.88875 -15.90949,-29.49394 -81.17722,46.73351 -81.17722,46.73351 l -42.69082,75.35576 26.84347,110.93143 -12.6132,48.83571 -40.10349,35.25226 z"
       id="path2"
       sodipodi:nodetypes="cscscscscscscscccccc"
       color="coat" /><path
       style="display:inline;opacity:1;fill:none;fill-opacity:1;fill-rule:evenodd;stroke:#000000;stroke-width:4;stroke-linecap:round;stroke-miterlimit:100;stroke-opacity:1"
       d="m 473.15653,561.4489 c 0,0 51.59505,11.86864 55.30401,-6.79172 1.31594,-6.62068 -6.27881,-8.71936 -13.09831,-12.6132 5.34729,0.30935 10.03623,-2.62486 12.45148,-5.49805 6.46695,-7.69308 2.42562,-14.5537 2.42562,-14.5537 0,0 12.36047,8.52313 22.15394,-5.49805 9.185,-13.15005 -3.71927,-27.4903 -3.71927,-27.4903 0,0 21.88052,6.28197 31.8564,-17.62613 7.65886,-18.35517 -23.33818,-21.29656 -25.38809,-22.80077 2.48507,-0.18764 44.20059,2.35869 50.45277,-39.61838 3.42434,-22.99099 -32.17981,-23.77102 -32.17981,-23.77102 0,0 51.07289,-48.58311 33.63519,-68.07892 -12.46676,-13.93816 -38.32472,10.83442 -38.32472,10.83442 0,0 57.12557,-82.82681 44.14618,-106.88875 -15.90949,-29.49394 -81.17722,46.73351 -81.17722,46.73351 l -42.69082,75.35576 26.84347,110.93143 -12.6132,48.83571 -40.10349,35.25226 z"
       id="path3"
       sodipodi:nodetypes="cscscscscscscscccccc"
       color="coat-contour" /><path
       style="display:inline;fill:#97ff00;fill-opacity:1;stroke:none;stroke-width:5;stroke-linecap:round;stroke-opacity:1"
       d="m 455.68747,539.22121 c 22.88437,-16.97102 35.70153,-33.08468 43.50724,-51.22159 28.08209,-65.25002 -40.25953,-89.62766 -10.40642,-168.66323 9.35571,-24.76906 72.9557,-133.16932 234.10342,-152.63528 -89.60325,27.41335 -179.74392,79.30526 -210.45466,148.5496 -29.83939,67.2797 22.08479,105.34596 8.26464,162.03812 -9.23953,37.9018 -41.29214,54.44713 -52.97021,65.54068 6.05747,-0.90929 14.3647,19.27601 -5.10135,20.70629 -9.75392,0.71668 -12.94767,-6.70228 -12.49601,-13.90193 0.27579,-4.39615 2.39372,-8.06949 5.55335,-10.41266 z"
       id="path18"
       color="coat"
       sodipodi:nodetypes="ssscsscsss" /><path
       style="display:inline;fill:none;fill-opacity:1;stroke:#000000;stroke-width:5;stroke-linecap:round;stroke-opacity:1"
       d="M 455.68747,539.22121 C 478.57184,522.25019 491.389,506.13653 499.19471,487.99962 527.2768,422.7496 452.40422,392.19055 488.78829,319.33639 535.32477,226.1534 655.27784,165.35636 722.89171,166.70111 c -7.73254,4.54444 -156.18894,46.8314 -210.45466,148.5496 -34.64321,64.93685 22.08479,105.34596 8.26464,162.03812 -9.23953,37.9018 -41.29214,54.44713 -52.97021,65.54068 6.05747,-0.90929 14.3647,19.27601 -5.10135,20.70629 -9.75392,0.71668 -12.94767,-6.70228 -12.49601,-13.90193 0.27579,-4.39615 2.39372,-8.06949 5.55335,-10.41266 z"
       id="path1"
       color="coat-contour"
       sodipodi:nodetypes="ssscsscsss" /></g></svg>
