<?xml version="1.0" encoding="UTF-8" standalone="no"?>
<!-- Created with Inkscape (http://www.inkscape.org/) -->

<svg
   width="1000"
   height="1000"
   viewBox="0 0 1000 1000"
   version="1.1"
   id="svg1"
   xml:space="preserve"
   sodipodi:docname="010.svg"
   inkscape:version="1.4.2 (f4327f4, 2025-05-13)"
   xmlns:inkscape="http://www.inkscape.org/namespaces/inkscape"
   xmlns:sodipodi="http://sodipodi.sourceforge.net/DTD/sodipodi-0.dtd"
   xmlns="http://www.w3.org/2000/svg"
   xmlns:svg="http://www.w3.org/2000/svg"><sodipodi:namedview
     id="namedview1"
     pagecolor="#ffffff"
     bordercolor="#000000"
     borderopacity="0.25"
     inkscape:showpageshadow="2"
     inkscape:pageopacity="0.0"
     inkscape:pagecheckerboard="0"
     inkscape:deskcolor="#d1d1d1"
     inkscape:zoom="1.0931871"
     inkscape:cx="440.45526"
     inkscape:cy="385.56987"
     inkscape:window-width="1920"
     inkscape:window-height="991"
     inkscape:window-x="-9"
     inkscape:window-y="-9"
     inkscape:window-maximized="1"
     inkscape:current-layer="g26" /><defs
     id="defs1" /><g
     id="g26"
     transform="rotate(-3.5375269,311.61686,845.64733)"
     data-layer="200"
     style="display:inline"><path
       style="display:inline;fill:#97ff00;fill-opacity:1;stroke:none;stroke-width:4.32997;stroke-linecap:round;stroke-opacity:1"
       d="m 441.61304,563.12601 c 0,0 -2.19454,-5.11601 -0.54124,-12.28368 3.28718,-14.25132 12.26338,-14.9152 10.99907,-26.95766 -4.29725,-40.93081 -44.94468,-97.40612 -40.70324,-120.25681 4.61525,-24.86453 59.94523,-60.14312 72.96198,-88.87515 10.91997,-24.10377 -19.35114,-71.04191 4.9064,-71.47764 35.10622,-0.63059 28.65422,69.33817 24.9971,81.58682 12.06381,-35.68349 18.77506,-40.3496 25.5237,-38.37237 15.53121,4.55038 10.96963,42.95931 0.48262,67.44265 66.81418,-33.4922 56.57139,26.9023 7.77738,39.17067 49.57515,1.31256 1.97823,34.63216 -19.53098,34.33832 48.47264,20.55547 -5.66136,36.87091 -25.35094,34.89274 33.3987,28.63155 0.35794,33.29012 -7.55288,33.17307 10.5352,9.06077 8.42136,18.5846 -6.51056,23.08612 16.30429,13.60782 0.15163,34.94102 -12.25961,40.1265 z"
       id="path18-5"
       color="gradient"
       sodipodi:nodetypes="cssssscscccccccc"
       data-grad="from:detail-1;to:coat;angle:90;range:30%-80%" /><path
       style="display:inline;fill:none;fill-opacity:1;stroke:#000000;stroke-width:4.32997;stroke-linecap:round;stroke-opacity:1"
       d="m 441.61304,563.12601 c 0,0 -2.19454,-5.11601 -0.54124,-12.28368 3.28718,-14.25132 12.26338,-14.9152 10.99907,-26.95766 -4.29725,-40.93081 -44.94468,-97.40612 -40.70324,-120.25681 4.61525,-24.86453 59.94523,-60.14312 72.96198,-88.87515 10.91997,-24.10377 -19.35113,-71.0419 4.9064,-71.47764 30.88077,-0.55468 29.25358,53.6696 26.23476,74.934 -0.41307,2.90964 -0.72781,2.99146 -0.74865,4.66223 1.30362,-1.74078 1.10274,-2.64957 1.86424,-4.76831 10.6096,-29.51975 16.87375,-33.45829 23.17045,-31.61347 15.53121,4.55038 10.96963,42.95931 0.48262,67.44265 64.50956,-32.33695 57.18632,22.84765 12.68734,37.73521 -1.58973,0.53186 -1.61466,0.50712 -3.64181,1.19319 1.36152,0.35148 1.26684,0.3332 2.43619,0.41055 41.57338,2.74969 1.37967,31.86072 -20.48186,34.04272 -0.95564,0.0954 -0.99999,0.23298 -1.91596,0.3186 0.7021,0.42151 0.64222,0.44568 1.34553,0.76257 44.61776,20.1036 -8.14994,35.88636 -27.53397,33.93889 33.3987,28.63155 0.35794,33.29012 -7.55288,33.17307 10.5352,9.06077 8.42136,18.5846 -6.51056,23.08612 16.30429,13.60782 0.15163,34.94102 -12.25961,40.1265"
       id="path1-5"
       color="coat-contour"
       sodipodi:nodetypes="csssssscsscscsscscccc" /></g><g
     id="layer5"
     style="display:inline"
     data-layer="1000"><path
       style="fill:#97ff00;fill-opacity:1;stroke:none;stroke-width:5;stroke-linecap:round;stroke-opacity:1"
       d="m 455.54874,541.76454 c 0,0 0.0143,-6.42824 5.04692,-13.271 10.00621,-13.6053 19.82668,-10.20184 23.9966,-23.54794 14.17305,-45.36173 -3.08003,-123.83701 11.87279,-146.12283 16.27062,-24.24988 91.07494,-36.33493 118.02264,-60.84084 22.60686,-20.5584 11.9909,-84.17427 37.90845,-73.5365 37.50864,15.39528 -1.34805,86.62482 -10.8301,97.93759 29.11821,-32.31199 38.36869,-34.18814 44.61894,-29.00382 14.38426,11.93112 -8.02709,50.56552 -30.34861,71.72446 86.16261,-4.93616 47.66785,54.40803 -9.67797,45.08805 51.95965,24.07611 -13.74958,37.62268 -36.41949,27.469 41.98563,43.97322 -22.87357,36.50053 -42.84357,25.39372 22.30858,45.63807 -14.85335,35.45842 -23.18694,31.7145 7.02355,14.42703 0.42453,23.55709 -17.4663,21.49713 11.05939,21.88769 -15.8275,37.11433 -31.35883,36.93294 z"
       id="path18"
       color="gradient"
       sodipodi:nodetypes="cssssscscccccccc"
       data-grad="from:detail-1;to:coat;angle:120;range:30%-80%" /><path
       style="fill:none;fill-opacity:1;stroke:#000000;stroke-width:5;stroke-linecap:round;stroke-opacity:1"
       d="m 455.54874,541.76454 c 0,0 0.0143,-6.42824 5.04692,-13.271 10.00621,-13.6053 19.82668,-10.20184 23.9966,-23.54794 14.17305,-45.36173 -3.08003,-123.83701 11.87279,-146.12283 16.27062,-24.24988 91.07494,-36.33493 118.02264,-60.84084 22.60686,-20.5584 11.9909,-84.17426 37.90845,-73.5365 32.99403,13.54228 6.457,70.28705 -6.47373,91.45051 -1.76933,2.89582 -2.14046,2.83856 -2.92706,4.60039 2.17866,-1.24909 2.38153,-2.30452 4.15837,-4.2024 24.75604,-26.44252 33.19957,-27.75187 39.03126,-22.91473 14.38425,11.93113 -8.02709,50.56552 -30.34861,71.72446 83.19061,-4.7659 50.17513,50.39061 -3.81553,45.81284 -1.92882,-0.16354 -1.94393,-0.20118 -4.40707,-0.40137 1.28267,0.99564 1.19065,0.93294 2.39502,1.55001 42.81848,21.93834 -13.11603,34.41049 -37.29236,26.7205 -1.05683,-0.33615 -1.1668,-0.21057 -2.17711,-0.53891 0.5515,0.76815 0.47696,0.76638 1.07761,1.42417 38.1054,41.73023 -25.06149,34.31798 -44.72159,23.38353 22.30858,45.63807 -14.85335,35.45842 -23.18694,31.7145 7.02355,14.42703 0.42453,23.55709 -17.4663,21.49713 11.05939,21.88769 -15.8275,37.11433 -31.35883,36.93294"
       id="path1"
       color="coat-contour"
       sodipodi:nodetypes="csssssscsscscsscscccc" /><path
       style="opacity:1;fill:none;fill-rule:evenodd;stroke:#000000;stroke-width:4;stroke-linecap:round;stroke-miterlimit:100;stroke-opacity:1"
       d="m 502.91074,527.81371 c 0,0 10.17236,-7.2464 12.12807,-23.60931 3.20184,-26.78905 -18.1601,-42.89941 -13.74515,-89.58603 6.39031,-67.57534 54.2159,-68.21062 51.11231,-36.46519 -1.06818,10.92605 -10.9349,17.92258 -21.3581,24.82224 10.30341,0.66045 24.41741,0.23209 24.09443,12.45149 -0.4259,16.1135 -16.65588,15.03881 -16.65588,15.03881 0,0 9.5489,6.0801 5.82147,14.71539 -3.466,8.02963 -16.81759,5.33635 -16.81759,5.33635 0,0 7.46432,7.61329 5.49806,12.93662 -2.55084,6.90599 -11.64295,6.79172 -11.64295,6.79172"
       id="path2"
       sodipodi:nodetypes="cssscscscsc"
       color="coat-contour" /></g></svg>
