<?xml version="1.0" encoding="UTF-8" standalone="no"?>
<!-- Created with Inkscape (http://www.inkscape.org/) -->

<svg
   width="1000"
   height="1000"
   viewBox="0 0 1000 1000"
   version="1.1"
   id="svg1"
   xml:space="preserve"
   sodipodi:docname="011.svg"
   inkscape:version="1.4.2 (f4327f4, 2025-05-13)"
   xmlns:inkscape="http://www.inkscape.org/namespaces/inkscape"
   xmlns:sodipodi="http://sodipodi.sourceforge.net/DTD/sodipodi-0.dtd"
   xmlns="http://www.w3.org/2000/svg"
   xmlns:svg="http://www.w3.org/2000/svg"><sodipodi:namedview
     id="namedview1"
     pagecolor="#ffffff"
     bordercolor="#000000"
     borderopacity="0.25"
     inkscape:showpageshadow="2"
     inkscape:pageopacity="0.0"
     inkscape:pagecheckerboard="0"
     inkscape:deskcolor="#d1d1d1"
     inkscape:zoom="1.546"
     inkscape:cx="416.23545"
     inkscape:cy="451.1643"
     inkscape:window-width="1920"
     inkscape:window-height="991"
     inkscape:window-x="-9"
     inkscape:window-y="-9"
     inkscape:window-maximized="1"
     inkscape:current-layer="svg1" /><defs
     id="defs1" /><g
     id="g16"
     style="display:inline"
     data-layer="200"
     transform="matrix(0.85622659,-0.23667745,0.23667745,0.85622659,-84.053425,201.748)"><path
       style="display:inline;fill:#f700ff;fill-opacity:1;stroke:none;stroke-width:5;stroke-linecap:round;stroke-opacity:1"
       d="m 515.34758,261.6373 c 8.28757,5.65875 30.55748,23.77236 37.05705,80.27476 6.48607,-14.25847 10.03347,-25.99397 13.39752,-41.94935 30.21536,42.55625 12.93805,73.5747 9.57509,85.07439 7.30471,-8.62879 12.84621,-15.38136 21.55334,-26.39609 14.81434,33.58631 13.05852,51.41458 1.8585,70.04484 8.99948,-2.72101 12.00869,-4.85403 19.92926,-8.62832 4.51444,47.22918 -22.07901,60.53437 -26.96874,66.3464 6.48959,-0.0822 12.1165,-0.44891 18.13439,-2.03339 -10.99804,39.44075 -31.80431,51.10385 -48.09096,57.25177 5.39646,1.0386 10.83095,3.09402 16.90846,5.19399 -14.65759,13.80793 -40.26071,27.68045 -69.92877,26.10824 l -48.7136,-47.62068 c 66.16307,-122.2969 50.56702,-162.13605 55.28846,-263.66656 z"
       id="path10"
       color="detail-1"
       sodipodi:nodetypes="cccccccccccccc" /><path
       d="m 575.59375,549.60156 c -10.62051,-0.98288 -23.80846,-2.24723 -32.34961,-3.22265 -19.08916,-2.18005 -56.13672,-8.04493 -56.13672,-8.04493 l -2.3418,11.12305 24.00782,23.4668 c 27.67093,1.46637 51.80407,-10.50127 66.82031,-23.32227 z"
       style="display:inline;fill:#1000ff;fill-opacity:1;stroke-width:5;stroke-linecap:round"
       id="path11"
       color="detail-2" /><path
       d="m 601.67187,427.76758 c -9.09201,7.42927 -26.61534,21.2094 -41.64062,29.85937 -25.75156,14.82505 -63.31836,34.51172 -63.31836,34.51172 l 0.91406,19.21094 c 0,0 48.59132,-11.15719 72.53907,-18.03516 6.17788,-1.77433 14.15167,-4.281 22.2832,-6.91992 -0.23202,0.004 -0.46501,0.007 -0.69922,0.01 4.88973,-5.81203 31.48319,-19.11848 26.96875,-66.34766 -7.01028,3.34052 -10.17288,5.3962 -17.04688,7.71094 z"
       style="display:inline;fill:#002dff;fill-opacity:1;stroke-width:5;stroke-linecap:round"
       id="path12"
       color="detail-2" /><path
       d="m 553.60156,339.23242 c -2.15867,12.41415 -6.22386,32.3192 -11.80273,44.46875 -12.01312,26.16188 -24.96094,57.21094 -24.96094,57.21094 l -10.0625,33.8457 c -0.57604,1.03687 19.6932,-22.29538 42.08203,-51.26172 8.91536,-11.53457 19.83895,-29.00904 27.83399,-42.3457 4.95196,-13.73448 16.39785,-42.75632 -10.88868,-81.1875 -3.15111,14.94544 -6.46379,26.18747 -12.20117,39.26953 z"
       style="display:inline;fill:#0079ff;fill-opacity:1;stroke-width:5;stroke-linecap:round"
       id="path13"
       color="detail-2" /><path
       d="m 515.0332,269.03516 c -3.68868,96.14732 9.55771,136.98694 -54.97461,256.26953 0,0 12.46757,14.70726 19.70108,23.40052 10.36015,12.45088 29.01377,24.21862 29.01377,24.21862 14.023,0.74312 27.13706,-1.96423 38.61718,-6.48438 -15.16015,-5.43374 -34.75376,-14.12119 -43.50976,-25.04297 15.88469,-0.95227 33.30338,-5.16611 45.27734,-20.05078 -16.14586,-1.94702 -33.63476,-10.99609 -33.63476,-10.99609 0,0 31.1479,-4.62457 38.16406,-27.16797 -20.67793,6.91313 -34.2832,7.11523 -34.2832,7.11523 0,0 20.2843,-15.74836 19.40625,-35.57421 -14.06142,8.83183 -24.95899,12.17187 -24.95899,12.17187 0,0 15.67561,-31.92639 16.54883,-66.50586 1.51321,-59.92329 -9.24819,-108.77114 -15.36719,-131.35351 z"
       style="display:inline;fill:#ff2e00;fill-opacity:1;stroke-width:5;stroke-linecap:round"
       id="path14"
       sodipodi:nodetypes="ccscccccccccsc"
       color="coat" /><path
       d="m 508.77344,572.92383 c 14.023,0.74312 27.13706,-1.96423 38.61718,-6.48438 -15.16015,-5.43374 -34.75376,-14.12119 -43.50976,-25.04297 15.88469,-0.95227 33.30338,-5.16611 45.27734,-20.05078 -16.14586,-1.94702 -33.63476,-10.99609 -33.63476,-10.99609 0,0 31.1479,-4.62457 38.16406,-27.16797 -20.67793,6.91313 -34.2832,7.11523 -34.2832,7.11523 0,0 20.2843,-15.74836 19.40625,-35.57421 -14.06142,8.83183 -24.95899,12.17187 -24.95899,12.17187 0,0 15.67561,-31.92639 16.54883,-66.50586 1.51321,-59.92329 -9.24819,-108.77114 -15.36719,-131.35351 -3.68868,96.14732 9.55771,136.98694 -54.97461,256.26953"
       style="display:inline;fill:none;fill-opacity:1;stroke:#000000;stroke-width:4;stroke-linecap:round;stroke-dasharray:none;stroke-opacity:1"
       id="path15"
       sodipodi:nodetypes="cccccccccscc"
       color="coat-contour" /><path
       style="display:inline;fill:none;fill-opacity:1;stroke:#000000;stroke-width:5;stroke-linecap:round;stroke-opacity:1"
       d="m 460.05912,525.30386 c 66.16307,-122.2969 50.56702,-162.13605 55.28846,-263.66656 8.28757,5.65875 30.55748,23.77236 37.05705,80.27476 6.48607,-14.25847 10.03347,-25.99397 13.39752,-41.94935 27.37506,38.55588 15.76659,67.64116 10.84131,81.32062 -0.51102,1.41931 -0.49272,1.5865 -0.80884,2.6675 1.39751,-1.12091 1.50436,-1.23492 2.44848,-2.35867 5.97101,-7.10714 11.12913,-13.44025 18.64748,-22.95115 14.81434,33.58631 13.05852,51.41458 1.8585,70.04484 8.99948,-2.72101 12.00869,-4.85403 19.92926,-8.62832 4.51444,47.22918 -22.07901,60.53437 -26.96874,66.3464 6.48959,-0.0822 12.1165,-0.44891 18.13439,-2.03339 -10.99804,39.44075 -31.80431,51.10385 -48.09096,57.25177 5.39646,1.0386 10.83095,3.09402 16.90846,5.19399 -14.65759,13.80793 -40.26071,27.68045 -69.92877,26.10824"
       id="path16"
       color="coat-contour"
       sodipodi:nodetypes="ccccscscccccccc" /></g><g
     id="layer5"
     style="display:inline"
     data-layer="1000"
     sodipodi:insensitive="true"
     transform="translate(-7.00012)"><path
       style="display:inline;fill:#f700ff;fill-opacity:1;stroke:none;stroke-width:5;stroke-linecap:round;stroke-opacity:1"
       d="m 515.34758,261.6373 c 8.28757,5.65875 30.55748,23.77236 37.05705,80.27476 6.48607,-14.25847 10.03347,-25.99397 13.39752,-41.94935 30.21536,42.55625 12.93805,73.5747 9.57509,85.07439 7.30471,-8.62879 12.84621,-15.38136 21.55334,-26.39609 14.81434,33.58631 13.05852,51.41458 1.8585,70.04484 8.99948,-2.72101 12.00869,-4.85403 19.92926,-8.62832 4.51444,47.22918 -22.07901,60.53437 -26.96874,66.3464 6.48959,-0.0822 12.1165,-0.44891 18.13439,-2.03339 -10.99804,39.44075 -31.80431,51.10385 -48.09096,57.25177 5.39646,1.0386 10.83095,3.09402 16.90846,5.19399 -14.65759,13.80793 -40.26071,27.68045 -69.92877,26.10824 l -48.7136,-47.62068 c 66.16307,-122.2969 50.56702,-162.13605 55.28846,-263.66656 z"
       id="path18"
       color="detail-1"
       sodipodi:nodetypes="cccccccccccccc" /><path
       d="m 575.59375,549.60156 c -10.62051,-0.98288 -23.80846,-2.24723 -32.34961,-3.22265 -19.08916,-2.18005 -56.13672,-8.04493 -56.13672,-8.04493 l -2.3418,11.12305 24.00782,23.4668 c 27.67093,1.46637 51.80407,-10.50127 66.82031,-23.32227 z"
       style="display:inline;fill:#1000ff;fill-opacity:1;stroke-width:5;stroke-linecap:round"
       id="path9"
       color="detail-2" /><path
       d="m 601.67187,427.76758 c -9.09201,7.42927 -26.61534,21.2094 -41.64062,29.85937 -25.75156,14.82505 -63.31836,34.51172 -63.31836,34.51172 l 0.91406,19.21094 c 0,0 48.59132,-11.15719 72.53907,-18.03516 6.17788,-1.77433 14.15167,-4.281 22.2832,-6.91992 -0.23202,0.004 -0.46501,0.007 -0.69922,0.01 4.88973,-5.81203 31.48319,-19.11848 26.96875,-66.34766 -7.01028,3.34052 -10.17288,5.3962 -17.04688,7.71094 z"
       style="display:inline;fill:#002dff;fill-opacity:1;stroke-width:5;stroke-linecap:round"
       id="path8"
       color="detail-2" /><path
       d="m 553.60156,339.23242 c -2.15867,12.41415 -6.22386,32.3192 -11.80273,44.46875 -12.01312,26.16188 -24.96094,57.21094 -24.96094,57.21094 l -10.0625,33.8457 c -0.57604,1.03687 19.6932,-22.29538 42.08203,-51.26172 8.91536,-11.53457 19.83895,-29.00904 27.83399,-42.3457 4.95196,-13.73448 16.39785,-42.75632 -10.88868,-81.1875 -3.15111,14.94544 -6.46379,26.18747 -12.20117,39.26953 z"
       style="display:inline;fill:#0079ff;fill-opacity:1;stroke-width:5;stroke-linecap:round"
       id="path7"
       color="detail-2" /><path
       d="m 515.0332,269.03516 c -3.68868,96.14732 9.55771,136.98694 -54.97461,256.26953 0,0 12.46757,14.70726 19.70108,23.40052 10.36015,12.45088 29.01377,24.21862 29.01377,24.21862 14.023,0.74312 27.13706,-1.96423 38.61718,-6.48438 -15.16015,-5.43374 -34.75376,-14.12119 -43.50976,-25.04297 15.88469,-0.95227 33.30338,-5.16611 45.27734,-20.05078 -16.14586,-1.94702 -33.63476,-10.99609 -33.63476,-10.99609 0,0 31.1479,-4.62457 38.16406,-27.16797 -20.67793,6.91313 -34.2832,7.11523 -34.2832,7.11523 0,0 20.2843,-15.74836 19.40625,-35.57421 -14.06142,8.83183 -24.95899,12.17187 -24.95899,12.17187 0,0 15.67561,-31.92639 16.54883,-66.50586 1.51321,-59.92329 -9.24819,-108.77114 -15.36719,-131.35351 z"
       style="display:inline;fill:#ff2e00;fill-opacity:1;stroke-width:5;stroke-linecap:round"
       id="path3"
       sodipodi:nodetypes="ccscccccccccsc"
       color="coat" /><path
       d="m 508.77344,572.92383 c 14.023,0.74312 27.13706,-1.96423 38.61718,-6.48438 -15.16015,-5.43374 -34.75376,-14.12119 -43.50976,-25.04297 15.88469,-0.95227 33.30338,-5.16611 45.27734,-20.05078 -16.14586,-1.94702 -33.63476,-10.99609 -33.63476,-10.99609 0,0 31.1479,-4.62457 38.16406,-27.16797 -20.67793,6.91313 -34.2832,7.11523 -34.2832,7.11523 0,0 20.2843,-15.74836 19.40625,-35.57421 -14.06142,8.83183 -24.95899,12.17187 -24.95899,12.17187 0,0 15.67561,-31.92639 16.54883,-66.50586 1.51321,-59.92329 -9.24819,-108.77114 -15.36719,-131.35351 -3.68868,96.14732 9.55771,136.98694 -54.97461,256.26953"
       style="display:inline;fill:none;fill-opacity:1;stroke:#000000;stroke-width:4;stroke-linecap:round;stroke-dasharray:none;stroke-opacity:1"
       id="path4"
       sodipodi:nodetypes="cccccccccscc"
       color="coat-contour" /><path
       style="display:inline;fill:none;fill-opacity:1;stroke:#000000;stroke-width:5;stroke-linecap:round;stroke-opacity:1"
       d="m 460.05912,525.30386 c 66.16307,-122.2969 50.56702,-162.13605 55.28846,-263.66656 8.28757,5.65875 30.55748,23.77236 37.05705,80.27476 6.48607,-14.25847 10.03347,-25.99397 13.39752,-41.94935 27.37506,38.55588 15.76659,67.64116 10.84131,81.32062 -0.51102,1.41931 -0.49272,1.5865 -0.80884,2.6675 1.39751,-1.12091 1.50436,-1.23492 2.44848,-2.35867 5.97101,-7.10714 11.12913,-13.44025 18.64748,-22.95115 14.81434,33.58631 13.05852,51.41458 1.8585,70.04484 8.99948,-2.72101 12.00869,-4.85403 19.92926,-8.62832 4.51444,47.22918 -22.07901,60.53437 -26.96874,66.3464 6.48959,-0.0822 12.1165,-0.44891 18.13439,-2.03339 -10.99804,39.44075 -31.80431,51.10385 -48.09096,57.25177 5.39646,1.0386 10.83095,3.09402 16.90846,5.19399 -14.65759,13.80793 -40.26071,27.68045 -69.92877,26.10824"
       id="path1"
       color="coat-contour"
       sodipodi:nodetypes="ccccscscccccccc" /></g></svg>
