<?xml version="1.0" encoding="UTF-8" standalone="no"?>
<!-- Created with Inkscape (http://www.inkscape.org/) -->

<svg
   width="1000"
   height="1000"
   viewBox="0 0 1000 1000"
   version="1.1"
   id="svg1"
   xml:space="preserve"
   sodipodi:docname="012.svg"
   inkscape:version="1.4.2 (f4327f4, 2025-05-13)"
   xmlns:inkscape="http://www.inkscape.org/namespaces/inkscape"
   xmlns:sodipodi="http://sodipodi.sourceforge.net/DTD/sodipodi-0.dtd"
   xmlns="http://www.w3.org/2000/svg"
   xmlns:svg="http://www.w3.org/2000/svg"><sodipodi:namedview
     id="namedview1"
     pagecolor="#ffffff"
     bordercolor="#000000"
     borderopacity="0.25"
     inkscape:showpageshadow="2"
     inkscape:pageopacity="0.0"
     inkscape:pagecheckerboard="0"
     inkscape:deskcolor="#d1d1d1"
     inkscape:zoom="4.3727483"
     inkscape:cx="496.36975"
     inkscape:cy="490.19514"
     inkscape:window-width="1920"
     inkscape:window-height="991"
     inkscape:window-x="-9"
     inkscape:window-y="-9"
     inkscape:window-maximized="1"
     inkscape:current-layer="svg1" /><defs
     id="defs1" /><g
     id="g8"
     style="display:inline"
     data-layer="200"
     transform="matrix(0.90074775,-0.2928988,0.2928988,0.90074775,-115.01125,194.42959)"><path
       style="display:inline;fill:#eb00ff;fill-opacity:1;stroke:none;stroke-width:5;stroke-linecap:round;stroke-opacity:1"
       d="m 561.93318,439.95191 c 11.4289,-6.11008 62.5522,-52.24364 72.90784,-26.93935 13.388,32.71396 -69.84117,70.96614 -89.76048,83.81458 -30.45418,1.20832 -96.97428,21.03685 16.85264,-56.87523 z"
       id="path3"
       color="mane-hl-1"
       inkscape:label="1"
       sodipodi:nodetypes="cscc" /><path
       style="display:inline;fill:#1000ff;fill-opacity:1;stroke:none;stroke-width:5;stroke-linecap:round;stroke-opacity:1"
       d="m 484.82095,480.70455 c 14.17305,-45.36172 6.27976,-102.54359 30.18696,-143.61677 13.31934,-22.88298 49.3234,-71.36055 57.17229,-46.19521 8.77229,28.12598 -36.99161,95.64138 -38.44276,101.31602 7.07274,-5.86579 91.48892,-108.67733 109.79377,-88.50943 22.59346,24.89302 -73.58128,117.12718 -79.81925,129.46103 -22.29373,29.93598 -2.08913,41.81458 -25.16637,64.36724 -3.04113,2.972 20.69363,-7.42861 35.53711,9.35563 13.21733,14.94548 -41.39988,46.13354 -54.60537,45.21384 -28.27778,-1.96943 -38.6946,-58.46777 -34.65638,-71.39235 z"
       id="path4"
       color="mane-main"
       inkscape:label="1"
       sodipodi:nodetypes="ssscscssss" /><path
       style="display:inline;fill:#ff1400;fill-opacity:1;stroke:none;stroke-width:5;stroke-linecap:round;stroke-opacity:1"
       d="m 461.95204,533.30304 c 21.54003,-37.70641 28.67866,-71.30149 33.01311,-113.67347 2.9889,-29.29982 6.13436,-58.64681 20.04276,-82.54179 13.31935,-22.88298 49.3234,-71.36055 57.17229,-46.19521 8.77229,28.12598 -36.99161,95.64138 -38.44276,101.31602 -12.31647,21.47368 -8.20495,17.51874 -9.35327,22.40479 z"
       id="path5"
       color="mane-hl-2"
       inkscape:label="1"
       sodipodi:nodetypes="csssccc" /><path
       d="m 512.12695,553.88086 c 6.56423,-7.04154 15.49758,-18.35981 12.45313,-25.09766 -2.20391,-4.87759 -14.23047,-7.4375 -14.23047,-7.4375 0,0 65.68754,-52.43246 45.27734,-73.41601 -13.16274,-13.53251 -33.61315,20.94175 -45.27734,29.7539 4.75452,-12.52709 34.09183,-70.30838 9.05469,-79.55859 -10.38697,-3.83756 -19.47437,13.41442 -25.08985,27.85937 -1.95376,18.92134 -4.16292,37.65782 -9.49414,54.72071 -6.46663,20.69685 -22.86914,52.59765 -22.86914,52.59765 0,0 0.62624,7.91894 3.1369,14.82387 2.6005,7.15198 8.75568,14.44957 8.75568,14.44957 0,0 17.76669,-2.75859 38.2832,-8.69531 z"
       style="fill:#0060ff;fill-opacity:1;stroke:none;stroke-width:5;stroke-linecap:round;stroke-opacity:1"
       id="path6"
       color="coat" /><path
       d="m 473.84375,562.57617 c 0,0 17.76669,-2.75859 38.2832,-8.69531 2.35983,-0.41153 25.41386,-9.21168 21.83217,-27.03815 -1.82862,-9.10128 -16.81779,-8.73116 -16.81779,-8.73116 0,0 58.89582,-49.19831 38.48562,-70.18186 -13.16274,-13.53251 -33.61315,20.94175 -45.27734,29.7539 4.75452,-12.52709 34.09183,-70.30838 9.05469,-79.55859 -10.38697,-3.83756 -19.47437,13.41442 -25.08985,27.85937 -1.95376,18.92134 -4.16292,37.65782 -9.49414,54.72071 -6.46663,20.69685 -22.86914,52.59765 -22.86914,52.59765"
       style="display:inline;fill:none;fill-opacity:1;stroke:#eaeaea;stroke-width:5;stroke-linecap:round;stroke-opacity:1"
       id="path7"
       color="coat-contour"
       sodipodi:nodetypes="ccscscscsc" /><path
       style="display:inline;fill:none;stroke:#000000;stroke-width:5;stroke-linecap:round;stroke-opacity:1"
       d="m 461.95204,533.30304 c 0,0 16.40228,-31.90164 22.86891,-52.59849 14.17306,-45.36172 6.27976,-102.54359 30.18696,-143.61677 13.31934,-22.88298 49.3234,-71.36055 57.17229,-46.19521 8.77229,28.12598 -39.90235,100.81602 -41.3535,106.49066 7.07274,-5.86579 94.39966,-113.85197 112.70451,-93.68407 22.59346,24.89302 -79.07934,127.79988 -85.31731,140.13373 8.19475,-3.19934 66.27148,-56.12462 76.62712,-30.82033 13.388,32.71396 -78.25235,78.80182 -96.7163,84.53512 18.0852,-2.23291 33.39376,-0.62655 34.97024,10.14218 5.65085,38.60031 -99.25109,54.88539 -99.25109,54.88539"
       id="path8"
       color="coat-contour"
       sodipodi:nodetypes="cssscscscsc" /></g><g
     id="layer5"
     style="display:inline"
     data-layer="1000"><path
       style="display:inline;fill:#eb00ff;fill-opacity:1;stroke:none;stroke-width:5;stroke-linecap:round;stroke-opacity:1"
       d="m 561.93318,439.95191 c 11.4289,-6.11008 62.5522,-52.24364 72.90784,-26.93935 13.388,32.71396 -69.84117,70.96614 -89.76048,83.81458 -30.45418,1.20832 -96.97428,21.03685 16.85264,-56.87523 z"
       id="path2"
       color="mane-hl-1"
       inkscape:label="1"
       sodipodi:nodetypes="cscc" /><path
       style="display:inline;fill:#1000ff;fill-opacity:1;stroke:none;stroke-width:5;stroke-linecap:round;stroke-opacity:1"
       d="m 484.82095,480.70455 c 14.17305,-45.36172 6.27976,-102.54359 30.18696,-143.61677 13.31934,-22.88298 49.3234,-71.36055 57.17229,-46.19521 8.77229,28.12598 -36.99161,95.64138 -38.44276,101.31602 7.07274,-5.86579 91.48892,-108.67733 109.79377,-88.50943 22.59346,24.89302 -73.58128,117.12718 -79.81925,129.46103 -22.29373,29.93598 -2.08913,41.81458 -25.16637,64.36724 -3.04113,2.972 20.69363,-7.42861 35.53711,9.35563 13.21733,14.94548 -41.39988,46.13354 -54.60537,45.21384 -28.27778,-1.96943 -38.6946,-58.46777 -34.65638,-71.39235 z"
       id="path1"
       color="mane-main"
       inkscape:label="1"
       sodipodi:nodetypes="ssscscssss" /><path
       style="display:inline;fill:#ff1400;fill-opacity:1;stroke:none;stroke-width:5;stroke-linecap:round;stroke-opacity:1"
       d="m 461.95204,533.30304 c 21.54003,-37.70641 28.67866,-71.30149 33.01311,-113.67347 2.9889,-29.29982 6.13436,-58.64681 20.04276,-82.54179 13.31935,-22.88298 49.3234,-71.36055 57.17229,-46.19521 8.77229,28.12598 -36.99161,95.64138 -38.44276,101.31602 -12.31647,21.47368 -8.20495,17.51874 -9.35327,22.40479 z"
       id="path18"
       color="mane-hl-2"
       inkscape:label="1"
       sodipodi:nodetypes="csssccc" /><path
       d="m 512.12695,553.88086 c 6.56423,-7.04154 24.25013,-12.33668 20.68594,-25.55504 -1.85618,-6.88394 -13.73107,-9.6483 -13.73107,-9.6483 0,0 56.95533,-49.76428 36.54513,-70.74783 -13.16274,-13.53251 -33.61315,20.94175 -45.27734,29.7539 4.75452,-12.52709 34.09183,-70.30838 9.05469,-79.55859 -10.38697,-3.83756 -19.47437,13.41442 -25.08985,27.85937 -1.95376,18.92134 -4.16292,37.65782 -9.49414,54.72071 -6.46663,20.69685 -22.86914,52.59765 -22.86914,52.59765 0,0 0.62624,7.91894 3.1369,14.82387 2.6005,7.15198 8.75568,14.44957 8.75568,14.44957 0,0 17.76669,-2.75859 38.2832,-8.69531 z"
       style="fill:#00ff54;fill-opacity:1;stroke:none;stroke-width:5;stroke-linecap:round;stroke-opacity:1"
       id="path20"
       color="coat"
       sodipodi:nodetypes="cscscscscscc" /><path
       d="m 473.84375,562.57617 c 0,0 17.76669,-2.75859 38.2832,-8.69531 2.35983,-0.41153 25.41386,-9.21168 21.83217,-27.03815 -1.82862,-9.10128 -16.81779,-8.73116 -16.81779,-8.73116 0,0 58.89582,-49.19831 38.48562,-70.18186 -13.16274,-13.53251 -33.61315,20.94175 -45.27734,29.7539 4.75452,-12.52709 34.09183,-70.30838 9.05469,-79.55859 -10.38697,-3.83756 -19.47437,13.41442 -25.08985,27.85937 -1.95376,18.92134 -4.16292,37.65782 -9.49414,54.72071 -6.46663,20.69685 -22.86914,52.59765 -22.86914,52.59765"
       style="display:inline;fill:none;fill-opacity:1;stroke:#eaeaea;stroke-width:5;stroke-linecap:round;stroke-opacity:1"
       id="path21"
       color="coat-contour"
       sodipodi:nodetypes="ccscscscsc" /><path
       style="display:inline;fill:none;stroke:#000000;stroke-width:5;stroke-linecap:round;stroke-opacity:1"
       d="m 461.95204,533.30304 c 0,0 16.40228,-31.90164 22.86891,-52.59849 14.17306,-45.36172 6.27976,-102.54359 30.18696,-143.61677 13.31934,-22.88298 49.3234,-71.36055 57.17229,-46.19521 8.77229,28.12598 -39.90235,100.81602 -41.3535,106.49066 7.07274,-5.86579 94.39966,-113.85197 112.70451,-93.68407 22.59346,24.89302 -79.07934,127.79988 -85.31731,140.13373 8.19475,-3.19934 66.27148,-56.12462 76.62712,-30.82033 13.388,32.71396 -78.25235,78.80182 -96.7163,84.53512 18.0852,-2.23291 33.39376,-0.62655 34.97024,10.14218 5.65085,38.60031 -99.25109,54.88539 -99.25109,54.88539"
       id="path22"
       color="coat-contour"
       sodipodi:nodetypes="cssscscscsc" /></g></svg>
