<?xml version="1.0" encoding="UTF-8" standalone="no"?>
<!-- Created with Inkscape (http://www.inkscape.org/) -->

<svg
   width="1000"
   height="1000"
   viewBox="0 0 1000 1000"
   version="1.1"
   id="svg1"
   xml:space="preserve"
   sodipodi:docname="Umbrum1.svg"
   inkscape:version="1.4.2 (f4327f4, 2025-05-13)"
   xmlns:inkscape="http://www.inkscape.org/namespaces/inkscape"
   xmlns:sodipodi="http://sodipodi.sourceforge.net/DTD/sodipodi-0.dtd"
   xmlns="http://www.w3.org/2000/svg"
   xmlns:svg="http://www.w3.org/2000/svg"><sodipodi:namedview
     id="namedview1"
     pagecolor="#ffffff"
     bordercolor="#000000"
     borderopacity="0.25"
     inkscape:showpageshadow="2"
     inkscape:pageopacity="0.0"
     inkscape:pagecheckerboard="0"
     inkscape:deskcolor="#d1d1d1"
     inkscape:zoom="1.546"
     inkscape:cx="439.52135"
     inkscape:cy="382.60026"
     inkscape:window-width="1920"
     inkscape:window-height="991"
     inkscape:window-x="-9"
     inkscape:window-y="-9"
     inkscape:window-maximized="1"
     inkscape:current-layer="svg1" /><defs
     id="defs1" /><g
     id="g35"
     data-layer="250"
     transform="matrix(0.62727301,-0.51940253,0.51940253,0.62727301,-116.95375,443.17885)"><path
       style="opacity:1;fill:#8aedad;fill-opacity:1;fill-rule:evenodd;stroke:none;stroke-width:5;stroke-linecap:round;stroke-miterlimit:100;stroke-dasharray:none;stroke-opacity:1"
       d="m 453.26185,553.42769 c -23.08053,-183.2307 225.41108,-372.68019 206.2776,-218.6268 -10.97978,88.40378 -98.79371,136.75609 -98.79371,136.75609 0,0 42.14953,8.25978 26.98532,38.87715 -24.16593,48.79235 -79.52634,48.11699 -134.46921,42.99356 z"
       id="path30"
       sodipodi:nodetypes="cscsc"
       color="coat" /><path
       style="opacity:1;fill:#1f5b0e;fill-opacity:1;fill-rule:evenodd;stroke:none;stroke-width:2;stroke-linecap:round;stroke-miterlimit:100;stroke-dasharray:none;stroke-opacity:1"
       d="m 455.04527,552.39328 c -2.01631,-12.10106 -0.64683,-61.4489 -0.64683,-61.4489 0,0 9.08261,-38.70617 14.71344,-48.14012 14.80167,-24.79887 30.73978,-40.61101 51.14534,-32.03114 3.3548,-86.71717 92.93489,-133.05689 119.83886,-112.2577 15.37727,11.888 7.82442,84.36555 -20.63321,113.77557 -16.45719,17.00796 -40.51999,41.15433 -49.08131,27.25436 -10.14704,-16.47448 -0.51179,-32.35401 7.33558,-42.34784 9.39366,-11.96307 25.39715,-10.61696 31.13185,8.64575 10.40491,-24.24654 -27.07959,-30.41141 -36.11957,-16.81701 -18.26187,27.46234 -18.38426,50.20408 -7.3973,56.92638 5.30165,3.24378 13.86746,6.19243 20.95126,5.22074 7.99059,-1.09608 -21.48311,18.87788 -24.32559,18.87187 -37.11836,-0.0785 -42.58455,12.08013 -26.86723,37.71673 -16.16708,-38.48626 20.61726,-36.19154 30.07762,-22.15396 22.20813,32.95312 -13.57686,63.30283 -49.64425,67.75551 0,0 -52.26681,4.67463 -60.47866,-0.97024 z"
       id="path31"
       sodipodi:nodetypes="ccscsssscsssscscc"
       color="detail-2" /><path
       style="opacity:1;fill:#8aedad;fill-opacity:1;fill-rule:evenodd;stroke:none;stroke-width:2;stroke-linecap:round;stroke-miterlimit:100;stroke-dasharray:none;stroke-opacity:1"
       d="m 470.64222,498.08492 c 0,0 19.65921,-98.4896 56.25753,-58.54442 41.88354,-159.54705 122.57737,-121.66261 122.57737,-121.66261 0,0 6.52408,4.57398 0.5625,3.78226 -22.86106,-3.03605 -89.59053,0.63052 -120.85298,124.74103 -38.80546,-32.05612 -58.54442,51.68374 -58.54442,51.68374 z"
       id="path32"
       sodipodi:nodetypes="cccscc"
       color="coat" /><path
       style="opacity:1;fill:none;fill-rule:evenodd;stroke:#000000;stroke-width:5;stroke-linecap:round;stroke-miterlimit:100;stroke-dasharray:none;stroke-opacity:1"
       d="m 453.26185,553.42769 c -23.08053,-183.2307 225.41108,-372.68019 206.2776,-218.6268 -10.97978,88.40378 -98.79371,136.75609 -98.79371,136.75609 0,0 42.14953,8.25978 26.98532,38.87715 -24.16593,48.79235 -79.52634,48.11699 -134.46921,42.99356 z"
       id="path33"
       sodipodi:nodetypes="cscsc"
       color="coat-contour" /><path
       style="opacity:1;fill:#8aedad;fill-opacity:1;fill-rule:evenodd;stroke:none;stroke-width:2;stroke-linecap:round;stroke-miterlimit:100;stroke-dasharray:none;stroke-opacity:1"
       d="m 608.31308,357.6698 c -3.92264,-6.26851 6.25044,-15.94968 12.5779,-15.77956 6.32746,0.17013 12.25227,5.23218 9.83363,11.20577 -2.41864,5.97359 -18.36698,11.03711 -22.41153,4.57379 z"
       id="path34"
       sodipodi:nodetypes="szzs"
       color="coat" /><path
       style="opacity:1;fill:#8aedad;fill-opacity:1;fill-rule:evenodd;stroke:none;stroke-width:2;stroke-linecap:round;stroke-miterlimit:100;stroke-dasharray:none;stroke-opacity:1"
       d="m 510.5448,497.73743 c -10.11995,3.98943 -14.51872,-9.09215 -13.18142,-15.27902 1.33731,-6.18686 8.37795,-8.48606 13.80124,-5.00446 5.42329,3.4816 6.4734,17.48723 -0.61982,20.28348 z"
       id="path35"
       sodipodi:nodetypes="szzs"
       color="coat" /></g><g
     id="g26"
     data-layer="1000"><path
       style="opacity:1;fill:#8aedad;fill-opacity:1;fill-rule:evenodd;stroke:none;stroke-width:5;stroke-linecap:round;stroke-miterlimit:100;stroke-dasharray:none;stroke-opacity:1"
       d="m 453.26185,553.42769 c -23.08053,-183.2307 225.41108,-372.68019 206.2776,-218.6268 -10.97978,88.40378 -98.79371,136.75609 -98.79371,136.75609 0,0 42.14953,8.25978 26.98532,38.87715 -24.16593,48.79235 -79.52634,48.11699 -134.46921,42.99356 z"
       id="path23"
       sodipodi:nodetypes="cscsc"
       color="coat" /><path
       style="opacity:1;fill:#1f5b0e;fill-opacity:1;fill-rule:evenodd;stroke:none;stroke-width:2;stroke-linecap:round;stroke-miterlimit:100;stroke-dasharray:none;stroke-opacity:1"
       d="m 455.04527,552.39328 c -2.01631,-12.10106 -0.64683,-61.4489 -0.64683,-61.4489 0,0 9.08261,-38.70617 14.71344,-48.14012 14.80167,-24.79887 30.73978,-40.61101 51.14534,-32.03114 3.3548,-86.71717 92.93489,-133.05689 119.83886,-112.2577 15.37727,11.888 7.82442,84.36555 -20.63321,113.77557 -16.45719,17.00796 -40.51999,41.15433 -49.08131,27.25436 -10.14704,-16.47448 -0.51179,-32.35401 7.33558,-42.34784 9.39366,-11.96307 25.39715,-10.61696 31.13185,8.64575 10.40491,-24.24654 -27.07959,-30.41141 -36.11957,-16.81701 -18.26187,27.46234 -18.38426,50.20408 -7.3973,56.92638 5.30165,3.24378 13.86746,6.19243 20.95126,5.22074 7.99059,-1.09608 -21.48311,18.87788 -24.32559,18.87187 -37.11836,-0.0785 -42.58455,12.08013 -26.86723,37.71673 -16.16708,-38.48626 20.61726,-36.19154 30.07762,-22.15396 22.20813,32.95312 -13.57686,63.30283 -49.64425,67.75551 0,0 -52.26681,4.67463 -60.47866,-0.97024 z"
       id="path25"
       sodipodi:nodetypes="ccscsssscsssscscc"
       color="detail-2" /><path
       style="opacity:1;fill:#8aedad;fill-opacity:1;fill-rule:evenodd;stroke:none;stroke-width:2;stroke-linecap:round;stroke-miterlimit:100;stroke-dasharray:none;stroke-opacity:1"
       d="m 470.64222,498.08492 c 0,0 19.65921,-98.4896 56.25753,-58.54442 41.88354,-159.54705 122.57737,-121.66261 122.57737,-121.66261 0,0 6.52408,4.57398 0.5625,3.78226 -22.86106,-3.03605 -89.59053,0.63052 -120.85298,124.74103 -38.80546,-32.05612 -58.54442,51.68374 -58.54442,51.68374 z"
       id="path27"
       sodipodi:nodetypes="cccscc"
       color="coat" /><path
       style="opacity:1;fill:none;fill-rule:evenodd;stroke:#000000;stroke-width:5;stroke-linecap:round;stroke-miterlimit:100;stroke-dasharray:none;stroke-opacity:1"
       d="m 453.26185,553.42769 c -23.08053,-183.2307 225.41108,-372.68019 206.2776,-218.6268 -10.97978,88.40378 -98.79371,136.75609 -98.79371,136.75609 0,0 42.14953,8.25978 26.98532,38.87715 -24.16593,48.79235 -79.52634,48.11699 -134.46921,42.99356 z"
       id="path26"
       sodipodi:nodetypes="cscsc"
       color="coat-contour" /><path
       style="opacity:1;fill:#8aedad;fill-opacity:1;fill-rule:evenodd;stroke:none;stroke-width:2;stroke-linecap:round;stroke-miterlimit:100;stroke-dasharray:none;stroke-opacity:1"
       d="m 608.31308,357.6698 c -3.92264,-6.26851 6.25044,-15.94968 12.5779,-15.77956 6.32746,0.17013 12.25227,5.23218 9.83363,11.20577 -2.41864,5.97359 -18.36698,11.03711 -22.41153,4.57379 z"
       id="path28"
       sodipodi:nodetypes="szzs"
       color="coat" /><path
       style="opacity:1;fill:#8aedad;fill-opacity:1;fill-rule:evenodd;stroke:none;stroke-width:2;stroke-linecap:round;stroke-miterlimit:100;stroke-dasharray:none;stroke-opacity:1"
       d="m 510.5448,497.73743 c -10.11995,3.98943 -14.51872,-9.09215 -13.18142,-15.27902 1.33731,-6.18686 8.37795,-8.48606 13.80124,-5.00446 5.42329,3.4816 6.4734,17.48723 -0.61982,20.28348 z"
       id="path29"
       sodipodi:nodetypes="szzs"
       color="coat" /></g></svg>
