<?xml version="1.0" encoding="UTF-8" standalone="no"?>
<!-- Created with Inkscape (http://www.inkscape.org/) -->

<svg
   width="1000"
   height="1000"
   viewBox="0 0 1000 1000"
   version="1.1"
   id="svg1"
   xml:space="preserve"
   sodipodi:docname="Umbrum.svg"
   inkscape:version="1.4.2 (f4327f4, 2025-05-13)"
   xmlns:inkscape="http://www.inkscape.org/namespaces/inkscape"
   xmlns:sodipodi="http://sodipodi.sourceforge.net/DTD/sodipodi-0.dtd"
   xmlns="http://www.w3.org/2000/svg"
   xmlns:svg="http://www.w3.org/2000/svg"><sodipodi:namedview
     id="namedview1"
     pagecolor="#ffffff"
     bordercolor="#000000"
     borderopacity="0.25"
     inkscape:showpageshadow="2"
     inkscape:pageopacity="0.0"
     inkscape:pagecheckerboard="0"
     inkscape:deskcolor="#d1d1d1"
     inkscape:zoom="2.1863742"
     inkscape:cx="394.03137"
     inkscape:cy="389.00021"
     inkscape:window-width="1920"
     inkscape:window-height="991"
     inkscape:window-x="-9"
     inkscape:window-y="-9"
     inkscape:window-maximized="1"
     inkscape:current-layer="svg1" /><defs
     id="defs1" /><g
     id="g18"
     data-layer="250"
     transform="matrix(0.62727301,-0.51940253,0.51940253,0.62727301,-116.95375,443.17885)"><path
       style="opacity:1;fill:#8aedad;fill-opacity:1;fill-rule:evenodd;stroke:none;stroke-width:5;stroke-linecap:round;stroke-miterlimit:100;stroke-dasharray:none;stroke-opacity:1"
       d="m 453.26185,553.42769 c -23.08053,-183.2307 225.41108,-372.68019 206.2776,-218.6268 -10.97978,88.40378 -98.79371,136.75609 -98.79371,136.75609 0,0 42.14953,8.25978 26.98532,38.87715 -24.16593,48.79235 -79.52634,48.11699 -134.46921,42.99356 z"
       id="path18"
       sodipodi:nodetypes="cscsc"
       color="coat" /><path
       d="m 648.23633,283.88086 c -23.33124,4.26659 -63.49061,15.08626 -90.23438,41.31445 -40.42176,39.6425 -80.5,149.5625 -80.5,149.5625 0,0 11.57444,-16.60929 20.125,-16.00781 3.98041,0.28 8.23242,8.69141 8.23242,8.69141 0,0 20.30248,-33.81169 36.13477,-31.56055 9.5045,1.35141 15.55078,24.24219 15.55078,24.24219 0,0 42.33243,-22.62929 47.10938,-43.45118 5.49508,-23.9521 16.96742,-74.60758 -7.58008,-73.45898 -21.40026,1.00134 -63.52156,49.92577 -50.55274,67.63281 3.77887,5.15949 19.18388,-0.57007 25.31836,-17.67578 6.74095,-18.79683 -10.54882,-13.32031 -10.54882,-13.32031 0,0 21.91174,-15.72082 20.4707,5.39648 -3.71107,54.38286 -57.35259,41.01984 -50.28906,13.58789 14.68483,-57.03008 59.92434,-91.29098 88.27539,-82.78515 18.289,5.48703 26.64034,38.7707 29.85547,56.71094 4.73328,-11.68325 8.24481,-24.34607 9.93554,-37.95899 3.30975,-26.64845 -1.38726,-43.01838 -11.30273,-50.91992 z"
       style="opacity:1;fill:#1f5b0e;fill-opacity:1;fill-rule:evenodd;stroke:none;stroke-width:5;stroke-linecap:round;stroke-miterlimit:100"
       id="path21"
       color="detail-2" /><path
       style="opacity:1;fill:#1f5b0e;fill-opacity:1;fill-rule:evenodd;stroke:none;stroke-width:2;stroke-linecap:round;stroke-miterlimit:100;stroke-dasharray:none;stroke-opacity:1"
       d="m 467.65847,542.04399 c -2.01631,-12.10106 0.64683,-30.07762 0.64683,-30.07762 0,0 10.7605,-21.25055 21.74057,-21.62959 4.13927,-0.14289 12.21804,7.0759 12.21804,7.0759 0,0 14.25076,-30.44314 28.62225,-33.63519 8.7359,-1.94033 18.63187,3.32621 21.34541,11.15782 8.58662,0.41404 59.63079,17.30771 0.1617,57.0828 -19.38792,12.96735 -59.28716,8.84159 -48.79386,-9.7292 17.07208,-30.21374 50.00951,-16.72622 42.07539,-8.91674 -7.3454,7.23002 -33.51676,8.64194 -16.72585,-2.35295 -5.58628,-0.0294 -24.73424,14.21028 8.0821,11.94326 10.56049,-0.72953 26.0087,-9.05985 20.53686,-16.81758 -13.72974,-19.46543 -55.19628,-10.926 -63.62214,18.39926 -3.06228,10.65794 9.6118,23.64472 9.6118,23.64472 0,0 -27.68725,-0.50002 -35.8991,-6.14489 z"
       id="path22"
       sodipodi:nodetypes="ccscscssscssscc"
       color="detail-2" /><path
       style="opacity:1;fill:none;fill-rule:evenodd;stroke:#000000;stroke-width:5;stroke-linecap:round;stroke-miterlimit:100;stroke-dasharray:none;stroke-opacity:1"
       d="m 453.26185,553.42769 c -23.08053,-183.2307 225.41108,-372.68019 206.2776,-218.6268 -10.97978,88.40378 -98.79371,136.75609 -98.79371,136.75609 0,0 42.14953,8.25978 26.98532,38.87715 -24.16593,48.79235 -79.52634,48.11699 -134.46921,42.99356 z"
       id="path19"
       sodipodi:nodetypes="cscsc"
       color="coat-contour" /></g><g
     id="g26"
     data-layer="1000"
     sodipodi:insensitive="true"><path
       style="opacity:1;fill:#8aedad;fill-opacity:1;fill-rule:evenodd;stroke:none;stroke-width:5;stroke-linecap:round;stroke-miterlimit:100;stroke-dasharray:none;stroke-opacity:1"
       d="m 453.26185,553.42769 c -23.08053,-183.2307 225.41108,-372.68019 206.2776,-218.6268 -10.97978,88.40378 -98.79371,136.75609 -98.79371,136.75609 0,0 42.14953,8.25978 26.98532,38.87715 -24.16593,48.79235 -79.52634,48.11699 -134.46921,42.99356 z"
       id="path23"
       sodipodi:nodetypes="cscsc"
       color="coat" /><path
       d="m 648.23633,283.88086 c -23.33124,4.26659 -63.49061,15.08626 -90.23438,41.31445 -40.42176,39.6425 -80.5,149.5625 -80.5,149.5625 0,0 11.57444,-16.60929 20.125,-16.00781 3.98041,0.28 8.23242,8.69141 8.23242,8.69141 0,0 20.30248,-33.81169 36.13477,-31.56055 9.5045,1.35141 15.55078,24.24219 15.55078,24.24219 0,0 42.33243,-22.62929 47.10938,-43.45118 5.49508,-23.9521 16.96742,-74.60758 -7.58008,-73.45898 -21.40026,1.00134 -63.52156,49.92577 -50.55274,67.63281 3.77887,5.15949 19.18388,-0.57007 25.31836,-17.67578 6.74095,-18.79683 -10.54882,-13.32031 -10.54882,-13.32031 0,0 21.91174,-15.72082 20.4707,5.39648 -3.71107,54.38286 -57.35259,41.01984 -50.28906,13.58789 14.68483,-57.03008 59.92434,-91.29098 88.27539,-82.78515 18.289,5.48703 26.64034,38.7707 29.85547,56.71094 4.73328,-11.68325 8.24481,-24.34607 9.93554,-37.95899 3.30975,-26.64845 -1.38726,-43.01838 -11.30273,-50.91992 z"
       style="opacity:1;fill:#1f5b0e;fill-opacity:1;fill-rule:evenodd;stroke:none;stroke-width:5;stroke-linecap:round;stroke-miterlimit:100"
       id="path24"
       color="detail-2" /><path
       style="opacity:1;fill:#1f5b0e;fill-opacity:1;fill-rule:evenodd;stroke:none;stroke-width:2;stroke-linecap:round;stroke-miterlimit:100;stroke-dasharray:none;stroke-opacity:1"
       d="m 467.65847,542.04399 c -2.01631,-12.10106 0.64683,-30.07762 0.64683,-30.07762 0,0 10.7605,-21.25055 21.74057,-21.62959 4.13927,-0.14289 12.21804,7.0759 12.21804,7.0759 0,0 14.25076,-30.44314 28.62225,-33.63519 8.7359,-1.94033 18.63187,3.32621 21.34541,11.15782 8.58662,0.41404 59.63079,17.30771 0.1617,57.0828 -19.38792,12.96735 -59.28716,8.84159 -48.79386,-9.7292 17.07208,-30.21374 50.00951,-16.72622 42.07539,-8.91674 -7.3454,7.23002 -33.51676,8.64194 -16.72585,-2.35295 -5.58628,-0.0294 -24.73424,14.21028 8.0821,11.94326 10.56049,-0.72953 26.0087,-9.05985 20.53686,-16.81758 -13.72974,-19.46543 -55.19628,-10.926 -63.62214,18.39926 -3.06228,10.65794 9.6118,23.64472 9.6118,23.64472 0,0 -27.68725,-0.50002 -35.8991,-6.14489 z"
       id="path25"
       sodipodi:nodetypes="ccscscssscssscc"
       color="detail-2" /><path
       style="opacity:1;fill:none;fill-rule:evenodd;stroke:#000000;stroke-width:5;stroke-linecap:round;stroke-miterlimit:100;stroke-dasharray:none;stroke-opacity:1"
       d="m 453.26185,553.42769 c -23.08053,-183.2307 225.41108,-372.68019 206.2776,-218.6268 -10.97978,88.40378 -98.79371,136.75609 -98.79371,136.75609 0,0 42.14953,8.25978 26.98532,38.87715 -24.16593,48.79235 -79.52634,48.11699 -134.46921,42.99356 z"
       id="path26"
       sodipodi:nodetypes="cscsc"
       color="coat-contour" /></g></svg>
