<?xml version="1.0" encoding="UTF-8" standalone="no"?>
<!-- Created with Inkscape (http://www.inkscape.org/) -->

<svg
   width="1000"
   height="1000"
   viewBox="0 0 1000 1000"
   version="1.1"
   id="svg1"
   xml:space="preserve"
   xmlns="http://www.w3.org/2000/svg"
   xmlns:svg="http://www.w3.org/2000/svg"><defs
     id="defs1" /><g
     id="g5"
     style="display:inline"
     data-layer="150"
     transform="rotate(-10.065289,509.60782,616.74066)"><path
       style="display:inline;fill:#97ff00;fill-opacity:1;stroke:none;stroke-width:5;stroke-linecap:round;stroke-opacity:1"
       d="m 461.95204,533.30304 c 42.50428,-60.67486 68.38218,-155.63782 122.11999,-206.73496 45.51626,-43.2796 108.54363,-49.57689 158.51079,-72.00397 47.5165,-21.32715 66.40672,-46.77766 76.923,-39.66349 9.38527,6.34905 8.67138,29.4993 -41.77995,67.23804 -23.74291,17.76022 -104.82316,56.14726 -109.9766,62.04521 4.21001,-0.75465 42.61862,-10.4019 78.66603,-23.1391 35.58827,-12.57498 68.7883,-28.31219 77.88206,-18.29287 11.76281,12.96003 -35.15899,45.69009 -84.38598,66.18496 -45.3259,18.87071 -85.62119,27.20912 -95.70085,31.74947 3.94609,1.98393 43.29541,3.52029 77.57734,-1.05826 32.93706,-4.39893 60.82711,-15.14604 65.90134,-2.74703 3.31123,8.09109 -47.24646,27.93547 -93.02961,40.39787 -21.80433,5.93525 -33.84667,8.52592 -71.41565,10.44318 23.37866,16.54406 99.76799,27.64018 79.18592,36.13609 -37.95657,15.6678 -105.65251,-2.453 -112.52627,-3.03929 4.02139,7.34906 16.45158,28.56879 12.71687,40.52615 -14.96929,47.92695 -112.31098,26.59411 -112.31098,26.59411 z"
       id="path3"
       color="coat" /><path
       style="fill:none;fill-opacity:1;stroke:#000000;stroke-width:5;stroke-linecap:round;stroke-opacity:1"
       d="m 461.95204,533.30304 c 42.50428,-60.67486 68.38218,-155.63782 122.11999,-206.73496 45.51626,-43.2796 108.54363,-49.57689 158.51079,-72.00397 47.5165,-21.32715 66.40672,-46.77766 76.923,-39.66349 9.38527,6.34905 8.67138,29.4993 -41.77995,67.23804 -23.74291,17.76022 -104.82316,56.14726 -109.9766,62.04521 4.21001,-0.75465 42.61862,-10.4019 78.66603,-23.1391 35.58827,-12.57498 68.7883,-28.31219 77.88206,-18.29287 11.76281,12.96003 -35.15899,45.69009 -84.38598,66.18496 -45.3259,18.87071 -85.62119,27.20912 -95.70085,31.74947 3.94609,1.98393 43.29541,3.52029 77.57734,-1.05826 32.93706,-4.39893 60.82711,-15.14604 65.90134,-2.74703 3.31123,8.09109 -47.24646,27.93547 -93.02961,40.39787 -21.80433,5.93525 -33.84667,8.52592 -71.41565,10.44318 23.37866,16.54406 99.76799,27.64018 79.18592,36.13609 -37.95657,15.6678 -105.65251,-2.453 -112.52627,-3.03929 4.02139,7.34906 16.45158,28.56879 12.71687,40.52615 -14.96929,47.92695 -112.31098,26.59411 -112.31098,26.59411"
       id="path4"
       color="coat-contour" /></g><g
     id="layer5"
     style="display:inline"
     data-layer="1000"><path
       style="display:inline;fill:#97ff00;fill-opacity:1;stroke:none;stroke-width:5;stroke-linecap:round;stroke-opacity:1"
       d="m 461.95204,533.30304 c 42.50428,-60.67486 68.38218,-155.63782 122.11999,-206.73496 45.51626,-43.2796 108.54363,-49.57689 158.51079,-72.00397 47.5165,-21.32715 66.40672,-46.77766 76.923,-39.66349 9.38527,6.34905 8.67138,29.4993 -41.77995,67.23804 -23.74291,17.76022 -104.82316,56.14726 -109.9766,62.04521 4.21001,-0.75465 42.61862,-10.4019 78.66603,-23.1391 35.58827,-12.57498 68.7883,-28.31219 77.88206,-18.29287 11.76281,12.96003 -35.15899,45.69009 -84.38598,66.18496 -45.3259,18.87071 -85.62119,27.20912 -95.70085,31.74947 3.94609,1.98393 43.29541,3.52029 77.57734,-1.05826 32.93706,-4.39893 60.82711,-15.14604 65.90134,-2.74703 3.31123,8.09109 -47.24646,27.93547 -93.02961,40.39787 -21.80433,5.93525 -33.84667,8.52592 -71.41565,10.44318 23.37866,16.54406 99.76799,27.64018 79.18592,36.13609 -37.95657,15.6678 -105.65251,-2.453 -112.52627,-3.03929 4.02139,7.34906 16.45158,28.56879 12.71687,40.52615 -14.96929,47.92695 -112.31098,26.59411 -112.31098,26.59411 z"
       id="path18"
       color="coat" /><path
       style="fill:none;fill-opacity:1;stroke:#000000;stroke-width:5;stroke-linecap:round;stroke-opacity:1"
       d="m 461.95204,533.30304 c 42.50428,-60.67486 68.38218,-155.63782 122.11999,-206.73496 45.51626,-43.2796 108.54363,-49.57689 158.51079,-72.00397 47.5165,-21.32715 66.40672,-46.77766 76.923,-39.66349 9.38527,6.34905 8.67138,29.4993 -41.77995,67.23804 -23.74291,17.76022 -104.82316,56.14726 -109.9766,62.04521 4.21001,-0.75465 42.61862,-10.4019 78.66603,-23.1391 35.58827,-12.57498 68.7883,-28.31219 77.88206,-18.29287 11.76281,12.96003 -35.15899,45.69009 -84.38598,66.18496 -45.3259,18.87071 -85.62119,27.20912 -95.70085,31.74947 3.94609,1.98393 43.29541,3.52029 77.57734,-1.05826 32.93706,-4.39893 60.82711,-15.14604 65.90134,-2.74703 3.31123,8.09109 -47.24646,27.93547 -93.02961,40.39787 -21.80433,5.93525 -33.84667,8.52592 -71.41565,10.44318 23.37866,16.54406 99.76799,27.64018 79.18592,36.13609 -37.95657,15.6678 -105.65251,-2.453 -112.52627,-3.03929 4.02139,7.34906 16.45158,28.56879 12.71687,40.52615 -14.96929,47.92695 -112.31098,26.59411 -112.31098,26.59411"
       id="path1"
       color="coat-contour" /><path
       style="fill:none;fill-rule:evenodd;stroke:#000000;stroke-width:5;stroke-linecap:round;stroke-opacity:1"
       d="m 497.7361,469.92238 c 0,0 94.61583,-148.08815 123.86804,-118.6934 18.79427,18.88585 -31.7831,68.73168 -46.89521,86.67529 6.64009,-2.07954 25.95393,-19.27025 31.3483,-9.25181 13.95661,25.92028 -53.57196,63.97825 -58.19177,67.78997 3.41988,-0.3015 24.0932,-7.78823 26.19664,0.24256 6.84512,26.13431 -72.44502,38.24386 -72.44502,38.24386"
       id="path2"
       color="coat-contour" /></g></svg>
