<?xml version="1.0" encoding="UTF-8" standalone="no"?>
<!-- Created with Inkscape (http://www.inkscape.org/) -->

<svg
   width="1000"
   height="1000"
   viewBox="0 0 1000 1000"
   version="1.1"
   id="svg1"
   xml:space="preserve"
   xmlns="http://www.w3.org/2000/svg"
   xmlns:svg="http://www.w3.org/2000/svg"><defs
     id="defs1" /><g
     id="g5"
     transform="matrix(0.74720876,-0.46387187,0.46387187,0.74720876,-107.87458,342.77508)"
     data-layer="250"><path
       style="display:inline;fill:#393ab4;fill-opacity:0.468454;fill-rule:evenodd;stroke:none;stroke-width:3;stroke-linecap:round;stroke-dasharray:none;stroke-opacity:1"
       d="m 449.14545,533.76042 c 0,0 49.28935,-37.87177 64.1899,-63.25889 16.36901,-27.88903 23.5205,-84.09538 23.5205,-84.09538 0,0 3.23523,6.57416 4.18221,10.65366 1.49053,6.42114 1.78908,11.50025 1.78908,11.50025 0,0 27.29374,-22.05984 43.89087,-30.37403 14.87306,-7.45053 49.49514,-17.31459 49.49514,-17.31459 l 10.97708,-13.72134 c 0,0 -43.41817,13.84557 -63.57558,24.24104 -12.70249,6.55086 -35.6755,23.78367 -35.6755,23.78367 0,0 -3.20794,-11.05387 -5.67799,-16.51159 -2.84545,-6.28717 -10.1083,-15.06573 -10.1083,-15.06573 0,0 -3.19054,63.50457 -22.03739,99.47698 -11.80773,22.53707 -47.05972,52.55357 -53.94288,56.90911 -3.78909,2.39767 -7.02714,13.77684 -7.02714,13.77684 z"
       id="path4"
       color="mane-hl-2" /><path
       style="display:inline;fill:#7b39b4;fill-opacity:0.537855;fill-rule:evenodd;stroke:none;stroke-width:3;stroke-linecap:round;stroke-dasharray:none;stroke-opacity:1"
       d="m 449.14545,533.76042 c 0,0 49.18973,-38.15919 64.1899,-63.48758 15.5686,-26.28821 23.5205,-83.86669 23.5205,-83.86669 0,0 3.43736,6.73587 4.38434,10.81537 1.49053,6.42114 1.6678,11.21726 1.6678,11.21726 0,0 27.17246,-21.97899 43.76959,-30.29318 14.87306,-7.45053 49.53557,-17.27416 49.53557,-17.27416 -13.01193,23.69725 -24.58619,29.60452 -30.75008,54.35512 -5.11422,20.53578 -1.87029,23.06644 6.17066,32.64753 -15.45865,-1.92106 -37.89582,-5.0589 -60.88449,12.26285 -16.55762,12.47602 42.89614,15.47741 58.65472,13.61023 -32.82972,19.62633 -43.02676,54.60843 -94.20808,65.1562 -30.26574,6.23736 -66.05043,-5.14295 -66.05043,-5.14295 z"
       id="path5"
       color="mane-hl-1" /></g><g
     id="layer1"
     style="display:inline"
     data-layer="1000"><path
       style="display:inline;fill:#393ab4;fill-opacity:0.468454;fill-rule:evenodd;stroke:none;stroke-width:3;stroke-linecap:round;stroke-dasharray:none;stroke-opacity:1"
       d="m 449.14545,533.76042 c 0,0 49.28935,-37.87177 64.1899,-63.25889 16.36901,-27.88903 23.5205,-84.09538 23.5205,-84.09538 0,0 3.23523,6.57416 4.18221,10.65366 1.49053,6.42114 1.78908,11.50025 1.78908,11.50025 0,0 27.29374,-22.05984 43.89087,-30.37403 14.87306,-7.45053 49.49514,-17.31459 49.49514,-17.31459 l 10.97708,-13.72134 c 0,0 -43.41817,13.84557 -63.57558,24.24104 -12.70249,6.55086 -35.6755,23.78367 -35.6755,23.78367 0,0 -3.20794,-11.05387 -5.67799,-16.51159 -2.84545,-6.28717 -10.1083,-15.06573 -10.1083,-15.06573 0,0 -3.19054,63.50457 -22.03739,99.47698 -11.80773,22.53707 -47.05972,52.55357 -53.94288,56.90911 -3.78909,2.39767 -7.02714,13.77684 -7.02714,13.77684 z"
       id="path2"
       color="mane-hl-2" /><path
       style="display:inline;fill:#7b39b4;fill-opacity:0.537855;fill-rule:evenodd;stroke:none;stroke-width:3;stroke-linecap:round;stroke-dasharray:none;stroke-opacity:1"
       d="m 449.14545,533.76042 c 0,0 49.18973,-38.15919 64.1899,-63.48758 15.5686,-26.28821 23.5205,-83.86669 23.5205,-83.86669 0,0 3.43736,6.73587 4.38434,10.81537 1.49053,6.42114 1.6678,11.21726 1.6678,11.21726 0,0 27.17246,-21.97899 43.76959,-30.29318 14.87306,-7.45053 49.53557,-17.27416 49.53557,-17.27416 -13.01193,23.69725 -24.58619,29.60452 -30.75008,54.35512 -5.11422,20.53578 -1.87029,23.06644 6.17066,32.64753 -15.45865,-1.92106 -37.89582,-5.0589 -60.88449,12.26285 -16.55762,12.47602 42.89614,15.47741 58.65472,13.61023 -32.82972,19.62633 -43.02676,54.60843 -94.20808,65.1562 -30.26574,6.23736 -66.05043,-5.14295 -66.05043,-5.14295 z"
       id="path3"
       color="mane-hl-1" /></g></svg>
