<?xml version="1.0" encoding="UTF-8" standalone="no"?>
<!-- Created with Inkscape (http://www.inkscape.org/) -->

<svg
   width="1000"
   height="1000"
   viewBox="0 0 1000 1000"
   version="1.1"
   id="svg1"
   xml:space="preserve"
   xmlns="http://www.w3.org/2000/svg"
   xmlns:svg="http://www.w3.org/2000/svg"><defs
     id="defs1" /><g
     id="g57"
     data-layer="200"
     transform="matrix(0.70436783,-0.47964336,0.47964336,0.70436783,-102.99499,377.80666)"><g
       id="g39"><path
         style="fill:#393ab4;fill-opacity:1;fill-rule:evenodd;stroke:none;stroke-width:5;stroke-linecap:round;stroke-dasharray:none;stroke-opacity:1"
         d="m 456.92088,517.29481 c 0,0 5.33499,13.49151 18.9812,15.55086 82.35868,12.42873 149.55442,-24.45414 157.5668,-84.84367 1.11309,-8.38935 -24.24104,-7.54674 -24.24104,-7.54674 0,0 65.34868,-43.94131 90.10351,-73.86659 57.34069,-69.31723 53.05588,-160.31107 53.05588,-160.31107 l -88.50269,54.42801 -58.77311,47.33864 -52.5985,72.49446 -55.11408,104.28224 z"
         id="path38"
         color="gradient"
         data-grad="from:mane-main;to:mane-main;fromOpacity:0.6;toOpacity:0.4;range:50%-80%" /><path
         style="fill:none;fill-opacity:1;fill-rule:evenodd;stroke:#000000;stroke-width:5;stroke-linecap:round;stroke-dasharray:none;stroke-opacity:1"
         d="m 456.92088,517.29481 c 0,0 5.33499,13.49151 18.9812,15.55086 82.35868,12.42873 149.55442,-24.45414 157.5668,-84.84367 1.11309,-8.38935 -24.24104,-7.54674 -24.24104,-7.54674 0,0 65.34868,-43.94131 90.10351,-73.86659 57.34069,-69.31723 53.05588,-160.31107 53.05588,-160.31107 l -88.50269,54.42801 -58.77311,47.33864 -52.5985,72.49446 -55.11408,104.28224 z"
         id="path39"
         color="mane-contour" /></g><g
       id="g44"><path
         style="fill:none;fill-opacity:1;fill-rule:evenodd;stroke:#000000;stroke-width:4;stroke-linecap:round;stroke-dasharray:none;stroke-opacity:1"
         d="m 500.82919,535.13256 c 0,0 83.47448,-55.25009 72.49445,-94.44861 -3.70752,-13.23579 -37.96239,-19.20989 -37.96239,-19.20989"
         id="path40"
         color="mane-contour" /><path
         style="fill:none;fill-opacity:1;fill-rule:evenodd;stroke:#000000;stroke-width:4;stroke-linecap:round;stroke-dasharray:none;stroke-opacity:1"
         d="m 569.89331,469.72747 c 0,0 12.98693,3.16878 24.69842,2.74427 19.56365,-0.70913 34.53206,-8.00412 34.53206,-8.00412"
         id="path41"
         color="mane-contour" /><path
         style="fill:none;fill-opacity:1;fill-rule:evenodd;stroke:#000000;stroke-width:4;stroke-linecap:round;stroke-dasharray:none;stroke-opacity:1"
         d="m 617.46064,488.93735 c 0,0 -10.75067,-2.91863 -17.27273,-6.69514 -4.55957,-2.64016 -12.51402,-9.65613 -12.51402,-9.65613"
         id="path42"
         color="mane-contour" /><path
         style="fill:none;fill-opacity:1;fill-rule:evenodd;stroke:#000000;stroke-width:4;stroke-linecap:round;stroke-dasharray:none;stroke-opacity:1"
         d="m 553.88507,426.73391 c 0,0 34.88298,-47.56789 56.02883,-67.92067 27.35236,-26.32651 63.7296,-42.20676 90.5609,-69.06412 19.83777,-19.85704 50.99767,-67.00591 50.99767,-67.00591"
         id="path43"
         color="mane-contour" /><path
         style="fill:none;fill-opacity:1;fill-rule:evenodd;stroke:#000000;stroke-width:4;stroke-linecap:round;stroke-dasharray:none;stroke-opacity:1"
         d="m 649.57956,328.4282 c 0,0 36.21609,-12.42285 51.74644,-21.1837 15.88841,-8.96283 43.01423,-31.8564 43.01423,-31.8564"
         id="path44"
         color="mane-contour" /></g><g
       id="g46"><path
         style="fill:#39b45f;fill-opacity:1;fill-rule:evenodd;stroke:none;stroke-width:5;stroke-linecap:round;stroke-dasharray:none;stroke-opacity:1"
         d="m 449.14533,516.8927 c 0,0 23.17602,-16.01223 34.53033,-29.74131 45.6121,-55.15195 61.49193,-121.12473 107.20403,-171.17468 45.61249,-49.94089 156.16699,-114.19943 161.38422,-118.04657 2.90894,-2.14503 8.33951,4.91551 3.23415,10.34929 -9.00072,9.57973 -114.75498,67.65614 -157.50323,115.45926 -38.20305,42.72045 -62.77255,115.78839 -87.32213,150.7115 -18.18446,25.86838 -35.21742,42.22016 -46.57179,43.98448 -4.90139,0.76161 -14.95558,-1.54197 -14.95558,-1.54197 z"
         id="path45"
         color="mane-main" /><path
         style="fill:none;fill-opacity:1;fill-rule:evenodd;stroke:#000000;stroke-width:5;stroke-linecap:round;stroke-dasharray:none;stroke-opacity:1"
         d="m 449.14533,516.8927 c 0,0 23.17602,-16.01223 34.53033,-29.74131 45.6121,-55.15195 61.49193,-121.12473 107.20403,-171.17468 45.61249,-49.94089 156.16699,-114.19943 161.38422,-118.04657 2.90894,-2.14503 8.33951,4.91551 3.23415,10.34929 -9.00072,9.57973 -114.75498,67.65614 -157.50323,115.45926 -38.20305,42.72045 -62.77255,115.78839 -87.32213,150.7115 -18.18446,25.86838 -35.21742,42.22016 -46.57179,43.98448 -4.90139,0.76161 -14.95558,-1.54197 -14.95558,-1.54197 z"
         id="path46"
         color="mane-contour" /></g><g
       id="g56"
       style="fill:#b439a9;fill-opacity:1;stroke:none"><ellipse
         style="fill:#b439a9;fill-opacity:1;fill-rule:evenodd;stroke:none;stroke-width:4;stroke-linecap:round;stroke-dasharray:none;stroke-opacity:1"
         id="ellipse46"
         cx="502.58731"
         cy="509.54074"
         rx="3.5575678"
         ry="3.7192755"
         color="gradient"
         data-grad="from:#ffffff;to:#ffffff;fromOpacity:0.3;toOpacity:0.4;range:50%-80%" /><ellipse
         style="fill:#b439a9;fill-opacity:1;fill-rule:evenodd;stroke:none;stroke-width:2.6087;stroke-linecap:round;stroke-dasharray:none;stroke-opacity:1"
         id="ellipse47"
         cx="482.80273"
         cy="528.94562"
         rx="2.320153"
         ry="2.4256144"
         color="gradient"
         data-grad="from:#ffffff;to:#ffffff;fromOpacity:0.3;toOpacity:0.4;range:50%-80%" /><ellipse
         style="fill:#b439a9;fill-opacity:1;fill-rule:evenodd;stroke:none;stroke-width:2.54545;stroke-linecap:round;stroke-dasharray:none;stroke-opacity:1"
         id="ellipse48"
         cx="567.27032"
         cy="500.22052"
         rx="2.2639067"
         ry="2.3668115"
         color="gradient"
         data-grad="from:#ffffff;to:#ffffff;fromOpacity:0.3;toOpacity:0.4;range:50%-80%" /><ellipse
         style="fill:#b439a9;fill-opacity:1;fill-rule:evenodd;stroke:none;stroke-width:2.36364;stroke-linecap:round;stroke-dasharray:none;stroke-opacity:1"
         id="ellipse49"
         cx="683.53815"
         cy="279.68805"
         rx="2.1021991"
         ry="2.1977537"
         color="gradient"
         data-grad="from:#ffffff;to:#ffffff;fromOpacity:0.3;toOpacity:0.4;range:50%-80%" /><ellipse
         style="fill:#b439a9;fill-opacity:1;fill-rule:evenodd;stroke:none;stroke-width:3.09091;stroke-linecap:round;stroke-dasharray:none;stroke-opacity:1"
         id="ellipse50"
         cx="703.91333"
         cy="301.13635"
         rx="2.7490296"
         ry="2.8739855"
         color="gradient"
         data-grad="from:#ffffff;to:#ffffff;fromOpacity:0.3;toOpacity:0.4;range:50%-80%" /><ellipse
         style="fill:#b439a9;fill-opacity:1;fill-rule:evenodd;stroke:none;stroke-width:2.90909;stroke-linecap:round;stroke-dasharray:none;stroke-opacity:1"
         id="ellipse51"
         cx="605.43335"
         cy="342.61438"
         rx="2.587322"
         ry="2.7049277"
         color="gradient"
         data-grad="from:#ffffff;to:#ffffff;fromOpacity:0.3;toOpacity:0.4;range:50%-80%" /><ellipse
         style="fill:#b439a9;fill-opacity:1;fill-rule:evenodd;stroke:none;stroke-width:4.41342;stroke-linecap:round;stroke-dasharray:none;stroke-opacity:1"
         id="ellipse52"
         cx="595.7309"
         cy="355.10995"
         rx="3.5575678"
         ry="4.5278134"
         color="gradient"
         data-grad="from:#ffffff;to:#ffffff;fromOpacity:0.3;toOpacity:0.4;range:50%-80%" /><ellipse
         style="fill:#b439a9;fill-opacity:1;fill-rule:evenodd;stroke:none;stroke-width:2.78261;stroke-linecap:round;stroke-dasharray:none;stroke-opacity:1"
         id="ellipse53"
         cx="545.81244"
         cy="457.30917"
         rx="2.4748297"
         ry="2.587322"
         color="gradient"
         data-grad="from:#ffffff;to:#ffffff;fromOpacity:0.3;toOpacity:0.4;range:50%-80%" /><ellipse
         style="fill:#b439a9;fill-opacity:1;fill-rule:evenodd;stroke:none;stroke-width:2.36364;stroke-linecap:round;stroke-dasharray:none;stroke-opacity:1"
         id="ellipse54"
         cx="517.94952"
         cy="485.70358"
         rx="2.1021991"
         ry="2.1977537"
         color="gradient"
         data-grad="from:#ffffff;to:#ffffff;fromOpacity:0.3;toOpacity:0.4;range:50%-80%" /><ellipse
         style="fill:#b439a9;fill-opacity:1;fill-rule:evenodd;stroke:none;stroke-width:3.09091;stroke-linecap:round;stroke-dasharray:none;stroke-opacity:1"
         id="ellipse55"
         cx="517.6261"
         cy="477.00076"
         rx="2.7490296"
         ry="2.8739855"
         color="gradient"
         data-grad="from:#ffffff;to:#ffffff;fromOpacity:0.3;toOpacity:0.4;range:50%-80%" /><ellipse
         style="fill:#b439a9;fill-opacity:1;fill-rule:evenodd;stroke:none;stroke-width:4.74821;stroke-linecap:round;stroke-dasharray:none;stroke-opacity:1"
         id="ellipse56"
         cx="566.46185"
         cy="508.5705"
         rx="5.0129366"
         ry="3.7192755"
         color="gradient"
         data-grad="from:#ffffff;to:#ffffff;fromOpacity:0.3;toOpacity:0.4;range:50%-80%" /></g></g><g
     id="g4"
     data-layer="1000"
     transform="translate(5.0311608,0.45737825)"
     style="display:inline"><g
       id="g5"><path
         style="fill:#393ab4;fill-opacity:1;fill-rule:evenodd;stroke:none;stroke-width:5;stroke-linecap:round;stroke-dasharray:none;stroke-opacity:1"
         d="m 456.92088,517.29481 c 0,0 5.33499,13.49151 18.9812,15.55086 82.35868,12.42873 149.55442,-24.45414 157.5668,-84.84367 1.11309,-8.38935 -24.24104,-7.54674 -24.24104,-7.54674 0,0 65.34868,-43.94131 90.10351,-73.86659 57.34069,-69.31723 53.05588,-160.31107 53.05588,-160.31107 l -88.50269,54.42801 -58.77311,47.33864 -52.5985,72.49446 -55.11408,104.28224 z"
         id="path5"
         color="gradient"
         data-grad="from:mane-main;to:mane-main;fromOpacity:0.6;toOpacity:0.4;range:50%-80%" /><path
         style="fill:none;fill-opacity:1;fill-rule:evenodd;stroke:#000000;stroke-width:5;stroke-linecap:round;stroke-dasharray:none;stroke-opacity:1"
         d="m 456.92088,517.29481 c 0,0 5.33499,13.49151 18.9812,15.55086 82.35868,12.42873 149.55442,-24.45414 157.5668,-84.84367 1.11309,-8.38935 -24.24104,-7.54674 -24.24104,-7.54674 0,0 65.34868,-43.94131 90.10351,-73.86659 57.34069,-69.31723 53.05588,-160.31107 53.05588,-160.31107 l -88.50269,54.42801 -58.77311,47.33864 -52.5985,72.49446 -55.11408,104.28224 z"
         id="path7"
         color="mane-contour" /></g><g
       id="g13"><path
         style="fill:none;fill-opacity:1;fill-rule:evenodd;stroke:#000000;stroke-width:4;stroke-linecap:round;stroke-dasharray:none;stroke-opacity:1"
         d="m 500.82919,535.13256 c 0,0 83.47448,-55.25009 72.49445,-94.44861 -3.70752,-13.23579 -37.96239,-19.20989 -37.96239,-19.20989"
         id="path13"
         color="mane-contour" /><path
         style="fill:none;fill-opacity:1;fill-rule:evenodd;stroke:#000000;stroke-width:4;stroke-linecap:round;stroke-dasharray:none;stroke-opacity:1"
         d="m 569.89331,469.72747 c 0,0 12.98693,3.16878 24.69842,2.74427 19.56365,-0.70913 34.53206,-8.00412 34.53206,-8.00412"
         id="path24"
         color="mane-contour" /><path
         style="fill:none;fill-opacity:1;fill-rule:evenodd;stroke:#000000;stroke-width:4;stroke-linecap:round;stroke-dasharray:none;stroke-opacity:1"
         d="m 617.46064,488.93735 c 0,0 -10.75067,-2.91863 -17.27273,-6.69514 -4.55957,-2.64016 -12.51402,-9.65613 -12.51402,-9.65613"
         id="path25"
         color="mane-contour" /><path
         style="fill:none;fill-opacity:1;fill-rule:evenodd;stroke:#000000;stroke-width:4;stroke-linecap:round;stroke-dasharray:none;stroke-opacity:1"
         d="m 553.88507,426.73391 c 0,0 34.88298,-47.56789 56.02883,-67.92067 27.35236,-26.32651 63.7296,-42.20676 90.5609,-69.06412 19.83777,-19.85704 50.99767,-67.00591 50.99767,-67.00591"
         id="path26"
         color="mane-contour" /><path
         style="fill:none;fill-opacity:1;fill-rule:evenodd;stroke:#000000;stroke-width:4;stroke-linecap:round;stroke-dasharray:none;stroke-opacity:1"
         d="m 649.57956,328.4282 c 0,0 36.21609,-12.42285 51.74644,-21.1837 15.88841,-8.96283 43.01423,-31.8564 43.01423,-31.8564"
         id="path28"
         color="mane-contour" /></g><g
       id="g6"><path
         style="fill:#39b45f;fill-opacity:1;fill-rule:evenodd;stroke:none;stroke-width:5;stroke-linecap:round;stroke-dasharray:none;stroke-opacity:1"
         d="m 449.14533,516.8927 c 0,0 23.17602,-16.01223 34.53033,-29.74131 45.6121,-55.15195 61.49193,-121.12473 107.20403,-171.17468 45.61249,-49.94089 156.16699,-114.19943 161.38422,-118.04657 2.90894,-2.14503 8.33951,4.91551 3.23415,10.34929 -9.00072,9.57973 -114.75498,67.65614 -157.50323,115.45926 -38.20305,42.72045 -62.77255,115.78839 -87.32213,150.7115 -18.18446,25.86838 -35.21742,42.22016 -46.57179,43.98448 -4.90139,0.76161 -14.95558,-1.54197 -14.95558,-1.54197 z"
         id="path2"
         color="mane-main" /><path
         style="fill:none;fill-opacity:1;fill-rule:evenodd;stroke:#000000;stroke-width:5;stroke-linecap:round;stroke-dasharray:none;stroke-opacity:1"
         d="m 449.14533,516.8927 c 0,0 23.17602,-16.01223 34.53033,-29.74131 45.6121,-55.15195 61.49193,-121.12473 107.20403,-171.17468 45.61249,-49.94089 156.16699,-114.19943 161.38422,-118.04657 2.90894,-2.14503 8.33951,4.91551 3.23415,10.34929 -9.00072,9.57973 -114.75498,67.65614 -157.50323,115.45926 -38.20305,42.72045 -62.77255,115.78839 -87.32213,150.7115 -18.18446,25.86838 -35.21742,42.22016 -46.57179,43.98448 -4.90139,0.76161 -14.95558,-1.54197 -14.95558,-1.54197 z"
         id="path11"
         color="mane-contour" /></g><g
       id="g29"
       style="fill:#b439a9;fill-opacity:1;stroke:none"><ellipse
         style="fill:#b439a9;fill-opacity:1;fill-rule:evenodd;stroke:none;stroke-width:4;stroke-linecap:round;stroke-dasharray:none;stroke-opacity:1"
         id="path29"
         cx="502.58731"
         cy="509.54074"
         rx="3.5575678"
         ry="3.7192755"
         color="gradient"
         data-grad="from:#ffffff;to:#ffffff;fromOpacity:0.3;toOpacity:0.4;range:50%-80%" /><ellipse
         style="fill:#b439a9;fill-opacity:1;fill-rule:evenodd;stroke:none;stroke-width:2.6087;stroke-linecap:round;stroke-dasharray:none;stroke-opacity:1"
         id="ellipse29"
         cx="482.80273"
         cy="528.94562"
         rx="2.320153"
         ry="2.4256144"
         color="gradient"
         data-grad="from:#ffffff;to:#ffffff;fromOpacity:0.3;toOpacity:0.4;range:50%-80%" /><ellipse
         style="fill:#b439a9;fill-opacity:1;fill-rule:evenodd;stroke:none;stroke-width:2.54545;stroke-linecap:round;stroke-dasharray:none;stroke-opacity:1"
         id="ellipse30"
         cx="567.27032"
         cy="500.22052"
         rx="2.2639067"
         ry="2.3668115"
         color="gradient"
         data-grad="from:#ffffff;to:#ffffff;fromOpacity:0.3;toOpacity:0.4;range:50%-80%" /><ellipse
         style="fill:#b439a9;fill-opacity:1;fill-rule:evenodd;stroke:none;stroke-width:2.36364;stroke-linecap:round;stroke-dasharray:none;stroke-opacity:1"
         id="ellipse31"
         cx="683.53815"
         cy="279.68805"
         rx="2.1021991"
         ry="2.1977537"
         color="gradient"
         data-grad="from:#ffffff;to:#ffffff;fromOpacity:0.3;toOpacity:0.4;range:50%-80%" /><ellipse
         style="fill:#b439a9;fill-opacity:1;fill-rule:evenodd;stroke:none;stroke-width:3.09091;stroke-linecap:round;stroke-dasharray:none;stroke-opacity:1"
         id="ellipse32"
         cx="703.91333"
         cy="301.13635"
         rx="2.7490296"
         ry="2.8739855"
         color="gradient"
         data-grad="from:#ffffff;to:#ffffff;fromOpacity:0.3;toOpacity:0.4;range:50%-80%" /><ellipse
         style="fill:#b439a9;fill-opacity:1;fill-rule:evenodd;stroke:none;stroke-width:2.90909;stroke-linecap:round;stroke-dasharray:none;stroke-opacity:1"
         id="ellipse33"
         cx="605.43335"
         cy="342.61438"
         rx="2.587322"
         ry="2.7049277"
         color="gradient"
         data-grad="from:#ffffff;to:#ffffff;fromOpacity:0.3;toOpacity:0.4;range:50%-80%" /><ellipse
         style="fill:#b439a9;fill-opacity:1;fill-rule:evenodd;stroke:none;stroke-width:4.41342;stroke-linecap:round;stroke-dasharray:none;stroke-opacity:1"
         id="ellipse34"
         cx="595.7309"
         cy="355.10995"
         rx="3.5575678"
         ry="4.5278134"
         color="gradient"
         data-grad="from:#ffffff;to:#ffffff;fromOpacity:0.3;toOpacity:0.4;range:50%-80%" /><ellipse
         style="fill:#b439a9;fill-opacity:1;fill-rule:evenodd;stroke:none;stroke-width:2.78261;stroke-linecap:round;stroke-dasharray:none;stroke-opacity:1"
         id="ellipse35"
         cx="545.81244"
         cy="457.30917"
         rx="2.4748297"
         ry="2.587322"
         color="gradient"
         data-grad="from:#ffffff;to:#ffffff;fromOpacity:0.3;toOpacity:0.4;range:50%-80%" /><ellipse
         style="fill:#b439a9;fill-opacity:1;fill-rule:evenodd;stroke:none;stroke-width:2.36364;stroke-linecap:round;stroke-dasharray:none;stroke-opacity:1"
         id="ellipse36"
         cx="517.94952"
         cy="485.70358"
         rx="2.1021991"
         ry="2.1977537"
         color="gradient"
         data-grad="from:#ffffff;to:#ffffff;fromOpacity:0.3;toOpacity:0.4;range:50%-80%" /><ellipse
         style="fill:#b439a9;fill-opacity:1;fill-rule:evenodd;stroke:none;stroke-width:3.09091;stroke-linecap:round;stroke-dasharray:none;stroke-opacity:1"
         id="ellipse37"
         cx="517.6261"
         cy="477.00076"
         rx="2.7490296"
         ry="2.8739855"
         color="gradient"
         data-grad="from:#ffffff;to:#ffffff;fromOpacity:0.3;toOpacity:0.4;range:50%-80%" /><ellipse
         style="fill:#b439a9;fill-opacity:1;fill-rule:evenodd;stroke:none;stroke-width:4.74821;stroke-linecap:round;stroke-dasharray:none;stroke-opacity:1"
         id="ellipse38"
         cx="566.46185"
         cy="508.5705"
         rx="5.0129366"
         ry="3.7192755"
         color="gradient"
         data-grad="from:#ffffff;to:#ffffff;fromOpacity:0.3;toOpacity:0.4;range:50%-80%" /></g></g></svg>
