<?xml version="1.0" encoding="UTF-8" standalone="no"?>
<!-- Created with Inkscape (http://www.inkscape.org/) -->

<svg
   width="1000"
   height="1000"
   viewBox="0 0 1000 1000"
   version="1.1"
   id="svg1"
   xml:space="preserve"
   xmlns="http://www.w3.org/2000/svg"
   xmlns:svg="http://www.w3.org/2000/svg"><defs
     id="defs1" /><g
     id="g60"
     data-layer="200"
     transform="rotate(-26.287616,444.82385,537.25678)"><g
       id="g48"><path
         style="display:inline;fill:#8a8a8a;fill-opacity:1;fill-rule:evenodd;stroke:none;stroke-width:3;stroke-linecap:round;stroke-dasharray:none;stroke-opacity:1"
         d="m 447.60673,526.52005 c 0,0 28.44705,11.95083 53.0401,10.34929 25.03858,-1.63055 36.22251,-21.34541 36.22251,-21.34541 0,0 22.47699,10.94985 41.31869,2.50886 25.35543,-11.35913 21.99896,-40.3647 21.99896,-40.3647 0,0 31.86249,2.31472 43.48113,-27.24535 10.6605,-27.12238 -15.59567,-61.03076 -15.59567,-61.03076 0,0 27.44856,-18.1956 34.28201,-32.34153 6.58903,-13.63995 -0.46167,-31.44456 5.7105,-45.27813 11.80881,-26.46683 43.1379,-36.94736 57.6789,-62.01727 7.01491,-12.09429 12.28978,-41.47562 12.28978,-41.47562 0,0 -98.53232,20.24073 -138.42174,48.51229 -41.67553,29.53746 -69.35272,66.58518 -90.92845,110.74477 -18.27266,37.39914 -10.94698,87.70873 -30.02886,124.70154 -7.06774,13.70178 -31.04786,34.28202 -31.04786,34.28202 z"
         id="path47"
         color="gradient"
         data-grad="from:mane-main;to:mane-main;fromOpacity:0.6;toOpacity:0.4;range:50%-80%" /><path
         style="fill:none;fill-opacity:1;fill-rule:evenodd;stroke:#000000;stroke-width:5;stroke-linecap:round;stroke-dasharray:none;stroke-opacity:1"
         d="m 447.60673,526.52005 c 0,0 28.44705,11.95083 53.0401,10.34929 25.03858,-1.63055 36.22251,-21.34541 36.22251,-21.34541 0,0 22.47699,10.94985 41.31869,2.50886 25.35543,-11.35913 21.99896,-40.3647 21.99896,-40.3647 0,0 31.86249,2.31472 43.48113,-27.24535 10.6605,-27.12238 -15.59567,-61.03076 -15.59567,-61.03076 0,0 27.44856,-18.1956 34.28201,-32.34153 6.58903,-13.63995 -0.46167,-31.44456 5.7105,-45.27813 11.80881,-26.46683 43.1379,-36.94736 57.6789,-62.01727 7.01491,-12.09429 12.28978,-41.47562 12.28978,-41.47562 0,0 -98.53232,20.24073 -138.42174,48.51229 -41.67553,29.53746 -69.35272,66.58518 -90.92845,110.74477 -18.27266,37.39914 -10.94698,87.70873 -30.02886,124.70154 -7.06774,13.70178 -31.04786,34.28202 -31.04786,34.28202 z"
         id="path48"
         color="mane-contour" /></g><g
       id="g57"
       color="mane-contour"><path
         style="fill:none;fill-opacity:1;fill-rule:evenodd;stroke:#000000;stroke-width:3;stroke-linecap:round;stroke-dasharray:none;stroke-opacity:1"
         d="m 459.43646,530.78746 c 0,0 47.13461,-28.30787 66.09116,-50.54029 21.42715,-25.12998 54.02918,-90.0514 19.89595,-106.56914 -17.38443,-8.41266 -31.78779,3.20166 -31.78779,3.20166"
         id="path49"
         color="mane-contour" /><path
         style="fill:none;fill-opacity:1;fill-rule:evenodd;stroke:#000000;stroke-width:3;stroke-linecap:round;stroke-dasharray:none;stroke-opacity:1"
         d="m 498.08492,505.17428 c 0,0 8.83109,2.884 15.32217,7.31805 9.21305,6.29343 10.29101,15.09349 10.29101,15.09349"
         id="path50"
         color="mane-contour" /><path
         style="fill:none;fill-opacity:1;fill-rule:evenodd;stroke:#000000;stroke-width:3;stroke-linecap:round;stroke-dasharray:none;stroke-opacity:1"
         d="m 484.59226,536.73338 c 0,0 10.69271,-5.84493 17.83775,-12.34921 5.49349,-5.00084 8.69019,-12.80659 8.69019,-12.80659"
         id="path51"
         color="mane-contour" /><path
         style="fill:none;fill-opacity:1;fill-rule:evenodd;stroke:#000000;stroke-width:3;stroke-linecap:round;stroke-dasharray:none;stroke-opacity:1"
         d="m 538.10552,462.8668 c 0,0 18.11882,-3.30337 33.38861,4.34509 24.12483,12.08386 26.75663,25.1558 26.75663,25.1558"
         id="path52"
         color="mane-contour" /><path
         style="fill:none;fill-opacity:1;fill-rule:evenodd;stroke:#000000;stroke-width:3;stroke-linecap:round;stroke-dasharray:none;stroke-opacity:1"
         d="m 556.40065,422.8462 c 0,0 12.34373,-17.41345 34.30337,-25.84187 16.14618,-6.19713 38.41977,-4.80248 38.41977,-4.80248"
         id="path53"
         color="mane-contour" /><path
         style="fill:none;fill-opacity:1;fill-rule:evenodd;stroke:#000000;stroke-width:3;stroke-linecap:round;stroke-dasharray:none;stroke-opacity:1"
         d="m 550.91211,377.10837 c 0,0 13.44314,-31.81052 49.16816,-49.16816 20.70371,-10.05927 67.00591,-16.69431 67.00591,-16.69431"
         id="path54"
         color="mane-contour" /><path
         style="fill:none;fill-opacity:1;fill-rule:evenodd;stroke:#000000;stroke-width:3;stroke-linecap:round;stroke-dasharray:none;stroke-opacity:1"
         d="m 569.89331,410.03961 c 0,0 24.76968,3.52928 38.41977,14.6361 18.3318,14.91624 28.35745,40.0206 28.35745,40.0206"
         id="path55"
         color="mane-contour" /><path
         style="fill:none;fill-opacity:1;fill-rule:evenodd;stroke:#000000;stroke-width:3;stroke-linecap:round;stroke-dasharray:none;stroke-opacity:1"
         d="m 575.61053,345.09189 c 0,0 24.57027,-0.98285 38.41978,7.54674 17.40285,10.71801 25.1558,29.27221 25.1558,29.27221"
         id="path56"
         color="mane-contour" /><path
         style="fill:none;fill-opacity:1;fill-rule:evenodd;stroke:#000000;stroke-width:3;stroke-linecap:round;stroke-dasharray:none;stroke-opacity:1"
         d="m 607.51266,324.59563 c 0,0 7.0398,-26.45299 24.58409,-51.08343 20.15698,-28.2984 55.11408,-51.68375 55.11408,-51.68375"
         id="path57"
         color="mane-contour" /></g><g
       id="g59"><path
         style="display:inline;fill:#26ee6c;fill-opacity:1;fill-rule:evenodd;stroke:none;stroke-width:5;stroke-linecap:round;stroke-dasharray:none;stroke-opacity:1"
         d="m 447.77331,526.44237 c 12.94041,-6.44052 19.19216,-14.27299 26.29925,-21.72546 29.11618,-30.53117 25.01819,-96.71081 44.137,-138.81431 13.56114,-29.86436 54.94766,-84.21087 44.137,-80.26988 -27.50449,10.02666 -47.33385,36.39438 -62.43213,61.51738 -26.0565,43.35709 -5.67897,83.23619 -36.59026,147.2758 -5.40956,11.20709 -26.75978,37.59523 -15.55086,32.01647 z"
         id="path58"
         color="mane-main" /><path
         style="fill:none;fill-opacity:1;fill-rule:evenodd;stroke:#000000;stroke-width:5;stroke-linecap:round;stroke-dasharray:none;stroke-opacity:1"
         d="m 447.77331,526.44237 c 12.94041,-6.44052 19.19216,-14.27299 26.29925,-21.72546 29.11618,-30.53117 25.01819,-96.71081 44.137,-138.81431 13.56114,-29.86436 54.94766,-84.21087 44.137,-80.26988 -27.50449,10.02666 -47.33385,36.39438 -62.43213,61.51738 -26.0565,43.35709 -5.67897,83.23619 -36.59026,147.2758 -5.40956,11.20709 -26.75978,37.59523 -15.55086,32.01647 z"
         id="path59"
         color="mane-contour" /></g></g><g
     id="g34"
     data-layer="1000"
     style="display:inline"><g
       id="g35"><path
         style="display:inline;fill:#8a8a8a;fill-opacity:1;fill-rule:evenodd;stroke:none;stroke-width:3;stroke-linecap:round;stroke-dasharray:none;stroke-opacity:1"
         d="m 447.60673,526.52005 c 0,0 28.44705,11.95083 53.0401,10.34929 25.03858,-1.63055 36.22251,-21.34541 36.22251,-21.34541 0,0 22.47699,10.94985 41.31869,2.50886 25.35543,-11.35913 21.99896,-40.3647 21.99896,-40.3647 0,0 31.86249,2.31472 43.48113,-27.24535 10.6605,-27.12238 -15.59567,-61.03076 -15.59567,-61.03076 0,0 27.44856,-18.1956 34.28201,-32.34153 6.58903,-13.63995 -0.46167,-31.44456 5.7105,-45.27813 11.80881,-26.46683 43.1379,-36.94736 57.6789,-62.01727 7.01491,-12.09429 12.28978,-41.47562 12.28978,-41.47562 0,0 -98.53232,20.24073 -138.42174,48.51229 -41.67553,29.53746 -69.35272,66.58518 -90.92845,110.74477 -18.27266,37.39914 -10.94698,87.70873 -30.02886,124.70154 -7.06774,13.70178 -31.04786,34.28202 -31.04786,34.28202 z"
         id="path34"
         color="gradient"
         data-grad="from:mane-main;to:mane-main;fromOpacity:0.6;toOpacity:0.4;range:50%-80%" /><path
         style="fill:none;fill-opacity:1;fill-rule:evenodd;stroke:#000000;stroke-width:5;stroke-linecap:round;stroke-dasharray:none;stroke-opacity:1"
         d="m 447.60673,526.52005 c 0,0 28.44705,11.95083 53.0401,10.34929 25.03858,-1.63055 36.22251,-21.34541 36.22251,-21.34541 0,0 22.47699,10.94985 41.31869,2.50886 25.35543,-11.35913 21.99896,-40.3647 21.99896,-40.3647 0,0 31.86249,2.31472 43.48113,-27.24535 10.6605,-27.12238 -15.59567,-61.03076 -15.59567,-61.03076 0,0 27.44856,-18.1956 34.28201,-32.34153 6.58903,-13.63995 -0.46167,-31.44456 5.7105,-45.27813 11.80881,-26.46683 43.1379,-36.94736 57.6789,-62.01727 7.01491,-12.09429 12.28978,-41.47562 12.28978,-41.47562 0,0 -98.53232,20.24073 -138.42174,48.51229 -41.67553,29.53746 -69.35272,66.58518 -90.92845,110.74477 -18.27266,37.39914 -10.94698,87.70873 -30.02886,124.70154 -7.06774,13.70178 -31.04786,34.28202 -31.04786,34.28202 z"
         id="path36"
         color="mane-contour" /></g><g
       id="g38"
       color="mane-contour"><path
         style="fill:none;fill-opacity:1;fill-rule:evenodd;stroke:#000000;stroke-width:3;stroke-linecap:round;stroke-dasharray:none;stroke-opacity:1"
         d="m 459.43646,530.78746 c 0,0 47.13461,-28.30787 66.09116,-50.54029 21.42715,-25.12998 54.02918,-90.0514 19.89595,-106.56914 -17.38443,-8.41266 -31.78779,3.20166 -31.78779,3.20166"
         id="path38"
         color="mane-contour" /><path
         style="fill:none;fill-opacity:1;fill-rule:evenodd;stroke:#000000;stroke-width:3;stroke-linecap:round;stroke-dasharray:none;stroke-opacity:1"
         d="m 498.08492,505.17428 c 0,0 8.83109,2.884 15.32217,7.31805 9.21305,6.29343 10.29101,15.09349 10.29101,15.09349"
         id="path39"
         color="mane-contour" /><path
         style="fill:none;fill-opacity:1;fill-rule:evenodd;stroke:#000000;stroke-width:3;stroke-linecap:round;stroke-dasharray:none;stroke-opacity:1"
         d="m 484.59226,536.73338 c 0,0 10.69271,-5.84493 17.83775,-12.34921 5.49349,-5.00084 8.69019,-12.80659 8.69019,-12.80659"
         id="path40"
         color="mane-contour" /><path
         style="fill:none;fill-opacity:1;fill-rule:evenodd;stroke:#000000;stroke-width:3;stroke-linecap:round;stroke-dasharray:none;stroke-opacity:1"
         d="m 538.10552,462.8668 c 0,0 18.11882,-3.30337 33.38861,4.34509 24.12483,12.08386 26.75663,25.1558 26.75663,25.1558"
         id="path41"
         color="mane-contour" /><path
         style="fill:none;fill-opacity:1;fill-rule:evenodd;stroke:#000000;stroke-width:3;stroke-linecap:round;stroke-dasharray:none;stroke-opacity:1"
         d="m 556.40065,422.8462 c 0,0 12.34373,-17.41345 34.30337,-25.84187 16.14618,-6.19713 38.41977,-4.80248 38.41977,-4.80248"
         id="path42"
         color="mane-contour" /><path
         style="fill:none;fill-opacity:1;fill-rule:evenodd;stroke:#000000;stroke-width:3;stroke-linecap:round;stroke-dasharray:none;stroke-opacity:1"
         d="m 550.91211,377.10837 c 0,0 13.44314,-31.81052 49.16816,-49.16816 20.70371,-10.05927 67.00591,-16.69431 67.00591,-16.69431"
         id="path43"
         color="mane-contour" /><path
         style="fill:none;fill-opacity:1;fill-rule:evenodd;stroke:#000000;stroke-width:3;stroke-linecap:round;stroke-dasharray:none;stroke-opacity:1"
         d="m 569.89331,410.03961 c 0,0 24.76968,3.52928 38.41977,14.6361 18.3318,14.91624 28.35745,40.0206 28.35745,40.0206"
         id="path44"
         color="mane-contour" /><path
         style="fill:none;fill-opacity:1;fill-rule:evenodd;stroke:#000000;stroke-width:3;stroke-linecap:round;stroke-dasharray:none;stroke-opacity:1"
         d="m 575.61053,345.09189 c 0,0 24.57027,-0.98285 38.41978,7.54674 17.40285,10.71801 25.1558,29.27221 25.1558,29.27221"
         id="path45"
         color="mane-contour" /><path
         style="fill:none;fill-opacity:1;fill-rule:evenodd;stroke:#000000;stroke-width:3;stroke-linecap:round;stroke-dasharray:none;stroke-opacity:1"
         d="m 607.51266,324.59563 c 0,0 7.0398,-26.45299 24.58409,-51.08343 20.15698,-28.2984 55.11408,-51.68375 55.11408,-51.68375"
         id="path46"
         color="mane-contour" /></g><g
       id="g36"><path
         style="display:inline;fill:#26ee6c;fill-opacity:1;fill-rule:evenodd;stroke:none;stroke-width:5;stroke-linecap:round;stroke-dasharray:none;stroke-opacity:1"
         d="m 447.77331,526.44237 c 12.94041,-6.44052 19.19216,-14.27299 26.29925,-21.72546 29.11618,-30.53117 25.01819,-96.71081 44.137,-138.81431 13.56114,-29.86436 54.94766,-84.21087 44.137,-80.26988 -27.50449,10.02666 -47.33385,36.39438 -62.43213,61.51738 -26.0565,43.35709 -5.67897,83.23619 -36.59026,147.2758 -5.40956,11.20709 -26.75978,37.59523 -15.55086,32.01647 z"
         id="path35"
         color="mane-main" /><path
         style="fill:none;fill-opacity:1;fill-rule:evenodd;stroke:#000000;stroke-width:5;stroke-linecap:round;stroke-dasharray:none;stroke-opacity:1"
         d="m 447.77331,526.44237 c 12.94041,-6.44052 19.19216,-14.27299 26.29925,-21.72546 29.11618,-30.53117 25.01819,-96.71081 44.137,-138.81431 13.56114,-29.86436 54.94766,-84.21087 44.137,-80.26988 -27.50449,10.02666 -47.33385,36.39438 -62.43213,61.51738 -26.0565,43.35709 -5.67897,83.23619 -36.59026,147.2758 -5.40956,11.20709 -26.75978,37.59523 -15.55086,32.01647 z"
         id="path37"
         color="mane-contour" /></g></g></svg>
