<?xml version="1.0" encoding="UTF-8" standalone="no"?>
<!-- Created with Inkscape (http://www.inkscape.org/) -->

<svg
   width="1000"
   height="1000"
   viewBox="0 0 1000 1000"
   version="1.1"
   id="svg1"
   xml:space="preserve"
   xmlns="http://www.w3.org/2000/svg"
   xmlns:svg="http://www.w3.org/2000/svg"><defs
     id="defs1" /><g
     id="g33"
     transform="rotate(-29.837933,445.83741,533.70784)"
     data-layer="200"
     style="display:none"><path
       style="display:inline;fill:#8a8a8a;fill-opacity:1;fill-rule:evenodd;stroke:none;stroke-width:5;stroke-linecap:round;stroke-opacity:1"
       d="m 447.93015,525.87322 c 0,0 53.20533,29.17419 108.66752,22.31565 85.7811,-10.60782 128.39586,-54.01034 128.39586,-54.01034 0,0 -20.18812,5.23053 -47.21863,10.02587 -20.31787,3.60449 -40.75032,2.26391 -40.75032,2.26391 0,0 54.49892,-25.65747 90.87969,-57.89134 68.47303,-60.66806 73.41526,-156.8564 73.41526,-156.8564 0,0 -33.71602,30.39693 -61.4489,43.66106 -41.21086,19.71041 -102.09774,20.96407 -139.06856,49.80596 -34.9272,27.2476 -37.90745,76.07619 -66.62354,108.3441 -13.20744,14.84104 -46.24838,32.34153 -46.24838,32.34153 z"
       id="path26"
       color="gradient"
       data-grad="from:mane-main;to:mane-main;fromOpacity:0.6;toOpacity:0.4;range:50%-80%" /><path
       style="fill:none;fill-opacity:1;fill-rule:evenodd;stroke:#000000;stroke-width:3;stroke-linecap:round;stroke-dasharray:none;stroke-opacity:1"
       d="m 456.98577,530.40104 c 0,0 26.83549,0.12171 40.42691,-4.2044 34.27338,-10.90914 52.66486,-37.44108 45.92497,-55.30401 -3.27912,-8.69072 -26.35835,-13.26003 -26.35835,-13.26003"
       id="path27"
       color="mane-contour" /><path
       style="fill:none;fill-opacity:1;fill-rule:evenodd;stroke:#000000;stroke-width:3;stroke-linecap:round;stroke-dasharray:none;stroke-opacity:1"
       d="m 541.07374,494.66365 c 0,0 18.06931,5.10129 31.85641,4.68952 26.68082,-0.79687 50.45277,-6.3066 50.45277,-6.3066"
       id="path28"
       color="mane-contour" /><path
       style="fill:none;fill-opacity:1;fill-rule:evenodd;stroke:#000000;stroke-width:3;stroke-linecap:round;stroke-dasharray:none;stroke-opacity:1"
       d="m 550.45278,497.25097 c 0,0 14.3909,14.93175 22.63907,21.02199 16.01662,11.82628 35.57568,18.11126 35.57568,18.11126"
       id="path29"
       color="mane-contour" /><path
       style="fill:none;fill-opacity:1;fill-rule:evenodd;stroke:#000000;stroke-width:3;stroke-linecap:round;stroke-dasharray:none;stroke-opacity:1"
       d="m 539.47765,466.06844 c 0,0 10.55694,-24.05189 26.52794,-38.19108 24.15082,-21.38082 61.82132,-29.30761 87.58793,-48.71079 16.23795,-12.22775 40.24929,-40.24928 40.24929,-40.24928"
       id="path30"
       color="mane-contour" /><path
       style="fill:none;fill-opacity:1;fill-rule:evenodd;stroke:#000000;stroke-width:3;stroke-linecap:round;stroke-dasharray:none;stroke-opacity:1"
       d="m 565.3219,428.58879 c 0,0 34.31733,-17.61104 53.28219,-24.03772 35.1849,-11.92322 82.98868,-6.27805 108.95076,-32.85079 8.48353,-8.68308 10.16192,-21.74478 5.70097,-30.17744 -4.66864,-8.82526 -19.94111,-11.79728 -27.96706,-7.05686 -8.47188,5.0038 -10.40774,18.76649 -4.13939,25.90409 5.34054,6.08112 18.82807,5.13148 23.43252,-1.04872 3.31246,-4.44608 2.36035,-13.66225 -4.93644,-15.77955 -7.96555,-2.31136 -9.33702,7.03863 -9.33702,7.03863"
       id="path31"
       color="mane-contour" /><path
       style="fill:none;fill-opacity:1;fill-rule:evenodd;stroke:#000000;stroke-width:3;stroke-linecap:round;stroke-dasharray:none;stroke-opacity:1"
       d="m 577.13454,477.36093 c 0,0 -17.67969,-4.59272 -14.39198,-15.20052 4.94134,-15.9432 25.08547,-6.9934 30.07762,2.74904 6.18224,12.06495 -0.77583,20.87925 -9.21733,24.90297 -13.03371,6.21264 -31.60652,-3.67745 -36.38422,-17.30272 -4.02154,-11.4688 2.93556,-29.41681 16.65588,-31.8564 23.40027,-4.16078 45.41955,30.88757 68.72575,27.32859 8.16667,-1.24709 14.76813,-10.31967 13.90685,-17.62613 -1.04684,-8.88065 -13.97831,-15.84676 -21.83052,-13.42174 -6.35966,1.96407 -10.84283,13.0197 -7.76197,18.9198 2.88771,5.53019 14.1947,7.81067 18.43467,3.23415 3.55399,-3.83609 3.31775,-14.88358 -3.88098,-15.20052 -8.27328,-0.36425 -5.65977,8.4088 -5.65977,8.4088"
       id="path32"
       color="mane-contour" /><path
       style="fill:none;fill-rule:evenodd;stroke:#000000;stroke-width:5;stroke-linecap:round;stroke-opacity:1"
       d="m 447.93015,525.87322 c 0,0 53.20533,29.17419 108.66752,22.31565 85.7811,-10.60782 128.39586,-54.01034 128.39586,-54.01034 0,0 -20.18812,5.23053 -47.21863,10.02587 -20.31787,3.60449 -40.75032,2.26391 -40.75032,2.26391 0,0 54.49892,-25.65747 90.87969,-57.89134 68.47303,-60.66806 73.41526,-156.8564 73.41526,-156.8564 0,0 -33.71602,30.39693 -61.4489,43.66106 -41.21086,19.71041 -102.09774,20.96407 -139.06856,49.80596 -34.9272,27.2476 -37.90745,76.07619 -66.62354,108.3441 -13.20744,14.84104 -46.24838,32.34153 -46.24838,32.34153 z"
       id="path33"
       color="mane-contour" /></g><g
     id="g18"
     style="display:inline"
     data-layer="1000"><path
       style="display:inline;fill:#8a8a8a;fill-opacity:1;fill-rule:evenodd;stroke:none;stroke-width:5;stroke-linecap:round;stroke-opacity:1"
       d="m 447.93015,525.87322 c 0,0 53.20533,29.17419 108.66752,22.31565 85.7811,-10.60782 128.39586,-54.01034 128.39586,-54.01034 0,0 -20.18812,5.23053 -47.21863,10.02587 -20.31787,3.60449 -40.75032,2.26391 -40.75032,2.26391 0,0 54.49892,-25.65747 90.87969,-57.89134 68.47303,-60.66806 73.41526,-156.8564 73.41526,-156.8564 0,0 -33.71602,30.39693 -61.4489,43.66106 -41.21086,19.71041 -102.09774,20.96407 -139.06856,49.80596 -34.9272,27.2476 -37.90745,76.07619 -66.62354,108.3441 -13.20744,14.84104 -46.24838,32.34153 -46.24838,32.34153 z"
       id="path18"
       color="gradient"
       data-grad="from:mane-main;to:mane-main;fromOpacity:0.6;toOpacity:0.4;range:50%-80%" /><path
       style="fill:none;fill-opacity:1;fill-rule:evenodd;stroke:#000000;stroke-width:3;stroke-linecap:round;stroke-dasharray:none;stroke-opacity:1"
       d="m 458.81528,530.40104 c 0,0 25.00598,0.12171 38.5974,-4.2044 34.27338,-10.90914 52.66486,-37.44108 45.92497,-55.30401 -3.27912,-8.69072 -26.35835,-13.26003 -26.35835,-13.26003"
       id="path20"
       color="mane-contour" /><path
       style="fill:none;fill-opacity:1;fill-rule:evenodd;stroke:#000000;stroke-width:3;stroke-linecap:round;stroke-dasharray:none;stroke-opacity:1"
       d="m 541.07374,494.66365 c 0,0 18.06931,5.10129 31.85641,4.68952 26.68082,-0.79687 50.45277,-6.3066 50.45277,-6.3066"
       id="path21"
       color="mane-contour" /><path
       style="fill:none;fill-opacity:1;fill-rule:evenodd;stroke:#000000;stroke-width:3;stroke-linecap:round;stroke-dasharray:none;stroke-opacity:1"
       d="m 550.45278,497.25097 c 0,0 14.3909,14.93175 22.63907,21.02199 16.01662,11.82628 35.57568,18.11126 35.57568,18.11126"
       id="path22"
       color="mane-contour" /><path
       style="fill:none;fill-opacity:1;fill-rule:evenodd;stroke:#000000;stroke-width:3;stroke-linecap:round;stroke-dasharray:none;stroke-opacity:1"
       d="m 539.47765,466.06844 c 0,0 10.55694,-24.05189 26.52794,-38.19108 24.15082,-21.38082 61.82132,-29.30761 87.58793,-48.71079 16.23795,-12.22775 40.24929,-40.24928 40.24929,-40.24928"
       id="path23"
       color="mane-contour" /><path
       style="fill:none;fill-opacity:1;fill-rule:evenodd;stroke:#000000;stroke-width:3;stroke-linecap:round;stroke-dasharray:none;stroke-opacity:1"
       d="m 565.3219,428.58879 c 0,0 34.31733,-17.61104 53.28219,-24.03772 35.1849,-11.92322 82.98868,-6.27805 108.95076,-32.85079 8.48353,-8.68308 10.16192,-21.74478 5.70097,-30.17744 -4.66864,-8.82526 -19.94111,-11.79728 -27.96706,-7.05686 -8.47188,5.0038 -10.40774,18.76649 -4.13939,25.90409 5.34054,6.08112 18.82807,5.13148 23.43252,-1.04872 3.31246,-4.44608 2.36035,-13.66225 -4.93644,-15.77955 -7.96555,-2.31136 -9.33702,7.03863 -9.33702,7.03863"
       id="path24"
       color="mane-contour" /><path
       style="fill:none;fill-opacity:1;fill-rule:evenodd;stroke:#000000;stroke-width:3;stroke-linecap:round;stroke-dasharray:none;stroke-opacity:1"
       d="m 577.13454,477.36093 c 0,0 -17.67969,-4.59272 -14.39198,-15.20052 4.94134,-15.9432 25.08547,-6.9934 30.07762,2.74904 6.18224,12.06495 -0.77583,20.87925 -9.21733,24.90297 -13.03371,6.21264 -31.60652,-3.67745 -36.38422,-17.30272 -4.02154,-11.4688 2.93556,-29.41681 16.65588,-31.8564 23.40027,-4.16078 45.41955,30.88757 68.72575,27.32859 8.16667,-1.24709 14.76813,-10.31967 13.90685,-17.62613 -1.04684,-8.88065 -13.97831,-15.84676 -21.83052,-13.42174 -6.35966,1.96407 -10.84283,13.0197 -7.76197,18.9198 2.88771,5.53019 14.1947,7.81067 18.43467,3.23415 3.55399,-3.83609 3.31775,-14.88358 -3.88098,-15.20052 -8.27328,-0.36425 -5.65977,8.4088 -5.65977,8.4088"
       id="path25"
       color="mane-contour" /><path
       style="display:inline;fill:none;fill-opacity:1;fill-rule:evenodd;stroke:#000000;stroke-width:5;stroke-linecap:round;stroke-opacity:1"
       d="m 462.23937,532.54621 c 19.51451,8.15797 56.40807,20.33564 94.3583,15.64266 85.7811,-10.60782 128.39586,-54.01034 128.39586,-54.01034 0,0 -20.18812,5.23053 -47.21863,10.02587 -20.31787,3.60449 -40.75032,2.26391 -40.75032,2.26391 0,0 54.49892,-25.65747 90.87969,-57.89134 68.47303,-60.66806 73.41526,-156.8564 73.41526,-156.8564 0,0 -33.71602,30.39693 -61.4489,43.66106 -41.21086,19.71041 -102.09774,20.96407 -139.06856,49.80596 -34.9272,27.2476 -37.90746,76.07618 -66.62354,108.3441 -8.93005,10.03459 -26.92723,21.28497 -37.64779,27.51963 -3.60658,2.09744 -10.06198,3.11812 -6.72169,6.00134 1.41561,1.2219 9.74999,4.37305 12.43032,5.49355 z"
       id="path1"
       color="mane-contour"
       data-grad="from:mane-main;to:mane-main;fromOpacity:0.6;toOpacity:0.4;range:50%-80%" /></g></svg>
