<?xml version="1.0" encoding="UTF-8" standalone="no"?>
<!-- Created with Inkscape (http://www.inkscape.org/) -->

<svg
   width="1000"
   height="1000"
   viewBox="0 0 1000 1000"
   version="1.1"
   id="svg1"
   xml:space="preserve"
   xmlns="http://www.w3.org/2000/svg"
   xmlns:svg="http://www.w3.org/2000/svg"><defs
     id="defs1" /><g
     id="g31"
     data-layer="200"
     transform="rotate(-29.203406,469.33856,548.02469)"><path
       d="m 713.50977,311.93164 c 0,0 -90.52176,7.0861 -142.24415,48.02539 -94.07966,74.4659 -122.57812,172.43164 -122.57812,172.43164 0,0 53.96986,7.61022 149.53125,-19.13086 68.76376,-19.24226 112.08984,-75.54687 112.08984,-75.54687 0,0 -82.88337,29.14284 -106.56836,20.125 -38.91287,-14.81572 100.35352,-63.86719 100.35352,-63.86719 0,0 -21.57074,-5.30889 -24.42969,-14.3457 -2.73803,-8.65464 11.4336,-24.69727 11.4336,-24.69727 0,0 -29.44712,9.58704 -44.35157,13.76953 -16.80442,4.71566 -37.98602,9.45063 -50.78125,12.75781 8.98701,-9.44112 35.55387,-26.22958 54.42774,-37.5039 20.44037,-12.21008 63.11719,-32.01758 63.11719,-32.01758 z m -90.5254,79.4668 a 11.58272,30.038093 71.310893 0 1 10.97266,3.1582 11.58272,30.038093 71.310893 0 1 -18.58008,20.50586 11.58272,30.038093 71.310893 0 1 -36.07812,2.36328 11.58272,30.038093 71.310893 0 1 18.58203,-20.50586 11.58272,30.038093 71.310893 0 1 25.10351,-5.52148 z m -66.28515,19.32422 a 8.9771059,23.216671 38.784592 0 1 1.49023,15.70703 8.9771059,23.216671 38.784592 0 1 -22.61328,21.90234 8.9771059,23.216671 38.784592 0 1 -3.08398,-15.44531 8.9771059,23.216671 38.784592 0 1 22.61523,-21.90235 8.9771059,23.216671 38.784592 0 1 1.5918,-0.26171 z m 34.82422,54.50781 a 11.490105,26.028209 66.351984 0 1 9.28711,3.20898 11.490105,26.028209 66.351984 0 1 -15.72461,20.82617 11.490105,26.028209 66.351984 0 1 -30.53125,2.40235 11.490105,26.028209 66.351984 0 1 15.72461,-20.82813 11.490105,26.028209 66.351984 0 1 21.24414,-5.60937 z"
       style="display:inline;fill:#d38f8f;fill-opacity:1;fill-rule:evenodd;stroke-width:5;stroke-linecap:round"
       id="path27"
       color="gradient"
       data-grad="from:mane-main;to:mane-main;fromOpacity:0.6;toOpacity:0.4;range:50%-80%" /><path
       d="m 713.50977,311.93164 c 0,0 -90.52176,7.0861 -142.24415,48.02539 -94.07966,74.4659 -122.57812,172.43164 -122.57812,172.43164 0,0 53.96986,7.61022 149.53125,-19.13086 68.76376,-19.24226 112.08984,-75.54687 112.08984,-75.54687 0,0 -82.88337,29.14284 -106.56836,20.125 -38.91287,-14.81572 100.35352,-63.86719 100.35352,-63.86719 0,0 -21.57074,-5.30889 -24.42969,-14.3457 -2.73803,-8.65464 11.4336,-24.69727 11.4336,-24.69727 0,0 -29.44712,9.58704 -44.35157,13.76953 -16.80442,4.71566 -37.98602,9.45063 -50.78125,12.75781 8.98701,-9.44112 35.55387,-26.22958 54.42774,-37.5039 20.44037,-12.21008 63.11719,-32.01758 63.11719,-32.01758 z m -90.5254,79.4668 a 11.58272,30.038093 71.310893 0 1 10.97266,3.1582 11.58272,30.038093 71.310893 0 1 -18.58008,20.50586 11.58272,30.038093 71.310893 0 1 -36.07812,2.36328 11.58272,30.038093 71.310893 0 1 18.58203,-20.50586 11.58272,30.038093 71.310893 0 1 25.10351,-5.52148 z m -66.28515,19.32422 a 8.9771059,23.216671 38.784592 0 1 1.49023,15.70703 8.9771059,23.216671 38.784592 0 1 -22.61328,21.90234 8.9771059,23.216671 38.784592 0 1 -3.08398,-15.44531 8.9771059,23.216671 38.784592 0 1 22.61523,-21.90235 8.9771059,23.216671 38.784592 0 1 1.5918,-0.26171 z m 34.82422,54.50781 a 11.490105,26.028209 66.351984 0 1 9.28711,3.20898 11.490105,26.028209 66.351984 0 1 -15.72461,20.82617 11.490105,26.028209 66.351984 0 1 -30.53125,2.40235 11.490105,26.028209 66.351984 0 1 15.72461,-20.82813 11.490105,26.028209 66.351984 0 1 21.24414,-5.60937 z"
       style="display:inline;fill:none;fill-opacity:1;fill-rule:evenodd;stroke:#000000;stroke-width:5;stroke-linecap:round;stroke-opacity:1"
       id="path28"
       color="mane-contour" /><path
       style="fill:none;fill-opacity:1;fill-rule:evenodd;stroke:#000000;stroke-width:3;stroke-linecap:round;stroke-dasharray:none;stroke-opacity:1"
       d="m 664.62932,376.52191 14.70445,-3.78582 0.11655,6.78034 2.63248,4.70091 -12.49367,5.20129"
       id="path30"
       color="mane-contour" /><path
       style="fill:none;fill-opacity:1;fill-rule:evenodd;stroke:#000000;stroke-width:3;stroke-linecap:round;stroke-dasharray:none;stroke-opacity:1"
       d="m 621.01714,468.92057 9.60472,-9.34157 18.02528,-4.34186 -9.34157,13.28872"
       id="path31"
       color="mane-contour" /></g><g
     id="g18"
     data-layer="1000"
     style="display:inline"><path
       d="m 713.50977,311.93164 c 0,0 -90.52176,7.0861 -142.24415,48.02539 -94.07966,74.4659 -122.57812,172.43164 -122.57812,172.43164 0,0 53.96986,7.61022 149.53125,-19.13086 68.76376,-19.24226 112.08984,-75.54687 112.08984,-75.54687 0,0 -82.88337,29.14284 -106.56836,20.125 -38.91287,-14.81572 100.35352,-63.86719 100.35352,-63.86719 0,0 -21.57074,-5.30889 -24.42969,-14.3457 -2.73803,-8.65464 11.4336,-24.69727 11.4336,-24.69727 0,0 -29.44712,9.58704 -44.35157,13.76953 -16.80442,4.71566 -37.98602,9.45063 -50.78125,12.75781 8.98701,-9.44112 35.55387,-26.22958 54.42774,-37.5039 20.44037,-12.21008 63.11719,-32.01758 63.11719,-32.01758 z m -90.5254,79.4668 a 11.58272,30.038093 71.310893 0 1 10.97266,3.1582 11.58272,30.038093 71.310893 0 1 -18.58008,20.50586 11.58272,30.038093 71.310893 0 1 -36.07812,2.36328 11.58272,30.038093 71.310893 0 1 18.58203,-20.50586 11.58272,30.038093 71.310893 0 1 25.10351,-5.52148 z m -66.28515,19.32422 a 8.9771059,23.216671 38.784592 0 1 1.49023,15.70703 8.9771059,23.216671 38.784592 0 1 -22.61328,21.90234 8.9771059,23.216671 38.784592 0 1 -3.08398,-15.44531 8.9771059,23.216671 38.784592 0 1 22.61523,-21.90235 8.9771059,23.216671 38.784592 0 1 1.5918,-0.26171 z m 34.82422,54.50781 a 11.490105,26.028209 66.351984 0 1 9.28711,3.20898 11.490105,26.028209 66.351984 0 1 -15.72461,20.82617 11.490105,26.028209 66.351984 0 1 -30.53125,2.40235 11.490105,26.028209 66.351984 0 1 15.72461,-20.82813 11.490105,26.028209 66.351984 0 1 21.24414,-5.60937 z"
       style="display:inline;fill:#d38f8f;fill-opacity:1;fill-rule:evenodd;stroke-width:5;stroke-linecap:round"
       id="path22"
       color="gradient"
       data-grad="from:mane-main;to:mane-main;fromOpacity:0.6;toOpacity:0.4;range:50%-80%" /><path
       d="m 713.50977,311.93164 c 0,0 -90.52176,7.0861 -142.24415,48.02539 -94.07966,74.4659 -122.57812,172.43164 -122.57812,172.43164 0,0 53.96986,7.61022 149.53125,-19.13086 68.76376,-19.24226 112.08984,-75.54687 112.08984,-75.54687 0,0 -82.88337,29.14284 -106.56836,20.125 -38.91287,-14.81572 100.35352,-63.86719 100.35352,-63.86719 0,0 -21.57074,-5.30889 -24.42969,-14.3457 -2.73803,-8.65464 11.4336,-24.69727 11.4336,-24.69727 0,0 -29.44712,9.58704 -44.35157,13.76953 -16.80442,4.71566 -37.98602,9.45063 -50.78125,12.75781 8.98701,-9.44112 35.55387,-26.22958 54.42774,-37.5039 20.44037,-12.21008 63.11719,-32.01758 63.11719,-32.01758 z m -90.5254,79.4668 a 11.58272,30.038093 71.310893 0 1 10.97266,3.1582 11.58272,30.038093 71.310893 0 1 -18.58008,20.50586 11.58272,30.038093 71.310893 0 1 -36.07812,2.36328 11.58272,30.038093 71.310893 0 1 18.58203,-20.50586 11.58272,30.038093 71.310893 0 1 25.10351,-5.52148 z m -66.28515,19.32422 a 8.9771059,23.216671 38.784592 0 1 1.49023,15.70703 8.9771059,23.216671 38.784592 0 1 -22.61328,21.90234 8.9771059,23.216671 38.784592 0 1 -3.08398,-15.44531 8.9771059,23.216671 38.784592 0 1 22.61523,-21.90235 8.9771059,23.216671 38.784592 0 1 1.5918,-0.26171 z m 34.82422,54.50781 a 11.490105,26.028209 66.351984 0 1 9.28711,3.20898 11.490105,26.028209 66.351984 0 1 -15.72461,20.82617 11.490105,26.028209 66.351984 0 1 -30.53125,2.40235 11.490105,26.028209 66.351984 0 1 15.72461,-20.82813 11.490105,26.028209 66.351984 0 1 21.24414,-5.60937 z"
       style="display:inline;fill:none;fill-opacity:1;fill-rule:evenodd;stroke:#000000;stroke-width:5;stroke-linecap:round;stroke-opacity:1"
       id="path23"
       color="mane-contour" /><path
       style="fill:none;fill-opacity:1;fill-rule:evenodd;stroke:#000000;stroke-width:5;stroke-linecap:round;stroke-dasharray:none;stroke-opacity:1"
       d="m 476.39068,471.21604 c 0,0 35.90596,-43.617 57.56792,-57.56792 22.28695,-14.35342 41.72057,-14.23027 41.72057,-14.23027 0,0 3.64267,-15.41691 9.70246,-27.81371 8.15792,-16.68902 25.54981,-34.28202 25.54981,-34.28202"
       id="path24"
       color="mane-contour" /><path
       style="fill:none;fill-opacity:1;fill-rule:evenodd;stroke:#000000;stroke-width:3;stroke-linecap:round;stroke-dasharray:none;stroke-opacity:1"
       d="m 664.62932,376.52191 14.70445,-3.78582 0.11655,6.78034 2.63248,4.70091 -12.49367,5.20129"
       id="path25"
       color="mane-contour" /><path
       style="fill:none;fill-opacity:1;fill-rule:evenodd;stroke:#000000;stroke-width:3;stroke-linecap:round;stroke-dasharray:none;stroke-opacity:1"
       d="m 621.01714,468.92057 9.60472,-9.34157 18.02528,-4.34186 -9.34157,13.28872"
       id="path26"
       color="mane-contour" /></g></svg>
