<?xml version="1.0" encoding="UTF-8" standalone="no"?>
<!-- Created with Inkscape (http://www.inkscape.org/) -->

<svg
   width="1000"
   height="1000"
   viewBox="0 0 1000 1000"
   version="1.1"
   id="svg1"
   xml:space="preserve"
   xmlns="http://www.w3.org/2000/svg"
   xmlns:svg="http://www.w3.org/2000/svg"><defs
     id="defs1" /><g
     id="g18"
     data-layer="1000"><path
       style="display:inline;opacity:1;fill:#4be14c;fill-opacity:1;fill-rule:evenodd;stroke:none;stroke-width:5;stroke-linecap:round;stroke-miterlimit:100;stroke-opacity:1"
       d="m 452.78137,532.34153 c 0,0 38.11577,-44.18151 47.21863,-71.15136 15.89245,-47.086 -5.56811,-106.65432 9.70246,-153.94566 14.85324,-45.99894 79.03103,-120.46743 79.03103,-120.46743 0,0 -7.79589,67.29746 6.3506,94.5942 11.4709,22.13398 56.92108,48.51229 56.92108,48.51229 0,0 -5.70679,44.5627 -16.81759,63.38939 -10.77333,18.25485 -45.92497,43.98448 -45.92497,43.98448 0,0 52.62496,-6.21426 46.2254,18.65384 -11.25734,43.74499 -109.43538,59.75948 -139.71539,66.31638 -15.4622,3.34823 -42.99125,10.11387 -42.99125,10.11387 z"
       id="path18"
       color="gradient"
       data-grad="from:detail-1;to:detail-1;fromOpacity:0.3; toOpacity:0.3" /><path
       d="m 588.73437,186.77734 c 10e-6,0 -64.178,74.46786 -79.03125,120.4668 -15.27056,47.29134 6.18933,106.85931 -9.70312,153.94531 -9.10286,26.96985 -47.21875,71.15235 -47.21875,71.15235 0,0 27.52999,-6.76505 42.99219,-10.11328 30.28001,-6.5569 128.4575,-22.57142 139.71484,-66.31641 6.39956,-24.8681 -46.22656,-18.6543 -46.22656,-18.6543 0,0 35.15245,-25.72952 45.92578,-43.98437 11.1108,-18.82669 16.81836,-63.39063 16.81836,-63.39063 0,0 -45.45098,-26.37774 -56.92188,-48.51172 -14.14649,-27.29674 -6.34961,-94.59375 -6.34961,-94.59375 z m -5.90625,13.80274 c 0,0 -2.46243,61.42105 9.63282,84.75976 9.80762,18.92456 55.05664,46.89453 55.05664,46.89453 0,0 -6.01643,46.04228 -19.39258,63.41602 -16.50369,21.43594 -54.62891,47.4707 -54.62891,47.4707 0,0 63.91533,-10.6492 57.79688,12.47266 -9.87963,37.33553 -99.55004,54.24736 -125.43945,59.85352 -13.22018,2.86272 -40.1543,8.80859 -40.1543,8.80859 0,0 30.89088,-40.12047 38.67383,-63.17969 13.58805,-40.25853 -2.82001,-114.15184 10.23632,-154.58594 12.69952,-39.3291 68.21875,-105.91015 68.21875,-105.91015 z"
       style="opacity:1;fill:#e19a4b;fill-opacity:1;fill-rule:evenodd;stroke:none;stroke-width:5;stroke-linecap:round;stroke-miterlimit:100"
       id="path22"
       color="detail-1" /></g><g
     id="g24"
     data-layer="250"
     transform="rotate(-20.73131,482.06164,539.21463)"><path
       style="display:inline;opacity:1;fill:#4be14c;fill-opacity:1;fill-rule:evenodd;stroke:none;stroke-width:5;stroke-linecap:round;stroke-miterlimit:100;stroke-opacity:1"
       d="m 452.78137,532.34153 c 0,0 38.11577,-44.18151 47.21863,-71.15136 15.89245,-47.086 -5.56811,-106.65432 9.70246,-153.94566 14.85324,-45.99894 79.03103,-120.46743 79.03103,-120.46743 0,0 -7.79589,67.29746 6.3506,94.5942 11.4709,22.13398 56.92108,48.51229 56.92108,48.51229 0,0 -5.70679,44.5627 -16.81759,63.38939 -10.77333,18.25485 -45.92497,43.98448 -45.92497,43.98448 0,0 52.62496,-6.21426 46.2254,18.65384 -11.25734,43.74499 -109.43538,59.75948 -139.71539,66.31638 -15.4622,3.34823 -42.99125,10.11387 -42.99125,10.11387 z"
       id="path23"
       color="gradient"
       data-grad="from:detail-1;to:detail-1;fromOpacity:0.3; toOpacity:0.3" /><path
       d="m 588.73437,186.77734 c 10e-6,0 -64.178,74.46786 -79.03125,120.4668 -15.27056,47.29134 6.18933,106.85931 -9.70312,153.94531 -9.10286,26.96985 -47.21875,71.15235 -47.21875,71.15235 0,0 27.52999,-6.76505 42.99219,-10.11328 30.28001,-6.5569 128.4575,-22.57142 139.71484,-66.31641 6.39956,-24.8681 -46.22656,-18.6543 -46.22656,-18.6543 0,0 35.15245,-25.72952 45.92578,-43.98437 11.1108,-18.82669 16.81836,-63.39063 16.81836,-63.39063 0,0 -45.45098,-26.37774 -56.92188,-48.51172 -14.14649,-27.29674 -6.34961,-94.59375 -6.34961,-94.59375 z m -5.90625,13.80274 c 0,0 -2.46243,61.42105 9.63282,84.75976 9.80762,18.92456 55.05664,46.89453 55.05664,46.89453 0,0 -6.01643,46.04228 -19.39258,63.41602 -16.50369,21.43594 -54.62891,47.4707 -54.62891,47.4707 0,0 63.91533,-10.6492 57.79688,12.47266 -9.87963,37.33553 -99.55004,54.24736 -125.43945,59.85352 -13.22018,2.86272 -40.1543,8.80859 -40.1543,8.80859 0,0 30.89088,-40.12047 38.67383,-63.17969 13.58805,-40.25853 -2.82001,-114.15184 10.23632,-154.58594 12.69952,-39.3291 68.21875,-105.91015 68.21875,-105.91015 z"
       style="opacity:1;fill:#e19a4b;fill-opacity:1;fill-rule:evenodd;stroke:none;stroke-width:5;stroke-linecap:round;stroke-miterlimit:100"
       id="path24"
       color="detail-1" /></g></svg>
