<?xml version="1.0" encoding="UTF-8" standalone="no"?>
<!-- Created with Inkscape (http://www.inkscape.org/) -->

<svg
   width="1000"
   height="1000"
   viewBox="0 0 1000 1000"
   version="1.1"
   id="svg1"
   xml:space="preserve"
   sodipodi:docname="001.svg"
   inkscape:version="1.4.2 (f4327f4, 2025-05-13)"
   xmlns:inkscape="http://www.inkscape.org/namespaces/inkscape"
   xmlns:sodipodi="http://sodipodi.sourceforge.net/DTD/sodipodi-0.dtd"
   xmlns="http://www.w3.org/2000/svg"
   xmlns:svg="http://www.w3.org/2000/svg"><sodipodi:namedview
     id="namedview1"
     pagecolor="#ffffff"
     bordercolor="#000000"
     borderopacity="0.25"
     inkscape:showpageshadow="2"
     inkscape:pageopacity="0.0"
     inkscape:pagecheckerboard="0"
     inkscape:deskcolor="#d1d1d1"
     inkscape:zoom="3.092"
     inkscape:cx="368.85511"
     inkscape:cy="437.09573"
     inkscape:window-width="1920"
     inkscape:window-height="991"
     inkscape:window-x="-9"
     inkscape:window-y="-9"
     inkscape:window-maximized="1"
     inkscape:current-layer="layer6" /><defs
     id="defs1" /><g
     id="layer6"><g
       id="layer9"
       line="3"
       class="lashes"
       style="display:inline"><path
         style="fill:#000000;fill-opacity:1;stroke:none;stroke-width:3;stroke-linecap:round;stroke-dasharray:none;stroke-opacity:1"
         d="m 372.01036,356.34134 c -0.47912,-0.56737 -0.87576,-1.34821 0.30241,-2.46065 7.40062,-6.98774 15.87433,-10.49077 25.51096,-11.59969 -8.83457,4.68979 -16.399,7.56427 -22.49098,14.22271 -1.54395,1.68751 -2.67347,0.60607 -3.32239,-0.16237 z"
         id="path45-7-3-5-1"
         color="eye-lashes"
         data-layer="500"
         transform="translate(-0.16170763,-0.16170763)"
         sodipodi:nodetypes="sscss" /><path
         style="fill:#000000;fill-opacity:1;stroke:none;stroke-width:3;stroke-linecap:round;stroke-dasharray:none;stroke-opacity:1"
         d="m 378.10879,362.61279 c -0.22031,-0.63334 -0.82271,-0.97403 0.34966,-1.6639 5.83108,-3.43126 16.25706,-5.62844 27.79835,-3.518 -16.04608,2.42834 -22.60853,5.33736 -26.18165,6.37195 -2.08074,0.60247 -1.64677,-0.27131 -1.96636,-1.19005 z"
         id="path45-7-3-5"
         color="eye-lashes"
         data-layer="500"
         transform="translate(-0.16170763,-0.16170763)"
         sodipodi:nodetypes="sscss" /><path
         style="fill:#000000;fill-opacity:1;stroke:none;stroke-width:3;stroke-linecap:round;stroke-dasharray:none;stroke-opacity:1"
         d="m 379.62282,370.47239 c -0.0662,-0.90589 0.83848,-1.6289 3.09075,-1.99035 7.68071,-1.2326 21.5591,-0.34986 25.50065,2.27425 -13.96671,-0.34306 -21.10137,0.94555 -24.52646,1.46644 -2.94049,0.4472 -3.97859,-0.5689 -4.06494,-1.75034 z"
         id="path45-7-3"
         color="eye-lashes"
         data-layer="500"
         transform="translate(-0.16170763,-0.16170763)"
         sodipodi:nodetypes="sscss" /><path
         style="fill:#000000;fill-opacity:1;stroke:none;stroke-width:2.03211;stroke-linecap:round;stroke-dasharray:none;stroke-opacity:1"
         d="m 362.89119,440.61563 c 0,0 2.4834,-1.9811 3.23553,-1.7211 4.33079,1.49714 3.65358,8.68168 3.65358,8.68168 0,0 -1.11841,-2.4505 -3.37812,-5.53931 -1.1865,-1.62182 -3.51099,-1.42127 -3.51099,-1.42127 z"
         id="path46-8-8"
         color="eye-lashes"
         data-layer="500" /><path
         style="fill:#000000;fill-opacity:1;stroke:none;stroke-width:2.04117;stroke-linecap:round;stroke-dasharray:none;stroke-opacity:1"
         d="m 370.05285,434.71936 c 0,0 1.36024,-2.57945 2.15896,-2.54779 4.59911,0.18231 6.48636,7.24097 6.48636,7.24097 0,0 -1.62264,-2.78204 -5.37838,-4.52443 -1.83102,-0.84947 -3.26694,-0.16875 -3.26694,-0.16875 z"
         id="path46-8"
         color="eye-lashes"
         data-layer="500" /><path
         style="fill:#000000;fill-opacity:1;stroke:none;stroke-width:2.16663;stroke-linecap:round;stroke-dasharray:none;stroke-opacity:1"
         d="m 376.07684,426.60988 c 0,0 0.6248,-1.86952 1.44206,-2.09755 5.45352,-1.52165 7.73466,7.07919 7.73466,7.07919 0,0 -1.79267,-1.76742 -5.05102,-4.22378 -1.71084,-1.28975 -4.1257,-0.75786 -4.1257,-0.75786 z"
         id="path46"
         color="eye-lashes"
         data-layer="500" /></g><path
       d="m 353.55859,346.29883 a 40.025162,52.368519 13.6 0 0 -29.81836,12.40039 40.025162,52.368519 13.6 0 0 -16.35546,29.87109 40.025162,52.368519 13.6 0 0 4.67382,42.73242 40.025162,52.368519 13.6 0 0 14.86328,14.92579 40.025162,52.368519 13.6 0 0 7.05274,2.65429 40.025162,52.368519 13.6 0 0 29.5957,-7.07226 40.025162,52.368519 13.6 0 0 21.6211,-34.41602 40.025162,52.368519 13.6 0 0 -26.58985,-60.3125 40.025162,52.368519 13.6 0 0 -5.04297,-0.7832 z"
       style="display:inline;fill:#ff2d00;fill-opacity:1;stroke-width:3.18726;stroke-linecap:round"
       id="path1"
       data-layer="500"
       color="eye_white" /><g
       id="layer8"
       line="3"
       class="lashes"
       style="display:inline;fill:#000000;fill-opacity:1;stroke:none"
       transform="translate(-0.16170763,-0.16170763)"><path
         style="fill:#000000;fill-opacity:1;stroke:none;stroke-width:3;stroke-linecap:round;stroke-dasharray:none;stroke-opacity:1"
         d="m 384.97533,375.11466 c -1.34182,-4.75619 -8.97691,-33.84662 -39.48333,-28.55336 -17.03576,2.95593 -30.05024,17.43187 -36.12248,33.62083 -6.93043,18.47696 -2.69258,37.92188 -1.82563,39.8335 -0.95164,-8.94144 -0.6537,-27.61737 4.3522,-39.19106 4.48651,-10.37288 13.40389,-26.71525 32.61248,-31.63505 23.93199,-6.12958 33.17946,14.02149 37.63904,22.09475 0.51833,0.93834 0.99119,1.99545 2.82772,3.83039 z"
         id="path39"
         color="eye-lashes"
         data-layer="500"
         sodipodi:nodetypes="csscsssc" /></g></g></svg>
