<?xml version="1.0" encoding="UTF-8" standalone="no"?>
<!-- Created with Inkscape (http://www.inkscape.org/) -->

<svg
   width="1000"
   height="1000"
   viewBox="0 0 1000 1000"
   version="1.1"
   id="svg1"
   xml:space="preserve"
   xmlns="http://www.w3.org/2000/svg"
   xmlns:svg="http://www.w3.org/2000/svg"><defs
     id="defs1" /><g
     id="layer6"
     data-layer="500"><g
       id="layer9"
       line="3"
       class="lashes"><path
         style="fill:#000000;fill-opacity:1;stroke:none;stroke-width:3;stroke-linecap:round;stroke-dasharray:none;stroke-opacity:1"
         d="m 370.6405,355.4272 c -22.53584,-11.16902 -50.00423,-1.41231 -60.7696,23.81998 -6.93043,18.47696 -1.50381,50.52143 -0.63686,52.43305 0.38245,-2.19015 -1.2466,-26.35882 4.44083,-38.16161 7.12955,-14.79557 17.52744,-29.06001 33.66358,-32.12017 30.48593,-5.78154 18.66114,-5.14127 23.30205,-5.97125 z"
         id="path39"
         color="eye-shadow"
         data-layer="500" /><path
         style="fill:#000000;fill-opacity:1;stroke:none;stroke-width:5.71327;stroke-linecap:round;stroke-dasharray:none;stroke-opacity:1"
         d="m 373.30622,357.62851 c 0,0 3.81057,6.36436 5.35946,5.06909 17.08344,-14.28631 12.77416,-29.3486 12.77416,-29.3486 0,0 -2.15556,10.11749 -10.76252,18.71252 -4.19611,4.19033 -7.3711,5.56699 -7.3711,5.56699 z"
         id="path5"
         color="eye-lashes"
         data-layer="500" /><path
         style="fill:#000000;fill-opacity:1;stroke:none;stroke-width:5.71327;stroke-linecap:round;stroke-dasharray:none;stroke-opacity:1"
         d="m 361.16517,358.81128 c 0,0 5.00522,5.47478 6.26412,3.89619 13.88493,-17.41124 6.65338,-31.30898 6.65338,-31.30898 0,0 -0.0908,10.34417 -6.80717,20.48543 -3.27438,4.94415 -6.11033,6.92736 -6.11033,6.92736 z"
         id="path6"
         color="eye-lashes"
         data-layer="500" /><path
         style="fill:#000000;fill-opacity:1;stroke:none;stroke-width:5.71327;stroke-linecap:round;stroke-dasharray:none;stroke-opacity:1"
         d="m 350.02727,365.55407 c 0,0 6.64831,3.2902 7.24998,1.36283 6.63595,-21.2581 -5.13827,-31.59301 -5.13827,-31.59301 0,0 3.66195,9.67472 1.0747,21.56005 -1.26132,5.79441 -3.18641,8.67013 -3.18641,8.67013 z"
         id="path7"
         color="eye-lashes"
         data-layer="500" /><path
         style="fill:#000000;fill-opacity:1;stroke:none;stroke-width:5.71327;stroke-linecap:round;stroke-dasharray:none;stroke-opacity:1"
         d="m 333.53309,371.05213 c 0,0 6.64831,3.2902 7.24998,1.36283 6.63595,-21.2581 -5.13827,-31.59301 -5.13827,-31.59301 0,0 3.66195,9.67472 1.0747,21.56005 -1.26132,5.79441 -3.18641,8.67013 -3.18641,8.67013 z"
         id="path8"
         color="eye-lashes"
         data-layer="500" /><path
         style="fill:#000000;fill-opacity:1;stroke:none;stroke-width:4.08769;stroke-linecap:round;stroke-dasharray:none;stroke-opacity:1"
         d="m 381.53396,423.53204 c 0,0 0.99,-5.17917 2.74134,-5.61216 10.08435,-2.493 21.02859,7.69294 21.02859,7.69294 0,0 -6.08762,-2.08146 -15.24422,-3.82784 -4.80782,-0.91694 -8.52571,1.74706 -8.52571,1.74706 z"
         id="path46-8-8"
         color="eye-lashes"
         data-layer="500" /><path
         style="fill:#000000;fill-opacity:1;stroke:none;stroke-width:5.28925;stroke-linecap:round;stroke-dasharray:none;stroke-opacity:1"
         d="m 387.38615,392.85728 c 0,0 -4.53301,-4.30813 -3.49876,-5.86518 5.95535,-8.96571 28.73112,-7.0389 28.73112,-7.0389 0,0 -6.12549,0.98173 -17.22874,5.30907 -5.11524,1.99359 -8.00362,7.59501 -8.00362,7.59501 z"
         id="path46-8"
         color="eye-lashes"
         data-layer="500" /><path
         style="fill:#000000;fill-opacity:1;stroke:none;stroke-width:3.80474;stroke-linecap:round;stroke-dasharray:none;stroke-opacity:1"
         d="m 387.42184,405.23225 c 0,0 -2.436,-2.19714 -1.61436,-3.20989 5.48264,-6.75797 24.47287,-1.83114 24.47287,-1.83114 0,0 -5.32934,0.66112 -14.68841,1.87391 -4.91412,0.63679 -8.1701,3.16712 -8.1701,3.16712 z"
         id="path46"
         color="eye-lashes"
         data-layer="500" /><path
         style="fill:#000000;fill-opacity:1;stroke:none;stroke-width:5.28925;stroke-linecap:round;stroke-dasharray:none;stroke-opacity:1"
         d="m 385.88458,382.76614 c 0,0 -6.48483,-2.2601 -5.60127,-3.90734 9.74534,-18.16834 24.20897,-17.08848 24.20897,-17.08848 0,0 -8.7676,3.85292 -14.94423,13.2687 -3.01131,4.59044 -3.66347,7.72712 -3.66347,7.72712 z"
         id="path3"
         color="eye-lashes"
         data-layer="500" /><path
         style="fill:#e9fd0f;fill-rule:evenodd;stroke-width:5;stroke-linecap:round"
         d="m 313.44728,448.00525 c 0,0 34.19582,5.42274 52.06986,-5.33635 15.64031,-9.41452 21.41666,-26.59714 23.2859,-48.35058 1.05758,-12.30762 -6.14489,-36.54593 -6.14489,-36.54593 0,0 -32.25418,-0.6955 -48.79984,11.7999 -13.71967,10.3612 -17.60967,28.21452 -21.05786,44.15095 -2.41706,11.17087 0.64683,34.28201 0.64683,34.28201 z"
         id="path2"
         color="eye_white"
         data-layer="500" /><path
         style="fill:#fd340f;fill-opacity:1;fill-rule:evenodd;stroke-width:5;stroke-linecap:round"
         d="m 313.294,448.11634 -4.57377,-17.26603 c 0,0 -0.50846,-23.53647 3.8877,-34.76074 4.80199,-12.26044 10.04841,-23.36409 20.12465,-30.41566 8.7692,-6.13689 21.94306,-8.82703 32.47385,-10.29101 9.13891,-1.27048 18.75453,-0.17067 26.87097,-2.17255 8.09761,-1.99723 19.89596,-10.74838 19.89596,-10.74838 0,0 -6.86241,9.74145 -12.34921,12.5779 -10.48233,5.41891 -6.46659,2.03828 -32.24517,4.34509 -9.68864,0.86699 -23.02411,4.43071 -30.87303,10.17667 -9.24177,6.76563 -15.4881,17.56541 -19.32423,28.35745 -5.65459,15.90789 -3.88772,50.19726 -3.88772,50.19726 z"
         id="path4"
         color="eye-lashes"
         data-layer="500" /></g></g></svg>
