<?xml version="1.0" encoding="UTF-8" standalone="no"?>
<!-- Created with Inkscape (http://www.inkscape.org/) -->

<svg
   width="1000"
   height="1000"
   viewBox="0 0 1000 1000"
   version="1.1"
   id="svg1"
   xml:space="preserve"
   xmlns="http://www.w3.org/2000/svg"
   xmlns:svg="http://www.w3.org/2000/svg"><defs
     id="defs1" /><g
     id="layer6"
     data-layer="500"><g
       id="layer9"
       line="3"
       class="lashes"><path
         style="display:inline;fill:#000000;fill-opacity:1;stroke:none;stroke-width:3;stroke-linecap:round;stroke-dasharray:none;stroke-opacity:1"
         d="m 393.84235,393.4221 c -8.81449,-15.9715 -17.99686,-47.26309 -77.24433,-43.0702 -6.93043,18.47696 -2.92905,32.02019 -2.0621,33.93181 0.94611,-39.32368 -3.25508,-26.19032 13.69689,-26.96916 30.48593,-5.78154 60.96863,36.93753 65.60954,36.10755 z"
         id="path39"
         color="eye-shadow"
         data-layer="500" /><path
         style="display:inline;fill:#000000;fill-opacity:1;stroke:none;stroke-width:3.80474;stroke-linecap:round;stroke-dasharray:none;stroke-opacity:1"
         d="m 384.92491,385.3047 c 0,0 -1.05574,3.10596 0.15538,3.58963 8.08161,3.22754 22.26024,-10.33229 22.26024,-10.33229 0,0 -4.97542,2.02094 -13.73818,5.5248 -4.60102,1.83976 -8.67744,1.21786 -8.67744,1.21786 z"
         id="path46"
         color="eye-lashes"
         data-layer="500" /><path
         style="display:inline;fill:#000000;fill-opacity:1;stroke:none;stroke-width:5.28925;stroke-linecap:round;stroke-dasharray:none;stroke-opacity:1"
         d="m 390.89881,391.25164 c 0,0 -0.98464,6.79643 0.88445,6.77194 20.61522,-0.27016 26.32613,-13.60239 26.32613,-13.60239 0,0 -7.46159,6.00337 -18.66471,7.14261 -5.46183,0.55545 -8.54587,-0.31216 -8.54587,-0.31216 z"
         id="path3"
         color="eye-lashes"
         data-layer="500" /><path
         style="display:inline;fill:#e9fd0f;fill-rule:evenodd;stroke-width:5;stroke-linecap:round"
         d="m 384.92206,445.52217 c -24.97784,16.21505 -66.44758,-8.40195 -69.86722,-48.19839 -1.05758,-12.30762 3.6293,-37.68938 3.6293,-37.68938 0,0 36.40059,4.79808 53.60232,16.37368 31.68319,21.32067 33.66031,55.86531 12.6356,69.51409 z"
         id="path2"
         color="eye_white"
         data-layer="500" /><path
         style="display:inline;fill:#fd340f;fill-opacity:1;fill-rule:evenodd;stroke-width:5;stroke-linecap:round"
         d="m 316.93719,409.28556 c 0,0 -6.02172,-15.40607 -6.04063,-25.75962 -0.0154,-8.44774 -1.04879,-19.15273 4.3312,-29.94005 1.75463,-3.51818 22.19657,-1.75768 38.41541,7.56934 15.64762,8.99853 36.10242,28.50856 52.53529,37.74243 10.28404,5.77875 18.00914,5.46696 25.03811,2.42589 -9.40344,11.47248 -26.87883,5.5255 -37.64258,-3.21521 -9.84822,-7.99726 -21.23967,-20.18152 -31.24909,-24.95486 -25.76389,-12.28643 -40.20254,-12.40419 -41.03687,-11.79216 -2.67733,1.96397 -4.37891,15.84412 -5.11103,27.27426 -0.62343,9.73328 0.76019,20.64998 0.76019,20.64998 z"
         id="path4"
         color="eye-lashes"
         data-layer="500" /></g></g></svg>
