<?xml version="1.0" encoding="UTF-8" standalone="no"?>
<!-- Created with Inkscape (http://www.inkscape.org/) -->

<svg
   width="1000"
   height="1000"
   viewBox="0 0 1000 1000"
   version="1.1"
   id="svg1"
   xml:space="preserve"
   xmlns="http://www.w3.org/2000/svg"
   xmlns:svg="http://www.w3.org/2000/svg"><defs
     id="defs1" /><g
     id="layer6"><g
       id="layer9"
       line="3"
       class="lashes"><path
         style="fill:#000000;fill-opacity:1;stroke:none;stroke-width:3;stroke-linecap:round;stroke-dasharray:none;stroke-opacity:1"
         d="m 372.01036,356.34134 c -2.58454,-3.06055 21.85522,-18.44304 23.29779,-16.57592 1.14035,1.47598 -20.40305,20.00379 -23.29779,16.57592 z"
         id="path45-7-3-5-1"
         color="eye-lashes"
         data-layer="500"
         transform="translate(-0.16170763,-0.16170763)" /><path
         style="fill:#000000;fill-opacity:1;stroke:none;stroke-width:3;stroke-linecap:round;stroke-dasharray:none;stroke-opacity:1"
         d="m 378.10879,362.61279 c -1.31609,-3.78345 27.01298,-9.38585 27.69063,-7.12576 0.53565,1.78659 -26.21659,11.36336 -27.69063,7.12576 z"
         id="path45-7-3-5"
         color="eye-lashes"
         data-layer="500"
         transform="translate(-0.16170763,-0.16170763)" /><path
         style="fill:#000000;fill-opacity:1;stroke:none;stroke-width:3;stroke-linecap:round;stroke-dasharray:none;stroke-opacity:1"
         d="m 379.62282,370.47239 c -0.292,-3.99515 28.52178,-2.07457 28.5914,0.2839 0.055,1.86435 -28.26435,4.19082 -28.5914,-0.2839 z"
         id="path45-7-3"
         color="eye-lashes"
         data-layer="500"
         transform="translate(-0.16170763,-0.16170763)" /></g><path
       d="m 353.55859,346.29883 a 40.025162,52.368519 13.6 0 0 -29.81836,12.40039 40.025162,52.368519 13.6 0 0 -16.35546,29.87109 40.025162,52.368519 13.6 0 0 4.67382,42.73242 40.025162,52.368519 13.6 0 0 14.86328,14.92579 40.025162,52.368519 13.6 0 0 7.05274,2.65429 40.025162,52.368519 13.6 0 0 29.5957,-7.07226 40.025162,52.368519 13.6 0 0 21.6211,-34.41602 40.025162,52.368519 13.6 0 0 -26.58985,-60.3125 40.025162,52.368519 13.6 0 0 -5.04297,-0.7832 z"
       style="display:inline;fill:#00ffff;stroke-width:3.18726;stroke-linecap:round"
       id="path1"
       data-layer="500"
       color="eye_white" /><g
       id="layer8"
       line="3"
       class="lashes"
       style="fill:#000000;fill-opacity:1;stroke:none"
       transform="translate(-0.16170763,-0.16170763)"><path
         style="fill:#000000;fill-opacity:1;stroke:none;stroke-width:3;stroke-linecap:round;stroke-dasharray:none;stroke-opacity:1"
         d="m 385.00392,374.65728 c -1.34182,-4.75619 -8.52038,-33.06582 -39.0268,-27.77256 -17.03576,2.95593 -30.53536,17.10845 -36.6076,33.29741 -6.93043,18.47696 -3.10463,37.94353 -2.23768,39.85515 0.38245,-2.19015 -1.2466,-26.35882 4.44083,-38.16161 7.12955,-14.79557 17.52744,-29.06001 33.66358,-32.12017 30.48593,-5.78154 33.98331,26.41783 39.76767,24.90178 z"
         id="path39"
         color="eye-shadow"
         data-layer="500" /></g></g></svg>
