<?xml version="1.0" encoding="UTF-8" standalone="no"?>
<!-- Created with Inkscape (http://www.inkscape.org/) -->

<svg
   width="1000"
   height="1000"
   viewBox="0 0 1000 1000"
   version="1.1"
   id="svg1"
   xml:space="preserve"
   xmlns="http://www.w3.org/2000/svg"
   xmlns:svg="http://www.w3.org/2000/svg"><defs
     id="defs1" /><g
     id="layer6"><g
       id="layer9"
       line="3"
       class="lashes"><path
         style="fill:#000000;fill-opacity:1;stroke:none;stroke-width:3;stroke-linecap:round;stroke-dasharray:none;stroke-opacity:1"
         d="m 379.39539,356.17963 c -2.58454,-3.06055 21.85522,-18.44304 23.29779,-16.57592 1.14035,1.47598 -20.40305,20.00379 -23.29779,16.57592 z"
         id="path45-7-3-5-1"
         color="eye-lashes"
         data-layer="500" /><path
         style="fill:#000000;fill-opacity:1;stroke:none;stroke-width:3;stroke-linecap:round;stroke-dasharray:none;stroke-opacity:1"
         d="m 385.49382,362.45108 c -1.31609,-3.78345 27.01298,-9.38585 27.69063,-7.12576 0.53565,1.78659 -26.21659,11.36336 -27.69063,7.12576 z"
         id="path45-7-3-5"
         color="eye-lashes"
         data-layer="500" /><path
         style="fill:#000000;fill-opacity:1;stroke:none;stroke-width:3;stroke-linecap:round;stroke-dasharray:none;stroke-opacity:1"
         d="m 387.00785,370.31068 c -0.292,-3.99515 28.52178,-2.07457 28.5914,0.2839 0.055,1.86435 -28.26435,4.19082 -28.5914,-0.2839 z"
         id="path45-7-3"
         color="eye-lashes"
         data-layer="500" /><path
         style="fill:#000000;fill-opacity:1;stroke:none;stroke-width:2.03211;stroke-linecap:round;stroke-dasharray:none;stroke-opacity:1"
         d="m 370.43793,440.61563 c 0,0 2.4834,-1.9811 3.23553,-1.7211 4.33079,1.49714 3.65358,8.68168 3.65358,8.68168 0,0 -1.11841,-2.4505 -3.37812,-5.53931 -1.1865,-1.62182 -3.51099,-1.42127 -3.51099,-1.42127 z"
         id="path46-8-8"
         color="eye-lashes"
         data-layer="500" /><path
         style="fill:#000000;fill-opacity:1;stroke:none;stroke-width:2.04117;stroke-linecap:round;stroke-dasharray:none;stroke-opacity:1"
         d="m 377.59959,434.71936 c 0,0 1.36024,-2.57945 2.15896,-2.54779 4.59911,0.18231 6.48636,7.24097 6.48636,7.24097 0,0 -1.62264,-2.78204 -5.37838,-4.52443 -1.83102,-0.84947 -3.26694,-0.16875 -3.26694,-0.16875 z"
         id="path46-8"
         color="eye-lashes"
         data-layer="500" /><path
         style="fill:#000000;fill-opacity:1;stroke:none;stroke-width:2.16663;stroke-linecap:round;stroke-dasharray:none;stroke-opacity:1"
         d="m 382.25145,426.55271 c 0,0 0.6248,-1.86952 1.44206,-2.09755 5.45352,-1.52165 7.73466,7.07919 7.73466,7.07919 0,0 -1.79267,-1.76742 -5.05102,-4.22378 -1.71084,-1.28975 -4.1257,-0.75786 -4.1257,-0.75786 z"
         id="path46"
         color="eye-lashes"
         data-layer="500" /></g><path
       d="m 361.10533,346.29883 c -10.35971,-0.73967 -21.04353,3.70335 -29.81836,12.40039 -23.17199,23.68096 -20.3729,60.11982 -18.63182,90.71946 9.6943,1.77537 27.20027,9.52258 55.14591,-6.00731 11.26734,-6.26146 19.43545,-21.5548 22.87889,-35.78815 6.80124,-28.11209 -3.0454,-55.34397 -24.53165,-60.54119 -1.65275,-0.39981 -3.33715,-0.6614 -5.04297,-0.7832 z"
       style="display:inline;fill:#00ffff;stroke-width:3.18726;stroke-linecap:round"
       id="path1"
       data-layer="500"
       color="eye_white" /><g
       id="layer8"
       line="3"
       class="lashes"
       style="fill:#000000;fill-opacity:1;stroke:none"
       transform="translate(-0.16170763,-0.16170763)"><path
         style="fill:#000000;fill-opacity:1;stroke:none;stroke-width:3;stroke-linecap:round;stroke-dasharray:none;stroke-opacity:1"
         d="m 392.55066,374.65728 c -1.34182,-4.75619 -10.34989,-33.18016 -40.85631,-27.8869 -17.03576,2.95593 -29.47039,19.44943 -36.83629,39.35767 -6.84774,18.50777 -3.21898,58.06817 -2.35203,59.97979 0.38245,-2.19015 -2.22435,-36.75089 4.792,-57.95135 6.9491,-20.99726 19.34882,-35.34083 35.48496,-38.40099 30.48593,-5.78154 33.98331,26.41783 39.76767,24.90178 z"
         id="path39"
         color="eye-shadow"
         data-layer="500" /></g></g></svg>
