<?xml version="1.0" encoding="UTF-8" standalone="no"?>
<!-- Created with Inkscape (http://www.inkscape.org/) -->

<svg
   width="1000"
   height="1000"
   viewBox="0 0 1000 1000"
   version="1.1"
   id="svg1"
   xml:space="preserve"
   xmlns="http://www.w3.org/2000/svg"
   xmlns:svg="http://www.w3.org/2000/svg"><defs
     id="defs1" /><g
     id="layer6"><g
       id="layer9"
       line="3"
       class="lashes"><path
         style="fill:#000000;fill-opacity:1;stroke:none;stroke-width:2.59847;stroke-linecap:round;stroke-dasharray:none;stroke-opacity:1"
         d="m 394.76107,371.44721 c 0,0 1.58709,3.93755 2.71984,4.54754 6.52238,3.51232 11.1274,-2.06214 11.1274,-2.06214 0,0 -2.75654,1.48503 -7.90946,1.21553 -2.70561,-0.14152 -5.93778,-3.70093 -5.93778,-3.70093 z"
         id="path46-8-8"
         color="eye-lashes"
         data-layer="500" /><path
         style="fill:#000000;fill-opacity:1;stroke:none;stroke-width:2.52541;stroke-linecap:round;stroke-dasharray:none;stroke-opacity:1"
         d="m 389.84099,363.74518 c 0,0 1.28859,2.92205 2.50723,2.98023 7.01711,0.33503 10.77079,-6.71102 10.77079,-6.71102 0,0 -2.53033,2.60582 -8.29268,3.92943 -2.80929,0.64531 -4.98534,-0.19864 -4.98534,-0.19864 z"
         id="path46-8"
         color="eye-lashes"
         data-layer="500" /><path
         style="fill:#000000;fill-opacity:1;stroke:none;stroke-width:2.46024;stroke-linecap:round;stroke-dasharray:none;stroke-opacity:1"
         d="m 393.64254,368.06559 c 0,0 -0.104,1.98927 0.76221,2.59687 5.78017,4.05443 12.37323,-2.55837 12.37323,-2.55837 0,0 -2.92501,0.70689 -7.89974,1.31165 -2.61206,0.31753 -5.2357,-1.35015 -5.2357,-1.35015 z"
         id="path46"
         color="eye-lashes"
         data-layer="500" /></g><path
       d="m 314.94437,399.06232 c 2.16853,26.96237 24.16462,45.36397 45.42729,44.81098 20.69334,-0.53818 42.54587,-19.91138 41.88426,-45.85026 -0.71089,-27.87074 -22.18776,-46.62029 -43.40706,-46.5638 -21.58608,0.0575 -45.89354,22.87233 -43.90449,47.60308 z"
       style="display:inline;fill:#00ffff;stroke-width:3.18726;stroke-linecap:round"
       id="path1"
       data-layer="500"
       color="eye_white" /><g
       id="layer8"
       line="3"
       class="lashes"
       style="fill:#000000;fill-opacity:1;stroke:none"
       transform="translate(-0.16170763,-0.16170763)"><path
         style="display:inline;fill:#000000;fill-opacity:1;stroke:none;stroke-width:3;stroke-linecap:round;stroke-dasharray:none;stroke-opacity:1"
         d="m 398.06637,377.40631 c -1.11313,-3.61274 -10.44235,-30.64352 -43.48624,-28.11559 -11.79466,0.90231 -31.45011,11.16253 -37.52235,27.35149 -6.93043,18.47696 -1.04643,31.1972 -0.17948,33.10882 0.38245,-2.19015 -2.64651,-16.966 2.84,-30.04315 7.74418,-18.45831 23.61846,-25.18348 36.86523,-26.63163 25.85087,-2.82603 36.84193,21.84405 41.48284,24.33006 z"
         id="path39"
         color="eye-shadow"
         data-layer="500" /></g></g></svg>
