<?xml version="1.0" encoding="UTF-8" standalone="no"?>
<!-- Created with Inkscape (http://www.inkscape.org/) -->

<svg
   width="1000"
   height="1000"
   viewBox="0 0 1000 1000"
   version="1.1"
   id="svg1"
   xml:space="preserve"
   sodipodi:docname="012.svg"
   inkscape:version="1.4.2 (f4327f4, 2025-05-13)"
   xmlns:inkscape="http://www.inkscape.org/namespaces/inkscape"
   xmlns:sodipodi="http://sodipodi.sourceforge.net/DTD/sodipodi-0.dtd"
   xmlns="http://www.w3.org/2000/svg"
   xmlns:svg="http://www.w3.org/2000/svg"><sodipodi:namedview
     id="namedview1"
     pagecolor="#ffffff"
     bordercolor="#000000"
     borderopacity="0.25"
     inkscape:showpageshadow="2"
     inkscape:pageopacity="0.0"
     inkscape:pagecheckerboard="0"
     inkscape:deskcolor="#d1d1d1"
     inkscape:zoom="3.092"
     inkscape:cx="313.71281"
     inkscape:cy="403.13713"
     inkscape:window-width="1920"
     inkscape:window-height="991"
     inkscape:window-x="-9"
     inkscape:window-y="-9"
     inkscape:window-maximized="1"
     inkscape:current-layer="svg1" /><defs
     id="defs1" /><g
     id="layer6"
     data-layer="500"><g
       id="layer9"
       line="3"
       class="lashes"><path
         style="display:inline;fill:#000000;fill-opacity:1;stroke:none;stroke-width:4.86969;stroke-linecap:round;stroke-dasharray:none;stroke-opacity:1"
         d="m 387.59973,363.14173 c 0,0 1.50451,6.14103 3.09149,5.47524 17.50352,-7.34346 17.77825,-20.69402 17.77825,-20.69402 0,0 -4.29774,7.69881 -13.46744,12.53666 -4.47047,2.35861 -7.4023,2.68212 -7.4023,2.68212 z"
         id="path5"
         color="eye-lashes"
         data-layer="500" /><path
         style="display:inline;fill:#000000;fill-opacity:1;stroke:none;stroke-width:5.71327;stroke-linecap:round;stroke-dasharray:none;stroke-opacity:1"
         d="m 369.49325,364.04344 c 0,0 3.69766,6.43061 5.26917,5.16288 17.3329,-13.9826 13.29011,-29.11859 13.29011,-29.11859 0,0 -2.33374,10.07788 -11.09108,18.51967 -4.26941,4.11562 -7.4682,5.43604 -7.4682,5.43604 z"
         id="path6"
         color="eye-lashes"
         data-layer="500" /><path
         style="display:inline;fill:#000000;fill-opacity:1;stroke:none;stroke-width:5.71327;stroke-linecap:round;stroke-dasharray:none;stroke-opacity:1"
         d="m 348.53683,368.09703 c 0,0 4.27304,6.06355 5.72139,4.65675 15.9744,-15.51648 10.55757,-30.21684 10.55757,-30.21684 0,0 -1.39761,10.24972 -9.342,19.46067 -3.87307,4.49059 -6.93696,6.09942 -6.93696,6.09942 z"
         id="path7"
         color="eye-lashes"
         data-layer="500" /><path
         style="display:inline;fill:#000000;fill-opacity:1;stroke:none;stroke-width:5.71327;stroke-linecap:round;stroke-dasharray:none;stroke-opacity:1"
         d="m 324.15478,374.77876 c 0,0 5.13406,5.35414 6.35504,3.74605 13.46675,-17.73666 5.9066,-31.45842 5.9066,-31.45842 0,0 0.15533,10.3434 -6.31786,20.6416 -3.15582,5.02065 -5.94378,7.07077 -5.94378,7.07077 z"
         id="path8"
         color="eye-lashes"
         data-layer="500" /><path
         style="display:inline;fill:#000000;fill-opacity:1;stroke:none;stroke-width:4.08769;stroke-linecap:round;stroke-dasharray:none;stroke-opacity:1"
         d="m 385.09153,417.22544 c 0,0 0.99,-5.17917 2.74134,-5.61216 10.08435,-2.493 21.02859,7.69294 21.02859,7.69294 0,0 -6.08762,-2.08146 -15.24422,-3.82784 -4.80782,-0.91694 -8.52571,1.74706 -8.52571,1.74706 z"
         id="path46-8-8"
         color="eye-lashes"
         data-layer="500" /><path
         style="display:inline;fill:#000000;fill-opacity:1;stroke:none;stroke-width:5.81245;stroke-linecap:round;stroke-dasharray:none;stroke-opacity:1"
         d="m 391.79011,390.43166 c 0,0 -4.98141,-4.73428 -3.84485,-6.44535 6.54444,-9.85257 31.57312,-7.73517 31.57312,-7.73517 0,0 -6.7314,1.07884 -18.93296,5.83423 -5.62122,2.19079 -8.79531,8.34629 -8.79531,8.34629 z"
         id="path46-8"
         color="eye-lashes"
         data-layer="500" /><path
         style="display:inline;fill:#000000;fill-opacity:1;stroke:none;stroke-width:4.12806;stroke-linecap:round;stroke-dasharray:none;stroke-opacity:1"
         d="m 389.35494,399.89589 c 0,0 -2.86761,-2.19714 -1.90039,-3.20989 6.45405,-6.75797 28.80898,-1.83114 28.80898,-1.83114 0,0 -6.2736,0.66112 -17.29091,1.87391 -5.78481,0.63679 -9.61768,3.16712 -9.61768,3.16712 z"
         id="path46"
         color="eye-lashes"
         data-layer="500" /><path
         style="display:inline;fill:#e9fd0f;fill-rule:evenodd;stroke-width:5;stroke-linecap:round"
         d="m 314.46489,438.29298 c 0,0 33.17821,15.13501 51.05225,4.37592 15.64031,-9.41452 23.68057,-19.3203 26.84347,-46.89521 1.40768,-12.27251 -7.76197,-28.94567 -7.76197,-28.94567 0,0 -25.46246,-1.50405 -50.74033,4.19964 -7.56844,1.70774 -17.12737,7.07807 -20.17789,13.9408 -3.70912,8.3444 -1.16044,16.17966 -3.05252,24.92424 -2.41706,11.17087 3.83699,28.40028 3.83699,28.40028 z"
         id="path2"
         color="eye_white"
         data-layer="500"
         sodipodi:nodetypes="csscsssc" /><path
         style="display:inline;fill:#fd340f;fill-opacity:1;fill-rule:evenodd;stroke-width:5;stroke-linecap:round"
         d="m 314.43745,438.28271 c 0,0 -7.11915,-15.54383 -8.00411,-23.89802 -1.22021,-11.51895 -0.50846,-23.30778 3.8877,-34.53205 20.10438,-12.18539 32.95187,-12.77966 57.311,-16.38436 9.13891,-1.27048 30.82312,-0.26778 38.99905,-2.01084 13.91908,-2.96748 17.79376,-7.83764 17.79376,-7.83764 0,0 -6.539,8.44779 -12.0258,11.28424 -10.48233,5.41891 -37.96461,4.62347 -48.25422,5.63875 -16.47352,1.62544 -30.24512,5.96625 -49.06531,14.27797 -5.65459,15.90789 -0.64207,53.46195 -0.64207,53.46195 z"
         id="path4"
         color="eye-lashes"
         data-layer="500"
         sodipodi:nodetypes="cscsscsscc" /></g></g></svg>
