<?xml version="1.0" encoding="UTF-8" standalone="no"?>
<!-- Created with Inkscape (http://www.inkscape.org/) -->

<svg
   width="1000"
   height="1000"
   viewBox="0 0 1000 1000"
   version="1.1"
   id="svg1"
   xml:space="preserve"
   sodipodi:docname="013.svg"
   inkscape:version="1.4.2 (f4327f4, 2025-05-13)"
   xmlns:inkscape="http://www.inkscape.org/namespaces/inkscape"
   xmlns:sodipodi="http://sodipodi.sourceforge.net/DTD/sodipodi-0.dtd"
   xmlns="http://www.w3.org/2000/svg"
   xmlns:svg="http://www.w3.org/2000/svg"><sodipodi:namedview
     id="namedview1"
     pagecolor="#ffffff"
     bordercolor="#000000"
     borderopacity="0.25"
     inkscape:showpageshadow="2"
     inkscape:pageopacity="0.0"
     inkscape:pagecheckerboard="0"
     inkscape:deskcolor="#d1d1d1"
     inkscape:zoom="6.184"
     inkscape:cx="332.22833"
     inkscape:cy="404.83506"
     inkscape:window-width="1920"
     inkscape:window-height="991"
     inkscape:window-x="-9"
     inkscape:window-y="-9"
     inkscape:window-maximized="1"
     inkscape:current-layer="svg1" /><defs
     id="defs1" /><g
     id="layer6"
     data-layer="500"><g
       id="layer9"
       line="3"
       class="lashes"><path
         style="fill:#e9fd0f;fill-rule:evenodd;stroke-width:5;stroke-linecap:round"
         d="m 312.03412,436.20814 c 0,0 13.27322,14.69702 45.59325,8.51896 12.9904,-2.48315 24.44874,-11.60105 25.83211,-14.34697 1.95279,-3.87621 4.32511,-24.20956 5.34356,-36.06181 1.05758,-12.30762 -27.06995,-24.99713 -27.06995,-24.99713 0,0 -15.78856,-12.2443 -32.33422,0.2511 -13.71967,10.3612 -15.43712,18.49523 -18.88531,34.43166 -2.41706,11.17087 1.52056,32.20419 1.52056,32.20419 z"
         id="path2"
         color="eye_white"
         data-layer="500"
         sodipodi:nodetypes="cssscssc" /><path
         style="fill:#fd340f;fill-opacity:1;fill-rule:evenodd;stroke-width:5;stroke-linecap:round"
         d="m 312.08119,436.31168 c -5.29287,-16.49183 -6.83927,-36.69148 -0.41338,-53.09806 -2.98052,1.86061 -4.97669,4.33746 -7.35682,7.25617 9.07756,-27.8473 44.53708,-41.66058 77.4693,-14.54706 16.11299,2.60543 18.02306,-8.23016 21.13744,-11.95364 -1.09102,17.51369 -4.35593,26.43777 -13.64287,29.5572 0.36893,3.71327 1.38473,19.61859 -5.77379,36.81415 0.62847,-19.04015 2.79331,-45.07246 -19.35625,-54.2996 -16.11393,-6.71279 -37.91378,-10.95324 -49.71213,17.18872 -5.65459,15.90789 -2.3515,43.08212 -2.3515,43.08212 z"
         id="path4"
         color="eye-lashes"
         data-layer="500"
         sodipodi:nodetypes="cccccccssc" /></g></g></svg>
