<?xml version="1.0" encoding="UTF-8" standalone="no"?>
<!-- Created with Inkscape (http://www.inkscape.org/) -->

<svg
   width="1000"
   height="1000"
   viewBox="0 0 1000 1000"
   version="1.1"
   id="svg1"
   xml:space="preserve"
   sodipodi:docname="015.svg"
   inkscape:version="1.4.2 (f4327f4, 2025-05-13)"
   xmlns:inkscape="http://www.inkscape.org/namespaces/inkscape"
   xmlns:sodipodi="http://sodipodi.sourceforge.net/DTD/sodipodi-0.dtd"
   xmlns="http://www.w3.org/2000/svg"
   xmlns:svg="http://www.w3.org/2000/svg"><sodipodi:namedview
     id="namedview1"
     pagecolor="#ffffff"
     bordercolor="#000000"
     borderopacity="0.25"
     inkscape:showpageshadow="2"
     inkscape:pageopacity="0.0"
     inkscape:pagecheckerboard="0"
     inkscape:deskcolor="#d1d1d1"
     inkscape:zoom="6.184"
     inkscape:cx="340.47542"
     inkscape:cy="405.8053"
     inkscape:window-width="1920"
     inkscape:window-height="991"
     inkscape:window-x="-9"
     inkscape:window-y="-9"
     inkscape:window-maximized="1"
     inkscape:current-layer="layer9" /><defs
     id="defs1" /><g
     id="layer6"
     data-layer="500"><g
       id="layer9"
       line="3"
       class="lashes"><path
         style="fill:#e9fd0f;fill-rule:evenodd;stroke-width:5;stroke-linecap:round"
         d="m 365.19372,442.99232 c 15.22673,-10.06971 24.65082,-25.78861 26.52006,-47.54205 1.05758,-12.30762 -1.29366,-21.83053 -1.29366,-21.83053 0,0 -38.45842,-22.43019 -56.72352,-12.61795 -9.35356,5.02484 -32.17176,23.25428 -29.79007,52.72145 3.43787,42.53447 36.45972,45.68794 61.28719,29.26908 z"
         id="path2"
         color="eye_white"
         data-layer="500"
         sodipodi:nodetypes="sscsss" /><path
         style="fill:#000000;fill-opacity:1;stroke:none;stroke-width:3;stroke-linecap:round;stroke-dasharray:none;stroke-opacity:1"
         d="m 390.58856,374.51851 c -14.26517,-42.72436 -84.57915,-26.2382 -87.25685,35.73547 16.19935,-29.58575 46.49826,-43.96366 87.25685,-35.73547 z"
         id="path39"
         color="eye-shadow"
         data-layer="500"
         sodipodi:nodetypes="ccc" /><path
         style="fill:#fd340f;fill-opacity:1;fill-rule:evenodd;stroke-width:5;stroke-linecap:round"
         d="m 302.43127,413.46994 -1.25778,-2.62993 c 7.56114,-18.79082 16.29225,-29.84597 35.27837,-38.37438 10.6003,-4.76157 25.12948,-4.16257 40.34417,-2.35683 14.67536,1.74173 27.09959,-7.10143 32.89044,-8.9833 -3.11424,8.53193 -10.68948,17.38533 -21.85467,19.8151 -11.84767,2.57828 -30.46703,-3.62024 -45.72297,-0.40189 -20.46029,4.31624 -33.04813,18.45074 -39.67756,32.93123 z"
         id="path4"
         color="eye-lashes"
         data-layer="500"
         sodipodi:nodetypes="ccsscssc" /></g></g></svg>
