<?xml version="1.0" encoding="UTF-8" standalone="no"?>
<!-- Created with Inkscape (http://www.inkscape.org/) -->

<svg
   width="1000"
   height="1000"
   viewBox="0 0 1000 1000"
   version="1.1"
   id="svg1"
   xml:space="preserve"
   sodipodi:docname="016.svg"
   inkscape:version="1.4.2 (f4327f4, 2025-05-13)"
   xmlns:inkscape="http://www.inkscape.org/namespaces/inkscape"
   xmlns:sodipodi="http://sodipodi.sourceforge.net/DTD/sodipodi-0.dtd"
   xmlns="http://www.w3.org/2000/svg"
   xmlns:svg="http://www.w3.org/2000/svg"><sodipodi:namedview
     id="namedview1"
     pagecolor="#ffffff"
     bordercolor="#000000"
     borderopacity="0.25"
     inkscape:showpageshadow="2"
     inkscape:pageopacity="0.0"
     inkscape:pagecheckerboard="0"
     inkscape:deskcolor="#d1d1d1"
     inkscape:zoom="4.3727483"
     inkscape:cx="343.94845"
     inkscape:cy="385.22684"
     inkscape:window-width="1920"
     inkscape:window-height="991"
     inkscape:window-x="-9"
     inkscape:window-y="-9"
     inkscape:window-maximized="1"
     inkscape:current-layer="svg1" /><defs
     id="defs1" /><g
     id="layer6"
     data-layer="500"><g
       id="layer9"
       line="3"
       class="lashes"><path
         style="fill:#000000;fill-opacity:1;stroke:none;stroke-width:3;stroke-linecap:round;stroke-dasharray:none;stroke-opacity:1"
         d="m 385.11333,347.0184 c -22.53584,-11.16902 -60.70369,13.05675 -71.46906,38.28904 -6.93043,18.47696 -6.30866,36.18773 -5.44171,38.09935 0.38245,-2.19015 20.53671,-9.86112 31.7246,-20.39379 2.95057,-2.77776 9.79897,-10.08259 14.04327,-14.2862 22.04649,-21.83508 26.50199,-40.87842 31.1429,-41.7084 z"
         id="path39"
         color="eye-shadow"
         data-layer="500"
         sodipodi:nodetypes="cccssc" /><path
         style="fill:#e9fd0f;fill-rule:evenodd;stroke-width:5;stroke-linecap:round"
         d="m 314.59073,461.49791 c 0,0 24.59087,-11.27157 42.46491,-22.03066 15.64031,-9.41452 30.79292,-33.6865 32.66216,-55.43994 1.05758,-12.30762 -5.34448,-35.51683 -5.34448,-35.51683 0,0 -27.79474,6.27952 -44.3404,18.77492 -13.71967,10.3612 -28.35806,38.96291 -31.80625,54.89934 -2.41706,11.17087 6.36406,39.31317 6.36406,39.31317 z"
         id="path2"
         color="eye_white"
         data-layer="500"
         sodipodi:nodetypes="csscssc" /><path
         style="fill:#fd340f;fill-opacity:1;fill-rule:evenodd;stroke-width:5;stroke-linecap:round"
         d="m 308.11697,430.52567 -0.36937,-8.15827 c 0,0 3.66582,-12.0806 8.06198,-23.30487 12.95531,-33.0775 56.96541,-54.30865 63.68992,-56.60057 8.09761,-1.99723 9.13484,-6.60214 24.01236,-25.72752 -3.57789,17.26224 -9.5397,23.15424 -14.86479,29.38655 0.53876,1.29312 1.90381,4.46031 4.07394,9.35368 7.46114,-1.13637 16.37602,-5.59957 27.32899,-15.20708 -4.55912,18.17617 -26.6015,23.07813 -26.42401,27.42748 0.039,0.95673 0.93889,3.6187 1.66472,4.03641 3.75787,2.16259 13.29287,-2.40767 28.38263,-4.62928 -6.66684,4.39004 -15.95907,12.69584 -29.63282,13.79869 -1.25413,3.78419 -3.28026,8.51875 -4.99105,9.46688 1.0308,-26.77786 -4.69692,-37.97135 -5.54791,-40.47341 -9.45995,1.89609 -23.4134,9.17674 -34.76074,18.52382 -10.59172,8.72465 -17.54631,16.42197 -25.95622,30.41566 -8.69664,14.47079 -14.66763,31.69183 -14.66763,31.69183 z"
         id="path4"
         color="eye-lashes"
         data-layer="500"
         sodipodi:nodetypes="ccssccccssccccssc" /></g></g></svg>
