<?xml version="1.0" encoding="UTF-8" standalone="no"?>
<!-- Created with Inkscape (http://www.inkscape.org/) -->

<svg
   width="1000"
   height="1000"
   viewBox="0 0 1000 1000"
   version="1.1"
   id="svg1"
   xml:space="preserve"
   sodipodi:docname="017.svg"
   inkscape:version="1.4.2 (f4327f4, 2025-05-13)"
   xmlns:inkscape="http://www.inkscape.org/namespaces/inkscape"
   xmlns:sodipodi="http://sodipodi.sourceforge.net/DTD/sodipodi-0.dtd"
   xmlns="http://www.w3.org/2000/svg"
   xmlns:svg="http://www.w3.org/2000/svg"><sodipodi:namedview
     id="namedview1"
     pagecolor="#ffffff"
     bordercolor="#000000"
     borderopacity="0.25"
     inkscape:showpageshadow="2"
     inkscape:pageopacity="0.0"
     inkscape:pagecheckerboard="0"
     inkscape:deskcolor="#d1d1d1"
     inkscape:zoom="6.184"
     inkscape:cx="349.12678"
     inkscape:cy="395.45602"
     inkscape:window-width="1920"
     inkscape:window-height="991"
     inkscape:window-x="-9"
     inkscape:window-y="-9"
     inkscape:window-maximized="1"
     inkscape:current-layer="svg1" /><defs
     id="defs1" /><g
     id="layer6"
     data-layer="500"><g
       id="layer9"
       line="3"
       class="lashes"><path
         style="display:inline;fill:#fd340f;fill-opacity:1;fill-rule:evenodd;stroke-width:5;stroke-linecap:round"
         d="m 303.99581,450.33982 c 6.29677,-21.12449 -11.29223,-27.68616 2.68779,-65.0327 2.58499,-6.90559 11.66523,-20.61462 32.18145,-25.64815 12.11437,-2.97219 32.24513,-1.64489 45.84322,4.67711 1.9898,0.9251 16.46516,4.94095 32.36044,-6.94589 -8.088,21.04859 -26.08136,13.46596 -25.60203,14.42919 0.75625,1.51971 1.40586,3.17935 1.94237,4.9174 0.33631,1.08946 11.4278,2.8744 19.44908,-4.85137 -4.31446,15.74166 -18.20188,10.07571 -18.06286,11.0225 0.3703,2.52188 0.51355,5.05914 0.41303,7.4526 -0.0974,2.31995 -0.13209,7.89876 -1.21233,14.80497 -0.12635,0.80779 9.67801,-2.57067 11.90646,10.45906 -4.73454,-8.23867 -12.59234,-6.62366 -12.73988,-5.93036 -0.50235,2.36059 -1.1356,4.81531 -1.93599,7.30095 -0.19322,0.60005 7.40621,-0.21305 9.82075,9.36449 -5.34343,-4.91708 -10.98628,-6.03257 -11.29001,-5.26854 -0.99159,2.49426 -2.16923,4.9849 -3.56892,7.40918 -0.29613,0.51291 8.97897,2.25586 6.78277,12.40405 -4.11562,-7.50752 -8.59448,-9.48336 -9.07134,-8.79938 -6.44397,9.24272 -16.63017,16.95927 -32.77246,19.29167 -10.38601,1.50067 -18.15833,-1.06488 -31.76258,-3.02473 -4.88698,-0.70402 -11.19263,1.04958 -15.36896,1.96795 z"
         id="path4"
         color="eye-lashes"
         data-layer="500"
         sodipodi:nodetypes="cssscccccccccccccccssc" /><path
         style="display:inline;fill:#e9fd0f;fill-rule:evenodd;stroke-width:5;stroke-linecap:round"
         d="m 360.0611,446.13847 c 11.50532,-2.38208 29.62227,-17.93439 29.87389,-54.8926 0.0645,-9.46982 -4.18034,-14.98084 -6.27836,-21.29296 -4.4196,-0.0837 -38.75002,-14.15161 -61.85802,5.11744 -22.4335,18.70661 -12.82757,45.14429 -12.82084,69.81662 5.25401,-0.17205 9.50771,-0.44114 14.21915,0.54234 9.1009,1.89974 16.92158,4.83811 36.86418,0.70916 z"
         id="path2"
         color="eye_white"
         data-layer="500"
         sodipodi:nodetypes="sscscss" /></g></g></svg>
