<?xml version="1.0" encoding="UTF-8" standalone="no"?>
<!-- Created with Inkscape (http://www.inkscape.org/) -->

<svg
   width="1000"
   height="1000"
   viewBox="0 0 1000 1000"
   version="1.1"
   id="svg1"
   xml:space="preserve"
   sodipodi:docname="018.svg"
   inkscape:version="1.4.2 (f4327f4, 2025-05-13)"
   xmlns:inkscape="http://www.inkscape.org/namespaces/inkscape"
   xmlns:sodipodi="http://sodipodi.sourceforge.net/DTD/sodipodi-0.dtd"
   xmlns="http://www.w3.org/2000/svg"
   xmlns:svg="http://www.w3.org/2000/svg"><sodipodi:namedview
     id="namedview1"
     pagecolor="#ffffff"
     bordercolor="#000000"
     borderopacity="0.25"
     inkscape:showpageshadow="2"
     inkscape:pageopacity="0.0"
     inkscape:pagecheckerboard="0"
     inkscape:deskcolor="#d1d1d1"
     inkscape:zoom="3.092"
     inkscape:cx="369.01682"
     inkscape:cy="436.77232"
     inkscape:window-width="1920"
     inkscape:window-height="991"
     inkscape:window-x="-9"
     inkscape:window-y="-9"
     inkscape:window-maximized="1"
     inkscape:current-layer="layer6" /><defs
     id="defs1" /><g
     id="layer6"><path
       d="m 353.55859,346.29883 a 40.025162,52.368519 13.6 0 0 -29.81836,12.40039 40.025162,52.368519 13.6 0 0 -16.35546,29.87109 40.025162,52.368519 13.6 0 0 4.67382,42.73242 40.025162,52.368519 13.6 0 0 14.86328,14.92579 40.025162,52.368519 13.6 0 0 7.05274,2.65429 40.025162,52.368519 13.6 0 0 29.5957,-7.07226 40.025162,52.368519 13.6 0 0 21.6211,-34.41602 40.025162,52.368519 13.6 0 0 -26.58985,-60.3125 40.025162,52.368519 13.6 0 0 -5.04297,-0.7832 z"
       style="display:inline;fill:#ff2d00;fill-opacity:1;stroke-width:3.18726;stroke-linecap:round"
       id="path1"
       data-layer="500"
       color="eye_white" /><g
       id="layer8"
       line="3"
       class="lashes"
       style="display:inline;fill:#000000;fill-opacity:1;stroke:none"
       transform="translate(-0.16170763,-0.16170763)"><path
         style="fill:#000000;fill-opacity:1;stroke:none;stroke-width:3;stroke-linecap:round;stroke-dasharray:none;stroke-opacity:1"
         d="m 384.97533,375.11466 c -1.34182,-4.75619 -8.97691,-33.84662 -39.48333,-28.55336 -17.03576,2.95593 -30.05024,17.43187 -36.12248,33.62083 -6.93043,18.47696 -2.69258,37.92188 -1.82563,39.8335 -0.95164,-8.94144 -0.6537,-27.61737 4.3522,-39.19106 4.48651,-10.37288 13.40389,-26.71525 32.61248,-31.63505 23.93199,-6.12958 33.17946,14.02149 37.63904,22.09475 0.51833,0.93834 0.99119,1.99545 2.82772,3.83039 z"
         id="path39"
         color="eye-lashes"
         data-layer="500"
         sodipodi:nodetypes="csscsssc" /></g></g></svg>
