<?xml version="1.0" encoding="UTF-8" standalone="no"?>
<!-- Created with Inkscape (http://www.inkscape.org/) -->

<svg
   width="1000"
   height="1000"
   viewBox="0 0 1000 1000"
   version="1.1"
   id="svg1"
   xml:space="preserve"
   xmlns="http://www.w3.org/2000/svg"
   xmlns:svg="http://www.w3.org/2000/svg"><defs
     id="defs1" /><g
     id="layer1"><ellipse
       style="fill:#6ab84f;fill-opacity:1;stroke:none;stroke-width:4.93463;stroke-linecap:round"
       id="path2"
       cx="344.04526"
       cy="404.22021"
       rx="37.262257"
       ry="50.781189"
       data-layer="500"
       color="iris" /><g
       id="layer2"><path
         d="m 381.27148,406.4668 -74.48437,-1.46094 a 37.262257,50.781189 0 0 0 37.25781,49.99609 37.262257,50.781189 0 0 0 37.22656,-48.53515 z"
         style="fill:#b8864f;stroke-width:4.93463;stroke-linecap:round"
         id="path5"
         data-layer="500"
         color="gradient"
         data-grad="from:iris;to:iris-1;angle:90;range:1%-50%; fromOpacity:0; toOpacity:1" /><path
         d="m 344.04492,353.43945 a 37.262257,50.781189 0 0 0 -37.26172,50.78125 37.262257,50.781189 0 0 0 0.004,0.78516 l 74.48437,1.46094 a 37.262257,50.781189 0 0 0 0.0352,-2.2461 37.262257,50.781189 0 0 0 -37.26172,-50.78125 z"
         style="fill:#b8864f;stroke-width:4.93463;stroke-linecap:round"
         id="path4"
         data-layer="500"
         color="gradient"
         data-grad="from:iris-2;to:iris;angle:90;range:50%-100%; fromOpacity:1; toOpacity:0" /></g><path
       d="m 379.39535,387.83398 -23.17383,8.77344 c 0.21513,1.71937 0.35639,3.63823 0.44531,5.77539 l 14.86768,3.89402 9.71045,0.8052 c 0.0497,-1.06147 0.0742,-2.12852 0.0742,-3.19922 0,-5.61273 -0.67684,-11.01074 -1.92383,-16.04883 z"
       style="display:inline;fill:#ff0035;fill-opacity:1;stroke:none;stroke-width:3.5;stroke-linecap:round"
       id="path6"
       data-layer="500"
       data-grad="from:#ffffff;to:#ffffff;angle:45;range:5%-100%; fromOpacity:0.3; toOpacity:0.3"
       color="gradient" /><path
       d="m 381.2521,407.09632 -24.61386,-4.71351 c 0.0904,2.17358 0.12668,4.57289 0.13281,7.2168 l 20.41832,17.81285 c 2.39825,-6.20296 3.7297,-13.20366 4.06273,-20.31614 z"
       style="display:inline;fill:#5a00ff;fill-opacity:1;stroke:none;stroke-width:3.5;stroke-linecap:round"
       id="path7"
       data-layer="500"
       color="gradient"
       data-grad="from:#ffffff;to:#ffffff;angle:45;range:5%-100%; fromOpacity:0.5; toOpacity:0.5" /><ellipse
       style="fill:#040703;fill-opacity:1;stroke:none;stroke-width:4.87901;stroke-linecap:round"
       id="path1"
       cx="341.42657"
       cy="407.26337"
       rx="26.595161"
       ry="39.43396"
       data-layer="500"
       color="pupil" /></g></svg>
