<?xml version="1.0" encoding="UTF-8" standalone="no"?>
<!-- Created with Inkscape (http://www.inkscape.org/) -->

<svg
   width="1000"
   height="1000"
   viewBox="0 0 1000 1000"
   version="1.1"
   id="svg1"
   xml:space="preserve"
   xmlns="http://www.w3.org/2000/svg"
   xmlns:svg="http://www.w3.org/2000/svg"><defs
     id="defs1" /><g
     id="layer1"><ellipse
       style="fill:#6ab84f;fill-opacity:1;stroke:none;stroke-width:4.93463;stroke-linecap:round"
       id="path2"
       cx="344.04526"
       cy="404.22021"
       rx="37.262257"
       ry="50.781189"
       data-layer="500"
       color="iris" /><g
       id="layer2"><path
         d="m 381.27148,406.4668 -74.48437,-1.46094 a 37.262257,50.781189 0 0 0 37.25781,49.99609 37.262257,50.781189 0 0 0 37.22656,-48.53515 z"
         style="fill:#b8864f;stroke-width:4.93463;stroke-linecap:round"
         id="path5"
         data-layer="500"
         color="gradient"
         data-grad="from:iris-1;to:iris-1;angle:90;range:1%-90%; fromOpacity:0; toOpacity:1" /><path
         d="m 344.04492,353.43945 a 37.262257,50.781189 0 0 0 -37.26172,50.78125 37.262257,50.781189 0 0 0 0.004,0.78516 l 74.48437,1.46094 a 37.262257,50.781189 0 0 0 0.0352,-2.2461 37.262257,50.781189 0 0 0 -37.26172,-50.78125 z"
         style="fill:#b8864f;stroke-width:4.93463;stroke-linecap:round"
         id="path4"
         data-layer="500"
         color="gradient"
         data-grad="from:iris-2;to:iris-2;angle:90;range:10%-100%; fromOpacity:1; toOpacity:0" /></g><ellipse
       style="fill:#040703;fill-opacity:1;stroke:none;stroke-width:4.87901;stroke-linecap:round"
       id="path1"
       cx="341.42657"
       cy="407.26337"
       rx="26.595161"
       ry="39.43396"
       data-layer="500"
       color="pupil" /></g></svg>
