<?xml version="1.0" encoding="UTF-8" standalone="no"?>
<!-- Created with Inkscape (http://www.inkscape.org/) -->

<svg
   width="1000"
   height="1000"
   viewBox="0 0 1000 1000"
   version="1.1"
   id="svg1"
   xml:space="preserve"
   xmlns="http://www.w3.org/2000/svg"
   xmlns:svg="http://www.w3.org/2000/svg"><defs
     id="defs1" /><g
     id="g6"
     style="display:inline"
     data-layer="100"
     transform="matrix(0.85966739,-0.0705361,0.0705361,0.85966739,-0.94306052,55.642704)"><path
       style="display:inline;fill:#ff5555;stroke-width:0.885764"
       d="m 422.71219,315.5608 c 0,0 -0.70116,-17.57165 4.49045,-33.07127 5.47183,-16.33608 17.01076,-30.59731 23.58012,-28.66975 14.31778,4.20106 31.9538,43.87996 32.54023,69.38731 1.06717,46.42009 -26.52462,68.88685 -26.52462,68.88685 z"
       id="path1"
       color="coat"
       data-layer="1200" /><g
       id="g4"><path
         d="m 475.4668,365.24805 c 3.01305,-6.93542 5.57921,-15.23221 6.91015,-24.91211 -4.45438,3.70324 -9.36773,8.68145 -10.1914,13.15625 -0.60636,3.29418 1.2152,7.87333 3.28125,11.75586 z"
         style="display:inline;opacity:1;fill:#ff00ff;stroke-width:3;stroke-linecap:square"
         id="path2"
         data-layer="1200"
         color="detail-1" /><path
         d="m 483.27344,330.05078 c 0.0849,-2.2204 0.10267,-4.50157 0.0488,-6.84375 -0.15431,-6.71184 -1.48859,-14.4041 -3.63282,-22.17383 -3.66857,5.42078 -6.84019,11.69666 -6.20898,16.56055 0.56004,4.31553 5.47335,9.05695 9.79297,12.45703 z"
         style="display:inline;opacity:1;fill:#ff00ff;stroke-width:3;stroke-linecap:square"
         id="path3"
         data-layer="1200"
         color="detail-1" /><path
         d="m 477.04492,292.5625 c -6.53988,-18.77454 -17.08245,-36.04885 -26.26172,-38.74219 -6.56936,-1.92756 -18.10825,12.33384 -23.58008,28.66992 -1.39726,4.17154 -2.36889,8.49328 -3.04101,12.58204 2.14307,0.80476 4.23205,1.21051 5.98047,0.85351 4.9385,-1.00835 5.05213,-10.50041 10.02539,-11.32031 2.57273,-0.42414 4.1928,4.10031 6.79101,3.88086 3.89249,-0.32877 6.03311,-7.78037 10.08594,-7.09571 4.7039,0.79467 6.23084,8.76443 10.63672,10.59375 2.60039,1.07968 6.01589,1.06102 9.36328,0.57813 z"
         style="display:inline;opacity:1;fill:#ff00ff;stroke-width:3;stroke-linecap:square"
         id="path4"
         data-layer="1200"
         color="detail-1" /></g><path
       style="display:inline;fill:none;stroke:#000000;stroke-width:5;stroke-linecap:round;stroke-dasharray:none;stroke-opacity:1"
       d="m 422.71219,315.5608 c 0,0 -0.70116,-17.57165 4.49045,-33.07127 5.47183,-16.33608 17.01076,-30.59731 23.58012,-28.66975 14.31778,4.20106 31.9538,43.87996 32.54023,69.38731 1.06717,46.42009 -26.52462,68.88685 -26.52462,68.88685"
       id="path5"
       color="coat_contour"
       data-layer="1200" /></g><g
     id="layer4"
     style="display:inline"><path
       style="display:inline;fill:#ff5555;stroke-width:0.885764"
       d="m 422.71219,315.5608 c 0,0 -0.70116,-17.57165 4.49045,-33.07127 5.47183,-16.33608 17.01076,-30.59731 23.58012,-28.66975 14.31778,4.20106 31.9538,43.87996 32.54023,69.38731 1.06717,46.42009 -26.52462,68.88685 -26.52462,68.88685 z"
       id="path7"
       color="coat"
       data-layer="1200" /><g
       id="layer1"><path
         d="m 475.4668,365.24805 c 3.01305,-6.93542 5.57921,-15.23221 6.91015,-24.91211 -4.45438,3.70324 -9.36773,8.68145 -10.1914,13.15625 -0.60636,3.29418 1.2152,7.87333 3.28125,11.75586 z"
         style="display:inline;opacity:1;fill:#ff00ff;stroke-width:3;stroke-linecap:square"
         id="path12"
         data-layer="1200"
         color="detail-1" /><path
         d="m 483.27344,330.05078 c 0.0849,-2.2204 0.10267,-4.50157 0.0488,-6.84375 -0.15431,-6.71184 -1.48859,-14.4041 -3.63282,-22.17383 -3.66857,5.42078 -6.84019,11.69666 -6.20898,16.56055 0.56004,4.31553 5.47335,9.05695 9.79297,12.45703 z"
         style="display:inline;opacity:1;fill:#ff00ff;stroke-width:3;stroke-linecap:square"
         id="path11"
         data-layer="1200"
         color="detail-1" /><path
         d="m 477.04492,292.5625 c -6.53988,-18.77454 -17.08245,-36.04885 -26.26172,-38.74219 -6.56936,-1.92756 -18.10825,12.33384 -23.58008,28.66992 -1.39726,4.17154 -2.36889,8.49328 -3.04101,12.58204 2.14307,0.80476 4.23205,1.21051 5.98047,0.85351 4.9385,-1.00835 5.05213,-10.50041 10.02539,-11.32031 2.57273,-0.42414 4.1928,4.10031 6.79101,3.88086 3.89249,-0.32877 6.03311,-7.78037 10.08594,-7.09571 4.7039,0.79467 6.23084,8.76443 10.63672,10.59375 2.60039,1.07968 6.01589,1.06102 9.36328,0.57813 z"
         style="display:inline;opacity:1;fill:#ff00ff;stroke-width:3;stroke-linecap:square"
         id="path10"
         data-layer="1200"
         color="detail-1" /></g><path
       style="display:inline;fill:none;stroke:#000000;stroke-width:5;stroke-linecap:round;stroke-dasharray:none;stroke-opacity:1"
       d="m 422.71219,315.5608 c 0,0 -0.70116,-17.57165 4.49045,-33.07127 5.47183,-16.33608 17.01076,-30.59731 23.58012,-28.66975 14.31778,4.20106 31.9538,43.87996 32.54023,69.38731 1.06717,46.42009 -26.52462,68.88685 -26.52462,68.88685"
       id="path16"
       color="coat_contour"
       data-layer="1200" /><path
       style="fill:none;stroke:#000000;stroke-width:3;stroke-linecap:round;stroke-dasharray:none;stroke-opacity:1"
       d="m 464.87272,355.59768 c 5.10589,-26.34332 9.44199,-37.05971 -4.17496,-62.44288"
       id="path17"
       color="coat_contour"
       data-layer="1200" /></g></svg>
