<?xml version="1.0" encoding="UTF-8" standalone="no"?>
<!-- Created with Inkscape (http://www.inkscape.org/) -->

<svg
   width="1000"
   height="1000"
   viewBox="0 0 1000 1000"
   version="1.1"
   id="svg1"
   xml:space="preserve"
   sodipodi:docname="bat.svg"
   inkscape:version="1.4.2 (f4327f4, 2025-05-13)"
   xmlns:inkscape="http://www.inkscape.org/namespaces/inkscape"
   xmlns:sodipodi="http://sodipodi.sourceforge.net/DTD/sodipodi-0.dtd"
   xmlns="http://www.w3.org/2000/svg"
   xmlns:svg="http://www.w3.org/2000/svg"><sodipodi:namedview
     id="namedview1"
     pagecolor="#ffffff"
     bordercolor="#000000"
     borderopacity="0.25"
     inkscape:showpageshadow="2"
     inkscape:pageopacity="0.0"
     inkscape:pagecheckerboard="0"
     inkscape:deskcolor="#d1d1d1"
     inkscape:zoom="3.092"
     inkscape:cx="485.44631"
     inkscape:cy="247.8978"
     inkscape:window-width="1920"
     inkscape:window-height="991"
     inkscape:window-x="-9"
     inkscape:window-y="-9"
     inkscape:window-maximized="1"
     inkscape:current-layer="svg1" /><defs
     id="defs1" /><g
     id="g5"
     style="display:inline"
     transform="matrix(0.87037729,-0.16956717,0.16956717,0.87037729,-34.323846,97.931946)"
     data-layer="100"><path
       style="display:inline;fill:#ff5555;stroke-width:0.885764"
       d="m 422.71219,315.5608 c 0,0 -0.7012,-17.57166 4.49045,-33.07127 4.0648,-12.13541 11.47767,-23.12584 17.71425,-27.18542 2.15878,-1.40522 5.64164,-29.86961 7.40209,-29.86402 3.31501,0.0105 7.28253,5.38216 8.3012,21.31013 0.15041,2.35176 6.43428,-6.57954 8.61884,-4.93948 4.47323,3.35828 -0.21065,9.86362 0.26729,14.65874 0.37678,3.78014 4.79398,4.45132 5.15277,4.86822 2.08264,2.41994 -10.20627,4.98715 -8.22298,8.2494 9.07103,14.92066 16.5095,37.20489 16.88689,53.61999 1.06723,46.42009 -26.52462,68.88685 -26.52462,68.88685 z"
       id="path3"
       color="coat"
       data-layer="1200"
       sodipodi:nodetypes="cssssssssscc" /><path
       style="display:inline;fill:none;stroke:#000000;stroke-width:5;stroke-linecap:round;stroke-dasharray:none;stroke-opacity:1"
       d="m 422.71219,315.5608 c 0,0 -0.7012,-17.57166 4.49045,-33.07127 3.8087,-11.37082 10.55687,-21.73639 16.52256,-26.337 2.60502,-2.00893 3.51592,-27.60186 11.58385,-29.23442 7.79842,-1.57802 4.12641,17.71859 4.13479,19.91081 1.32457,-1.48541 6.89983,-8.23914 11.67224,-2.55115 4.79338,5.71298 -1.89356,10.94365 -2.73256,12.23138 1.36523,0.21396 4.17737,1.46887 4.68529,6.02284 0.56598,5.07452 -5.28704,6.58987 -6.63577,7.05007 9.07244,14.92067 16.51251,37.20808 16.88995,53.62503 1.06723,46.42009 -26.52462,68.88685 -26.52462,68.88685"
       id="path4"
       color="coat_contour"
       data-layer="1200"
       sodipodi:nodetypes="cssscscscsc" /></g><g
     id="layer4"
     style="display:inline"
     sodipodi:insensitive="true"
     data-layer="1200"><path
       style="display:inline;fill:#ff5555;stroke-width:0.885764"
       d="m 422.71219,315.5608 c 0,0 -0.7012,-17.57166 4.49045,-33.07127 4.0648,-12.13541 11.47767,-23.12584 17.71425,-27.18542 2.15878,-1.40522 5.64164,-29.86961 7.40209,-29.86402 3.31501,0.0105 7.28253,5.38216 8.3012,21.31013 0.15041,2.35176 6.43428,-6.57954 8.61884,-4.93948 4.47323,3.35828 -0.21065,9.86362 0.26729,14.65874 0.37678,3.78014 4.79398,4.45132 5.15277,4.86822 2.08264,2.41994 -10.20627,4.98715 -8.22298,8.2494 9.07103,14.92066 16.5095,37.20489 16.88689,53.61999 1.06723,46.42009 -26.52462,68.88685 -26.52462,68.88685 z"
       id="path7"
       color="coat"
       data-layer="1200"
       sodipodi:nodetypes="cssssssssscc" /><path
       style="display:inline;fill:none;stroke:#000000;stroke-width:5;stroke-linecap:round;stroke-dasharray:none;stroke-opacity:1"
       d="m 422.71219,315.5608 c 0,0 -0.7012,-17.57166 4.49045,-33.07127 3.8087,-11.37082 10.55687,-21.73639 16.52256,-26.337 2.60502,-2.00893 1.96259,-29.74371 10.03052,-31.37627 7.79842,-1.57802 5.67974,19.86044 5.68812,22.05266 1.32457,-1.48541 7.04122,-10.31357 11.81363,-4.62558 4.79338,5.71298 -2.03495,13.01808 -2.87395,14.30581 1.36523,0.21396 5.71759,0.98069 6.22551,5.53466 0.56598,5.07452 -6.82726,7.07805 -8.17599,7.53825 9.07244,14.92067 16.51251,37.20808 16.88995,53.62503 1.06723,46.42009 -26.52462,68.88685 -26.52462,68.88685"
       id="path16"
       color="coat_contour"
       data-layer="1200"
       sodipodi:nodetypes="cssscscscsc" /><path
       style="fill:none;stroke:#000000;stroke-width:3;stroke-linecap:round;stroke-dasharray:none;stroke-opacity:1"
       d="m 464.87272,355.59768 c 5.10589,-26.34332 9.44199,-37.05971 -4.17496,-62.44288"
       id="path17"
       color="coat_contour"
       data-layer="1200" /></g></svg>
