<?xml version="1.0" encoding="UTF-8" standalone="no"?>
<!-- Created with Inkscape (http://www.inkscape.org/) -->

<svg
   width="1000"
   height="1000"
   viewBox="0 0 1000 1000"
   version="1.1"
   id="svg1"
   xml:space="preserve"
   sodipodi:docname="Kirin.svg"
   inkscape:version="1.4.2 (f4327f4, 2025-05-13)"
   xmlns:inkscape="http://www.inkscape.org/namespaces/inkscape"
   xmlns:sodipodi="http://sodipodi.sourceforge.net/DTD/sodipodi-0.dtd"
   xmlns="http://www.w3.org/2000/svg"
   xmlns:svg="http://www.w3.org/2000/svg"><sodipodi:namedview
     id="namedview1"
     pagecolor="#ffffff"
     bordercolor="#000000"
     borderopacity="0.25"
     inkscape:showpageshadow="2"
     inkscape:pageopacity="0.0"
     inkscape:pagecheckerboard="0"
     inkscape:deskcolor="#d1d1d1"
     inkscape:zoom="1.546"
     inkscape:cx="239.3273"
     inkscape:cy="356.72704"
     inkscape:window-width="1920"
     inkscape:window-height="991"
     inkscape:window-x="-9"
     inkscape:window-y="-9"
     inkscape:window-maximized="1"
     inkscape:current-layer="svg1" /><defs
     id="defs1" /><g
     id="g4"
     data-layer="100"><path
       style="opacity:1;fill:#ffb9b9;fill-opacity:1;fill-rule:evenodd;stroke:none;stroke-width:5;stroke-linecap:round;stroke-miterlimit:100;stroke-opacity:1"
       d="m 330.2271,343.71976 c -23.71428,-3.22262 -50.0336,-31.14475 -53.05588,-54.8854 -2.95435,-23.20715 6.85293,-68.47031 29.72959,-63.57557 16.94703,3.62603 62.05769,66.8441 55.34277,101.76667 -3.26636,16.98742 -14.87543,19.02366 -32.01648,16.6943 z"
       id="path4"
       sodipodi:nodetypes="sssss"
       color="coat" /><path
       style="opacity:1;fill:#ff1b1b;fill-opacity:1;fill-rule:evenodd;stroke:none;stroke-width:5;stroke-linecap:round;stroke-miterlimit:100;stroke-opacity:1"
       d="m 277.4903,277.16688 c 0,0 7.4772,-22.03964 25.4789,-28.32449 18.0017,-6.28485 37.91049,14.41764 37.91049,14.41764 0,0 -20.97791,-42.40393 -39.13325,-39.13325 -19.13312,3.44683 -24.25614,53.0401 -24.25614,53.0401 z"
       id="path6"
       sodipodi:nodetypes="czcsc"
       color="detail-1" /><path
       style="opacity:1;fill:none;fill-opacity:1;fill-rule:evenodd;stroke:#000000;stroke-width:5;stroke-linecap:round;stroke-miterlimit:100;stroke-opacity:1"
       d="m 330.2271,343.71976 c -23.71428,-3.22262 -50.0336,-31.14475 -53.05588,-54.8854 -2.95435,-23.20715 6.85293,-68.47031 29.72959,-63.57557 16.94703,3.62603 62.05769,66.8441 55.34277,101.76667 -3.26636,16.98742 -14.87543,19.02366 -32.01648,16.6943 z"
       id="path5"
       sodipodi:nodetypes="sssss"
       color="coat-contour" /></g><g
     id="layer4"
     style="display:inline"
     data-layer="1200"><path
       style="display:inline;fill:#ff5555;stroke-width:0.885764"
       d="m 431.63107,348.94941 c 0,0 -17.11455,-50.02811 -11.97517,-65.54512 7.75872,-23.42545 42.20927,-43.27477 48.96461,-42.16241 14.3799,2.36784 7.74202,26.34334 11.44504,46.66916 3.5693,19.59178 10.51636,35.12611 10.80418,47.64526 1.06723,46.42009 -34.07136,56.53764 -34.07136,56.53764 z"
       id="path7"
       color="coat"
       sodipodi:nodetypes="csssscc"
       sodipodi:insensitive="true" /><path
       style="display:inline;fill:#ff0606;fill-opacity:1;stroke-width:0.885764"
       d="m 457.27526,261.1071 c -5.71019,-10.16278 -27.4656,3.19145 -19.28887,-3.92654 12.23863,-10.65395 26.58442,-16.60552 30.63412,-15.93868 13.66241,2.2497 8.3521,24.00459 10.96409,43.60254 0.13717,1.0292 -6.40816,-3.92959 -14.84122,-2.99364 -8.43306,0.93595 -12.99288,5.58303 -17.00064,10.95467 0,0 1.24163,-5.20135 4.42135,-12.45293 2.78691,-6.35577 7.77831,-14.49856 5.11117,-19.24542 z"
       id="path3"
       color="detail-1"
       sodipodi:nodetypes="sssszcss" /><path
       style="display:inline;fill:none;stroke:#000000;stroke-width:5;stroke-linecap:round;stroke-dasharray:none;stroke-opacity:1"
       d="m 431.63107,348.72072 c 0,0 -19.56839,-38.07497 -11.51779,-66.68857 7.52162,-26.73351 48.45116,-53.38233 57.19742,-36.21649 3.59673,7.05913 -1.50691,24.16113 1.79766,43.97104 2.91923,17.49991 13.08713,32.8908 12.90482,50.80076 -0.47264,46.42995 -35.21481,51.50648 -35.21481,51.50648"
       id="path16"
       color="coat_contour"
       sodipodi:nodetypes="cssssc"
       sodipodi:insensitive="true" /><path
       style="fill:none;stroke:#000000;stroke-width:3;stroke-linecap:round;stroke-dasharray:none;stroke-opacity:1"
       d="m 453.60978,362.91573 c 0.31498,-0.23528 -0.81332,0.50356 -0.93711,0.82376 0.70667,-0.50785 -0.72316,0.5392 0.90704,-0.76993 1.63021,-1.30912 3.68116,-3.48589 6.03262,-10.9487 0.45632,-1.44822 1.17141,-5.26946 0.43323,-8.54998 -3.0657,-13.62428 -14.77594,-38.94192 -10.95268,-55.16019 5.5851,-23.69196 32.9239,-26.64886 28.29919,-42.03716"
       id="path17"
       color="coat_contour"
       sodipodi:nodetypes="cczsssc"
       sodipodi:insensitive="true" /></g></svg>
