<?xml version="1.0" encoding="UTF-8" standalone="no"?>
<!-- Created with Inkscape (http://www.inkscape.org/) -->

<svg
   width="1000"
   height="1000"
   viewBox="0 0 1000 1000"
   version="1.1"
   id="svg1"
   xml:space="preserve"
   xmlns="http://www.w3.org/2000/svg"
   xmlns:svg="http://www.w3.org/2000/svg"><defs
     id="defs1" /><g
     id="g4"
     style="display:inline"
     data-layer="100"
     transform="matrix(0.85966739,-0.0705361,0.0705361,0.85966739,-0.94306052,55.642704)"><path
       style="display:inline;fill:#ff5555;stroke-width:0.885764"
       d="m 414.47938,330.1969 c 60.7326,-42.16477 71.83718,-56.30979 108.89237,-105.6964 -10.23486,52.9452 -22.74615,67.61706 -43.48614,85.13804 32.31234,-9.26089 34.27794,-15.81995 66.02112,-40.05429 -29.78368,57.20788 -69.6731,68.48763 -69.6731,68.48763 0,0 24.85763,-0.28649 38.85931,-3.51725 -49.06807,45.52066 -98.77255,23.69332 -98.77255,23.69332 z"
       id="path3"
       color="mane-main" /><path
       style="display:inline;fill:none;stroke:#000000;stroke-width:5;stroke-linecap:round;stroke-dasharray:none;stroke-opacity:1"
       d="m 414.47938,330.1969 c 58.20699,-40.41132 70.82777,-55.08487 104.39867,-99.71335 1.45664,-1.93644 2.3059,-2.63561 3.84687,-4.68939 -0.36892,2.73098 -0.25712,3.28585 -0.7162,5.46823 -9.69471,46.08715 -22.54555,61.09089 -40.39932,76.90946 -0.56027,0.49639 0.0578,-0.0532 -0.98055,1.18083 0.6795,-0.19475 0.60234,-0.10244 1.25556,-0.29499 29.47169,-8.68732 32.76369,-15.32822 61.22736,-37.3265 0.90562,-0.69991 1.83672,-1.41537 2.79496,-2.14694 -0.4859,1.18807 -1.17785,2.23701 -1.77228,3.32903 -25.31055,46.4975 -57.90086,61.53567 -65.65706,64.38691 -1.45365,0.53437 -1.85274,0.58604 -2.24376,0.77169 0.57747,0.0379 0.70487,-0.008 1.94407,-0.0371 6.1198,-0.14291 25.27135,-0.79347 36.91524,-3.48019 -49.06807,45.52066 -98.77255,23.69332 -98.77255,23.69332"
       id="path4"
       color="mane-contour" /></g><g
     id="layer4"
     style="display:inline"
     data-layer="1200"><path
       style="display:inline;fill:#ff5555;stroke-width:0.885764"
       d="m 414.47938,330.1969 c 60.7326,-42.16477 71.83718,-56.30979 108.89237,-105.6964 -10.23486,52.9452 -22.74615,67.61706 -43.48614,85.13804 32.31234,-9.26089 34.27794,-15.81995 66.02112,-40.05429 -29.78368,57.20788 -69.6731,68.48763 -69.6731,68.48763 0,0 24.85763,-0.28649 38.85931,-3.51725 -49.06807,45.52066 -98.77255,23.69332 -98.77255,23.69332 z"
       id="path7"
       color="mane-main" /><path
       style="display:inline;fill:none;stroke:#000000;stroke-width:5;stroke-linecap:round;stroke-dasharray:none;stroke-opacity:1"
       d="m 414.47938,330.1969 c 58.20699,-40.41132 70.82777,-55.08487 104.39867,-99.71335 1.45664,-1.93644 2.3059,-2.63561 3.84687,-4.68939 -0.36892,2.73098 -0.25712,3.28585 -0.7162,5.46823 -9.69471,46.08715 -22.54555,61.09089 -40.39932,76.90946 -0.56027,0.49639 0.0578,-0.0532 -0.98055,1.18083 0.6795,-0.19475 0.60234,-0.10244 1.25556,-0.29499 29.47169,-8.68732 32.76369,-15.32822 61.22736,-37.3265 0.90562,-0.69991 1.83672,-1.41537 2.79496,-2.14694 -0.4859,1.18807 -1.17785,2.23701 -1.77228,3.32903 -25.31055,46.4975 -57.90086,61.53567 -65.65706,64.38691 -1.45365,0.53437 -1.85274,0.58604 -2.24376,0.77169 0.57747,0.0379 0.70487,-0.008 1.94407,-0.0371 6.1198,-0.14291 25.27135,-0.79347 36.91524,-3.48019 -49.06807,45.52066 -98.77255,23.69332 -98.77255,23.69332"
       id="path2"
       color="mane-contour" /></g></svg>
