<?xml version="1.0" encoding="UTF-8" standalone="no"?>
<!-- Created with Inkscape (http://www.inkscape.org/) -->

<svg
   width="1000"
   height="1000"
   viewBox="0 0 1000 1000"
   version="1.1"
   id="svg1"
   xml:space="preserve"
   xmlns="http://www.w3.org/2000/svg"
   xmlns:svg="http://www.w3.org/2000/svg"><defs
     id="defs1" /><g
     id="g9"
     style="display:inline"
     data-layer="100"
     transform="matrix(0.85966739,-0.0705361,0.0705361,0.85966739,-0.94306052,55.642704)"><path
       style="display:inline;fill:#ff5555;stroke-width:0.885764"
       d="m 422.71219,315.5608 c 0,0 3.41524,-6.36588 11.35112,-21.17944 4.23142,-7.89861 40.36621,-30.30596 61.40837,-47.9267 30.62022,46.17444 -17.30887,91.03699 -25.41266,97.33445 13.85864,-3.63291 12.50842,-7.14717 22.85107,-9.92055 -14.7647,57.4125 -55.32161,40.84501 -55.32161,40.84501 z"
       id="path1"
       color="mane-main" /><path
       style="fill:none;stroke:#000000;stroke-width:3;stroke-linecap:round;stroke-dasharray:none;stroke-opacity:1"
       d="m 505.45667,272.00055 c -22.38308,23.82641 -40.85451,31.59445 -43.53503,34.17796 1.3467,-0.30739 24.82031,-14.67036 37.43529,-27.90278"
       id="path5"
       color="mane-contour" /><path
       style="fill:none;stroke:#000000;stroke-width:3;stroke-linecap:round;stroke-dasharray:none;stroke-opacity:1"
       d="m 498.41664,308.02386 c -15.51051,13.80052 -32.39161,16.01108 -35.07213,18.59459 1.3467,-0.30739 24.21074,-7.17911 35.55504,-18.95616"
       id="path6"
       color="mane-contour" /><path
       style="fill:none;stroke:#000000;stroke-width:3;stroke-linecap:round;stroke-dasharray:none;stroke-opacity:1"
       d="m 486.9951,350.47418 c -14.59864,14.77633 -27.9733,7.29471 -29.38624,8.14687 0.29118,0.45047 10.28905,1.82782 14.04054,0.73048"
       id="path8"
       color="mane-contour" /><path
       style="display:inline;fill:none;stroke:#000000;stroke-width:5;stroke-linecap:round;stroke-dasharray:none;stroke-opacity:1"
       d="m 422.71219,315.5608 c 0,0 3.41524,-6.36588 11.35112,-21.17944 4.23142,-7.89861 40.36621,-30.30596 61.40837,-47.9267 30.62022,46.17444 -17.30887,91.03699 -25.41266,97.33445 5.61155,-0.56046 13.31696,-6.25778 22.85107,-9.92055 -14.7647,57.4125 -55.32161,40.84501 -55.32161,40.84501"
       id="path9"
       color="mane-contour" /></g><g
     id="layer4"
     style="display:inline"
     data-layer="1200"><path
       style="display:inline;fill:#ff5555;stroke-width:0.885764"
       d="m 422.71219,315.5608 c 0,0 3.41524,-6.36588 11.35112,-21.17944 4.23142,-7.89861 40.36621,-30.30596 61.40837,-47.9267 30.62022,46.17444 -17.30887,91.03699 -25.41266,97.33445 13.85864,-3.63291 12.50842,-7.14717 22.85107,-9.92055 -14.7647,57.4125 -55.32161,40.84501 -55.32161,40.84501 z"
       id="path7"
       color="mane-main" /><path
       style="fill:none;stroke:#000000;stroke-width:3;stroke-linecap:round;stroke-dasharray:none;stroke-opacity:1"
       d="m 505.45667,272.00055 c -22.38308,23.82641 -40.85451,31.59445 -43.53503,34.17796 1.3467,-0.30739 24.82031,-14.67036 37.43529,-27.90278"
       id="path17"
       color="mane-contour" /><path
       style="fill:none;stroke:#000000;stroke-width:3;stroke-linecap:round;stroke-dasharray:none;stroke-opacity:1"
       d="m 498.41664,308.02386 c -15.51051,13.80052 -32.39161,16.01108 -35.07213,18.59459 1.3467,-0.30739 24.21074,-7.17911 35.55504,-18.95616"
       id="path2"
       color="mane-contour" /><path
       style="fill:none;stroke:#000000;stroke-width:3;stroke-linecap:round;stroke-dasharray:none;stroke-opacity:1"
       d="m 486.9951,350.47418 c -14.59864,14.77633 -27.9733,7.29471 -29.38624,8.14687 0.29118,0.45047 10.28905,1.82782 14.04054,0.73048"
       id="path3"
       color="mane-contour" /><path
       style="display:inline;fill:none;stroke:#000000;stroke-width:5;stroke-linecap:round;stroke-dasharray:none;stroke-opacity:1"
       d="m 422.71219,315.5608 c 0,0 3.41524,-6.36588 11.35112,-21.17944 4.23142,-7.89861 40.36621,-30.30596 61.40837,-47.9267 30.62022,46.17444 -17.30887,91.03699 -25.41266,97.33445 5.61155,-0.56046 13.31696,-6.25778 22.85107,-9.92055 -14.7647,57.4125 -55.32161,40.84501 -55.32161,40.84501"
       id="path4"
       color="mane-contour" /></g></svg>
