<?xml version="1.0" encoding="UTF-8" standalone="no"?>
<!-- Created with Inkscape (http://www.inkscape.org/) -->

<svg
   width="1000"
   height="1000"
   viewBox="0 0 1000 1000"
   version="1.1"
   id="svg1"
   xml:space="preserve"
   sodipodi:docname="🧛Changeling3.svg"
   inkscape:version="1.4.2 (f4327f4, 2025-05-13)"
   xmlns:inkscape="http://www.inkscape.org/namespaces/inkscape"
   xmlns:sodipodi="http://sodipodi.sourceforge.net/DTD/sodipodi-0.dtd"
   xmlns="http://www.w3.org/2000/svg"
   xmlns:svg="http://www.w3.org/2000/svg"><sodipodi:namedview
     id="namedview1"
     pagecolor="#ffffff"
     bordercolor="#000000"
     borderopacity="0.25"
     inkscape:showpageshadow="2"
     inkscape:pageopacity="0.0"
     inkscape:pagecheckerboard="0"
     inkscape:deskcolor="#d1d1d1"
     inkscape:zoom="2.1863742"
     inkscape:cx="425.59047"
     inkscape:cy="284.26059"
     inkscape:window-width="1920"
     inkscape:window-height="991"
     inkscape:window-x="-9"
     inkscape:window-y="-9"
     inkscape:window-maximized="1"
     inkscape:current-layer="svg1" /><defs
     id="defs1" /><g
     id="layer1"
     data-layer="190"
     transform="matrix(0.75459717,-0.21720258,0.21720258,0.75459717,-19.739066,160.91449)"><path
       style="opacity:1;fill:#b9634e;fill-opacity:1;fill-rule:evenodd;stroke:none;stroke-width:4;stroke-linecap:round;stroke-miterlimit:100;stroke-opacity:1"
       d="m 418.5011,325.42463 c 0,0 33.95971,6.56565 55.68442,-18.88646 9.91371,-11.61465 6.12577,-33.19548 6.25586,-39.93064 0.24368,-12.61591 10.19946,-13.44686 12.61238,-32.20117 1.53928,-11.964 -12.8066,-33.84599 -12.8066,-33.84599 z"
       id="path2"
       sodipodi:nodetypes="cssscc"
       color="hooves" /><path
       style="opacity:1;fill:none;fill-opacity:1;fill-rule:evenodd;stroke:#000000;stroke-width:4;stroke-linecap:round;stroke-miterlimit:100;stroke-opacity:1"
       d="m 461.91152,317.11623 c 0,0 -9.51367,-0.65714 -15.85402,-3.21559 -9.07833,-3.66326 -24.08776,-11.01469 -24.08776,-11.01469"
       id="path5"
       sodipodi:nodetypes="csc"
       color="hooves-contour" /><path
       style="opacity:1;fill:none;fill-opacity:1;fill-rule:evenodd;stroke:#000000;stroke-width:4;stroke-linecap:round;stroke-miterlimit:100;stroke-opacity:1"
       d="m 492.31255,228.17703 c -5.71032,7.12022 -16.64818,17.82709 -23.29257,21.68739 -8.46465,4.91784 -16.16408,8.87535 -16.16408,8.87535"
       id="path6"
       sodipodi:nodetypes="csc"
       color="hooves-contour" /><path
       style="opacity:1;fill:none;fill-opacity:1;fill-rule:evenodd;stroke:#000000;stroke-width:4;stroke-linecap:round;stroke-miterlimit:100;stroke-opacity:1"
       d="m 480.34619,277.01274 c 0,0 -8.95015,4.38804 -19.24988,6.48687 -21.6165,4.40491 -29.42411,6.12632 -29.42411,6.12632"
       id="path7"
       sodipodi:nodetypes="csc"
       color="hooves-contour" /><path
       style="opacity:1;fill:none;fill-opacity:1;fill-rule:evenodd;stroke:#000000;stroke-width:4;stroke-linecap:round;stroke-miterlimit:100;stroke-opacity:1"
       d="m 418.5011,325.42463 c 0,0 33.95971,6.56565 55.68442,-18.88646 9.91371,-11.61465 6.12577,-33.19548 6.25586,-39.93064 0.24368,-12.61591 10.19946,-13.44686 12.61238,-32.20117 1.53928,-11.964 -12.8066,-33.84599 -12.8066,-33.84599 z"
       id="path3"
       sodipodi:nodetypes="cssscc"
       color="hooves-contour" /><path
       style="display:inline;fill:#53b94e;fill-opacity:1;fill-rule:evenodd;stroke:none;stroke-width:5;stroke-linecap:round;stroke-dasharray:none;stroke-opacity:1"
       d="m 417.3414,325.67868 c 25.32453,-26.53052 57.91314,-75.80502 61.99101,-127.6339 0,0 -29.04263,57.56851 -41.1371,73.83227 -10.36739,13.9413 -31.12867,37.76803 -31.12867,37.76803 z"
       id="path4"
       color="coat"
       sodipodi:nodetypes="ccscc" /><path
       style="display:inline;fill:none;fill-opacity:1;fill-rule:evenodd;stroke:#000000;stroke-width:5;stroke-linecap:round;stroke-dasharray:none;stroke-opacity:1"
       d="m 417.3414,325.67868 c 25.32453,-26.53052 66.26625,-103.82998 61.99101,-127.6339 -1.0041,-5.5907 -25.80848,49.80654 -42.26905,74.15569 -9.73018,14.39327 -29.99672,37.44461 -29.99672,37.44461"
       id="path1"
       color="coat-contour"
       sodipodi:nodetypes="cssc" /></g><g
     id="g18"
     data-layer="1200"
     transform="translate(11.891835,12.120524)"><path
       style="opacity:1;fill:#b9634e;fill-opacity:1;fill-rule:evenodd;stroke:none;stroke-width:4;stroke-linecap:round;stroke-miterlimit:100;stroke-opacity:1"
       d="m 418.5011,325.42463 c 0,0 33.95971,6.56565 55.68442,-18.88646 9.91371,-11.61465 6.12577,-33.19548 6.25586,-39.93064 0.24368,-12.61591 10.19946,-13.44686 12.61238,-32.20117 1.53928,-11.964 -12.8066,-33.84599 -12.8066,-33.84599 z"
       id="path9"
       sodipodi:nodetypes="cssscc"
       color="hooves" /><path
       style="opacity:1;fill:none;fill-opacity:1;fill-rule:evenodd;stroke:#000000;stroke-width:4;stroke-linecap:round;stroke-miterlimit:100;stroke-opacity:1"
       d="m 461.91152,317.11623 c 0,0 -9.51367,-0.65714 -15.85402,-3.21559 -9.07833,-3.66326 -24.08776,-11.01469 -24.08776,-11.01469"
       id="path12"
       sodipodi:nodetypes="csc"
       color="hooves-contour" /><path
       style="opacity:1;fill:none;fill-opacity:1;fill-rule:evenodd;stroke:#000000;stroke-width:4;stroke-linecap:round;stroke-miterlimit:100;stroke-opacity:1"
       d="m 492.31255,228.17703 c -5.71032,7.12022 -16.64818,17.82709 -23.29257,21.68739 -8.46465,4.91784 -16.16408,8.87535 -16.16408,8.87535"
       id="path13"
       sodipodi:nodetypes="csc"
       color="hooves-contour" /><path
       style="opacity:1;fill:none;fill-opacity:1;fill-rule:evenodd;stroke:#000000;stroke-width:4;stroke-linecap:round;stroke-miterlimit:100;stroke-opacity:1"
       d="m 480.34619,277.01274 c 0,0 -8.95015,4.38804 -19.24988,6.48687 -21.6165,4.40491 -29.42411,6.12632 -29.42411,6.12632"
       id="path14"
       sodipodi:nodetypes="csc"
       color="hooves-contour" /><path
       style="opacity:1;fill:none;fill-opacity:1;fill-rule:evenodd;stroke:#000000;stroke-width:4;stroke-linecap:round;stroke-miterlimit:100;stroke-opacity:1"
       d="m 418.5011,325.42463 c 0,0 33.95971,6.56565 55.68442,-18.88646 9.91371,-11.61465 6.12577,-33.19548 6.25586,-39.93064 0.24368,-12.61591 10.19946,-13.44686 12.61238,-32.20117 1.53928,-11.964 -12.8066,-33.84599 -12.8066,-33.84599 z"
       id="path15"
       sodipodi:nodetypes="cssscc"
       color="hooves-contour" /><path
       style="display:inline;fill:#53b94e;fill-opacity:1;fill-rule:evenodd;stroke:none;stroke-width:5;stroke-linecap:round;stroke-dasharray:none;stroke-opacity:1"
       d="m 417.3414,325.67868 c 25.32453,-26.53052 57.91314,-75.80502 61.99101,-127.6339 0,0 -29.04263,57.56851 -41.1371,73.83227 -10.36739,13.9413 -31.12867,37.76803 -31.12867,37.76803 z"
       id="path16"
       color="coat"
       sodipodi:nodetypes="ccscc" /><path
       style="display:inline;fill:none;fill-opacity:1;fill-rule:evenodd;stroke:#000000;stroke-width:5;stroke-linecap:round;stroke-dasharray:none;stroke-opacity:1"
       d="m 417.3414,325.67868 c 25.32453,-26.53052 66.26625,-103.82998 61.99101,-127.6339 -1.0041,-5.5907 -25.80848,49.80654 -42.26905,74.15569 -9.73018,14.39327 -29.99672,37.44461 -29.99672,37.44461"
       id="path18"
       color="coat-contour"
       sodipodi:nodetypes="cssc" /></g></svg>
