<?xml version="1.0" encoding="UTF-8" standalone="no"?>
<!-- Created with Inkscape (http://www.inkscape.org/) -->

<svg
   width="1000"
   height="1000"
   viewBox="0 0 1000 1000"
   version="1.1"
   id="svg1"
   xml:space="preserve"
   xmlns="http://www.w3.org/2000/svg"
   xmlns:svg="http://www.w3.org/2000/svg"><defs
     id="defs1" /><g
     id="layer2"
     style="display:inline"
     data-layer="190"><path
       style="fill:#ac5050;fill-opacity:1;fill-rule:evenodd;stroke:none;stroke-width:3;stroke-linecap:round;stroke-dasharray:none;stroke-opacity:1"
       d="m 339.60335,293.17946 c 0,0 1.8909,-22.15928 16.23693,-43.45094 17.13234,-25.42694 35.79543,-33.21969 51.11202,-34.6464 -7.83923,6.40837 -12.92375,11.06975 -15.35728,15.76549 1.87207,-6.4e-4 6.84099,0.22451 16.72195,2.51402 -15.36563,4.64951 -20.5164,10.17374 -24.78399,13.72456 4.78973,0.0184 9.13422,-0.42521 16.09682,1.22589 0,0 -19.769,9.61901 -25.34651,20.3289 -5.18312,9.95261 -10.66758,29.56964 -10.66758,29.56964 z"
       id="path10"
       color="coat" /><path
       style="fill:none;fill-opacity:1;fill-rule:evenodd;stroke:#000000;stroke-width:5;stroke-linecap:round;stroke-dasharray:none;stroke-opacity:1"
       d="m 339.60335,293.17946 c 0,0 1.8909,-22.15928 16.23693,-43.45094 17.13234,-25.42694 35.79543,-33.21969 51.11202,-34.6464 -7.83923,6.40837 -12.92375,11.06975 -15.35728,15.76549 1.87207,-6.4e-4 6.84099,0.22451 16.72195,2.51402 -15.36563,4.64951 -20.5164,10.17374 -24.78399,13.72456 4.78973,0.0184 9.13422,-0.42521 16.09682,1.22589 0,0 -19.769,9.61901 -25.34651,20.3289 -5.18312,9.95261 -10.66758,29.56964 -10.66758,29.56964 z"
       id="path15"
       color="coat-contour" /></g><g
     id="layer1"
     data-layer="1200"
     transform="translate(13.583441,16.170763)"><path
       style="fill:#543b99;fill-opacity:1;fill-rule:evenodd;stroke:none;stroke-width:3;stroke-linecap:round;stroke-dasharray:none;stroke-opacity:1"
       d="m 424.91406,325.81108 c 3.4245,6.70288 23.13635,-11.06876 31.43509,-20.96848 14.35276,-17.12167 25.96244,-41.25289 26.18491,-63.9186 0.0576,-5.86718 0.78526,-13.66807 -4.3166,-14.81173 -19.47209,-4.36496 -42.79336,42.7118 -42.79336,42.7118 0,0 -19.01362,40.34269 -10.51004,56.98701 z"
       id="path13"
       color="gradient"
       data-grad="from:iris;to:iris;" /><path
       style="fill:none;fill-opacity:1;fill-rule:evenodd;stroke:#000000;stroke-width:3;stroke-linecap:round;stroke-dasharray:none;stroke-opacity:1"
       d="m 424.91406,325.81108 c 3.4245,6.70288 23.13635,-11.06876 31.43509,-20.96848 14.35276,-17.12167 25.96244,-41.25289 26.18491,-63.9186 0.0576,-5.86718 2.79283,-13.17498 -2.30903,-14.31864 -19.47209,-4.36496 -44.80093,42.21871 -44.80093,42.21871 0,0 -19.01362,40.34269 -10.51004,56.98701 z"
       id="path14"
       color="coat-contour" /><path
       style="fill:#42993b;fill-opacity:1;fill-rule:evenodd;stroke:none;stroke-width:5;stroke-linecap:round;stroke-dasharray:none;stroke-opacity:1"
       d="m 422.60601,322.3407 c 0,0 0.47632,-11.2034 6.63773,-22.9139 5.67754,-13.02349 24.70764,-22.38751 31.14947,-38.82309 2.63243,-6.71634 1.11339,-15.86648 3.89071,-21.24466 4.37814,-8.4781 12.1327,-13.8144 12.1327,-13.8144 0,0 -4.32992,-0.20248 -10.77784,3.5629 -2.05063,1.19751 -4.15793,2.31777 -5.91734,5.08978 0.45797,-6.63994 -2.02611,-12.88901 -4.51636,-20.66888 -4.83193,22.4679 -7.91726,31.37874 -10.95534,37.25181 0.75458,-7.83296 0.55324,-14.38115 -1.90124,-22.30482 -6.36043,33.00444 -16.47869,51.72112 -20.54115,57.18402 -10.36738,13.9413 -11.08168,23.98562 -11.08168,23.98562 0,0 5.99822,7.04355 11.88034,12.69562 z"
       id="path4"
       color="coat" /><path
       style="fill:none;fill-opacity:1;fill-rule:evenodd;stroke:#000000;stroke-width:5;stroke-linecap:round;stroke-dasharray:none;stroke-opacity:1"
       d="m 422.60601,322.3407 c 0,0 0.47632,-11.2034 6.63773,-22.9139 5.67754,-13.02349 24.70764,-22.38751 31.14947,-38.82309 2.63243,-6.71634 1.11339,-15.86648 3.89071,-21.24466 4.37814,-8.4781 10.53188,-12.7853 10.53188,-12.7853 0,0 -3.61849,-0.74646 -7.15567,0.67416 -2.2036,0.88502 -5.04733,3.20717 -7.53442,5.57491 0.45797,-6.63994 -2.43038,-11.5145 -4.92063,-19.29437 -4.83193,22.4679 -6.6654,31.93675 -10.22766,36.60498 -0.47333,-3.02295 -1.25296,-17.1132 -2.62892,-21.65799 -11.14491,31.71024 -16.47869,51.72112 -20.54115,57.18402 -10.36738,13.9413 -11.08168,23.98562 -11.08168,23.98562"
       id="path12"
       color="coat-contour" /></g></svg>
