<?xml version="1.0" encoding="UTF-8" standalone="no"?>
<!-- Created with Inkscape (http://www.inkscape.org/) -->

<svg
   width="1000"
   height="1000"
   viewBox="0 0 1000 1000"
   version="1.1"
   id="svg1"
   xml:space="preserve"
   xmlns="http://www.w3.org/2000/svg"
   xmlns:svg="http://www.w3.org/2000/svg"><defs
     id="defs1" /><g
     id="layer2"
     style="display:inline"
     data-layer="190"><path
       style="fill:#ac5050;fill-opacity:1;fill-rule:evenodd;stroke:none;stroke-width:3;stroke-linecap:round;stroke-dasharray:none;stroke-opacity:1"
       d="m 339.60335,293.17946 c 0,0 1.8909,-22.15928 16.23693,-43.45094 17.13234,-25.42694 35.79543,-33.21969 51.11202,-34.6464 -7.20526,5.21087 -11.37458,5.6336 -23.66933,20.69637 -4.19655,5.14136 -6.4658,8.17312 -6.97501,11.89183 4.25965,-4.05105 6.88285,-5.01184 10.5197,-7.54674 3.8443,-2.6795 9.03322,-2.97295 9.03322,-2.97295 0,0 -15.91927,18.44797 -21.49678,29.15786 -5.18312,9.95261 -10.74839,31.90213 -10.74839,31.90213 z"
       id="path10"
       color="coat" /><path
       style="fill:none;fill-opacity:1;fill-rule:evenodd;stroke:#000000;stroke-width:5;stroke-linecap:round;stroke-dasharray:none;stroke-opacity:1"
       d="m 339.60335,293.17946 c 0,0 1.8909,-22.15928 16.23693,-43.45094 17.13234,-25.42694 35.79543,-33.21969 51.11202,-34.6464 -7.20526,5.21087 -11.37458,5.6336 -23.66933,20.69637 -4.19655,5.14136 -6.4658,8.17312 -6.97501,11.89183 4.25965,-4.05105 6.88285,-5.01184 10.5197,-7.54674 3.8443,-2.6795 9.03322,-2.97295 9.03322,-2.97295 0,0 -15.91927,18.44797 -21.49678,29.15786 -5.18312,9.95261 -10.74839,31.90213 -10.74839,31.90213 z"
       id="path11"
       color="coat-contour" /></g><g
     id="layer1"
     data-layer="1200"
     transform="translate(11.891835,12.120524)"><path
       style="fill:#ffffff;fill-opacity:1;fill-rule:evenodd;stroke:none;stroke-width:5;stroke-linecap:round;stroke-dasharray:none;stroke-opacity:1"
       d="m 432.89226,328.42295 c 0,0 16.28814,-17.65756 22.88594,-27.45569 5.3689,-7.97312 14.86402,-24.71079 14.86402,-24.71079 0,0 -7.78541,1.70742 -12.2636,4.78621 -3.44895,2.37118 -10.38812,8.82416 -10.38812,8.82416 0,0 -0.0954,-10.1743 2.1783,-15.25281 4.87441,-10.88757 15.47985,-15.90031 20.63276,-25.87873 4.37813,-8.4781 7.61609,-29.19374 7.61609,-29.19374 0,0 -27.21311,30.12581 -39.30758,46.38957 -10.36739,13.9413 -28.3844,43.71395 -28.3844,43.71395 z"
       id="path4"
       color="coat" /><path
       d="m 478.41797,219.54102 c 0,0 -21.46924,23.76638 -34.74414,40.47656 -6.05317,13.64988 -10.84821,30.20678 -7.10547,43.68164 1.86484,6.71391 13.35968,0.18883 20.44922,-4.61328 5.46812,-8.45186 13.625,-22.83008 13.625,-22.83008 0,0 -7.78548,1.70832 -12.26367,4.78711 -3.44895,2.37118 -10.38868,8.82422 -10.38868,8.82422 0,0 -0.096,-10.1754 2.17774,-15.25391 4.87441,-10.88757 15.4799,-15.90048 20.63281,-25.87891 4.37813,-8.4781 7.61719,-29.19335 7.61719,-29.19335 z"
       style="fill:#ac5050;fill-opacity:1;fill-rule:evenodd;stroke:none;stroke-width:3;stroke-linecap:round;stroke-dasharray:none"
       id="path9"
       color="gradient"
       data-grad="from:#ffffff;to:#ffffff;fromOpacity:0.3;toOpacity:0.3;" /><path
       d="m 478.41797,219.54102 c 0,0 -21.46924,23.76638 -34.74414,40.47656 -6.05317,13.64988 -10.84821,30.20678 -7.10547,43.68164 1.86484,6.71391 13.35968,0.18883 20.44922,-4.61328 5.46812,-8.45186 13.625,-22.83008 13.625,-22.83008 0,0 -7.78548,1.70832 -12.26367,4.78711 -3.44895,2.37118 -10.38868,8.82422 -10.38868,8.82422 0,0 -0.096,-10.1754 2.17774,-15.25391 4.87441,-10.88757 15.4799,-15.90048 20.63281,-25.87891 4.37813,-8.4781 7.61719,-29.19335 7.61719,-29.19335 z"
       style="fill:none;fill-rule:evenodd;stroke:#000000;stroke-width:3;stroke-linecap:round;stroke-dasharray:none"
       id="path7"
       color="coat-contour" /><path
       style="fill:none;fill-opacity:1;fill-rule:evenodd;stroke:#000000;stroke-width:5;stroke-linecap:round;stroke-dasharray:none;stroke-opacity:1"
       d="m 432.89226,328.42295 c 0,0 16.28814,-17.65756 22.88594,-27.45569 5.3689,-7.97312 14.86402,-24.71079 14.86402,-24.71079 0,0 -7.78541,1.70742 -12.2636,4.78621 -3.44895,2.37118 -10.38812,8.82416 -10.38812,8.82416 0,0 -0.0954,-10.1743 2.1783,-15.25281 4.87441,-10.88757 15.47985,-15.90031 20.63276,-25.87873 4.37813,-8.4781 7.61609,-29.19374 7.61609,-29.19374 0,0 -27.21311,30.12581 -39.30758,46.38957 -10.36739,13.9413 -28.3844,43.71395 -28.3844,43.71395"
       id="path8"
       color="coat-contour" /></g></svg>
