<?xml version="1.0" encoding="UTF-8" standalone="no"?>
<!-- Created with Inkscape (http://www.inkscape.org/) -->

<svg
   width="1000"
   height="1000"
   viewBox="0 0 1000 1000"
   version="1.1"
   id="svg1"
   xml:space="preserve"
   xmlns="http://www.w3.org/2000/svg"
   xmlns:svg="http://www.w3.org/2000/svg"><defs
     id="defs1" /><g
     id="layer5"
     data-layer="100"><path
       style="fill:#ca9a5a;fill-opacity:1;fill-rule:evenodd;stroke:none;stroke-width:5;stroke-linecap:round;stroke-opacity:1"
       d="m 418.95848,235.09242 c 0,0 49.33056,-2.26221 68.14936,10.97708 21.93364,15.43062 37.5859,43.64966 38.87715,70.43625 1.23957,25.71457 -30.64434,70.89363 -30.64434,70.89363 z"
       id="path19"
       color="gradient"
       data-grad="from:#CA9A5A;to:#CA9A5A;angle:45;range:5%-100%" /><path
       style="fill:none;stroke:#af854d;stroke-width:5;stroke-linecap:round;stroke-opacity:1"
       d="m 418.95848,235.09242 c 0,0 49.33056,-2.26221 68.14936,10.97708 21.93364,15.43062 37.5859,43.64966 38.87715,70.43625 1.23957,25.71457 -30.64434,70.89363 -30.64434,70.89363 z"
       id="path20"
       color="null"
       data-grad="from:#AF854D;to:#AF854D;angle:45;range:5%-100%" /><path
       style="fill:#ca9a5a;fill-opacity:1;stroke:none;stroke-width:5;stroke-linecap:round;stroke-opacity:1"
       d="m 248.81377,255.21707 c 26.80285,46.89774 79.80812,96.00582 116.63145,146.36104 25.23442,34.50759 26.3845,100.46073 69.06412,102.9101 41.35633,2.37342 74.55691,-53.68125 80.49857,-94.67729 9.18335,-63.36294 -38.13866,-125.33616 -77.7543,-175.63325 -21.26406,-26.99743 -81.87071,-62.20344 -81.87071,-62.20344 0,0 10.36137,50.63883 -27.90007,44.82307 -41.68626,-6.33634 -22.41154,-45.28046 -22.41154,-45.28046 0,0 -74.66204,51.49729 -56.25752,83.70023 z"
       id="path18"
       color="gradient"
       data-grad="from:#CA9A5A;to:#CA9A5A;angle:45;range:5%-100%" /><path
       style="fill:none;stroke:#b0854e;stroke-width:5;stroke-linecap:round;stroke-opacity:1"
       d="m 248.81377,255.21707 c 26.80285,46.89774 79.80812,96.00582 116.63145,146.36104 25.23442,34.50759 26.3845,100.46073 69.06412,102.9101 41.35633,2.37342 74.55691,-53.68125 80.49857,-94.67729 9.18335,-63.36294 -38.13866,-125.33616 -77.7543,-175.63325 -21.26406,-26.99743 -81.87071,-62.20344 -81.87071,-62.20344 0,0 10.36137,50.63883 -27.90007,44.82307 -41.68626,-6.33634 -22.41154,-45.28046 -22.41154,-45.28046 0,0 -74.66204,51.49729 -56.25752,83.70023 z"
       id="path21"
       color="null"
       data-grad="from:#AF854D;to:#AF854D;angle:45;range:5%-100%" /></g></svg>
