<?xml version="1.0" encoding="UTF-8" standalone="no"?>
<!-- Created with Inkscape (http://www.inkscape.org/) -->

<svg
   width="1000"
   height="1000"
   viewBox="0 0 1000 1000"
   version="1.1"
   id="svg1"
   xml:space="preserve"
   xmlns="http://www.w3.org/2000/svg"
   xmlns:svg="http://www.w3.org/2000/svg"><defs
     id="defs1" /><g
     id="layer3"
     style="display:inline"><title
       id="title8">coat</title><path
       style="display:inline;fill:#00ffff;stroke-width:0.885764"
       d="m 398.1977,478.45083 c 0,0 -11.95801,11.35846 -71.3982,8.18581 -59.44018,-3.17265 -78.2977,-33.28538 -78.21967,-60.02907 0.0278,-9.49695 21.87071,-6.55772 23.50988,-13.27097 3.00321,-12.29977 -14.33467,-88.75774 31.51675,-117.24676 79.53558,-49.4181 130.35084,9.01082 141.4321,23.19305 24.67303,31.57746 9.55009,110.50804 9.55009,110.50804 z"
       id="path6"
       color="coat"
       data-layer="400" /><path
       style="fill:none;stroke:#000000;stroke-width:5;stroke-linecap:round;stroke-dasharray:none;stroke-opacity:1"
       d="m 398.1977,478.45083 c 0,0 -11.95801,11.35846 -71.3982,8.18581 -59.44018,-3.17265 -78.2977,-33.28538 -78.21967,-60.02907 0.0278,-9.49695 21.87071,-6.55772 23.50988,-13.27097 3.00321,-12.29977 -14.33467,-88.75774 31.51675,-117.24676 79.53558,-49.4181 130.35084,9.01082 141.4321,23.19305 24.67303,31.57746 8.82401,113.7754 8.82401,113.7754"
       id="path8"
       color="coat_contour"
       data-layer="400" /><path
       style="fill:none;stroke:#000000;stroke-width:3;stroke-linecap:round;stroke-dasharray:none;stroke-opacity:1"
       d="m 270.9186,469.86452 c 10.16512,-0.72608 11.64527,-3.15512 17.2444,-7.89612 -2.42423,8.70562 -13.1602,9.25752 -13.1602,9.25752 z"
       id="path14"
       color="coat_contour"
       data-layer="400" /><path
       style="fill:none;stroke:#000000;stroke-width:3;stroke-linecap:round;stroke-dasharray:none;stroke-opacity:1"
       d="m 269.22269,432.67615 c 0.84413,-0.23829 4.13651,-1.1599 4.70578,-1.29772 0.4879,-0.11812 2.32249,-1.1295 4.32827,-2.24504 -1.85789,3.15366 -3.73289,3.55033 -4.13681,3.71897 -0.2992,0.12493 -3.1729,0.38151 -4.89724,-0.17621 z"
       id="path15"
       line="3"
       color="coat_contour"
       data-layer="400" /></g><g
     id="layer1"><path
       style="fill:none;stroke:#000000;stroke-width:5;stroke-linecap:round;stroke-dasharray:none;stroke-opacity:1"
       id="path1-8-5"
       data-layer="400"
       color="coat-contour"
       d="m 379.5617,441.66223 a 1.7943324,1.3900634 0 0 1 -0.002,0.0726" /><path
       style="fill:none;stroke:#000000;stroke-width:5;stroke-linecap:round;stroke-dasharray:none;stroke-opacity:1"
       id="path1-8-5-1"
       data-layer="400"
       color="coat-contour"
       d="m 383.54003,435.92853 a 1.7943324,1.3900634 0 0 1 -0.002,0.0726" /><path
       style="fill:none;stroke:#000000;stroke-width:5;stroke-linecap:round;stroke-dasharray:none;stroke-opacity:1"
       id="path1-8-5-1-1"
       data-layer="400"
       color="coat-contour"
       d="m 387.32375,441.61227 a 1.7943324,1.3900634 0 0 1 -0.002,0.0726" /><path
       style="fill:none;stroke:#000000;stroke-width:5;stroke-linecap:round;stroke-dasharray:none;stroke-opacity:1"
       id="path1-8-5-1-1-2"
       data-layer="400"
       color="coat-contour"
       d="m 278.30135,380.97852 a 1.7943324,1.3900634 0 0 1 -0.002,0.0726" /><path
       style="fill:none;stroke:#000000;stroke-width:5;stroke-linecap:round;stroke-dasharray:none;stroke-opacity:1"
       id="path1-8-5-1-1-7"
       data-layer="400"
       color="coat-contour"
       d="m 284.04098,387.41064 a 1.7943324,1.3900634 0 0 1 -0.002,0.0726" /><path
       style="fill:none;stroke:#000000;stroke-width:3.5;stroke-linecap:round;stroke-dasharray:none;stroke-opacity:1"
       id="path1-8-5-1-1-27"
       data-layer="400"
       color="coat-contour"
       d="m 277.55654,392.18607 a 1.7943324,1.3900634 0 0 1 -0.002,0.0726" /><path
       style="fill:none;stroke:#000000;stroke-width:5;stroke-linecap:round;stroke-dasharray:none;stroke-opacity:1"
       id="path1-8-5-1-1-1"
       data-layer="400"
       color="coat-contour"
       d="m 287.67708,393.95737 a 1.7943324,1.3900634 0 0 1 -0.002,0.0726" /><path
       style="fill:none;stroke:#000000;stroke-width:3.5;stroke-linecap:round;stroke-dasharray:none;stroke-opacity:1"
       id="path1-8-5-1-1-11"
       data-layer="400"
       color="coat-contour"
       d="m 294.24227,398.10083 a 1.794,1.3900634 0 0 1 -0.002,0.0726" /></g></svg>
