<?xml version="1.0" encoding="UTF-8" standalone="no"?>
<!-- Created with Inkscape (http://www.inkscape.org/) -->

<svg
   width="1000"
   height="1000"
   viewBox="0 0 1000 1000"
   version="1.1"
   id="svg1"
   xml:space="preserve"
   sodipodi:docname="010.svg"
   inkscape:version="1.4.2 (f4327f4, 2025-05-13)"
   xmlns:inkscape="http://www.inkscape.org/namespaces/inkscape"
   xmlns:sodipodi="http://sodipodi.sourceforge.net/DTD/sodipodi-0.dtd"
   xmlns="http://www.w3.org/2000/svg"
   xmlns:svg="http://www.w3.org/2000/svg"><sodipodi:namedview
     id="namedview1"
     pagecolor="#ffffff"
     bordercolor="#000000"
     borderopacity="0.25"
     inkscape:showpageshadow="2"
     inkscape:pageopacity="0.0"
     inkscape:pagecheckerboard="0"
     inkscape:deskcolor="#d1d1d1"
     inkscape:zoom="3.092"
     inkscape:cx="328.4282"
     inkscape:cy="364.3273"
     inkscape:window-width="1920"
     inkscape:window-height="991"
     inkscape:window-x="-9"
     inkscape:window-y="-9"
     inkscape:window-maximized="1"
     inkscape:current-layer="layer3" /><defs
     id="defs1" /><g
     id="layer3"
     style="display:inline"><title
       id="title8">coat</title><path
       style="display:inline;fill:#00ffff;stroke-width:0.885764"
       d="m 398.1977,478.45083 c 0,0 -11.95801,11.35846 -71.3982,8.18581 -59.44018,-3.17265 -78.2977,-33.28538 -78.21967,-60.02907 0.0278,-9.49695 21.87071,-6.55772 23.50988,-13.27097 3.00321,-12.29977 -14.33467,-88.75774 31.51675,-117.24676 79.53558,-49.4181 130.35084,9.01082 141.4321,23.19305 24.67303,31.57746 9.55009,110.50804 9.55009,110.50804 z"
       id="path6"
       color="coat"
       data-layer="400" /><path
       d="m 319.2013,308.47501 c -0.96804,-14.0194 34.17004,-17.84277 8.71671,-21.49189 -6.76755,-0.97023 -32.67255,14.77116 -32.67255,14.77116 -10.55722,10.31767 -29.67575,52.59405 -19.73107,40.41158 47.29979,-57.94337 47.13518,16.24757 43.68691,-33.69085 z"
       style="opacity:1;fill:#fe5050;fill-rule:evenodd;stroke-width:4;stroke-linecap:round;stroke-miterlimit:100"
       id="path2"
       data-layer="400"
       color="detail-1"
       sodipodi:nodetypes="sscss" /><path
       style="fill:none;stroke:#000000;stroke-width:5;stroke-linecap:round;stroke-dasharray:none;stroke-opacity:1"
       d="m 398.1977,478.45083 c 0,0 -11.95801,11.35846 -71.3982,8.18581 -59.44018,-3.17265 -78.2977,-33.28538 -78.21967,-60.02907 0.0278,-9.49695 21.87071,-6.55772 23.50988,-13.27097 3.00321,-12.29977 -14.33467,-88.75774 31.51675,-117.24676 79.53558,-49.4181 130.35084,9.01082 141.4321,23.19305 24.67303,31.57746 8.82401,113.7754 8.82401,113.7754"
       id="path8"
       color="coat_contour"
       data-layer="400"
       inkscape:label="path8" /><path
       style="fill:none;stroke:#000000;stroke-width:3;stroke-linecap:round;stroke-dasharray:none;stroke-opacity:1"
       d="m 270.9186,469.86452 c 10.16512,-0.72608 11.64527,-3.15512 17.2444,-7.89612 -2.42423,8.70562 -13.1602,9.25752 -13.1602,9.25752 z"
       id="path14"
       color="coat_contour"
       data-layer="400" /><path
       style="fill:none;stroke:#000000;stroke-width:3;stroke-linecap:round;stroke-dasharray:none;stroke-opacity:1"
       d="m 269.22269,432.67615 c 0.84413,-0.23829 4.13651,-1.1599 4.70578,-1.29772 0.4879,-0.11812 2.32249,-1.1295 4.32827,-2.24504 -1.85789,3.15366 -3.73289,3.55033 -4.13681,3.71897 -0.2992,0.12493 -3.1729,0.38151 -4.89724,-0.17621 z"
       id="path15"
       line="3"
       color="coat_contour"
       data-layer="400" /></g></svg>
