<?xml version="1.0" encoding="UTF-8" standalone="no"?>
<!-- Created with Inkscape (http://www.inkscape.org/) -->

<svg
   width="1000"
   height="1000"
   viewBox="0 0 1000 1000"
   version="1.1"
   id="svg1"
   xml:space="preserve"
   xmlns="http://www.w3.org/2000/svg"
   xmlns:svg="http://www.w3.org/2000/svg"><defs
     id="defs1" /><g
     id="layer3"
     style="display:inline"><title
       id="title8">coat</title><path
       style="display:inline;fill:#00ffff;stroke-width:0.885764"
       d="m 398.1977,478.45083 c 0,0 -11.95801,11.35847 -71.3982,8.18581 -27.40757,-1.4629 -30.85039,1.99653 -40.75413,-0.49443 -22.69543,-5.27054 -45.87645,-31.22237 -50.72951,-52.90266 -0.18198,-6.53947 17.983,-15.70528 24.42464,-28.59314 5.66061,-11.32524 -1.98546,-80.06755 43.86596,-108.55657 79.53558,-49.4181 130.35084,9.01082 141.4321,23.19305 24.67303,31.57746 9.55009,110.50804 9.55009,110.50804 z"
       id="path6"
       color="coat"
       data-layer="400" /><path
       d="m 309.05859,486.31836 c 0.51363,-10.36131 0.14109,-24.35995 -3.98632,-35.80078 -6.78778,-18.81513 -25.15625,-36.81836 -25.15625,-36.81836 0,0 7.20573,-10.549 9.6692,-15.41087 3.94452,-7.78487 8.62572,-22.78054 8.62572,-22.78054 0,0 -10.5317,-3.45106 -22.60157,-4.94922 -4.54511,-0.56415 -8.38185,-0.48255 -11.26953,-0.20898 -2.2032,16.37983 -2.36278,29.82164 -4.59961,34.29687 -6.44164,12.88786 -24.6058,22.05428 -24.42382,28.59375 4.85306,21.68029 28.03308,47.63181 50.72851,52.90235 7.19326,1.80923 10.97928,0.47867 23.01367,0.17578 z"
       style="display:inline;fill:#d3ff00;fill-opacity:1;stroke-width:0.885764"
       id="path2"
       data-layer="400"
       color="detail-1" /><path
       style="fill:none;stroke:#000000;stroke-width:5;stroke-linecap:round;stroke-dasharray:none;stroke-opacity:1"
       d="m 398.1977,478.45083 c 0,0 -11.95801,11.35847 -71.3982,8.18581 -27.40757,-1.4629 -30.85039,1.99653 -40.75413,-0.49443 -22.69543,-5.27054 -45.87645,-31.22237 -50.72951,-52.90266 -0.18198,-6.53947 17.983,-15.70528 24.42464,-28.59314 5.66061,-11.32524 -1.98546,-80.06755 43.86596,-108.55657 79.53558,-49.4181 130.35084,9.01082 141.4321,23.19305 24.67303,31.57746 9.55009,110.50804 9.55009,110.50804"
       id="path8"
       color="coat_contour"
       data-layer="400" /><path
       style="fill:none;stroke:#000000;stroke-width:3;stroke-linecap:round;stroke-dasharray:none;stroke-opacity:1"
       d="m 266.8022,474.89568 c 10.16512,-0.72608 18.27725,-10.01579 23.87638,-14.75679 -2.42423,8.70562 -19.79218,16.11819 -19.79218,16.11819 z"
       id="path14"
       color="coat_contour"
       data-layer="400" /><path
       style="fill:none;stroke:#000000;stroke-width:3;stroke-linecap:round;stroke-dasharray:none;stroke-opacity:1"
       d="m 269.22269,432.67615 c 0.84413,-0.23829 4.13651,-1.1599 4.70578,-1.29772 0.4879,-0.11812 2.32249,-1.1295 4.32827,-2.24504 -1.85789,3.15366 -3.73289,3.55033 -4.13681,3.71897 -0.2992,0.12493 -3.1729,0.38151 -4.89724,-0.17621 z"
       id="path15"
       line="3"
       color="coat_contour"
       data-layer="400" /></g></svg>
