<?xml version="1.0" encoding="UTF-8" standalone="no"?>
<!-- Created with Inkscape (http://www.inkscape.org/) -->

<svg
   width="1000"
   height="1000"
   viewBox="0 0 1000 1000"
   version="1.1"
   id="svg1"
   xml:space="preserve"
   xmlns="http://www.w3.org/2000/svg"
   xmlns:svg="http://www.w3.org/2000/svg"><defs
     id="defs1" /><g
     id="layer3"
     style="display:inline"
     data-layer="400"><title
       id="title8">coat</title><path
       style="display:inline;fill:#00ffff;stroke-width:0.885764"
       d="m 398.1977,478.45083 c 0,0 -13.8985,13.29896 -73.33869,10.1263 -27.40757,-1.4629 -57.04703,-6.41227 -66.95077,-8.90323 -22.69543,-5.27054 -30.67593,-54.50826 -35.52899,-76.18855 -0.18198,-6.53947 14.15286,-22.11349 22.16073,-34.0912 17.95039,-26.84918 31.64973,-53.87092 59.06648,-73.30431 76.39348,-54.14881 130.35084,9.01082 141.4321,23.19305 24.67303,31.57746 9.55009,110.50804 9.55009,110.50804 z"
       id="path6"
       color="coat" /><path
       style="display:inline;fill:none;stroke:#000000;stroke-width:5;stroke-linecap:round;stroke-dasharray:none;stroke-opacity:1"
       d="m 398.1977,478.45083 c 0,0 -13.8985,13.29896 -73.33869,10.1263 -27.40757,-1.4629 -57.04703,-6.41227 -66.95077,-8.90323 -22.69543,-5.27054 -30.67593,-54.50826 -35.52899,-76.18855 -0.18198,-6.53947 14.15286,-22.11349 22.16073,-34.0912 17.95039,-26.84918 31.64973,-53.87092 59.06648,-73.30431 76.39348,-54.14881 130.35084,9.01082 141.4321,23.19305 24.67303,31.57746 9.55009,110.50804 9.55009,110.50804"
       id="path1"
       color="coat-contour" /><path
       style="fill:none;stroke:#000000;stroke-width:3.23312;stroke-linecap:round;stroke-dasharray:none;stroke-opacity:1"
       d="m 235.93275,455.65965 c 12.03751,-0.71214 21.64387,-9.8234 28.27434,-14.47333 -2.87076,8.53839 -23.43784,15.80858 -23.43784,15.80858 z"
       id="path14"
       color="coat_contour" /><path
       style="fill:none;stroke:#000000;stroke-width:3;stroke-linecap:round;stroke-dasharray:none;stroke-opacity:1"
       d="m 241.21168,411.36924 c 0.59607,-0.64345 2.92501,-3.14649 3.33892,-3.56091 0.35474,-0.35518 1.39291,-2.17475 2.52285,-4.17245 0.0589,3.65976 -1.33424,4.97585 -1.59098,5.33036 -0.19018,0.2626 -2.50858,1.97986 -4.27079,2.403 z"
       id="path15"
       line="3"
       color="coat_contour" /></g></svg>
