<?xml version="1.0" encoding="UTF-8" standalone="no"?>
<!-- Created with Inkscape (http://www.inkscape.org/) -->

<svg
   width="1000"
   height="1000"
   viewBox="0 0 1000 1000"
   version="1.1"
   id="svg1"
   xml:space="preserve"
   sodipodi:docname="Kirin.svg"
   inkscape:version="1.4.2 (f4327f4, 2025-05-13)"
   xmlns:inkscape="http://www.inkscape.org/namespaces/inkscape"
   xmlns:sodipodi="http://sodipodi.sourceforge.net/DTD/sodipodi-0.dtd"
   xmlns="http://www.w3.org/2000/svg"
   xmlns:svg="http://www.w3.org/2000/svg"><sodipodi:namedview
     id="namedview1"
     pagecolor="#ffffff"
     bordercolor="#000000"
     borderopacity="0.25"
     inkscape:showpageshadow="2"
     inkscape:pageopacity="0.0"
     inkscape:pagecheckerboard="0"
     inkscape:deskcolor="#d1d1d1"
     inkscape:zoom="8.7454967"
     inkscape:cx="319.02133"
     inkscape:cy="389.51476"
     inkscape:window-width="1920"
     inkscape:window-height="991"
     inkscape:window-x="-9"
     inkscape:window-y="-9"
     inkscape:window-maximized="1"
     inkscape:current-layer="g2" /><defs
     id="defs1" /><g
     id="layer3"
     style="display:inline"><title
       id="title8">coat</title><path
       style="display:inline;fill:#00ffff;stroke-width:0.885764"
       d="m 398.1977,478.45083 c 0,0 -11.95801,11.35846 -71.3982,8.18581 -59.44018,-3.17265 -78.2977,-33.28538 -78.21967,-60.02907 0.0278,-9.49695 21.87071,-6.55772 23.50988,-13.27097 3.00321,-12.29977 -14.33467,-88.75774 31.51675,-117.24676 79.53558,-49.4181 130.35084,9.01082 141.4321,23.19305 24.67303,31.57746 9.55009,110.50804 9.55009,110.50804 z"
       id="path6"
       color="coat"
       data-layer="400"
       sodipodi:nodetypes="cssssscc" /><g
       id="g2"
       data-layer="400"><path
         d="m 365.35937,276.59766 c -17.98283,-0.11374 -38.65569,5.14171 -61.75195,19.49218 -45.85142,28.48902 -28.51437,104.94633 -31.51758,117.2461 -1.63917,6.71325 -23.48196,3.77453 -23.50976,13.27148 -0.002,0.82319 0.0128,1.64983 0.0469,2.47852 16.21536,-1.09249 31.0972,-4.25108 41.54102,-10.83008 33.20289,-20.91589 -5.01104,-75.23221 46.00586,-102.66406 21.32163,-11.46466 61.54967,-18.91006 84.62695,-19.8418 -13.64897,-9.98423 -32.32061,-19.00611 -55.44141,-19.15234 z"
         style="display:inline;fill:#ff0d00;fill-opacity:1;stroke:none;stroke-width:3;stroke-dasharray:none;stroke-opacity:1"
         id="path2"
         color="hooves"
         sodipodi:nodetypes="sssccsscss" /><path
         d="m 365.35937,276.59766 c -17.98283,-0.11374 -38.65569,5.14171 -61.75195,19.49218 -45.85142,28.48902 -28.51437,104.94633 -31.51758,117.2461 -1.63917,6.71325 -23.48196,3.77453 -23.50976,13.27148 -0.002,0.82319 0.0128,1.64983 0.0469,2.47852 16.21536,-1.09249 31.0972,-4.25108 41.54102,-10.83008 33.20289,-20.91589 -4.32497,-69.2863 46.00586,-102.66406 20.17519,-13.37953 61.54967,-18.91006 84.62695,-19.8418 -13.64897,-9.98423 -32.32061,-19.00611 -55.44141,-19.15234 z"
         style="display:inline;fill:none;stroke:#000000;stroke-width:3;stroke-dasharray:none;stroke-opacity:1"
         id="path3"
         color="hooves-contour"
         sodipodi:nodetypes="sssccsscss" /><path
         style="opacity:1;fill:none;fill-opacity:1;fill-rule:evenodd;stroke:#000000;stroke-width:3;stroke-linecap:round;stroke-miterlimit:100;stroke-dasharray:none;stroke-opacity:1"
         d="m 272.52473,391.98545 c 0,0 3.47401,1.9982 5.03735,3.23984 1.81528,1.44173 4.98852,4.84554 4.98852,4.84554 0,0 5.08146,-3.10724 10.10627,-5.00049 5.55487,-2.09296 11.96108,-2.0754 11.96108,-2.0754"
         id="path4"
         sodipodi:nodetypes="cscsc"
         color="hooves-contour" /><path
         style="opacity:1;fill:none;fill-opacity:1;fill-rule:evenodd;stroke:#000000;stroke-width:3;stroke-linecap:round;stroke-miterlimit:100;stroke-dasharray:none;stroke-opacity:1"
         d="m 272.9821,358.93988 c 0,0 3.7027,2.56992 5.26604,3.81156 1.81528,1.44173 6.13197,5.98898 6.13197,5.98898 0,0 6.11056,-3.90765 11.13537,-5.8009 5.55487,-2.09296 11.61804,-1.84671 11.61804,-1.84671"
         id="path5"
         sodipodi:nodetypes="cscsc"
         color="hooves-contour" /><path
         style="opacity:1;fill:none;fill-opacity:1;fill-rule:evenodd;stroke:#000000;stroke-width:3;stroke-linecap:round;stroke-miterlimit:100;stroke-dasharray:none;stroke-opacity:1"
         d="m 280.07146,326.46602 c 0,0 4.46372,2.48861 6.52383,4.61198 2.06011,2.12336 5.78893,7.13243 5.78893,7.13243 0,0 6.28221,-3.53239 11.47841,-4.88615 7.15569,-1.86427 13.5619,-0.81761 13.5619,-0.81761"
         id="path7"
         sodipodi:nodetypes="czcsc"
         color="hooves-contour" /></g><path
       style="fill:none;stroke:#000000;stroke-width:5;stroke-linecap:round;stroke-dasharray:none;stroke-opacity:1"
       d="m 398.1977,478.45083 c 0,0 -11.95801,11.35846 -71.3982,8.18581 -59.44018,-3.17265 -78.2977,-33.28538 -78.21967,-60.02907 0.0278,-9.49695 21.87071,-6.55772 23.50988,-13.27097 3.00321,-12.29977 -14.33467,-88.75774 31.51675,-117.24676 79.53558,-49.4181 130.35084,9.01082 141.4321,23.19305 24.67303,31.57746 8.82401,113.7754 8.82401,113.7754"
       id="path8"
       color="coat_contour"
       data-layer="400" /><path
       style="fill:none;stroke:#000000;stroke-width:3;stroke-linecap:round;stroke-dasharray:none;stroke-opacity:1"
       d="m 270.9186,469.86452 c 10.16512,-0.72608 11.64527,-3.15512 17.2444,-7.89612 -2.42423,8.70562 -13.1602,9.25752 -13.1602,9.25752 z"
       id="path14"
       color="coat_contour"
       data-layer="400" /><path
       style="fill:none;stroke:#000000;stroke-width:3;stroke-linecap:round;stroke-dasharray:none;stroke-opacity:1"
       d="m 269.22269,432.67615 c 0.84413,-0.23829 4.13651,-1.1599 4.70578,-1.29772 0.4879,-0.11812 2.32249,-1.1295 4.32827,-2.24504 -1.85789,3.15366 -3.73289,3.55033 -4.13681,3.71897 -0.2992,0.12493 -3.1729,0.38151 -4.89724,-0.17621 z"
       id="path15"
       line="3"
       color="coat_contour"
       data-layer="400" /></g></svg>
