<?xml version="1.0" encoding="UTF-8" standalone="no"?>
<!-- Created with Inkscape (http://www.inkscape.org/) -->

<svg
   width="1000"
   height="1000"
   viewBox="0 0 1000 1000"
   version="1.1"
   id="svg1"
   xml:space="preserve"
   sodipodi:docname="Umbrum.svg"
   inkscape:version="1.4.2 (f4327f4, 2025-05-13)"
   xmlns:inkscape="http://www.inkscape.org/namespaces/inkscape"
   xmlns:sodipodi="http://sodipodi.sourceforge.net/DTD/sodipodi-0.dtd"
   xmlns="http://www.w3.org/2000/svg"
   xmlns:svg="http://www.w3.org/2000/svg"><sodipodi:namedview
     id="namedview1"
     pagecolor="#ffffff"
     bordercolor="#000000"
     borderopacity="0.25"
     inkscape:showpageshadow="2"
     inkscape:pageopacity="0.0"
     inkscape:pagecheckerboard="0"
     inkscape:deskcolor="#d1d1d1"
     inkscape:zoom="4.3727483"
     inkscape:cx="394.60309"
     inkscape:cy="371.96287"
     inkscape:window-width="1920"
     inkscape:window-height="991"
     inkscape:window-x="-9"
     inkscape:window-y="-9"
     inkscape:window-maximized="1"
     inkscape:current-layer="layer3" /><defs
     id="defs1" /><g
     id="layer3"
     style="display:inline"><title
       id="title8">coat</title><path
       style="display:inline;fill:#00ffff;stroke-width:0.885764"
       d="m 398.1977,478.45083 c 0,0 -11.95801,11.35846 -71.3982,8.18581 -59.44018,-3.17265 -78.2977,-33.28538 -78.21967,-60.02907 0.0278,-9.49695 21.87071,-6.55772 23.50988,-13.27097 3.00321,-12.29977 -14.33467,-88.75774 31.51675,-117.24676 79.53558,-49.4181 130.35084,9.01082 141.4321,23.19305 24.67303,31.57746 9.55009,110.50804 9.55009,110.50804 z"
       id="path6"
       color="coat"
       data-layer="400" /><path
       d="m 378.40039,277.64062 c -4.65904,5.32072 -15.76612,19.91575 -11,33.48438 8.29528,23.61575 30.09087,21.14831 46.24707,40.26617 6.456,7.63948 16.48518,33.99853 22.6403,41.88244 3.28927,4.21313 25.44881,10.37487 22.8138,-19.99431 -0.52333,-20.15718 -3.94986,-41.05357 -14.0625,-53.9961 -7.05494,-9.02919 -30.21512,-35.99297 -66.63867,-41.64258 z"
       style="display:inline;fill:#8aedad;fill-opacity:1;stroke:none;stroke-width:0.885764"
       id="path4"
       data-layer="400"
       color="detail-1"
       sodipodi:nodetypes="cssscsc" /><path
       d="m 346.57422,487.19531 c 7.32439,-5.66381 15.68138,-13.8269 14.35742,-20.83008 -3.69,-19.5185 -41.14143,-11.26237 -53.04102,-27.16796 -17.35224,-23.1939 -26.05476,-58.15317 -16.16992,-85.38086 7.42365,-20.44835 25.22657,-34.92969 25.22657,-34.92969 0,0 -20.96305,5.03334 -37.51563,20.69922 -2.0457,1.93611 -4.04876,4.39978 -5.97656,7.19726 -5.00196,29.15016 0.42322,59.22805 -1.36524,66.55274 -1.63917,6.71325 -23.48196,3.77453 -23.50976,13.27148 -0.078,26.74369 18.77857,56.85665 78.21875,60.0293 7.28226,0.38869 13.85319,0.55851 19.77539,0.55859 z"
       style="opacity:1;fill:#8aedad;fill-rule:evenodd;stroke:none;stroke-width:2;stroke-linecap:round;stroke-miterlimit:100;fill-opacity:1"
       id="path3"
       data-layer="400"
       color="detail-1" /><path
       d="m 456.68298,390.83915 c -5.47374,16.90301 -25.11531,12.96606 -33.00915,18.92843 -8.70502,6.57505 -11.64258,25.54883 -11.64258,25.54883 0,0 13.26435,-15.85882 25.22656,-19.08008 7.85392,-2.11496 14.50558,-3.28684 19.88086,-3.90821 0.35568,-3.06238 -0.75993,-17.8934 -0.45569,-21.48897 z"
       style="opacity:1;fill:#8aedad;fill-opacity:1;fill-rule:evenodd;stroke:none;stroke-width:2;stroke-linecap:round;stroke-miterlimit:100"
       id="path5"
       data-layer="400"
       color="detail-1"
       sodipodi:nodetypes="cscscc" /><path
       style="fill:none;stroke:#000000;stroke-width:5;stroke-linecap:round;stroke-dasharray:none;stroke-opacity:1"
       d="m 398.1977,478.45083 c 0,0 -11.95801,11.35846 -71.3982,8.18581 -59.44018,-3.17265 -78.2977,-33.28538 -78.21967,-60.02907 0.0278,-9.49695 21.87071,-6.55772 23.50988,-13.27097 3.00321,-12.29977 -14.33467,-88.75774 31.51675,-117.24676 79.53558,-49.4181 130.35084,9.01082 141.4321,23.19305 24.67303,31.57746 8.82401,113.7754 8.82401,113.7754"
       id="path8"
       color="coat_contour"
       data-layer="400" /><path
       style="fill:none;stroke:#000000;stroke-width:3;stroke-linecap:round;stroke-dasharray:none;stroke-opacity:1"
       d="m 270.9186,469.86452 c 10.16512,-0.72608 11.64527,-3.15512 17.2444,-7.89612 -2.42423,8.70562 -13.1602,9.25752 -13.1602,9.25752 z"
       id="path14"
       color="coat_contour"
       data-layer="400" /><path
       style="fill:none;stroke:#000000;stroke-width:3;stroke-linecap:round;stroke-dasharray:none;stroke-opacity:1"
       d="m 269.22269,432.67615 c 0.84413,-0.23829 4.13651,-1.1599 4.70578,-1.29772 0.4879,-0.11812 2.32249,-1.1295 4.32827,-2.24504 -1.85789,3.15366 -3.73289,3.55033 -4.13681,3.71897 -0.2992,0.12493 -3.1729,0.38151 -4.89724,-0.17621 z"
       id="path15"
       line="3"
       color="coat_contour"
       data-layer="400" /></g></svg>
