<?xml version="1.0" encoding="UTF-8" standalone="no"?>
<!-- Created with Inkscape (http://www.inkscape.org/) -->

<svg
   width="1000"
   height="1000"
   viewBox="0 0 1000 1000"
   version="1.1"
   id="svg1"
   xml:space="preserve"
   xmlns="http://www.w3.org/2000/svg"
   xmlns:svg="http://www.w3.org/2000/svg"><defs
     id="defs1" /><g
     id="layer3"
     style="display:inline"
     data-layer="400"><title
       id="title8">coat</title><path
       style="display:inline;fill:#00ffff;stroke:none;stroke-width:5;stroke-dasharray:none;stroke-opacity:1"
       d="m 398.1977,478.45083 c 0,0 -11.95801,11.35846 -71.3982,8.18581 -2.94681,-0.15729 -16.0989,-5.14327 -27.15452,-6.61621 -21.63176,-2.88199 -26.08767,1.27432 -26.08767,1.27432 0,0 -4.0811,-2.33298 -7.01384,-5.89624 -2.62843,-3.19352 -3.90838,-5.22879 -4.86817,-7.63446 -0.7323,-0.4322 -4.65345,0.47547 -6.82894,1.74099 -2.58229,-7.18537 -7.64793,-21.96522 -2.38555,-34.65037 3.20897,-7.73534 14.95718,-3.67826 18.67783,-9.39051 0.85511,-1.31284 1.03684,-4.8168 2.24473,-12.61268 1.93857,-12.51182 -15.62833,-88.27262 30.22309,-116.76164 79.53558,-49.4181 130.35084,9.01082 141.4321,23.19305 24.67303,31.57746 9.55009,110.50804 9.55009,110.50804 z"
       id="path6"
       color="coat" /><path
       style="display:inline;fill:#ff9d00;fill-opacity:1;stroke:none;stroke-width:5;stroke-dasharray:none;stroke-opacity:1"
       d="m 293.38942,479.33286 c -16.26207,-1.36811 -19.83211,1.96189 -19.83211,1.96189 0,0 -4.0811,-2.33298 -7.01384,-5.89624 -2.62843,-3.19352 -3.90838,-5.22879 -4.86817,-7.63446 -0.7323,-0.4322 -4.65345,0.47547 -6.82894,1.74099 -2.58229,-7.18537 -7.64793,-21.96522 -2.38555,-34.65037 3.20897,-7.73534 14.95719,-3.67825 18.67783,-9.39051 0.38669,-0.59368 1.27936,-1.65597 0.90413,-3.31954 -0.0894,-0.39643 -0.56992,-1.45372 -0.26635,-1.18659 8.74154,7.69226 14.0528,14.30751 13.05498,25.28702 22.43256,3.10007 12.78523,26.89103 10.43074,33.2424 -0.21695,0.58524 -1.24636,-0.10189 -1.87272,-0.15459 z"
       id="path2"
       color="hooves" /><path
       style="display:inline;fill:none;stroke:#000000;stroke-width:5;stroke-linecap:round;stroke-dasharray:none;stroke-opacity:1"
       d="m 398.1977,478.45083 c 0,0 -11.95801,11.35846 -71.3982,8.18581 -2.94681,-0.15729 -16.0989,-5.14327 -27.15452,-6.61621 -21.63176,-2.88199 -26.08767,1.27432 -26.08767,1.27432 0,0 -4.0811,-2.33298 -7.01384,-5.89624 -2.62843,-3.19352 -3.90838,-5.22879 -4.86817,-7.63446 -0.7323,-0.4322 -4.65345,0.47547 -6.82894,1.74099 -2.58229,-7.18537 -7.64793,-21.96522 -2.38555,-34.65037 3.20897,-7.73534 14.95718,-3.67826 18.67783,-9.39051 0.85511,-1.31284 1.03684,-4.8168 2.24473,-12.61268 1.93857,-12.51182 -15.62833,-88.27262 30.22309,-116.76164 79.53558,-49.4181 130.35084,9.01082 141.4321,23.19305 24.67303,31.57746 9.55009,110.50804 9.55009,110.50804"
       id="path1"
       color="coat-contour" /><g
       id="g1"
       style="display:inline"><path
         style="fill:none;stroke:#000000;stroke-width:2.30507;stroke-linecap:round;stroke-dasharray:none;stroke-opacity:1"
         d="m 253.8114,467.22376 c 7.16198,-0.60839 22.90228,-6.97972 27.87263,-11.49432 -2.39162,7.70116 -24.99505,12.63508 -24.99505,12.63508 z"
         id="path14"
         color="coat_contour" /><path
         style="fill:none;stroke:#000000;stroke-width:1.98167;stroke-linecap:round;stroke-dasharray:none;stroke-opacity:1"
         d="m 269.68297,446.75076 c 0.30946,-0.48982 1.5199,-2.39644 1.73871,-2.71553 0.18752,-0.27348 0.64217,-1.58046 1.13492,-3.01421 0.47991,2.36969 -0.26604,3.39254 -0.39,3.65375 -0.0918,0.19349 -1.39025,1.58852 -2.48363,2.07599 z"
         id="path15"
         line="3"
         color="coat_contour" /></g></g></svg>
