<?xml version="1.0" encoding="UTF-8" standalone="no"?>
<!-- Created with Inkscape (http://www.inkscape.org/) -->

<svg
   width="1000"
   height="1000"
   viewBox="0 0 1000 1000"
   version="1.1"
   id="svg1"
   xml:space="preserve"
   xmlns="http://www.w3.org/2000/svg"
   xmlns:svg="http://www.w3.org/2000/svg"><defs
     id="defs1" /><g
     id="layer3"
     style="display:inline"
     data-layer="400"><title
       id="title8">coat</title><path
       style="display:inline;fill:#00ffff;stroke:none;stroke-width:5;stroke-dasharray:none;stroke-opacity:1"
       d="m 398.1977,478.45083 c 0,0 -11.95801,11.35846 -71.3982,8.18581 -2.94681,-0.15729 -15.12865,-1.5857 -26.18427,-3.05864 -21.63176,-2.88199 -36.11355,1.59773 -36.11355,1.59773 0,0 -3.75768,-2.33298 -6.69042,-5.89624 -2.62843,-3.19352 -3.90838,-7.16928 -4.86817,-9.57495 -2.51108,0.37634 -5.94711,1.93084 -8.1226,3.19636 -2.58229,-7.18537 -8.29476,-23.74401 -3.03238,-36.42916 4.87894,-11.76086 29.95609,-16.90701 31.59526,-23.62026 3.00321,-12.29977 -15.62833,-88.27262 30.22309,-116.76164 79.53558,-49.4181 130.35084,9.01082 141.4321,23.19305 24.67303,31.57746 9.55009,110.50804 9.55009,110.50804 z"
       id="path6"
       color="coat" /><path
       style="display:inline;fill:#ff6e00;fill-opacity:1;stroke:none;stroke-width:5;stroke-dasharray:none;stroke-opacity:1"
       d="m 303.6892,483.98272 c -1.02881,-0.13389 -2.05616,-0.26912 -3.07397,-0.40472 -21.63176,-2.882 -36.11355,1.59773 -36.11355,1.59773 0,0 -3.75768,-2.33298 -6.69042,-5.89624 -2.62843,-3.19352 -3.90838,-7.16928 -4.86817,-9.57495 -2.51108,0.37634 -5.94711,1.93084 -8.1226,3.19636 -2.58229,-7.18537 -8.29476,-23.74401 -3.03238,-36.42916 4.87894,-11.76086 29.9561,-16.90701 31.59526,-23.62026 0.27371,-1.12099 0.36771,-2.77087 0.34721,-4.8655 2.95088,-1.22309 16.27608,1.04774 26.33021,26.02335 22.15228,-0.29915 27.66556,26.33572 3.62841,49.97339 z"
       id="path2"
       color="detail-1" /><path
       style="display:inline;fill:none;stroke:#000000;stroke-width:5;stroke-linecap:round;stroke-dasharray:none;stroke-opacity:1"
       d="m 398.1977,478.45083 c 0,0 -11.95801,11.35846 -71.3982,8.18581 -2.94681,-0.15729 -15.12865,-1.5857 -26.18427,-3.05864 -21.63176,-2.88199 -36.11355,1.59773 -36.11355,1.59773 0,0 -3.75768,-2.33298 -6.69042,-5.89624 -2.62843,-3.19352 -3.90838,-7.16928 -4.86817,-9.57495 -2.51108,0.37634 -5.94711,1.93084 -8.1226,3.19636 -2.58229,-7.18537 -8.29476,-23.74401 -3.03238,-36.42916 4.87894,-11.76086 29.95609,-16.90701 31.59526,-23.62026 3.00321,-12.29977 -15.62833,-88.27262 30.22309,-116.76164 79.53558,-49.4181 130.35084,9.01082 141.4321,23.19305 24.67303,31.57746 9.55009,110.50804 9.55009,110.50804"
       id="path3"
       color="coat-contour" /><g
       id="g1"
       style="display:inline"><path
         style="fill:none;stroke:#000000;stroke-width:3;stroke-linecap:round;stroke-dasharray:none;stroke-opacity:1"
         d="m 252.32222,468.73257 c 10.16512,-0.72608 32.50555,-8.32976 39.56005,-13.71759 -3.39447,9.19074 -35.47585,15.07899 -35.47585,15.07899 z"
         id="path14"
         color="coat_contour" /><path
         style="fill:none;stroke:#000000;stroke-width:3;stroke-linecap:round;stroke-dasharray:none;stroke-opacity:1"
         d="m 264.54341,444.30723 c 0.46849,-0.74153 2.30095,-3.62791 2.63219,-4.11097 0.28389,-0.41401 0.97217,-2.39262 1.71813,-4.56313 0.72652,3.58741 -0.40275,5.13587 -0.59041,5.53131 -0.139,0.29293 -2.10466,2.40483 -3.75991,3.14279 z"
         id="path15"
         line="3"
         color="coat_contour" /></g></g></svg>
