<?xml version="1.0" encoding="UTF-8" standalone="no"?>
<!-- Created with Inkscape (http://www.inkscape.org/) -->

<svg
   width="1000"
   height="1000"
   viewBox="0 0 1000 1000"
   version="1.1"
   id="svg1"
   xml:space="preserve"
   xmlns="http://www.w3.org/2000/svg"
   xmlns:svg="http://www.w3.org/2000/svg"><defs
     id="defs1" /><g
     id="layer3"
     style="display:inline"><title
       id="title8">coat</title><path
       style="display:inline;fill:#00ffff;stroke-width:0.885764"
       d="m 398.1977,478.45083 c 0,0 -11.95801,11.35847 -71.3982,8.18581 -27.40757,-1.4629 -30.85039,1.99653 -40.75413,-0.49443 -22.69543,-5.27054 -45.87645,-31.22237 -50.72951,-52.90266 -0.18198,-6.53947 17.983,-15.70528 24.42464,-28.59314 5.66061,-11.32524 -1.98546,-80.06755 43.86596,-108.55657 79.53558,-49.4181 130.35084,9.01082 141.4321,23.19305 24.67303,31.57746 9.55009,110.50804 9.55009,110.50804 z"
       id="path6"
       color="coat"
       data-layer="400" /><path
       d="m 371.50184,277.85334 c -2.8075,6.86118 -5.38162,14.57364 -6.45714,21.73435 -2.3194,15.44212 -0.54103,34.77998 -0.54103,34.77998 0,0 -21.97518,-14.17948 -30.75905,-25.97615 -3.58315,-4.81213 -7.3474,-13.03255 -10.37071,-20.51285 12.88834,-6.15011 29.41523,-11.14548 48.12793,-10.02533 z"
       style="display:inline;fill:#d3ff00;fill-opacity:1;stroke:none;stroke-width:5;stroke-linecap:round"
       id="path11"
       data-layer="400"
       color="detail-1" /><path
       d="m 291.31348,308.24422 c 5.923,3.76757 14.45497,10.3969 19.85955,16.41106 11.38517,12.66931 13.47131,22.8283 13.47131,22.8283 0,0 10.3882,-20.00949 9.65715,-38.45681 -0.36328,-9.16726 -2.78889,-17.33903 -4.01468,-24.39034 -6.73742,2.96214 -13.69053,6.6228 -20.85533,11.07452 -6.46212,4.01513 -13.42212,7.29732 -18.118,12.53327 z"
       style="display:inline;fill:#d3ff00;fill-opacity:1;stroke:none;stroke-width:5.53834;stroke-linecap:round"
       id="path10"
       data-layer="400"
       color="detail-1" /><path
       d="m 370.52425,474.67054 c 12.5907,-2.71262 22.98939,-19.18724 22.98939,-19.18724 0,0 -13.04607,9.02515 -25.33279,10.99431 -12.28672,1.96916 -19.98975,2.65829 -28.91576,1.78655 12.43586,5.91239 22.59748,8.2725 31.25916,6.40638 z"
       style="display:inline;fill:#d3ff00;fill-opacity:1;stroke:none;stroke-width:5;stroke-linecap:round"
       id="path9"
       data-layer="400"
       color="detail-1" /><path
       d="m 365.50586,461.37624 c 12.06192,-2.12238 19.35983,-14.68202 19.35983,-14.68202 0,0 -16.05101,7.10616 -22.79196,8.30008 -6.74095,1.19392 -9.74987,1.85648 -20.71072,1.29626 6.17816,4.21193 13.38273,6.979 24.14285,5.08568 z"
       style="display:inline;fill:#d3ff00;fill-opacity:1;stroke:none;stroke-width:5;stroke-linecap:round"
       id="path5"
       color="detail-1"
       data-layer="400" /><path
       d="m 309.05859,486.31836 c 0.51363,-10.36131 0.14109,-24.35995 -3.98632,-35.80078 -6.78778,-18.81513 -25.15625,-36.81836 -25.15625,-36.81836 0,0 7.31954,-16.47617 10.47774,-23.65796 2.76233,-6.28159 3.99052,-25.85645 8.56699,-40.7267 5.30788,-17.24679 14.74638,-26.32284 14.74638,-26.32284 0,0 -11.8213,-16.41296 -23.78902,-14.24502 -12.95391,2.34659 -22.69059,61.32934 -25.57827,61.60291 -2.2032,16.37983 -2.36278,29.82164 -4.59961,34.29687 -6.44164,12.88786 -24.6058,22.05428 -24.42382,28.59375 4.85306,21.68029 28.03308,47.63181 50.72851,52.90235 7.19326,1.80923 10.97928,0.47867 23.01367,0.17578 z"
       style="display:inline;fill:#d3ff00;fill-opacity:1;stroke-width:0.885764"
       id="path2"
       data-layer="400"
       color="detail-1" /><path
       style="fill:none;stroke:#000000;stroke-width:5;stroke-linecap:round;stroke-dasharray:none;stroke-opacity:1"
       d="m 398.1977,478.45083 c 0,0 -11.95801,11.35847 -71.3982,8.18581 -27.40757,-1.4629 -30.85039,1.99653 -40.75413,-0.49443 -22.69543,-5.27054 -45.87645,-31.22237 -50.72951,-52.90266 -0.18198,-6.53947 17.983,-15.70528 24.42464,-28.59314 5.66061,-11.32524 -1.98546,-80.06755 43.86596,-108.55657 79.53558,-49.4181 130.35084,9.01082 141.4321,23.19305 24.67303,31.57746 9.55009,110.50804 9.55009,110.50804"
       id="path8"
       color="coat_contour"
       data-layer="400" /><path
       style="fill:none;stroke:#000000;stroke-width:3;stroke-linecap:round;stroke-dasharray:none;stroke-opacity:1"
       d="m 266.8022,474.89568 c 10.16512,-0.72608 18.27725,-10.01579 23.87638,-14.75679 -2.42423,8.70562 -19.79218,16.11819 -19.79218,16.11819 z"
       id="path14"
       color="coat_contour"
       data-layer="400" /><path
       style="fill:none;stroke:#000000;stroke-width:3;stroke-linecap:round;stroke-dasharray:none;stroke-opacity:1"
       d="m 269.22269,432.67615 c 0.84413,-0.23829 4.13651,-1.1599 4.70578,-1.29772 0.4879,-0.11812 2.32249,-1.1295 4.32827,-2.24504 -1.85789,3.15366 -3.73289,3.55033 -4.13681,3.71897 -0.2992,0.12493 -3.1729,0.38151 -4.89724,-0.17621 z"
       id="path15"
       line="3"
       color="coat_contour"
       data-layer="400" /></g></svg>
