<?xml version="1.0" encoding="UTF-8" standalone="no"?>
<!-- Created with Inkscape (http://www.inkscape.org/) -->

<svg
   width="1000"
   height="1000"
   viewBox="0 0 1000 1000"
   version="1.1"
   id="svg1"
   xml:space="preserve"
   xmlns="http://www.w3.org/2000/svg"
   xmlns:svg="http://www.w3.org/2000/svg"><defs
     id="defs1" /><g
     id="layer3"
     style="display:inline"><title
       id="title8">coat</title><path
       style="display:inline;fill:#00ffff;stroke-width:0.885764"
       d="m 398.1977,478.45083 c 0,0 -11.95801,11.35847 -71.3982,8.18581 -27.40757,-1.4629 -30.85039,1.99653 -40.75413,-0.49443 -22.69543,-5.27054 -45.87645,-31.22237 -50.72951,-52.90266 -0.18198,-6.53947 17.983,-15.70528 24.42464,-28.59314 5.66061,-11.32524 -1.98546,-80.06755 43.86596,-108.55657 79.53558,-49.4181 130.35084,9.01082 141.4321,23.19305 24.67303,31.57746 9.55009,110.50804 9.55009,110.50804 z"
       id="path6"
       color="coat"
       data-layer="400" /><path
       d="m 457.14819,379.16322 c -4.05293,9.78835 -9.44052,16.73456 -16.34614,18.91286 -14.892,4.69753 -23.97973,-7.99557 -23.97973,-7.99557 0,0 3.0234,24.29946 16.0448,31.13765 5.31173,2.78945 14.01835,5.22666 21.8784,7.04731 4.06648,-13.6893 6.4253,-30.79274 2.40267,-49.10225 z"
       style="display:inline;fill:#d3ff00;fill-opacity:1;stroke:none;stroke-width:5;stroke-linecap:round"
       id="path11"
       data-layer="400"
       color="detail-1" /><path
       d="m 325.45174,285.65399 c 6.75154,1.65738 11.50643,5.78754 14.12304,12.60227 5.51211,14.35575 -4.08099,27.30289 -4.08099,27.30289 0,0 19.31792,-10.60835 24.65332,-26.39856 2.6514,-7.84683 4.46984,-15.05011 5.71131,-21.3911 -6.63654,0.32386 -13.68031,1.1671 -21.15779,2.60905 -6.74415,1.30054 -13.60011,2.37569 -19.24889,5.27545 z"
       style="display:inline;fill:#d3ff00;fill-opacity:1;stroke:none;stroke-width:5;stroke-linecap:round"
       id="path10"
       data-layer="400"
       color="detail-1" /><path
       d="m 371.42716,444.29847 c -0.92738,-10.3733 -7.05298,-20.4515 -7.05298,-20.4515 0,0 2.05234,17.70368 2.10244,24.54936 0.0501,6.84568 -0.1521,17.78423 -1.28407,27.62552 4.12788,-5.02349 7.16199,-21.35009 6.23461,-31.72338 z"
       style="display:inline;fill:#d3ff00;fill-opacity:1;stroke:none;stroke-width:5;stroke-linecap:round"
       id="path5"
       color="detail-1"
       data-layer="400" /><path
       d="m 377.07683,418.48546 c -3.36866,-9.85482 -11.71608,-18.18631 -11.71608,-18.18631 0,0 -6.99796,19.96907 -7.89939,24.90394 -2.53716,13.88975 -1.83852,33.67824 -0.31984,31.85869 1.13501,-6.62907 0.43989,-14.97826 4.67891,-31.25745 1.79253,-6.88387 5.58402,-13.12522 5.70009,-12.78891 1.47499,4.27363 5.03298,7.89824 5.72283,10.62802 1.67731,6.6372 4.08331,17.30978 5.32518,27.13781 2.81422,-5.86131 1.87696,-22.44098 -1.4917,-32.29579 z"
       style="display:inline;fill:#d3ff00;fill-opacity:1;stroke:none;stroke-width:5;stroke-linecap:round"
       id="path3"
       color="detail-1"
       data-layer="400" /><path
       d="m 309.05859,486.31836 c 0.51363,-10.36131 0.14109,-24.35995 -3.98632,-35.80078 -6.78778,-18.81513 -25.15625,-36.81836 -25.15625,-36.81836 0,0 7.20573,-10.549 9.6692,-15.41087 3.94452,-7.78487 8.62572,-22.78054 8.62572,-22.78054 0,0 -10.5317,-3.45106 -22.60157,-4.94922 -4.54511,-0.56415 -8.38185,-0.48255 -11.26953,-0.20898 -2.2032,16.37983 -2.36278,29.82164 -4.59961,34.29687 -6.44164,12.88786 -24.6058,22.05428 -24.42382,28.59375 4.85306,21.68029 28.03308,47.63181 50.72851,52.90235 7.19326,1.80923 10.97928,0.47867 23.01367,0.17578 z"
       style="display:inline;fill:#d3ff00;fill-opacity:1;stroke-width:0.885764"
       id="path2"
       data-layer="400"
       color="detail-1" /><path
       style="fill:none;stroke:#000000;stroke-width:5;stroke-linecap:round;stroke-dasharray:none;stroke-opacity:1"
       d="m 398.1977,478.45083 c 0,0 -11.95801,11.35847 -71.3982,8.18581 -27.40757,-1.4629 -30.85039,1.99653 -40.75413,-0.49443 -22.69543,-5.27054 -45.87645,-31.22237 -50.72951,-52.90266 -0.18198,-6.53947 17.983,-15.70528 24.42464,-28.59314 5.66061,-11.32524 -1.98546,-80.06755 43.86596,-108.55657 79.53558,-49.4181 130.35084,9.01082 141.4321,23.19305 24.67303,31.57746 9.55009,110.50804 9.55009,110.50804"
       id="path8"
       color="coat_contour"
       data-layer="400" /><path
       style="fill:none;stroke:#000000;stroke-width:3;stroke-linecap:round;stroke-dasharray:none;stroke-opacity:1"
       d="m 266.8022,474.89568 c 10.16512,-0.72608 18.27725,-10.01579 23.87638,-14.75679 -2.42423,8.70562 -19.79218,16.11819 -19.79218,16.11819 z"
       id="path14"
       color="coat_contour"
       data-layer="400" /><path
       style="fill:none;stroke:#000000;stroke-width:3;stroke-linecap:round;stroke-dasharray:none;stroke-opacity:1"
       d="m 269.22269,432.67615 c 0.84413,-0.23829 4.13651,-1.1599 4.70578,-1.29772 0.4879,-0.11812 2.32249,-1.1295 4.32827,-2.24504 -1.85789,3.15366 -3.73289,3.55033 -4.13681,3.71897 -0.2992,0.12493 -3.1729,0.38151 -4.89724,-0.17621 z"
       id="path15"
       line="3"
       color="coat_contour"
       data-layer="400" /></g></svg>
