<?xml version="1.0" encoding="UTF-8" standalone="no"?>
<!-- Created with Inkscape (http://www.inkscape.org/) -->

<svg
   width="1000"
   height="1000"
   viewBox="0 0 1000 1000"
   version="1.1"
   id="svg1"
   xml:space="preserve"
   xmlns="http://www.w3.org/2000/svg"
   xmlns:svg="http://www.w3.org/2000/svg"><defs
     id="defs1" /><g
     id="layer3"
     style="display:inline"><title
       id="title8">coat</title><path
       style="display:inline;fill:#00ffff;stroke-width:0.885764"
       d="m 398.1977,478.45083 c 0,0 -11.95801,11.35847 -71.3982,8.18581 -27.40757,-1.4629 -30.85039,1.99653 -40.75413,-0.49443 -22.69543,-5.27054 -45.87645,-31.22237 -50.72951,-52.90266 -0.18198,-6.53947 17.983,-15.70528 24.42464,-28.59314 5.66061,-11.32524 -1.98546,-80.06755 43.86596,-108.55657 79.53558,-49.4181 130.35084,9.01082 141.4321,23.19305 24.67303,31.57746 9.55009,110.50804 9.55009,110.50804 z"
       id="path6"
       color="coat"
       data-layer="400" /><path
       d="m 378.30273,277.625 c 1.29682,7.29904 2.18592,15.38098 1.72657,22.60742 -0.9906,15.58388 -6.8086,34.11133 -6.8086,34.11133 0,0 24.47199,-9.2243 35.54688,-18.90234 4.5177,-3.9479 9.93148,-11.18917 14.46484,-17.86329 -11.30079,-8.73071 -26.40184,-17.10029 -44.92969,-19.95312 z"
       style="display:inline;fill:#d3ff00;fill-opacity:1;stroke:none;stroke-width:5;stroke-linecap:round"
       id="path11"
       data-layer="400"
       color="detail-1" /><path
       d="m 288.56445,308.71875 c 5.34727,3.40135 11.736,8.07238 16.61524,13.50195 10.2785,11.43781 17.27148,19.44141 17.27148,19.44141 0,0 2.95491,-16.8966 2.29492,-33.55078 -0.32797,-8.27618 -1.2039,-15.65363 -2.31054,-22.01953 -6.08252,2.67421 -12.35977,5.97904 -18.82813,9.99804 -5.83398,3.62485 -10.80354,7.90191 -15.04297,12.62891 z"
       style="display:inline;fill:#d3ff00;fill-opacity:1;stroke:none;stroke-width:5;stroke-linecap:round"
       id="path10"
       data-layer="400"
       color="detail-1" /><path
       d="m 396.03125,479.85156 c -1.09538,-4.05951 -2.37092,-8.44913 -3.69727,-12.30664 -3.68463,-10.71627 -12.80664,-24.30469 -12.80664,-24.30469 0,0 1.88274,19.86362 1.07618,32.66993 -0.19467,3.09088 -0.5695,6.1324 -1,8.88086 8.97662,-1.58687 13.93426,-3.61052 16.42773,-4.93946 z"
       style="display:inline;fill:#d3ff00;fill-opacity:1;stroke:none;stroke-width:5;stroke-linecap:round"
       id="path9"
       data-layer="400"
       color="detail-1" /><path
       d="m 374.6875,485.55469 c -1.21308,-4.84445 -2.70038,-10.60498 -4.10938,-15.58399 -3.21307,-11.35416 -12.97709,-24.37704 -13.04296,-24.46484 0.0217,0.16166 1.09431,14.67178 0.68164,32.80859 -0.0738,3.24242 -0.34193,6.14513 -0.70703,8.67188 6.73065,-0.27078 12.40624,-0.78538 17.17773,-1.43164 z"
       style="display:inline;fill:#d3ff00;fill-opacity:1;stroke:none;stroke-width:5;stroke-linecap:round"
       id="path7"
       data-layer="400"
       color="detail-1" /><path
       d="m 352.11523,487.14453 c -0.93613,-4.51012 -2.05357,-9.40979 -3.09961,-12.77344 -3.10372,-9.98044 -11.85546,-29.02734 -11.85546,-29.02734 0,0 2.13569,23.07508 2.21679,34.1543 0.0191,2.61214 -0.0407,5.20246 -0.14062,7.61523 4.63273,0.10241 8.91765,0.10683 12.8789,0.0312 z"
       style="display:inline;fill:#d3ff00;fill-opacity:1;stroke:none;stroke-width:5;stroke-linecap:round"
       id="path5"
       color="detail-1"
       data-layer="400" /><path
       d="m 309.05859,486.31836 c 0.51363,-10.36131 0.14109,-24.35995 -3.98632,-35.80078 -6.78778,-18.81513 -25.15625,-36.81836 -25.15625,-36.81836 0,0 7.20573,-10.549 9.6692,-15.41087 3.94452,-7.78487 8.62572,-22.78054 8.62572,-22.78054 0,0 -10.5317,-3.45106 -22.60157,-4.94922 -4.54511,-0.56415 -8.38185,-0.48255 -11.26953,-0.20898 -2.2032,16.37983 -2.36278,29.82164 -4.59961,34.29687 -6.44164,12.88786 -24.6058,22.05428 -24.42382,28.59375 4.85306,21.68029 28.03308,47.63181 50.72851,52.90235 7.19326,1.80923 10.97928,0.47867 23.01367,0.17578 z"
       style="display:inline;fill:#d3ff00;fill-opacity:1;stroke-width:0.885764"
       id="path2"
       data-layer="400"
       color="detail-1" /><path
       style="fill:none;stroke:#000000;stroke-width:5;stroke-linecap:round;stroke-dasharray:none;stroke-opacity:1"
       d="m 398.1977,478.45083 c 0,0 -11.95801,11.35847 -71.3982,8.18581 -27.40757,-1.4629 -30.85039,1.99653 -40.75413,-0.49443 -22.69543,-5.27054 -45.87645,-31.22237 -50.72951,-52.90266 -0.18198,-6.53947 17.983,-15.70528 24.42464,-28.59314 5.66061,-11.32524 -1.98546,-80.06755 43.86596,-108.55657 79.53558,-49.4181 130.35084,9.01082 141.4321,23.19305 24.67303,31.57746 9.55009,110.50804 9.55009,110.50804"
       id="path8"
       color="coat_contour"
       data-layer="400" /><path
       style="fill:none;stroke:#000000;stroke-width:3;stroke-linecap:round;stroke-dasharray:none;stroke-opacity:1"
       d="m 266.8022,474.89568 c 10.16512,-0.72608 18.27725,-10.01579 23.87638,-14.75679 -2.42423,8.70562 -19.79218,16.11819 -19.79218,16.11819 z"
       id="path14"
       color="coat_contour"
       data-layer="400" /><path
       style="fill:none;stroke:#000000;stroke-width:3;stroke-linecap:round;stroke-dasharray:none;stroke-opacity:1"
       d="m 269.22269,432.67615 c 0.84413,-0.23829 4.13651,-1.1599 4.70578,-1.29772 0.4879,-0.11812 2.32249,-1.1295 4.32827,-2.24504 -1.85789,3.15366 -3.73289,3.55033 -4.13681,3.71897 -0.2992,0.12493 -3.1729,0.38151 -4.89724,-0.17621 z"
       id="path15"
       line="3"
       color="coat_contour"
       data-layer="400" /></g></svg>
